<?xml version="1.0" encoding="utf-8"?>
<!-- Generator: Adobe Illustrator 19.2.1, SVG Export Plug-In . SVG Version: 6.00 Build 0)  -->
<svg version="1.1" id="Layer_1" xmlns="http://www.w3.org/2000/svg" xmlns:xlink="http://www.w3.org/1999/xlink" x="0px" y="0px"
	 viewBox="0 0 100.5 90" style="enable-background:new 0 0 100.5 90;" xml:space="preserve">
<style type="text/css">
	.st0{fill:#A5A5E5;}
	.st1{fill-rule:evenodd;clip-rule:evenodd;fill:#A5A5E5;}
	.st2{fill:#FFFFFF;}
	.st3{clip-path:url(#SVGID_2_);fill:#A5A5E5;}
	.st4{clip-path:url(#SVGID_4_);fill:#A5A5E5;}
	.st5{clip-path:url(#SVGID_6_);fill:#A5A5E5;}
	.st6{fill:#F3F3F3;}
</style>
<g>
	<g>
		<g>
			<g>
				<path class="st0" d="M32.5,36.1c-0.2,0.7-0.7,1.1-1.2,1.6c-1.2,1.2-1.6,2.6-1.6,4.3c0,8.4,0,16.8,0,25.3c0,3.2,2.8,6,6.1,6.1
					c4.9,0,9.8,0,14.6,0c3.5,0,6.2-2.8,6.2-6.2c0-8.4,0-16.8,0-25.3c0-1.6-0.7-2.9-1.6-4.1c-0.4-0.5-1-0.9-1.2-1.6"/>
			</g>
			<g>
				<path class="st1" d="M54.7,32.4c0.9-0.8,0.5-1.8,0.6-2.7c-0.5-0.5-1.1-0.4-1.6-0.4c-7,0-14,0-21,0c-1.8,0-2.2,0.9-1.5,2.5
					c0.4,0.8,0.9,0.6,1.4,0.6c7.3,0,14.7,0,22,0"/>
				<path class="st2" d="M32,32.8c-0.4,0-0.8-0.1-1.1-0.8c-0.4-0.9-0.5-1.7-0.1-2.2c0.3-0.5,1-0.8,1.9-0.8c7,0,14,0,21,0l0.2,0
					c0.5,0,1.1,0,1.6,0.4l0.1,0.1l0,0.2c0,0.2,0,0.5,0,0.7c0,0.7,0,1.5-0.7,2.2l-0.4-0.4v0.5h-4.1c-6,0-12,0-17.9,0
					c-0.1,0-0.2,0-0.3,0C32.2,32.8,32.1,32.8,32,32.8z M42.1,29.7c-3.2,0-6.3,0-9.5,0c-0.5,0-1.1,0.1-1.4,0.5
					c-0.3,0.4-0.1,1.1,0.2,1.6c0.2,0.4,0.4,0.4,0.8,0.4c0.1,0,0.2,0,0.3,0c0,0,0,0,0,0c6,0,12,0,17.9,0l4.1,0c0.5-0.5,0.4-1,0.4-1.7
					c0-0.2,0-0.4,0-0.6c-0.3-0.2-0.7-0.2-1.1-0.2l-0.2,0C49.8,29.7,46,29.7,42.1,29.7z"/>
			</g>
			<g>
				<path class="st1" d="M54.7,32.6c0.9,0.8,0.8,1.8,0.4,2.6c-0.4,0.9-1.4,0.9-2.3,0.6c-1.3-0.3-2.7-0.2-4-0.2c-4.6,0-9.2,0-13.7,0
					c-0.5,0-1,0-1.5,0.1c-0.9,0.3-1.8,0.2-2.3-0.6c-0.5-0.7-0.4-1.5,0-2.2c0.1-0.1,0.1-0.3,0.2-0.4"/>
				<path class="st2" d="M32.7,36.3c-0.7,0-1.3-0.3-1.7-0.9c-0.5-0.7-0.6-1.6,0-2.6c0-0.1,0.1-0.1,0.1-0.2l0-0.2l0.6,0.2l0,0.1
					c0,0.1-0.1,0.2-0.1,0.4c-0.4,0.7-0.4,1.3,0,1.9c0.5,0.6,1.1,0.8,2,0.5c0.5-0.2,0.9-0.2,1.3-0.2l0.3,0l0.6,0c4.4,0,8.8,0,13.1,0
					c0.3,0,0.7,0,1,0c1,0,2-0.1,3,0.2c1.4,0.3,1.8-0.1,1.9-0.5c0.3-0.7,0.5-1.6-0.3-2.2l0.4-0.5c0.9,0.7,1.1,1.8,0.5,3
					c-0.4,0.9-1.3,1.1-2.7,0.8c-0.9-0.2-1.9-0.2-2.8-0.2c-0.4,0-0.7,0-1.1,0c-4.4,0-8.8,0-13.1,0L35,36l-0.3,0c-0.4,0-0.8,0-1.1,0.1
					C33.3,36.3,33,36.3,32.7,36.3z"/>
			</g>
		</g>
		<g>
			<g>
				<defs>
					<path id="SVGID_1_" d="M70.8,40.6c0,0-0.2,0.1-0.5,0.2C70,40.9,69.5,41,69,41c-1,0.1-2.4,0.1-3.7-0.2c-1.3-0.3-2.5-0.7-3.4-1.3
						c-0.5-0.3-0.8-0.5-1.1-0.7c-0.3-0.2-0.4-0.3-0.4-0.3s0.2-0.1,0.5-0.2c0.3-0.1,0.8-0.2,1.3-0.2c1-0.1,2.4-0.1,3.7,0.2
						c1.3,0.3,2.5,0.7,3.4,1.3c0.5,0.3,0.8,0.5,1.1,0.7C70.7,40.5,70.8,40.6,70.8,40.6z"/>
				</defs>
				<clipPath id="SVGID_2_">
					<use xlink:href="#SVGID_1_"  style="overflow:visible;"/>
				</clipPath>
				<rect x="60.5" y="38" class="st3" width="10.3" height="3.1"/>
			</g>
		</g>
		<g>
			<g>
				<defs>
					<path id="SVGID_3_" d="M69.4,28c0,0-0.1,0.2-0.4,0.4c-0.2,0.2-0.6,0.5-1,0.8c-0.8,0.6-2,1.2-3.3,1.6c-1.3,0.4-2.6,0.6-3.6,0.6
						c-0.5,0-1,0-1.3-0.1c-0.3,0-0.5-0.1-0.5-0.1s0.1-0.2,0.4-0.4c0.2-0.2,0.6-0.5,1-0.8c0.8-0.6,2-1.2,3.3-1.6
						c1.3-0.4,2.6-0.6,3.6-0.6c0.5,0,1,0,1.3,0.1C69.2,28,69.4,28,69.4,28z"/>
				</defs>
				<clipPath id="SVGID_4_">
					<use xlink:href="#SVGID_3_"  style="overflow:visible;"/>
				</clipPath>
				<rect x="59.4" y="27.8" class="st4" width="10" height="3.7"/>
			</g>
		</g>
		<g>
			<g>
				<defs>
					<path id="SVGID_5_" d="M60.1,16.6c0,0,0,0.2,0,0.5c0,0.3-0.1,0.8-0.2,1.3c-0.2,1-0.7,2.3-1.4,3.4c-0.7,1.1-1.5,2.2-2.3,2.9
						c-0.4,0.3-0.8,0.6-1,0.8c-0.3,0.2-0.4,0.3-0.4,0.3s0-0.2,0-0.5c0-0.3,0.1-0.8,0.2-1.3c0.2-1,0.7-2.3,1.4-3.4
						c0.7-1.1,1.5-2.2,2.3-2.9c0.4-0.3,0.8-0.6,1-0.8C59.9,16.7,60.1,16.6,60.1,16.6z"/>
				</defs>
				<clipPath id="SVGID_6_">
					<use xlink:href="#SVGID_5_"  style="overflow:visible;"/>
				</clipPath>
				<rect x="54.7" y="16.6" class="st5" width="5.4" height="9.1"/>
			</g>
		</g>
		<g>
			<path class="st0" d="M54.5,33.1H31.8c-0.3,0-0.5-0.2-0.5-0.5s0.2-0.5,0.5-0.5h22.7c0.3,0,0.5,0.2,0.5,0.5S54.8,33.1,54.5,33.1z"
				/>
		</g>
	</g>
	<g>
		<g>
			<path class="st6" d="M38.4,47.2H48c0.1,0,0.1,0,0.1,0.1v0.9c0,0.1,0,0.1-0.1,0.1h-3.6v0.1c0.5,0.3,0.9,0.8,1.2,1.7l0,0.3H48
				c0.1,0,0.1,0,0.1,0.1v0.9c0,0.1,0,0.1-0.1,0.1h-2.3c0,1-0.6,2-1.9,3c-1.1,0.6-1.9,1-2.4,1c0,0,0,0-0.1,0l5.2,6.7v0.1h-2
				c0,0-2-2.6-6-7.8v0h0.6c2.2,0,3.5-0.8,4-2.4c0-0.2,0-0.3,0-0.5v-0.1h-4.8c-0.1,0-0.1,0-0.1-0.1v-0.9c0-0.1,0-0.1,0.1-0.1h4.8
				c-0.2-0.6-0.5-1.1-1-1.5c-0.7-0.4-1.4-0.6-2-0.6h-1.8c-0.1,0-0.1,0-0.1-0.1L38.4,47.2C38.3,47.2,38.3,47.2,38.4,47.2z"/>
			<path class="st6" d="M46.7,62.3h-2.1c-0.1,0-0.1,0-6.1-7.8l0,0v-0.2l0.2,0h0.6c2.1,0,3.4-0.7,3.8-2.3c0-0.1,0-0.3,0-0.4h-4.7
				c-0.1,0-0.2-0.1-0.2-0.2v-0.9c0-0.2,0.1-0.2,0.2-0.2h4.6c-0.2-0.5-0.5-0.9-0.9-1.2c-0.7-0.4-1.3-0.5-1.9-0.5h-1.8
				c-0.1,0-0.2-0.1-0.2-0.2v-0.9c0-0.2,0.1-0.2,0.2-0.2H48c0.2,0,0.2,0.1,0.2,0.2v0.9c0,0.1-0.1,0.2-0.2,0.2h-3.2
				c0.4,0.3,0.7,0.9,0.9,1.6l0,0.2H48c0.2,0,0.2,0.1,0.2,0.2v0.9c0,0.1-0.1,0.2-0.2,0.2h-2.1c-0.1,1-0.7,2-1.9,3
				c-1,0.6-1.8,0.9-2.3,1l5,6.5V62.3z M44.6,62h1.6L41,55.2h0.3v0h0.2c0.4,0,1.2-0.3,2.3-0.9c1.2-0.9,1.8-1.9,1.8-2.9v-0.2h2.4v-0.8
				l-2.4,0l-0.1-0.4c-0.3-0.8-0.6-1.3-1.1-1.6l-0.1,0v-0.3h3.7v-0.8l-9.5,0l0,0.7h1.7c0.6,0,1.3,0.2,2.1,0.6c0.6,0.4,1,1,1.1,1.6
				l0.1,0.2h-4.9l0,0.7h4.9v0.3c0,0.1,0,0.3,0,0.5c-0.5,1.7-1.9,2.5-4.1,2.5h-0.3C43.2,60.1,44.4,61.7,44.6,62z"/>
		</g>
	</g>
</g>
</svg>
