<?xml version="1.0" encoding="utf-8"?>
<!-- Generator: Adobe Illustrator 19.2.1, SVG Export Plug-In . SVG Version: 6.00 Build 0)  -->
<svg version="1.1" id="Layer_1" xmlns="http://www.w3.org/2000/svg" xmlns:xlink="http://www.w3.org/1999/xlink" x="0px" y="0px"
	 viewBox="0 0 1960 157.9" style="enable-background:new 0 0 1960 157.9;" xml:space="preserve">
<style type="text/css">
	.st0{fill:#F6F6F6;}
</style>
<g>
	<path class="st0" d="M1833.4,121.7c-0.3,0.6-0.6,1.2-0.9,1.8c-1.5,2.5-3.7,7.5-1.4,10.1c4,4.6,8.2-2.3,8.6-5.9
		c0.6-5.2-1.6-11.6-4.8-15.7C1834.9,115.6,1834.7,118.7,1833.4,121.7z"/>
	<path class="st0" d="M1960,18.2H0v38.9h1521.8c5.5,0.8,11,1.3,17.1,1.3c0.7,0,1.4,0,2,0c-0.4,1.1-0.8,2.1-1.1,3.2
		c-1.2,4.3-3.3,8.9-2.9,13.5c0.3,3.6,4.9,6.5,8.2,4.4c4.4-2.9,0.2-10.3,0.1-14.2c-0.1-2.1-0.4-4.6,0-6.7c8.1,0.4,16.2,1.9,23.2,6.4
		c7.6,4.8,8.9,8.8,12.9,16.3c3.1,5.8,7.1,10.7,13.8,12.4c16.3,4.1,14.4-19.2,29.8-16.1c18.2,3.7,20.8,19.1,32.5,30.2
		c8.8,8.3,21.5,3.5,26.8-6.4c2.1-3.8,5.7-16.2,12.6-10.7c3.9,3.1,3.9,10.7,10.4,6.9c4.1-2.4,4.5-10.3,8-13.8
		c6.2-6.3,18-5.7,25.1-1.4c12.7,7.7,16.1,22.9,23.4,34.9c10.9,17.9,24.1,29.8,45.5,17.4c10.3-6,14.6-17.7,16.3-29.1
		c1.7-11,7.6-22.4,17.3-28.3c7.7-4.7,25.8-5.3,32.9,1c14.4,12.9,21.7,9.3,31.6-4.6c10-14,23.5-15.4,39.7-16.5h12.8v-39H1960z"/>
</g>
</svg>
