<?xml version="1.0" encoding="utf-8"?>
<!-- Generator: Adobe Illustrator 19.2.1, SVG Export Plug-In . SVG Version: 6.00 Build 0)  -->
<svg version="1.1" id="Layer_1" xmlns="http://www.w3.org/2000/svg" xmlns:xlink="http://www.w3.org/1999/xlink" x="0px" y="0px"
	 viewBox="0 0 100.5 90" style="enable-background:new 0 0 100.5 90;" xml:space="preserve">
<style type="text/css">
	.st0{fill:#A5A5E5;}
</style>
<g>
	<path class="st0" d="M54.7,33.8h-0.5c0.1-0.3,0.2-0.6,0.2-0.9v-3.1c0-0.3-0.1-0.7-0.2-1v-0.1h-0.1c-0.4-0.7-1.1-1.1-1.9-1.1h-0.3
		V26h1v-4.5h0c0-0.2-1.1-0.4-2.5-0.4c-1.4,0-2.5,0.2-2.5,0.4v0.7h-4.1c-1.5,0-2.5,1.5-2.5,1.6l1.1,0.7c0.2-0.3,0.7-0.9,1.4-0.9h4.1
		V26h1v1.7h-0.4c-1.2,0-2.2,1-2.2,2.2v3.1c0,0.3,0.1,0.6,0.2,0.9h-0.3c-1.8,0-3.4,1.5-3.4,3.4v26.6c0,1.8,1.5,3.4,3.4,3.4h8.8
		c1.8,0,3.4-1.5,3.4-3.4V37.1C58,35.3,56.5,33.8,54.7,33.8z"/>
	<g>
		<path class="st0" d="M32.7,18.5c-3.4,1.1-5.8,2.7-8.2,7.4c0,0.1,0.1,0.2,0.2,0.2c3.4-1.7,5.8-3.1,8.1-7.4
			C32.9,18.6,32.9,18.5,32.7,18.5z"/>
		<path class="st0" d="M26.4,17.6C26.4,17.6,26.3,17.6,26.4,17.6c-2.8,2.3-4.5,4.6-5,9.9c0,0.1,0.2,0.2,0.3,0.1
			c2.6-2.8,4.3-4.9,4.9-9.8C26.5,17.7,26.5,17.6,26.4,17.6C26.4,17.6,26.4,17.6,26.4,17.6z"/>
		<path class="st0" d="M19.7,22.3c0,0-0.1,0-0.1,0c-1.9,3-2.8,5.7-1.7,10.9c0.1,0.1,0.2,0.1,0.3,0c1.6-3.4,2.6-6.1,1.6-10.9
			C19.8,22.4,19.8,22.3,19.7,22.3z"/>
		<path class="st0" d="M29.3,25.5c-3.6,0.6-6.1,1.9-9.2,6.2c0,0.1,0.1,0.2,0.2,0.2c3.6-1.2,6.2-2.2,9.1-6.2
			C29.5,25.7,29.4,25.5,29.3,25.5z"/>
		<path class="st0" d="M14.3,26.6c-0.1,0-0.1,0-0.1,0.1c-0.9,3.5-0.9,6.3,1.7,10.9c0.1,0.1,0.3,0,0.3-0.1c0.5-3.8,0.7-6.6-1.7-10.8
			C14.4,26.6,14.3,26.6,14.3,26.6z"/>
		<path class="st0" d="M21.9,32c0,0-0.1,0-0.1,0c-3.7,3.2-4.4,5.9-5.2,9.6c0,0.1,0.2,0.2,0.3,0.2c4-3.5,5-6.1,5.2-9.7
			C22,32,22,32,21.9,32z"/>
		<path class="st0" d="M12.2,34c-0.1,0-0.2,0-0.2,0.1c-0.2,3.6,0.4,6.4,4,10.3c0.1,0.1,0.3,0,0.3-0.1C15.9,40.5,15.5,37.7,12.2,34
			C12.2,34,12.2,34,12.2,34z"/>
		<path class="st0" d="M19.4,40.7c0,0-0.1,0-0.1,0c-1.6,3.2-2.2,6-0.5,11c0.1,0.1,0.3,0.1,0.3,0c1.2-3.6,1.9-6.3,0.4-11
			C19.5,40.8,19.5,40.7,19.4,40.7C19.4,40.7,19.4,40.7,19.4,40.7z"/>
		<path class="st0" d="M9.7,41c-0.1,0-0.2,0.1-0.2,0.2c1.1,3.5,2.6,5.9,7.2,8.4c0.1,0,0.2-0.1,0.2-0.2C15.4,45.9,14,43.4,9.7,41
			C9.7,41,9.7,41,9.7,41z"/>
		<path class="st0" d="M21.3,50c-0.1,0-0.1,0-0.2,0.1c-0.3,3.6,0.1,6.4,3.5,10.5c0.1,0.1,0.3,0,0.3-0.1C24.7,56.7,24.4,53.9,21.3,50
			C21.4,50,21.3,50,21.3,50z"/>
		<path class="st0" d="M12.3,49c-0.1,0-0.2,0.1-0.2,0.2c1.4,3.3,3.2,5.5,8.1,7.5c0.1,0,0.2-0.1,0.2-0.2C18.4,53.2,16.9,50.9,12.3,49
			z"/>
		<path class="st0" d="M27.3,57.8c-0.1,0-0.2,0.1-0.2,0.2c1.1,3.4,2.7,5.8,7.4,8.3c0.1,0,0.2-0.1,0.2-0.2
			C33,62.6,31.6,60.1,27.3,57.8C27.3,57.8,27.3,57.8,27.3,57.8z"/>
		<path class="st0" d="M15.9,56.6c-0.9-0.1-1.8-0.2-2.9-0.2c-0.1,0-0.2,0.2-0.2,0.3c2.6,2.5,5.1,3.9,10.4,3.9c0.1,0,0.2-0.2,0.1-0.3
			C21,58.4,19,57.1,15.9,56.6z"/>
		<path class="st0" d="M24,62.3c-1.8-0.3-3.7-0.3-6.3,0.4c-0.1,0-0.1,0.2-0.1,0.3c3.1,1.8,5.9,2.5,11,1.2c0.1-0.1,0.1-0.3,0-0.3
			C27.1,63.2,25.6,62.6,24,62.3z"/>
		<path class="st0" d="M30.3,66.1c-2.2-0.3-4.4-0.2-7.4,0.9c-0.1,0.1-0.1,0.2-0.1,0.3c3.3,1.5,6.1,1.9,11.1,0c0.1-0.1,0.1-0.3,0-0.3
			C32.6,66.5,31.4,66.2,30.3,66.1z"/>
		<path class="st0" d="M34.1,69.7c-1.9-0.1-3.2,0-5.5,2.3c0,0.1-0.1,0.2,0,0.2c1.7,0.5,3.1,0.3,5.5-2.3
			C34.1,69.9,34.1,69.7,34.1,69.7z"/>
	</g>
	<g>
		<path class="st0" d="M67.8,18.5c3.4,1.1,5.8,2.7,8.2,7.4c0,0.1-0.1,0.2-0.2,0.2c-3.4-1.7-5.8-3.1-8.1-7.4
			C67.6,18.6,67.6,18.5,67.8,18.5z"/>
		<path class="st0" d="M74.1,17.6C74.1,17.6,74.2,17.6,74.1,17.6c2.8,2.3,4.5,4.6,5,9.9c0,0.1-0.2,0.2-0.3,0.1
			c-2.6-2.8-4.3-4.9-4.9-9.8C73.9,17.7,74,17.6,74.1,17.6C74.1,17.6,74.1,17.6,74.1,17.6z"/>
		<path class="st0" d="M80.8,22.3c0,0,0.1,0,0.1,0c1.9,3,2.8,5.7,1.7,10.9c-0.1,0.1-0.2,0.1-0.3,0c-1.6-3.4-2.6-6.1-1.6-10.9
			C80.7,22.4,80.7,22.3,80.8,22.3z"/>
		<path class="st0" d="M71.2,25.5c3.6,0.6,6.1,1.9,9.2,6.2c0,0.1-0.1,0.2-0.2,0.2c-3.6-1.2-6.2-2.2-9.1-6.2
			C71,25.7,71.1,25.5,71.2,25.5z"/>
		<path class="st0" d="M86.2,26.6c0.1,0,0.1,0,0.1,0.1c0.9,3.5,0.9,6.3-1.7,10.9c-0.1,0.1-0.3,0-0.3-0.1c-0.5-3.8-0.7-6.6,1.7-10.8
			C86.1,26.6,86.2,26.6,86.2,26.6z"/>
		<path class="st0" d="M78.6,32c0,0,0.1,0,0.1,0c3.7,3.2,4.4,5.9,5.2,9.6c0,0.1-0.2,0.2-0.3,0.2c-4-3.5-5-6.1-5.2-9.7
			C78.5,32,78.5,32,78.6,32z"/>
		<path class="st0" d="M88.3,34c0.1,0,0.2,0,0.2,0.1c0.2,3.6-0.4,6.4-4,10.3c-0.1,0.1-0.3,0-0.3-0.1C84.6,40.5,85,37.7,88.3,34
			C88.2,34,88.3,34,88.3,34z"/>
		<path class="st0" d="M81.1,40.7c0,0,0.1,0,0.1,0c1.6,3.2,2.2,6,0.5,11c-0.1,0.1-0.3,0.1-0.3,0c-1.2-3.6-1.9-6.3-0.4-11
			C81,40.8,81,40.7,81.1,40.7C81.1,40.7,81.1,40.7,81.1,40.7z"/>
		<path class="st0" d="M90.8,41c0.1,0,0.2,0.1,0.2,0.2c-1.1,3.5-2.6,5.9-7.2,8.4c-0.1,0-0.2-0.1-0.2-0.2
			C85.1,45.9,86.4,43.4,90.8,41C90.8,41,90.8,41,90.8,41z"/>
		<path class="st0" d="M79.2,50c0.1,0,0.1,0,0.2,0.1c0.3,3.6-0.1,6.4-3.5,10.5c-0.1,0.1-0.3,0-0.3-0.1C75.8,56.7,76.1,53.9,79.2,50
			C79.1,50,79.2,50,79.2,50z"/>
		<path class="st0" d="M88.2,49c0.1,0,0.2,0.1,0.2,0.2c-1.4,3.3-3.2,5.5-8.1,7.5c-0.1,0-0.2-0.1-0.2-0.2C82,53.2,83.6,50.9,88.2,49z
			"/>
		<path class="st0" d="M73.2,57.8c0.1,0,0.2,0.1,0.2,0.2c-1.1,3.4-2.7,5.8-7.4,8.3c-0.1,0-0.2-0.1-0.2-0.2
			C67.5,62.6,68.9,60.1,73.2,57.8C73.2,57.8,73.2,57.8,73.2,57.8z"/>
		<path class="st0" d="M84.5,56.6c0.9-0.1,1.8-0.2,2.9-0.2c0.1,0,0.2,0.2,0.2,0.3c-2.6,2.5-5.1,3.9-10.4,3.9c-0.1,0-0.2-0.2-0.1-0.3
			C79.5,58.4,81.5,57.1,84.5,56.6z"/>
		<path class="st0" d="M76.5,62.3c1.8-0.3,3.7-0.3,6.3,0.4c0.1,0,0.1,0.2,0.1,0.3c-3.1,1.8-5.9,2.5-11,1.2c-0.1-0.1-0.1-0.3,0-0.3
			C73.4,63.2,74.9,62.6,76.5,62.3z"/>
		<path class="st0" d="M70.2,66.1c2.2-0.3,4.4-0.2,7.4,0.9c0.1,0.1,0.1,0.2,0.1,0.3c-3.3,1.5-6.1,1.9-11.1,0c-0.1-0.1-0.1-0.3,0-0.3
			C67.9,66.5,69.1,66.2,70.2,66.1z"/>
		<path class="st0" d="M66.4,69.7c1.9-0.1,3.2,0,5.5,2.3c0,0.1,0.1,0.2,0,0.2c-1.7,0.5-3.1,0.3-5.5-2.3
			C66.4,69.9,66.4,69.7,66.4,69.7z"/>
	</g>
</g>
</svg>
