<?xml version="1.0" encoding="utf-8"?>
<!-- Generator: Adobe Illustrator 19.2.1, SVG Export Plug-In . SVG Version: 6.00 Build 0)  -->
<svg version="1.1" id="Layer_1" xmlns="http://www.w3.org/2000/svg" xmlns:xlink="http://www.w3.org/1999/xlink" x="0px" y="0px"
	 viewBox="0 0 100.5 90" style="enable-background:new 0 0 100.5 90;" xml:space="preserve">
<style type="text/css">
	.st0{fill:#A5A5E5;}
	.st1{fill:#F3F3F3;}
	.st2{fill:#A7A5D1;}
</style>
<g>
	<g>
		<g>
			<path class="st0" d="M52.9,25.6H31.3c-2.4,0-4.3,1.9-4.3,4.3v34.6c0,2.4,1.9,4.3,4.3,4.3h21.6c2.4,0,4.3-1.9,4.3-4.3V30
				C57.2,27.6,55.3,25.6,52.9,25.6z M33.4,64.5c-1.2,0-2.2-1-2.2-2.2c0-1.2,1-2.2,2.2-2.2c1.2,0,2.2,1,2.2,2.2
				C35.6,63.6,34.6,64.5,33.4,64.5z M33.4,55.9c-1.2,0-2.2-1-2.2-2.2c0-1.2,1-2.2,2.2-2.2c1.2,0,2.2,1,2.2,2.2
				C35.6,54.9,34.6,55.9,33.4,55.9z M33.4,47.2c-1.2,0-2.2-1-2.2-2.2c0-1.2,1-2.2,2.2-2.2c1.2,0,2.2,1,2.2,2.2
				C35.6,46.3,34.6,47.2,33.4,47.2z M42.1,64.5c-1.2,0-2.2-1-2.2-2.2c0-1.2,1-2.2,2.2-2.2c1.2,0,2.2,1,2.2,2.2
				C44.2,63.6,43.3,64.5,42.1,64.5z M42.1,55.9c-1.2,0-2.2-1-2.2-2.2c0-1.2,1-2.2,2.2-2.2c1.2,0,2.2,1,2.2,2.2
				C44.2,54.9,43.3,55.9,42.1,55.9z M42.1,47.2c-1.2,0-2.2-1-2.2-2.2c0-1.2,1-2.2,2.2-2.2c1.2,0,2.2,1,2.2,2.2
				C44.2,46.3,43.3,47.2,42.1,47.2z M50.7,64.5c-1.2,0-2.2-1-2.2-2.2c0-1.2,1-2.2,2.2-2.2c1.2,0,2.2,1,2.2,2.2
				C52.9,63.6,51.9,64.5,50.7,64.5z M50.7,55.9c-1.2,0-2.2-1-2.2-2.2c0-1.2,1-2.2,2.2-2.2c1.2,0,2.2,1,2.2,2.2
				C52.9,54.9,51.9,55.9,50.7,55.9z M50.7,47.2c-1.2,0-2.2-1-2.2-2.2c0-1.2,1-2.2,2.2-2.2c1.2,0,2.2,1,2.2,2.2
				C52.9,46.3,51.9,47.2,50.7,47.2z M52.9,38.6H31.3V30h21.6V38.6z"/>
		</g>
	</g>
	<g>
		<g>
			<circle class="st1" cx="59.9" cy="34.7" r="12.5"/>
		</g>
		<g>
			<path class="st2" d="M59.9,48.3c-7.5,0-13.6-6.1-13.6-13.6c0-7.5,6.1-13.6,13.6-13.6c7.5,0,13.6,6.1,13.6,13.6
				C73.5,42.2,67.4,48.3,59.9,48.3z M59.9,23.3c-6.3,0-11.4,5.1-11.4,11.4c0,6.3,5.1,11.4,11.4,11.4c6.3,0,11.4-5.1,11.4-11.4
				C71.3,28.5,66.2,23.3,59.9,23.3z"/>
		</g>
	</g>
	<g>
		<g>
			<path class="st0" d="M56.6,30.6h7.6c0,0,0.1,0,0.1,0.1v0.7c0,0,0,0.1-0.1,0.1h-2.9v0.1c0.4,0.2,0.7,0.7,0.9,1.3l0,0.2h1.9
				c0,0,0.1,0,0.1,0.1v0.7c0,0,0,0.1-0.1,0.1h-1.8c0,0.8-0.5,1.6-1.5,2.4c-0.9,0.5-1.5,0.8-1.9,0.8c0,0,0,0-0.1,0l4.1,5.3v0.1h-1.5
				c0,0-1.6-2-4.7-6.1v0h0.5c1.7,0,2.8-0.6,3.1-1.9c0-0.2,0-0.3,0-0.4V34h-3.8c0,0-0.1,0-0.1-0.1v-0.7c0,0,0-0.1,0.1-0.1h3.8
				c-0.1-0.5-0.4-0.9-0.8-1.2c-0.6-0.3-1.1-0.5-1.6-0.5h-1.4c0,0-0.1,0-0.1-0.1L56.6,30.6C56.5,30.6,56.5,30.6,56.6,30.6z"/>
			<path class="st0" d="M63.2,42.7h-1.8c-0.1,0-0.1,0-4.9-6.2l0-0.1v-0.3l0.2,0h0.5c1.6,0,2.6-0.6,2.9-1.7c0-0.1,0-0.1,0-0.2h-3.6
				c-0.2,0-0.3-0.1-0.3-0.3v-0.7c0-0.2,0.1-0.3,0.3-0.3h3.5c-0.1-0.3-0.4-0.6-0.6-0.8c-0.5-0.3-1-0.4-1.5-0.4h-1.4
				c-0.2,0-0.3-0.1-0.3-0.3v-0.7c0-0.2,0.1-0.3,0.3-0.3h7.6c0.2,0,0.3,0.1,0.3,0.3v0.7c0,0.2-0.1,0.3-0.3,0.3h-2.3
				c0.3,0.3,0.5,0.7,0.6,1.1l0,0.1h1.7c0.2,0,0.3,0.1,0.3,0.3v0.7c0,0.2-0.1,0.3-0.3,0.3h-1.6C62.5,35,62,35.7,61,36.5
				c-0.7,0.4-1.3,0.7-1.7,0.8l3.9,5.1V42.7z M61.6,42.2h1.1l-4.1-5.3h0.3v0H59c0.2,0,0.7-0.1,1.8-0.7c0.9-0.7,1.4-1.4,1.4-2.2v-0.2
				H64v-0.4l-1.9,0l-0.1-0.4c-0.2-0.6-0.5-1-0.8-1.2l-0.1-0.1v-0.4H64v-0.4l-7.3,0l0,0.4H58c0.5,0,1.1,0.2,1.7,0.5
				c0.5,0.3,0.8,0.8,0.9,1.3l0.1,0.3h-3.9l0,0.4h3.9V34c0,0.1,0,0.2,0,0.4c-0.4,1.4-1.5,2.1-3.3,2.1h-0.1
				C60.3,40.6,61.3,41.9,61.6,42.2z"/>
		</g>
	</g>
</g>
</svg>
