<?xml version="1.0" encoding="utf-8"?>
<!-- Generator: Adobe Illustrator 19.2.1, SVG Export Plug-In . SVG Version: 6.00 Build 0)  -->
<svg version="1.1" id="Layer_1" xmlns="http://www.w3.org/2000/svg" xmlns:xlink="http://www.w3.org/1999/xlink" x="0px" y="0px"
	 viewBox="0 0 570 535.5" style="enable-background:new 0 0 570 535.5;" xml:space="preserve">
<style type="text/css">
	.st0{clip-path:url(#SVGID_2_);fill:#DDDDDD;}
	.st1{clip-path:url(#SVGID_2_);fill:#623ED8;}
	.st2{clip-path:url(#SVGID_2_);fill:#CFCFCF;}
	.st3{clip-path:url(#SVGID_2_);fill:none;}
	.st4{clip-path:url(#SVGID_2_);}
	.st5{fill:#271F45;}
	.st6{clip-path:url(#SVGID_4_);fill:#9999D9;}
	.st7{clip-path:url(#SVGID_4_);}
	.st8{fill:#C5C6C7;}
	.st9{fill:#2A1F48;}
	.st10{fill:#FFFFFF;}
	.st11{fill:#7147E5;stroke:#7147E5;stroke-width:1.1354;stroke-miterlimit:10;}
	.st12{fill:#F4A671;}
	.st13{fill:#623ED8;}
	.st14{fill:#F67A82;}
	.st15{font-family:'BrandonText-Medium';}
	.st16{font-size:8.5787px;}
	.st17{font-size:7.1489px;}
	.st18{fill:none;stroke:#512DA8;stroke-width:0.7703;stroke-miterlimit:10;}
	.st19{fill:#512DA8;}
	.st20{font-family:'RupeeForadian';}
	.st21{fill:none;stroke:#A3A3A3;stroke-width:0.7703;stroke-miterlimit:10;}
	.st22{fill:none;stroke:#A3A3A3;stroke-width:0.5271;stroke-miterlimit:10;}
	.st23{fill:#FFB37B;}
	.st24{fill:#E5AE51;}
	.st25{fill:#9999D9;}
	.st26{clip-path:url(#SVGID_8_);}
	.st27{fill:none;stroke:#FF6666;stroke-width:0.7703;stroke-miterlimit:10;}
	.st28{fill:#FF6666;}
	.st29{font-size:10.9958px;}
	.st30{fill:none;stroke:#FF6666;stroke-width:0.9873;stroke-miterlimit:10;}
	.st31{clip-path:url(#SVGID_10_);fill:#FF6666;}
	.st32{clip-path:url(#SVGID_10_);fill:none;stroke:#FFFFFF;stroke-width:0.3346;stroke-miterlimit:10;}
</style>
<g>
	<g>
		<defs>
			<circle id="SVGID_1_" cx="292.5" cy="267.7" r="228.4"/>
		</defs>
		<clipPath id="SVGID_2_">
			<use xlink:href="#SVGID_1_"  style="overflow:visible;"/>
		</clipPath>
		<circle class="st0" cx="292.5" cy="267.7" r="228.4"/>
		<path class="st1" d="M774.3,417.9c0,45.8-11.8,83-26.4,83H71.1c-14.6,0-26.4-37.2-26.4-83l0,0c0-45.9,11.8-83,26.4-83h676.8
			C762.5,334.9,774.3,372.1,774.3,417.9L774.3,417.9z"/>
		<path class="st2" d="M599.3,374.1c0,3.5-2.2,6.3-5,6.3H69.1c-2.8,0-5-2.8-5-6.3v-24.7c0-3.5,2.2-6.3,5-6.3h525.2
			c2.8,0,5,2.8,5,6.3V374.1z"/>
		<path class="st0" d="M525.4,213.9"/>
		<circle class="st3" cx="292.5" cy="254" r="228.4"/>
		<g class="st4">
			<g>
				<g>
					<g>
						<ellipse class="st5" cx="380.9" cy="308.1" rx="48.9" ry="48.9"/>
						<circle class="st5" cx="775.2" cy="308.1" r="48.9"/>
						<path class="st5" d="M834.9,315.8c0,0-153.6,3.1-155.9,3.1c-2.3,0-361.4,3.1-361.4,3.1s-45-62.8,34.1-72.1
							c79.1-9.3,108.6-3.9,161.3-3.9c52.7,0,252.8-0.8,265.3-0.8c12.4,0,37.2-6.2,44.2,6.2C829.5,263.9,834.9,315.8,834.9,315.8z"/>
						<g>
							<defs>
								<path id="SVGID_3_" d="M715.5,323.7H439.8c0,0-2.3-69.8-62.8-69.8c-36.1,2.3-54.7,34.9-50,74.5c-40.7-3.5-48.9-9.3-50-16.3
									c-7-8.1-10.5-37.2-5.8-45.4c4.7-8.1,9.3-31.4,50-44.2c40.7-12.8,112.8-26.8,112.8-26.8l104.7-55.8c0,0,40.7-11.6,95.4-12.8
									c54.7-1.2,108.2,2.3,108.2,2.3s60.5,15.1,97.7,51.2c30.2,0,54.3-6.2,52.3,15.8c-2.2,25.4,8.1,50.5,8.1,50.5
									s16.3,19.8,5.8,29.1c-10.5,9.3-11.6,12.8-10.5,18.6c1.2,5.8-9.3,20.9-41.9,23.3c-32.6,2.3-24.4,3.5-24.4,3.5
									s5.8-66.3-66.3-65.1C710.9,257.3,715.5,323.7,715.5,323.7z"/>
							</defs>
							<use xlink:href="#SVGID_3_"  style="overflow:visible;fill:#9999D9;"/>
							<clipPath id="SVGID_4_">
								<use xlink:href="#SVGID_3_"  style="overflow:visible;"/>
							</clipPath>
							<path class="st6" d="M844,176.7c0,0,5.7,23.8-122,32.1c-127.7,8.3-261.6,3.6-261.6,3.6s-29-4.1-31.5-16.5
								c-2.6-12.4,90.5-71.4,146.3-77c55.8-5.7,120,6.7,121.5,6.7c1.5,0,53.8-1,57.4-1c3.6,0,77.6,12.4,84.3,24.3
								C845,160.7,844,176.7,844,176.7z"/>
							<g class="st7">
								<defs>
									<path id="SVGID_5_" d="M715.5,323.7H439.8c0,0-2.3-69.8-62.8-69.8c-36.1,2.3-54.7,34.9-50,74.5c-40.7-3.5-48.9-9.3-50-16.3
										c-7-8.1-10.5-37.2-5.8-45.4c4.7-8.1,9.3-31.4,50-44.2c40.7-12.8,112.8-26.8,112.8-26.8l104.7-55.8c0,0,40.7-11.6,95.4-12.8
										c54.7-1.2,108.2,2.3,108.2,2.3s60.5,15.1,97.7,51.2c30.2,0,54.7-8,52.3,14c-2.2,20.2,8.1,52.3,8.1,52.3s16.3,19.8,5.8,29.1
										c-10.5,9.3-11.6,12.8-10.5,18.6c1.2,5.8-9.3,20.9-41.9,23.3c-32.6,2.3-24.4,3.5-24.4,3.5s5.8-66.3-66.3-65.1
										C710.9,257.3,715.5,323.7,715.5,323.7z"/>
								</defs>
								<clipPath id="SVGID_6_">
									<use xlink:href="#SVGID_5_"  style="overflow:visible;"/>
								</clipPath>
							</g>
						</g>
						<circle class="st8" cx="380.9" cy="308.1" r="31.4"/>
						<ellipse class="st8" cx="775.2" cy="308.1" rx="31.4" ry="31.4"/>
						<polygon class="st9" points="646.5,137.9 632,204.6 743.7,200 719.9,140.5 						"/>
						<path class="st9" d="M623.7,140l-51.2,3.6c0,0-33.1,5.7-58.9,25.9c-25.8,20.2-39.3,34.6-39.3,34.6l134.4,1L623.7,140z"/>
						<path class="st9" d="M757.6,197.9l-24.8-55.8c0,0,39.8,6.2,60,26.4C813,188.6,802.1,196.9,757.6,197.9z"/>
						<path class="st10" d="M889.5,204.1c0,0-9.8,0-12.4,6.7c-2.6,6.7-9.8,30.5,1.6,30.5c11.4,0,21.2,1.6,19.6-13.4
							C896.7,212.9,889.5,204.1,889.5,204.1z"/>
						<path class="st10" d="M283.5,241.4l19.6,1c0,0,6.7,4.1,3.1,8.8c-3.6,4.7-9.8,12.4-22.8,12.4
							C270.6,263.6,268,254.3,283.5,241.4z"/>
						<path class="st9" d="M840,180.6c0,0-16.2-14.8-56-30.9c-39.8-16-23.1-15.4-23.1-15.4s27.9,9.2,48.6,21.6
							C830.1,168.3,847.9,180.8,840,180.6z"/>
						<path class="st9" d="M538.7,139.8l3.3,3.3c0,0-65.2,38.8-71.9,43.4c-6.7,4.6-22.2,17.1-22.2,17.1l-13.9-7.9
							C434,195.7,503.3,152.6,538.7,139.8z"/>
					</g>
				</g>
				<polygon class="st10" points="719.5,140.4 707.3,139.9 634.9,204.6 648.5,203.9 				"/>
				<polygon class="st10" points="623.3,139.9 610.1,140.8 538.7,204.6 550.9,204.6 				"/>
				<polygon class="st10" points="725,154.3 670.7,202.9 682.8,202.4 728.1,162 				"/>
			</g>
			<g>
				<path class="st11" d="M457.2,254.8c-0.8-0.3-2-0.7-3.5-1.2c-1.5-0.5-3.3-1.2-5.4-1.9c-2.1-0.7-4.4-1.6-7-2.5
					c-2.6-0.9-5.3-1.9-8.3-2.9c-2.9-1-6-2.2-9.2-3.3c-3.2-1.2-6.5-2.3-9.9-3.6c-3.4-1.2-6.8-2.4-10.2-3.7c-3.4-1.2-6.8-2.5-10.2-3.7
					c-3.4-1.2-6.6-2.4-9.8-3.6c-3.2-1.2-6.3-2.3-9.2-3.4c-2.9-1.1-5.7-2.1-8.2-3.1c-2.5-0.9-4.9-1.8-6.9-2.6c-2.1-0.8-3.9-1.5-5.3-2
					c-1.5-0.6-2.6-1-3.4-1.3c-0.8-0.3-1.2-0.5-1.2-0.5s0.4,0.1,1.2,0.4c0.8,0.3,2,0.7,3.5,1.2c1.5,0.5,3.3,1.2,5.4,1.9
					c2.1,0.7,4.4,1.6,7,2.5c2.6,0.9,5.3,1.9,8.3,2.9c2.9,1,6,2.2,9.2,3.3c3.2,1.2,6.5,2.3,9.9,3.6c3.4,1.2,6.8,2.4,10.2,3.7
					c3.4,1.2,6.8,2.5,10.2,3.7c3.3,1.2,6.6,2.4,9.8,3.6c3.2,1.2,6.3,2.3,9.2,3.4c2.9,1.1,5.7,2.1,8.2,3.1c2.5,0.9,4.9,1.8,6.9,2.6
					c2.1,0.8,3.9,1.5,5.4,2C455.3,254.1,456.4,254.5,457.2,254.8c0.8,0.3,1.2,0.4,1.2,0.4S458,255.1,457.2,254.8z"/>
				<path class="st11" d="M423.5,196.9c-0.2,0.7-0.6,1.6-1,2.9c-0.4,1.2-0.9,2.7-1.5,4.4c-0.6,1.7-1.3,3.6-2,5.8
					c-0.7,2.1-1.6,4.4-2.4,6.8c-0.9,2.4-1.8,5-2.7,7.6c-0.9,2.6-1.9,5.3-2.9,8.1c-1,2.8-2,5.6-3,8.3c-1,2.8-2,5.6-3,8.3
					c-1,2.7-2,5.5-3,8.1c-1,2.6-1.9,5.1-2.8,7.5c-0.9,2.4-1.7,4.7-2.5,6.7c-0.8,2.1-1.5,4-2.2,5.7c-0.6,1.7-1.2,3.2-1.7,4.4
					c-0.5,1.2-0.8,2.2-1.1,2.8c-0.3,0.7-0.4,1-0.4,1s0.1-0.4,0.4-1c0.2-0.7,0.6-1.6,1-2.9c0.4-1.2,1-2.7,1.5-4.4
					c0.6-1.7,1.3-3.6,2-5.7c0.7-2.1,1.5-4.4,2.4-6.8c0.9-2.4,1.8-4.9,2.7-7.6c0.9-2.6,1.9-5.3,2.9-8.1c1-2.8,2-5.5,3-8.3
					c1-2.8,2-5.6,3.1-8.3c1-2.8,2-5.4,3-8.1c1-2.6,1.9-5.1,2.8-7.5c0.9-2.4,1.7-4.7,2.5-6.7c0.8-2.1,1.5-4,2.2-5.7
					c0.6-1.7,1.2-3.2,1.7-4.4C422.8,198.5,423.2,197.5,423.5,196.9c0.2-0.7,0.3-1,0.3-1S423.7,196.2,423.5,196.9z"/>
				<path class="st11" d="M407.4,204.9c-0.3,0.9-0.7,2-1.1,3.2c-0.4,1.3-0.9,2.7-1.5,4.2c-0.5,1.5-1.1,3.2-1.7,5
					c-0.6,1.8-1.3,3.6-2,5.5c-0.7,1.9-1.4,3.9-2.1,5.9c-0.7,2-1.5,4-2.2,6.1c-0.7,2-1.5,4.1-2.2,6.1c-0.7,2-1.5,4-2.2,5.9
					c-0.7,1.9-1.4,3.7-2.1,5.5c-0.6,1.7-1.3,3.4-1.9,4.9c-0.6,1.5-1.1,2.9-1.6,4.1c-0.5,1.2-0.9,2.3-1.2,3.2
					c-0.7,1.8-1.1,2.8-1.1,2.8s0.3-1,0.9-2.8c0.3-0.9,0.7-2,1.1-3.2c0.4-1.2,0.9-2.7,1.4-4.2c0.5-1.5,1.1-3.2,1.7-4.9
					c0.6-1.8,1.3-3.6,1.9-5.5c0.7-1.9,1.4-3.9,2.1-5.9c0.7-2,1.5-4,2.2-6.1c0.7-2,1.5-4.1,2.2-6.1c0.7-2,1.5-4,2.2-5.9
					c0.7-1.9,1.4-3.7,2.1-5.5c0.7-1.7,1.3-3.4,1.9-4.9c0.6-1.5,1.1-2.9,1.6-4.1c0.5-1.2,0.9-2.3,1.2-3.2c0.7-1.8,1.1-2.8,1.1-2.8
					S408,203.1,407.4,204.9z"/>
				<path class="st11" d="M428.2,219.2c-0.1,0.4-0.3,0.9-0.5,1.6c-0.2,0.7-0.5,1.5-0.8,2.5c-0.3,1-0.7,2-1.1,3.2
					c-0.4,1.2-0.8,2.4-1.3,3.8c-0.5,1.3-1,2.7-1.5,4.2c-0.5,1.5-1,3-1.6,4.5c-0.6,1.5-1.1,3.1-1.7,4.6c-0.6,1.5-1.1,3.1-1.7,4.6
					c-0.6,1.5-1.1,3-1.7,4.4c-0.5,1.5-1.1,2.8-1.6,4.2c-0.5,1.3-1,2.6-1.4,3.7c-0.4,1.1-0.9,2.2-1.2,3.1c-0.4,0.9-0.7,1.7-1,2.4
					c-0.3,0.7-0.5,1.2-0.6,1.5c-0.1,0.4-0.2,0.5-0.2,0.5s0.1-0.2,0.2-0.6c0.1-0.4,0.3-0.9,0.5-1.6c0.2-0.7,0.5-1.5,0.8-2.5
					c0.3-1,0.7-2,1.1-3.2c0.4-1.2,0.8-2.4,1.3-3.8c0.5-1.3,0.9-2.7,1.5-4.2c0.5-1.5,1-3,1.6-4.5c0.6-1.5,1.1-3.1,1.7-4.6
					c0.6-1.5,1.1-3.1,1.7-4.6c0.6-1.5,1.1-3,1.7-4.4c0.5-1.4,1.1-2.8,1.6-4.2c0.5-1.3,1-2.6,1.4-3.7c0.4-1.2,0.8-2.2,1.2-3.1
					c0.4-0.9,0.7-1.7,1-2.4C427.8,220.1,428,219.6,428.2,219.2c0.1-0.4,0.2-0.6,0.2-0.6S428.3,218.9,428.2,219.2z"/>
				<path class="st11" d="M434.9,230.7c-0.1,0.3-0.2,0.7-0.4,1.3c-0.2,0.5-0.4,1.2-0.6,2c-0.2,0.8-0.5,1.6-0.8,2.5
					c-0.3,0.9-0.6,1.9-1,3c-0.4,1.1-0.8,2.2-1.2,3.3c-0.4,1.2-0.8,2.4-1.3,3.6c-0.4,1.2-0.9,2.4-1.3,3.7c-0.5,1.2-0.9,2.5-1.3,3.7
					c-0.4,1.2-0.9,2.4-1.3,3.5c-0.4,1.1-0.9,2.2-1.3,3.3c-0.4,1-0.8,2-1.1,3c-0.4,0.9-0.7,1.8-1,2.5c-0.3,0.7-0.6,1.4-0.8,1.9
					c-0.2,0.5-0.4,0.9-0.5,1.2c-0.1,0.3-0.2,0.4-0.2,0.4s0.1-0.2,0.1-0.4c0.1-0.3,0.2-0.7,0.4-1.3c0.2-0.5,0.4-1.2,0.6-2
					c0.2-0.8,0.5-1.6,0.8-2.5c0.3-0.9,0.7-1.9,1-3c0.4-1.1,0.8-2.2,1.2-3.3c0.4-1.2,0.8-2.4,1.3-3.6c0.4-1.2,0.9-2.4,1.3-3.7
					c0.4-1.2,0.9-2.5,1.4-3.7c0.4-1.2,0.9-2.4,1.3-3.5c0.4-1.2,0.8-2.3,1.3-3.3c0.4-1.1,0.8-2,1.1-3c0.3-0.9,0.7-1.8,1-2.5
					c0.3-0.7,0.6-1.4,0.8-1.9C434.6,231.3,434.7,230.9,434.9,230.7c0.1-0.3,0.2-0.5,0.2-0.5S435,230.4,434.9,230.7z"/>
				<path class="st11" d="M439.4,244.9c-0.9-0.3-2-0.7-3.3-1.1c-1.3-0.4-2.7-0.9-4.3-1.5c-1.6-0.5-3.3-1.1-5.1-1.8
					c-1.8-0.6-3.7-1.3-5.6-2c-2-0.7-4-1.4-6-2.2c-2-0.7-4.1-1.5-6.2-2.2c-2.1-0.8-4.1-1.5-6.2-2.3c-2-0.8-4-1.5-6-2.2
					c-1.9-0.7-3.8-1.4-5.6-2.1c-1.8-0.7-3.5-1.3-5-1.9c-1.6-0.6-3-1.1-4.2-1.6c-1.3-0.5-2.4-0.9-3.3-1.3c-1.8-0.7-2.8-1.1-2.8-1.1
					s1,0.4,2.9,1c0.9,0.3,2,0.7,3.3,1.1c1.3,0.4,2.7,0.9,4.3,1.5c1.6,0.6,3.3,1.1,5.1,1.8c1.8,0.6,3.7,1.3,5.6,2c2,0.7,4,1.4,6,2.2
					c2,0.7,4.1,1.5,6.2,2.2c2.1,0.8,4.2,1.5,6.2,2.3c2,0.7,4.1,1.5,6,2.2c1.9,0.7,3.8,1.4,5.6,2.1c1.8,0.7,3.5,1.3,5,1.9
					c1.5,0.6,3,1.1,4.2,1.6c1.3,0.5,2.3,0.9,3.3,1.3c1.8,0.7,2.8,1.1,2.8,1.1S441.3,245.5,439.4,244.9z"/>
				<path class="st11" d="M437.1,236.1c-0.8-0.3-1.8-0.6-3-1c-1.2-0.4-2.5-0.9-3.9-1.4c-1.4-0.5-3-1-4.6-1.6
					c-1.6-0.6-3.4-1.2-5.1-1.8c-1.8-0.6-3.6-1.3-5.5-2c-1.9-0.7-3.8-1.4-5.7-2.1c-1.9-0.7-3.8-1.4-5.7-2.1c-1.9-0.7-3.7-1.4-5.5-2
					c-1.8-0.7-3.5-1.3-5.1-1.9c-1.6-0.6-3.2-1.2-4.6-1.7c-1.4-0.5-2.7-1-3.9-1.5c-1.1-0.4-2.1-0.8-3-1.2c-1.6-0.7-2.6-1-2.6-1
					s1,0.3,2.6,0.9c0.8,0.3,1.9,0.6,3,1c1.2,0.4,2.5,0.8,3.9,1.4c1.4,0.5,3,1,4.6,1.6c1.6,0.6,3.4,1.2,5.1,1.8
					c1.8,0.6,3.6,1.3,5.5,2c1.9,0.7,3.8,1.4,5.7,2c1.9,0.7,3.8,1.4,5.7,2.1c1.9,0.7,3.7,1.4,5.5,2c1.8,0.7,3.5,1.3,5.1,1.9
					c1.6,0.6,3.2,1.2,4.6,1.7c1.4,0.5,2.7,1,3.9,1.5c1.1,0.4,2.1,0.8,3,1.2c1.6,0.7,2.6,1,2.6,1S438.7,236.7,437.1,236.1z"/>
				<path class="st11" d="M450.5,234c-1-0.3-2.2-0.7-3.5-1.2c-1.4-0.5-2.9-1-4.6-1.6c-1.7-0.6-3.5-1.2-5.4-1.9
					c-1.9-0.7-3.9-1.4-6-2.2c-2.1-0.8-4.3-1.5-6.5-2.3c-2.2-0.8-4.4-1.6-6.7-2.4c-2.2-0.8-4.5-1.6-6.6-2.4c-2.2-0.8-4.3-1.6-6.4-2.4
					c-2.1-0.8-4.1-1.5-6-2.2c-1.9-0.7-3.7-1.4-5.4-2c-1.7-0.6-3.2-1.2-4.5-1.7c-1.3-0.5-2.5-1-3.5-1.3c-1.9-0.8-3-1.2-3-1.2
					s1.1,0.4,3.1,1c1,0.3,2.2,0.8,3.5,1.2c1.4,0.5,2.9,1,4.6,1.6c1.7,0.6,3.5,1.2,5.4,1.9c1.9,0.7,4,1.4,6,2.1
					c2.1,0.8,4.3,1.5,6.5,2.3c2.2,0.8,4.4,1.6,6.7,2.4c2.2,0.8,4.5,1.6,6.7,2.4c2.2,0.8,4.3,1.6,6.4,2.4c2.1,0.8,4.1,1.5,6,2.2
					c1.9,0.7,3.7,1.4,5.4,2c1.7,0.6,3.2,1.2,4.5,1.7c1.3,0.5,2.5,1,3.5,1.3c1.9,0.8,3,1.2,3,1.2S452.5,234.7,450.5,234z"/>
				<path class="st11" d="M444.6,229.4c-0.4-0.1-1-0.3-1.7-0.6c-0.7-0.2-1.6-0.5-2.7-0.9c-1-0.3-2.2-0.7-3.4-1.2
					c-1.3-0.4-2.6-0.9-4.1-1.4c-1.4-0.5-3-1-4.5-1.6c-1.6-0.6-3.2-1.1-4.8-1.7c-1.6-0.6-3.3-1.2-5-1.8c-1.7-0.6-3.3-1.2-5-1.8
					c-1.6-0.6-3.3-1.2-4.8-1.8c-1.6-0.6-3.1-1.1-4.5-1.7c-1.4-0.5-2.8-1.1-4-1.5c-1.2-0.5-2.4-0.9-3.4-1.3c-1-0.4-1.9-0.7-2.6-1
					c-0.7-0.3-1.3-0.5-1.7-0.7c-0.4-0.2-0.6-0.2-0.6-0.2s0.2,0.1,0.6,0.2c0.4,0.1,1,0.3,1.7,0.6c0.7,0.3,1.6,0.6,2.7,0.9
					c1,0.3,2.2,0.7,3.4,1.2c1.3,0.4,2.6,0.9,4.1,1.4c1.4,0.5,3,1,4.5,1.6c1.6,0.6,3.2,1.1,4.8,1.7c1.6,0.6,3.3,1.2,5,1.8
					c1.7,0.6,3.3,1.2,5,1.8c1.6,0.6,3.2,1.2,4.8,1.8c1.6,0.6,3.1,1.1,4.5,1.7c1.4,0.5,2.8,1.1,4,1.5c1.2,0.5,2.4,0.9,3.4,1.3
					c1,0.4,1.9,0.7,2.6,1C443.7,229,444.3,229.2,444.6,229.4c0.4,0.1,0.6,0.2,0.6,0.2S445,229.6,444.6,229.4z"/>
			</g>
		</g>
		<g class="st4">
			<g>
				<g>
					<path class="st12" d="M190.2,155.8c1.3,5.3,6.7,8.6,12,7.3l15.5-3.8c5.3-1.3,8.6-6.7,7.3-12l0,0c-1.3-5.3-6.7-8.6-12-7.3
						l-15.5,3.8C192.1,145.1,188.9,150.5,190.2,155.8L190.2,155.8z"/>
					<g>
						<path class="st13" d="M124.7,99.6v129.9c0,6.9,5.3,12.4,11.8,12.4h55.4c6.5,0,11.8-5.6,11.8-12.4V99.6
							c0-6.9-5.3-12.5-11.8-12.5h-55.4C129.9,87.2,124.7,92.8,124.7,99.6z M130.1,107.1h68.1v115h-68.1V107.1z"/>
						<rect x="130.1" y="107.1" class="st10" width="68.1" height="115"/>
						<path class="st5" d="M150.3,97.3c0,0.8,0.7,1.5,1.5,1.5h24.8c0.8,0,1.5-0.7,1.5-1.5l0,0c0-0.8-0.7-1.5-1.5-1.5h-24.8
							C150.9,95.8,150.3,96.5,150.3,97.3L150.3,97.3z"/>
					</g>
					<path class="st12" d="M120.2,182.4c0.3-1.2,0.9-4.7-0.1-5.6c-1.1-1-4,0-5.2,0.1c-2.9,0.1-5.7,0.4-8.6,0.8
						c-3.8,0.6-8.1,0.9-11.4,2.9c-2.8,1.7-2.6,5.3-4.3,8c-1.7,2.7-1.8,6.2-2.2,9.3c-0.6,5.4-1.2,12.3-1.2,15.5
						c0.2,3.8-0.7,7.6-1.5,11.3c-0.1,0.8-0.3,1.6-0.5,2.4v0.1c-2.2,9.2-7.3,17.8-12.4,25.5c7.1,3.9,14.2,7.8,21.3,11.7
						c5.8,3.2,11.7,6.4,17.5,9.6c1.7,0.9,6.8,2.6,7.8,4.3c1.3,2.3-1.2,5.8,0.2,8.4c2.3,4.4,5.7,0.7,9.7-1.6
						c6.7-3.9,13.5-8,20.2-11.7c10.8-6,21-14.5,30.8-22.2c1.2-0.9,8.3-8.9,9-8.9h-52.9c-6.5,0-11.8-5.6-11.8-12.5v-51.4
						C122.9,179.5,121.7,180.9,120.2,182.4z"/>
					<path class="st12" d="M202.1,162.7c0,0-7.7,19.8-3.7,25.5c4,5.7,10.8,2.2,14.3-8.7c1-3.1,1.9-6.2,2.7-9.4
						c0.9-3.5,1.6-6.9-2.3-9.1C210.7,159.8,205.9,158.5,202.1,162.7z"/>
					<path class="st12" d="M209.9,182.4c0,0-12.1,15.2-9.9,21.1c2.2,5.9,9.2,4.6,15.1-4c1.7-2.4,3.3-4.9,4.7-7.4
						c1.6-2.8,3.1-5.6,0-8.4C218.1,182.1,214.4,179.7,209.9,182.4z"/>
					<path class="st12" d="M211.1,198.6c0,0-13.4,12-12.1,17.7c1.4,5.7,8.2,5.5,14.8-1.4c1.9-2,3.7-4,5.4-6c1.9-2.3,3.7-4.6,1.1-7.6
						C218.9,199.6,215.7,196.9,211.1,198.6z"/>
					<path class="st14" d="M199.7,178.8l9.3,1.1c0,0-0.5,6.4-4,7.8c-3.5,1.4-5.2-1.4-5.9-2.8C198.3,183.1,199.7,178.8,199.7,178.8z"
						/>
					<path class="st14" d="M204,195.5l7.5,4.6c0,0-1.9,4.4-5.3,5.3c-3.4,0.9-4.7-1.9-5.1-3.3C200.5,200.4,204,195.5,204,195.5z"/>
					<path class="st14" d="M204.8,209.2l5.8,4.8c0,0-2.3,4.4-5.8,4.8c-2.5,0.3-4.9-2-4.4-4.7C200.9,212.2,203.3,210.4,204.8,209.2z"
						/>
				</g>
				<g>
					<text transform="matrix(1 0 0 1 144.6162 132.1613)"><tspan x="0" y="0" class="st15 st16">Sc</tspan><tspan x="8.8" y="0" class="st15 st16">r</tspan><tspan x="12.1" y="0" class="st15 st16">atch           </tspan></text>
					<text transform="matrix(1 0 0 1 139.9502 142.5333)" class="st15 st17">                                </text>
					<circle class="st18" cx="138" cy="129.1" r="3"/>
					<path class="st19" d="M139.6,129.1c0,0.9-0.7,1.6-1.6,1.6s-1.6-0.7-1.6-1.6c0-0.9,0.7-1.6,1.6-1.6S139.6,128.2,139.6,129.1"/>
					<text transform="matrix(1 0 0 1 144.6152 164.8073)"><tspan x="0" y="0" class="st15 st16">D</tspan><tspan x="6.3" y="0" class="st15 st16">e</tspan><tspan x="10.7" y="0" class="st15 st16">n</tspan><tspan x="15.4" y="0" class="st15 st16">t    </tspan></text>
					<text transform="matrix(1 0 0 1 122.9048 175.2926)" class="st15 st17">                                              </text>
					<circle class="st18" cx="138" cy="161.8" r="3"/>
					<path class="st19" d="M139.6,161.8c0,0.9-0.7,1.6-1.6,1.6s-1.6-0.7-1.6-1.6s0.7-1.6,1.6-1.6S139.6,160.9,139.6,161.8"/>
					<text transform="matrix(1 0 0 1 144.6152 195.507)"><tspan x="0" y="0" class="st15 st16">R</tspan><tspan x="5.4" y="0" class="st15 st16">epla</tspan><tspan x="20.8" y="0" class="st15 st16">c</tspan><tspan x="24.9" y="0" class="st15 st16">eme</tspan><tspan x="41" y="0" class="st15 st16">n</tspan><tspan x="45.6" y="0" class="st15 st16">t  </tspan></text>
					<text transform="matrix(0.3971 0 0 1 158.9277 195.507)" class="st20 st17">            </text>
					<g>
						<g>
							<g>
								<path d="M145.8,137.4h3.3c0,0,0,0,0,0v0.3c0,0,0,0,0,0h-1.2v0c0.2,0.1,0.3,0.3,0.4,0.6l0,0.1h0.8c0,0,0,0,0,0v0.3
									c0,0,0,0,0,0h-0.8c0,0.4-0.2,0.7-0.6,1c-0.4,0.2-0.7,0.3-0.8,0.3c0,0,0,0,0,0l1.8,2.3v0H148c0,0-0.7-0.9-2.1-2.7v0h0.2
									c0.8,0,1.2-0.3,1.4-0.8c0-0.1,0-0.1,0-0.2v0h-1.7c0,0,0,0,0,0v-0.3c0,0,0,0,0,0h1.6c-0.1-0.2-0.2-0.4-0.4-0.5
									c-0.3-0.1-0.5-0.2-0.7-0.2h-0.6c0,0,0,0,0,0L145.8,137.4C145.8,137.4,145.8,137.4,145.8,137.4z"/>
							</g>
							<g>
								<path d="M151.2,142.2h2.5c0.1,0,0.1,0,0.1,0.1v0.1c0,0.1,0,0.1-0.1,0.1h-2.9c-0.1,0-0.1,0-0.1-0.1v-0.1c0,0,0-0.1,0.1-0.1
									l1.9-1.9c0.5-0.5,0.8-1,0.8-1.5c0-0.6-0.4-1.1-1.2-1.1c-0.7,0-1,0.5-1.1,0.6c0,0.1-0.1,0.1-0.1,0l-0.1-0.1
									c0,0-0.1-0.1,0-0.1c0,0,0.5-0.7,1.4-0.7c1,0,1.6,0.7,1.6,1.4c0,0.7-0.4,1.1-0.9,1.7L151.2,142.2L151.2,142.2z"/>
								<path d="M154.8,140c0-1.6,0.7-2.6,1.8-2.6c1.1,0,1.8,1,1.8,2.6c0,1.6-0.7,2.6-1.8,2.6C155.5,142.6,154.8,141.6,154.8,140z
									 M158.1,140c0-1.4-0.5-2.3-1.5-2.3c-1,0-1.5,0.8-1.5,2.3c0,1.5,0.5,2.3,1.5,2.3C157.5,142.3,158.1,141.5,158.1,140z"/>
								<path d="M159.4,140c0-1.6,0.7-2.6,1.8-2.6c1.1,0,1.8,1,1.8,2.6c0,1.6-0.7,2.6-1.8,2.6C160.1,142.6,159.4,141.6,159.4,140z
									 M162.7,140c0-1.4-0.5-2.3-1.5-2.3c-1,0-1.5,0.8-1.5,2.3c0,1.5,0.5,2.3,1.5,2.3C162.2,142.3,162.7,141.5,162.7,140z"/>
								<path d="M164.1,140c0-1.6,0.7-2.6,1.8-2.6c1.1,0,1.8,1,1.8,2.6c0,1.6-0.7,2.6-1.8,2.6C164.7,142.6,164.1,141.6,164.1,140z
									 M167.3,140c0-1.4-0.5-2.3-1.5-2.3c-1,0-1.5,0.8-1.5,2.3c0,1.5,0.5,2.3,1.5,2.3C166.8,142.3,167.3,141.5,167.3,140z"/>
							</g>
						</g>
						<g>
							<g>
								<path d="M145.8,170.2h3.3c0,0,0,0,0,0v0.3c0,0,0,0,0,0h-1.2v0c0.2,0.1,0.3,0.3,0.4,0.6l0,0.1h0.8c0,0,0,0,0,0v0.3
									c0,0,0,0,0,0h-0.8c0,0.4-0.2,0.7-0.6,1c-0.4,0.2-0.7,0.3-0.8,0.3c0,0,0,0,0,0l1.8,2.3v0H148c0,0-0.7-0.9-2.1-2.7v0h0.2
									c0.8,0,1.2-0.3,1.4-0.8c0-0.1,0-0.1,0-0.2v0h-1.7c0,0,0,0,0,0v-0.3c0,0,0,0,0,0h1.6c-0.1-0.2-0.2-0.4-0.4-0.5
									c-0.3-0.1-0.5-0.2-0.7-0.2h-0.6c0,0,0,0,0,0L145.8,170.2C145.8,170.2,145.8,170.2,145.8,170.2z"/>
							</g>
							<g>
								<path d="M150.8,174.6l0.1-0.1c0.1,0,0.1,0,0.1,0c0.2,0.2,0.5,0.6,1.3,0.6c0.8,0,1.3-0.4,1.3-1.1c0-0.7-0.7-1.1-1.3-1.1h-0.7
									c-0.1,0-0.1,0-0.1-0.1v-0.1c0-0.1,0-0.1,0.1-0.1h0.7c0.5,0,1.2-0.3,1.2-1c0-0.6-0.5-1-1.1-1c-0.7,0-1.1,0.4-1.2,0.5
									c0,0-0.1,0-0.1,0l-0.1-0.1c0,0,0-0.1,0-0.1c0,0,0.5-0.7,1.4-0.7c0.8,0,1.5,0.5,1.5,1.3c0,0.6-0.4,1-0.8,1.2c0,0,0,0,0,0
									c0.5,0.1,1,0.6,1,1.2c0,0.8-0.6,1.4-1.7,1.4c-0.9,0-1.3-0.5-1.5-0.7C150.7,174.7,150.7,174.6,150.8,174.6z"/>
								<path d="M155,172.8c0-1.6,0.7-2.6,1.8-2.6c1.1,0,1.8,1,1.8,2.6c0,1.6-0.7,2.6-1.8,2.6C155.6,175.4,155,174.4,155,172.8z
									 M158.2,172.8c0-1.4-0.5-2.3-1.5-2.3c-1,0-1.5,0.8-1.5,2.3c0,1.5,0.5,2.3,1.5,2.3C157.7,175.1,158.2,174.2,158.2,172.8z"/>
								<path d="M159.6,172.8c0-1.6,0.7-2.6,1.8-2.6c1.1,0,1.8,1,1.8,2.6c0,1.6-0.7,2.6-1.8,2.6
									C160.2,175.4,159.6,174.4,159.6,172.8z M162.9,172.8c0-1.4-0.5-2.3-1.5-2.3c-1,0-1.5,0.8-1.5,2.3c0,1.5,0.5,2.3,1.5,2.3
									C162.3,175.1,162.9,174.2,162.9,172.8z"/>
								<path d="M164.2,172.8c0-1.6,0.7-2.6,1.8-2.6c1.1,0,1.8,1,1.8,2.6c0,1.6-0.7,2.6-1.8,2.6
									C164.9,175.4,164.2,174.4,164.2,172.8z M167.5,172.8c0-1.4-0.5-2.3-1.5-2.3c-1,0-1.5,0.8-1.5,2.3c0,1.5,0.5,2.3,1.5,2.3
									C167,175.1,167.5,174.2,167.5,172.8z"/>
							</g>
						</g>
						<g>
							<path d="M147.5,201.5c0.9,0,1.7,0.8,1.7,1.7c0,1-0.7,1.7-1.7,1.7c-0.9,0-1.7-0.8-1.7-1.7
								C145.8,202.2,146.5,201.5,147.5,201.5z M147.5,204.6c0.7,0,1.3-0.6,1.3-1.4c0-0.8-0.6-1.4-1.3-1.4c-0.8,0-1.3,0.6-1.3,1.4
								C146.1,204,146.7,204.6,147.5,204.6z"/>
							<path d="M150.1,201.6c0-0.1,0-0.1,0.1-0.1h0c0.1,0,0.1,0,0.1,0.1l0,0.4c0.1-0.1,0.5-0.5,1.2-0.5c0.9,0,1.2,0.6,1.2,1.4v1.8
								c0,0.1-0.1,0.1-0.1,0.1h-0.1c-0.1,0-0.1,0-0.1-0.1v-1.8c0-0.8-0.3-1.2-0.9-1.2c-0.7,0-1.1,0.5-1.1,0.6v2.4
								c0,0.1,0,0.1-0.1,0.1h-0.1c-0.1,0-0.1,0-0.1-0.1V201.6z"/>
							<path d="M155.5,200.3c0-0.2,0.1-0.3,0.3-0.3c0.2,0,0.3,0.1,0.3,0.3c0,0.1-0.1,0.3-0.3,0.3
								C155.7,200.6,155.5,200.5,155.5,200.3z M155.7,201.6c0-0.1,0-0.1,0.1-0.1h0.1c0,0,0.1,0,0.1,0.1v3.1c0,0.1,0,0.1-0.1,0.1
								h-0.1c-0.1,0-0.1,0-0.1-0.1V201.6z"/>
							<path d="M157.2,201.6c0-0.1,0-0.1,0.1-0.1h0c0.1,0,0.1,0,0.1,0.1l0,0.4c0.1-0.1,0.5-0.5,1.2-0.5c0.9,0,1.2,0.6,1.2,1.4v1.8
								c0,0.1,0,0.1-0.1,0.1h-0.1c-0.1,0-0.1,0-0.1-0.1v-1.8c0-0.8-0.3-1.2-0.9-1.2c-0.7,0-1.1,0.5-1.1,0.6v2.4c0,0.1,0,0.1-0.1,0.1
								h-0.1c-0.1,0-0.1,0-0.1-0.1V201.6z"/>
							<path d="M160.8,204.4l0.1-0.1c0-0.1,0.1-0.1,0.2,0c0.1,0.1,0.4,0.3,0.9,0.3c0.5,0,0.8-0.2,0.8-0.6c0-0.4-0.4-0.6-1-0.8
								c-0.6-0.2-1-0.4-1-1c0-0.4,0.3-0.8,1.1-0.8c0.4,0,0.8,0.1,0.9,0.2c0,0,0.1,0.1,0,0.1l0,0.1c0,0.1-0.1,0.1-0.1,0
								c-0.1,0-0.4-0.2-0.8-0.2c-0.5,0-0.7,0.3-0.7,0.5c0,0.3,0.3,0.5,0.8,0.7c0.6,0.2,1.1,0.4,1.1,1c0,0.5-0.5,0.9-1.1,0.9
								c-0.6,0-0.9-0.2-1.1-0.4C160.8,204.5,160.8,204.5,160.8,204.4z"/>
							<path d="M164.3,206.4c0,0.1-0.1,0.1-0.1,0.1h-0.1c-0.1,0-0.1,0-0.1-0.1v-4.8c0-0.1,0.1-0.1,0.1-0.1h0c0.1,0,0.1,0,0.1,0.1
								l0,0.2c0.1-0.1,0.5-0.4,1.1-0.4c0.9,0,1.6,0.8,1.6,1.7c0,1-0.7,1.7-1.6,1.7c-0.6,0-0.9-0.3-1-0.3V206.4z M165.3,204.6
								c0.8,0,1.3-0.6,1.3-1.4c0-0.8-0.5-1.4-1.3-1.4c-0.6,0-1,0.4-1.1,0.4v2C164.4,204.2,164.8,204.6,165.3,204.6z"/>
							<path d="M169.3,201.5c0.9,0,1.5,0.7,1.5,1.5c0,0.1,0,0.3-0.1,0.3H168c0,0.7,0.6,1.3,1.3,1.3c0.5,0,0.8-0.2,1-0.3
								c0.1,0,0.1-0.1,0.1,0l0.1,0.1c0,0,0,0.1,0,0.1c-0.2,0.2-0.7,0.4-1.2,0.4c-1,0-1.6-0.8-1.6-1.7
								C167.7,202.2,168.4,201.5,169.3,201.5z M170.5,203c0-0.7-0.4-1.2-1.2-1.2c-0.7,0-1.2,0.5-1.3,1.2H170.5z"/>
							<path d="M173.2,201.5c0.6,0,1.1,0.3,1.2,0.5c0,0.1,0,0.1,0,0.2l-0.1,0.1c-0.1,0.1-0.1,0-0.2,0c-0.1-0.1-0.5-0.4-1-0.4
								c-0.8,0-1.4,0.6-1.4,1.4c0,0.8,0.6,1.4,1.4,1.4c0.6,0,1-0.4,1-0.5c0.1-0.1,0.1-0.1,0.2,0l0.1,0.1c0,0,0,0.1,0,0.1
								c-0.1,0.2-0.6,0.6-1.3,0.6c-0.9,0-1.7-0.7-1.7-1.7C171.5,202.2,172.3,201.5,173.2,201.5z"/>
							<path d="M175.6,201.8h-0.4c-0.1,0-0.1,0-0.1-0.1v-0.1c0-0.1,0-0.1,0.1-0.1h0.4v-0.9c0-0.1,0-0.1,0.1-0.1l0.1,0
								c0.1,0,0.1,0.1,0.1,0.1v0.9h1.2c0.1,0,0.1,0,0.1,0.1v0.1c0,0.1,0,0.1-0.1,0.1h-1.2v2.2c0,0.4,0.1,0.6,0.5,0.6
								c0.4,0,0.7-0.2,0.8-0.3c0.1,0,0.1,0,0.1,0l0.1,0.1c0,0.1,0,0.1,0,0.1c-0.1,0.1-0.5,0.3-1,0.3c-0.6,0-0.7-0.4-0.7-0.9V201.8z"
								/>
							<path d="M177.9,200.3c0-0.2,0.1-0.3,0.3-0.3c0.2,0,0.3,0.1,0.3,0.3c0,0.1-0.1,0.3-0.3,0.3C178,200.6,177.9,200.5,177.9,200.3
								z M178,201.6c0-0.1,0-0.1,0.1-0.1h0.1c0,0,0.1,0,0.1,0.1v3.1c0,0.1,0,0.1-0.1,0.1h-0.1c-0.1,0-0.1,0-0.1-0.1V201.6z"/>
							<path d="M181,201.5c0.9,0,1.7,0.8,1.7,1.7c0,1-0.7,1.7-1.7,1.7c-0.9,0-1.7-0.8-1.7-1.7C179.3,202.2,180,201.5,181,201.5z
								 M181,204.6c0.7,0,1.3-0.6,1.3-1.4c0-0.8-0.6-1.4-1.3-1.4c-0.8,0-1.3,0.6-1.3,1.4C179.6,204,180.2,204.6,181,204.6z"/>
							<path d="M183.6,201.6c0-0.1,0-0.1,0.1-0.1h0c0.1,0,0.1,0,0.1,0.1l0,0.4c0.1-0.1,0.5-0.5,1.2-0.5c0.9,0,1.2,0.6,1.2,1.4v1.8
								c0,0.1-0.1,0.1-0.1,0.1h-0.1c-0.1,0-0.1,0-0.1-0.1v-1.8c0-0.8-0.3-1.2-0.9-1.2c-0.7,0-1.1,0.5-1.1,0.6v2.4
								c0,0.1,0,0.1-0.1,0.1h-0.1c-0.1,0-0.1,0-0.1-0.1V201.6z"/>
						</g>
					</g>
					<circle class="st21" cx="138" cy="192.5" r="3"/>
					<circle class="st21" cx="138" cy="192.5" r="1.6"/>
					<line class="st22" x1="132.7" y1="147.5" x2="180.2" y2="147.5"/>
					<line class="st22" x1="132.7" y1="178.8" x2="180.2" y2="178.8"/>
				</g>
				<path class="st12" d="M89.6,190.8c0,0,8.4-28.1,11.7-32.9c3.3-4.8,11.9-16.3,13.6-31.8c0,0,10.6-4.5,12,12.3
					c1.3,16.8-6.6,43.9-6.6,43.9"/>
			</g>
			<g>
				<g>
					<g>
						<path class="st23" d="M175.7,189.9l1.9,89c0,0,0,0.1,0,0.1c0.2,4.7,4.1,8.3,8.8,8.1c4.7-0.2,16.2-6.7,16-11.3l-11.2-86.4
							c-0.2-4.2-3.7-7.5-7.9-7.5C179,182.1,175.6,185.6,175.7,189.9z"/>
						<path class="st23" d="M246.3,358.9c0,0,13.8-31.7,12.8-63.7c-0.1-2.3-0.2-5.5-0.3-8.8c-5.6-1.7-11.1-3.7-16.4-6.4
							c-7.1-3.5-13.9-7.7-20.5-12.1c-4.1-2.7-8.1-5.6-12.1-8.5l-11.3,0.5c-0.4,2.6-1.8,2.5-2.5,2.5c-2,0.2-2.5-2.4-2.5-2.4
							l-15.7,12.3c-1.8,54.8,10.5,88.2,10.5,88.2L246.3,358.9z"/>
						<path class="st23" d="M168.5,330.1c3.8,8.2,20,30.5,20,30.5l11.8-67.3c-20.4,5.2-24.8-10.2-24.8-10.2l-7-28.8
							c-7.4-20.6-20.3-15.2-20.3-15.2l6.2,44.6C154.4,283.7,163.3,319.1,168.5,330.1z"/>
						<path class="st23" d="M269.7,631.8c0,0-18.9-236.2-23.8-274.8l-57.1,1.7c0,0-7.7,256.1-1,275.5L269.7,631.8z"/>
						<g>
							<g>
								<line class="st24" x1="216.1" y1="348.3" x2="215.8" y2="343.8"/>
							</g>
						</g>
						<polygon class="st25" points="277.9,645.6 259.2,374.7 178.3,375.9 180.5,648.1 						"/>
						<path class="st25" d="M241.2,618c0.5,9.5,0.1,19-0.8,28.6l32.7-2.8l-13.9-269l-12.1,0.2c1.2,14.8-8.5,180.8-8.1,197.2
							C239.3,587.4,240.4,602.7,241.2,618z"/>
					</g>
					<path class="st23" d="M257.6,318.4c0,0,11.3-41-1.5-49.8c-8.4-5.8-44.2-22.9-44.2-22.9l-9.8,22.7L257.6,318.4z"/>
					<path class="st23" d="M251.8,276.1l-7.2-18.6c0,0-5.1-7.4-14.4-8.1c-9.4-0.7-34-1.7-34-1.7l18.2,33L251.8,276.1z"/>
					<path class="st23" d="M230.9,263.4l-9.7-17.4c0,0-6-6.6-15.4-6.1c-9.4,0.6-20.5,4.6-20.5,4.6l9.2,28.6L230.9,263.4z"/>
				</g>
			</g>
			<path class="st12" d="M139.6,278.9l-54.4,36.1l-38.6-44.3c0,0,29.9-15.6,35.1-33.3"/>
			<polygon class="st25" points="74.9,234.9 119.8,299.5 70.4,333.3 19.9,279.8 			"/>
			<path class="st14" d="M178.9,196.8l10.7-0.9c0,0,0-8.2-2.9-10.5C184.7,183.7,175.7,183.4,178.9,196.8z"/>
			<path class="st14" d="M148.7,242.2c0,0,6.6-0.2,9.9,11.6l-7.8,1.8L148.7,242.2z"/>
			<path class="st14" d="M110.9,142.1h5.5c0,0,3.4-6.5-1.8-13C114.6,129.1,112.8,139.3,110.9,142.1z"/>
		</g>
	</g>
	<g>
		<defs>
			<rect id="SVGID_7_" x="49.2" y="56.4" width="197" height="111"/>
		</defs>
		<clipPath id="SVGID_8_">
			<use xlink:href="#SVGID_7_"  style="overflow:visible;"/>
		</clipPath>
		<g class="st26">
			<g>
				<path class="st12" d="M189.9,156c1.3,5.3,6.7,8.6,12,7.3l15.5-3.8c5.3-1.3,8.6-6.7,7.3-12l0,0c-1.3-5.3-6.7-8.6-12-7.3
					l-15.5,3.8C191.8,145.3,188.6,150.7,189.9,156L189.9,156z"/>
				<g>
					<path class="st13" d="M124.4,99.8v129.9c0,6.9,5.3,12.4,11.8,12.4h55.4c6.5,0,11.8-5.6,11.8-12.4V99.8
						c0-6.9-5.3-12.5-11.8-12.5h-55.4C129.6,87.4,124.4,93,124.4,99.8z M129.8,107.3h68.1v115h-68.1V107.3z"/>
					<rect x="129.8" y="107.3" class="st10" width="68.1" height="115"/>
					<path class="st5" d="M149.9,97.5c0,0.8,0.7,1.5,1.5,1.5h24.8c0.8,0,1.5-0.7,1.5-1.5l0,0c0-0.8-0.7-1.5-1.5-1.5h-24.8
						C150.6,96,149.9,96.7,149.9,97.5L149.9,97.5z"/>
				</g>
				<path class="st12" d="M119.9,182.6c0.3-1.2,0.9-4.7-0.1-5.6c-1.1-1-4,0-5.2,0.1c-2.9,0.1-5.7,0.4-8.6,0.8
					c-3.8,0.6-8.1,0.9-11.4,2.9c-2.8,1.7-2.6,5.3-4.3,8c-1.7,2.7-1.8,6.2-2.2,9.3c-0.6,5.4-1.2,12.3-1.2,15.5
					c0.2,3.8-0.7,7.6-1.5,11.3c-0.1,0.8-0.3,1.6-0.5,2.4v0.1c-2.2,9.2-7.3,17.8-12.4,25.5c7.1,3.9,14.2,7.8,21.3,11.7
					c5.8,3.2,11.7,6.4,17.5,9.6c1.7,0.9,6.8,2.6,7.8,4.3c1.3,2.3-1.2,5.8,0.2,8.4c2.3,4.4,5.7,0.7,9.7-1.6c6.7-3.9,13.5-8,20.2-11.7
					c10.8-6,21-14.5,30.8-22.2c1.2-0.9,8.3-8.9,9-8.9h-52.9c-6.5,0-11.8-5.6-11.8-12.5v-51.4C122.6,179.7,121.4,181.1,119.9,182.6z"
					/>
				<path class="st12" d="M201.8,162.9c0,0-7.7,19.8-3.7,25.5c4,5.7,10.8,2.2,14.3-8.7c1-3.1,1.9-6.2,2.7-9.4
					c0.9-3.5,1.6-6.9-2.3-9.1C210.4,160,205.6,158.7,201.8,162.9z"/>
				<path class="st12" d="M209.6,182.6c0,0-12.1,15.2-9.9,21.1c2.2,5.9,9.2,4.6,15.1-4c1.7-2.4,3.3-4.9,4.7-7.4
					c1.6-2.8,3.1-5.6,0-8.4C217.7,182.3,214.1,179.9,209.6,182.6z"/>
				<path class="st12" d="M210.8,198.8c0,0-13.4,12-12.1,17.7c1.4,5.7,8.2,5.5,14.8-1.4c1.9-2,3.7-4,5.4-6c1.9-2.3,3.7-4.6,1.1-7.6
					C218.5,199.8,215.4,197.1,210.8,198.8z"/>
				<path class="st14" d="M199.4,179l9.3,1.1c0,0-0.5,6.4-4,7.8c-3.5,1.4-5.2-1.4-5.9-2.8C198,183.3,199.4,179,199.4,179z"/>
				<path class="st14" d="M203.7,195.7l7.5,4.6c0,0-1.9,4.4-5.3,5.3c-3.4,0.9-4.7-1.9-5.1-3.3C200.2,200.6,203.7,195.7,203.7,195.7z
					"/>
				<path class="st14" d="M204.5,209.4l5.8,4.8c0,0-2.3,4.4-5.8,4.8c-2.5,0.3-4.9-2-4.4-4.7C200.6,212.4,203,210.6,204.5,209.4z"/>
			</g>
			<g>
				<text transform="matrix(1 0 0 1 144.3023 132.3707)"><tspan x="0" y="0" class="st15 st16">Sc</tspan><tspan x="8.8" y="0" class="st15 st16">r</tspan><tspan x="12.1" y="0" class="st15 st16">atch           </tspan></text>
				<text transform="matrix(1 0 0 1 139.6362 142.7428)" class="st15 st17">                                </text>
				<circle class="st18" cx="137.6" cy="129.3" r="3"/>
				<path class="st19" d="M139.3,129.3c0,0.9-0.7,1.6-1.6,1.6s-1.6-0.7-1.6-1.6c0-0.9,0.7-1.6,1.6-1.6S139.3,128.4,139.3,129.3"/>
				<text transform="matrix(1 0 0 1 144.3013 165.0167)"><tspan x="0" y="0" class="st15 st16">D</tspan><tspan x="6.3" y="0" class="st15 st16">e</tspan><tspan x="10.7" y="0" class="st15 st16">n</tspan><tspan x="15.4" y="0" class="st15 st16">t    </tspan></text>
				<text transform="matrix(1 0 0 1 122.5908 175.5021)" class="st15 st17">                                              </text>
				<circle class="st27" cx="137.6" cy="162" r="3"/>
				<path class="st28" d="M139.3,162c0,0.9-0.7,1.6-1.6,1.6s-1.6-0.7-1.6-1.6c0-0.9,0.7-1.6,1.6-1.6S139.3,161.1,139.3,162"/>
				<text transform="matrix(1 0 0 1 144.3013 195.7164)"><tspan x="0" y="0" class="st15 st16">R</tspan><tspan x="5.4" y="0" class="st15 st16">epla</tspan><tspan x="20.8" y="0" class="st15 st16">c</tspan><tspan x="24.9" y="0" class="st15 st16">eme</tspan><tspan x="41" y="0" class="st15 st16">n</tspan><tspan x="45.6" y="0" class="st15 st16">t  </tspan></text>
				<text transform="matrix(0.3971 0 0 1 158.6138 195.7164)" class="st20 st17">            </text>
				<g>
					<g>
						<g>
							<path d="M145.5,137.6h3.3c0,0,0,0,0,0v0.3c0,0,0,0,0,0h-1.2v0c0.2,0.1,0.3,0.3,0.4,0.6l0,0.1h0.8c0,0,0,0,0,0v0.3
								c0,0,0,0,0,0H148c0,0.4-0.2,0.7-0.6,1c-0.4,0.2-0.7,0.3-0.8,0.3c0,0,0,0,0,0l1.8,2.3v0h-0.7c0,0-0.7-0.9-2.1-2.7v0h0.2
								c0.8,0,1.2-0.3,1.4-0.8c0-0.1,0-0.1,0-0.2v0h-1.7c0,0,0,0,0,0v-0.3c0,0,0,0,0,0h1.6c-0.1-0.2-0.2-0.4-0.4-0.5
								c-0.3-0.1-0.5-0.2-0.7-0.2h-0.6c0,0,0,0,0,0L145.5,137.6C145.5,137.6,145.5,137.6,145.5,137.6z"/>
						</g>
						<g>
							<path d="M150.9,142.4h2.5c0.1,0,0.1,0,0.1,0.1v0.1c0,0.1,0,0.1-0.1,0.1h-2.9c-0.1,0-0.1,0-0.1-0.1v-0.1c0,0,0-0.1,0.1-0.1
								l1.9-1.9c0.5-0.5,0.8-1,0.8-1.5c0-0.6-0.4-1.1-1.2-1.1c-0.7,0-1,0.5-1.1,0.6c0,0.1-0.1,0.1-0.1,0l-0.1-0.1c0,0-0.1-0.1,0-0.1
								c0,0,0.5-0.7,1.4-0.7c1,0,1.6,0.7,1.6,1.4c0,0.7-0.4,1.1-0.9,1.7L150.9,142.4L150.9,142.4z"/>
							<path d="M154.5,140.2c0-1.6,0.7-2.6,1.8-2.6c1.1,0,1.8,1,1.8,2.6c0,1.6-0.7,2.6-1.8,2.6C155.1,142.8,154.5,141.8,154.5,140.2
								z M157.7,140.2c0-1.4-0.5-2.3-1.5-2.3c-1,0-1.5,0.8-1.5,2.3c0,1.5,0.5,2.3,1.5,2.3C157.2,142.5,157.7,141.7,157.7,140.2z"/>
							<path d="M159.1,140.2c0-1.6,0.7-2.6,1.8-2.6c1.1,0,1.8,1,1.8,2.6c0,1.6-0.7,2.6-1.8,2.6C159.8,142.8,159.1,141.8,159.1,140.2
								z M162.4,140.2c0-1.4-0.5-2.3-1.5-2.3c-1,0-1.5,0.8-1.5,2.3c0,1.5,0.5,2.3,1.5,2.3C161.9,142.5,162.4,141.7,162.4,140.2z"/>
							<path d="M163.8,140.2c0-1.6,0.7-2.6,1.8-2.6c1.1,0,1.8,1,1.8,2.6c0,1.6-0.7,2.6-1.8,2.6C164.4,142.8,163.8,141.8,163.8,140.2
								z M167,140.2c0-1.4-0.5-2.3-1.5-2.3c-1,0-1.5,0.8-1.5,2.3c0,1.5,0.5,2.3,1.5,2.3C166.5,142.5,167,141.7,167,140.2z"/>
						</g>
					</g>
					<g>
						<g>
							<path d="M145.5,170.4h3.3c0,0,0,0,0,0v0.3c0,0,0,0,0,0h-1.2v0c0.2,0.1,0.3,0.3,0.4,0.6l0,0.1h0.8c0,0,0,0,0,0v0.3
								c0,0,0,0,0,0H148c0,0.4-0.2,0.7-0.6,1c-0.4,0.2-0.7,0.3-0.8,0.3c0,0,0,0,0,0l1.8,2.3v0h-0.7c0,0-0.7-0.9-2.1-2.7v0h0.2
								c0.8,0,1.2-0.3,1.4-0.8c0-0.1,0-0.1,0-0.2v0h-1.7c0,0,0,0,0,0v-0.3c0,0,0,0,0,0h1.6c-0.1-0.2-0.2-0.4-0.4-0.5
								c-0.3-0.1-0.5-0.2-0.7-0.2h-0.6c0,0,0,0,0,0L145.5,170.4C145.5,170.4,145.5,170.4,145.5,170.4z"/>
						</g>
						<g>
							<path d="M150.5,174.8l0.1-0.1c0.1,0,0.1,0,0.1,0c0.2,0.2,0.5,0.6,1.3,0.6c0.8,0,1.3-0.4,1.3-1.1c0-0.7-0.7-1.1-1.3-1.1h-0.7
								c-0.1,0-0.1,0-0.1-0.1v-0.1c0-0.1,0-0.1,0.1-0.1h0.7c0.5,0,1.2-0.3,1.2-1c0-0.6-0.5-1-1.1-1c-0.7,0-1.1,0.4-1.2,0.5
								c0,0-0.1,0-0.1,0l-0.1-0.1c0,0,0-0.1,0-0.1c0,0,0.5-0.7,1.4-0.7c0.8,0,1.5,0.5,1.5,1.3c0,0.6-0.4,1-0.8,1.2c0,0,0,0,0,0
								c0.5,0.1,1,0.6,1,1.2c0,0.8-0.6,1.4-1.7,1.4c-0.9,0-1.3-0.5-1.5-0.7C150.4,174.9,150.4,174.8,150.5,174.8z"/>
							<path d="M154.6,173c0-1.6,0.7-2.6,1.8-2.6c1.1,0,1.8,1,1.8,2.6c0,1.6-0.7,2.6-1.8,2.6C155.3,175.6,154.6,174.6,154.6,173z
								 M157.9,173c0-1.4-0.5-2.3-1.5-2.3c-1,0-1.5,0.8-1.5,2.3c0,1.5,0.5,2.3,1.5,2.3C157.4,175.3,157.9,174.4,157.9,173z"/>
							<path d="M159.3,173c0-1.6,0.7-2.6,1.8-2.6c1.1,0,1.8,1,1.8,2.6c0,1.6-0.7,2.6-1.8,2.6C159.9,175.6,159.3,174.6,159.3,173z
								 M162.5,173c0-1.4-0.5-2.3-1.5-2.3c-1,0-1.5,0.8-1.5,2.3c0,1.5,0.5,2.3,1.5,2.3C162,175.3,162.5,174.4,162.5,173z"/>
							<path d="M163.9,173c0-1.6,0.7-2.6,1.8-2.6c1.1,0,1.8,1,1.8,2.6c0,1.6-0.7,2.6-1.8,2.6C164.6,175.6,163.9,174.6,163.9,173z
								 M167.2,173c0-1.4-0.5-2.3-1.5-2.3c-1,0-1.5,0.8-1.5,2.3c0,1.5,0.5,2.3,1.5,2.3C166.7,175.3,167.2,174.4,167.2,173z"/>
						</g>
					</g>
					<g>
						<path d="M147.2,201.7c0.9,0,1.7,0.8,1.7,1.7c0,1-0.7,1.7-1.7,1.7c-0.9,0-1.7-0.8-1.7-1.7C145.5,202.4,146.2,201.7,147.2,201.7
							z M147.2,204.8c0.7,0,1.3-0.6,1.3-1.4c0-0.8-0.6-1.4-1.3-1.4c-0.8,0-1.3,0.6-1.3,1.4C145.8,204.2,146.4,204.8,147.2,204.8z"/>
						<path d="M149.8,201.8c0-0.1,0-0.1,0.1-0.1h0c0.1,0,0.1,0,0.1,0.1l0,0.4c0.1-0.1,0.5-0.5,1.2-0.5c0.9,0,1.2,0.6,1.2,1.4v1.8
							c0,0.1-0.1,0.1-0.1,0.1h-0.1c-0.1,0-0.1,0-0.1-0.1v-1.8c0-0.8-0.3-1.2-0.9-1.2c-0.7,0-1.1,0.5-1.1,0.6v2.4
							c0,0.1,0,0.1-0.1,0.1h-0.1c-0.1,0-0.1,0-0.1-0.1V201.8z"/>
						<path d="M155.2,200.6c0-0.2,0.1-0.3,0.3-0.3c0.2,0,0.3,0.1,0.3,0.3c0,0.1-0.1,0.3-0.3,0.3
							C155.4,200.8,155.2,200.7,155.2,200.6z M155.4,201.8c0-0.1,0-0.1,0.1-0.1h0.1c0,0,0.1,0,0.1,0.1v3.1c0,0.1,0,0.1-0.1,0.1h-0.1
							c-0.1,0-0.1,0-0.1-0.1V201.8z"/>
						<path d="M156.9,201.8c0-0.1,0-0.1,0.1-0.1h0c0.1,0,0.1,0,0.1,0.1l0,0.4c0.1-0.1,0.5-0.5,1.2-0.5c0.9,0,1.2,0.6,1.2,1.4v1.8
							c0,0.1,0,0.1-0.1,0.1h-0.1c-0.1,0-0.1,0-0.1-0.1v-1.8c0-0.8-0.3-1.2-0.9-1.2c-0.7,0-1.1,0.5-1.1,0.6v2.4c0,0.1,0,0.1-0.1,0.1
							H157c-0.1,0-0.1,0-0.1-0.1V201.8z"/>
						<path d="M160.5,204.6l0.1-0.1c0-0.1,0.1-0.1,0.2,0c0.1,0.1,0.4,0.3,0.9,0.3c0.5,0,0.8-0.2,0.8-0.6c0-0.4-0.4-0.6-1-0.8
							c-0.6-0.2-1-0.4-1-1c0-0.4,0.3-0.8,1.1-0.8c0.4,0,0.8,0.1,0.9,0.2c0,0,0.1,0.1,0,0.1l0,0.1c0,0.1-0.1,0.1-0.1,0
							c-0.1,0-0.4-0.2-0.8-0.2c-0.5,0-0.7,0.3-0.7,0.5c0,0.3,0.3,0.5,0.8,0.7c0.6,0.2,1.1,0.4,1.1,1c0,0.5-0.5,0.9-1.1,0.9
							c-0.6,0-0.9-0.2-1.1-0.4C160.5,204.7,160.5,204.7,160.5,204.6z"/>
						<path d="M164,206.6c0,0.1-0.1,0.1-0.1,0.1h-0.1c-0.1,0-0.1,0-0.1-0.1v-4.8c0-0.1,0.1-0.1,0.1-0.1h0c0.1,0,0.1,0,0.1,0.1l0,0.2
							c0.1-0.1,0.5-0.4,1.1-0.4c0.9,0,1.6,0.8,1.6,1.7c0,1-0.7,1.7-1.6,1.7c-0.6,0-0.9-0.3-1-0.3V206.6z M165,204.8
							c0.8,0,1.3-0.6,1.3-1.4c0-0.8-0.5-1.4-1.3-1.4c-0.6,0-1,0.4-1.1,0.4v2C164.1,204.5,164.5,204.8,165,204.8z"/>
						<path d="M169,201.7c0.9,0,1.5,0.7,1.5,1.5c0,0.1,0,0.3-0.1,0.3h-2.6c0,0.7,0.6,1.3,1.3,1.3c0.5,0,0.8-0.2,1-0.3
							c0.1,0,0.1-0.1,0.1,0l0.1,0.1c0,0,0,0.1,0,0.1c-0.2,0.2-0.7,0.4-1.2,0.4c-1,0-1.6-0.8-1.6-1.7
							C167.4,202.4,168,201.7,169,201.7z M170.2,203.2c0-0.7-0.4-1.2-1.2-1.2c-0.7,0-1.2,0.5-1.3,1.2H170.2z"/>
						<path d="M172.9,201.7c0.6,0,1.1,0.3,1.2,0.5c0,0.1,0,0.1,0,0.2l-0.1,0.1c-0.1,0.1-0.1,0-0.2,0c-0.1-0.1-0.5-0.4-1-0.4
							c-0.8,0-1.4,0.6-1.4,1.4c0,0.8,0.6,1.4,1.4,1.4c0.6,0,1-0.4,1-0.5c0.1-0.1,0.1-0.1,0.2,0l0.1,0.1c0,0,0,0.1,0,0.1
							c-0.1,0.2-0.6,0.6-1.3,0.6c-0.9,0-1.7-0.7-1.7-1.7C171.2,202.4,172,201.7,172.9,201.7z"/>
						<path d="M175.3,202h-0.4c-0.1,0-0.1,0-0.1-0.1v-0.1c0-0.1,0-0.1,0.1-0.1h0.4v-0.9c0-0.1,0-0.1,0.1-0.1l0.1,0
							c0.1,0,0.1,0.1,0.1,0.1v0.9h1.2c0.1,0,0.1,0,0.1,0.1v0.1c0,0.1,0,0.1-0.1,0.1h-1.2v2.2c0,0.4,0.1,0.6,0.5,0.6
							c0.4,0,0.7-0.2,0.8-0.3c0.1,0,0.1,0,0.1,0l0.1,0.1c0,0.1,0,0.1,0,0.1c-0.1,0.1-0.5,0.3-1,0.3c-0.6,0-0.7-0.4-0.7-0.9V202z"/>
						<path d="M177.6,200.6c0-0.2,0.1-0.3,0.3-0.3c0.2,0,0.3,0.1,0.3,0.3c0,0.1-0.1,0.3-0.3,0.3
							C177.7,200.8,177.6,200.7,177.6,200.6z M177.7,201.8c0-0.1,0-0.1,0.1-0.1h0.1c0,0,0.1,0,0.1,0.1v3.1c0,0.1,0,0.1-0.1,0.1h-0.1
							c-0.1,0-0.1,0-0.1-0.1V201.8z"/>
						<path d="M180.7,201.7c0.9,0,1.7,0.8,1.7,1.7c0,1-0.7,1.7-1.7,1.7c-0.9,0-1.7-0.8-1.7-1.7C179,202.4,179.7,201.7,180.7,201.7z
							 M180.7,204.8c0.7,0,1.3-0.6,1.3-1.4c0-0.8-0.6-1.4-1.3-1.4c-0.8,0-1.3,0.6-1.3,1.4C179.3,204.2,179.9,204.8,180.7,204.8z"/>
						<path d="M183.3,201.8c0-0.1,0-0.1,0.1-0.1h0c0.1,0,0.1,0,0.1,0.1l0,0.4c0.1-0.1,0.5-0.5,1.2-0.5c0.9,0,1.2,0.6,1.2,1.4v1.8
							c0,0.1-0.1,0.1-0.1,0.1h-0.1c-0.1,0-0.1,0-0.1-0.1v-1.8c0-0.8-0.3-1.2-0.9-1.2c-0.7,0-1.1,0.5-1.1,0.6v2.4
							c0,0.1,0,0.1-0.1,0.1h-0.1c-0.1,0-0.1,0-0.1-0.1V201.8z"/>
					</g>
				</g>
				<circle class="st21" cx="137.6" cy="192.7" r="3"/>
				<circle class="st21" cx="137.6" cy="192.7" r="1.6"/>
				<line class="st22" x1="132.4" y1="147.7" x2="179.9" y2="147.7"/>
				<line class="st22" x1="132.4" y1="179" x2="179.9" y2="179"/>
				<g>
					<g>
						<path d="M145.5,137.6h3.3c0,0,0,0,0,0v0.3c0,0,0,0,0,0h-1.2v0c0.2,0.1,0.3,0.3,0.4,0.6l0,0.1h0.8c0,0,0,0,0,0v0.3c0,0,0,0,0,0
							H148c0,0.4-0.2,0.7-0.6,1c-0.4,0.2-0.7,0.3-0.8,0.3c0,0,0,0,0,0l1.8,2.3v0h-0.7c0,0-0.7-0.9-2.1-2.7v0h0.2
							c0.8,0,1.2-0.3,1.4-0.8c0-0.1,0-0.1,0-0.2v0h-1.7c0,0,0,0,0,0v-0.3c0,0,0,0,0,0h1.6c-0.1-0.2-0.2-0.4-0.4-0.5
							c-0.3-0.1-0.5-0.2-0.7-0.2h-0.6c0,0,0,0,0,0L145.5,137.6C145.5,137.6,145.5,137.6,145.5,137.6z"/>
					</g>
					<g>
						<path d="M150.9,142.4h2.5c0.1,0,0.1,0,0.1,0.1v0.1c0,0.1,0,0.1-0.1,0.1h-2.9c-0.1,0-0.1,0-0.1-0.1v-0.1c0,0,0-0.1,0.1-0.1
							l1.9-1.9c0.5-0.5,0.8-1,0.8-1.5c0-0.6-0.4-1.1-1.2-1.1c-0.7,0-1,0.5-1.1,0.6c0,0.1-0.1,0.1-0.1,0l-0.1-0.1c0,0-0.1-0.1,0-0.1
							c0,0,0.5-0.7,1.4-0.7c1,0,1.6,0.7,1.6,1.4c0,0.7-0.4,1.1-0.9,1.7L150.9,142.4L150.9,142.4z"/>
						<path d="M154.5,140.2c0-1.6,0.7-2.6,1.8-2.6c1.1,0,1.8,1,1.8,2.6c0,1.6-0.7,2.6-1.8,2.6C155.1,142.8,154.5,141.8,154.5,140.2z
							 M157.7,140.2c0-1.4-0.5-2.3-1.5-2.3c-1,0-1.5,0.8-1.5,2.3c0,1.5,0.5,2.3,1.5,2.3C157.2,142.5,157.7,141.7,157.7,140.2z"/>
						<path d="M159.1,140.2c0-1.6,0.7-2.6,1.8-2.6c1.1,0,1.8,1,1.8,2.6c0,1.6-0.7,2.6-1.8,2.6C159.8,142.8,159.1,141.8,159.1,140.2z
							 M162.4,140.2c0-1.4-0.5-2.3-1.5-2.3c-1,0-1.5,0.8-1.5,2.3c0,1.5,0.5,2.3,1.5,2.3C161.9,142.5,162.4,141.7,162.4,140.2z"/>
						<path d="M163.8,140.2c0-1.6,0.7-2.6,1.8-2.6c1.1,0,1.8,1,1.8,2.6c0,1.6-0.7,2.6-1.8,2.6C164.4,142.8,163.8,141.8,163.8,140.2z
							 M167,140.2c0-1.4-0.5-2.3-1.5-2.3c-1,0-1.5,0.8-1.5,2.3c0,1.5,0.5,2.3,1.5,2.3C166.5,142.5,167,141.7,167,140.2z"/>
					</g>
				</g>
			</g>
			<path class="st12" d="M89.3,191.1c0,0,8.4-28.1,11.7-32.9c3.3-4.8,11.9-16.3,13.6-31.8c0,0,10.6-4.5,12,12.3
				c1.3,16.8-6.6,43.9-6.6,43.9"/>
		</g>
	</g>
	<rect x="129.9" y="107.3" class="st10" width="162.2" height="40.1"/>
	<text transform="matrix(1 0 0 1 146.887 126.5181)"><tspan x="0" y="0" class="st15 st29">Sc</tspan><tspan x="11.3" y="0" class="st15 st29">r</tspan><tspan x="15.5" y="0" class="st15 st29">atch           </tspan></text>
	<circle class="st30" cx="138.3" cy="122.6" r="3.8"/>
	<path class="st28" d="M140.4,122.6c0,1.2-0.9,2.1-2.1,2.1c-1.2,0-2.1-0.9-2.1-2.1c0-1.2,0.9-2.1,2.1-2.1
		C139.5,120.6,140.4,121.5,140.4,122.6"/>
	<g>
		<g>
			<path d="M148.5,133.2h4.2c0,0,0,0,0,0v0.4c0,0,0,0,0,0h-1.6v0c0.2,0.1,0.4,0.4,0.5,0.8l0,0.1h1c0,0,0,0,0,0v0.4c0,0,0,0,0,0h-1
				c0,0.5-0.3,0.9-0.8,1.3c-0.5,0.3-0.8,0.4-1,0.4c0,0,0,0,0,0l2.3,2.9v0h-0.9c0,0-0.9-1.1-2.6-3.4v0h0.3c1,0,1.5-0.3,1.7-1
				c0-0.1,0-0.2,0-0.2v-0.1h-2.1c0,0,0,0,0,0v-0.4c0,0,0,0,0,0h2.1c-0.1-0.3-0.2-0.5-0.5-0.7c-0.3-0.2-0.6-0.3-0.9-0.3h-0.8
				c0,0,0,0,0,0L148.5,133.2C148.4,133.2,148.4,133.2,148.5,133.2z"/>
		</g>
		<g>
			<path d="M155.3,139.4h3.2c0.1,0,0.1,0.1,0.1,0.1v0.1c0,0.1-0.1,0.1-0.1,0.1h-3.7c-0.1,0-0.1-0.1-0.1-0.1v-0.1
				c0-0.1,0-0.1,0.1-0.2l2.4-2.4c0.7-0.7,1-1.2,1-1.9c0-0.7-0.5-1.4-1.6-1.4c-0.9,0-1.3,0.6-1.4,0.8c-0.1,0.1-0.1,0.1-0.2,0
				l-0.1-0.1c0,0-0.1-0.1,0-0.2c0,0,0.6-0.9,1.8-0.9c1.3,0,2,0.9,2,1.8c0,0.8-0.5,1.5-1.2,2.1L155.3,139.4L155.3,139.4z"/>
			<path d="M159.9,136.6c0-2.1,0.8-3.3,2.3-3.3c1.5,0,2.3,1.2,2.3,3.3c0,2.1-0.8,3.3-2.3,3.3C160.8,139.9,159.9,138.7,159.9,136.6z
				 M164.1,136.6c0-1.8-0.7-2.9-1.9-2.9c-1.2,0-1.9,1.1-1.9,2.9c0,1.9,0.7,2.9,1.9,2.9C163.5,139.5,164.1,138.5,164.1,136.6z"/>
			<path d="M165.9,136.6c0-2.1,0.8-3.3,2.3-3.3c1.5,0,2.3,1.2,2.3,3.3c0,2.1-0.8,3.3-2.3,3.3C166.7,139.9,165.9,138.7,165.9,136.6z
				 M170.1,136.6c0-1.8-0.7-2.9-1.9-2.9c-1.2,0-1.9,1.1-1.9,2.9c0,1.9,0.7,2.9,1.9,2.9C169.4,139.5,170.1,138.5,170.1,136.6z"/>
			<path d="M171.8,136.6c0-2.1,0.8-3.3,2.3-3.3c1.5,0,2.3,1.2,2.3,3.3c0,2.1-0.8,3.3-2.3,3.3C172.7,139.9,171.8,138.7,171.8,136.6z
				 M176,136.6c0-1.8-0.7-2.9-1.9-2.9c-1.2,0-1.9,1.1-1.9,2.9c0,1.9,0.7,2.9,1.9,2.9C175.4,139.5,176,138.5,176,136.6z"/>
		</g>
	</g>
	<path class="st10" d="M300.6,142.4c0,2.8-2.2,5-5,5h-77.1c-2.8,0-5-2.2-5-5v-30.1c0-2.8,2.2-5,5-5h77.1c2.8,0,5,2.2,5,5V142.4z"/>
	<g>
		<defs>
			<rect id="SVGID_9_" x="235" y="110.6" width="49.7" height="34.8"/>
		</defs>
		<clipPath id="SVGID_10_">
			<use xlink:href="#SVGID_9_"  style="overflow:visible;"/>
		</clipPath>
		<path class="st31" d="M309.9,137.7c0,4,3.2,7.2,7.2,7.2c4,0,7.2-3.2,7.2-7.2c0-4-3.2-7.2-7.2-7.2
			C313.2,130.4,309.9,133.7,309.9,137.7 M313.2,137.6c0-2.2,1.8-4,4-4c2.2,0,4,1.8,4,4c0,0.6-0.1,1.2-0.4,1.7
			c-0.6,1.4-2,2.3-3.6,2.3C315,141.6,313.2,139.8,313.2,137.6"/>
		<path class="st31" d="M257.1,129.3c7.4,0.8,7.7,8.8,7.7,8.8v1.6h43.8v-2.1c0,0,1-8.1,9-8.1c8-0.1,8.1,8.1,8.6,8.1
			c0.4,0,10.1-1.5,11-2.5c0.8-1,1.3-5.3,0.8-5.7c-0.5-0.5-1.1-1.1-1.1-1.8c0-0.7,0-6.8-1.1-7.8c-1.1-1-8.8,0-11.5-0.7
			c-2.7-0.7-10.8-6.2-14.8-7.6c-8.6-3.1-27-0.4-30.8,0.4c-3.8,0.8-19.3,9.9-19.3,9.9 M308.8,121.8h-15.7l1-8.8h8.7
			c1.2,0,4,0.4,5.2,2.2C309.2,117,308.8,121.8,308.8,121.8L308.8,121.8z M269.2,119.1c0,0,7-4,10-4.8c3-0.8,10.6-1.2,12.1-1.2
			l-1.3,8.8h-20.7V119.1z"/>
		<path class="st31" d="M242.3,138.3c0,0-0.8-7.4,2.5-10.9c3.3-3.5,14.5-5.6,14.5-5.6l2.2,9.3c0,0-4.2-3-8.8-0.7
			c-4.4,2.2-5.3,7.8-5.3,7.8"/>
		<path class="st31" d="M249,137.7c0,4,3.2,7.2,7.2,7.2c4,0,7.2-3.2,7.2-7.2c0-4-3.2-7.2-7.2-7.2C252.3,130.4,249,133.7,249,137.7
			 M252.3,137.6c0-2.2,1.8-4,4-4c2.2,0,4,1.8,4,4c0,0.6-0.1,1.2-0.4,1.7c-0.6,1.4-2,2.3-3.6,2.3
			C254.1,141.6,252.3,139.8,252.3,137.6"/>
		<path class="st32" d="M274,116.5c-0.2,0.2-0.5,0.5-0.9,0.9c-0.4,0.4-0.8,0.9-1.4,1.4c-0.5,0.5-1.1,1.1-1.8,1.8
			c-0.6,0.7-1.4,1.4-2.1,2.1c-0.7,0.8-1.5,1.6-2.3,2.4c-0.8,0.8-1.7,1.7-2.5,2.5c-0.9,0.9-1.7,1.7-2.6,2.6c-0.9,0.9-1.8,1.7-2.6,2.6
			c-0.9,0.9-1.7,1.7-2.5,2.5c-0.8,0.8-1.6,1.6-2.4,2.4c-0.8,0.7-1.5,1.5-2.1,2.1c-0.7,0.6-1.3,1.2-1.8,1.8c-0.5,0.5-1,1-1.4,1.4
			c-0.4,0.4-0.7,0.7-0.9,0.9c-0.2,0.2-0.3,0.3-0.3,0.3s0.1-0.1,0.3-0.3c0.2-0.2,0.5-0.5,0.9-0.9c0.4-0.4,0.8-0.9,1.4-1.4
			c0.5-0.5,1.1-1.1,1.8-1.8c0.6-0.7,1.4-1.4,2.1-2.1c0.7-0.8,1.5-1.6,2.4-2.4c0.8-0.8,1.7-1.7,2.5-2.5c0.9-0.9,1.7-1.7,2.6-2.6
			c0.9-0.9,1.8-1.7,2.6-2.6c0.9-0.9,1.7-1.7,2.5-2.5c0.8-0.8,1.6-1.6,2.4-2.4c0.8-0.7,1.5-1.5,2.1-2.1c0.7-0.7,1.3-1.2,1.8-1.8
			c0.5-0.5,1-1,1.4-1.4C273.5,117,273.8,116.7,274,116.5c0.2-0.2,0.3-0.3,0.3-0.3S274.2,116.3,274,116.5z"/>
		<path class="st32" d="M251.2,118.6c0.2,0.2,0.4,0.4,0.7,0.7c0.3,0.3,0.7,0.7,1.2,1.1c0.4,0.4,0.9,0.9,1.5,1.5
			c0.5,0.5,1.1,1.1,1.8,1.7c0.6,0.6,1.3,1.3,2,1.9c0.7,0.7,1.4,1.4,2.1,2.1c0.7,0.7,1.4,1.4,2.1,2.1c0.7,0.7,1.4,1.4,2.1,2.1
			c0.7,0.7,1.4,1.4,2.1,2.1c0.7,0.7,1.3,1.3,1.9,2c0.6,0.6,1.2,1.2,1.7,1.8c0.5,0.5,1,1,1.5,1.5c0.4,0.4,0.8,0.8,1.1,1.1
			c0.3,0.3,0.6,0.6,0.7,0.7c0.2,0.2,0.3,0.3,0.3,0.3s-0.1-0.1-0.3-0.3c-0.2-0.2-0.4-0.4-0.7-0.7c-0.3-0.3-0.7-0.7-1.1-1.1
			c-0.4-0.4-0.9-0.9-1.5-1.5c-0.5-0.5-1.1-1.1-1.8-1.7c-0.6-0.6-1.3-1.3-2-1.9c-0.7-0.7-1.4-1.4-2.1-2.1c-0.7-0.7-1.4-1.4-2.1-2.1
			c-0.7-0.7-1.4-1.4-2.1-2.1c-0.7-0.7-1.4-1.4-2.1-2.1c-0.7-0.7-1.3-1.3-1.9-1.9c-0.6-0.6-1.2-1.2-1.7-1.8c-0.5-0.5-1-1-1.5-1.5
			c-0.4-0.4-0.8-0.8-1.1-1.1C251.6,119,251.4,118.8,251.2,118.6c-0.2-0.2-0.3-0.3-0.3-0.3S251.1,118.4,251.2,118.6z"/>
		<path class="st32" d="M251.4,124.7c0.2,0.2,0.5,0.5,0.8,0.8c0.3,0.3,0.7,0.7,1.1,1.1c0.4,0.4,0.8,0.8,1.3,1.3
			c0.5,0.4,0.9,0.9,1.4,1.4c0.5,0.5,1,1,1.5,1.5c0.5,0.5,1,1,1.6,1.6c0.5,0.5,1,1,1.6,1.6c0.5,0.5,1,1,1.5,1.5c0.5,0.5,1,1,1.4,1.4
			c0.4,0.5,0.9,0.9,1.3,1.3c0.4,0.4,0.7,0.8,1.1,1.1c0.3,0.3,0.6,0.6,0.8,0.8c0.4,0.5,0.7,0.7,0.7,0.7s-0.3-0.3-0.7-0.7
			c-0.2-0.2-0.5-0.5-0.8-0.8c-0.3-0.3-0.7-0.7-1.1-1.1c-0.4-0.4-0.8-0.8-1.3-1.3c-0.5-0.4-0.9-0.9-1.4-1.4c-0.5-0.5-1-1-1.5-1.5
			c-0.5-0.5-1-1-1.6-1.6c-0.5-0.5-1-1-1.6-1.6c-0.5-0.5-1-1-1.5-1.5c-0.5-0.5-1-1-1.4-1.4c-0.4-0.5-0.9-0.9-1.3-1.3
			c-0.4-0.4-0.7-0.8-1.1-1.1C251.9,125.3,251.6,125,251.4,124.7c-0.5-0.4-0.7-0.7-0.7-0.7S250.9,124.3,251.4,124.7z"/>
		<path class="st32" d="M258.8,120.4c0.1,0.1,0.2,0.2,0.4,0.4c0.2,0.2,0.4,0.4,0.6,0.6c0.2,0.2,0.5,0.5,0.8,0.8
			c0.3,0.3,0.6,0.6,1,0.9c0.3,0.3,0.7,0.7,1.1,1.1c0.4,0.4,0.8,0.7,1.2,1.1c0.4,0.4,0.8,0.8,1.2,1.2c0.4,0.4,0.8,0.8,1.2,1.2
			c0.4,0.4,0.8,0.8,1.1,1.2c0.4,0.4,0.7,0.7,1.1,1.1c0.3,0.3,0.7,0.7,0.9,1c0.3,0.3,0.6,0.6,0.8,0.8c0.2,0.2,0.4,0.5,0.6,0.6
			c0.2,0.2,0.3,0.3,0.4,0.4c0.1,0.1,0.1,0.1,0.1,0.1s-0.1,0-0.1-0.1c-0.1-0.1-0.2-0.2-0.4-0.4c-0.2-0.2-0.4-0.4-0.6-0.6
			c-0.2-0.2-0.5-0.5-0.8-0.8c-0.3-0.3-0.6-0.6-1-0.9c-0.3-0.3-0.7-0.7-1.1-1.1c-0.4-0.4-0.8-0.7-1.2-1.1c-0.4-0.4-0.8-0.8-1.2-1.2
			c-0.4-0.4-0.8-0.8-1.2-1.2c-0.4-0.4-0.8-0.8-1.1-1.2c-0.4-0.4-0.7-0.7-1.1-1.1c-0.3-0.3-0.7-0.7-0.9-1c-0.3-0.3-0.6-0.6-0.8-0.8
			c-0.2-0.2-0.4-0.5-0.6-0.6C259,120.6,258.9,120.5,258.8,120.4c-0.1-0.1-0.1-0.1-0.1-0.1S258.7,120.3,258.8,120.4z"/>
		<path class="st32" d="M263.3,119.9c0.1,0.1,0.2,0.2,0.3,0.3c0.1,0.1,0.3,0.3,0.5,0.5c0.2,0.2,0.4,0.4,0.7,0.6
			c0.2,0.2,0.5,0.5,0.8,0.7c0.3,0.3,0.6,0.5,0.9,0.8c0.3,0.3,0.6,0.6,0.9,0.9c0.3,0.3,0.6,0.6,0.9,0.9c0.3,0.3,0.6,0.6,0.9,0.9
			c0.3,0.3,0.6,0.6,0.9,0.9c0.3,0.3,0.6,0.6,0.8,0.9c0.3,0.3,0.5,0.5,0.7,0.8c0.2,0.2,0.4,0.5,0.6,0.7c0.2,0.2,0.3,0.4,0.5,0.5
			c0.1,0.1,0.2,0.3,0.3,0.3c0.1,0.1,0.1,0.1,0.1,0.1s0,0-0.1-0.1c-0.1-0.1-0.2-0.2-0.3-0.3c-0.1-0.1-0.3-0.3-0.5-0.5
			c-0.2-0.2-0.4-0.4-0.7-0.6c-0.2-0.2-0.5-0.5-0.8-0.7c-0.3-0.3-0.6-0.5-0.9-0.8c-0.3-0.3-0.6-0.6-0.9-0.9c-0.3-0.3-0.6-0.6-0.9-0.9
			c-0.3-0.3-0.6-0.6-0.9-0.9c-0.3-0.3-0.6-0.6-0.9-0.9c-0.3-0.3-0.6-0.6-0.8-0.9c-0.3-0.3-0.5-0.5-0.7-0.8c-0.2-0.2-0.4-0.5-0.6-0.7
			c-0.2-0.2-0.3-0.4-0.5-0.5C263.5,120.1,263.4,120,263.3,119.9c-0.1-0.1-0.1-0.1-0.1-0.1S263.3,119.9,263.3,119.9z"/>
		<path class="st32" d="M268.4,120.6c-0.2,0.2-0.5,0.5-0.8,0.9c-0.3,0.3-0.7,0.7-1.1,1.1c-0.4,0.4-0.8,0.8-1.3,1.3
			c-0.5,0.5-0.9,1-1.4,1.5c-0.5,0.5-1,1-1.5,1.6c-0.5,0.5-1.1,1.1-1.6,1.6c-0.5,0.5-1.1,1.1-1.6,1.6c-0.5,0.5-1,1-1.5,1.5
			c-0.5,0.5-1,1-1.5,1.4c-0.5,0.5-0.9,0.9-1.3,1.3c-0.4,0.4-0.8,0.8-1.1,1.1c-0.3,0.3-0.6,0.6-0.9,0.8c-0.5,0.5-0.7,0.7-0.7,0.7
			s0.3-0.3,0.7-0.8c0.2-0.2,0.5-0.5,0.8-0.9c0.3-0.3,0.7-0.7,1.1-1.1c0.4-0.4,0.8-0.8,1.3-1.3c0.5-0.5,0.9-1,1.4-1.5
			c0.5-0.5,1-1,1.5-1.5c0.5-0.5,1.1-1.1,1.6-1.6c0.5-0.5,1.1-1.1,1.6-1.6c0.5-0.5,1-1,1.6-1.5c0.5-0.5,1-1,1.5-1.4
			c0.5-0.5,0.9-0.9,1.3-1.3c0.4-0.4,0.8-0.8,1.1-1.1C267.8,121.1,268.1,120.8,268.4,120.6c0.4-0.5,0.7-0.8,0.7-0.8
			S268.8,120.1,268.4,120.6z"/>
		<path class="st32" d="M265.3,120.1c-0.2,0.2-0.5,0.5-0.7,0.8c-0.3,0.3-0.6,0.6-1,1c-0.4,0.4-0.8,0.8-1.2,1.2
			c-0.4,0.4-0.9,0.9-1.3,1.3c-0.5,0.5-0.9,0.9-1.4,1.4c-0.5,0.5-1,1-1.5,1.5c-0.5,0.5-1,1-1.5,1.5c-0.5,0.5-1,0.9-1.4,1.4
			c-0.5,0.5-0.9,0.9-1.3,1.3c-0.4,0.4-0.8,0.8-1.2,1.2c-0.4,0.4-0.7,0.7-1,1c-0.3,0.3-0.6,0.5-0.8,0.8c-0.4,0.4-0.7,0.7-0.7,0.7
			s0.2-0.3,0.6-0.7c0.2-0.2,0.5-0.5,0.8-0.8c0.3-0.3,0.6-0.6,1-1c0.4-0.4,0.7-0.8,1.2-1.2c0.4-0.4,0.8-0.9,1.3-1.3
			c0.5-0.5,0.9-0.9,1.4-1.4c0.5-0.5,1-1,1.5-1.5c0.5-0.5,1-1,1.5-1.4c0.5-0.5,1-0.9,1.4-1.4c0.5-0.5,0.9-0.9,1.3-1.3
			c0.4-0.4,0.8-0.8,1.2-1.2c0.4-0.4,0.7-0.7,1-1C264.8,120.5,265.1,120.2,265.3,120.1c0.4-0.4,0.7-0.7,0.7-0.7
			S265.8,119.6,265.3,120.1z"/>
		<path class="st32" d="M266.6,115.6c-0.2,0.3-0.5,0.6-0.9,0.9c-0.3,0.4-0.7,0.8-1.2,1.2c-0.4,0.4-0.9,0.9-1.4,1.4
			c-0.5,0.5-1,1-1.5,1.6c-0.5,0.5-1.1,1.1-1.6,1.7c-0.6,0.6-1.1,1.1-1.7,1.7c-0.6,0.6-1.1,1.1-1.7,1.7c-0.6,0.6-1.1,1.1-1.7,1.6
			c-0.5,0.5-1.1,1-1.6,1.5c-0.5,0.5-1,0.9-1.4,1.4c-0.4,0.4-0.8,0.8-1.2,1.2c-0.4,0.3-0.7,0.6-0.9,0.9c-0.5,0.5-0.8,0.8-0.8,0.8
			s0.3-0.3,0.8-0.8c0.2-0.3,0.5-0.6,0.9-0.9c0.3-0.4,0.7-0.8,1.2-1.2c0.4-0.4,0.9-0.9,1.4-1.4c0.5-0.5,1-1,1.5-1.6
			c0.5-0.5,1.1-1.1,1.6-1.7c0.6-0.6,1.1-1.1,1.7-1.7c0.6-0.6,1.1-1.1,1.7-1.7c0.6-0.6,1.1-1.1,1.7-1.6c0.5-0.5,1.1-1,1.6-1.5
			c0.5-0.5,1-0.9,1.4-1.4c0.4-0.4,0.8-0.8,1.2-1.2C266,116.1,266.3,115.8,266.6,115.6c0.5-0.5,0.8-0.8,0.8-0.8
			S267.1,115.1,266.6,115.6z"/>
		<path class="st32" d="M264.4,116.8c-0.1,0.1-0.2,0.3-0.4,0.4c-0.2,0.2-0.4,0.4-0.7,0.7c-0.3,0.3-0.5,0.6-0.9,0.9
			c-0.3,0.3-0.7,0.7-1,1.1c-0.4,0.4-0.7,0.8-1.1,1.2c-0.4,0.4-0.8,0.8-1.2,1.2c-0.4,0.4-0.8,0.9-1.3,1.3c-0.4,0.4-0.9,0.9-1.3,1.3
			c-0.4,0.4-0.8,0.8-1.2,1.2c-0.4,0.4-0.8,0.8-1.2,1.1c-0.4,0.4-0.7,0.7-1.1,1c-0.3,0.3-0.6,0.6-0.9,0.9c-0.3,0.3-0.5,0.5-0.7,0.7
			c-0.2,0.2-0.3,0.3-0.4,0.4c-0.1,0.1-0.2,0.1-0.2,0.1s0.1-0.1,0.1-0.2c0.1-0.1,0.2-0.3,0.4-0.5c0.2-0.2,0.4-0.4,0.7-0.7
			c0.3-0.3,0.5-0.6,0.9-0.9c0.3-0.3,0.7-0.7,1-1.1c0.4-0.4,0.7-0.8,1.1-1.2c0.4-0.4,0.8-0.8,1.2-1.2c0.4-0.4,0.8-0.9,1.3-1.3
			c0.4-0.4,0.9-0.9,1.3-1.3c0.4-0.4,0.8-0.8,1.2-1.2c0.4-0.4,0.8-0.8,1.2-1.1c0.4-0.4,0.7-0.7,1.1-1c0.3-0.3,0.6-0.6,0.9-0.9
			c0.3-0.3,0.5-0.5,0.7-0.7C264.1,117,264.2,116.8,264.4,116.8c0.1-0.1,0.1-0.2,0.1-0.2S264.5,116.6,264.4,116.8z"/>
	</g>
</g>
</svg>
