<?xml version="1.0" encoding="utf-8"?>
<!-- Generator: Adobe Illustrator 19.2.1, SVG Export Plug-In . SVG Version: 6.00 Build 0)  -->
<svg version="1.1" id="Layer_1" xmlns="http://www.w3.org/2000/svg" xmlns:xlink="http://www.w3.org/1999/xlink" x="0px" y="0px"
	 viewBox="0 0 570 535.5" style="enable-background:new 0 0 570 535.5;" xml:space="preserve">
<style type="text/css">
	.st0{clip-path:url(#SVGID_2_);fill:#FF6666;}
	.st1{clip-path:url(#SVGID_2_);fill:#2A251D;}
	.st2{clip-path:url(#SVGID_2_);}
	.st3{fill:#FF6666;}
	.st4{clip-path:url(#SVGID_2_);fill:#DDDDDD;}
	.st5{fill:#242424;}
	.st6{fill:#C5C6C7;}
	.st7{fill:#623ED8;}
	.st8{fill:#DDDDDD;}
	.st9{fill:#FFFFFF;}
	.st10{fill:none;stroke:#3929A2;stroke-width:0.9603;stroke-miterlimit:10;}
	.st11{fill:#512D9B;}
	.st12{fill:#8A1D91;}
	.st13{fill:#271F45;}
	.st14{fill:#EFAA54;}
	.st15{fill:url(#SVGID_5_);}
	.st16{opacity:0.5;}
	.st17{fill:#B7B7D9;}
	.st18{fill:url(#SVGID_8_);}
	.st19{fill:#0C0C0C;}
	.st20{fill:#353535;}
	.st21{fill:#606060;}
	.st22{fill:#7D7D7D;}
	.st23{opacity:0.31;}
	.st24{fill:#A3A3A3;}
	.st25{fill:#969696;}
	.st26{opacity:0.14;}
	.st27{fill:#CFCFCF;}
	.st28{fill:#FF0000;}
	.st29{opacity:0.68;fill:url(#SVGID_9_);}
	.st30{opacity:0.68;fill:url(#SVGID_10_);}
	.st31{fill-rule:evenodd;clip-rule:evenodd;fill:url(#SVGID_11_);}
	.st32{fill-rule:evenodd;clip-rule:evenodd;fill:#271F45;}
	.st33{fill-rule:evenodd;clip-rule:evenodd;fill:#FFFFFF;}
	.st34{fill:none;stroke:#DB3B78;stroke-width:1.9249;stroke-miterlimit:10;}
	.st35{fill:url(#SVGID_12_);}
	.st36{fill:url(#SVGID_13_);}
	.st37{fill:#DB3B78;}
	.st38{fill:#AAAAAA;}
	.st39{fill-rule:evenodd;clip-rule:evenodd;fill:none;stroke:#AAAAAA;stroke-width:1.2716;stroke-miterlimit:10;}
	.st40{fill:none;stroke:#AAAAAA;stroke-width:1.7675;stroke-miterlimit:10;}
	.st41{fill:none;stroke:#AAAAAA;stroke-width:2.5897;stroke-miterlimit:10;}
	.st42{fill-rule:evenodd;clip-rule:evenodd;fill:none;stroke:#AAAAAA;stroke-width:1.3547;stroke-miterlimit:10;}
	.st43{clip-path:url(#SVGID_15_);}
</style>
<g>
	<g>
		<g>
			<defs>
				<circle id="SVGID_1_" cx="273.1" cy="267.7" r="238.3"/>
			</defs>
			<clipPath id="SVGID_2_">
				<use xlink:href="#SVGID_1_"  style="overflow:visible;"/>
			</clipPath>
			<circle class="st0" cx="273.1" cy="267.7" r="238.3"/>
			<rect x="39.2" y="379.4" class="st1" width="467.8" height="150.4"/>
			<g class="st2">
				<path class="st3" d="M290.5,382.8c0.5,0.3,1,0.7,1.3,1.1c2.5,3.1-0.6,11.2,5.6,11.8c6.6,0.6,3.7-8.3,6.7-11.2
					c1-0.9,2.1-1.5,3.3-1.8H290.5z"/>
				<path class="st3" d="M390.3,402.8c4.9,3.6,8.8,1.5,11.6-3.2c1.9-3.2,2.3-12.2,8-11.1c6.2,1.3,4,9.7,8.3,12.5
					c3.7,2.5,6.1-1,7.3-3.9c3.5-8.1,9.5-12.2,18-13.3c2.3-0.3,15.8-2.8,8.1-5.3c-3.6-1.1-8.5,0.3-11.9,1.5
					c-3.8,1.3-6.5,2.8-10.5,2.8c-2.8,0-5.6,0-8.4,0c-6.4,0-12.7,0-19.1,0c-13.8,0-27.6,0-41.3,0c-8.5,0-17-0.2-25.5-0.3
					c-4.2,0-8.4,0.1-12.5-0.2c-2.3-0.2-10.5-2.3-11.9,0.7c3.9,0.1,8.8,1,12.2,3.1c2.1,1.3,3.6,4.5,4.4,6.8c1.7,5,0.2,13.1,5.3,16.4
					c3,1.9,7.1,0,7.8-3.4c0.4-1.9,0.7-5.6,3.8-4.4c2.3,0.9,1.7,4.5,2,6.5c0.7,4.1,0.6,8.2,1.2,12.3c1,6.7,4.9,15.6,13,11.5
					c7.1-3.5,8.3-13.5,9.2-20.5c0.3-2.6,1.3-5,1.6-7.6c0.2-2.2,0.4-4.5,1-6.6c1.2-4.4,3.9-7.5,8.8-6.4
					C386.5,392,386.1,399.6,390.3,402.8z"/>
			</g>
			<rect x="61.1" y="377.2" class="st0" width="479" height="6"/>
			<rect x="-24.6" y="-8.6" class="st4" width="604.2" height="364.6"/>
		</g>
		<path class="st3" d="M535.2,366.3c0-5.8-6.5-10.5-14.4-10.5h-103c-8,0-14.4,4.7-14.4,10.5v6.3c0,5.8,6.5,10.5,14.4,10.5h103
			c8,0,14.4-4.7,14.4-10.5V366.3z"/>
		<g>
			<g>
				<g>
					<path class="st5" d="M415,349.4c0,0-79.3,1.6-80.5,1.6c-1.2,0-186.7,1.6-186.7,1.6s-23.2-32.4,17.6-37.3
						c40.9-4.8,56.1-2,83.3-2c27.2,0,130.6-0.4,137-0.4c6.4,0,19.2-3.2,22.8,3.2C412.2,322.6,415,349.4,415,349.4z"/>
					<circle cx="180.5" cy="345.4" r="25.2"/>
					<circle cx="384.2" cy="345.4" r="25.2"/>
					<g>
						<defs>
							<path id="SVGID_3_" d="M353.3,353.4H210.9c0,0-1.2-36-32.4-36c-18.6,1.2-28.2,18-25.8,38.5c-21-1.8-25.2-4.8-25.8-8.4
								c-3.6-4.2-5.4-19.2-3-23.4c2.4-4.2,4.8-16.2,25.8-22.8c21-6.6,58.3-13.8,58.3-13.8l54.1-28.8c0,0,21-6,49.3-6.6
								c28.2-0.6,55.9,1.2,55.9,1.2s31.2,7.8,50.5,26.4c15.6,0,28-3.2,27,8.2c-1.1,13.1,4.2,26.1,4.2,26.1s8.4,10.2,3,15
								c-5.4,4.8-6,6.6-5.4,9.6c0.6,3-4.8,10.8-21.6,12c-16.8,1.2-12.6,1.8-12.6,1.8s3-34.2-34.2-33.6
								C350.9,319.2,353.3,353.4,353.3,353.4z"/>
						</defs>
						<use xlink:href="#SVGID_3_"  style="overflow:visible;fill:#242424;"/>
						<clipPath id="SVGID_4_">
							<use xlink:href="#SVGID_3_"  style="overflow:visible;"/>
						</clipPath>
					</g>
					<circle class="st6" cx="180.5" cy="345.4" r="16.2"/>
					<circle class="st6" cx="384.2" cy="345.4" r="16.2"/>
					<polygon class="st7" points="317.7,257.5 310.2,292 367.9,289.6 355.6,258.9 					"/>
					<path class="st8" d="M305.9,258.6l-26.4,1.9c0,0-17.1,2.9-30.4,13.4c-13.4,10.4-20.3,17.9-20.3,17.9l69.4,0.5L305.9,258.6z"/>
					<path class="st7" d="M375.1,288.5l-12.8-28.8c0,0,20.6,3.2,31,13.6C403.7,283.7,398.1,288,375.1,288.5z"/>
					<path class="st9" d="M443.2,291.7c0,0-5.1,0-6.4,3.5c-1.3,3.5-5.1,15.8,0.8,15.8c5.9,0,10.9,0.8,10.1-6.9
						C446.9,296.2,443.2,291.7,443.2,291.7z"/>
					<path class="st9" d="M130.2,310.9l10.1,0.5c0,0,3.5,2.1,1.6,4.5c-1.9,2.4-5.1,6.4-11.8,6.4
						C123.5,322.4,122.2,317.6,130.2,310.9z"/>
					<path class="st7" d="M417.6,279.5c0,0-8.4-7.7-28.9-15.9c-20.6-8.3-11.9-8-11.9-8s14.4,4.7,25.1,11.2
						C412.5,273.2,421.7,279.7,417.6,279.5z"/>
					<path class="st7" d="M262,258.5l1.7,1.7c0,0-33.6,20-37.1,22.4c-3.5,2.4-11.5,8.8-11.5,8.8l-7.2-4.1
						C207.9,287.4,243.7,265.1,262,258.5z"/>
				</g>
			</g>
			<polygon class="st8" points="355.4,258.8 349.1,258.6 311.7,291.9 318.7,291.6 			"/>
			<polygon class="st8" points="305.7,258.6 298.9,259 262,291.9 268.3,292 			"/>
			<polygon class="st8" points="358.2,266 330.2,291.1 336.5,290.8 359.8,270 			"/>
		</g>
		<path class="st10" d="M370.9,290.8V313c0,0-25.6,8.3-22.5,39.9"/>
		<g>
			<path class="st11" d="M431.8,243.7c-1-0.7-1.7-1.5-2.5-2.4c-0.3-0.3-2.6-2.9-2.6-0.9c-0.7-0.5-2.3-0.1-1.4,0.8
				c-0.3-0.3-0.9-0.5-1.2-0.6c-0.5,0-1.1,0.4-0.9,1c-0.4-0.1-1.3,0-1.5,0.4c-0.4,0.6,0.4,1.1,0.9,1.1c0.6,0.1,1.3,0.1,1.6,0.8
				c0.3,0.8-0.7,0.8-0.8,1.4c-0.2,0.8,1.4,1.4,2,1.5c0.5,0.1,1-0.1,1.6-0.2c0.6-0.1,1.1-0.2,1.7-0.1c1.2,0.2,2.3,0.9,3.4,1.6
				c1,0.7,2,1.4,3,2c0.7,0.5,1.2,1,1.9,1.5c0.6-0.8,1.2-1.7,1.9-2.4c0.4-0.4,0.1,0.1,0.4-0.4c0.1-0.2-3-2.6-3.3-2.8
				C434.2,245.4,433,244.6,431.8,243.7z"/>
			<path class="st12" d="M445.7,259.8l-15-12l3.1-3l13.7,8.3c8.7-1.2,16.5-5.4,23.6-1.6c7.5,4.1-0.1,7.1-3.3,8.6
				C464,262,449.4,261.6,445.7,259.8z"/>
			<path class="st11" d="M491.6,359.6l-4.9,0.6c0,0-4.6,3.4-7.6,3.8c-3,0.4-6,2.2-3.4,2.9c2.7,0.8,9.1,1.2,11.8-1.2l2.1-0.6l0.9,1.5
				l2.8-1.3L491.6,359.6z"/>
			<path class="st11" d="M472.1,361.2l-5.1-0.1c0,0-5.2,2.6-8.2,2.7c-3,0.1-6.2,1.7-3.6,2.8c2.6,1.1,8.9,2.3,11.8,0l2.2-0.5l0.7,1.8
				l2.9-1.1L472.1,361.2z"/>
			<path class="st11" d="M482.1,290.4c0,0,3.4,13.5-9.4,26.8l-0.3,44.1l-5.9,0.9l-5.8-42.8l-1.2-28"/>
			<path class="st13" d="M482.1,290.4c0,0,2.5,9.7-4.6,20.8"/>
			<path class="st11" d="M476.8,280.7c0,0,8.4,3.7,3.9,34.9l12.2,45.7l-6.1-0.6l-17.5-37.9l-0.9-24.9"/>
			<path class="st14" d="M453.9,233.8c0,0,0.2,2.1,0.7,3.1c0.6,1-0.7,2.4-0.7,2.4l1.5-0.7c0,0-0.1,3,1.7,2.8
				c1.9-0.2,3.1-2.8,4.3-0.9c1.2,1.9,1.9,4.6,1.9,4.6l8.1,0.8l-4.1-11.4l-2.7-4.1l-2.7-1.7L453.9,233.8z"/>
			<path class="st13" d="M462.2,225.7c-2.9,0.1-5.9,1.4-7.7,3.4c-2.8,3.1-3.8,5-3.8,5h1.7l-1.1,2c0,0,6-0.9,9.9-6.1
				c0,0-0.2,3.3,1.1,4.6c0.2,0.2,0.9,0.8,1.2,0.5c0.7-0.5-0.2-1.6,0-2.1c0.2-0.6,1.6-1,2.1-0.9c0.5,0.1,0.8,0.6,0.6,1.1
				c-0.1,0.3-0.4,0.5-0.4,0.8c-0.1,0.4,0.7,1.3,1.1,1.3c0.8,0,2-0.6,1.7-2.8c-0.3-2.2-2-6.2-3.5-6.6
				C464.2,225.7,463.2,225.6,462.2,225.7z"/>
			
				<linearGradient id="SVGID_5_" gradientUnits="userSpaceOnUse" x1="-787.2328" y1="267.4909" x2="-761.6005" y2="267.4909" gradientTransform="matrix(-1 0 0 1 -303.6064 0)">
				<stop  offset="0" style="stop-color:#972F9F"/>
				<stop  offset="1" style="stop-color:#972F9F"/>
			</linearGradient>
			<path class="st15" d="M463.2,244.4l7.2-1.7c0,0,9.1-0.2,12,12.7c2.9,12.9,0,36.9,0,36.9H458c0,0,2.9-14,3.2-20.5
				C461.5,265.2,460.5,251.3,463.2,244.4z"/>
			<g class="st16">
				<defs>
					<path id="SVGID_6_" class="st16" d="M263.1,258.4c0,0,21.4-6,50.2-6.6c13.5-0.3,27.1-0.1,40.6,0.4c9.4,0.3,18.8,1.4,28.2,1.1
						c1,0,2-0.1,3-0.2c6.4-0.5,13.1-2.7,19.3-4.5c4.3-1.2,8.4-2.4,12.5-4.2c2.5-1.1,6.1-3.4,8.8-3.3c-1.9,0-2,8.6-2,10
						c0,3,0.8,5.8,1,8.8c0.2,3.9-0.2,8.1-0.2,12c0,3.8-1.3,8.2,1.7,11.3c0,0-12.3,5.1-20.7,0c-8.4-5.1-20.4-21.3-43.3-23.5
						c-22.9-2.2-55.7-0.9-65.7-0.6c-21.8,0.6-30.3,5.3-30.3,5.3l-2.5-4.1c0,0-0.7-1.8-2.7-1.2L263.1,258.4"/>
				</defs>
				<use xlink:href="#SVGID_6_"  style="overflow:visible;fill:#242424;"/>
				<clipPath id="SVGID_7_">
					<use xlink:href="#SVGID_6_"  style="overflow:visible;"/>
				</clipPath>
				
					<use xlink:href="#SVGID_6_"  style="overflow:visible;fill:none;stroke:#242424;stroke-width:1.4437;stroke-linecap:round;stroke-linejoin:round;stroke-miterlimit:10;"/>
			</g>
			<g>
				<g>
					<path class="st17" d="M380.2,257.2c6-0.6,11.9-1.6,17.8-3c2.9-0.7,5.8-1.5,8.6-2.6c1.4-0.5,2.8-1.2,4.1-1.9
						c1.3-0.7,2.5-1.6,3.4-2.8l0.3,0.3c-1.9,1.6-4,3.1-6.1,4.4c-2.1,1.3-4.3,2.6-6.6,3.6c-2.3,1.1-4.7,2-7.1,2.7
						c-2.4,0.7-4.9,1.2-7.4,1.4l0-0.4c1.3,0.1,2.7,0.1,4,0.1c1.3,0,2.7-0.2,4-0.3c2.7-0.3,5.3-0.9,7.8-1.8c2.5-0.9,5-2,7.3-3.4
						c1.1-0.7,2.3-1.5,3.3-2.3c0.5-0.4,1-0.8,1.6-1.3c0.5-0.4,1-0.9,1.5-1.4c-0.5,0.5-0.9,1-1.4,1.4c-0.5,0.5-1,0.9-1.5,1.3
						c-1,0.9-2.1,1.6-3.3,2.4c-2.3,1.5-4.7,2.6-7.3,3.5c-2.6,0.9-5.2,1.5-7.9,1.9c-1.3,0.2-2.7,0.3-4,0.4c-1.4,0.1-2.7,0.1-4.1-0.1
						c-0.1,0-0.2-0.1-0.2-0.2c0-0.1,0.1-0.2,0.2-0.2l0,0c2.5-0.3,4.9-0.7,7.3-1.5c2.4-0.7,4.7-1.6,7-2.7c2.3-1,4.5-2.3,6.6-3.6
						c2.1-1.3,4.2-2.8,6.1-4.4l0,0c0.1-0.1,0.2-0.1,0.3,0c0.1,0.1,0.1,0.2,0,0.2c-1,1.2-2.2,2.1-3.6,2.8c-1.3,0.7-2.7,1.4-4.1,1.9
						c-2.8,1.1-5.7,1.9-8.7,2.5c-2.9,0.7-5.9,1.2-8.9,1.7C386.2,256.6,383.2,256.9,380.2,257.2z"/>
				</g>
				<g>
					<path class="st17" d="M419,249.2c0,0-1.6,1.6-4.1,3.9c-1.3,1.1-2.8,2.4-4.5,3.6c-1.7,1.3-3.6,2.5-5.5,3.8c-1,0.6-2,1.2-2.9,1.7
						c-1,0.5-2,1.1-2.9,1.5c-1,0.4-1.9,0.9-2.8,1.2c-0.9,0.3-1.8,0.7-2.6,0.9c-0.8,0.2-1.6,0.4-2.2,0.6c-0.7,0.2-1.3,0.3-1.8,0.4
						c-1,0.2-1.5,0.3-1.5,0.3s0.6-0.1,1.5-0.4c0.5-0.1,1.1-0.2,1.7-0.5c0.7-0.2,1.4-0.5,2.2-0.7c0.8-0.3,1.6-0.6,2.5-1
						c0.9-0.3,1.8-0.8,2.8-1.3c1-0.4,1.9-1,2.9-1.5c1-0.5,1.9-1.1,2.9-1.7c1.9-1.2,3.8-2.4,5.5-3.7c1.7-1.2,3.3-2.4,4.6-3.5
						c1.3-1.1,2.4-2,3.2-2.6C418.6,249.6,419,249.2,419,249.2z"/>
				</g>
			</g>
			<g>
				<path class="st17" d="M420.6,249.3c0,0-0.2,1.4-0.8,3.5c-0.3,1-0.6,2.2-1,3.5c-0.4,1.3-0.9,2.6-1.4,4c-0.5,1.3-1.1,2.6-1.7,3.8
					c-0.6,1.2-1.3,2.3-2,3.1c-0.3,0.4-0.7,0.8-1,1.1c-0.3,0.3-0.6,0.5-0.9,0.7c-0.3,0.2-0.5,0.3-0.7,0.3c-0.2,0.1-0.2,0.1-0.2,0.1
					s0.1,0,0.2-0.1c0.2-0.1,0.4-0.2,0.6-0.4c0.2-0.2,0.5-0.4,0.8-0.7c0.3-0.3,0.6-0.7,0.9-1.1c0.6-0.9,1.2-1.9,1.8-3.1
					c0.6-1.2,1.1-2.5,1.7-3.8c0.5-1.3,1-2.7,1.4-3.9c0.4-1.3,0.8-2.4,1.1-3.5C420.2,250.7,420.6,249.3,420.6,249.3z"/>
			</g>
			<g>
				<path class="st17" d="M413.3,260c0,0,0.2,0.5,0.2,1.4c0,0.4,0,0.9-0.1,1.4c-0.1,0.5-0.2,1.1-0.4,1.6c-0.2,0.5-0.5,1-0.8,1.5
					c-0.1,0.2-0.3,0.4-0.5,0.6c-0.2,0.2-0.3,0.3-0.5,0.5c-0.3,0.3-0.6,0.5-0.8,0.6c-0.2,0.1-0.3,0.2-0.3,0.2s0.1-0.1,0.3-0.3
					c0.1-0.1,0.2-0.2,0.3-0.3c0.1-0.1,0.2-0.3,0.4-0.4c0.1-0.2,0.3-0.3,0.4-0.5c0.1-0.2,0.3-0.4,0.4-0.6c0.3-0.4,0.5-0.9,0.7-1.4
					c0.2-0.5,0.4-1,0.5-1.5c0.1-0.5,0.2-1,0.2-1.4C413.3,260.6,413.3,260,413.3,260z"/>
			</g>
			<g>
				<path class="st11" d="M423.2,269.6c-0.3-0.2-0.7,0.2-0.9,0.1c-0.8-0.3-0.2-1.3,0.4-1.4c0.5-0.1,1.1-0.1,1.6-0.3
					c0.3-0.1,0.8-0.1,0.7-0.5c-0.1-0.3-0.2-0.8-0.4-1.1c0.3,0,0.6,0.3,0.9,0.4c0.3,0.2,0.7,0.4,0.9,0.7c0.4,0.4,0.7,0.9,1,1.3
					c0.5,0.7,1,1.2,1.9,1.6c0.8,0.3,1.6,0.5,2.5,0.5c0.6,0,5.8-0.1,5.8,0.5c0,1.3,0.4,3.6-0.3,4.7c-1.4-0.6-3-1-4.4-1.4
					c-1.4-0.5-2.4,0.5-3.8,0.2c-0.6-0.1-1.4-0.8-2.1-1c-0.9-0.3-1.4,0.6-2.3,0.4c-1-0.2-0.1-1,0.2-1.5c-0.4,0.2-1.1,0.6-1.4,0.2
					c-0.5-0.5,0.2-1.3,0.4-1.8c-0.3,0.2-1.1,0.5-1.3,0c-0.3-0.5,0.4-1.3,0.7-1.7"/>
			</g>
			
				<linearGradient id="SVGID_8_" gradientUnits="userSpaceOnUse" x1="-118.2336" y1="722.9363" x2="-80.3707" y2="722.9363" gradientTransform="matrix(-0.9955 -9.430000e-02 -9.430000e-02 0.9955 423.176 -466.3758)">
				<stop  offset="0" style="stop-color:#972F9F"/>
				<stop  offset="1" style="stop-color:#972F9F"/>
			</linearGradient>
			<path class="st18" d="M452.2,278.8l-17.9-3l-0.2-4.9l18.9-0.8c2.8-5.7,6.4-24.8,17.5-22c9.6,2.4-4.4,21.9-7.5,24.6
				C459.5,275.8,457.1,278.9,452.2,278.8z"/>
		</g>
		<g>
			<g>
				<path class="st19" d="M215.3,294.9c0,0-4.5,44.6-3.3,47.6c1.2,3,76.1,7.7,82.7,3.2c6.6-4.5,10.1-47.7,10.1-47.7l-62.3,0.3
					l-12-10.3"/>
			</g>
			<polygon class="st19" points="233.3,303.6 245.2,295.4 273.2,295.2 279.2,308.9 268.9,320.3 231.8,320.8 			"/>
			<polygon class="st19" points="230.4,305.6 240.3,305.3 252.4,299.7 287.9,299.7 289.7,305.3 289.8,312.1 279.4,315.7 
				232.7,314.6 			"/>
			<polygon class="st19" points="236.1,303.1 239.1,308.1 242.5,308.3 247.9,305.3 258.9,305.3 260.1,309 273.9,308.2 271.5,316.1 
				258.5,320.5 236.4,319.2 233.2,315.6 233.3,303.6 			"/>
			<path class="st20" d="M234.6,293.3c0.7-0.6,3.7,0.1,4.1,0.7c0.4,0.6,3,4.9,2.7,5.5c-0.3,0.6-4.5,2.5-5.1,2.2
				C235.6,301.4,233.9,294,234.6,293.3z"/>
			<path class="st21" d="M227,333.2c0,0,55.3,3.9,56.8,4c1.6,0.1,3.8-0.9,4.9-2.7c1.1-1.8,2.4-16,2.3-20.1c-0.1-4.2,1.2-17.4,1.8-20
				c0.6-2.6,1.9-3.6,3.4-3.5c2.3,0.1,2.6,2.2,2.6,2.2s-4.8,39.5-6.6,42.4c-1.8,3-3.4,4.3-8.2,4.8c-4.8,0.5-57.4-3-57.4-3L227,333.2z
				"/>
			<path class="st22" d="M266.6,321.6c-2.2-1.2-6-2.6-7.5-3c-1.5-0.5-4.3,0.1-5.7,0c-1.5-0.1-3.4-1.8-5.1-1.8
				c-0.7,0-1.4,0.4-2.1,0.8c-0.4,0.5-0.7,0.9-0.8,1.2c-0.2,0.9,0.7,2.1,0.7,2.1l6.7,0.8l9-0.3l6.8,4.7l8.3,0.9c0,0,0.9-2,1.5-3.9
				C275.4,322.9,268.3,322.5,266.6,321.6z"/>
			<path class="st20" d="M283.5,334c0,0-6.3,1.7-11.4,1.2c-2.1-0.2-9.2-2-10.9-2.2c-1.7-0.2-10.7-0.6-14-1.2
				c-3.4-0.6-4.1-5.9-4.3-8.9c-0.2-3,3-5.8,5.5-5.8c2.3,0,4.5,0.8,5.3,0.9c0.9,0.1,5.9-0.9,9.3-0.1c3.5,0.8,6,3.2,8.1,3.9
				c2.1,0.7,13.4,0.9,14.7,2.4C286.8,325.6,283.5,334,283.5,334z"/>
			<path class="st23" d="M244.6,292.3c0.2,0.9,0.9,3.2,2.2,4.9l0.1,0C246.5,296.3,245.2,293.9,244.6,292.3L244.6,292.3z"/>
			<path class="st23" d="M245.6,291.6c0.2,0.7,0.8,3.4,2.4,5.3l0,0C247.6,296.1,246.1,293.3,245.6,291.6L245.6,291.6z"/>
			<path class="st23" d="M248.7,296.6c-0.4-0.7-1.9-3.7-2.4-5.5l0,0C246.4,291.7,247,294.6,248.7,296.6L248.7,296.6z"/>
			<path class="st20" d="M285.6,333.6c-0.2,1.5-1.6,2.5-3.1,2.3l-7.3-1.1c-1.5-0.2-2.5-1.6-2.3-3.1l0,0c0.2-1.5,1.6-2.5,3.1-2.3
				l7.3,1.1C284.8,330.8,285.8,332.2,285.6,333.6L285.6,333.6z"/>
			<path class="st5" d="M211.2,333.6c-1.8-1.2-3.2-8.8-3.5-17.2c-0.3-8.5,7.1-23.2,7.1-23.2l-6.2,1.5c-0.1,0.8,0,1.9-0.4,2.4
				c-0.4,0.4-1.7,1.5-2,2.2c-2.7,4.3-2.9,12.5-3.3,19.3c-0.4,6.8,3.4,23.1,7.9,26.7c6.3,0,13.1,0.1,20.2,0.1l-0.2-9.4
				C219.9,334.9,211.8,334,211.2,333.6z"/>
			<g>
				<path d="M234.5,346.7c-0.1,1.1-2.8,2-2.8,2l-0.7-57l-2.9-2.7l-17.8,3.8l2.1-1.3l1.2-1l14.7-3.6c0,0,1.2-0.2,1.5,0
					c0.4,0.3,0.3,0.8,0.6,1.1c0.3,0.2,1.4,0.1,1.9,0.4c0.5,0.4,1.5,2.1,1.5,2.1"/>
			</g>
			<path class="st24" d="M207.7,316.3c0.3,8.5,1.7,16.1,3.5,17.2c0.6,0.4,8.7,1.3,19.6,2.4l-0.7-43.3c0,0-2.2-2.6-3.4-2.8
				c-1.3-0.2-17.4,3.6-17.8,4c-0.1,0.2-0.2,0.5-0.2,0.8l6.2-1.5C214.8,293.2,207.4,307.9,207.7,316.3z"/>
			<path class="st5" d="M209.7,296.2c0.7-0.8,0.2-2.8,0.7-3.4c0.3-0.5,16.5-4.4,17.8-4.2c1.3,0.2,3.4,2.9,3.4,2.9l0.9,56.9
				c0,0-2,0.9-4.4,0.6c-2.4-0.4-14.2-6.8-18.7-10.5c-4.5-3.7-5.5-19.1-5.2-23.8c0.3-5.2,0.7-11.7,3.4-16.2
				C208,297.8,209.3,296.6,209.7,296.2z"/>
			<path class="st25" d="M232.5,348.4l-0.5-56.9c0,0-1.2-2.8-1.8-2.9c-0.1,0-0.3,0-0.6,0.1c-0.2,1.2-0.5,3.2-0.7,3.9
				c-0.3,1-1.5,2.9-1.8,4c-0.9,3.5-1.8,36.6-0.4,44.3c0.4,2.3,2.4,3.4,2.8,3.9c0.3,0.4,1,3,1.2,4.3
				C231.7,349.1,232.5,348.4,232.5,348.4z"/>
			<path class="st26" d="M232.5,348.4L232.5,348.4L232.5,348.4z"/>
			<path class="st27" d="M232.5,348.4C232.5,348.4,232.5,348.4,232.5,348.4C232.5,348.4,232.5,348.4,232.5,348.4z"/>
			<path class="st27" d="M226.4,292.7v-2.3l-16.3,3c-0.1,0.9,0,2.2-0.4,2.7c-0.2,0.2-0.8,0.8-1.2,1.3l14.4-2L226.4,292.7z"/>
			<path class="st5" d="M213.6,328.9c0.5-0.8,1.1-2.1,1.7-3.7c-1.7,0.4-6.9,1.3-10.5,0.3c0.1,0.7,0.2,1.1,0.3,2c0.2,1,0.4,2,0.6,2.9
				C207.6,330.6,212.2,331,213.6,328.9z"/>
			<path class="st5" d="M217.1,313c0.9,1.1-0.6,7.6-2.2,12.2c0.1,0,0.2,0,0.3-0.1c1.4-3.9,2.6-9.3,2.6-11.3c0-2.6-0.7-3-1.4-3.5
				c-0.9-0.7-9.7-1.7-12-1c-0.1,0.6-0.1,1.2-0.2,1.8C207,310.7,215.6,311.1,217.1,313z"/>
			<g>
				<path class="st28" d="M280.7,321c0,0,0.1,0,0.2-0.1C280.8,320.9,280.8,320.9,280.7,321C280.7,321,280.7,321,280.7,321z"/>
				<path class="st20" d="M284.5,329.2c-6.2,0.2-8.2-7.5-6.9-12c1.6-5.5,10-12.1,9.8-13.6c-0.2-2.2-3.8-9.1-2.6-12
					c1.3-3.2,5.5-6,5.7-7.2c0.2-1.3,0.7-1,0.5-3.1c-0.3-5.7,1.3-8.2,3.2-8.5c1.9-0.3,2.7,1.1,2.7,1.1l0.5,2.3c0,0,1.2,1,1.2,2.9
					c0,1.9-1.2,3.2-1.2,3.2s0.1,7.1,0.1,9.6c0,2.5-5.3,32.3-5.3,32.3S290.5,329,284.5,329.2z"/>
				<path class="st20" d="M286.1,309.5c-0.9-0.3-1.8-0.2-2.5,0.1c-2.1,2.3-4.5,5-5.4,7.3c-0.7,1.7-0.7,3.9-0.1,6
					C278.5,316.1,286.1,309.5,286.1,309.5z"/>
				<path class="st20" d="M291.4,322.1c1.4,0.8,0.8,3.1,0.8,3.1s-2.2,7.4-3.2,8.2c-1,0.8-3.3,1-4.6,0.4c-1.3-0.7-2.8-3.2-2.4-4.8
					c0.5-1.6,2.5-5.8,4.3-5.7C288.1,323.3,290,321.3,291.4,322.1z"/>
				<linearGradient id="SVGID_9_" gradientUnits="userSpaceOnUse" x1="277.7815" y1="305.6763" x2="277.4772" y2="305.012">
					<stop  offset="0" style="stop-color:#FFFFFF"/>
					<stop  offset="0.2888" style="stop-color:#DBD5D0"/>
					<stop  offset="0.9434" style="stop-color:#816B59"/>
					<stop  offset="1" style="stop-color:#79624E"/>
				</linearGradient>
				<path class="st29" d="M277.3,305.3c0-0.1,0.2-0.4,0.3-0.4c0.1,0,0.2,0.4,0.1,0.5C277.7,305.5,277.3,305.4,277.3,305.3z"/>
				<linearGradient id="SVGID_10_" gradientUnits="userSpaceOnUse" x1="287.8389" y1="297.1497" x2="287.8318" y2="297.1341">
					<stop  offset="0" style="stop-color:#FFFFFF"/>
					<stop  offset="0.3945" style="stop-color:#E9DAD0"/>
					<stop  offset="1" style="stop-color:#C39D80"/>
				</linearGradient>
				<path class="st30" d="M287.8,297.1C287.8,297.1,287.9,297.1,287.8,297.1L287.8,297.1C287.8,297.1,287.8,297.2,287.8,297.1z"/>
				<path class="st20" d="M297.3,276.3c0,0-0.7-0.3-1.9,0.9c-1.2,1.2-0.9,4.1-0.9,4.1s-0.6-2.8,0-4.1c0.6-1.4,2.6-2.3,2.6-2.3
					L297.3,276.3z"/>
			</g>
			<g>
				<path class="st20" d="M238.5,294.8c0.7-0.6,5.4-2.6,5.7-2.4c0.2,0.1,0.6,1.5,1.1,2.6c0.5,1.1,1.1,2.1,1.1,2.4
					c-0.1,0.6-5.4,3.2-6,2.8C239.7,300,237.8,295.4,238.5,294.8z"/>
				<path class="st26" d="M247.7,284.2c-0.3,0.3,2.4,7.2,5.4,13.2c0,0-5-11.7-4.7-11.9c0.1-0.1,0.3,0.1,0.6,0.4
					c-0.4-0.6-0.7-1.1-1.1-1.6C247.9,284.2,247.8,284.2,247.7,284.2z"/>
				<path class="st20" d="M254.2,303.7c0.8,0,1.6-0.3,1.8-0.9c0.2-0.7-2.3-8-4-11.6c-1.7-3.6-5.1-8.6-5.6-9
					c-0.5-0.4-1.4-0.2-1.6,0.6c-0.2,0.8,3.1,8.4,3.9,10.4C249.4,295.2,253.4,303.7,254.2,303.7z"/>
				<path class="st20" d="M252,291.1c-0.3-0.6-0.6-1.3-1-1.9l0,0c0,0,0,0,0-0.1c-0.1-0.2-0.2-0.4-0.3-0.5c0,0,0,0,0,0
					c0-0.1-0.1-0.2-0.1-0.3c0,0,0-0.1-0.1-0.1c-0.2-0.3-0.3-0.5-0.5-0.8c0,0,0-0.1-0.1-0.1c-0.2-0.3-0.3-0.5-0.5-0.8
					c0-0.1-0.1-0.1-0.1-0.2c0-0.1-0.1-0.1-0.1-0.2c-0.1-0.1-0.1-0.2-0.2-0.3c0-0.1-0.1-0.1-0.1-0.2c0-0.1-0.1-0.1-0.1-0.2
					c0,0-0.1-0.1-0.1-0.1c-0.1-0.1-0.1-0.2-0.2-0.3c0,0,0-0.1-0.1-0.1c-0.1-0.1-0.1-0.2-0.2-0.3c0,0,0-0.1-0.1-0.1
					c-0.1-0.1-0.1-0.2-0.2-0.3l0,0l0,0c-0.8-1.2-1.4-2-1.6-2.2c-0.5-0.4-1.4-0.2-1.6,0.6c-0.1,0.5,1.3,4.2,2.5,7.1l0.4-0.4l0.1-1.8
					l1,0.2l0.2-0.2c1.4,3.6,3.6,8.9,4,9.6c0.6,1.3,2.1,4.5,3.1,5C255.7,300.7,253.5,294.4,252,291.1z"/>
				<polygon class="st20" points="244,292.7 247.6,290.2 250.2,296.2 246.1,297.4 				"/>
			</g>
		</g>
		<line class="st10" x1="303.1" y1="293" x2="303.1" y2="352.9"/>
		<g>
			<g>
				
					<linearGradient id="SVGID_11_" gradientUnits="userSpaceOnUse" x1="8781.9238" y1="371.7396" x2="8794.7803" y2="371.7396" gradientTransform="matrix(-1 0 0 1 9011.7178 0)">
					<stop  offset="0" style="stop-color:#972F9F"/>
					<stop  offset="1" style="stop-color:#972F9F"/>
				</linearGradient>
				<path class="st31" d="M218.8,367.5L218.8,367.5c1.2-1.1,2.8-1.8,4.5-1.8c1.8,0,3.4,0.7,4.5,1.8c1.2,1.1,1.9,2.6,1.9,4.2
					c0,1.7-0.7,3.2-1.9,4.2c-1.2,1.1-2.8,1.8-4.5,1.8c-1.8,0-3.4-0.7-4.5-1.8c-1.2-1.1-1.9-2.6-1.9-4.2
					C216.9,370.1,217.7,368.6,218.8,367.5z"/>
				<path class="st32" d="M223.4,365.4c-1.9,0-3.6,0.7-4.8,1.9c-1.2,1.1-2,2.7-2,4.5s0.8,3.3,2,4.5c1.2,1.1,2.9,1.9,4.8,1.9
					c1.9,0,3.6-0.7,4.8-1.9c1.2-1.1,2-2.7,2-4.5s-0.8-3.3-2-4.5C226.9,366.1,225.2,365.4,223.4,365.4z"/>
				<path class="st33" d="M223.4,368.9L223.4,368.9c1.7,0,3.1,1.3,3.1,2.9c0,1.6-1.4,2.9-3.1,2.9s-3.1-1.3-3.1-2.9
					C220.3,370.2,221.7,368.9,223.4,368.9z"/>
			</g>
			<path class="st32" d="M228.7,377.3c1.4-0.2,2.7-0.4,4.3-0.4c2.8,0.1,5.6,0.4,8.3-0.1c2.6-0.7,3.8-1.2,5.7-2.9
				c3.2-3.6,2.4-5.6,0-9.9c-0.5-0.6-0.9-1.1-1.4-1.7c-0.2-0.2-0.4-0.4-0.6-0.5c-4-2.6-6.3-4.7-11.3-5.7c-0.3-0.1-0.7-0.1-1-0.2
				c-1.5-0.9-4.1-2.1-5.7-1.4c-0.1,0.1-0.2,0.2-0.4,0.2c-1.4,0.2-11.4,0.5-10.3,3.5c0.2,0.5,1,0.7,2.2,1.1c0,0-0.2,0.4-0.5,0.7
				c-0.3,0.3-0.6,0.9-0.6,0.9c-0.2,0.2-0.8,0.4-0.9,0.6c-1.4,2.1-1,4.4-1.1,6.8l0.2,1.5c1-3.1,4-5.3,7.7-5.3c4.4,0,8,3.3,8,7.5
				C231.4,373.9,230.4,375.9,228.7,377.3z"/>
			<polygon class="st32" points="245.3,359.4 242,357.2 239.8,357.4 245.9,361.6 			"/>
			<g>
				<path class="st34" d="M243.9,357c2.7-3.4,8.9-4.5,11.3-0.1c1.7,3.2-0.1,6.6-2.7,8.5c-2,1.4-5.8,2-8.1,1.8
					c-2.9-0.1-5.6-1.3-8-2.8c-7-4.4-10.7-12.2-11.7-20.2c-0.9-7.2-0.4-14.6,2.8-21.2c1.1-2.3,2.6-4.7,4.3-6.7c4.2-5,9.8-9,16.6-8.6
					c8,0.4,14.8,4.9,18,12.4"/>
				<path class="st11" d="M176.3,368.4l5.3,0.6c0,0,5,3.6,8.1,4c3.2,0.4,6.4,2.3,3.6,3.1c-2.9,0.8-9.7,1.3-12.6-1.3l-2.3-0.7
					l-0.9,1.6l-3-1.4L176.3,368.4z"/>
				<path class="st11" d="M197.2,370.1l5.5-0.1c0,0,5.5,2.8,8.7,2.9c3.2,0.1,6.6,1.8,3.9,3c-2.8,1.2-9.5,2.4-12.5,0l-2.3-0.5
					l-0.8,1.9l-3.1-1.2L197.2,370.1z"/>
				<path class="st11" d="M188.7,293.6c0,0-5.9,15.4,7.8,29.6l0.3,47.1l6.3,0.9l6.2-45.7l1.2-29.8"/>
				<path class="st13" d="M186.5,294.6c0,0-2.6,10.4,4.9,22.2"/>
				<path class="st11" d="M192.2,284.2c0,0-11.3,6.8-4.1,37.2L175,370.2l6.5-0.6l18.7-40.5l0.9-26.6"/>
				<path class="st14" d="M249,266.6c0,0-1.8,1.6-3,2c0.1,0-1.2,3.2-1.2,2.6l-0.7-1.7c0,0-2.2,2.6-3.6,1c-1.4-1.6-0.4-4.6-2.8-4
					c-2.4,0.6-5,2.3-5,2.3l-7.2-5.5l11.9-6.3l5.3-1.4l3.5,0.6L249,266.6z"/>
				<path class="st13" d="M248.3,253.8c2.2,2.3,3.7,5.6,3.7,8.6c0,4.6-0.6,7-0.6,7l-1.4-1.2l-0.6,2.5c0,0-4.2-5.3-3.5-12.4
					c0,0-2.4,2.8-4.4,2.9c-0.4,0-1.3,0-1.4-0.5c-0.2-0.9,1.3-1.2,1.6-1.8c0.3-0.7-0.5-2-1.1-2.3c-0.5-0.3-1.1-0.1-1.4,0.4
					c-0.2,0.3-0.1,0.7-0.3,1c-0.3,0.4-1.6,0.6-1.9,0.2c-0.6-0.6-1.3-2,0.7-3.6c1.9-1.6,6.3-3.5,7.8-2.8
					C246.6,252.3,247.5,253,248.3,253.8z"/>
				<linearGradient id="SVGID_12_" gradientUnits="userSpaceOnUse" x1="185.9545" y1="283.3448" x2="233.0531" y2="283.3448">
					<stop  offset="0" style="stop-color:#972F9F"/>
					<stop  offset="1" style="stop-color:#972F9F"/>
				</linearGradient>
				<path class="st35" d="M233.1,268l-0.9-7.9c0,0-18.8-3.9-29.3,5.6c-10.5,9.4-16.9,28.9-16.9,28.9l25.8,12.8
					c0,0,1.5-13.2,5.3-19.1C220.8,282.4,231.1,275.6,233.1,268z"/>
				<g>
					<path class="st11" d="M247.6,310.3c0.4,0.1,0.4,0.6,0.7,0.7c0.9,0.3,1.1-0.9,0.7-1.5c-0.4-0.4-0.8-0.8-1-1.3
						c-0.2-0.3-0.6-0.6-0.2-0.9c0.3-0.2,0.8-0.5,1.1-0.6c-0.2-0.2-0.7-0.2-1-0.3c-0.4-0.1-0.9-0.1-1.3,0c-0.6,0.1-1.2,0.2-1.8,0.3
						c-0.9,0.2-1.6,0.3-2.6,0c-0.9-0.3-1.7-0.8-2.4-1.3c-0.5-0.4-4.6-4.1-5.1-3.6c-0.9,1-2.9,2.6-3.1,4c1.6,0.4,3.1,1.3,4.6,1.9
						c1.4,0.6,1.6,2.1,2.9,2.8c0.6,0.3,1.7,0.4,2.3,0.7c0.9,0.4,0.7,1.5,1.6,2c1,0.5,0.8-0.7,0.9-1.4c0.1,0.4,0.4,1.2,1,1.1
						c0.7-0.1,0.7-1.2,0.9-1.7c0.1,0.4,0.6,1.1,1.1,1c0.6-0.2,0.6-1.3,0.6-1.9"/>
				</g>
				<linearGradient id="SVGID_13_" gradientUnits="userSpaceOnUse" x1="213.2658" y1="283.3696" x2="237.9599" y2="283.3696">
					<stop  offset="0" style="stop-color:#972F9F"/>
					<stop  offset="1" style="stop-color:#972F9F"/>
				</linearGradient>
				<path class="st36" d="M217.8,297.5l16.6,10.1l3.5-3.9l-14.7-13.9c1.7-6.6,12.1-24.5,1.2-30c-9.4-4.8-11.7,20.8-11.1,25.1
					C214,289.9,213.8,294.1,217.8,297.5z"/>
				<polygon class="st37" points="269.5,319.9 263.6,320.4 262.8,318 267.9,316.1 				"/>
				
					<rect x="264.9" y="310.7" transform="matrix(0.1474 -0.9891 0.9891 0.1474 -89.9566 536.3945)" class="st37" width="2.5" height="19.4"/>
			</g>
		</g>
	</g>
	<g>
		<g>
			<path class="st38" d="M331.8,193c0,2.1-0.8,3.8-1.8,3.8l0,0c-1,0-1.8-1.7-1.8-3.8V72.3c0-2.1,0.8-3.8,1.8-3.8l0,0
				c1,0,1.8,1.7,1.8,3.8V193z"/>
		</g>
		<g>
			<path class="st38" d="M385,193c0,2.1-0.8,3.8-1.8,3.8l0,0c-1,0-1.8-1.7-1.8-3.8V72.3c0-2.1,0.8-3.8,1.8-3.8l0,0
				c1,0,1.8,1.7,1.8,3.8V193z"/>
		</g>
		<g>
			<path class="st38" d="M347.5,165.4l-0.2-0.2c-0.3-0.3-0.7-0.6-1.1-0.8v-11.1c0.4-0.2,0.8-0.4,1.1-0.8l0.2-0.2
				c1.3-1.5,1.3-3.8-0.2-5.2c-0.4-0.4-0.9-0.7-1.4-0.9v3.6c0,0.2,0,0.4-0.1,0.5c-0.2,0.4-0.6,0.7-1.2,0.7c-0.3,0-0.7-0.1-0.9-0.4
				c-0.1-0.1-0.2-0.2-0.2-0.4c-0.1-0.2-0.1-0.3-0.1-0.5v-3.6c-0.5,0.2-1,0.5-1.4,0.9c-1.4,1.4-1.5,3.7-0.2,5.2l0.2,0.2
				c0.3,0.3,0.7,0.6,1.1,0.8v11.1c-0.4,0.2-0.8,0.4-1.1,0.8l-0.2,0.2c-1.3,1.5-1.3,3.8,0.2,5.2c0.4,0.4,0.9,0.7,1.4,0.9v-3.6
				c0-0.2,0-0.4,0.1-0.5c0.2-0.4,0.6-0.7,1.2-0.7c0.4,0,0.7,0.1,0.9,0.4c0.1,0.1,0.2,0.2,0.3,0.4c0.1,0.2,0.1,0.3,0.1,0.5v3.6
				c0.5-0.2,1-0.5,1.4-0.9C348.8,169.2,348.8,166.9,347.5,165.4z"/>
			<path class="st38" d="M345.1,163.2c0,0.2-0.2,0.4-0.4,0.4l0,0c-0.2,0-0.4-0.2-0.4-0.4v-8.6c0-0.2,0.2-0.4,0.4-0.4l0,0
				c0.2,0,0.4,0.2,0.4,0.4V163.2z"/>
		</g>
		<g>
			<path class="st38" d="M370.9,165.4l-0.2-0.2c-0.3-0.3-0.7-0.6-1.1-0.8v-11.1c0.4-0.2,0.8-0.4,1.1-0.8l0.2-0.2
				c1.3-1.5,1.3-3.8-0.2-5.2c-0.4-0.4-0.9-0.7-1.4-0.9v3.6c0,0.2,0,0.4-0.1,0.5c-0.2,0.4-0.6,0.7-1.2,0.7c-0.4,0-0.7-0.1-0.9-0.4
				c-0.1-0.1-0.2-0.2-0.2-0.4c-0.1-0.2-0.1-0.3-0.1-0.5v-3.6c-0.5,0.2-1,0.5-1.4,0.9c-1.4,1.4-1.5,3.7-0.2,5.2l0.2,0.2
				c0.3,0.3,0.7,0.6,1.1,0.8v11.1c-0.4,0.2-0.8,0.4-1.1,0.8l-0.2,0.2c-1.3,1.5-1.3,3.8,0.2,5.2c0.4,0.4,0.9,0.7,1.4,0.9v-3.6
				c0-0.2,0-0.4,0.1-0.5c0.2-0.4,0.6-0.7,1.2-0.7c0.4,0,0.7,0.1,0.9,0.4c0.1,0.1,0.2,0.2,0.3,0.4c0.1,0.2,0.1,0.3,0.1,0.5v3.6
				c0.5-0.2,1-0.5,1.4-0.9C372.2,169.2,372.2,166.9,370.9,165.4z"/>
			<path class="st38" d="M368.4,163.2c0,0.2-0.2,0.4-0.4,0.4l0,0c-0.2,0-0.4-0.2-0.4-0.4v-8.6c0-0.2,0.2-0.4,0.4-0.4l0,0
				c0.2,0,0.4,0.2,0.4,0.4V163.2z"/>
		</g>
		<g>
			<path class="st38" d="M359.4,164.2l-0.2-0.2c-0.4-0.4-0.9-0.7-1.3-0.9v-13.3c0.5-0.2,0.9-0.5,1.3-0.9l0.2-0.2
				c1.6-1.8,1.5-4.5-0.2-6.2c-0.5-0.5-1.1-0.8-1.7-1.1v4.3c0,0.2-0.1,0.4-0.1,0.6c-0.2,0.5-0.8,0.9-1.4,0.9c-0.4,0-0.8-0.2-1.1-0.4
				c-0.1-0.1-0.2-0.3-0.3-0.4c-0.1-0.2-0.1-0.4-0.1-0.6v-4.3c-0.6,0.2-1.2,0.6-1.7,1.1c-1.7,1.7-1.8,4.4-0.2,6.2l0.2,0.2
				c0.4,0.4,0.9,0.7,1.3,0.9v13.3c-0.5,0.2-0.9,0.5-1.3,0.9l-0.2,0.2c-1.6,1.8-1.5,4.5,0.2,6.2c0.5,0.5,1.1,0.8,1.7,1.1v-4.3
				c0-0.2,0.1-0.4,0.1-0.6c0.2-0.5,0.8-0.9,1.4-0.9c0.4,0,0.8,0.2,1.1,0.4c0.1,0.1,0.2,0.3,0.3,0.4c0.1,0.2,0.1,0.4,0.1,0.6v4.3
				c0.6-0.2,1.2-0.6,1.7-1.1C361,168.7,361,166,359.4,164.2z"/>
			<path class="st38" d="M356.5,161.5c0,0.3-0.2,0.5-0.5,0.5l0,0c-0.3,0-0.5-0.2-0.5-0.5v-10.3c0-0.3,0.2-0.5,0.5-0.5l0,0
				c0.3,0,0.5,0.2,0.5,0.5V161.5z"/>
		</g>
		<polygon class="st39" points="340.6,115.5 338.2,111.3 340.6,107.1 345.5,107.1 347.9,111.3 345.5,115.5 		"/>
		<polygon class="st39" points="354.1,115.5 351.7,111.3 354.1,107.1 359,107.1 361.4,111.3 359,115.5 		"/>
		<polygon class="st39" points="367.6,115.5 365.2,111.3 367.6,107.1 372.5,107.1 374.9,111.3 372.5,115.5 		"/>
		<polygon class="st39" points="340.6,103 338.2,98.8 340.6,94.6 345.5,94.6 347.9,98.8 345.5,103 		"/>
		<polygon class="st39" points="354.1,103 351.7,98.8 354.1,94.6 359,94.6 361.4,98.8 359,103 		"/>
		<polygon class="st39" points="367.6,103 365.2,98.8 367.6,94.6 372.5,94.6 374.9,98.8 372.5,103 		"/>
		<line class="st40" x1="330" y1="123.4" x2="383.2" y2="123.4"/>
		<line class="st40" x1="330" y1="179.7" x2="383.2" y2="179.7"/>
		<g>
			<path class="st38" d="M438.5,193c0,2.1-0.8,3.8-1.8,3.8l0,0c-1,0-1.8-1.7-1.8-3.8V72.3c0-2.1,0.8-3.8,1.8-3.8l0,0
				c1,0,1.8,1.7,1.8,3.8V193z"/>
		</g>
		<line class="st40" x1="383.4" y1="123.4" x2="436.6" y2="123.4"/>
		<line class="st40" x1="383.4" y1="179.7" x2="436.6" y2="179.7"/>
		<g>
			<g>
				<path class="st38" d="M406.6,164.6c0,0-0.1-1.5-2.1-3l-1.3-1.6c0,0-0.1-1.2,0.3-1.6c0,0,0.3-0.6-0.2-1.5c0,0,0.2-1.4,0.4-1.6
					c0,0,0.1-0.7-0.3-0.9c0,0,0-1.3,0.4-1.6c0,0,0.6-1-0.3-1.6l-0.9-0.7h-3.2c0,0-0.7-0.7-2.5,8.9c0,0-0.4,0.4-0.6,0.4
					c0,0-0.4,0.1-0.4,1.1c0,0-0.7,4.5-0.4,6.1c0,0-0.4,6.3,0.3,11.6c0,0,1.3,0.4,1.6,0.4h7c0,0,0.9-0.2,1.1-0.7c0,0,1.1-4.4,1.1-5.8
					C406.7,172.7,406.8,164.9,406.6,164.6z"/>
				<path class="st38" d="M403.1,150.6v-2.4c0,0-0.2-0.2-0.5-0.3h-2.8c0,0-0.3,0-0.6,0.2v2.5L403.1,150.6z"/>
				<path class="st38" d="M399.2,148.1l-0.2-0.5l-3-0.1c0,0-0.2-0.4,0.1-0.6l3.8-3.2h7.6l0,0.3l0.3,0l0,0.9h-0.4v0.5l-1.9,0
					c0,0,0,1.7,1.9,4.8c0,0,0,0.4-0.6,0c0,0-1.4-1.9-1.9-3.4H404v0.7h-0.6l-0.3,0.7c0,0-0.4-0.2-0.5-0.3h-2.8
					C399.8,148,399.4,148,399.2,148.1z"/>
				<path class="st38" d="M405.9,146.7c0,0,0.7,2.2,1.7,3.5c0,0,0,0.4-0.5,0.1c-0.5-0.3-0.1-0.1-0.1-0.1s-1.3-1.7-1.9-3.4
					L405.9,146.7z"/>
			</g>
			<rect x="398.2" y="166.2" class="st38" width="6" height="8.1"/>
			<g>
				<rect x="399.2" y="167.2" class="st38" width="4" height="0.4"/>
			</g>
			<g>
				<rect x="399.2" y="168.6" class="st38" width="4" height="0.4"/>
			</g>
			<g>
				<rect x="399.2" y="170.1" class="st38" width="4" height="0.4"/>
			</g>
			<g>
				<rect x="399.2" y="171.5" class="st38" width="4" height="0.4"/>
			</g>
			<g>
				<rect x="399.2" y="172.9" class="st38" width="4" height="0.4"/>
			</g>
		</g>
		<g>
			<path class="st38" d="M424.7,92.1l1.4-0.4c0.2-0.1,0.3-0.3,0.2-0.4l-0.4-1.5c-0.1-0.2-0.3-0.3-0.5-0.2L424,90
				c-0.2-0.4-0.4-0.8-0.7-1.1l0.9-1.2c0.1-0.2,0.1-0.4-0.1-0.5l-1.2-0.9c-0.2-0.1-0.3-0.1-0.5,0.1l-0.9,1.2c-0.3-0.1-0.6-0.3-1-0.3
				l0.1-1.5c0-0.2-0.1-0.4-0.3-0.4l-1.6,0c-0.2,0-0.3,0.1-0.4,0.3l-0.1,1.5c-0.3,0-0.7,0.1-1,0.2l-0.8-1.3c-0.1-0.1-0.3-0.2-0.5-0.1
				l-1.3,0.8c-0.2,0.1-0.2,0.3-0.1,0.5l0.8,1.3c-0.2,0.2-0.5,0.5-0.7,0.8l-1.4-0.6c-0.2,0-0.4,0-0.5,0.2l-0.6,1.4
				c-0.1,0.2,0,0.4,0.2,0.4l1.4,0.6c-0.1,0.1-0.1,0.2-0.1,0.3c0,0.3,0,0.5,0,0.7l-1.5,0.3c-0.2,0-0.3,0.2-0.3,0.4l0.3,1.5
				c0,0.2,0.2,0.3,0.4,0.3l1.4-0.3c0.1,0.3,0.3,0.6,0.5,0.9l-1,1.1c-0.1,0.2-0.1,0.3,0,0.5l1.1,1c0.2,0.1,0.4,0.1,0.5,0l1-1.1
				c0.3,0.2,0.6,0.3,0.9,0.4l-0.2,1.5c0,0.2,0.1,0.4,0.3,0.4l1.5,0.2c0.2,0,0.3-0.1,0.4-0.3l0.2-1.5c0.5,0,0.9-0.1,1.3-0.3l0.7,1.3
				c0.1,0.2,0.3,0.2,0.4,0.1l1.4-0.7c0.2-0.1,0.2-0.3,0.1-0.5l-0.7-1.4c0.3-0.3,0.6-0.6,0.8-0.9L425,96c0.2,0.1,0.4,0,0.4-0.2
				l0.6-1.5c0.1-0.2,0-0.4-0.2-0.4l-1.3-0.6l0-0.2C424.7,92.8,424.7,92.4,424.7,92.1z M418.9,94.7c-1.3-0.2-2.1-1.3-2-2.6
				c0.2-1.3,1.3-2.2,2.6-2c1.3,0.2,2.2,1.3,2,2.6C421.4,94,420.2,94.9,418.9,94.7z"/>
			<path class="st38" d="M414.1,99.8l-1.6,0.5c-0.2-0.5-0.5-0.9-0.9-1.3l1.1-1.5c0.2-0.2,0.1-0.5-0.1-0.6l-1.5-1.2
				c-0.2-0.2-0.4-0.1-0.6,0.1l-1.1,1.5c-0.4-0.2-0.8-0.3-1.2-0.4l0.1-1.9c0-0.2-0.2-0.5-0.4-0.5l-1.9-0.1c-0.2-0.1-0.4,0.1-0.4,0.4
				l-0.1,1.9c-0.4,0-0.8,0.1-1.2,0.3l-1-1.6c-0.1-0.1-0.4-0.2-0.6-0.1l-1.6,1c-0.2,0.1-0.3,0.4-0.2,0.6l1,1.6
				c-0.3,0.3-0.6,0.6-0.8,1l-1.7-0.7c-0.2-0.1-0.5,0-0.6,0.2l-0.7,1.8c-0.1,0.3,0,0.5,0.2,0.6l1.8,0.7c-0.1,0.1-0.1,0.3-0.1,0.4
				c0,0.3-0.1,0.6,0,0.9l-1.8,0.4c-0.2,0.1-0.4,0.3-0.4,0.5l0.4,1.9c0.1,0.2,0.3,0.4,0.6,0.3l1.8-0.4c0.2,0.4,0.4,0.8,0.7,1.2
				l-1.2,1.3c-0.2,0.2-0.2,0.4,0,0.6l1.4,1.3c0.2,0.2,0.5,0.2,0.6,0l1.3-1.4c0.3,0.3,0.7,0.4,1.1,0.5l-0.3,1.9
				c0,0.2,0.2,0.4,0.4,0.5l1.9,0.3c0.3,0,0.4-0.1,0.5-0.4l0.3-1.8c0.6,0,1.1-0.2,1.7-0.4l0.8,1.6c0.1,0.2,0.3,0.3,0.5,0.1l1.7-0.9
				c0.2-0.1,0.3-0.4,0.2-0.6l-0.9-1.7c0.4-0.4,0.7-0.7,1-1.2l1.6,0.7c0.2,0.1,0.5,0,0.5-0.2l0.8-1.8c0.1-0.2,0-0.5-0.2-0.5l-1.6-0.7
				l0.1-0.2c0.1-0.4,0.1-0.9,0.1-1.3l1.7-0.5c0.2-0.1,0.3-0.3,0.3-0.5l-0.5-1.9C414.5,99.8,414.3,99.7,414.1,99.8z M409.3,103.7
				c-0.2,1.6-1.7,2.7-3.2,2.5c-1.6-0.2-2.7-1.7-2.5-3.2c0.2-1.6,1.7-2.7,3.2-2.5C408.4,100.7,409.5,102.2,409.3,103.7z"/>
		</g>
		<path class="st38" d="M416.7,178.1c0-0.9,0-19.2,0-21.1c0-0.8,0.4-1.6,0.7-1.9c0.3-0.2,0.6-0.3,1.1-0.5c0-0.4,0.2-2.8,0.3-3.2
			c0-0.4,0.2-0.8,0.6-0.8c0.2,0,0.5,0,0.8,0c0-0.7,0-2.1,0-2.2c0-0.1-0.3-0.1-0.4-0.2c0-0.1-0.1-1.6-0.1-2.1c0-0.4,0.1-0.5-0.3-0.6
			c-0.3-0.1-2.1-0.1-2.7-0.2c-0.4,0-0.3-0.1-0.3-0.2c0-0.1,0-0.5,0-0.7c0-0.2,0.2-0.1,0.6-0.1c0.4,0,2.3,0.1,2.4,0.1
			c0.2,0,0.1-0.2,0.3-0.3c0.2-0.1,0.7-0.2,1.7-0.2c0.8,0,1.5,0.1,1.8,0.2c0.3,0.1,0.2,0.5,0.2,1c0,0.7-0.2,2.9-0.2,2.9l-0.3,0.2
			l0.1,2.1c0.3,0,0.6,0,0.9,0c0.4,0,0.6,0.3,0.6,0.8c0,0.4,0.3,2.8,0.3,3.2c0.5,0.2,0.7,0.3,1.1,0.5c0.4,0.2,0.7,1.1,0.7,1.9
			c0,0.8,0.4,20.2,0.3,21.1c-0.1,1-0.3,1.5-1.6,1.8c-0.8,0.2-2.6,0.2-3.4,0.2c-0.9,0-2.3,0-3.6-0.1
			C417.2,179.8,416.7,179.2,416.7,178.1z"/>
		<line class="st41" x1="206.4" y1="154.2" x2="300" y2="154.2"/>
		<path class="st38" d="M281.4,131.4v20.8c0,0.7,0.5,1.2,1.2,1.2h8.6c0.7,0,1.2-0.5,1.2-1.2v-20.8c0-0.7-0.5-1.2-1.2-1.2h-0.5
			l-1.5-2.2c-0.1-0.2-0.3-0.3-0.5-0.3h-1.2v-0.6c0.3,0,0.6-0.3,0.6-0.6v-1.8c0-0.3-0.3-0.6-0.6-0.6h-1.2c-0.3,0-0.6,0.3-0.6,0.6v1.8
			c0,0.3,0.3,0.6,0.6,0.6v0.6h-1.2c-0.2,0-0.4,0.1-0.5,0.3l-1.5,2.2h-0.4C281.9,130.2,281.4,130.7,281.4,131.4z M289.2,130.2h-4.7
			l0.8-1.2h1.6l0,0l0,0h1.5L289.2,130.2z"/>
		<path class="st38" d="M266,132.5c0-0.6,0.2-0.9,0.8-1c0.3-0.1,1.1-0.2,1.9-0.3c0-0.5,0-1.5,0-1.9c0-0.3,0.1-0.3,0.3-0.4
			c0.1,0,0.5-0.2,0.5-0.2c0-0.1,0-0.4,0.1-0.5c0.1-0.1,0.2-0.1,0.4-0.1c-0.3,0-0.9-0.4-0.9-0.7c-0.1-0.3,0-0.6,0.3-0.9
			c0.2-0.2,0.5-0.3,1.2-0.4c0.5,0,1,0,1.4,0.1c0.4,0.1,0.5,0.3,0.7,0.3c0.1,0,0.8-0.2,1.5-0.1c0.5,0,1,0.1,1.1,0.2
			c0.1,0,0.2,0.1,0.2,0.1c0,0-0.1,0.3-0.2,0.4c0,0.1-0.1,0.2-0.2,0.2c-0.1,0-0.7-0.1-1.1-0.1c-0.4,0-1.2,0.2-1.3,0.3
			c-0.1,0.2-0.2,0.3-0.4,0.5c-0.2,0.1-0.4,0.2-0.5,0.2c0.1,0.1,0.3,0.1,0.3,0.2c0.1,0.1,0,0.4,0.1,0.5c0.2,0.1,0.4,0.2,0.6,0.3
			c0.2,0.1,0.2,0.2,0.2,0.4c0,0.1,0,1.2,0,1.8c0.9,0.1,1.7,0.3,2,0.4c0.4,0.1,0.6,0.4,0.6,0.9c0,0.5,0.1,19.4,0,19.9
			c-0.1,0.5-0.2,0.7-0.7,0.8c-0.5,0.1-1.8,0.5-4.1,0.4c-2.3,0-3.7-0.3-4.2-0.4c-0.4-0.2-0.5-0.1-0.6-1.3
			C265.9,150.9,266,133.1,266,132.5z"/>
		<polygon class="st42" points="217.3,148.6 214.7,144.1 217.3,139.6 222.5,139.6 225.1,144.1 222.5,148.6 		"/>
		<polygon class="st42" points="231.7,148.6 229.1,144.1 231.7,139.6 236.9,139.6 239.4,144.1 236.9,148.6 		"/>
		<polygon class="st42" points="246.1,148.6 243.5,144.1 246.1,139.6 251.2,139.6 253.8,144.1 251.2,148.6 		"/>
		<polygon class="st42" points="217.3,135.3 214.7,130.8 217.3,126.3 222.5,126.3 225.1,130.8 222.5,135.3 		"/>
		<polygon class="st42" points="231.7,135.3 229.1,130.8 231.7,126.3 236.9,126.3 239.4,130.8 236.9,135.3 		"/>
		<polygon class="st42" points="246.1,135.3 243.5,130.8 246.1,126.3 251.2,126.3 253.8,130.8 251.2,135.3 		"/>
	</g>
	<g>
		<path class="st9" d="M93.7,135.1c-14.2-8.2-19-26.5-10.8-40.7c2.7-4.6,6.5-8.3,10.8-10.8c0.1-0.1,0.2-0.1,0.3-0.2
			c0.1,0,0.1-0.1,0.2-0.1c14.1-7.7,31.9-2.7,40,11.2c8,13.8,3.6,31.4-9.7,40C115.5,140.3,103.6,140.9,93.7,135.1L93.7,135.1z"/>
		<g>
			<defs>
				<rect id="SVGID_14_" x="65.2" y="69.7" width="86.7" height="101.7"/>
			</defs>
			<clipPath id="SVGID_15_">
				<use xlink:href="#SVGID_14_"  style="overflow:visible;"/>
			</clipPath>
			<path class="st43" d="M65.6,155.9c-0.9,1.6-0.2,2.9,1.7,3l9,0.4c1.8,0.1,4.1,1.4,5.1,3l4.8,7.6c1,1.6,2.5,1.5,3.4-0.1
				c0,0,13.4-23,13.4-23c0.2-0.5,0.5-0.2,0.6-0.1c1.5,1.3,3.1,2.5,4.7,2.5c1.7,0,3.7-1.2,5.2-2.5c0.1-0.1,0.4-0.2,0.7,0.1
				c0,0,13.4,23.1,13.4,23.1c0.9,1.6,2.5,1.6,3.4,0.1l4.8-7.6c1-1.5,3.3-2.9,5.1-3l9-0.4c1.8-0.1,2.6-1.4,1.7-3
				c0,0-11.5-19.9-13-22.4c-0.3-0.5,0.1-0.7,0.4-0.8c2.1-0.6,4.2-1.3,5.1-2.9c1.7-2.9-1.3-7.7-0.5-10.9c0.8-3.2,5.6-6,5.6-9.3
				c0-3.6-5-6.8-5.8-10c-0.8-3.1,2.2-7.9,0.5-10.9c-1.7-2.9-7.4-2.7-9.7-4.9c-2.4-2.3-2.4-8-5.3-9.5c-2.9-1.6-7.6,1.6-10.9,0.8
				c-0.8-0.2-6.2-5.6-9.6-5.6c-3.3,0-6.2,4.8-9.4,5.5c-3.2,0.7-7.9-2.4-10.8-0.8c-2.9,1.5-2.9,7.2-5.3,9.5c-2.3,2.2-8,2-9.7,4.9
				c-1.7,2.9,1.3,7.7,0.5,10.9c-0.8,3.2-5.8,6.9-5.8,10.1c0,3.3,4.8,6.1,5.6,9.3c0.8,3.1-2.2,7.9-0.5,10.9c1,1.8,3.5,2.4,5.8,3.1
				C76.8,136.5,65.6,155.9,65.6,155.9L65.6,155.9z M93.7,135.1c-14.2-8.2-19-26.5-10.8-40.7c2.7-4.6,6.5-8.3,10.8-10.8
				c0.1-0.1,0.2-0.1,0.3-0.2c0.1,0,0.1-0.1,0.2-0.1c14.1-7.7,31.9-2.7,40,11.2c8,13.8,3.6,31.4-9.7,40
				C115.5,140.3,103.6,140.9,93.7,135.1L93.7,135.1z M93.7,135.1"/>
		</g>
		<path d="M95.9,87.8c-11.9,6.9-16,22.3-9.1,34.2c6.9,11.9,22.3,16,34.2,9.1c0.3-0.2,0.6-0.3,0.9-0.5c3.3-2.1,6.2-5,8.4-8.6
			c6.9-11.9,2.9-27.3-9-34.2c-8-4.7-17.6-4.4-25.2,0C96,87.8,96,87.8,95.9,87.8L95.9,87.8z M92.9,107.4c-1.3-1.3-0.9-2.5,0.9-2.8
			l5.8-0.8c1.8-0.3,3.9-1.8,4.7-3.4l2.6-5.2c0.8-1.6,2.1-1.6,2.9,0l2.6,5.2c0.8,1.6,2.9,3.2,4.7,3.4l5.8,0.8
			c1.8,0.3,2.2,1.5,0.9,2.8l-4.2,4.1c-1.3,1.3-2.1,3.8-1.8,5.5l1,5.8c0.3,1.8-0.8,2.6-2.4,1.7l-5.2-2.7c-1.6-0.8-4.2-0.8-5.8,0
			l-5.2,2.7c-1.6,0.8-2.7,0.1-2.4-1.7l1-5.8c0.3-1.8-0.5-4.3-1.8-5.5L92.9,107.4L92.9,107.4z M95.9,87.8c-11.9,6.9-16,22.3-9.1,34.2
			c6.9,11.9,22.3,16,34.2,9.1c0.3-0.2,0.6-0.3,0.9-0.5c3.3-2.1,6.2-5,8.4-8.6c6.9-11.9,2.9-27.3-9-34.2c-8-4.7-17.6-4.4-25.2,0
			C96,87.8,95.9,87.8,95.9,87.8L95.9,87.8z M96.6,106.8c-1-1-0.7-2,0.7-2.2l4.6-0.7c1.4-0.2,3.1-1.4,3.7-2.7l2.1-4.2
			c0.6-1.3,1.7-1.3,2.3,0l2.1,4.2c0.6,1.3,2.3,2.5,3.7,2.7l4.6,0.7c1.4,0.2,1.7,1.2,0.7,2.2l-3.3,3.2c-1,1-1.7,3-1.4,4.4l0.8,4.6
			c0.2,1.4-0.6,2-1.9,1.4l-4.1-2.2c-1.3-0.7-3.4-0.7-4.6,0l-4.1,2.2c-1.3,0.7-2.1,0.1-1.9-1.4l0.8-4.6c0.2-1.4-0.4-3.4-1.4-4.4
			L96.6,106.8L96.6,106.8z M92.9,107.4"/>
		<path class="st9" d="M96.6,106.8c-1-1-0.7-2,0.7-2.2l4.6-0.7c1.4-0.2,3.1-1.4,3.7-2.7l2.1-4.2c0.6-1.3,1.7-1.3,2.3,0l2.1,4.2
			c0.6,1.3,2.3,2.5,3.7,2.7l4.6,0.7c1.4,0.2,1.7,1.2,0.7,2.2l-3.3,3.2c-1,1-1.7,3-1.4,4.4l0.8,4.6c0.2,1.4-0.6,2-1.9,1.4l-4.1-2.2
			c-1.3-0.7-3.4-0.7-4.6,0l-4.1,2.2c-1.3,0.7-2.1,0.1-1.9-1.4l0.8-4.6c0.2-1.4-0.4-3.4-1.4-4.4L96.6,106.8L96.6,106.8z"/>
	</g>
</g>
</svg>
