<?xml version="1.0" encoding="utf-8"?>
<!-- Generator: Adobe Illustrator 19.2.1, SVG Export Plug-In . SVG Version: 6.00 Build 0)  -->
<svg version="1.1" id="Layer_1" xmlns="http://www.w3.org/2000/svg" xmlns:xlink="http://www.w3.org/1999/xlink" x="0px" y="0px"
	 viewBox="0 0 150.9 173.7" style="enable-background:new 0 0 150.9 173.7;" xml:space="preserve">
<style type="text/css">
	.st0{fill:#FFFFFF;}
</style>
<g>
	<path class="st0" d="M68,129.4c0.1,0.6,0.3,1.2,0.3,1.9c0.1,0.9,0.1,1.8,0,2.7c0,0.7-0.1,1.3-0.2,2c-0.1,0.5-0.1,1-0.2,1.5
		c-0.2,1.7-0.3,3.4,0.4,4.9c0.3,0.7,0.8,1.3,1.4,1.6c0.6,0.3,1.2,0.4,1.9,0.3c0.6-0.1,1.1-0.4,1.5-0.9c0.4-0.5,0.7-1.1,1-1.7
		c0.2-0.4,0.3-0.9,0.4-1.4c0.3-1.7,0.1-3.5-0.5-5.1C72.1,130.5,68,129.4,68,129.4z"/>
	<path class="st0" d="M78.9,79.1c-6.4,0-9,6.5-9,11.8v10.2c2.6,1,5.1,1.5,7.4,1.5c6.7,0,11.1-3.8,11.2-11.7
		C88.7,83.8,85.1,79.1,78.9,79.1z"/>
	<path class="st0" d="M127.3,93.6c-1.9-1.8-4.2-3.4-5.7-5.6c-3-4.3-1-9.4-0.3-14.1c0.5-3.2,1.1-6.3,1-9.6c-0.1-9.2-5.9-14.4-13.3-17
		c-3.4-1.2-6.6-1.5-10-3c-4-1.7-5.4-6-7.6-9.5c-0.9-1.5-2.2-3.1-3.6-4c-3.1-2-7.1-2-10.6-0.2c-4.3,2.3-7.1,5-11.2,7.4
		c-2.3,1.4-5.1,2.2-7.8,2.5c-2.8,0.3-5.6,0-8.4-0.3c-2.2-0.2-4.4-0.4-6.7-0.3c-2.7,0.1-5.8,0.7-7.6,2.8c-0.5,0.6-0.9,1.2-1.2,1.9
		c-1.4,3.4-0.1,7.3,0.5,10.7c0.2,1.1,0.4,2.1,0.5,3.2c0.3,2.4,0.2,4.9-0.6,7.2c-0.2,0.6-0.5,1.3-0.8,1.9c-0.8,1.6-1.9,3-3.2,4.3
		c-1.9,1.8-4.1,3.1-6,4.8c-0.5,0.5-1,1-1.5,1.5c-1,1.2-1.9,2.6-2.5,4c-1.3,3.2-0.7,6.8,1.2,9.7c1.7,2.6,4.6,3.9,6.6,6.1
		c2.1,2.3,2.8,5.6,3,8.7c0.2,2.1,0.2,4.3,0.2,6.4c0,0.9,0,1.8,0,2.8c0.1,1,0,2,0.6,2.9c0.5,0.8,1.3,1.4,2.3,1.4c0.5,0,1.1,0,1.6-0.2
		c0.4-0.2,0.9-0.4,1.2-0.7c1.2-1,1.5-2.6,1.7-4.1c0.1-0.5,0.1-1,0.2-1.4c0.2-1.2,0.4-2.6,1.3-3.4c0.4-0.4,1.2-0.8,1.8-0.8
		c0.7,0,1.5,0.3,2,0.7c1.1,0.9,1.2,2.4,1.3,3.7c0.2,1.7,0.3,3.5,0.3,5.2c0,1,0.1,2,0.1,3c0.1,1,0.1,2,0.2,3c0.1,1.2,0.2,2.5,0.5,3.6
		c0.3,0.7,0.7,1.4,1.3,1.9c0.7,0.5,2,1,2.9,1c3.4,0,4.5-3,5.6-5.4c1-2.1,2.9-4.1,5-5c4.5-1.9,9.6-1.1,12.8,2.7
		c1.9,2.3,2.7,5.1,3.8,7.8c1,2.5,2.3,5.6,4.6,7.3c1.6,1.1,3.9,1.6,5.7,1.1c1.2-0.3,2.4-1,3.2-1.8c2.2-2.2,3.1-5.4,4.3-8.2
		c0.3-0.7,0.5-1.4,0.8-2.1c1.6-3,5-4.9,8.4-4.1c2.3,0.6,4.1,2.2,6.4,2.7c2.5,0.5,5-0.8,5.9-3.2c0.9-2.2,0.6-5,0.5-7.4
		c-0.1-2.4,0.2-4.1,1.9-5.9c1.8-2,4.6-1.5,6.7-2.8C132.4,104.5,131.4,97.6,127.3,93.6z M76.6,109.3c-5.1,0-9.9-1.3-14.5-3.3V55.1
		h7.4V79c2.6-4.3,6.1-6.6,11.6-6.6c7.9,0,15.8,5.8,15.6,18.6C96.3,103.9,87.5,109.5,76.6,109.3z"/>
</g>
</svg>
