<?xml version="1.0" encoding="UTF-8" standalone="no"?>
<svg width="32px" height="32px" viewBox="0 0 32 32" version="1.1" xmlns="http://www.w3.org/2000/svg" xmlns:xlink="http://www.w3.org/1999/xlink">
    <!-- Generator: Sketch 40.3 (33839) - http://www.bohemiancoding.com/sketch -->
    <title>Android_footer</title>
    <desc>Created with Sketch.</desc>
    <defs></defs>
    <g id="Page-1" stroke="none" stroke-width="1" fill="none" fill-rule="evenodd">
        <g id="AddCar" transform="translate(-742.000000, -737.000000)" fill="#FFFFFF">
            <g id="footer" transform="translate(0.000000, 693.000000)">
                <g id="Group-39">
                    <g transform="translate(211.000000, 44.000000)">
                        <g id="Group-35" transform="translate(418.000000, 0.000000)">
                            <g id="Group-62">
                                <g id="ic_android_black_24px-2" transform="translate(113.000000, 0.000000)">
                                    <g id="Android_footer">
                                        <rect id="Rectangle-24" opacity="0.05" x="0" y="0" width="32" height="32" rx="4"></rect>
                                        <path d="M11.3333333,21 C11.3333333,21.4583333 11.7083333,21.8333333 12.1666667,21.8333333 L13,21.8333333 L13,24.75 C13,25.4416667 13.5583333,26 14.25,26 C14.9416667,26 15.5,25.4416667 15.5,24.75 L15.5,21.8333333 L17.1666667,21.8333333 L17.1666667,24.75 C17.1666667,25.4416667 17.725,26 18.4166667,26 C19.1083333,26 19.6666667,25.4416667 19.6666667,24.75 L19.6666667,21.8333333 L20.5,21.8333333 C20.9583333,21.8333333 21.3333333,21.4583333 21.3333333,21 L21.3333333,12.6666667 L11.3333333,12.6666667 L11.3333333,21 L11.3333333,21 Z M9.25,12.6666667 C8.55833333,12.6666667 8,13.225 8,13.9166667 L8,19.75 C8,20.4416667 8.55833333,21 9.25,21 C9.94166667,21 10.5,20.4416667 10.5,19.75 L10.5,13.9166667 C10.5,13.225 9.94166667,12.6666667 9.25,12.6666667 L9.25,12.6666667 Z M23.4166667,12.6666667 C22.725,12.6666667 22.1666667,13.225 22.1666667,13.9166667 L22.1666667,19.75 C22.1666667,20.4416667 22.725,21 23.4166667,21 C24.1083333,21 24.6666667,20.4416667 24.6666667,19.75 L24.6666667,13.9166667 C24.6666667,13.225 24.1083333,12.6666667 23.4166667,12.6666667 L23.4166667,12.6666667 Z M19.275,7.8 L20.3583333,6.71666667 C20.525,6.55 20.525,6.29166667 20.3583333,6.125 C20.1916667,5.95833333 19.9333333,5.95833333 19.7666667,6.125 L18.5333333,7.35833333 C17.875,7.025 17.125,6.83333333 16.3333333,6.83333333 C15.5333333,6.83333333 14.7833333,7.025 14.1166667,7.35833333 L12.875,6.125 C12.7083333,5.95833333 12.45,5.95833333 12.2833333,6.125 C12.1166667,6.29166667 12.1166667,6.55 12.2833333,6.71666667 L13.375,7.80833333 C12.1416667,8.71666667 11.3333333,10.175 11.3333333,11.8333333 L21.3333333,11.8333333 C21.3333333,10.175 20.525,8.70833333 19.275,7.8 L19.275,7.8 Z M14.6666667,10.1666667 L13.8333333,10.1666667 L13.8333333,9.33333333 L14.6666667,9.33333333 L14.6666667,10.1666667 L14.6666667,10.1666667 Z M18.8333333,10.1666667 L18,10.1666667 L18,9.33333333 L18.8333333,9.33333333 L18.8333333,10.1666667 L18.8333333,10.1666667 Z" id="Shape"></path>
                                    </g>
                                </g>
                            </g>
                        </g>
                    </g>
                </g>
            </g>
        </g>
    </g>
</svg>