<?xml version="1.0" encoding="UTF-8" standalone="no"?>
<svg width="22px" height="22px" viewBox="0 0 22 22" version="1.1" xmlns="http://www.w3.org/2000/svg" xmlns:xlink="http://www.w3.org/1999/xlink">
    <!-- Generator: Sketch 41.1 (35376) - http://www.bohemiancoding.com/sketch -->
    <title>appstore_logo</title>
    <desc>Created with Sketch.</desc>
    <defs></defs>
    <g id="Page-1" stroke="none" stroke-width="1" fill="none" fill-rule="evenodd">
        <g id="UserStories-Copy-3" transform="translate(-147.000000, -1891.000000)">
            <g id="Group-11" transform="translate(148.000000, 980.000000)">
                <g id="Group-8" transform="translate(0.000000, 680.000000)">
                    <g id="title_IOS" transform="translate(0.000000, 232.000000)">
                        <g id="appstore_logo">
                            <rect id="Rectangle" stroke-opacity="0.192595109" stroke="#979797" fill="#FFFFFF" x="0" y="0" width="20" height="20" rx="2"></rect>
                            <path d="M9.93045957,7.17895164 C10.0367062,6.98907065 9.97279302,6.74653098 9.78662911,6.63656727 L8.76773533,6.04534455 C8.58157142,5.93631012 8.34006427,6.00208184 8.23381765,6.19103356 L6.6725395,8.94704416 L4.95142679,11.982249 L3.51518718,14.5164736 C3.40801129,14.7054254 3.47285374,14.9488943 3.65901765,15.0560702 L4.67791142,15.6491515 C4.86407533,15.7581859 5.10465321,15.6924142 5.21275838,15.5043917 L7.20831573,11.982249 L8.49793705,9.70656813 C8.49793705,9.70656813 9.93045957,7.17895164 9.93045957,7.17895164 Z M9.12013546,10.4707385 L7.55317844,13.2963411 L13.0839916,13.2963411 L11.673978,10.4707385 C11.6740813,10.4707385 9.12013546,10.4707385 9.12013546,10.4707385 Z M4.61203645,10.4707385 L2.48018605,10.4707385 C1.9613432,10.4707385 1.54017704,10.8928339 1.54017704,11.412606 L1.54017704,12.3554028 C1.54017704,12.875175 1.96123995,13.2963411 2.48018605,13.2963411 L2.92014413,13.2963411 C2.92004088,13.2963411 4.61203645,10.4707385 4.61203645,10.4707385 Z M4.34316744,16.1040811 L3.32520294,15.5119291 C3.13903903,15.403824 2.96702068,15.4931372 2.94172387,15.7084183 L2.76505917,17.2612297 C2.74058837,17.4774401 2.86562692,17.5553956 3.04425341,17.4332481 L4.3592748,16.5252473 C4.53779804,16.4020673 4.53118989,16.2121863 4.34316744,16.1040811 Z M15.4660223,12.0207621 L15.4453718,11.982249 L14.8024197,10.7442538 L14.7902359,10.7226741 L14.7178561,10.5816314 L14.6633389,10.4792052 L14.6172883,10.3889626 L14.5327247,10.2272695 L14.5063953,10.1775019 L14.410474,9.99237052 L14.3822861,9.9378533 C13.6641663,8.56449436 12.7626704,6.87167277 12.207173,5.9824639 C11.2343297,4.42304429 9.93427991,1.82583574 9.5714513,2.00921184 C9.06293368,2.26579383 10.6364989,5.5641888 11.1572002,6.80404251 C11.6779016,8.04296695 13.7102168,12.7936056 14.1172374,13.00042 C14.524258,13.2072344 14.68306,13.0925211 14.9547169,12.9788403 C15.228129,12.8629912 15.7150669,12.4822999 15.4660223,12.0207621 Z M17.5198139,10.4707385 L15.5167192,10.4707385 L17.1287975,13.2963411 L17.5198139,13.2963411 C18.0395861,13.2963411 18.459823,12.8752782 18.459823,12.3554028 L18.459823,11.412606 C18.459823,10.8928339 18.0396893,10.4707385 17.5198139,10.4707385 Z M16.6278173,14.4693906 L16.1427379,13.5256645 C16.0327742,13.312242 15.7742304,13.2248905 15.5684486,13.3320664 L14.9837308,13.6366607 C14.7778457,13.7438366 14.7130032,13.9976308 14.8399003,14.2015541 L15.4537353,15.1837933 C15.5806324,15.3867873 15.8475396,15.4535916 16.0468165,15.3304116 L16.4641624,15.0766174 C16.6635426,14.9563285 16.7368517,14.6818838 16.6278173,14.4693906 Z M16.4783079,15.8333536 C16.3260108,15.9827597 15.9631822,16.3042873 16.402211,16.9303061 C16.8402073,17.5563248 17.8196587,17.5845127 17.9494468,18 C17.9485175,18 18.2557964,14.8191062 16.4783079,15.8333536 Z" id="Shape" fill="#26A6D1"></path>
                        </g>
                    </g>
                </g>
            </g>
        </g>
    </g>
</svg>