<?xml version="1.0" encoding="UTF-8" standalone="no"?>
<svg width="32px" height="32px" viewBox="0 0 32 32" version="1.1" xmlns="http://www.w3.org/2000/svg" xmlns:xlink="http://www.w3.org/1999/xlink">
    <!-- Generator: Sketch 40.3 (33839) - http://www.bohemiancoding.com/sketch -->
    <title>AppStore_footer</title>
    <desc>Created with Sketch.</desc>
    <defs></defs>
    <g id="Page-1" stroke="none" stroke-width="1" fill="none" fill-rule="evenodd">
        <g id="Home_BUMPER" transform="translate(-780.000000, -4827.000000)" fill="#FFFFFF">
            <g id="Group-69" transform="translate(-2.000000, 4783.000000)">
                <g id="footer">
                    <g id="Group-39" transform="translate(211.000000, 44.000000)">
                        <g id="Group-35" transform="translate(418.000000, 0.000000)">
                            <g id="Group-62">
                                <g id="ic_android_black_24px-2" transform="translate(113.000000, 0.000000)">
                                    <g id="Group-64" transform="translate(40.000000, 0.000000)">
                                        <g id="AppStore_footer">
                                            <rect id="Rectangle-24" opacity="0.05" x="0" y="0" width="32" height="32" rx="4"></rect>
                                            <path d="M5,18.1072404 L5,15.1284599 C5,14.8555331 5.22414634,14.6323624 5.49878049,14.6323624 L10.762439,14.6323624 L8.47073171,18.6038258 L5.49878049,18.6038258 C5.22414634,18.6038258 5,18.3811429 5,18.1072404 L5,18.1072404 Z M8.7495122,24.2067526 L7.0697561,25.3448014 C6.84365854,25.4984599 6.68390244,25.4011429 6.71512195,25.1299233 L6.93926829,23.1826063 C6.9704878,22.9113868 7.1904878,22.800655 7.42829268,22.9362648 L8.72829268,23.6789477 C8.96585366,23.8150453 8.97560976,24.0535819 8.7495122,24.2067526 L8.7495122,24.2067526 Z M9.15292683,23.1091916 L7.85292683,22.3662648 C7.61512195,22.2304111 7.53146341,21.9260209 7.6697561,21.6891916 L13.6895122,11.2540697 C13.8260976,11.0169965 14.1339024,10.9338258 14.3714634,11.0713868 L15.6714634,11.8123624 C15.9092683,11.9499233 15.9909756,12.2545575 15.8546341,12.490899 L9.83487805,22.9267526 C9.69853659,23.163338 9.3904878,23.2445575 9.15292683,23.1091916 L9.15292683,23.1091916 Z M13.7343902,18.6038258 L16.0260976,14.6323624 L17.3456098,14.6323624 L19.2065854,18.6038258 L13.7343902,18.6038258 L13.7343902,18.6038258 Z M21.1982927,19.7889477 C20.6780488,19.5291916 18.0860976,13.5752892 17.4217073,12.0218746 C16.7570732,10.4684599 14.7497561,6.33333798 15.3990244,6.01163066 C15.8609756,5.78089895 17.5192683,9.03699651 18.762439,10.9918746 C20.0039024,12.9467526 22.5997561,17.9872404 22.9192683,18.5611429 C23.2370732,19.1367526 22.6134146,19.6162648 22.2665854,19.7599233 C21.9195122,19.9035819 21.7185366,20.0467526 21.1982927,19.7889477 L21.1982927,19.7889477 Z M22.9017073,22.5255331 L22.1182927,21.2938258 C21.9565854,21.0377282 22.0404878,20.7213868 22.3034146,20.5862648 L23.0497561,20.2040697 C23.3129268,20.0701672 23.6421951,20.1787038 23.782439,20.4467526 L24.4002439,21.6296794 C24.5407317,21.8972404 24.445122,22.240655 24.1917073,22.3918746 L23.6578049,22.7096794 C23.4043902,22.8628502 23.0634146,22.7794355 22.9017073,22.5255331 L22.9017073,22.5255331 Z M25.7839024,25.7562648 C25.6202439,25.2345575 24.3709756,25.1999233 23.8117073,24.4140697 C23.2504878,23.630899 23.7143902,23.2274843 23.9092683,23.0411429 C26.177561,21.7691916 25.7839024,25.7562648 25.7839024,25.7562648 L25.7839024,25.7562648 Z M26.9512195,18.1072404 C26.9512195,18.3811429 26.7270732,18.6038258 26.452439,18.6038258 L23.817561,18.6038258 C23.7885366,18.450655 23.7414634,18.2974843 23.6617073,18.1538258 C23.5934146,18.0316307 23.42,17.7021185 23.1782927,17.2426063 C22.8295122,16.5794355 22.3287805,15.6311429 21.7926829,14.6323624 L26.4521951,14.6323624 C26.7268293,14.6323624 26.9509756,14.8555331 26.9509756,15.1284599 L26.9509756,18.1072404 L26.9512195,18.1072404 Z" id="Shape"></path>
                                        </g>
                                    </g>
                                </g>
                            </g>
                        </g>
                    </g>
                </g>
            </g>
        </g>
    </g>
</svg>