<?xml version="1.0" encoding="UTF-8" standalone="no"?>
<svg width="54px" height="36px" viewBox="0 0 54 36" version="1.1" xmlns="http://www.w3.org/2000/svg" xmlns:xlink="http://www.w3.org/1999/xlink">
    <!-- Generator: Sketch 39.1 (31720) - http://www.bohemiancoding.com/sketch -->
    <title>BestQuality</title>
    <desc>Created with Sketch.</desc>
    <defs></defs>
    <g id="Page-1" stroke="none" stroke-width="1" fill="none" fill-rule="evenodd">
        <g id="Home_new" transform="translate(-408.000000, -628.000000)" fill="#A5A5E8">
            <g id="BestQuality" transform="translate(408.000000, 628.000000)">
                <g id="Group">
                    <path d="M29.5858407,10.6460177 L29.2725664,10.6460177 C29.3469027,10.4707965 29.3946903,10.279646 29.3946903,10.0725664 L29.3946903,8.05486726 C29.3946903,7.82654867 29.3415929,7.60884956 29.240708,7.41769912 L29.240708,7.3380531 L29.1982301,7.3380531 C28.9486726,6.9079646 28.4867257,6.62123894 27.9557522,6.62123894 L27.7699115,6.62123894 L27.7699115,5.52212389 L28.3964602,5.52212389 L28.3964602,2.57522124 L28.3699115,2.57522124 C28.3699115,2.43185841 27.6212389,2.32035398 26.7026549,2.32035398 C25.7840708,2.32035398 25.040708,2.43716814 25.040708,2.57522124 L25.040708,3.0159292 L22.3274336,3.0159292 C21.3451327,3.0159292 20.7185841,4.00884956 20.6920354,4.05132743 L21.440708,4.51858407 C21.5469027,4.34867257 21.9238938,3.89734513 22.3327434,3.89734513 L25.0460177,3.89734513 L25.0460177,5.52212389 L25.6725664,5.52212389 L25.6725664,6.62123894 L25.3911504,6.62123894 C24.6,6.62123894 23.9522124,7.26371681 23.9522124,8.06017699 L23.9522124,10.0778761 C23.9522124,10.279646 23.9946903,10.4707965 24.0690265,10.6513274 L23.8513274,10.6513274 C22.640708,10.6513274 21.6477876,11.6442478 21.6477876,12.8548673 L21.6477876,30.2761062 C21.6477876,31.4867257 22.640708,32.479646 23.8513274,32.479646 L29.5858407,32.479646 C30.7964602,32.479646 31.7893805,31.4867257 31.7893805,30.2761062 L31.7893805,12.8495575 C31.7893805,11.6389381 30.7964602,10.6460177 29.5858407,10.6460177 L29.5858407,10.6460177 Z" id="Shape"></path>
                    <path d="M9.99823009,5.63893805 C12.2176991,4.53451327 13.8318584,3.63716814 15.3132743,0.791150442 C15.3345133,0.722123894 15.2867257,0.642477876 15.2123894,0.631858407 C12.9663717,1.38053097 11.4106195,2.4 9.83893805,5.49557522 C9.82300885,5.57522124 9.91858407,5.66017699 9.99823009,5.63893805 L9.99823009,5.63893805 Z" id="Shape"></path>
                    <path d="M7.95929204,6.56814159 C9.63185841,4.74159292 10.8,3.32920354 11.1557522,0.143362832 C11.1557522,0.0902654867 11.1132743,0.0424778761 11.0654867,0.0265486726 C11.060177,0.0265486726 11.0495575,0.0212389381 11.0389381,0.0212389381 C11.0283186,0.0212389381 11.0176991,0.0265486726 11.0070796,0.0318584071 C9.18053097,1.53982301 8.1079646,3.05309735 7.75221239,6.50442478 C7.77345133,6.58938053 7.89026549,6.6159292 7.95929204,6.56814159 L7.95929204,6.56814159 Z" id="Shape"></path>
                    <path d="M5.69734513,10.3327434 C6.72743363,8.07610619 7.41238938,6.35575221 6.7699115,3.21238938 C6.7539823,3.1699115 6.71150442,3.14867257 6.66902655,3.1380531 C6.64247788,3.13274336 6.6159292,3.1380531 6.59469027,3.1539823 C5.32035398,5.15044248 4.75752212,6.91327434 5.48495575,10.3061947 C5.53274336,10.380531 5.64955752,10.3964602 5.69734513,10.3327434 L5.69734513,10.3327434 Z" id="Shape"></path>
                    <path d="M6.98230088,9.28141593 C6.95575221,9.36106195 7.04070796,9.44070796 7.12566372,9.43539823 C9.47787611,8.65486726 11.1982301,8.00176991 13.0672566,5.38938053 C13.099115,5.32566372 13.0513274,5.2300885 12.9823009,5.20353982 C10.6513274,5.62831858 8.96814159,6.44070796 6.98230088,9.28141593 L6.98230088,9.28141593 Z" id="Shape"></path>
                    <path d="M4.30619469,13.0619469 C4.60884956,10.5982301 4.75752212,8.76637168 3.20176991,5.96283186 C3.18053097,5.93628319 3.14867257,5.92035398 3.11150442,5.92035398 C3.07433628,5.92035398 3.04247788,5.93097345 3.02123894,5.96283186 C2.4,8.25132743 2.4,10.1097345 4.10973451,13.1309735 C4.17345133,13.1787611 4.27964602,13.1362832 4.30619469,13.0619469 L4.30619469,13.0619469 Z" id="Shape"></path>
                    <path d="M4.77345133,15.9238938 C7.40176991,13.6513274 8.01769912,11.9150442 8.20353982,9.55221239 C8.18230088,9.50973451 8.14513274,9.48318584 8.10265487,9.47787611 C8.07610619,9.47256637 8.04955752,9.48318584 8.02831858,9.49380531 C5.62300885,11.6176991 5.12920354,13.3911504 4.59292035,15.8070796 C4.59292035,15.8867257 4.69380531,15.9557522 4.77345133,15.9238938 L4.77345133,15.9238938 Z" id="Shape"></path>
                    <path d="M4.40176991,17.5115044 C4.17345133,15.0424779 3.91858407,13.2159292 1.8,10.8 C1.7840708,10.7893805 1.77876106,10.7840708 1.76283186,10.7787611 C1.71504425,10.7681416 1.65132743,10.7787611 1.6300885,10.8212389 C1.51327434,13.1893805 1.90619469,15 4.22123894,17.5858407 C4.28495575,17.6336283 4.39115044,17.5911504 4.40176991,17.5115044 L4.40176991,17.5115044 Z" id="Shape"></path>
                    <path d="M6.50973451,15.1911504 C6.49911504,15.1911504 6.48849558,15.1858407 6.48318584,15.1858407 C6.45663717,15.180531 6.4300885,15.2017699 6.40884956,15.2123894 C5.35752212,17.3362832 4.99646018,19.1522124 6.09026549,22.4495575 C6.1380531,22.5132743 6.26017699,22.5132743 6.30265487,22.4442478 C7.07787611,20.0867257 7.56637168,18.3132743 6.57876106,15.2548673 C6.56283186,15.2283186 6.54690265,15.2017699 6.50973451,15.1911504 L6.50973451,15.1911504 Z" id="Shape"></path>
                    <path d="M4.74690265,20.9787611 C4.82654867,20.9946903 4.90088496,20.9150442 4.88495575,20.8300885 C3.83362832,18.5893805 2.96814159,16.959292 0.159292035,15.4088496 C0.148672566,15.4035398 0.143362832,15.3929204 0.132743363,15.3876106 C0.0743362832,15.3823009 0.0159292035,15.4300885 0,15.4938053 C0.695575221,17.7610619 1.69380531,19.3327434 4.74690265,20.9787611 L4.74690265,20.9787611 Z" id="Shape"></path>
                    <path d="M7.70442478,21.2761062 C7.65663717,21.2761062 7.61946903,21.2920354 7.59823009,21.3292035 C7.3699115,23.6867257 7.67256637,25.5132743 9.87079646,28.2053097 C9.93982301,28.2477876 10.040708,28.2053097 10.0566372,28.1256637 C9.94513274,25.6513274 9.7699115,23.8088496 7.76814159,21.3026549 C7.75221239,21.2814159 7.73097345,21.2761062 7.70442478,21.2761062 L7.70442478,21.2761062 Z" id="Shape"></path>
                    <path d="M7.01415929,25.6619469 C7.09911504,25.6672566 7.16814159,25.5769912 7.14159292,25.4973451 C5.8460177,23.3893805 4.8,21.8654867 1.83716814,20.6389381 C1.76814159,20.6230088 1.69380531,20.6867257 1.68849558,20.7557522 C2.63362832,22.9327434 3.79115044,24.3716814 7.01415929,25.6619469 L7.01415929,25.6619469 Z" id="Shape"></path>
                    <path d="M11.6442478,26.3628319 L11.6336283,26.3628319 C11.5699115,26.3575221 11.4955752,26.4053097 11.4849558,26.4637168 C12.2123894,28.720354 13.2212389,30.2707965 16.300885,31.8743363 C16.380531,31.8902655 16.460177,31.8106195 16.4389381,31.7309735 C15.3610619,29.500885 14.4743363,27.8761062 11.6442478,26.3628319 L11.6442478,26.3628319 Z" id="Shape"></path>
                    <path d="M9.06902655,27.9238938 C7.5079646,26.7769912 6.22300885,25.9061947 4.21061947,25.5716814 C3.64247788,25.4761062 3.03185841,25.4176991 2.32566372,25.4123894 C2.25663717,25.4283186 2.20353982,25.5132743 2.22477876,25.5823009 C3.91858407,27.2336283 5.54867257,28.1469027 9.0159292,28.1256637 C9.10088496,28.1044248 9.12212389,27.9876106 9.06902655,27.9238938 L9.06902655,27.9238938 Z" id="Shape"></path>
                    <path d="M12.5575221,30.5469027 C12.6265487,30.5044248 12.6371681,30.3823009 12.5628319,30.339823 C11.4849558,29.9097345 10.5292035,29.5380531 9.49911504,29.3575221 C8.33097345,29.1557522 7.05132743,29.1769912 5.4,29.5964602 C5.33628319,29.6230088 5.31504425,29.7238938 5.35221239,29.7876106 C7.41238938,30.9663717 9.20176991,31.4389381 12.5575221,30.5469027 L12.5575221,30.5469027 Z" id="Shape"></path>
                    <path d="M15.9238938,32.3469027 C15.100885,32.1185841 14.3522124,31.9221239 13.5982301,31.8053097 C12.159292,31.5823009 10.7044248,31.6566372 8.73451327,32.3893805 C8.67610619,32.4265487 8.64955752,32.5115044 8.6920354,32.5646018 C10.8637168,33.5150442 12.700885,33.8017699 15.939823,32.559292 C16.0035398,32.5061947 15.9929204,32.3787611 15.9238938,32.3469027 L15.9238938,32.3469027 Z" id="Shape"></path>
                    <path d="M16.0884956,34.1681416 C14.8725664,34.1150442 13.9699115,34.1575221 12.4938053,35.6814159 C12.4672566,35.7238938 12.4566372,35.7982301 12.4831858,35.8353982 C13.5982301,36.1646018 14.5115044,36.0159292 16.1044248,34.3433628 C16.1309735,34.2849558 16.1256637,34.1840708 16.0884956,34.1681416 L16.0884956,34.1681416 Z" id="Shape"></path>
                    <path d="M43.359292,5.63893805 C43.4389381,5.66017699 43.5292035,5.58053097 43.5185841,5.50088496 C41.9469027,2.4 40.3964602,1.38053097 38.1451327,0.631858407 C38.0761062,0.642477876 38.0230088,0.722123894 38.0442478,0.791150442 C39.5309735,3.63716814 41.139823,4.53451327 43.359292,5.63893805 L43.359292,5.63893805 Z" id="Shape"></path>
                    <path d="M45.6053097,6.50442478 C45.2495575,3.05309735 44.1769912,1.53982301 42.3504425,0.0318584071 C42.339823,0.0265486726 42.3292035,0.0212389381 42.3185841,0.0212389381 C42.3132743,0.0212389381 42.3026549,0.0265486726 42.2920354,0.0265486726 C42.2389381,0.0424778761 42.2017699,0.0902654867 42.2017699,0.143362832 C42.5575221,3.32920354 43.7256637,4.74159292 45.3982301,6.56814159 C45.4672566,6.6159292 45.5840708,6.58938053 45.6053097,6.50442478 L45.6053097,6.50442478 Z" id="Shape"></path>
                    <path d="M47.8725664,10.3115044 C48.6,6.91858407 48.0371681,5.15575221 46.7628319,3.15929204 C46.7415929,3.14336283 46.7150442,3.1380531 46.6884956,3.14336283 C46.6460177,3.14867257 46.6088496,3.17522124 46.5876106,3.21769912 C45.9504425,6.36106195 46.6353982,8.08141593 47.660177,10.3380531 C47.7079646,10.3964602 47.8247788,10.380531 47.8725664,10.3115044 L47.8725664,10.3115044 Z" id="Shape"></path>
                    <path d="M46.3752212,9.28141593 C44.3840708,6.44070796 42.7061947,5.62831858 40.3752212,5.20353982 C40.3061947,5.22477876 40.2637168,5.32566372 40.2902655,5.38938053 C42.159292,7.99646018 43.879646,8.65486726 46.2318584,9.43539823 C46.3168142,9.4460177 46.4017699,9.36106195 46.3752212,9.28141593 L46.3752212,9.28141593 Z" id="Shape"></path>
                    <path d="M49.2477876,13.1256637 C50.9575221,10.1044248 50.9575221,8.2460177 50.3362832,5.95752212 C50.3097345,5.93097345 50.2778761,5.91504425 50.2460177,5.91504425 C50.2088496,5.91504425 50.1769912,5.93097345 50.1557522,5.95752212 C48.6,8.76106195 48.7486726,10.5982301 49.0513274,13.0566372 C49.0778761,13.1362832 49.1893805,13.1787611 49.2477876,13.1256637 L49.2477876,13.1256637 Z" id="Shape"></path>
                    <path d="M45.3292035,9.49380531 C45.3079646,9.47787611 45.2814159,9.47256637 45.2548673,9.47787611 C45.2123894,9.48318584 45.1699115,9.50973451 45.1539823,9.55221239 C45.339823,11.9150442 45.9557522,13.6566372 48.5840708,15.9238938 C48.6584071,15.9557522 48.7646018,15.8867257 48.759292,15.8070796 C48.2283186,13.3858407 47.7345133,11.6123894 45.3292035,9.49380531 L45.3292035,9.49380531 Z" id="Shape"></path>
                    <path d="M49.1415929,17.5911504 C51.4566372,15.0053097 51.8495575,13.1946903 51.7327434,10.8265487 C51.7061947,10.7787611 51.6477876,10.7681416 51.6,10.7840708 C51.5840708,10.7840708 51.5734513,10.7946903 51.5628319,10.8053097 C49.4442478,13.2159292 49.1893805,15.0477876 48.9663717,17.5168142 C48.9663717,17.5911504 49.0725664,17.6336283 49.1415929,17.5911504 L49.1415929,17.5911504 Z" id="Shape"></path>
                    <path d="M46.8743363,15.1858407 C46.8637168,15.1858407 46.8530973,15.1858407 46.8477876,15.1911504 C46.8106195,15.1964602 46.7893805,15.2283186 46.7734513,15.260177 C45.7911504,18.3185841 46.279646,20.0920354 47.0495575,22.4495575 C47.0920354,22.5185841 47.2141593,22.5185841 47.2619469,22.4548673 C48.3557522,19.1628319 47.9946903,17.3415929 46.9433628,15.2176991 C46.9327434,15.2017699 46.9061947,15.1858407 46.8743363,15.1858407 L46.8743363,15.1858407 Z" id="Shape"></path>
                    <path d="M48.4725664,20.8300885 C48.4566372,20.9097345 48.5309735,20.9893805 48.6106195,20.9787611 C51.6690265,19.3327434 52.6619469,17.7610619 53.3575221,15.4938053 C53.3469027,15.4300885 53.2884956,15.3823009 53.2247788,15.3876106 C53.2141593,15.3876106 53.2088496,15.4035398 53.1982301,15.4088496 C50.3893805,16.959292 49.5238938,18.5893805 48.4725664,20.8300885 L48.4725664,20.8300885 Z" id="Shape"></path>
                    <path d="M45.6530973,21.2761062 C45.6265487,21.2814159 45.6053097,21.2867257 45.5893805,21.3026549 C43.5876106,23.8088496 43.4123894,25.6513274 43.300885,28.1256637 C43.3168142,28.2053097 43.4176991,28.2530973 43.4867257,28.2053097 C45.679646,25.5132743 45.9876106,23.6867257 45.759292,21.3292035 C45.7380531,21.2920354 45.6955752,21.2761062 45.6530973,21.2761062 L45.6530973,21.2761062 Z" id="Shape"></path>
                    <path d="M51.520354,20.6442478 C48.5575221,21.8654867 47.5115044,23.3893805 46.2159292,25.5026549 C46.1893805,25.5823009 46.2584071,25.6725664 46.3433628,25.6672566 C49.5663717,24.3716814 50.7238938,22.9327434 51.6690265,20.7610619 C51.6637168,20.6920354 51.5893805,20.6283186 51.520354,20.6442478 L51.520354,20.6442478 Z" id="Shape"></path>
                    <path d="M41.8725664,26.4637168 C41.8619469,26.4053097 41.7876106,26.3575221 41.7238938,26.3628319 L41.7132743,26.3628319 C38.8831858,27.8761062 37.9964602,29.4955752 36.9185841,31.7256637 C36.8973451,31.8053097 36.9769912,31.8849558 37.0566372,31.8690265 C40.1362832,30.2707965 41.1504425,28.720354 41.8725664,26.4637168 L41.8725664,26.4637168 Z" id="Shape"></path>
                    <path d="M51.0318584,25.4176991 C50.3309735,25.4176991 49.7150442,25.4814159 49.1469027,25.5769912 C47.1345133,25.9061947 45.8442478,26.7823009 44.2884956,27.9292035 C44.2353982,27.9876106 44.2566372,28.1044248 44.3362832,28.1309735 C47.8088496,28.1522124 49.4336283,27.2442478 51.1274336,25.5876106 C51.1539823,25.5185841 51.100885,25.4336283 51.0318584,25.4176991 L51.0318584,25.4176991 Z" id="Shape"></path>
                    <path d="M47.9522124,29.5964602 C46.300885,29.1769912 45.0265487,29.1504425 43.8530973,29.3575221 C42.8230088,29.5380531 41.8672566,29.9097345 40.7893805,30.339823 C40.720354,30.3823009 40.7256637,30.5044248 40.7946903,30.5469027 C44.1504425,31.4336283 45.939823,30.9610619 47.9946903,29.7823009 C48.0371681,29.7238938 48.0159292,29.6230088 47.9522124,29.5964602 L47.9522124,29.5964602 Z" id="Shape"></path>
                    <path d="M44.6230088,32.3893805 C42.6477876,31.6566372 41.1982301,31.5769912 39.759292,31.8053097 C39.0053097,31.9221239 38.2566372,32.1185841 37.4336283,32.3469027 C37.3646018,32.3840708 37.3539823,32.5115044 37.4176991,32.5646018 C40.6566372,33.8070796 42.4938053,33.520354 44.6654867,32.5699115 C44.7079646,32.5115044 44.6814159,32.4265487 44.6230088,32.3893805 L44.6230088,32.3893805 Z" id="Shape"></path>
                    <path d="M37.2690265,34.1681416 C37.2318584,34.1840708 37.2265487,34.2849558 37.2584071,34.3380531 C38.8513274,36.0159292 39.7646018,36.159292 40.879646,35.8300885 C40.9061947,35.7982301 40.8955752,35.7185841 40.8690265,35.6761062 C39.3929204,34.1522124 38.4849558,34.1150442 37.2690265,34.1681416 L37.2690265,34.1681416 Z" id="Shape"></path>
                </g>
            </g>
        </g>
    </g>
</svg>