<?xml version="1.0" encoding="UTF-8" standalone="no"?>
<svg width="795px" height="232px" viewBox="0 0 795 232" version="1.1" xmlns="http://www.w3.org/2000/svg" xmlns:xlink="http://www.w3.org/1999/xlink">
    <!-- Generator: Sketch 44.1 (41455) - http://www.bohemiancoding.com/sketch -->
    <title>car</title>
    <desc>Created with Sketch.</desc>
    <defs></defs>
    <g id="Page-1" stroke="none" stroke-width="1" fill="none" fill-rule="evenodd">
        <g id="Desktop" transform="translate(-114.000000, -396.000000)">
            <g id="car" transform="translate(114.000000, 396.000000)">
                <path d="M794.9937,167.5839 C794.7417,167.9559 794.2437,168.3519 794.2757,168.6979 C794.5977,172.1869 792.6087,174.3939 790.1257,176.3069 C789.0297,177.1519 787.8617,177.9269 786.6507,178.5969 C777.3457,183.7429 767.6767,188.0889 757.6527,191.6339 C756.5847,192.0119 755.4817,192.3399 754.3687,192.5289 C751.4407,193.0249 749.1437,191.9599 747.5897,189.4429 C746.8017,188.1659 746.1627,186.7959 745.2657,185.1079 C738.5427,185.4069 731.7217,185.3849 724.9757,186.0839 C713.6807,187.2549 702.4167,188.7639 691.1737,190.3749 C685.4317,191.1969 679.7637,192.5449 674.0647,193.6669 C673.4467,193.7879 672.8527,194.0389 672.2327,194.1399 C669.0757,194.6569 668.3387,194.0989 668.2427,190.9119 C668.1307,187.2479 668.1727,183.5799 668.0607,179.9159 C668.0067,178.1789 667.7497,176.4479 667.5917,174.7879 C663.7627,174.1759 663.4507,174.4029 663.1857,177.4209 C661.2897,199.0369 650.7517,215.0579 631.4817,224.9119 C606.1777,237.8509 575.9577,230.6209 558.8847,207.8909 C552.5227,199.4199 548.8227,189.8539 547.7227,179.2999 C547.6717,178.8129 547.5707,178.3309 547.4577,177.6259 L543.4447,177.6259 L543.4447,197.3589 C540.6987,198.5359 538.1327,198.2759 535.7397,197.7849 C529.7447,196.5559 523.7117,196.4769 517.6397,196.4779 C427.1137,196.5009 336.5877,196.4769 246.0627,196.5449 C241.5457,196.5479 237.0307,197.3019 232.5137,197.6869 C230.0337,197.8979 227.5517,198.0669 224.5477,198.2949 C224.1307,190.6739 224.5467,183.5189 224.2687,176.0699 C222.6347,175.9789 221.1847,175.8989 219.3557,175.7969 C219.0917,177.1509 218.7777,178.3239 218.6437,179.5169 C215.6227,206.4899 194.9557,227.4649 168.1537,230.7359 C139.5537,234.2259 113.1977,216.8269 105.1897,189.1329 C104.4607,186.6119 103.9657,184.0229 103.2857,181.1479 C101.5507,181.2389 99.9497,181.3229 97.8137,181.4339 C97.4317,187.8369 97.8547,194.2259 97.5747,200.7119 C95.3027,201.5309 93.1877,201.3819 91.1247,200.8219 C80.9687,198.0669 70.5817,196.5539 60.1467,195.6559 C47.4597,194.5629 34.7247,194.0209 22.0057,193.3249 C17.0027,193.0509 12.6787,191.8349 9.6097,189.5129 C9.7237,188.4919 10.1107,187.3989 9.8837,186.4549 C9.5997,185.2709 8.4757,184.9979 7.2347,184.7749 C5.8817,184.5309 4.8947,181.9279 5.1627,180.3179 C5.4367,178.6719 6.6887,178.5129 7.9887,178.3899 C8.4867,178.3429 8.9807,178.2579 9.4687,178.1919 C9.2937,177.0149 9.1787,175.9089 8.9527,174.8259 C8.7827,174.0079 8.4907,173.2119 8.2167,172.4179 C8.0377,171.8979 7.5907,171.3919 7.6117,170.8929 C7.7147,168.4109 7.7557,168.4119 6.2907,166.8049 C7.7807,163.7129 7.6067,163.3649 4.4887,163.1799 C0.6107,162.9499 -0.0823,162.2519 0.0077,158.3109 C0.1097,153.7749 0.3687,149.2419 0.4497,144.7049 C0.4967,142.0729 1.4367,139.7469 2.7547,137.5979 C3.3717,136.5909 4.4187,135.4999 5.4877,135.1879 C7.9897,134.4559 8.7767,132.8139 9.0357,130.4859 C9.5867,125.5349 10.9697,120.8409 13.7197,116.6209 C15.3177,114.1689 17.0337,111.8339 19.7247,110.4419 C20.1707,110.2119 20.7597,110.0279 20.9907,109.6469 C24.5507,103.7609 30.5427,101.2119 36.3727,98.5309 C47.3397,93.4889 58.9977,90.5779 70.7067,87.9449 C95.6227,82.3429 120.8667,78.7069 146.2037,75.6689 C157.9877,74.2559 169.7547,72.6699 181.5647,71.5389 C185.3977,71.1719 189.3757,71.7889 193.2297,72.3499 C196.2387,72.7869 198.7597,72.4649 201.4927,70.9049 C217.8337,61.5779 234.1787,52.2459 250.7327,43.3049 C272.5307,31.5319 294.7867,20.7119 318.4567,13.1049 C335.9567,7.4809 353.8837,3.9259 372.1667,2.1359 C388.2597,0.5599 404.3877,-0.1571 420.5617,0.0289 C431.4327,0.1539 442.3087,-0.0841 453.1757,0.1599 C466.1637,0.4509 479.1597,0.8299 492.1247,1.6219 C514.8107,3.0079 537.4417,5.0149 559.7307,9.7879 C575.3197,13.1259 590.4837,17.9289 605.5417,23.0899 C628.4977,30.9579 650.9137,40.1939 673.1687,49.8409 C677.9187,51.8989 682.6457,54.1799 687.6087,55.5319 C693.6707,57.1829 699.9327,58.2449 706.1737,59.0619 C720.6887,60.9609 735.2417,62.5749 749.7837,64.2639 C752.0287,64.5239 754.1867,65.3369 755.2617,67.1499 C759.1027,73.6299 763.7297,79.7759 764.9667,87.5049 C765.1657,88.7479 765.3417,89.9989 765.4277,91.2529 C766.0007,99.6859 766.5887,108.1169 767.0737,116.5549 C767.2127,118.9759 768.6677,120.3829 770.2967,121.8389 C772.3477,123.6699 774.3957,125.5289 776.2297,127.5689 C778.1837,129.7409 777.9077,131.3639 775.8717,133.7339 C775.2777,134.4249 774.8607,135.4689 774.7977,136.3809 C774.3987,142.1719 774.1077,147.9719 773.8247,153.7709 C773.7957,154.3559 773.8507,155.1719 774.2127,155.5099 C776.0957,157.2619 775.1567,158.9589 774.2527,160.6549 C771.0687,166.6279 768.3577,172.8929 763.2717,177.6959 C763.4297,177.8899 763.5887,178.0849 763.7467,178.2799 C770.5527,176.0319 777.3627,173.7949 784.1617,171.5259 C785.7217,171.0049 786.1097,169.6909 786.2007,167.9419 C783.6637,167.7009 783.6117,165.8449 783.7337,163.8569 C783.8037,162.7229 783.9227,161.5619 783.7677,160.4489 C783.3407,157.3739 784.7057,155.1299 786.7627,153.0639 C789.0117,150.8069 792.2917,150.9319 794.1307,153.4659 C794.4227,153.8699 794.7057,154.2799 794.9937,154.6869 L794.9937,167.5839 Z" id="Fill-1" fill="#000000"></path>
                <path d="M270.5546,57.3687 C270.9756,55.1267 271.0736,53.1827 271.7616,51.4767 C272.1706,50.4627 273.3946,49.6077 274.4466,49.0517 C283.2616,44.3967 291.9896,39.5487 300.9976,35.2957 C317.0136,27.7347 333.5696,21.5717 350.8996,17.6797 C363.6186,14.8227 376.4996,13.1897 389.5256,12.7157 C394.9436,12.5187 400.3636,12.3507 405.7836,12.1917 C406.6526,12.1667 407.5256,12.2597 408.9486,12.3227 C404.1286,33.5227 399.3606,54.4937 394.5036,75.8567 C366.6336,76.6587 338.9376,77.4547 311.2146,78.2527 C308.7206,72.0717 306.3796,66.2167 303.9876,60.3827 C303.4166,58.9887 302.8216,57.5627 301.9716,56.3367 C300.7706,54.6037 298.6516,54.1407 296.9426,54.9437 C295.0896,55.8147 294.9706,57.4817 295.1806,59.1427 C295.3206,60.2427 295.7996,61.3147 296.2176,62.3617 C298.2766,67.5127 300.3666,72.6527 302.4456,77.7977 C299.7006,78.8237 270.5786,79.8157 266.4146,79.0597 C266.0216,77.5127 266.9676,77.4447 268.1096,77.4517 C271.6476,77.4757 275.1866,77.4197 278.7246,77.4497 C284.5936,77.4997 286.4836,75.7007 286.4806,69.8237 C286.4796,67.3067 286.4566,64.7687 286.1446,62.2777 C285.6666,58.4587 284.3646,57.2247 280.5136,57.0247 C278.1366,56.9017 275.7366,57.2477 273.3466,57.3627 C272.6096,57.3987 271.8686,57.3687 270.5546,57.3687" id="Fill-3" fill="#FFFFFF"></path>
                <path d="M521.8746,72.231 C517.7596,72.375 514.2506,72.525 510.7396,72.616 C497.2466,72.967 483.7526,73.287 470.2596,73.64 C460.5526,73.894 450.8446,74.169 441.1376,74.458 C436.9836,74.581 432.8306,74.776 428.6766,74.915 C427.4476,74.957 426.2166,74.922 424.8126,74.922 L424.8126,67.041 C428.0186,65.183 430.5006,68.288 434.0976,67.928 C432.4826,67.13 431.3906,66.591 430.3026,66.053 C430.3746,65.85 430.4086,65.505 430.5176,65.48 C436.2476,64.158 437.4226,62.934 436.9626,57.263 C436.5976,52.764 435.8286,48.27 434.8736,43.853 C433.9406,39.534 431.4476,36.3 426.5146,34.968 C426.9116,27.468 427.3086,19.977 427.7246,12.116 C458.2236,11.665 488.4496,11.097 518.8996,17.153 C519.8786,35.274 520.8596,53.449 521.8746,72.231" id="Fill-5" fill="#FFFFFF"></path>
                <path d="M644.8878,173.3437 C645.6758,154.5627 630.0318,134.3557 605.9228,134.5127 C582.8358,134.6637 567.1268,153.4687 567.2658,173.4377 C567.4148,194.9727 584.5058,212.1147 605.9958,212.2417 C629.2818,212.3807 645.8038,192.4217 644.8878,173.3437 M660.8708,172.9427 C660.6098,206.1527 633.1898,230.0007 602.5228,228.4807 C575.6558,227.1497 548.8088,205.1527 549.9778,170.1927 C550.9668,140.5737 576.2708,116.0967 608.1248,117.6887 C640.9158,119.3277 661.7038,146.9227 660.8708,172.9427" id="Fill-7" fill="#FFFFFF"></path>
                <path d="M161.7794,212.2175 C181.4974,212.4775 200.5014,196.7705 200.6214,173.5205 C200.7334,151.7005 183.5784,134.4495 161.6594,134.5065 C138.8004,134.5655 122.8324,152.8805 122.7914,173.2625 C122.7474,194.9225 140.1134,212.2425 161.7794,212.2175 M160.5954,228.4695 C133.5654,228.7265 105.1254,207.1405 105.5034,171.1555 C105.8004,142.9825 129.7984,117.2265 161.6154,117.6065 C191.0274,117.9575 216.3704,141.1315 216.4934,171.5995 C216.6424,208.6145 187.0374,229.2175 160.5954,228.4695" id="Fill-9" fill="#FFFFFF"></path>
                <path d="M527.0745,18.6968 C534.1495,20.4698 540.9845,21.2118 546.9925,24.4808 C549.5505,25.8728 551.7015,28.2288 553.6345,30.4918 C555.6685,32.8738 557.1785,35.6978 559.0015,38.2698 C559.9755,39.6438 560.1755,40.8588 559.3335,42.4398 C556.8405,47.1208 557.2805,52.2158 557.5915,57.2518 C557.7475,59.7818 558.9435,61.5428 562.0335,61.7478 C560.5485,65.0218 559.1595,68.0828 557.7485,71.1918 C549.8485,71.4378 542.0865,71.6788 534.0225,71.9288 C531.6965,54.1058 529.4195,36.6658 527.0745,18.6968" id="Fill-11" fill="#FFFFFF"></path>
                <path d="M21.7652,131.0333 C22.2482,129.9893 22.4552,129.1183 22.9672,128.5003 C27.3942,123.1613 31.8772,117.8673 36.3422,112.5593 C37.8032,110.8223 39.5772,110.1103 41.9322,110.0273 C55.4072,109.5483 68.8752,108.8793 82.3472,108.3203 C83.7242,108.2633 85.1392,108.3693 86.4882,108.6393 C87.6812,108.8793 88.0332,109.8103 87.5832,110.9723 C87.5382,111.0883 87.4902,111.2123 87.4122,111.3073 C83.1102,116.5633 79.5302,122.6593 73.1972,125.7453 C69.9892,127.3073 66.2842,128.1623 62.7142,128.6003 C55.4652,129.4903 48.1592,129.9543 40.8682,130.4523 C35.2132,130.8383 29.5442,131.0183 23.8812,131.2643 C23.2992,131.2893 22.7102,131.1423 21.7652,131.0333" id="Fill-13" fill="#FFFFFF"></path>
            </g>
        </g>
    </g>
</svg>