<?xml version="1.0" encoding="UTF-8" standalone="no"?>
<svg width="25px" height="20px" viewBox="0 0 25 20" version="1.1" xmlns="http://www.w3.org/2000/svg" xmlns:xlink="http://www.w3.org/1999/xlink">
    <!-- Generator: Sketch 3.8.3 (29802) - http://www.bohemiancoding.com/sketch -->
    <title>cart_icon</title>
    <desc>Created with Sketch.</desc>
    <defs></defs>
    <g id="Page-1" stroke="none" stroke-width="1" fill="none" fill-rule="evenodd">
        <g id="Landing_account" transform="translate(-1496.000000, -24.000000)" fill="#FF6666">
            <g id="cart_icon" transform="translate(1496.000000, 24.000000)">
                <g id="Group">
                    <g id="Shape">
                        <path d="M23.5,3.2 C23.1,3.1 22.7,3.4 22.6,3.8 L20.9,12 L7.3,12 L5,1.1 C4.9,0.8 4.7,0.5 4.3,0.5 L1.3,0.3 L1.3,0.3 C0.9,0.3 0.5,0.6 0.5,1 C0.5,1.4 0.8,1.8 1.2,1.8 L3.6,2 L5.9,12.9 C6,13.2 6.3,13.5 6.6,13.5 L21.4,13.5 C21.8,13.5 22,13.3 22.1,12.9 L24,4.1 C24.1,3.7 23.9,3.3 23.5,3.2 L23.5,3.2 Z"></path>
                        <path d="M21.4,13.6 L6.7,13.6 C6.3,13.6 5.9,13.3 5.8,12.9 L3.5,2.1 L1.2,1.9 C0.7,1.9 0.4,1.4 0.4,1 C0.4,0.5 0.8,0.2 1.3,0.2 L4.3,0.4 C4.7,0.4 5,0.7 5.1,1.1 L7.4,11.9 L20.8,11.9 L22.5,3.8 C22.6,3.3 23.1,3 23.5,3.1 C24,3.2 24.3,3.7 24.2,4.1 L22.3,12.9 C22.2,13.3 21.9,13.6 21.4,13.6 L21.4,13.6 Z M1.3,0.4 C1,0.4 0.7,0.6 0.7,1 C0.7,1.3 0.9,1.6 1.3,1.6 L3.8,1.8 L6.2,12.8 C6.3,13.1 6.5,13.3 6.8,13.3 L21.6,13.3 C21.9,13.3 22.1,13.1 22.2,12.8 L24.1,4 C24.2,3.7 24,3.4 23.6,3.3 C23.3,3.2 23,3.5 22.9,3.8 L21,12.1 L7.2,12.1 L4.9,1.1 C4.8,0.8 4.6,0.6 4.4,0.6 L1.3,0.4 L1.3,0.4 Z"></path>
                    </g>
                    <g transform="translate(7.000000, 15.000000)">
                        <circle id="Oval" cx="2.2" cy="2.7" r="1.9"></circle>
                        <path d="M2.2,4.8 C1.1,4.8 0.2,3.9 0.2,2.8 C0.2,1.7 1.1,0.8 2.2,0.8 C3.3,0.8 4.2,1.7 4.2,2.8 C4.3,3.9 3.3,4.8 2.2,4.8 L2.2,4.8 Z M2.2,1 C1.2,1 0.4,1.8 0.4,2.8 C0.4,3.8 1.2,4.6 2.2,4.6 C3.2,4.6 4,3.8 4,2.8 C4,1.8 3.2,1 2.2,1 L2.2,1 Z" id="Shape"></path>
                    </g>
                    <g transform="translate(17.000000, 15.000000)">
                        <circle id="Oval" cx="2.1" cy="2.7" r="1.9"></circle>
                        <path d="M2.1,4.8 C1,4.8 0.1,3.9 0.1,2.8 C0.1,1.7 1,0.8 2.1,0.8 C3.2,0.8 4.1,1.7 4.1,2.8 C4.1,3.9 3.2,4.8 2.1,4.8 L2.1,4.8 Z M2.1,1 C1.1,1 0.3,1.8 0.3,2.8 C0.3,3.8 1.1,4.6 2.1,4.6 C3.1,4.6 3.9,3.8 3.9,2.8 C3.8,1.8 3.1,1 2.1,1 L2.1,1 Z" id="Shape"></path>
                    </g>
                    <g transform="translate(7.000000, 4.000000)" id="Shape">
                        <path d="M1.6,2 L12.5,2 C12.9,2 13.2,1.7 13.2,1.3 C13.2,0.9 12.9,0.6 12.5,0.6 L1.6,0.6 C1.2,0.6 0.9,0.9 0.9,1.3 C0.9,1.7 1.2,2 1.6,2 L1.6,2 Z"></path>
                        <path d="M12.5,2.1 L1.6,2.1 C1.1,2.1 0.7,1.7 0.7,1.2 C0.7,0.7 1.1,0.3 1.6,0.3 L12.5,0.3 C13,0.3 13.4,0.7 13.4,1.2 C13.4,1.7 13,2.1 12.5,2.1 L12.5,2.1 Z M1.6,0.7 C1.3,0.7 1,1 1,1.3 C1,1.6 1.3,1.9 1.6,1.9 L12.5,1.9 C12.8,1.9 13.1,1.6 13.1,1.3 C13.1,1 12.8,0.7 12.5,0.7 L1.6,0.7 L1.6,0.7 Z"></path>
                    </g>
                    <g transform="translate(8.000000, 8.000000)" id="Shape">
                        <path d="M10.7,0.2 L1.4,0.2 C1,0.2 0.7,0.5 0.7,0.9 C0.7,1.3 1,1.6 1.4,1.6 L10.7,1.6 C11.1,1.6 11.4,1.3 11.4,0.9 C11.5,0.5 11.1,0.2 10.7,0.2 L10.7,0.2 Z"></path>
                        <path d="M10.7,1.8 L1.4,1.8 C0.9,1.8 0.5,1.4 0.5,0.9 C0.5,0.4 0.9,0 1.4,0 L10.7,0 C11.2,0 11.6,0.4 11.6,0.9 C11.6,1.4 11.2,1.8 10.7,1.8 L10.7,1.8 Z M1.4,0.4 C1.1,0.4 0.8,0.7 0.8,1 C0.8,1.3 1.1,1.6 1.4,1.6 L10.7,1.6 C11,1.6 11.3,1.3 11.3,1 C11.3,0.7 11,0.4 10.7,0.4 L1.4,0.4 L1.4,0.4 Z"></path>
                    </g>
                </g>
            </g>
        </g>
    </g>
</svg>