<?xml version="1.0" encoding="UTF-8" standalone="no"?>
<svg width="20px" height="20px" viewBox="0 0 20 20" version="1.1" xmlns="http://www.w3.org/2000/svg" xmlns:xlink="http://www.w3.org/1999/xlink" xmlns:sketch="http://www.bohemiancoding.com/sketch/ns">
    <!-- Generator: Sketch 3.4.4 (17249) - http://www.bohemiancoding.com/sketch -->
    <title>cart_empty</title>
    <desc>Created with Sketch.</desc>
    <defs></defs>
    <g id="Page-1" stroke="none" stroke-width="1" fill="none" fill-rule="evenodd" sketch:type="MSPage">
        <g id="BookDentandPaint_final" sketch:type="MSArtboardGroup" transform="translate(-1465.000000, -22.000000)" fill="#47289E">
            <g id="header" sketch:type="MSLayerGroup" transform="translate(-1.000000, -20.000000)">
                <g id="Group" transform="translate(1161.000000, 0.000000)" sketch:type="MSShapeGroup">
                    <path d="M321,58 C319.9,58 319.01,58.9 319.01,60 C319.01,61.1 319.9,62 321,62 C322.1,62 323,61.1 323,60 C323,58.9 322.1,58 321,58 L321,58 Z M305,42 L305,44 L307,44 L310.6,51.59 L309.25,54.04 C309.09,54.32 309,54.65 309,55 C309,56.1 309.9,57 311,57 L323,57 L323,55 L311.42,55 C311.28,55 311.17,54.89 311.17,54.75 L311.2,54.63 L312.1,53 L319.55,53 C320.3,53 320.96,52.59 321.3,51.97 L324.88,45.48 C324.96,45.34 325,45.17 325,45 C325,44.45 324.55,44 324,44 L309.21,44 L308.27,42 L305,42 Z M311,58 C309.9,58 309.01,58.9 309.01,60 C309.01,61.1 309.9,62 311,62 C312.1,62 313,61.1 313,60 C313,58.9 312.1,58 311,58 L311,58 Z" id="cart_empty"></path>
                </g>
            </g>
        </g>
    </g>
</svg>