<?xml version="1.0" encoding="UTF-8" standalone="no"?>
<svg width="76px" height="76px" viewBox="0 0 76 76" version="1.1" xmlns="http://www.w3.org/2000/svg" xmlns:xlink="http://www.w3.org/1999/xlink">
    <!-- Generator: Sketch 39.1 (31720) - http://www.bohemiancoding.com/sketch -->
    <title>chat</title>
    <desc>Created with Sketch.</desc>
    <defs></defs>
    <g id="Page-1" stroke="none" stroke-width="1" fill="none" fill-rule="evenodd">
        <g id="Testimonial-Copy" transform="translate(-1288.000000, -683.000000)">
            <g id="chat" transform="translate(1288.000000, 683.000000)">
                <circle id="Oval-4" fill="#795FF9" cx="38" cy="38" r="38"></circle>
                <g id="noun_612746_cc" transform="translate(21.000000, 21.000000)">
                    <path d="M28.5878906,0 L5.41210938,0 C2.42316406,0 0,2.46898437 0,5.51769531 L0,21.0979297 C0,21.2128125 0.0046484375,21.3257031 0.0112890625,21.4385937 C0.0041199859,21.4940929 0.000349935487,21.5499783 0,21.6059375 L0,33.3253125 C0,34.0703906 0.39046875,34.2237891 0.867929687,33.6573437 L6.8265625,26.6289062 L28.5878906,26.6289062 C31.5761719,26.6289062 34,24.1473047 34,21.0979297 L34,5.51769531 C34,2.46898437 31.5768359,0 28.5878906,0 L28.5878906,0 Z" id="Shape" fill="#FFFFFF"></path>
                    <g id="Group-51" transform="translate(7.000000, 7.000000)" stroke-linecap="square" stroke-width="2" stroke="#795FF9" stroke-linejoin="round">
                        <g id="Group-52">
                            <path d="M0,1 L20,1" id="Line"></path>
                            <path d="M0,6 L20,6" id="Line"></path>
                            <path d="M9.32587341e-13,11 L20,11" id="Line"></path>
                        </g>
                    </g>
                </g>
            </g>
        </g>
    </g>
</svg>