<?xml version="1.0" encoding="utf-8"?>
<!-- Generator: Adobe Illustrator 16.0.0, SVG Export Plug-In . SVG Version: 6.00 Build 0)  -->
<!DOCTYPE svg PUBLIC "-//W3C//DTD SVG 1.1//EN" "http://www.w3.org/Graphics/SVG/1.1/DTD/svg11.dtd">
<svg version="1.1" id="Layer_1" xmlns="http://www.w3.org/2000/svg" xmlns:xlink="http://www.w3.org/1999/xlink" x="0px" y="0px"
	 width="608.038px" height="282.667px" viewBox="0 0 608.038 282.667" enable-background="new 0 0 608.038 282.667"
	 xml:space="preserve">
<g>
	<path fill="#9999D9" d="M553.914,86.989l-29.963,3.347l-3.33-6.228l20.738-9.214c-3.078-8.821-1.924-33.741,9.508-41.342
		c12.067-8.028,7.994,29.658,7.729,35.658C558.287,76.151,559.051,81.924,553.914,86.989z"/>
	<path fill="#7147E5" d="M504.514,90.005c-0.539-0.077-0.716,0.618-1.149,0.64c-1.217,0.066-1.052-1.553-0.338-2.056
		c0.604-0.425,1.261-0.786,1.776-1.324c0.325-0.344,0.902-0.545,0.52-1.086c-0.269-0.38-0.793-0.895-1.193-1.128
		c0.358-0.137,0.909-0.021,1.296-0.033c0.524-0.011,1.116,0.158,1.587,0.377c0.7,0.332,1.407,0.649,2.092,1.015
		c1.112,0.594,1.964,0.907,3.257,0.84c1.187-0.063,2.351-0.378,3.445-0.83c0.819-0.337,7.227-3.618,7.617-2.842
		c0.78,1.572,2.695,4.255,2.495,6.013c-2.107,0.03-4.341,0.597-6.439,0.866c-1.988,0.254-2.736,2.029-4.584,2.53
		c-0.806,0.217-2.223-0.11-3.153,0.029c-1.297,0.196-1.354,1.65-2.632,1.927c-1.411,0.306-0.804-1.222-0.658-2.033
		c-0.314,0.479-0.977,1.409-1.675,1.089c-0.896-0.413-0.496-1.769-0.599-2.47c-0.323,0.448-1.089,1.238-1.662,0.865
		c-0.703-0.459-0.277-1.855-0.184-2.55"/>
	<g>
		<g>
			<path fill="#7147E5" d="M311.743,221.789c-1.76,1.118-3.732,1.486-5.75,1.838c-1.457,0.255-2.759,0.925-4.222,1.108
				c-4.396,0.551-8.915,0.729-13.336,1.09c-6.469,0.529-11.729,2.722-15.645,8.216c-4.155,5.832-3.366,12.968-4.088,19.739
				c-0.463,4.344-1.108,11.317-6.852,11.857c-1.996,0.188-4.146-0.406-5.702-1.685c-1.833-1.507-2.641-3.869-3.104-6.119
				c-0.994-4.836-0.104-10.281-1.96-14.915c-1.603-4-5.95-6.76-10.082-4.416c-1.74,0.987-2.996,2.693-3.715,4.534
				c-1.437,3.69-2.144,9.349-7.291,9.02c-4.95-0.316-5.942-5.596-6.857-9.512c-0.799-3.418-2.036-6.824-4.913-9.03
				c-2.731-2.093-6.346-3.034-9.755-2.715c-1.702,0.159-3.922,0.52-5.446,1.334c-3.465,1.851-5.598,5.127-6.4,8.923
				c-0.531,2.517-0.612,5.091-0.731,7.651c-0.277,5.975,0.107,11.949-0.014,17.925c-0.034,1.708-0.113,3.415-0.269,5.115
				c-0.176,1.933-0.622,4.352-2.513,5.353c-1.529,0.81-3.396,0.317-4.515-0.942c-1.505-1.694-1.583-3.618-1.638-5.779
				c-0.07-2.719-0.223-5.435-0.25-8.155c-0.036-3.76-0.147-7.51-0.229-11.267c-0.091-4.225-0.094-8.433-0.262-12.618
				c-0.113-2.821-0.554-6.838-3.72-7.871c-2.568-0.838-5.842,0.611-6.662,3.196c-0.686,2.159-0.873,4.466-1,6.716
				c-0.205,3.655,0.112,7.392-0.17,11.023c-0.165,2.116-1.503,5.026-4.032,4.039c-2.041-0.797-2.342-3.341-2.53-5.238
				c-0.47-4.723-0.047-9.51-0.734-14.212c-0.527-3.606-1.602-8.018-5.309-9.594c-1.835-0.78-3.798-0.681-5.744-0.764
				c-6.98-0.298-13.784-1.979-20.764-2.219"/>
		</g>
		<path fill="#7147E5" d="M600.052,207.392c0,10.211-8.563,18.49-19.129,18.49H26.322c-10.563,0-19.129-8.279-19.129-18.49l0,0
			c0-10.213,8.565-18.49,19.129-18.49h554.602C591.489,188.902,600.052,197.179,600.052,207.392L600.052,207.392z"/>
		<g>
			<rect x="513.624" y="155.124" fill="#271F45" width="29.045" height="39.89"/>
			<rect x="520.187" y="165.648" fill="#FF6666" width="16.036" height="2.493"/>
			<rect x="520.187" y="171.05" fill="#FF6666" width="16.036" height="2.495"/>
			<rect x="520.187" y="176.452" fill="#FF6666" width="16.036" height="2.493"/>
			<path fill="none" stroke="#271F45" stroke-width="2.0069" stroke-miterlimit="10" d="M534.565,187.906
				c-3.657,7.794-14.453,11.709-22.504,11.56c-3.455-0.064-10.261-0.278-11.198-4.631c-1.181-5.49,7.973-2.668,8.928-7.87
				c0.406-2.202-0.709-4.756-0.848-6.96c-0.222-3.484,0.886-6.125,2.41-9.204c3.743-7.557,8.075-14.806,11.71-22.418
				c6.654-13.929,17.855-34.756,10.773-50.478c-3.368-7.473-11.685-13.606-19.166-16.419c-5.97-2.245-13.276-3.059-16.363-9.45"/>
		</g>
	</g>
	<g>
		<path fill="none" stroke="#271F45" stroke-width="1.8981" stroke-miterlimit="10" d="M151.658,194.749
			c-11.07,0-22.117-0.769-33.178-1.098c-4.253-0.127-8.506,0.304-12.761,0.161c-2.541-0.086-9.797-0.188-11.639-1.937
			c-3.029-2.88,6.675-2.492,9.039-2.684c19.277-1.553,7.311-23.743,4.506-32.883c-1.234-4.023-2.172-8.268-3.75-12.167
			c-0.917-2.269-2.486-4.142-3.478-6.358c-2.891-6.469-1.691-15.578-0.339-22.284c1.659-8.227,4.568-16.396,7.624-24.128"/>
		<g>
			<g>
				<g>
					<path fill="#271F45" d="M117.634,172.221c0,19.373,15.706,35.078,35.08,35.078c19.376,0,35.08-15.706,35.08-35.078
						c0-19.377-15.704-35.085-35.08-35.085C133.34,137.136,117.634,152.844,117.634,172.221z"/>
					<path fill="#271F45" d="M397.588,172.221c0,19.373,15.706,35.078,35.08,35.078c19.375,0,35.082-15.706,35.082-35.078
						c0-19.377-15.707-35.085-35.082-35.085C413.294,137.136,397.588,152.844,397.588,172.221z"/>
					<path fill="#271F45" d="M478.741,177.727c0,0-110.257,2.229-111.928,2.229c-1.67,0-259.5,2.227-259.5,2.227
						s-32.296-45.106,24.505-51.791c56.799-6.679,77.961-2.783,115.83-2.783c37.864,0,181.535-0.556,190.446-0.556
						c8.907,0,26.728-4.456,31.742,4.455C474.846,140.417,478.741,177.727,478.741,177.727z"/>
					<g>
						<path fill="#C5C6C7" d="M392.99,183.357H195.036c0,0-1.675-50.116-45.105-50.116c-25.893,1.672-39.258,25.057-35.917,53.457
							c-29.236-2.506-35.08-6.682-35.917-11.694c-5.01-5.846-7.515-26.729-4.177-32.576c3.346-5.844,6.687-22.548,35.919-31.739
							c29.233-9.188,81.02-19.211,81.02-19.211l75.173-40.091c0,0,29.234-8.354,68.492-9.187c39.258-0.837,77.68,1.668,77.68,1.668
							s43.432,10.859,70.162,36.753c21.719,0,38.957-4.421,37.584,11.367c-1.587,18.243,5.85,36.242,5.85,36.242
							s11.691,14.198,4.176,20.879c-7.52,6.686-8.354,9.19-7.52,13.366c0.836,4.178-6.681,15.036-30.066,16.709
							c-8.531,0.609-13.172,1.106-15.627,1.493l-1.36,0.01c0,0-2.331-47.444-45.761-47.444
							C403.747,134.821,389.648,156.531,392.99,183.357"/>
					</g>
					<circle fill="#C5C6C7" cx="152.714" cy="172.221" r="22.552"/>
					<path fill="#C5C6C7" d="M410.113,172.221c0,12.452,10.103,22.549,22.555,22.549c12.455,0,22.553-10.097,22.553-22.549
						c0-12.454-10.098-22.555-22.553-22.555C420.216,149.667,410.113,159.767,410.113,172.221z"/>
					<polygon fill="#2A1F48" points="343.425,50.019 333.029,97.91 413.216,94.568 396.141,51.873 					"/>
					<path fill="#2A1F48" d="M327.09,51.506l-36.753,2.598c0,0-23.76,4.082-42.323,18.562
						c-18.56,14.477-28.209,24.871-28.209,24.871l96.519,0.743L327.09,51.506z"/>
					<path fill="#2A1F48" d="M423.241,93.084L405.422,52.99c0,0,28.587,4.454,43.062,18.932
						C462.963,86.401,455.168,92.34,423.241,93.084z"/>
					<path fill="#FFFFFF" d="M517.912,97.537c0,0-7.057,0-8.913,4.826c-1.854,4.827-7.054,21.906,1.114,21.906
						c8.167,0,15.222,1.114,14.107-9.652C523.107,103.849,517.912,97.537,517.912,97.537z"/>
					<path fill="#FFFFFF" d="M82.81,124.269l14.108,0.74c0,0,4.829,2.973,2.227,6.314c-2.596,3.341-7.051,8.909-16.335,8.909
						C73.526,140.232,71.673,133.55,82.81,124.269z"/>
					<path fill="#2A1F48" d="M482.365,80.621c0,0-11.646-10.643-40.231-22.152c-28.588-11.508-16.61-11.071-16.61-11.071
						s20.031,6.591,34.882,15.502C475.253,71.808,488.005,80.784,482.365,80.621z"/>
					<path fill="#2A1F48" d="M266.031,51.387l2.403,2.343c0,0-46.775,27.846-51.603,31.188c-4.826,3.339-15.963,12.25-15.963,12.25
						l-10.011-5.689C190.858,91.479,240.611,60.55,266.031,51.387z"/>
				</g>
			</g>
			<polygon fill="#FFFFFF" points="395.824,51.812 387.075,51.443 335.1,97.847 344.868,97.358 			"/>
			<polygon fill="#FFFFFF" points="326.772,51.443 317.281,52.072 266.049,97.847 274.803,97.9 			"/>
			<polygon fill="#FFFFFF" points="399.8,61.759 360.8,96.678 369.527,96.312 402.019,67.305 			"/>
		</g>
		<g>
			<rect x="25.058" y="174.871" fill-rule="evenodd" clip-rule="evenodd" fill="#FFFFFF" width="0.428" height="1.086"/>
			<path fill-rule="evenodd" clip-rule="evenodd" fill="#271F45" d="M20.262,180.908c-0.003,2.76,2.243,5.01,5.003,5.016
				c2.762,0,5.003-2.247,5.003-5.007c0.003-2.757-2.231-4.992-4.995-4.994C22.515,175.92,20.265,178.151,20.262,180.908z"/>
			
				<rect x="20.251" y="179.978" transform="matrix(-1 -6.829817e-04 6.829817e-04 -1 50.3804 381.7242)" fill-rule="evenodd" clip-rule="evenodd" fill="#271F45" width="10.008" height="21.751"/>
			<path fill-rule="evenodd" clip-rule="evenodd" fill="#DDDDDD" d="M19.693,179.701c0-0.327,0.26-0.576,0.579-0.574l9.991,0.006
				c0.322,0.001,0.582,0.251,0.582,0.577l0,0c-0.002,0.312-0.26,0.564-0.584,0.564l-9.99-0.011
				C19.952,180.263,19.693,180.009,19.693,179.701L19.693,179.701z"/>
			<rect x="24.283" y="171.767" fill-rule="evenodd" clip-rule="evenodd" fill="#271F45" width="1.979" height="3.392"/>
		</g>
		
			<line fill="none" stroke="#2A1F48" stroke-width="1.335" stroke-miterlimit="10" x1="316.703" y1="97.983" x2="316.703" y2="182.623"/>
		<path fill="none" stroke="#2A1F48" stroke-width="1.335" stroke-miterlimit="10" d="M417.364,96.269v30.837
			c0,0-35.58,11.523-31.239,55.517"/>
		<g>
			<g>
				<path fill="#7147E5" d="M105.096,93.883c-2.26-0.93-3.504-3.345-5.831-4.149c-0.711-0.245-6.048-2.232-6.284-1.494
					c0.718-2.217,2.321-4.352,3.381-6.445c0.643,0.67,1.839,1.029,2.762,1.294c2.354,0.673,4.639,1.355,7.061,1.861
					c1.552,0.323,3.11,0.885,4.21,2.043c1.358,1.43,2.207,3.075,3.121,4.791c0.252,0.474,0.784,1.137,0.323,1.626
					c-0.629,0.665-1.764-0.252-2.059-0.805c0.379,0.709-0.112,2.094-1.058,1.774c-0.726-0.246-1.369-1.792-2.069-2.269
					c0.765,1.386-1.177,2.094-1.967,0.989C107.544,94.297,105.575,94.079,105.096,93.883z"/>
				<path fill="#9999D9" d="M63.617,77.55l31.865,11.55l4.714-6.251c0,0-27.741-14.113-27.741-14.115
					C71.997,59.48,83.262,38.25,69.01,29.318C56.825,21.683,58.865,72.429,56.382,67.01C53.673,61.097,52.403,72.902,63.617,77.55z"
					/>
			</g>
			<path fill="#271F45" d="M36.45,194.287l7.526-0.405c0,0,7.802,3.816,12.373,3.652c4.569-0.165,9.594,1.688,5.779,3.538
				c-3.818,1.851-13.294,4.104-17.919,1.27l-3.341-0.392l-0.928,2.521l-4.505-1.187L36.45,194.287z"/>
			<path fill="#271F45" d="M53.65,192.86l7.458-0.105c0,0,7.55,3.906,11.914,4.114c4.364,0.205,9.006,2.562,5.229,4.182
				c-3.777,1.618-12.975,3.188-17.159-0.158l-3.155-0.691l-1.076,2.562l-4.201-1.616L53.65,192.86z"/>
			<path fill="#271F45" d="M41.482,76.896c0,0-17.918,13.938-5.643,51.763l0.334,67.772l7.963-2.078l10.616-50.895l-5.297-17.41
				l1.951,22.944l2.125,47.17l8.856,0.649l1.091-47.818l3.638-54.001"/>
			<g>
				<path fill="#EFAA54" d="M95.091,12.776c0,0,2.116,1.646-0.055,4.89c-2.17,3.24-3.547,4.848-3.169,6.532
					c0.379,1.682-0.304,2.7-0.304,2.7l-1.271-1.234c0,0-1.4,1.086-1.682,2.991c-0.286,1.902-1.774,3.936-4.108,1.624
					c-2.332-2.309-3.956-3.396-5.275-2.552c-1.321,0.846-2.567,2.547-2.567,2.547l-10.29-7.522l5.228-7.144l12.294-7.6
					L95.091,12.776z"/>
				<path fill="#271F45" d="M85.696,6.435c0.573,0.329,1.143,0.648,1.717,0.915c2.175,1.012,4.763,1.484,7.175,1.437
					c4.286-0.083,6.088,4.053,5.647,6.446c-0.443,2.392-3.199,4.096-8.754,0.137c-5.551-3.961-8.043-3.166-8.043-3.166
					s0.715,5.349-3.273,7.363c0,0,1.303-2.469,0.382-3.546c-0.924-1.079-2.66-1.04-3.766,2.675c0,0-1.873,1.046-3.998,0.096
					c-2.121-0.947-2.533-1.346-3.825,0.421c0,0-3.405-2.086-0.659-3.5c2.742-1.413,4.756-4.166,5.565-5.687
					c0.693-1.296,1.365-2.617,2.233-3.81c1.257-1.723,3.686-2.022,5.636-1.59C83.118,4.933,84.415,5.705,85.696,6.435z"/>
			</g>
			<path fill="#9999D9" d="M67.232,101.16l-34.377-8.535c0,0,3.462-59.095,33.515-69.873l10.29,7.522
				C76.659,30.273,68.091,78.887,67.232,101.16z"/>
			<path opacity="0.7" fill="#FF6666" d="M91.83,23.261c0,0-6.091,0.27-11.75,4.223c0,0,2.45,4.257,7.061,3.824
				C90.921,30.955,93.174,26.33,91.83,23.261z"/>
			<path opacity="0.7" fill="none" stroke="#FF6666" stroke-width="0.6636" stroke-miterlimit="10" d="M85.254,25.241
				c0,0-1.593-0.974-4.16-6.4"/>
			<path opacity="0.7" fill="none" stroke="#FF6666" stroke-width="0.6636" stroke-miterlimit="10" d="M78.736,15.42
				c0,0-1.421-1.613-3.987-7.038"/>
			
				<rect x="111.059" y="72.852" transform="matrix(-0.9176 -0.3976 0.3976 -0.9176 191.7692 196.4809)" fill="#FF6666" width="10.39" height="11.015"/>
			
				<ellipse transform="matrix(-0.9176 -0.3975 0.3975 -0.9176 202.8493 180.1341)" fill="#FF6666" cx="120.096" cy="69.041" rx="6.539" ry="1.343"/>
			
				<ellipse transform="matrix(-0.9176 -0.3975 0.3975 -0.9176 198.2057 186.734)" fill="#FF6666" cx="118.458" cy="72.822" rx="6.539" ry="1.343"/>
			
				<rect x="112.651" y="68.852" transform="matrix(-0.9175 -0.3977 0.3977 -0.9175 200.2613 183.8039)" fill="#FF6666" width="13.076" height="4.569"/>
			<polygon fill="#FF6666" points="111.691,85.509 113.91,86.473 115.442,82.935 113.223,81.976 			"/>
			<polyline fill="#FF6666" points="117.976,90.38 112.638,84.776 106.198,88.5 108.401,90.626 112.46,88.577 115.608,91.794 
				117.869,90.626 			"/>
			<path fill="#7147E5" d="M104.632,93.979c-2.256-0.925-3.503-3.344-5.829-4.147c-0.711-0.245-6.047-2.234-6.286-1.493
				c0.719-2.217,2.324-4.354,3.381-6.447c0.643,0.67,1.838,1.031,2.764,1.295c2.354,0.674,4.639,1.356,7.059,1.858
				c1.554,0.324,3.112,0.888,4.209,2.047c1.36,1.429,2.209,3.073,3.124,4.79c0.25,0.473,0.784,1.136,0.322,1.624
				c-0.628,0.666-1.761-0.253-2.057-0.805c0.378,0.708-0.112,2.094-1.059,1.773c-0.725-0.243-1.369-1.789-2.069-2.266
				c0.764,1.384-1.176,2.091-1.969,0.987C107.083,94.396,105.114,94.175,104.632,93.979z"/>
			<path fill="#9999D9" d="M67.552,82.837l25.747,6.385l4.713-6.253c0,0-25.83-10.574-25.832-10.575
				c-0.456-9.256,12.478-36.877-5.358-42.954c-13.61-4.639-11.691,38.577-9.208,43.994C60.486,79.7,60.94,80.097,67.552,82.837z"/>
		</g>
		
			<line fill="none" stroke="#7147E5" stroke-width="1.0954" stroke-linecap="round" stroke-linejoin="round" stroke-miterlimit="10" stroke-dasharray="2.7384,2.7384" x1="139.005" y1="105.988" x2="117.449" y2="90.656"/>
		
			<line fill="none" stroke="#7147E5" stroke-width="1.0954" stroke-linecap="round" stroke-linejoin="round" stroke-miterlimit="10" stroke-dasharray="2.7384,2.7384" x1="134.891" y1="111.723" x2="117.449" y2="92.197"/>
		
			<line fill="none" stroke="#7147E5" stroke-width="1.0954" stroke-linecap="round" stroke-linejoin="round" stroke-miterlimit="10" stroke-dasharray="2.7384,2.7384" x1="125.906" y1="111.723" x2="116.771" y2="92.197"/>
		<g>
			<path fill="#271F45" d="M587.489,191.975l-6.859,0.81c0,0-6.451,4.665-10.604,5.229c-4.15,0.562-8.4,3.021-4.666,4.097
				c3.737,1.074,12.646,1.631,16.381-1.649l2.957-0.879l1.232,2.132l3.884-1.776L587.489,191.975z"/>
			<path fill="#271F45" d="M560.314,194.12l-7.102-0.165c0,0-7.227,3.653-11.384,3.811c-4.159,0.157-8.605,2.36-5.02,3.939
				c3.586,1.573,12.331,3.148,16.346,0l3.012-0.634l1.004,2.45l4.017-1.503L560.314,194.12z"/>
			<path fill="#271F45" d="M574.256,95.76c0,0,4.746,18.798-13.069,37.298l-0.393,61.31l-8.261,1.195l-8.065-59.554l-1.62-38.884"/>
			<path fill="#271F45" d="M574.256,95.76c0,0,3.418,13.538-6.437,28.943"/>
			<path fill="#271F45" d="M566.816,82.253c0,0,11.713,5.158,5.371,48.489l17.012,63.573l-8.433-0.79l-24.36-52.732l-1.233-34.596"
				/>
			<path fill="#EFAA54" d="M535.047,16.986c0,0,0.272,2.958,1.043,4.33c0.765,1.367-1.043,3.395-1.043,3.395l2.137-0.985
				c0,0-0.163,4.22,2.413,3.945c2.574-0.274,4.271-3.892,5.917-1.315c1.644,2.576,2.684,6.412,2.684,6.412l11.289,1.096
				l-5.645-15.892l-3.727-5.754l-3.727-2.357L535.047,16.986z"/>
			<path fill="#271F45" d="M546.554,5.716c-3.986,0.207-8.166,1.978-10.686,4.748c-3.891,4.273-5.316,6.958-5.316,6.958h2.301
				l-1.588,2.794c0,0,8.385-1.316,13.7-8.438c0,0-0.22,4.602,1.589,6.355c0.349,0.339,1.198,1.084,1.728,0.698
				c0.946-0.692-0.245-2.213,0.025-2.982c0.303-0.852,2.154-1.45,2.964-1.258c0.701,0.167,1.104,0.831,0.886,1.559
				c-0.123,0.418-0.566,0.746-0.617,1.164c-0.071,0.614,0.952,1.842,1.591,1.807c1.102-0.055,2.85-0.768,2.41-3.835
				c-0.438-3.069-2.849-8.603-4.821-9.153C549.415,5.772,547.998,5.643,546.554,5.716z"/>
			<path fill="#9999D9" d="M547.897,31.765l10.004-2.368c0,0,12.699-0.33,16.685,17.599c3.982,17.927,0,51.348,0,51.348h-33.863
				c0,0,3.983-19.479,4.427-28.552C545.591,60.717,544.223,41.322,547.897,31.765z"/>
			<path opacity="0.3" fill="#242223" d="M530.648,16.068c0,0-1.221,5.068,2.467,10.13c0,0,6.576-1.517,6.638-1.704
				c0.061-0.187,1.445-7.233,1.445-7.233s-2.83-3.08-3.082-3.08c-0.251,0-6.477,0-6.477,0L530.648,16.068z"/>
			<path fill="#FF6666" d="M540.559,7.167c0,0,7.891,12.568,6.753,16.146c-1.139,3.579-8.252,11.045-8.252,11.045l-5.945-8.159
				c0,0,6.709-2.648,5.842-6.598c-0.603-2.757-4.381-5.684-7.24-4.209c-0.666,0.341-1.03,1.106-1.066,0.13
				c-0.03-0.788,0.515-2.205,0.8-2.924c0.652-1.632,2.275-2.719,3.738-3.573C536.69,8.147,538.75,7.024,540.559,7.167z"/>
			
				<path fill="none" stroke="#FF6666" stroke-width="0.6322" stroke-linecap="round" stroke-linejoin="round" stroke-miterlimit="10" d="
				M544.468,16.255c0,0,7.072-1.778,8.629-7.618"/>
		</g>
		<g>
			<path fill="none" stroke="#271F45" stroke-width="2.0069" stroke-miterlimit="10" d="M529.711,91.692
				c-4.076-4.591-9.766-8.223-15.041-10.207c-5.97-2.245-13.276-3.059-16.363-9.45"/>
		</g>
	</g>
	<g>
		<path fill="#9999D9" stroke="#9999D9" stroke-width="0.7078" stroke-miterlimit="10" d="M385.744,143.886
			c-0.497-0.17-1.232-0.426-2.166-0.752c-0.931-0.329-2.064-0.722-3.363-1.181c-1.297-0.454-2.762-0.967-4.36-1.537
			c-1.597-0.564-3.324-1.184-5.152-1.836c-1.826-0.652-3.754-1.343-5.748-2.055c-1.99-0.724-4.05-1.461-6.141-2.217
			c-2.091-0.76-4.212-1.527-6.338-2.299c-2.119-0.778-4.244-1.553-6.332-2.314c-2.09-0.762-4.138-1.525-6.126-2.257
			c-1.985-0.731-3.904-1.444-5.725-2.117c-1.816-0.678-3.54-1.319-5.127-1.91c-1.584-0.591-3.04-1.139-4.326-1.625
			c-1.29-0.491-2.41-0.911-3.335-1.259c-0.925-0.35-1.648-0.632-2.146-0.82c-0.492-0.19-0.756-0.285-0.756-0.285
			s0.264,0.089,0.765,0.262c0.5,0.176,1.235,0.428,2.168,0.757c0.932,0.327,2.063,0.724,3.363,1.179
			c1.298,0.458,2.764,0.97,4.361,1.54c1.597,0.565,3.327,1.182,5.153,1.836c1.823,0.654,3.753,1.344,5.747,2.055
			c1.99,0.719,4.053,1.458,6.143,2.219c2.089,0.756,4.21,1.524,6.335,2.297c2.122,0.774,4.243,1.553,6.331,2.313
			c2.086,0.768,4.14,1.526,6.126,2.252c1.986,0.737,3.908,1.449,5.728,2.124c1.818,0.674,3.537,1.316,5.127,1.908
			c1.584,0.589,3.039,1.14,4.328,1.632c1.285,0.48,2.411,0.907,3.335,1.251c0.925,0.35,1.648,0.632,2.143,0.816
			c0.495,0.19,0.759,0.291,0.759,0.291S386.249,144.06,385.744,143.886z"/>
		<path fill="#9999D9" stroke="#9999D9" stroke-width="0.7078" stroke-miterlimit="10" d="M364.744,107.767
			c-0.137,0.412-0.344,1.017-0.611,1.776c-0.269,0.766-0.593,1.697-0.962,2.767c-0.372,1.066-0.79,2.271-1.253,3.585
			c-0.465,1.31-0.969,2.728-1.503,4.226c-0.534,1.503-1.1,3.087-1.684,4.722c-0.591,1.633-1.192,3.326-1.817,5.038
			c-0.623,1.718-1.253,3.461-1.886,5.201c-0.636,1.745-1.271,3.484-1.899,5.199c-0.624,1.711-1.252,3.398-1.854,5.028
			c-0.604,1.63-1.187,3.206-1.744,4.695c-0.56,1.496-1.088,2.908-1.577,4.206c-0.484,1.305-0.937,2.493-1.34,3.552
			c-0.404,1.058-0.753,1.974-1.039,2.736c-0.288,0.758-0.521,1.35-0.678,1.756c-0.157,0.408-0.241,0.621-0.241,0.621
			s0.075-0.221,0.22-0.627c0.139-0.416,0.344-1.017,0.612-1.782c0.267-0.769,0.592-1.695,0.96-2.763
			c0.371-1.07,0.792-2.27,1.256-3.584c0.461-1.312,0.966-2.73,1.498-4.234c0.536-1.497,1.102-3.079,1.684-4.715
			c0.591-1.636,1.193-3.327,1.817-5.042c0.622-1.718,1.255-3.458,1.885-5.201c0.638-1.742,1.274-3.482,1.902-5.196
			c0.624-1.715,1.253-3.396,1.853-5.031c0.604-1.626,1.186-3.203,1.741-4.698c0.561-1.492,1.087-2.903,1.578-4.206
			c0.488-1.302,0.941-2.489,1.342-3.547c0.4-1.06,0.753-1.976,1.039-2.735c0.287-0.763,0.522-1.353,0.678-1.76
			c0.156-0.402,0.24-0.621,0.24-0.621S364.881,107.358,364.744,107.767z"/>
		<path fill="#9999D9" stroke="#9999D9" stroke-width="0.7078" stroke-miterlimit="10" d="M354.691,112.753
			c-0.19,0.559-0.421,1.244-0.688,2.019c-0.269,0.78-0.573,1.651-0.905,2.609c-0.331,0.96-0.692,1.991-1.079,3.089
			c-0.385,1.095-0.792,2.251-1.217,3.438c-0.43,1.192-0.863,2.428-1.317,3.673c-0.453,1.249-0.913,2.521-1.371,3.793
			c-0.463,1.266-0.929,2.531-1.386,3.782c-0.455,1.246-0.917,2.468-1.352,3.662c-0.44,1.184-0.876,2.324-1.28,3.413
			c-0.404,1.089-0.797,2.111-1.156,3.062c-0.36,0.942-0.691,1.81-0.989,2.578s-0.558,1.437-0.769,1.987
			c-0.433,1.101-0.68,1.729-0.68,1.729s0.213-0.638,0.592-1.758c0.19-0.56,0.422-1.243,0.688-2.02
			c0.269-0.778,0.567-1.655,0.902-2.613c0.332-0.958,0.695-1.99,1.082-3.085c0.385-1.092,0.787-2.249,1.216-3.441
			c0.429-1.184,0.862-2.424,1.318-3.674c0.454-1.245,0.912-2.517,1.37-3.786c0.466-1.266,0.932-2.532,1.389-3.783
			c0.458-1.244,0.916-2.469,1.355-3.657c0.438-1.189,0.872-2.331,1.278-3.416c0.407-1.091,0.795-2.116,1.156-3.06
			c0.363-0.948,0.696-1.815,0.989-2.581c0.297-0.766,0.559-1.437,0.771-1.988c0.432-1.101,0.678-1.727,0.678-1.727
			S355.07,111.632,354.691,112.753z"/>
		<path fill="#9999D9" stroke="#9999D9" stroke-width="0.7078" stroke-miterlimit="10" d="M367.677,121.678
			c-0.072,0.23-0.179,0.566-0.32,0.992c-0.144,0.427-0.315,0.939-0.514,1.532c-0.199,0.593-0.426,1.257-0.677,1.984
			c-0.248,0.729-0.517,1.516-0.809,2.347c-0.292,0.833-0.597,1.708-0.92,2.614c-0.321,0.905-0.647,1.842-0.992,2.789
			c-0.343,0.946-0.691,1.911-1.042,2.871c-0.35,0.962-0.703,1.927-1.05,2.872c-0.348,0.946-0.697,1.874-1.032,2.771
			c-0.336,0.903-0.666,1.772-0.978,2.597c-0.314,0.821-0.61,1.596-0.889,2.314c-0.273,0.717-0.53,1.373-0.759,1.955
			c-0.229,0.583-0.43,1.085-0.597,1.501c-0.163,0.415-0.297,0.746-0.387,0.967c-0.091,0.223-0.138,0.343-0.138,0.343
			s0.038-0.121,0.114-0.35c0.073-0.228,0.181-0.566,0.323-0.992c0.141-0.426,0.312-0.942,0.513-1.529
			c0.2-0.593,0.423-1.261,0.677-1.987c0.247-0.724,0.519-1.516,0.811-2.345c0.291-0.831,0.591-1.712,0.914-2.612
			c0.325-0.905,0.649-1.841,0.994-2.791c0.345-0.948,0.69-1.914,1.039-2.874c0.354-0.96,0.705-1.923,1.053-2.868
			c0.347-0.946,0.699-1.873,1.034-2.773c0.332-0.902,0.663-1.771,0.978-2.591c0.309-0.827,0.609-1.602,0.887-2.32
			c0.273-0.719,0.529-1.373,0.759-1.955c0.231-0.578,0.431-1.086,0.594-1.5c0.167-0.417,0.301-0.743,0.39-0.969
			c0.091-0.225,0.14-0.339,0.14-0.339S367.753,121.454,367.677,121.678z"/>
		<path fill="#9999D9" stroke="#9999D9" stroke-width="0.7078" stroke-miterlimit="10" d="M371.837,128.808
			c-0.06,0.178-0.139,0.45-0.251,0.789c-0.108,0.341-0.242,0.75-0.399,1.223c-0.154,0.471-0.334,1-0.527,1.579
			c-0.192,0.58-0.405,1.207-0.637,1.867c-0.229,0.661-0.471,1.36-0.724,2.079c-0.257,0.724-0.513,1.466-0.789,2.222
			c-0.271,0.755-0.548,1.521-0.82,2.289c-0.282,0.764-0.563,1.528-0.841,2.279c-0.271,0.756-0.559,1.491-0.826,2.207
			c-0.264,0.715-0.531,1.401-0.781,2.057c-0.25,0.654-0.491,1.268-0.713,1.839c-0.222,0.567-0.429,1.092-0.613,1.552
			c-0.183,0.46-0.346,0.863-0.48,1.192c-0.131,0.333-0.242,0.592-0.312,0.768c-0.076,0.176-0.113,0.27-0.113,0.27
			s0.032-0.095,0.092-0.278c0.054-0.182,0.136-0.454,0.248-0.79c0.108-0.337,0.242-0.751,0.399-1.223
			c0.155-0.47,0.332-1.004,0.528-1.583c0.197-0.576,0.409-1.204,0.637-1.867c0.229-0.662,0.47-1.363,0.725-2.08
			c0.254-0.719,0.511-1.468,0.788-2.215c0.271-0.761,0.55-1.522,0.823-2.29c0.28-0.762,0.563-1.529,0.844-2.282
			c0.271-0.755,0.553-1.49,0.824-2.204c0.263-0.719,0.529-1.407,0.78-2.057c0.249-0.657,0.488-1.274,0.715-1.84
			c0.217-0.572,0.428-1.094,0.611-1.552c0.185-0.46,0.344-0.865,0.477-1.195c0.136-0.332,0.244-0.589,0.318-0.765
			c0.074-0.174,0.113-0.271,0.113-0.271S371.898,128.622,371.837,128.808z"/>
		<path fill="#9999D9" stroke="#9999D9" stroke-width="0.7078" stroke-miterlimit="10" d="M374.674,137.669
			c-0.569-0.196-1.261-0.435-2.058-0.711c-0.795-0.273-1.689-0.581-2.667-0.918c-0.978-0.342-2.033-0.706-3.15-1.104
			c-1.118-0.399-2.295-0.81-3.513-1.246c-1.219-0.438-2.478-0.88-3.752-1.345c-1.274-0.465-2.571-0.929-3.87-1.401
			c-1.294-0.475-2.586-0.949-3.862-1.416c-1.274-0.467-2.523-0.934-3.735-1.382c-1.216-0.449-2.384-0.887-3.493-1.304
			c-1.108-0.414-2.158-0.815-3.124-1.182c-0.967-0.366-1.853-0.704-2.633-1.006c-0.785-0.305-1.47-0.569-2.033-0.788
			c-1.123-0.441-1.764-0.691-1.764-0.691s0.652,0.221,1.796,0.606c0.571,0.195,1.263,0.433,2.06,0.705
			c0.797,0.277,1.691,0.579,2.668,0.92c0.98,0.343,2.035,0.711,3.151,1.107c1.116,0.393,2.296,0.811,3.513,1.245
			c1.218,0.436,2.474,0.881,3.751,1.346c1.275,0.462,2.568,0.931,3.865,1.4c1.296,0.475,2.59,0.947,3.865,1.417
			c1.277,0.466,2.526,0.933,3.739,1.384c1.212,0.442,2.38,0.885,3.49,1.303c1.108,0.415,2.158,0.814,3.125,1.181
			c0.963,0.37,1.848,0.705,2.636,1.01c0.782,0.304,1.464,0.566,2.031,0.783c1.123,0.44,1.763,0.692,1.763,0.692
			S375.818,138.055,374.674,137.669z"/>
		<path fill="#9999D9" stroke="#9999D9" stroke-width="0.7078" stroke-miterlimit="10" d="M373.184,132.232
			c-0.521-0.175-1.153-0.39-1.881-0.635c-0.724-0.25-1.545-0.531-2.436-0.843c-0.894-0.31-1.858-0.644-2.878-1.005
			c-1.018-0.358-2.094-0.736-3.205-1.132c-1.111-0.398-2.259-0.805-3.425-1.226c-1.166-0.423-2.35-0.85-3.532-1.279
			c-1.183-0.435-2.364-0.868-3.528-1.293c-1.161-0.42-2.302-0.853-3.41-1.263c-1.104-0.408-2.173-0.811-3.184-1.192
			c-1.014-0.379-1.969-0.748-2.852-1.084c-0.881-0.334-1.688-0.647-2.403-0.923c-0.713-0.275-1.338-0.524-1.853-0.721
			c-1.023-0.407-1.608-0.638-1.608-0.638s0.6,0.2,1.641,0.543c0.522,0.179,1.156,0.399,1.882,0.643
			c0.727,0.25,1.544,0.529,2.438,0.843c0.89,0.309,1.856,0.646,2.877,1.003c1.02,0.358,2.092,0.732,3.206,1.135
			c1.109,0.398,2.26,0.802,3.426,1.228c1.161,0.42,2.349,0.848,3.531,1.277c1.181,0.432,2.362,0.866,3.524,1.294
			c1.162,0.423,2.306,0.855,3.41,1.261c1.104,0.412,2.173,0.814,3.188,1.198c1.011,0.377,1.966,0.743,2.85,1.079
			c0.879,0.334,1.689,0.647,2.404,0.923c0.715,0.281,1.335,0.522,1.85,0.721c1.024,0.407,1.609,0.636,1.609,0.636
			S374.226,132.583,373.184,132.232z"/>
		<path fill="#9999D9" stroke="#9999D9" stroke-width="0.7078" stroke-miterlimit="10" d="M381.577,130.889
			c-0.613-0.208-1.354-0.465-2.209-0.756c-0.851-0.299-1.812-0.631-2.863-0.996c-1.043-0.364-2.181-0.762-3.378-1.184
			c-1.201-0.43-2.462-0.874-3.769-1.342c-1.305-0.472-2.656-0.947-4.023-1.447c-1.369-0.497-2.758-0.994-4.148-1.502
			c-1.393-0.51-2.781-1.016-4.146-1.521c-1.368-0.494-2.711-1.001-4.008-1.478c-1.304-0.482-2.559-0.955-3.751-1.398
			c-1.19-0.448-2.311-0.868-3.352-1.266c-1.037-0.396-1.987-0.757-2.827-1.076c-0.841-0.325-1.579-0.609-2.18-0.842
			c-1.208-0.471-1.896-0.74-1.896-0.74s0.7,0.238,1.928,0.651c0.609,0.21,1.353,0.467,2.206,0.756
			c0.851,0.299,1.812,0.632,2.862,0.996c1.048,0.369,2.179,0.763,3.379,1.19c1.199,0.42,2.465,0.87,3.769,1.337
			c1.305,0.471,2.655,0.946,4.022,1.443c1.368,0.497,2.76,1.002,4.151,1.506c1.388,0.51,2.778,1.015,4.146,1.516
			c1.368,0.5,2.706,1.004,4.01,1.484c1.301,0.479,2.555,0.953,3.745,1.398c1.193,0.445,2.313,0.868,3.353,1.265
			c1.035,0.393,1.988,0.758,2.831,1.079c0.841,0.323,1.572,0.605,2.179,0.835c1.206,0.472,1.896,0.742,1.896,0.742
			S382.803,131.308,381.577,130.889z"/>
		<path fill="#9999D9" stroke="#9999D9" stroke-width="0.7078" stroke-miterlimit="10" d="M377.903,128.05
			c-0.247-0.081-0.608-0.201-1.067-0.353c-0.461-0.151-1.017-0.342-1.658-0.558c-0.638-0.215-1.359-0.458-2.147-0.731
			c-0.782-0.271-1.638-0.568-2.532-0.879c-0.896-0.314-1.847-0.646-2.823-0.997c-0.978-0.349-1.992-0.707-3.015-1.077
			c-1.027-0.374-2.068-0.748-3.108-1.124c-1.044-0.38-2.082-0.763-3.105-1.139c-1.026-0.373-2.029-0.754-3.003-1.115
			c-0.975-0.361-1.913-0.716-2.802-1.052c-0.893-0.338-1.729-0.658-2.506-0.955c-0.776-0.301-1.485-0.574-2.115-0.823
			c-0.629-0.243-1.178-0.46-1.629-0.636c-0.452-0.181-0.805-0.32-1.047-0.416c-0.239-0.098-0.37-0.152-0.37-0.152
			s0.134,0.045,0.377,0.126c0.25,0.083,0.609,0.198,1.072,0.35c0.461,0.156,1.02,0.345,1.658,0.562
			c0.641,0.211,1.362,0.458,2.147,0.732c0.784,0.272,1.636,0.562,2.532,0.877c0.899,0.318,1.847,0.642,2.825,0.995
			c0.976,0.35,1.99,0.708,3.015,1.08c1.027,0.367,2.067,0.745,3.108,1.124c1.041,0.382,2.082,0.762,3.105,1.139
			c1.021,0.369,2.026,0.752,3.001,1.115c0.974,0.358,1.913,0.715,2.801,1.053c0.894,0.333,1.733,0.659,2.508,0.955
			c0.773,0.297,1.486,0.575,2.114,0.819c0.629,0.244,1.178,0.464,1.631,0.64c0.446,0.177,0.804,0.321,1.043,0.414
			c0.24,0.099,0.37,0.148,0.37,0.148S378.152,128.133,377.903,128.05z"/>
	</g>
	<g>
		<path fill="#9999D9" stroke="#9999D9" stroke-width="0.7168" stroke-miterlimit="10" d="M487.41,108.113
			c-0.244-0.063-0.604-0.156-1.06-0.277c-0.456-0.122-1.01-0.265-1.645-0.436c-0.635-0.166-1.352-0.354-2.134-0.566
			c-0.78-0.21-1.626-0.438-2.52-0.681c-0.895-0.241-1.837-0.497-2.812-0.761c-0.973-0.268-1.98-0.543-3.004-0.823
			c-1.022-0.284-2.061-0.568-3.101-0.855c-1.037-0.29-2.077-0.58-3.098-0.863c-1.022-0.283-2.024-0.569-2.998-0.842
			c-0.972-0.273-1.91-0.54-2.801-0.792c-0.889-0.253-1.732-0.494-2.509-0.715c-0.775-0.222-1.487-0.427-2.118-0.611
			c-0.631-0.183-1.18-0.342-1.632-0.472c-0.453-0.131-0.807-0.237-1.051-0.308c-0.24-0.072-0.369-0.107-0.369-0.107
			s0.128,0.033,0.374,0.095c0.244,0.065,0.604,0.158,1.06,0.278c0.456,0.122,1.01,0.268,1.646,0.436
			c0.635,0.169,1.351,0.359,2.133,0.569c0.78,0.208,1.628,0.437,2.521,0.68c0.892,0.241,1.835,0.497,2.811,0.76
			c0.974,0.268,1.982,0.542,3.005,0.825c1.021,0.281,2.06,0.566,3.1,0.854c1.038,0.289,2.076,0.579,3.098,0.861
			c1.021,0.288,2.025,0.57,2.997,0.842c0.972,0.275,1.912,0.541,2.803,0.794c0.891,0.252,1.731,0.493,2.509,0.714
			c0.775,0.22,1.487,0.427,2.118,0.612c0.629,0.18,1.181,0.341,1.632,0.47c0.453,0.132,0.807,0.238,1.05,0.307
			c0.242,0.073,0.37,0.111,0.37,0.111S487.657,108.175,487.41,108.113z"/>
		<path fill="#9999D9" stroke="#9999D9" stroke-width="0.7168" stroke-miterlimit="10" d="M469.5,92.354
			c-0.056,0.215-0.14,0.53-0.249,0.927c-0.11,0.401-0.241,0.885-0.393,1.444c-0.151,0.556-0.322,1.184-0.512,1.87
			c-0.191,0.684-0.397,1.423-0.616,2.206c-0.22,0.785-0.451,1.611-0.691,2.465c-0.243,0.853-0.49,1.736-0.747,2.629
			c-0.257,0.896-0.517,1.806-0.777,2.714c-0.263,0.913-0.524,1.819-0.784,2.714c-0.257,0.894-0.518,1.776-0.767,2.625
			c-0.25,0.852-0.491,1.675-0.722,2.453c-0.232,0.781-0.452,1.518-0.655,2.197c-0.2,0.682-0.39,1.302-0.557,1.855
			c-0.168,0.553-0.313,1.031-0.432,1.429c-0.12,0.396-0.219,0.705-0.283,0.917c-0.065,0.213-0.101,0.325-0.101,0.325
			s0.029-0.115,0.09-0.327c0.056-0.217,0.139-0.531,0.248-0.93c0.109-0.4,0.242-0.884,0.393-1.442s0.323-1.184,0.513-1.87
			c0.188-0.683,0.396-1.425,0.614-2.208c0.22-0.782,0.452-1.608,0.69-2.463c0.243-0.852,0.491-1.736,0.748-2.63
			c0.256-0.897,0.517-1.805,0.776-2.715c0.264-0.91,0.526-1.819,0.785-2.714c0.257-0.895,0.519-1.772,0.767-2.626
			c0.249-0.849,0.49-1.672,0.72-2.452c0.233-0.78,0.451-1.516,0.655-2.197c0.203-0.679,0.393-1.299,0.558-1.852
			c0.167-0.553,0.313-1.032,0.433-1.428c0.12-0.399,0.218-0.708,0.283-0.92c0.065-0.21,0.1-0.324,0.1-0.324
			S469.556,92.141,469.5,92.354z"/>
		<path fill="#9999D9" stroke="#9999D9" stroke-width="0.7168" stroke-miterlimit="10" d="M471.459,98.011
			c-0.077,0.292-0.171,0.65-0.279,1.053c-0.109,0.409-0.234,0.861-0.369,1.361s-0.282,1.039-0.44,1.613
			c-0.158,0.571-0.324,1.175-0.5,1.794c-0.176,0.622-0.354,1.267-0.541,1.917c-0.187,0.652-0.375,1.316-0.563,1.98
			c-0.191,0.659-0.384,1.321-0.572,1.973c-0.188,0.651-0.38,1.289-0.56,1.912c-0.182,0.618-0.364,1.214-0.532,1.782
			c-0.167,0.568-0.331,1.102-0.48,1.6c-0.149,0.491-0.287,0.945-0.412,1.345c-0.125,0.402-0.233,0.751-0.321,1.038
			c-0.181,0.576-0.285,0.904-0.285,0.904s0.087-0.332,0.24-0.917c0.077-0.291,0.172-0.649,0.279-1.053
			c0.109-0.405,0.23-0.864,0.367-1.363c0.135-0.5,0.284-1.039,0.442-1.61c0.157-0.569,0.322-1.173,0.499-1.795
			c0.176-0.619,0.354-1.266,0.541-1.917c0.188-0.652,0.375-1.315,0.564-1.978c0.192-0.661,0.385-1.322,0.574-1.975
			c0.188-0.648,0.378-1.29,0.561-1.909c0.181-0.621,0.361-1.217,0.529-1.785c0.169-0.568,0.33-1.104,0.48-1.598
			c0.152-0.495,0.291-0.948,0.413-1.347c0.124-0.401,0.233-0.751,0.323-1.039c0.181-0.575,0.283-0.904,0.283-0.904
			S471.613,97.427,471.459,98.011z"/>
		<path fill="#9999D9" stroke="#9999D9" stroke-width="0.7168" stroke-miterlimit="10" d="M478.298,102.386
			c-0.028,0.118-0.071,0.294-0.128,0.517c-0.059,0.222-0.128,0.49-0.208,0.798c-0.081,0.31-0.173,0.656-0.275,1.036
			c-0.101,0.381-0.21,0.79-0.329,1.225c-0.12,0.434-0.243,0.89-0.377,1.363c-0.131,0.473-0.264,0.961-0.407,1.456
			c-0.141,0.494-0.283,0.998-0.428,1.498c-0.145,0.503-0.291,1.006-0.434,1.5c-0.145,0.494-0.289,0.979-0.428,1.448
			c-0.14,0.472-0.277,0.925-0.406,1.356c-0.131,0.427-0.254,0.832-0.37,1.208c-0.114,0.375-0.222,0.717-0.317,1.022
			c-0.096,0.303-0.181,0.565-0.251,0.784c-0.068,0.217-0.125,0.389-0.163,0.505c-0.038,0.116-0.058,0.178-0.058,0.178
			s0.015-0.064,0.046-0.182c0.03-0.12,0.072-0.294,0.13-0.518c0.057-0.222,0.126-0.491,0.207-0.798
			c0.082-0.31,0.172-0.657,0.275-1.035c0.101-0.379,0.211-0.792,0.33-1.224c0.119-0.434,0.24-0.893,0.373-1.364
			c0.135-0.471,0.267-0.961,0.408-1.456c0.143-0.494,0.284-0.999,0.428-1.499c0.146-0.503,0.291-1.006,0.436-1.499
			c0.143-0.493,0.29-0.978,0.428-1.449c0.139-0.47,0.275-0.924,0.406-1.351c0.128-0.432,0.254-0.839,0.37-1.213
			c0.114-0.376,0.221-0.718,0.316-1.021c0.098-0.301,0.181-0.566,0.25-0.784c0.07-0.218,0.127-0.389,0.164-0.506
			c0.038-0.118,0.059-0.177,0.059-0.177S478.33,102.268,478.298,102.386z"/>
		<path fill="#9999D9" stroke="#9999D9" stroke-width="0.7168" stroke-miterlimit="10" d="M480.63,105.989
			c-0.023,0.093-0.054,0.234-0.1,0.411c-0.043,0.177-0.097,0.392-0.16,0.637c-0.062,0.246-0.135,0.522-0.213,0.824
			c-0.078,0.303-0.164,0.63-0.259,0.975c-0.094,0.345-0.191,0.709-0.295,1.084c-0.105,0.377-0.21,0.764-0.323,1.16
			c-0.111,0.394-0.226,0.794-0.338,1.195c-0.117,0.398-0.232,0.798-0.347,1.19c-0.113,0.395-0.232,0.778-0.344,1.153
			c-0.109,0.372-0.222,0.73-0.325,1.074c-0.104,0.341-0.205,0.663-0.298,0.962c-0.093,0.295-0.18,0.568-0.258,0.81
			c-0.076,0.241-0.145,0.451-0.202,0.623c-0.055,0.173-0.102,0.309-0.132,0.402c-0.032,0.092-0.048,0.14-0.048,0.14
			s0.013-0.048,0.036-0.146c0.021-0.093,0.055-0.236,0.1-0.411c0.043-0.176,0.097-0.392,0.161-0.638
			c0.062-0.245,0.134-0.522,0.213-0.825c0.08-0.302,0.167-0.627,0.259-0.975c0.093-0.344,0.19-0.711,0.295-1.085
			c0.104-0.375,0.21-0.766,0.324-1.156c0.111-0.396,0.227-0.793,0.338-1.194c0.116-0.398,0.232-0.798,0.35-1.192
			c0.111-0.394,0.229-0.779,0.342-1.152c0.108-0.374,0.22-0.734,0.325-1.074c0.103-0.342,0.203-0.665,0.298-0.961
			c0.091-0.298,0.18-0.572,0.256-0.811c0.078-0.241,0.145-0.452,0.201-0.624c0.057-0.174,0.104-0.308,0.135-0.4
			s0.048-0.142,0.048-0.142S480.656,105.891,480.63,105.989z"/>
		<path fill="#9999D9" stroke="#9999D9" stroke-width="0.7168" stroke-miterlimit="10" d="M479.541,115.931
			c-0.358-0.091-0.792-0.202-1.293-0.33c-0.499-0.127-1.061-0.27-1.675-0.426c-0.614-0.161-1.277-0.33-1.979-0.516
			c-0.703-0.188-1.442-0.378-2.208-0.584c-0.765-0.206-1.556-0.412-2.356-0.632c-0.802-0.22-1.617-0.438-2.434-0.66
			c-0.813-0.224-1.625-0.449-2.427-0.67c-0.802-0.221-1.587-0.442-2.349-0.655c-0.765-0.213-1.499-0.422-2.196-0.62
			c-0.696-0.197-1.356-0.388-1.964-0.564c-0.608-0.175-1.165-0.336-1.655-0.481c-0.494-0.146-0.925-0.273-1.279-0.378
			c-0.706-0.212-1.109-0.332-1.109-0.332s0.41,0.102,1.129,0.28c0.357,0.09,0.794,0.2,1.294,0.327
			c0.5,0.128,1.062,0.268,1.676,0.428c0.615,0.161,1.278,0.332,1.979,0.516c0.702,0.186,1.443,0.381,2.208,0.583
			c0.766,0.207,1.555,0.415,2.357,0.634c0.801,0.219,1.614,0.438,2.43,0.66c0.813,0.226,1.627,0.447,2.429,0.67
			c0.803,0.219,1.588,0.442,2.351,0.656c0.762,0.208,1.496,0.42,2.194,0.62c0.697,0.197,1.356,0.386,1.965,0.562
			c0.605,0.178,1.162,0.338,1.658,0.481c0.491,0.148,0.919,0.272,1.276,0.376c0.706,0.212,1.109,0.333,1.109,0.333
			S480.259,116.109,479.541,115.931z"/>
		<path fill="#9999D9" stroke="#9999D9" stroke-width="0.7168" stroke-miterlimit="10" d="M478.532,112.744
			c-0.327-0.082-0.725-0.182-1.182-0.295c-0.453-0.115-0.971-0.247-1.529-0.392c-0.561-0.145-1.167-0.301-1.809-0.469
			c-0.64-0.167-1.314-0.343-2.014-0.53c-0.698-0.187-1.42-0.378-2.152-0.575c-0.732-0.2-1.477-0.402-2.22-0.603
			c-0.744-0.206-1.486-0.412-2.218-0.612c-0.729-0.199-1.447-0.404-2.144-0.599c-0.695-0.193-1.366-0.386-2.002-0.566
			c-0.637-0.18-1.237-0.357-1.793-0.517c-0.554-0.159-1.062-0.31-1.512-0.442c-0.447-0.132-0.841-0.253-1.164-0.345
			c-0.645-0.197-1.013-0.308-1.013-0.308s0.377,0.092,1.032,0.25c0.327,0.082,0.725,0.184,1.181,0.297
			c0.457,0.117,0.97,0.244,1.532,0.392c0.56,0.144,1.166,0.301,1.808,0.469c0.641,0.166,1.314,0.342,2.015,0.53
			c0.697,0.188,1.419,0.377,2.152,0.578c0.73,0.197,1.477,0.399,2.219,0.602c0.743,0.204,1.486,0.41,2.217,0.612
			c0.73,0.199,1.449,0.406,2.143,0.598c0.694,0.197,1.367,0.387,2.005,0.572c0.635,0.179,1.236,0.352,1.791,0.513
			c0.554,0.16,1.063,0.309,1.513,0.441c0.449,0.135,0.839,0.251,1.163,0.347c0.645,0.196,1.013,0.306,1.013,0.306
			S479.186,112.904,478.532,112.744z"/>
		<path fill="#9999D9" stroke="#9999D9" stroke-width="0.7168" stroke-miterlimit="10" d="M481.412,110.019
			c-0.155-0.036-0.382-0.094-0.671-0.162c-0.289-0.069-0.639-0.157-1.042-0.257c-0.401-0.098-0.854-0.212-1.348-0.339
			c-0.492-0.126-1.029-0.263-1.592-0.409c-0.563-0.147-1.159-0.302-1.774-0.467c-0.614-0.163-1.252-0.331-1.894-0.506
			c-0.646-0.177-1.301-0.353-1.954-0.53c-0.656-0.179-1.309-0.36-1.952-0.538c-0.645-0.176-1.275-0.358-1.888-0.528
			c-0.612-0.171-1.202-0.341-1.762-0.501c-0.561-0.161-1.087-0.314-1.575-0.456c-0.488-0.146-0.935-0.275-1.33-0.396
			c-0.395-0.117-0.741-0.222-1.025-0.308c-0.283-0.086-0.505-0.153-0.657-0.199c-0.151-0.049-0.233-0.073-0.233-0.073
			s0.083,0.02,0.238,0.058s0.381,0.091,0.672,0.159c0.29,0.073,0.64,0.16,1.042,0.261c0.401,0.098,0.855,0.211,1.349,0.34
			c0.493,0.126,1.027,0.261,1.592,0.408c0.564,0.149,1.159,0.3,1.774,0.466c0.613,0.164,1.251,0.332,1.896,0.507
			c0.645,0.173,1.298,0.352,1.952,0.53c0.654,0.18,1.309,0.359,1.952,0.538c0.642,0.174,1.274,0.358,1.886,0.529
			c0.612,0.17,1.204,0.341,1.762,0.501c0.562,0.159,1.09,0.315,1.576,0.456c0.487,0.143,0.936,0.276,1.33,0.394
			c0.396,0.117,0.741,0.223,1.026,0.307c0.281,0.087,0.505,0.156,0.655,0.202c0.152,0.046,0.233,0.07,0.233,0.07
			S481.568,110.057,481.412,110.019z"/>
	</g>
	<g>
		<g>
			<path fill="#FFFFFF" d="M491.201,47.915l-15.075,26.507l-0.004,0.006c-0.101,0.179-0.327,0.242-0.506,0.14
				c-0.106-0.062-0.172-0.169-0.186-0.283l-4.345-39.96l5.084,39.873l-0.695-0.137l14.438-26.859c0.192-0.359,0.64-0.493,0.998-0.3
				c0.358,0.192,0.492,0.639,0.3,0.997C491.208,47.903,491.204,47.911,491.201,47.915z"/>
		</g>
		<g>
			<path fill="#FFFFFF" d="M453.605,47.853c1.976,2.094,3.88,4.246,5.821,6.368l5.705,6.466c1.911,2.146,3.77,4.338,5.649,6.512
				l5.581,6.57c0.263,0.309,0.226,0.771-0.084,1.034c-0.261,0.222-0.633,0.229-0.9,0.039l-9.651-6.822
				c-3.198-2.303-6.422-4.567-9.598-6.901l-9.553-6.964c-3.152-2.366-6.335-4.69-9.462-7.093c3.321,2.127,6.586,4.333,9.882,6.496
				l9.79,6.626c3.271,2.197,6.495,4.462,9.746,6.69l9.69,6.766l-0.984,1.074l-5.517-6.625c-1.818-2.224-3.659-4.43-5.447-6.682
				l-5.392-6.729C457.125,52.403,455.33,50.158,453.605,47.853z"/>
		</g>
		<g>
			<path fill="#FFFFFF" d="M446.374,93.108l29.219-19.176l0.007-0.004c0.171-0.112,0.401-0.064,0.514,0.106
				c0.082,0.125,0.079,0.281,0.006,0.399l-18.697,30.421l18.06-30.804l0.526,0.5l-28.812,19.781
				c-0.335,0.229-0.794,0.144-1.024-0.191c-0.229-0.336-0.145-0.794,0.19-1.024C446.365,93.115,446.371,93.11,446.374,93.108z"/>
		</g>
		<g>
			<path fill="#FFFFFF" d="M478.037,44.52l-1.883,29.739l-0.413-0.366l27.211-4.301l-27.092,4.999
				c-0.19,0.035-0.373-0.091-0.408-0.282c-0.005-0.024-0.006-0.05-0.006-0.074l0.001-0.011l1.118-29.778
				c0.016-0.406,0.357-0.724,0.765-0.709c0.406,0.016,0.724,0.357,0.708,0.765C478.038,44.507,478.037,44.515,478.037,44.52z"/>
		</g>
		<g>
			<path fill="#FFFFFF" d="M486.705,100.199L475.64,74.502l-0.004-0.009c-0.083-0.192,0.006-0.414,0.198-0.496
				c0.155-0.067,0.33-0.021,0.435,0.1l17.999,20.886l-18.565-20.384l0.629-0.405l11.72,25.405c0.17,0.369,0.009,0.807-0.36,0.978
				c-0.37,0.17-0.807,0.009-0.978-0.36C486.711,100.211,486.708,100.204,486.705,100.199z"/>
		</g>
		<g>
			<path fill="#FFFFFF" d="M464.257,44.892l11.887,29.206l-0.474-0.205l33.558-12.195l-33.296,12.893
				c-0.185,0.071-0.393-0.017-0.471-0.197l-0.004-0.008l-12.558-28.923c-0.162-0.373,0.009-0.808,0.382-0.97
				c0.374-0.161,0.808,0.01,0.97,0.383C464.253,44.881,464.256,44.888,464.257,44.892z"/>
		</g>
		<g>
			<path fill="#FFFFFF" d="M465.941,102.373l9.522-28.239l0.304,0.461l-27.401-2.892l27.467,2.188
				c0.193,0.015,0.337,0.184,0.321,0.376c-0.002,0.026-0.007,0.051-0.014,0.074l-0.003,0.01l-8.795,28.476
				c-0.12,0.389-0.532,0.606-0.921,0.486c-0.389-0.12-0.606-0.532-0.486-0.921C465.937,102.385,465.939,102.378,465.941,102.373z"/>
		</g>
		<g>
			<path fill="#FFFFFF" d="M455.414,67.099l20.497,6.787l0.01,0.004c0.194,0.064,0.3,0.274,0.235,0.469
				c-0.05,0.152-0.19,0.25-0.343,0.255l-43.145,1.189l43.118-1.933l-0.098,0.728l-20.715-6.092c-0.39-0.114-0.613-0.524-0.499-0.914
				c0.115-0.39,0.524-0.614,0.915-0.499C455.397,67.094,455.407,67.098,455.414,67.099z"/>
		</g>
		<g>
			<path fill="#FFFFFF" d="M500.313,57.301l-24.295,17.255c-0.033,0.024-0.069,0.042-0.106,0.052l-0.013,0.003l-20.514,5.876
				c-0.392,0.111-0.799-0.114-0.911-0.506c-0.112-0.39,0.114-0.799,0.505-0.911c0.007-0.002,0.018-0.004,0.024-0.006l20.697-5.192
				l-0.118,0.054L500.313,57.301z"/>
		</g>
		<g>
			<path fill="#FFFFFF" d="M453.985,99.614l21.527-25.608L475.518,74c0.132-0.158,0.366-0.177,0.522-0.045
				c0.088,0.073,0.133,0.18,0.133,0.287l-0.372,39.509l-0.372-39.509l0.659,0.236l-20.965,26.071
				c-0.255,0.318-0.718,0.367-1.035,0.112c-0.317-0.255-0.367-0.719-0.112-1.035C453.978,99.623,453.982,99.617,453.985,99.614z"/>
		</g>
		<g>
			<path fill="#FFFFFF" d="M494.57,87.9l-18.979-13.35l-0.011-0.008c-0.168-0.118-0.208-0.349-0.09-0.517
				c0.093-0.133,0.258-0.185,0.406-0.143l17.351,5.008l-17.543-4.288l0.305-0.667l19.389,12.748c0.34,0.223,0.434,0.68,0.21,1.02
				c-0.223,0.34-0.68,0.434-1.02,0.211C494.583,87.909,494.576,87.904,494.57,87.9z"/>
		</g>
	</g>
	<g>
		<polygon fill="#FF6666" points="496.875,64.367 494.984,65.876 501.753,75.077 503.515,73.927 499.453,68.082 		"/>
		<path fill="#FF6666" d="M496.726,70.616l-3.971-4.507l-2.499,0.202l-0.318-2.724c0,0-2.066-3.054-10.868,0.5l-0.201-1.261
			c0,0,6.062-3.929,12.935,0.106l1.763-0.969l5.406,6.429L496.726,70.616z"/>
		<path fill="#7147E5" d="M496.177,70.025c-0.479-0.258-0.886,0.333-1.3,0.202c-1.164-0.359-0.449-1.822,0.396-2.045
			c0.714-0.19,1.455-0.302,2.125-0.628c0.424-0.209,1.034-0.199,0.863-0.839c-0.12-0.45-0.434-1.115-0.729-1.472
			c0.384-0.005,0.861,0.294,1.228,0.418c0.496,0.172,0.993,0.535,1.358,0.904c0.542,0.553,1.095,1.095,1.609,1.676
			c0.839,0.942,1.529,1.532,2.766,1.917c1.135,0.35,2.337,0.458,3.519,0.414c0.886-0.032,8.033-0.891,8.13-0.026
			c0.189,1.744,1.056,4.924,0.259,6.504c-1.987-0.702-4.279-0.944-6.34-1.417c-1.954-0.451-3.271,0.956-5.177,0.785
			c-0.832-0.075-2.049-0.872-2.97-1.064c-1.284-0.265-1.841,1.079-3.136,0.896c-1.43-0.202-0.331-1.425,0.087-2.137
			c-0.461,0.343-1.404,0.984-1.947,0.442c-0.699-0.698,0.146-1.831,0.292-2.524c-0.457,0.31-1.45,0.784-1.857,0.236
			c-0.501-0.675,0.381-1.836,0.71-2.456"/>
	</g>
	<path fill="#9999D9" d="M537.461,78.947l-25.213-1.844l-0.857-6.774c0,0,26.053-3.619,26.053-3.621
		c3.171-8.238,5.638-35.129,21.389-32.785c13.551,2.018-3.272,30.902-7.133,35.065C547.238,73.805,544.26,78.435,537.461,78.947z"/>
</g>
</svg>
