<?xml version="1.0" encoding="utf-8"?>
<!-- Generator: Adobe Illustrator 19.2.1, SVG Export Plug-In . SVG Version: 6.00 Build 0)  -->
<svg version="1.1" id="Layer_1" xmlns="http://www.w3.org/2000/svg" xmlns:xlink="http://www.w3.org/1999/xlink" x="0px" y="0px"
	 viewBox="0 0 500 345" style="enable-background:new 0 0 500 345;" xml:space="preserve">
<style type="text/css">
	.st0{opacity:0.7;}
	.st1{fill:#2A1F48;}
	.st2{fill:#FFFFFF;}
	.st3{fill:#623ED9;}
	.st4{fill:#DBDBDB;}
	.st5{fill:#C4C4C4;}
	.st6{fill:#BCBCBC;}
	.st7{fill:none;}
	.st8{opacity:0.46;}
	.st9{fill:#B831FF;}
	.st10{opacity:0.69;}
	.st11{fill:#662D91;}
	.st12{fill:#DC3B78;}
	.st13{fill:#888889;}
	.st14{fill:#4F3AB5;}
	.st15{fill:#6D6E71;}
</style>
<g class="st0">
	<path class="st1" d="M350.9,53.3c-21.6-21.6-50.4-33.6-81-33.6c-30.6,0-59.4,11.9-81,33.6c-21.6,21.6-33.6,50.4-33.6,81
		s11.9,59.4,33.6,81c21.6,21.6,50.4,33.6,81,33.6c30.6,0,59.4-11.9,81-33.6c21.6-21.6,33.6-50.4,33.6-81S372.5,74.9,350.9,53.3z"/>
</g>
<g class="st0">
	<path class="st1" d="M114.9,173.6c0-0.8,0-1.7,0.1-2.7c0-0.2,0-0.4,0-0.6c0-0.1,0-0.1,0-0.2c0-0.2,0-0.3,0-0.5c0-0.1,0-0.2,0-0.3
		c0-0.2,0-0.4,0-0.5c0-0.1,0-0.1,0-0.2c0-0.3,0-0.5,0-0.8c0,0,0,0,0,0c0-0.3,0-0.5,0-0.8c0,0,0-0.1,0-0.1c0-0.3,0-0.5,0-0.8
		c0,0,0-0.1,0-0.1c0-0.6,0-1.3,0.1-2c0,0,0,0,0-0.1c0-0.6,0-1.3,0.1-2c0,0,0,0,0-0.1c0-0.2,0-0.4,0-0.6c0-0.1,0-0.2,0-0.4
		c0-0.2,0-0.3,0-0.5c0,0,0-0.1,0-0.1c0-0.9,0.1-1.9,0.1-2.9c0,0,0,0,0,0c0-0.2,0-0.4,0-0.7c0-0.4,0-0.8,0-1.2c0-0.3,0-0.6,0-0.9
		c0.2-5.7,0.4-12,0.6-17.7c0,0,0,0,0,0c0-0.3,0-0.5,0-0.8c0,0,0-0.1,0-0.1c0.3-7.4,0.5-13.9,0.5-17.3l0,0c0,0,0,0,0,0
		c0-0.1,0-0.2,0-0.4c0,0,0,0,0,0c0,0,0,0,0,0c0,0,0,0,0,0l0,0c0-0.1,0-0.2,0-0.3c0,0,0-0.1,0-0.1c0-0.1,0-0.1,0-0.2
		c0-0.1,0-0.2,0-0.3c0-0.2,0-0.4,0-0.6c0-0.1,0-0.1,0-0.2c0-0.1,0-0.3,0-0.5c0,0,0-0.1,0-0.1c0-0.2,0-0.4,0-0.6c0,0,0-0.1,0-0.1
		c0-0.2,0-0.3-0.1-0.5c0-0.1,0-0.1,0-0.2c0-0.2,0-0.4-0.1-0.6c0,0,0-0.1,0-0.1c0-0.2-0.1-0.4-0.1-0.7c0-0.1,0-0.1,0-0.2
		c0-0.2-0.1-0.3-0.1-0.5c0-0.1,0-0.1,0-0.2c0-0.2-0.1-0.4-0.1-0.7c0,0,0-0.1,0-0.1c0-0.2-0.1-0.4-0.1-0.6c0-0.1,0-0.1,0-0.2
		c0-0.2-0.1-0.4-0.1-0.5c0,0,0-0.1,0-0.1c0-0.2-0.1-0.4-0.1-0.6c0,0,0-0.1,0-0.1c0-0.2-0.1-0.3-0.1-0.5c0-0.1,0-0.1,0-0.2
		c-0.1-0.4-0.2-0.8-0.3-1.2c0,0,0-0.1,0-0.1c0-0.2-0.1-0.3-0.1-0.5c0,0,0,0,0-0.1c-0.3-1.5-0.6-2.5-0.6-2.5l2.8-11.7l-0.4-29
		c0,0,0,0,0,0c0,0,0,0,0,0c0,0,0,0,0-0.1c0,0,0,0,0,0c0,0,0-0.1-0.1-0.2c0,0,0,0,0,0c0-0.1,0-0.1-0.1-0.2c0,0,0,0,0,0
		c0-0.1-0.1-0.1-0.1-0.2c0,0,0-0.1,0-0.1c0-0.1-0.1-0.2-0.1-0.3c0,0,0,0,0-0.1c0-0.1-0.1-0.2-0.1-0.4c0,0,0,0,0-0.1
		c0-0.1-0.1-0.2-0.1-0.4c0,0,0-0.1,0-0.1c0-0.1-0.1-0.2-0.2-0.4c0,0,0-0.1,0-0.1c-0.1-0.2-0.1-0.3-0.2-0.5c0,0,0,0,0,0
		c-0.1-0.2-0.1-0.3-0.2-0.5c0,0,0-0.1-0.1-0.1c-0.1-0.1-0.1-0.3-0.2-0.5c0,0,0-0.1-0.1-0.1c-0.2-0.4-0.4-0.8-0.6-1.2
		c0-0.1-0.1-0.1-0.1-0.2c-0.1-0.2-0.2-0.3-0.2-0.5c0-0.1-0.1-0.1-0.1-0.2c-0.1-0.2-0.2-0.4-0.3-0.6v0c0,0,0,0,0,0
		c-0.1-0.3-0.3-0.5-0.4-0.8c0,0,0-0.1-0.1-0.1c-0.1-0.2-0.2-0.4-0.4-0.7c0,0-0.1-0.1-0.1-0.1c-0.3-0.5-0.6-1-0.9-1.6
		c0-0.1-0.1-0.1-0.1-0.2c-0.1-0.2-0.3-0.4-0.4-0.7c0,0-0.1-0.1-0.1-0.1c-0.2-0.3-0.3-0.5-0.5-0.8c0-0.1-0.1-0.1-0.1-0.2
		c-0.1-0.2-0.3-0.4-0.4-0.6c0-0.1-0.1-0.1-0.1-0.2c-0.2-0.3-0.3-0.5-0.5-0.8c-4.6-6.7-12.3-8.7-19.1-10.4C84.6,38,75,37.3,70.4,37.3
		c0,0,0,0,0,0c0,0,0,0,0,0c-4.6,0-13.9,0.7-20.1,2.3c-6.8,1.8-14.5,3.7-19.1,10.4c-0.2,0.3-0.4,0.5-0.5,0.8c0,0.1-0.1,0.1-0.1,0.2
		c-0.1,0.2-0.3,0.4-0.4,0.6c0,0.1-0.1,0.1-0.1,0.2c-0.2,0.3-0.3,0.5-0.5,0.8c0,0-0.1,0.1-0.1,0.1c-0.1,0.2-0.3,0.4-0.4,0.7
		c0,0.1-0.1,0.1-0.1,0.2c-0.3,0.5-0.6,1.1-0.9,1.6c0,0,0,0.1-0.1,0.1c-0.1,0.2-0.2,0.5-0.4,0.7c0,0,0,0.1,0,0.1
		c-0.2,0.5-0.5,0.9-0.7,1.4c0,0.1-0.1,0.1-0.1,0.2c-0.1,0.2-0.2,0.3-0.2,0.5c0,0.1-0.1,0.1-0.1,0.2c-0.2,0.4-0.4,0.8-0.6,1.2
		c0,0,0,0.1-0.1,0.1c-0.1,0.2-0.1,0.3-0.2,0.4c0,0,0,0.1-0.1,0.1c-0.1,0.2-0.1,0.3-0.2,0.5c0,0,0,0,0,0c-0.1,0.2-0.1,0.3-0.2,0.5
		c0,0,0,0.1,0,0.1c-0.1,0.1-0.1,0.3-0.2,0.4c0,0,0,0.1,0,0.1c-0.1,0.1-0.1,0.2-0.1,0.4c0,0,0,0,0,0.1c-0.1,0.1-0.1,0.3-0.1,0.4
		c0,0,0,0,0,0c0,0.1-0.1,0.2-0.1,0.3c0,0,0,0,0,0.1c0,0.1-0.1,0.2-0.1,0.2c0,0,0,0,0,0c0,0.1-0.1,0.2-0.1,0.2c0,0,0,0,0,0
		c0,0.1,0,0.1-0.1,0.2c0,0,0,0,0,0c0,0,0,0.1,0,0.1c0,0,0,0,0,0c0,0,0,0,0,0l-0.1,12l-0.2,17l2.4,9.9v0l0.4,1.8c0,0-0.2,0.8-0.5,2
		c0,0.2-0.1,0.3-0.1,0.5c0,0,0,0,0,0c0,0.2-0.1,0.3-0.1,0.5c0,0,0,0.1,0,0.1c-0.1,0.4-0.2,0.8-0.3,1.2c0,0,0,0.1,0,0.1
		c0,0.2-0.1,0.3-0.1,0.5c0,0,0,0.1,0,0.1c0,0.2-0.1,0.4-0.1,0.6c0,0,0,0.1,0,0.1c0,0.2-0.1,0.4-0.1,0.5c0,0.1,0,0.1,0,0.2
		c0,0.2-0.1,0.4-0.1,0.6c0,0,0,0,0,0.1c0,0.2-0.1,0.4-0.1,0.7c0,0.1,0,0.1,0,0.2c0,0.2-0.1,0.3-0.1,0.5c0,0.1,0,0.1,0,0.2
		c0,0.2-0.1,0.4-0.1,0.7c0,0,0,0.1,0,0.1c0,0.2,0,0.4-0.1,0.6c0,0.1,0,0.1,0,0.2c0,0.2,0,0.3-0.1,0.5c0,0,0,0.1,0,0.1
		c0,0.2,0,0.4,0,0.6c0,0,0,0.1,0,0.1c0,0.2,0,0.3,0,0.5c0,0.1,0,0.1,0,0.2c0,0.2,0,0.4,0,0.6c0,0,0,0.1,0,0.2c0,0,0,0.1,0,0.1
		c0,0.1,0,0.2,0,0.3c0,0,0,0,0,0c0,4,0.4,14,0.8,24.6c0.1,3.1,0.2,6.3,0.3,9.4c0,0.6,0,1.3,0.1,1.9c0,0.6,0,1.1,0.1,1.7
		c0,0.4,0,0.8,0,1.2c0,0.1,0,0.3,0,0.4c0,0.1,0,0.3,0,0.4c0,0.1,0,0.3,0,0.4c0,0.1,0,0.3,0,0.4c0,0.6,0,1.3,0.1,1.9c0,0,0,0.1,0,0.1
		c0,0.2,0,0.3,0,0.5c0,0.1,0,0.2,0,0.4c0,0.2,0,0.3,0,0.5c0,0.1,0,0.1,0,0.2c0,0.2,0,0.4,0,0.5c0,0.1,0,0.2,0,0.3c0,0.4,0,0.7,0,1.1
		c0,0,0,0,0,0.1c0,0.7,0,1.3,0.1,2c0,0,0,0.1,0,0.1c0,0.3,0,0.5,0,0.8c0,0,0,0.1,0,0.1c0,0.3,0,0.6,0,0.8c0,0,0,0,0,0
		c0,0.3,0,0.5,0,0.8c0,0,0,0.1,0,0.1c0,0.2,0,0.4,0,0.6c0,0.1,0,0.1,0,0.2c0,0.2,0,0.4,0,0.5c0,0,0,0.1,0,0.1c0,0.2,0,0.4,0,0.7
		c0,0.8,0,1.6,0.1,2.3c0,0.1,0,0.2,0,0.3l-7.6-2.8c0,0,0,0.6,0.2,1.4c0.2,1.1,0.7,2.6,1.8,4c1.4,1.7,4.2,2.8,5.8,3.4
		c0,1.1,0.1,2.1,0.1,2.9c0,0.4,0,0.7,0,1c0,0.2,0,0.4,0,0.6c0,0.1,0,0.2,0,0.2c0,0.1,0,0.2,0,0.3c0,0,0,0,0,0c0,0.3,0,0.5,0,0.5
		s-0.1,0.1-0.3,0.2c-0.1,0.1-0.2,0.1-0.3,0.2c-0.1,0.1-0.2,0.2-0.4,0.3c-0.1,0.1-0.2,0.3-0.4,0.4c-0.1,0.1-0.1,0.2-0.2,0.2
		c-0.3,0.4-0.5,0.9-0.6,1.4c0,0.1,0,0.1,0,0.2c0,0,0,0,0,0c0,0,0,0,0,0.1c0,0,0,0.1,0,0.1c0,0,0,0.1,0,0.1c0,0,0,0.1,0,0.1
		c0,0,0,0.1,0,0.1c0,0,0,0.1,0,0.1c0,0.1,0,0.1,0,0.2c0,0,0,0,0,0.1c0,0.1,0,0.1,0,0.2c0,0,0,0,0,0.1c0,0,0,0.1,0,0.1
		c0,0,0,0.1,0,0.1c0,0,0,0,0,0c-0.1,0.6-0.1,1.4-0.2,2.2c0,0.1,0,0.2,0,0.4c-0.2,2.2-0.3,4.8-0.3,6.1c0,0.9,0.2,4.7,0.3,9
		c0,0.4,0,0.8,0.1,1.2s0,0.8,0.1,1.3c0.1,1.5,0.1,3,0.2,4.4c0,0,0,0,0,0c0.2,0.3,0.3,0.6,0.5,0.9c-0.2-0.4-0.4-0.7-0.5-0.9
		c0.2,4.8,0.4,8.9,0.4,8.9c2.4,4.8,5.3,9.9,9.2,13.8c0.7,0.7,1.3,1.3,2.1,1.9c0.9,1.3,2.1,2.3,3.3,3.3c0.6,0.5,1.2,1,1.8,1.5
		c2.2,1.9,4.9,3.9,7.8,3.4c0.7-0.1,1.4-0.4,2-0.8c0,0,0.1,0.1,0.1,0.1c0.8,0.2,1.6,0.4,2.5,0.5c6.5,1.2,13.1,1.3,16.9,1.2
		c3.8,0.1,10.8,0,17.3-1.2c0.9-0.2,1.7-0.3,2.5-0.5c0-0.1,0.1-0.1,0.1-0.2c0.6,0.4,1.3,0.7,2,0.8c1.8,0.3,3.5-0.4,5-1.3
		c0.9-0.2,1.7-0.5,2.6-0.9c1.2-0.6,2.7-1.6,3.1-2.9c-0.4-0.2-0.9,0.1-1.4,0.4c0.1-0.1,0.2-0.1,0.2-0.2c1.1-0.9,2.2-1.9,3.1-3
		c0.8-0.7,1.6-1.4,2.4-2.1c3.9-3.9,6.8-9,9.2-13.8c0,0,0-4,0.2-8.9c-0.1,0.2-0.2,0.5-0.5,1c0.2-0.3,0.3-0.6,0.5-1
		c0.3-6.5,0.6-14.5,0.6-15.9c0-2-0.2-6.2-0.5-8.7c0,0,0,0,0,0c0-0.1,0-0.2,0-0.2c0,0,0,0,0-0.1c0-0.1,0-0.1,0-0.2c0,0,0,0,0-0.1
		c0-0.1,0-0.1,0-0.2c0,0,0-0.1,0-0.1c0,0,0-0.1,0-0.1c0,0,0-0.1,0-0.1c0,0,0-0.1,0-0.1c0,0,0-0.1,0-0.1c0,0,0-0.1,0-0.1
		c0-0.1,0-0.1,0-0.2c-0.4-1.8-2.1-2.8-2.1-2.8s0-0.2,0-0.5c0,0,0,0,0,0c0-0.8,0.1-2.5,0.1-5c1.6-0.5,4.4-1.6,5.8-3.4
		c1.1-1.4,1.6-2.9,1.8-4c0.2-0.8,0.2-1.4,0.2-1.4L114.9,173.6z M70.4,37.3C70.4,37.3,70.4,37.3,70.4,37.3
		C70.3,37.3,70.3,37.3,70.4,37.3z M99.5,244c-0.1,0.1-0.3,0.2-0.4,0.2c0.3-0.3,0.6-0.5,0.9-0.8c0.3-0.2,0.5-0.5,0.8-0.7
		C100.3,243.2,99.9,243.7,99.5,244z"/>
</g>
<g>
	<circle class="st2" cx="268.9" cy="131.6" r="113.4"/>
</g>
<g>
	<g>
		<path class="st3" d="M150,202.1C150,202.1,150,202.1,150,202.1l-15.8-0.2l0-2.3l15.2,0.2l67.4-81.6l1.8,1.5l-67.7,82
			C150.7,201.9,150.3,202.1,150,202.1z"/>
	</g>
</g>
<g>
	<g>
		<path class="st2" d="M98.9,228.3c0.9-1.7,3.7-1.6,4.9-0.1s1.1,3.8,0.2,5.5c-0.9,1.7-2.4,3-3.9,4.2c-0.6,0.5-1.2,1-1.8,1.5
			c-2.2,1.9-4.9,3.9-7.8,3.4c-2.2-0.4-4.1-2.5-4-4.7c0.1-2.4,2.2-4.3,4.3-5.6c3.2-2.1,6.8-3.7,10.3-5.3"/>
	</g>
	<g>
		<path class="st2" d="M38.8,228.3c-0.9-1.7-3.7-1.6-4.9-0.1c-1.2,1.5-1.1,3.8-0.2,5.5c0.9,1.7,2.4,3,3.9,4.2c0.6,0.5,1.2,1,1.8,1.5
			c2.2,1.9,4.9,3.9,7.8,3.4c2.2-0.4,4.1-2.5,4-4.7c-0.1-2.4-2.2-4.3-4.3-5.6c-3.2-2.1-6.8-3.7-10.3-5.3"/>
	</g>
	<g id="XMLID_483_">
		<path class="st4" d="M22.6,113.3c0,6.9,1.5,42.4,1.8,53.6c0.2,8.5,0.4,14.2,0.4,14.2s-1.8,1.1-2.1,2.8c-0.4,1.8-0.7,7.8-0.7,10.3
			c0,1.4,0.3,9.4,0.6,15.9c5.8,11.7,16.4,19.5,24.8,30c0.5,0.7,1.1,1.4,1.8,2.1c0.8,0.2,1.6,0.4,2.5,0.5c6.5,1.2,13.1,1.3,16.9,1.2
			c3.8,0.1,10.8,0,17.3-1.2c0.9-0.2,1.7-0.3,2.5-0.5c0.6-0.7,1.2-1.4,1.8-2.1c8.4-10.4,19-18.3,24.8-30c0.3-6.5,0.6-14.5,0.6-15.9
			c0-2.5-0.4-8.5-0.7-10.3c-0.4-1.8-2.1-2.8-2.1-2.8s0.2-5.7,0.4-14.2c0.3-11.2,1.8-46.7,1.8-53.6c0-4.6-2.1-12.8-2.1-12.8l2.8-11.7
			l-0.4-29c0,0-2.5-7.1-7.1-13.8c-4.6-6.7-12.3-8.7-19.1-10.4c-6.2-1.6-15.8-2.3-20.5-2.3c0,0,0,0,0,0c0,0,0,0,0,0
			c-4.6,0-13.9,0.7-20.1,2.3C41.7,37.4,34,39.3,29.4,46s-7.1,13.8-7.1,13.8l-0.4,29l2.8,11.7C24.8,100.5,22.6,108.7,22.6,113.3z
			 M68.6,33.3C68.6,33.3,68.7,33.3,68.6,33.3C68.6,33.3,68.6,33.3,68.6,33.3z"/>
	</g>
	<g id="XMLID_480_">
		<path class="st4" d="M22.6,113.3c0,6.9,1.5,42.4,1.8,53.6c0.2,8.5,0.4,14.2,0.4,14.2s-1.8,1.1-2.1,2.8c-0.4,1.8-0.7,7.8-0.7,10.3
			c0,1.4,0.3,9.4,0.6,15.9c5.8,11.7,16.4,19.5,24.8,30c0.5,0.7,1.1,1.4,1.8,2.1c0.8,0.2,1.6,0.4,2.5,0.5c6.5,1.2,13.1,1.3,16.9,1.2
			c3.8,0.1,10.8,0,17.3-1.2c0.9-0.2,1.7-0.3,2.5-0.5c0.6-0.7,1.2-1.4,1.8-2.1c8.4-10.4,19-18.3,24.8-30c0.3-6.5,0.6-14.5,0.6-15.9
			c0-2.5-0.4-8.5-0.7-10.3c-0.4-1.8-2.1-2.8-2.1-2.8s0.2-5.7,0.4-14.2c0.3-11.2,1.8-46.7,1.8-53.6c0-4.6-2.1-12.8-2.1-12.8l2.8-11.7
			l-0.4-29c0,0-2.5-7.1-7.1-13.8c-4.6-6.7-12.3-8.7-19.1-10.4c-6.2-1.6-15.8-2.3-20.5-2.3c0,0,0,0,0,0c0,0,0,0,0,0
			c-4.6,0-13.9,0.7-20.1,2.3C41.7,37.4,34,39.3,29.4,46s-7.1,13.8-7.1,13.8l-0.4,29l2.8,11.7C24.8,100.5,22.6,108.7,22.6,113.3z
			 M68.6,33.3C68.6,33.3,68.7,33.3,68.6,33.3C68.6,33.3,68.6,33.3,68.6,33.3z"/>
	</g>
	<g id="XMLID_479_">
		<path d="M107.7,106.6l-0.1-0.1l0,0c0-0.6,0-1.2-0.1-1.8l0.1,0C107.6,105.9,107.7,106.6,107.7,106.6L107.7,106.6z"/>
	</g>
	<g id="XMLID_478_">
		<path class="st1" d="M108.2,117c-0.3-3.1-0.6-5.3-0.6-5.3l-6.4-0.4c0,0,0,2-0.1,5L108.2,117z"/>
	</g>
	<g id="XMLID_477_">
		<path class="st5" d="M113,112.5c0.7,15.8-0.6,31.7,0.4,47.4c0.5-14.1,1.4-38.5,1.5-45.7"/>
	</g>
	<g id="XMLID_476_">
		<path class="st5" d="M108.2,117c0,0.5,0.1,0.9,0.1,1.4c0.3,3.8,0.5,62.8,0.5,62.8l-0.1,2.8c0,0,0,0,0,0c0.3,1.3,0.9,2.8,2.2,3.1
			c0.7,0.2,1.5-0.2,2.2-0.5c0.7-0.3,1.4-0.6,2.1-1c-0.1-0.8-0.2-1.4-0.2-1.8c-0.4-1.8-2.1-2.8-2.1-2.8s0.2-5.7,0.4-14.2
			c0-1.8,0.1-4.2,0.2-7c-1-15.7,0.3-31.6-0.4-47.4c-0.3-0.2-0.7-0.3-1.1-0.4c-1.4-0.3-2.8-0.1-4.2,0.3
			C107.8,113.4,108,115,108.2,117z"/>
	</g>
	<g id="XMLID_475_">
		<path class="st4" d="M104,179.7c0,0,0.8,3.4,0.8,5.6c0,2.2,0.1,4.6,0.1,4.6l0.8,0.3c0,0,1.4,1.4,1.9,6.9
			c0.4,4.5-0.4,19.5-0.7,24.8c3.1-3.6,5.9-7.4,8-11.7c0.3-6.5,0.6-14.5,0.6-15.9c0-2.5-0.4-8.5-0.7-10.3c-0.4-1.8-2.1-2.8-2.1-2.8
			s0-0.2,0-0.5c-0.5,0.3-1,0.6-1.4,0.6c-0.9,0.1-2.6,0-2.6,0l-0.1,3c0,0-0.3,1.6-0.8,0.7c-0.5-0.9-1.5-7-1.5-7L104,179.7z"/>
	</g>
	<g id="XMLID_474_">
		<path d="M99.7,193.1c3.1-1.8,5.2-3.2,5.2-3.2s-0.1-2.4-0.1-4.6c0-2.2-0.8-5.6-0.8-5.6l0,0c-0.2,0-0.4,0.1-0.6,0.1
			C103.6,184.5,101.6,188.9,99.7,193.1z"/>
		<path d="M99.3,193.5l0.2-0.5c1.8-4,3.9-8.5,3.7-13.3l0-0.2h0.2c0.2,0,0.4,0,0.6-0.1l0.2,0l0,0.2c0,0.2,0.8,3.4,0.8,5.6
			c0,2.1,0.1,4.6,0.1,4.6l0,0.1L105,190c0,0-2.1,1.5-5.2,3.2L99.3,193.5z M103.6,179.9c0.2,4.6-1.7,8.9-3.5,12.8
			c2.5-1.4,4.3-2.7,4.7-2.9c0-0.5-0.1-2.6-0.1-4.5c0-1.9-0.6-4.7-0.8-5.4C103.8,179.9,103.7,179.9,103.6,179.9z"/>
	</g>
	<g id="XMLID_473_">
		<path d="M100.9,129.8c-0.1,7.2,0.3,16.4,0.7,20.3c0.4,3.9,4.9,27.8,4.9,27.8s0.9,6.1,1.5,7c0.5,0.9,0.8-0.7,0.8-0.7l0.1-3
			c0,0-0.3-59-0.5-62.8c0-0.5-0.1-1-0.1-1.4l-7-0.8C101.1,120.2,100.9,125.7,100.9,129.8z"/>
		<path d="M108.2,185.4c-0.2,0-0.4-0.3-0.5-0.4c-0.6-1-1.5-6.8-1.5-7.1c0-0.2-4.5-23.9-4.9-27.8c-0.4-4.2-0.8-13.4-0.7-20.3l0,0
			c0.1-4.1,0.2-9.7,0.3-13.6l0-0.2l7.4,0.8l0,0.1c0,0.5,0.1,0.9,0.1,1.4c0.3,3.8,0.5,62.3,0.5,62.8l-0.1,3
			C108.8,184.6,108.7,185.3,108.2,185.4C108.3,185.4,108.3,185.4,108.2,185.4z M101,129.8c-0.1,7,0.2,16.1,0.7,20.3
			c0.4,3.9,4.8,27.5,4.9,27.7c0.3,2.1,1.1,6.3,1.5,7c0.1,0.2,0.2,0.2,0.2,0.2c0.1,0,0.3-0.4,0.3-0.8l0.1-3c0-0.6-0.3-59.1-0.5-62.8
			c0-0.4-0.1-0.9-0.1-1.3l-6.7-0.8C101.2,120.4,101.1,125.8,101,129.8L101,129.8z"/>
	</g>
	<g id="XMLID_472_">
		<path class="st1" d="M101.9,116.3c0,3.3-0.1,10.3-0.2,14.1c-0.1,5,0.7,18,0.9,20.9c0.3,2.8,2.8,17.6,2.8,17.6l2.3-0.3l-0.4-51.6
			L101.9,116.3z"/>
	</g>
	<g id="XMLID_471_">
		<path class="st4" d="M113.2,98.7l2.4-9.9L115.3,63c-0.7-1.9-1.8-3.5-3-5.2C112.9,77.7,113.1,90.5,113.2,98.7z"/>
	</g>
	<g id="XMLID_470_">
		<path class="st4" d="M115.3,63l0-3.2c0,0-1.1-3-3.1-7c0,1.7,0.1,3.4,0.1,5C113.5,59.4,114.6,61.1,115.3,63z"/>
	</g>
	<g id="XMLID_469_">
		<path class="st5" d="M113.2,112.7l-0.2-0.2C113,112.5,113.1,113.5,113.2,112.7z"/>
	</g>
	<g id="XMLID_468_">
		<path class="st5" d="M115,113.3c0-3.2-1-8.1-1.7-10.8c0.1,7,0,9.5-0.1,10.2l1.7,2C114.9,114.2,115,113.7,115,113.3z"/>
	</g>
	<g id="XMLID_467_">
		<path d="M107.6,111.7c0,0,0.1-7.2-0.7-13.1c-0.8-6-5-22.2-5-22.2l-0.7,34.9L107.6,111.7z"/>
		<path d="M107.8,111.9l-6.7-0.4l0.7-36.3l0.3,1.2c0,0.2,4.2,16.3,5,22.2c0.8,5.9,0.7,13.1,0.7,13.2L107.8,111.9z M101.4,111.1
			l6,0.4c0-1.1,0.1-7.6-0.7-12.9c-0.7-4.9-3.7-17.2-4.7-21L101.4,111.1z"/>
	</g>
	<g id="XMLID_466_">
		<path d="M107.7,106.6l-0.1-0.1l0,0c0-0.6,0-1.2-0.1-1.8l0.1,0C107.6,105.9,107.7,106.6,107.7,106.6L107.7,106.6z"/>
	</g>
	<g id="XMLID_465_">
		<path class="st1" d="M106.2,108l-3.5,0.1c0,0-0.7,0.3-0.7-1.1c0-1.4,0-12.7,0.1-15.7c0.1-1.8,0.2-4.4,0.3-6.2c0-0.3,0.5-0.4,0.5,0
			c0.7,3.2,2,9.4,2.4,12C106.8,107.4,106.2,108,106.2,108z"/>
	</g>
	<g id="XMLID_464_">
		<path class="st2" d="M110.6,60.8c0,0-1.2,1.5-1.8,1.2c-0.6-0.4-1.3-2.2-2.9-4.8c-1.7-2.6-10.4-14.6-10.4-14.6s6.2,1.9,9.2,4.4
			c2.9,2.5,4.8,6.6,5.2,9.4C110.2,59.1,110.6,60.8,110.6,60.8z"/>
	</g>
	<g id="XMLID_463_">
		<path class="st1" d="M34.2,179.7c-0.2,4.8,1.8,9.1,3.7,13.3c3.1,1.7,7.1,3.7,11.2,4.9c8.2,2.4,19.5,1.9,19.5,1.9
			s11.7,0.5,19.9-1.9c4-1.2,8.1-3.2,11.2-4.9c1.9-4.2,3.9-8.6,3.7-13.3c0.2,0,0.4,0,0.6-0.1l-5-27.5c0,0-10.9,1.6-18.1,1.7
			c-7.1,0.2-12.3,0-12.3,0s-4.8,0.2-11.9,0c-7.1-0.2-18.1-1.7-18.1-1.7l-5,27.5C33.8,179.7,34,179.7,34.2,179.7z"/>
	</g>
	<g id="XMLID_462_">
		<path d="M120.7,166.8l-10.1,3.7v1.3l10-3.6C120.7,167.4,120.7,166.8,120.7,166.8z"/>
		<path d="M110.4,172.1v-1.7l10.5-3.8v0.2c0,0,0,0.6-0.2,1.4l0,0.1L110.4,172.1z M110.7,170.7v1l9.7-3.5c0.1-0.5,0.1-0.8,0.1-1.1
			L110.7,170.7z"/>
	</g>
	<g id="XMLID_461_">
		<path class="st1" d="M104.6,168.6l1.8,9.4l5.4-1.9c0,0,5-1.2,6.9-3.7c1.1-1.4,1.6-2.9,1.8-4l-10,3.6v0.4h-1.7v-4.2L104.6,168.6z"
			/>
	</g>
	<g id="XMLID_460_">
		<path d="M29.9,106.6L29.9,106.6c0-0.1,0.1-0.8,0.1-1.9l0.1,0c0,0.6-0.1,1.2-0.1,1.8l0,0L29.9,106.6z"/>
	</g>
	<g id="XMLID_459_">
		<path class="st1" d="M29.4,117c0.3-3.1,0.6-5.3,0.6-5.3l6.4-0.4c0,0,0,2,0.1,5L29.4,117z"/>
	</g>
	<g id="XMLID_458_">
		<path class="st5" d="M24.6,112.5c-0.7,15.8,0.6,31.7-0.4,47.4c-0.5-14.1-1.4-38.5-1.5-45.7"/>
	</g>
	<g id="XMLID_457_">
		<path class="st5" d="M29.4,117c0,0.5-0.1,0.9-0.1,1.4c-0.3,3.8-0.5,62.8-0.5,62.8l0.1,2.8c0,0,0,0,0,0c-0.3,1.3-0.9,2.8-2.2,3.1
			c-0.7,0.2-1.5-0.2-2.2-0.5c-0.7-0.3-1.4-0.6-2.1-1c0.1-0.8,0.2-1.4,0.2-1.8c0.4-1.8,2.1-2.8,2.1-2.8s-0.2-5.7-0.4-14.2
			c0-1.8-0.1-4.2-0.2-7c1-15.7-0.3-31.6,0.4-47.4c0.3-0.2,0.7-0.3,1.1-0.4c1.4-0.3,2.8-0.1,4.2,0.3C29.7,113.4,29.6,115,29.4,117z"
			/>
	</g>
	<g id="XMLID_456_">
		<path class="st4" d="M33.6,179.7c0,0-0.8,3.4-0.8,5.6c0,2.2-0.1,4.6-0.1,4.6l-0.8,0.3c0,0-1.4,1.4-1.9,6.9
			c-0.4,4.5,0.4,19.5,0.7,24.8c-3.1-3.6-5.9-7.4-8-11.7c-0.3-6.5-0.6-14.5-0.6-15.9c0-2.5,0.4-8.5,0.7-10.3c0.4-1.8,2.1-2.8,2.1-2.8
			s0-0.2,0-0.5c0.5,0.3,1,0.6,1.4,0.6c0.9,0.1,2.6,0,2.6,0l0.1,3c0,0,0.3,1.6,0.8,0.7c0.5-0.9,1.5-7,1.5-7L33.6,179.7z"/>
	</g>
	<g id="XMLID_455_">
		<path d="M37.9,193.1c-3.1-1.8-5.2-3.2-5.2-3.2s0.1-2.4,0.1-4.6c0-2.2,0.8-5.6,0.8-5.6l0,0c0.2,0,0.4,0.1,0.6,0.1
			C34,184.5,36,188.9,37.9,193.1z"/>
		<path d="M38.3,193.5l-0.4-0.2c-3.1-1.7-5.2-3.2-5.2-3.2l-0.1-0.1l0-0.1c0,0,0.1-2.5,0.1-4.6c0-2.2,0.8-5.5,0.8-5.6l0-0.2l0.2,0
			c0.2,0,0.4,0.1,0.6,0.1h0.2l0,0.2c-0.2,4.8,1.9,9.3,3.7,13.3L38.3,193.5z M32.8,189.8c0.4,0.3,2.2,1.5,4.7,2.9
			c-1.8-3.8-3.6-8.2-3.5-12.8c-0.1,0-0.2,0-0.3,0c-0.2,0.7-0.8,3.5-0.8,5.4C33,187.1,32.9,189.3,32.8,189.8z"/>
	</g>
	<g id="XMLID_454_">
		<path d="M36.7,129.8c0.1,7.2-0.3,16.4-0.7,20.3c-0.4,3.9-4.9,27.8-4.9,27.8s-0.9,6.1-1.5,7c-0.5,0.9-0.8-0.7-0.8-0.7l-0.1-3
			c0,0,0.3-59,0.5-62.8c0-0.5,0.1-1,0.1-1.4l7-0.8C36.5,120.2,36.6,125.7,36.7,129.8z"/>
		<path d="M29.4,185.4C29.3,185.4,29.3,185.4,29.4,185.4c-0.4-0.1-0.6-0.8-0.7-1.1l-0.1-3c0-0.6,0.3-59.1,0.5-62.9
			c0-0.5,0.1-1,0.1-1.4l0-0.1l7.4-0.8l0,0.2c0.1,3.9,0.2,9.4,0.3,13.6l0,0c0.1,7-0.2,16.1-0.7,20.3c-0.4,3.9-4.8,27.5-4.9,27.8
			c0,0.2-1,6.1-1.5,7.1C29.8,185.1,29.6,185.4,29.4,185.4z M29.5,117.2c0,0.4-0.1,0.8-0.1,1.3c-0.3,3.7-0.5,62.2-0.5,62.8l0.1,3
			c0.1,0.4,0.2,0.8,0.3,0.8c0,0,0.1,0,0.2-0.2c0.4-0.7,1.1-4.9,1.5-7c0-0.2,4.5-23.9,4.9-27.8c0.4-4.2,0.8-13.3,0.7-20.3l0,0
			c-0.1-4.1-0.2-9.5-0.3-13.4L29.5,117.2z"/>
	</g>
	<g id="XMLID_453_">
		<path class="st1" d="M35.7,116.3c0,3.3,0.1,10.3,0.2,14.1c0.1,5-0.7,18-0.9,20.9c-0.3,2.8-2.8,17.6-2.8,17.6l-2.3-0.3l0.4-51.6
			L35.7,116.3z"/>
	</g>
	<g id="XMLID_452_">
		<path class="st4" d="M24.4,98.7L22,88.8L22.3,63c0.7-1.9,1.8-3.5,3-5.2C24.7,77.7,24.5,90.5,24.4,98.7z"/>
	</g>
	<g id="XMLID_451_">
		<path class="st4" d="M22.3,63l0-3.2c0,0,1.1-3,3.1-7c0,1.7-0.1,3.4-0.1,5C24.1,59.4,23,61.1,22.3,63z"/>
	</g>
	<g id="XMLID_450_">
		<path class="st5" d="M24.4,112.7l0.2-0.2C24.6,112.5,24.5,113.5,24.4,112.7z"/>
	</g>
	<g id="XMLID_449_">
		<path class="st5" d="M22.6,113.3c0-3.2,1-8.1,1.7-10.8c-0.1,7,0,9.5,0.1,10.2l-1.7,2C22.6,114.2,22.6,113.7,22.6,113.3z"/>
	</g>
	<g id="XMLID_448_">
		<path d="M30,111.7c0,0-0.1-7.2,0.7-13.1c0.8-6,5-22.2,5-22.2l0.7,34.9L30,111.7z"/>
		<path d="M29.8,111.9l0-0.2c0-0.1-0.1-7.3,0.7-13.2c0.8-5.9,5-22.1,5-22.2l0.3-1.2l0.7,36.3L29.8,111.9z M35.5,77.6
			c-1,3.8-4,16.1-4.7,21c-0.7,5.4-0.7,11.8-0.7,12.9l6-0.4L35.5,77.6z"/>
	</g>
	<g id="XMLID_447_">
		<path d="M29.9,106.6L29.9,106.6c0-0.1,0.1-0.8,0.1-1.9l0.1,0c0,0.6-0.1,1.2-0.1,1.8l0,0L29.9,106.6z"/>
	</g>
	<g id="XMLID_446_">
		<path class="st1" d="M31.4,108l3.5,0.1c0,0,0.7,0.3,0.7-1.1c0-1.4,0-12.7-0.1-15.7c-0.1-1.8-0.2-4.4-0.3-6.2c0-0.3-0.5-0.4-0.5,0
			c-0.7,3.2-2,9.4-2.4,12C30.8,107.4,31.4,108,31.4,108z"/>
	</g>
	<g id="XMLID_445_">
		<path class="st4" d="M30.6,98.6c0.8-6,5-22.2,5-22.2s2.6-1.1,4.5-1.5c1.9-0.4,9.1-0.9,13.8-1.5c3.6-0.4,11.3-0.4,14.7-0.4
			c3.4,0,11.4,0,15.1,0.4c4.7,0.5,11.9,1.1,13.8,1.5c1.9,0.4,4.5,1.5,4.5,1.5s4.2,16.2,5,22.2c0.1,0.5,0.1,1.1,0.2,1.6
			c-0.5-6.1-1.2-15.2-1.8-19.6c-0.9-7.2-2.4-21.5-6-27.6s-9.9-13.5-20.3-14.2c-5.1-0.3-8.6-0.5-10.5-0.5c-1.9,0.1-5,0.2-10.1,0.5
			c-10.4,0.7-16.8,8.1-20.3,14.2c-3.5,6.1-5,20.4-6,27.6c-0.6,4.5-1.3,13.5-1.8,19.6C30.5,99.6,30.6,99.1,30.6,98.6z"/>
	</g>
	<g id="XMLID_444_">
		<path class="st1" d="M48.1,59c6.8-1.7,15.5-1.9,20.5-1.9c5-0.1,14.1,0.2,20.9,1.9c10.2,2.6,11.8,9.7,11.8,9.7
			c0-0.5-2.2-13.5-4.9-17.7c-2.7-4.2-7.2-10.8-16.5-11.5c-5.8-0.4-9.5-0.6-11.3-0.7c-1.7,0.1-5.1,0.3-10.9,0.7
			c-9.3,0.7-13.8,7.3-16.5,11.5c-2.7,4.2-4.9,17.2-4.9,17.7C36.3,68.8,37.9,61.6,48.1,59z"/>
	</g>
	<g id="XMLID_443_">
		<path class="st2" d="M27,60.8c0,0,1.2,1.5,1.8,1.2c0.6-0.4,1.3-2.2,2.9-4.8c1.7-2.6,10.4-14.6,10.4-14.6s-6.2,1.9-9.2,4.4
			c-2.9,2.5-4.8,6.6-5.2,9.4C27.4,59.1,27,60.8,27,60.8z"/>
	</g>
	<g id="XMLID_440_">
		<path class="st4" d="M27.6,54.3c0,0,0.8-3.4,2.9-6c2.1-2.6,5.5-4.2,7.9-5.4c2.4-1.2,4.6-1.5,4.6-1.5s8.5-4.4,12.3-4.6
			c2.8-0.2,10-0.6,13.3-0.7c3.3,0.2,10.8,0.6,13.7,0.7c3.8,0.2,12.3,4.6,12.3,4.6s2.2,0.4,4.6,1.5c2.4,1.2,5.8,2.8,7.9,5.4
			c2.1,2.6,2.9,6,2.9,6l2.3,3.5l-0.1-4.9c-1.1-2.1-2.4-4.5-4-6.8c-4.6-6.7-12.3-8.7-19.1-10.4c-6.2-1.6-15.8-2.3-20.5-2.3
			c0,0,0,0,0,0c0,0,0,0,0,0c-4.6,0-13.9,0.7-20.1,2.3C41.7,37.4,34,39.3,29.4,46c-1.6,2.3-2.9,4.7-4,6.8l-0.1,4.9L27.6,54.3z
			 M68.6,33.3C68.6,33.3,68.7,33.3,68.6,33.3C68.6,33.3,68.6,33.3,68.6,33.3z"/>
	</g>
	<g id="XMLID_439_">
		<path class="st1" d="M38.1,189.8c0,0,7.5,2.3,13.2,3c5.6,0.7,16.9,1.2,17.3,1.2c0,0,0,0,0,0c0,0,0,0,0,0c0.4,0,12-0.5,17.6-1.2
			c5.7-0.7,13.2-3,13.2-3l2.6-6.1l-4.2-28.3c0,0-10.8,2.3-16.2,2.4c-5.4,0.2-13.1,0.2-13.1,0.2s-7.4,0-12.8-0.2
			c-5.4-0.2-16.2-2.4-16.2-2.4l-4.2,28.3L38.1,189.8z"/>
	</g>
	<g id="XMLID_438_">
		<path d="M16.9,166.8l10.1,3.7v1.3l-10-3.6C16.9,167.4,16.9,166.8,16.9,166.8z"/>
		<path d="M27.2,172.1l-10.3-3.7l0-0.1c-0.2-0.9-0.2-1.4-0.2-1.4v-0.2l10.5,3.8V172.1z M17.2,168.1l9.7,3.5v-1l-9.8-3.6
			C17.1,167.3,17.1,167.7,17.2,168.1z"/>
	</g>
	<g id="XMLID_437_">
		<path class="st1" d="M33,168.6l-1.8,9.4l-5.4-1.9c0,0-5-1.2-6.9-3.7c-1.1-1.4-1.6-2.9-1.8-4l10,3.6v0.4h1.7v-4.2L33,168.6z"/>
	</g>
	<g id="XMLID_436_">
		<path class="st4" d="M39.9,74.9c0.1,0,0.2,0,0.3-0.1c1.9-0.4,9.1-0.9,13.8-1.5c3.6-0.4,11.3-0.4,14.7-0.4c3.4,0,11.4,0,15.1,0.4
			c4.7,0.5,11.9,1.1,13.8,1.5c0.1,0,0.2,0,0.3,0.1c0.2-1.9,0.1-3.8-1.1-5.2C96,69,95,68.5,94,68.1c-7.9-3.4-16.8-4.2-25.4-4.3
			c-8.6,0.1-17.2,0.9-25,4.3c-1,0.4-2,0.9-2.7,1.7C39.7,71.1,39.7,73.1,39.9,74.9z"/>
	</g>
	<g id="XMLID_435_">
		<path class="st6" d="M22.6,210.1c0.2,4.8,0.4,8.9,0.4,8.9c2.4,4.8,5.3,9.9,9.2,13.8c0.8,0.8,1.7,1.6,2.7,2.3
			c-0.3-0.9-0.5-1.9-0.5-2.9c0-1,0.3-2,1.1-2.6c0.7-0.6,2-0.7,2.7-0.1C38.1,229.6,23.3,212.4,22.6,210.1"/>
	</g>
	<g id="XMLID_434_">
		<path class="st6" d="M115,210.1c-0.2,4.8-0.2,8.9-0.2,8.9c-2.4,4.8-5.3,9.9-9.2,13.8c-0.8,0.8-1.7,1.6-2.7,2.3
			c0.3-0.9,0.5-1.9,0.5-2.9c0-1-0.3-2-1.1-2.6c-0.7-0.6-2-0.7-2.7-0.1C99.7,229.6,114.3,212.4,115,210.1"/>
	</g>
	<g>
		<path class="st4" d="M92.9,241.9c1.8-0.2,3.6-0.5,5.2-1.3c1.2-0.6,2.7-1.6,3.1-2.9c-1-0.4-2.6,1.7-3.5,2.2
			C96.3,240.9,94.6,241.6,92.9,241.9z"/>
	</g>
	<g>
		<path class="st4" d="M45.3,240.9c-1.8-0.2-3.6-0.5-5.2-1.3c-1.2-0.6-2.7-1.6-3.1-2.9c1-0.4,2.6,1.7,3.5,2.2
			C41.9,240,43.6,240.6,45.3,240.9z"/>
	</g>
</g>
<g>
	<g>
		<path class="st7" d="M281.1,30.3c0.1,1.1,0.1,2.2,0.2,3.4C281.3,32.6,281.2,31.4,281.1,30.3z"/>
	</g>
	<g>
		<path class="st7" d="M281,28.7c0,0.2,0,0.5,0.1,0.7C281,29.1,281,28.9,281,28.7z"/>
	</g>
	<g>
		<path class="st7" d="M281.3,33.8c0,0.2,0,0.5,0,0.7C281.4,34.2,281.4,34,281.3,33.8z"/>
	</g>
	<g>
		<path class="st7" d="M281.4,34.7c0,0.2,0,0.4,0,0.6C281.4,35.1,281.4,34.9,281.4,34.7z"/>
	</g>
	<g>
		<path class="st7" d="M280.9,26.9c0,0.2,0,0.5,0.1,0.7C280.9,27.4,280.9,27.2,280.9,26.9z"/>
	</g>
	<g>
		<path class="st7" d="M280.2,18.9L280.2,18.9c0.2,2.2,0.4,4.6,0.6,7.1C280.6,23.5,280.4,21.1,280.2,18.9z"/>
	</g>
	<g>
		<path class="st7" d="M280.9,27.8c0,0.2,0,0.5,0.1,0.7C281,28.3,281,28,280.9,27.8z"/>
	</g>
	<g>
		<path class="st7" d="M280.8,26.1c0,0.2,0,0.5,0.1,0.7C280.9,26.6,280.8,26.3,280.8,26.1z"/>
	</g>
	<g>
		<path class="st7" d="M281.5,35.6c0,0.2,0,0.4,0,0.6C281.5,36,281.5,35.8,281.5,35.6z"/>
	</g>
	<g>
		<path class="st7" d="M281.1,30.3c0-0.3,0-0.5-0.1-0.8C281.1,29.8,281.1,30,281.1,30.3z"/>
	</g>
	<g>
		<path class="st7" d="M280.2,18.9c0.2,2.2,0.4,4.6,0.6,7.1c0,0,0,0.1,0,0.1c0,0.2,0,0.5,0.1,0.7c0,0,0,0.1,0,0.1
			c0,0.2,0,0.5,0.1,0.7c0,0,0,0.1,0,0.1c0,0.2,0,0.5,0.1,0.7c0,0,0,0.1,0,0.1c0,0.2,0,0.5,0.1,0.7c0,0,0,0.1,0,0.1
			c0,0.3,0,0.5,0.1,0.8c0,0,0,0,0,0c0.1,1.1,0.1,2.2,0.2,3.4c0,0,0,0,0,0.1c0,0.2,0,0.5,0,0.7c0,0.1,0,0.2,0,0.2c0,0.2,0,0.4,0,0.6
			c0,0.1,0,0.2,0,0.3c0,0.2,0,0.4,0,0.6c0,0.1,0,0.2,0,0.3c0,0,0,0.1,0,0.1c0,0.2,0,0.3,0,0.5c0,0.1,0,0.2,0,0.3c0,0.2,0,0.4,0,0.6
			c0,0.1,0,0.2,0,0.3c0,0.2,0,0.4,0,0.6c0,0.1,0,0.2,0,0.4c0,0.2,0,0.3,0,0.5c0,0.1,0,0.3,0,0.4c0,0.2,0,0.3,0,0.5
			c0,0.1,0,0.3,0,0.4c0,0.2,0,0.3,0,0.5c0,0.1,0,0.2,0,0.4c0,0.3,0,0.6,0,0.9c0,0.1,0,0.3,0,0.4c0,0.1,0,0.3,0,0.4
			c0,0.2,0,0.3,0,0.5c0,0.1,0,0.3,0,0.4c0,0.2,0,0.3,0,0.5c0,0.1,0,0.3,0,0.4c0,0.2,0,0.3,0,0.5c0,0.1,0,0.2,0,0.3
			c0,0.2,0,0.3,0,0.5c0,0.1,0,0.2,0,0.3c0,0.2,0,0.3,0,0.5c0,0.1,0,0.2,0,0.3c0,0.2,0,0.3,0,0.5c0,0.1,0,0.2,0,0.3
			c0,0.2,0,0.4,0,0.5c0,0.1,0,0.2,0,0.3c0,0.2,0,0.4,0,0.6c0,0.1,0,0.2,0,0.2c0,0.5,0,1.1,0.1,1.6c0,0,0,0,0,0.1c0,0.2,0,0.5,0,0.7
			c0,0.1,0,0.1,0,0.2c0,0.2,0,0.4,0,0.6c0,0.1,0,0.2,0,0.2c0,0.2,0,0.3,0,0.5c0,0.1,0,0.2,0,0.2c0,0.2,0,0.3,0,0.5
			c0,0.1,0,0.2,0,0.2c0,0.2,0,0.3,0,0.4c0,0.1,0,0.2,0,0.2c0,0.1,0,0.3,0,0.4c0,0.1,0,0.1,0,0.2c0,0.1,0,0.3,0,0.4
			c0,0.1,0,0.1,0,0.2c0,0.2,0,0.3,0,0.4c0,0.1,0,0.1,0,0.2c0,0.2,0,0.3,0,0.5c0,0,0,0.1,0,0.1c0,0.2,0,0.4,0,0.6c0,0,0,0,0,0.1
			c0,0,0,0.1,0,0.1c0,1.4-0.1,3.9-0.2,7.2c-0.6,20.5-2.6,73.4-2.1,71.7c-1.1,24-2.1,44.2-2.1,44.3c0,0,0,0,0,0
			c-10,20.4-22,41.8-37.2,59.6c8.7,2.1,17.7,3.3,27,3.3c62.6,0,113.4-50.8,113.4-113.4C381.3,73.2,337,25.1,280.2,18.9z"/>
	</g>
	<g>
		<path class="st7" d="M281.5,36.6c0,0,0-0.1,0-0.1C281.5,36.6,281.5,36.6,281.5,36.6L281.5,36.6z"/>
	</g>
	<g>
		<path class="st4" d="M281.9,43.7c0,0.2,0,0.3,0,0.5C281.9,44,281.9,43.8,281.9,43.7z"/>
	</g>
	<g>
		<path class="st4" d="M281.8,42.8c0,0.1,0,0.3,0,0.4C281.9,43.1,281.9,43,281.8,42.8z"/>
	</g>
	<g>
		<path class="st4" d="M281.8,41.5c0,0.1,0,0.2,0,0.4C281.8,41.8,281.8,41.7,281.8,41.5z"/>
	</g>
	<g>
		<path class="st4" d="M281.7,40.7c0,0.1,0,0.3,0,0.4C281.8,40.9,281.7,40.8,281.7,40.7z"/>
	</g>
	<g>
		<path class="st4" d="M281.6,38c0,0.1,0,0.2,0,0.3C281.6,38.2,281.6,38.1,281.6,38z"/>
	</g>
	<g>
		<path class="st4" d="M281.7,39.8c0,0.1,0,0.3,0,0.4C281.7,40,281.7,39.9,281.7,39.8z"/>
	</g>
	<g>
		<path class="st4" d="M281.9,44.5c0,0.2,0,0.3,0,0.5C281.9,44.9,281.9,44.7,281.9,44.5z"/>
	</g>
	<g>
		<path class="st4" d="M281.6,38.9c0,0.1,0,0.2,0,0.4C281.7,39.1,281.7,39,281.6,38.9z"/>
	</g>
	<g>
		<path class="st4" d="M282.1,49.6c0,0.2,0,0.4,0,0.6C282.1,50,282.1,49.8,282.1,49.6z"/>
	</g>
	<g>
		<path class="st4" d="M282,45.4c0,0.2,0,0.3,0,0.5C282,45.7,282,45.6,282,45.4z"/>
	</g>
	<g>
		<path class="st4" d="M282.2,50.4c0,0.5,0,1.1,0.1,1.6C282.2,51.4,282.2,50.9,282.2,50.4z"/>
	</g>
	<g>
		<path class="st4" d="M282.1,48.8c0,0.2,0,0.4,0,0.5C282.1,49.1,282.1,49,282.1,48.8z"/>
	</g>
	<g>
		<path class="st4" d="M282.2,52c0,0.2,0,0.5,0,0.7C282.2,52.5,282.2,52.2,282.2,52z"/>
	</g>
	<g>
		<path class="st4" d="M282,47.1c0,0.2,0,0.3,0,0.5C282.1,47.4,282,47.3,282,47.1z"/>
	</g>
	<g>
		<path class="st4" d="M282.1,48c0,0.2,0,0.3,0,0.5C282.1,48.3,282.1,48.1,282.1,48z"/>
	</g>
	<g>
		<path class="st4" d="M282,46.3c0,0.2,0,0.3,0,0.5C282,46.6,282,46.4,282,46.3z"/>
	</g>
	<g>
		<path class="st4" d="M280.9,27.7c0,0,0,0.1,0,0.1C280.9,27.8,280.9,27.7,280.9,27.7z"/>
	</g>
	<g>
		<path class="st4" d="M278,182.3C278,182.3,278,182.3,278,182.3C278,182.3,278,182.3,278,182.3c-3.5,7.1-7.3,14.4-11.3,21.6
			c-2.5,4.4-5,8.7-7.7,13c-3.2,5.1-6.6,10.1-10.2,14.9c-0.3,0.4-0.5,0.7-0.8,1.1c-0.3,0.4-0.7,0.9-1,1.3c-0.2,0.3-0.5,0.6-0.7,0.9
			c-0.2,0.2-0.3,0.4-0.5,0.6c-1.6,2.1-3.3,4.2-5.1,6.2h0C256,224,267.9,202.7,278,182.3z"/>
	</g>
	<g>
		<path class="st4" d="M281,28.5c0,0,0,0.1,0,0.1C281,28.6,281,28.6,281,28.5z"/>
	</g>
	<g>
		<path class="st4" d="M280.8,26C280.8,26,280.8,26,280.8,26C280.8,26,280.8,26,280.8,26z"/>
	</g>
	<g>
		<path class="st4" d="M280.9,26.8c0,0,0,0.1,0,0.1C280.9,26.9,280.9,26.9,280.9,26.8z"/>
	</g>
	<g>
		<path class="st4" d="M281.1,29.4c0,0,0,0.1,0,0.1C281.1,29.5,281.1,29.4,281.1,29.4z"/>
	</g>
	<g>
		<path class="st4" d="M281.1,30.3C281.1,30.3,281.1,30.3,281.1,30.3C281.1,30.3,281.1,30.3,281.1,30.3z"/>
	</g>
	<g>
		<path class="st4" d="M281.4,35.3c0,0.1,0,0.2,0,0.3C281.5,35.5,281.4,35.4,281.4,35.3z"/>
	</g>
	<g>
		<path class="st4" d="M281.5,36.2c0,0.1,0,0.2,0,0.3C281.5,36.4,281.5,36.3,281.5,36.2z"/>
	</g>
	<g>
		<path class="st4" d="M282.3,59C282.3,58.9,282.3,58.9,282.3,59c0-0.3,0-0.4,0-0.6C282.3,58.5,282.3,58.7,282.3,59
			C282.3,58.9,282.3,58.9,282.3,59z"/>
	</g>
	<g>
		<path class="st4" d="M281.4,34.4c0,0.1,0,0.2,0,0.2C281.4,34.6,281.4,34.5,281.4,34.4z"/>
	</g>
	<g>
		<path class="st4" d="M281.3,33.7C281.3,33.7,281.3,33.8,281.3,33.7C281.3,33.8,281.3,33.7,281.3,33.7z"/>
	</g>
	<g>
		<path class="st4" d="M281.5,37.1c0,0.1,0,0.2,0,0.3C281.6,37.3,281.5,37.2,281.5,37.1z"/>
	</g>
	<g>
		<path class="st4" d="M281.5,36.5c0-0.1,0-0.2,0-0.3c0-0.2,0-0.4,0-0.6c0-0.1,0-0.2,0-0.3c0-0.2,0-0.4,0-0.6c0-0.1,0-0.2,0-0.2
			c0-0.2,0-0.5,0-0.7c0,0,0,0,0-0.1c-0.1-1.1-0.1-2.3-0.2-3.4c0,0,0,0,0,0c0-0.3,0-0.5-0.1-0.8c0,0,0-0.1,0-0.1c0-0.2,0-0.5-0.1-0.7
			c0,0,0-0.1,0-0.1c0-0.2,0-0.5-0.1-0.7c0,0,0-0.1,0-0.1c0-0.2,0-0.5-0.1-0.7c0,0,0-0.1,0-0.1c0-0.2,0-0.5-0.1-0.7c0,0,0-0.1,0-0.1
			c-0.2-2.5-0.4-4.9-0.6-7.1c-4.1-0.4-8.2-0.7-12.4-0.7c-22.8,0-44.1,6.8-61.9,18.4c-30,19.5-50.1,52.9-51.4,91
			c0,1.4-0.1,2.7-0.1,4.1c0,53.3,36.8,98,86.4,110.2c1.7-2,3.4-4.1,5.1-6.2c-6.7-2.1-15-5.8-15.7-10.6c-1.2-8.5-8.7-90.4-8.7-97.6
			c0,0,0,0,0,0c0-6.2,0.2-13.8,0.4-21.9c0.6-18.1,1.8-39.1,3.5-54.2c0.1-1.2,0.3-2.4,0.4-3.6c0,0,0,0,0-0.1c0,0,0-0.1,0-0.1v0
			c0,0,0,0,0-0.1c1.1-8.7,7-11.2,13.3-17.8c3.1-3.2,7.3-5.2,11.8-6c9.9-1.8,21.5,1.8,27.7,9.1c1,1.2,1.9,2.5,2.7,3.9
			C281.5,36.6,281.5,36.6,281.5,36.5z"/>
	</g>
	<g>
		<path class="st4" d="M282.3,55.8c0,0.1,0,0.3,0,0.4C282.3,56.1,282.3,55.9,282.3,55.8z"/>
	</g>
	<g>
		<path class="st4" d="M282.3,53.7c0,0.2,0,0.3,0,0.5C282.3,54,282.3,53.8,282.3,53.7z"/>
	</g>
	<g>
		<path class="st4" d="M282.3,57.7c0,0.2,0,0.3,0,0.5C282.3,58.1,282.3,57.9,282.3,57.7z"/>
	</g>
	<g>
		<path class="st4" d="M282.3,54.4c0,0.2,0,0.3,0,0.5C282.3,54.7,282.3,54.6,282.3,54.4z"/>
	</g>
	<g>
		<path class="st4" d="M282.3,57.1c0,0.2,0,0.3,0,0.4C282.3,57.4,282.3,57.3,282.3,57.1z"/>
	</g>
	<g>
		<path class="st4" d="M282.3,56.5c0,0.1,0,0.3,0,0.4C282.3,56.8,282.3,56.6,282.3,56.5z"/>
	</g>
	<g>
		<path class="st4" d="M282.3,59.1c0,1.2-0.1,3.7-0.2,7.2C282.3,63,282.3,60.5,282.3,59.1z"/>
	</g>
	<g>
		<path class="st4" d="M282.3,55.1c0,0.2,0,0.3,0,0.4C282.3,55.4,282.3,55.3,282.3,55.1z"/>
	</g>
	<g>
		<path class="st4" d="M282.2,52.9c0,0.2,0,0.4,0,0.6C282.2,53.3,282.2,53.1,282.2,52.9z"/>
	</g>
	<g>
		<path class="st4" d="M246.3,235c0.2-0.3,0.5-0.6,0.7-0.9c0,0,0,0-0.1,0C246.7,234.4,246.5,234.7,246.3,235z"/>
	</g>
	<g class="st8">
		<path class="st9" d="M281.7,39.2c0,0.2,0,0.3,0,0.5C281.7,39.6,281.7,39.4,281.7,39.2z"/>
	</g>
	<g class="st8">
		<path class="st9" d="M282.3,57.5c0,0.1,0,0.1,0,0.2C282.3,57.7,282.3,57.6,282.3,57.5z"/>
	</g>
	<g class="st8">
		<path class="st9" d="M281.8,41c0,0.2,0,0.3,0,0.5C281.8,41.4,281.8,41.2,281.8,41z"/>
	</g>
	<g class="st8">
		<path class="st9" d="M281.7,40.2c0,0.2,0,0.3,0,0.5C281.7,40.5,281.7,40.3,281.7,40.2z"/>
	</g>
	<g class="st8">
		<path class="st9" d="M282.3,56.9c0,0.1,0,0.1,0,0.2C282.3,57,282.3,57,282.3,56.9z"/>
	</g>
	<g class="st8">
		<path class="st9" d="M281.6,37.4c0,0.2,0,0.4,0,0.6C281.6,37.8,281.6,37.6,281.6,37.4z"/>
	</g>
	<g class="st8">
		<path class="st9" d="M281.6,38.3c0,0.2,0,0.4,0,0.6C281.6,38.7,281.6,38.5,281.6,38.3z"/>
	</g>
	<g class="st8">
		<path class="st9" d="M277.5,141.2c-0.3,0.5-0.5,1-0.8,1.5c1.3-2.1,2.1-3.7,2.4-4.7c-0.4,0.8-0.8,1.6-1.2,2.4
			C277.7,140.7,277.6,140.9,277.5,141.2z"/>
	</g>
	<g class="st8">
		<path class="st9" d="M281.5,37.1c0-0.2,0-0.3,0-0.5l0,0C281.5,36.8,281.5,36.9,281.5,37.1z"/>
	</g>
	<g class="st8">
		<path class="st9" d="M282.3,58.2C282.3,58.3,282.3,58.3,282.3,58.2C282.3,58.3,282.3,58.3,282.3,58.2z"/>
	</g>
	<g class="st8">
		<path class="st9" d="M282.3,59c0,0,0,0.1,0,0.1C282.3,59,282.3,59,282.3,59z"/>
	</g>
	<g class="st8">
		<path class="st9" d="M282.2,52.7c0,0.1,0,0.1,0,0.2C282.2,52.8,282.2,52.8,282.2,52.7z"/>
	</g>
	<g class="st8">
		<path class="st9" d="M282.1,48.5c0,0.1,0,0.2,0,0.3C282.1,48.7,282.1,48.6,282.1,48.5z"/>
	</g>
	<g class="st8">
		<path class="st9" d="M282.3,54.2c0,0.1,0,0.2,0,0.2C282.3,54.3,282.3,54.3,282.3,54.2z"/>
	</g>
	<g class="st8">
		<path class="st9" d="M282.1,47.6c0,0.1,0,0.2,0,0.3C282.1,47.8,282.1,47.7,282.1,47.6z"/>
	</g>
	<g class="st8">
		<path class="st9" d="M282.1,49.3c0,0.1,0,0.2,0,0.3C282.1,49.5,282.1,49.4,282.1,49.3z"/>
	</g>
	<g class="st8">
		<path class="st9" d="M282.2,52C282.2,52,282.2,52,282.2,52C282.2,52,282.2,52,282.2,52z"/>
	</g>
	<g class="st8">
		<path class="st9" d="M282,46.8c0,0.1,0,0.2,0,0.3C282,47,282,46.9,282,46.8z"/>
	</g>
	<g class="st8">
		<path class="st9" d="M282.2,50.2c0,0.1,0,0.2,0,0.2C282.2,50.3,282.2,50.2,282.2,50.2z"/>
	</g>
	<g class="st8">
		<path class="st9" d="M282.3,53.4c0,0.1,0,0.2,0,0.2C282.3,53.6,282.3,53.5,282.3,53.4z"/>
	</g>
	<g class="st8">
		<path class="st9" d="M282.3,54.9c0,0.1,0,0.2,0,0.2C282.3,55,282.3,55,282.3,54.9z"/>
	</g>
	<g class="st8">
		<path class="st9" d="M281.9,43.3c0,0.1,0,0.3,0,0.4C281.9,43.5,281.9,43.4,281.9,43.3z"/>
	</g>
	<g class="st8">
		<path class="st9" d="M282.3,56.2c0,0.1,0,0.1,0,0.2C282.3,56.4,282.3,56.3,282.3,56.2z"/>
	</g>
	<g class="st8">
		<path class="st9" d="M281.9,44.2c0,0.1,0,0.3,0,0.4C281.9,44.4,281.9,44.3,281.9,44.2z"/>
	</g>
	<g class="st8">
		<path class="st9" d="M282.3,55.6c0,0.1,0,0.2,0,0.2C282.3,55.7,282.3,55.6,282.3,55.6z"/>
	</g>
	<g class="st8">
		<path class="st9" d="M282,45.9c0,0.1,0,0.2,0,0.3C282,46.1,282,46,282,45.9z"/>
	</g>
	<g class="st8">
		<path class="st9" d="M281.9,45c0,0.1,0,0.3,0,0.4C282,45.3,282,45.2,281.9,45z"/>
	</g>
	<g class="st8">
		<path class="st9" d="M281.8,41.9c0,0.3,0,0.6,0,0.9C281.8,42.5,281.8,42.2,281.8,41.9z"/>
	</g>
	<g>
		<path class="st4" d="M279.1,138C278.8,139,278.7,138.8,279.1,138c0-0.1,0-0.2,0-0.3"/>
	</g>
	<g>
		<path class="st4" d="M279.1,137.7c1.2-26.1,2.6-56.8,3-71.4c0.1-3.5,0.2-6,0.2-7.2c0,0,0-0.1,0-0.1c0,0,0,0,0-0.1
			c0-0.2,0-0.4,0-0.6c0,0,0-0.1,0-0.1c0-0.2,0-0.3,0-0.5c0-0.1,0-0.1,0-0.2c0-0.1,0-0.3,0-0.4c0-0.1,0-0.1,0-0.2c0-0.1,0-0.3,0-0.4
			c0-0.1,0-0.1,0-0.2c0-0.1,0-0.3,0-0.4c0-0.1,0-0.2,0-0.2c0-0.1,0-0.3,0-0.4c0-0.1,0-0.2,0-0.2c0-0.2,0-0.3,0-0.5
			c0-0.1,0-0.2,0-0.2c0-0.2,0-0.3,0-0.5c0-0.1,0-0.2,0-0.2c0-0.2,0-0.4,0-0.6c0-0.1,0-0.1,0-0.2c0-0.2,0-0.5,0-0.7c0,0,0,0,0-0.1
			c0-0.5,0-1-0.1-1.6c0-0.1,0-0.2,0-0.2c0-0.2,0-0.4,0-0.6c0-0.1,0-0.2,0-0.3c0-0.2,0-0.4,0-0.5c0-0.1,0-0.2,0-0.3
			c0-0.2,0-0.3,0-0.5c0-0.1,0-0.2,0-0.3c0-0.2,0-0.3,0-0.5c0-0.1,0-0.2,0-0.3c0-0.2,0-0.3,0-0.5c0-0.1,0-0.2,0-0.3
			c0-0.2,0-0.3,0-0.5c0-0.1,0-0.3,0-0.4c0-0.2,0-0.3,0-0.5c0-0.1,0-0.3,0-0.4c0-0.2,0-0.3,0-0.5c0-0.1,0-0.3,0-0.4
			c0-0.1,0-0.3,0-0.4c0-0.3,0-0.6,0-0.9c0-0.1,0-0.2,0-0.4c0-0.2,0-0.3,0-0.5c0-0.1,0-0.3,0-0.4c0-0.2,0-0.3,0-0.5
			c0-0.1,0-0.3,0-0.4c0-0.2,0-0.3,0-0.5c0-0.1,0-0.2,0-0.4c0-0.2,0-0.4,0-0.6c0-0.1,0-0.2,0-0.3c0-0.2,0-0.4,0-0.6
			c0-0.1,0-0.2,0-0.3c0-0.2,0-0.3,0-0.5c-0.8-1.4-1.7-2.7-2.7-3.9c-6.2-7.2-17.8-10.8-27.7-9.1c1.4,0.7,2.9,1.6,4.5,2.7
			c16.5,12,14.1,31.1,14.4,47.3c0.5,26.9-0.5,101.1-1.5,110.8c-0.6,6.2-1,12.8-1.8,19.3c4-7.2,7.8-14.4,11.3-21.6c0,0,0,0,0,0
			c0-0.1,0.1-20,1.1-43.9"/>
	</g>
	<g class="st8">
		<path class="st9" d="M279.1,137.3c1.2-26,2.5-56.4,3-70.9c0.1-3.5,0.2-6,0.2-7.2c0,0,0-0.1,0-0.1c0,0,0,0,0-0.1c0-0.2,0-0.4,0-0.6
			c0,0,0-0.1,0-0.1c0-0.2,0-0.3,0-0.5c0-0.1,0-0.1,0-0.2c0-0.1,0-0.3,0-0.4c0-0.1,0-0.1,0-0.2c0-0.1,0-0.3,0-0.4c0-0.1,0-0.1,0-0.2
			c0-0.1,0-0.3,0-0.4c0-0.1,0-0.2,0-0.2c0-0.1,0-0.3,0-0.4c0-0.1,0-0.2,0-0.2c0-0.2,0-0.3,0-0.5c0-0.1,0-0.2,0-0.2
			c0-0.2,0-0.3,0-0.5c0-0.1,0-0.2,0-0.2c0-0.2,0-0.4,0-0.6c0-0.1,0-0.1,0-0.2c0-0.2,0-0.5,0-0.7c0,0,0,0,0-0.1c0-0.5,0-1-0.1-1.6
			c0-0.1,0-0.2,0-0.2c0-0.2,0-0.4,0-0.6c0-0.1,0-0.2,0-0.3c0-0.2,0-0.4,0-0.5c0-0.1,0-0.2,0-0.3c0-0.2,0-0.3,0-0.5
			c0-0.1,0-0.2,0-0.3c0-0.2,0-0.3,0-0.5c0-0.1,0-0.2,0-0.3c0-0.2,0-0.3,0-0.5c0-0.1,0-0.2,0-0.3c0-0.2,0-0.3,0-0.5
			c0-0.1,0-0.3,0-0.4c0-0.2,0-0.3,0-0.5c0-0.1,0-0.3,0-0.4c0-0.2,0-0.3,0-0.5c0-0.1,0-0.3,0-0.4c0-0.1,0-0.3,0-0.4
			c0-0.3,0-0.6,0-0.9c0-0.1,0-0.2,0-0.4c0-0.2,0-0.3,0-0.5c0-0.1,0-0.3,0-0.4c0-0.2,0-0.3,0-0.5c0-0.1,0-0.3,0-0.4
			c0-0.2,0-0.3,0-0.5c0-0.1,0-0.2,0-0.4c0-0.2,0-0.4,0-0.6c0-0.1,0-0.2,0-0.3c0-0.2,0-0.4,0-0.6c0-0.1,0-0.2,0-0.3
			c0-0.2,0-0.3,0-0.5c-0.8-1.4-1.7-2.7-2.7-3.9c-6.2-7.2-17.8-10.8-27.7-9.1c1.4,0.7,2.9,1.6,4.5,2.7c16.5,12,14.1,31.1,14.4,47.3
			c0.5,26.9-0.5,101.1-1.5,110.8c-0.6,6.2-1,12.8-1.8,19.3c4-7.2,7.8-14.4,11.3-21.6c0,0,0,0,0,0c0-0.1,0.1-19.9,1.1-43.7
			L279.1,137.3z"/>
	</g>
	<g>
		<path class="st4" d="M225.9,47.5C225.9,47.5,225.9,47.5,225.9,47.5C225.9,47.6,225.9,47.6,225.9,47.5
			C225.9,47.5,225.9,47.5,225.9,47.5z"/>
	</g>
	<g class="st8">
		<path class="st9" d="M225.9,47.5C225.9,47.5,225.9,47.5,225.9,47.5C225.9,47.6,225.9,47.6,225.9,47.5
			C225.9,47.5,225.9,47.5,225.9,47.5z"/>
	</g>
	<g>
		<path class="st4" d="M270,73.8c-0.3-16.2,2-35.4-14.4-47.3c-1.6-1.1-3.1-2.1-4.5-2.7c-4.5,0.8-8.7,2.7-11.8,6
			c-6.4,6.6-12.2,9.1-13.3,17.8c0,0,0,0,0,0.1c6.1-5.1,15.1-8.1,21.7-1.9c7.6,7.2,7.3,23,7.2,31.5c-0.7,45.8,6.1,94.4,4.2,139.7
			c2.7-4.3,5.2-8.6,7.7-13c0.8-6.5,1.2-13.1,1.8-19.3C269.5,174.8,270.5,100.6,270,73.8z"/>
	</g>
	<g class="st8">
		<path class="st9" d="M270,73.8c-0.3-16.2,2-35.4-14.4-47.3c-1.6-1.1-3.1-2.1-4.5-2.7c-4.5,0.8-8.7,2.7-11.8,6
			c-6.4,6.6-12.2,9.1-13.3,17.8c0,0,0,0,0,0.1c6.1-5.1,15.1-8.1,21.7-1.9c7.6,7.2,7.3,23,7.2,31.5c-0.7,45.8,6.1,94.4,4.2,139.7
			c2.7-4.3,5.2-8.6,7.7-13c0.8-6.5,1.2-13.1,1.8-19.3C269.5,174.8,270.5,100.6,270,73.8z"/>
	</g>
	<g class="st10">
		<path class="st9" d="M270,73.8c-0.3-16.2,2-35.4-14.4-47.3c-1.6-1.1-3.1-2.1-4.5-2.7c-4.5,0.8-8.7,2.7-11.8,6
			c-6.4,6.6-12.2,9.1-13.3,17.8c0,0,0,0,0,0.1c6.1-5.1,15.1-8.1,21.7-1.9c7.6,7.2,7.3,23,7.2,31.5c-0.7,45.8,6.1,94.4,4.2,139.7
			c2.7-4.3,5.2-8.6,7.7-13c0.8-6.5,1.2-13.1,1.8-19.3C269.5,174.8,270.5,100.6,270,73.8z"/>
	</g>
	<g>
		<path class="st9" d="M247,234C247,234.1,247,234.1,247,234c0.4-0.4,0.7-0.8,1.1-1.3c-0.1,0-0.2,0-0.4,0.1
			C247.5,233.2,247.2,233.6,247,234z"/>
	</g>
	<g>
		<path class="st9" d="M225.8,47.7c-0.1,1.1-0.3,2.3-0.4,3.6c0,0,0,0,0.1,0C225.6,50.1,225.7,48.9,225.8,47.7z"/>
	</g>
	<g>
		<path class="st9" d="M225.9,47.6L225.9,47.6C225.9,47.6,225.9,47.6,225.9,47.6C225.9,47.6,225.9,47.6,225.9,47.6
			C225.9,47.6,225.9,47.6,225.9,47.6z"/>
	</g>
	<g>
		<path class="st9" d="M248.4,231.3c-0.2,0.5-0.4,1-0.7,1.6c0.1,0,0.2,0,0.4-0.1c0.3-0.4,0.5-0.7,0.8-1.1
			C248.7,231.6,248.5,231.4,248.4,231.3z"/>
	</g>
	<g>
		<path class="st9" d="M254.7,77.1c0.1-8.5,0.4-24.3-7.2-31.5c-6.6-6.2-15.6-3.1-21.7,1.9c0,0,0,0.1,0,0.1c0,0,0,0,0,0.1
			c-0.1,1.2-0.3,2.4-0.4,3.6c3.1-0.8,6.3-0.2,9,2.7c6.4,6.8,6.7,22.6,6.8,31c0.7,47.8,8.3,98.2,7.3,145.3c0,0.3-0.1,0.6-0.2,1
			c0.1,0.2,0.3,0.3,0.5,0.4c3.6-4.8,7-9.8,10.2-14.9C260.9,171.5,254,123,254.7,77.1z"/>
	</g>
</g>
<g>
	<g>
		<path class="st3" d="M107.7,233.8c-6.8,0-13.4-2.5-18.5-7c-5.6-5-8.9-11.8-9.4-19.3c-0.5-7.5,2-14.7,7-20.2
			c5-5.6,11.8-8.9,19.3-9.4c7.5-0.5,14.7,2,20.2,7c5.6,5,8.9,11.8,9.4,19.3c0.5,7.5-2,14.7-7,20.2c-5,5.6-11.8,8.9-19.3,9.4
			C108.9,233.8,108.3,233.8,107.7,233.8z M107.8,180.1c-0.5,0-1.1,0-1.6,0c-6.8,0.4-13.1,3.5-17.7,8.6c-4.5,5.1-6.8,11.7-6.4,18.6
			c0.4,6.8,3.5,13.1,8.6,17.7c5.1,4.5,11.7,6.8,18.6,6.4c6.8-0.4,13.1-3.5,17.7-8.6c4.5-5.1,6.8-11.7,6.4-18.6
			c-0.4-6.8-3.5-13.1-8.6-17.7C120.1,182.4,114.1,180.1,107.8,180.1z"/>
	</g>
</g>
<g>
	<path class="st11" d="M103.2,215.8l-0.3-0.1c3.4-7.5,6.2-15.3,8.4-23.2l0.3,0.1C109.3,200.4,106.5,208.3,103.2,215.8z"/>
</g>
<g>
	<path class="st11" d="M105,216.2l-0.3-0.1c2.3-7,4.4-14.2,6.2-21.4l0.3,0.1C109.4,202,107.3,209.2,105,216.2z"/>
</g>
<g>
	<path class="st11" d="M105.4,213l-0.3-0.1c2.3-5.3,4.2-10.8,5.6-16.4l0.3,0.1C109.6,202.2,107.7,207.7,105.4,213z"/>
</g>
<g>
	
		<rect x="103.3" y="206.9" transform="matrix(0.332 -0.9433 0.9433 0.332 -122.3513 241.2617)" class="st11" width="11.7" height="0.3"/>
</g>
<g>
	
		<rect x="100.3" y="201.4" transform="matrix(0.8533 -0.5214 0.5214 0.8533 -89.474 85.0735)" class="st11" width="12.3" height="0.3"/>
</g>
<g>
	<path class="st11" d="M102.7,206.7l-0.2-0.2c2.3-2.3,5-4.3,7.8-6l0.2,0.3C107.6,202.4,105,204.4,102.7,206.7z"/>
</g>
<g>
	<path class="st11" d="M101.7,206.7l-0.2-0.3c2.7-1.9,5.6-3.3,8.7-4.2l0.1,0.3C107.3,203.4,104.4,204.8,101.7,206.7z"/>
</g>
<g>
	<path class="st11" d="M102.6,208l-0.3-0.2c1.5-2.2,3.9-3.7,6.6-4.1l0.1,0.3C106.5,204.4,104.1,205.9,102.6,208z"/>
</g>
<g>
	
		<rect x="102.2" y="208.2" transform="matrix(0.8783 -0.4782 0.4782 0.8783 -86.8591 75.6218)" class="st11" width="5.7" height="0.3"/>
</g>
<g>
	
		<rect x="102.5" y="208.5" transform="matrix(0.8186 -0.5744 0.5744 0.8186 -100.7225 98.3368)" class="st11" width="5.6" height="0.3"/>
</g>
<g>
	<path class="st1" d="M390.4,141.3h-2.3c-0.3,0-0.5-0.2-0.5-0.5c0-0.3,0.2-0.5,0.5-0.5h2.3c0.3,0,0.5,0.2,0.5,0.5
		C390.9,141,390.7,141.3,390.4,141.3z M383.1,141.3h-2.3c-0.3,0-0.5-0.2-0.5-0.5c0-0.3,0.2-0.5,0.5-0.5h2.3c0.3,0,0.5,0.2,0.5,0.5
		C383.6,141,383.4,141.3,383.1,141.3z M375.9,141.3h-2.3c-0.3,0-0.5-0.2-0.5-0.5c0-0.3,0.2-0.5,0.5-0.5h2.3c0.3,0,0.5,0.2,0.5,0.5
		C376.4,141,376.2,141.3,375.9,141.3z M368.6,141.3h-2.3c-0.3,0-0.5-0.2-0.5-0.5c0-0.3,0.2-0.5,0.5-0.5h2.3c0.3,0,0.5,0.2,0.5,0.5
		C369.1,141,368.9,141.3,368.6,141.3z M361.4,141.3h-2.3c-0.3,0-0.5-0.2-0.5-0.5c0-0.3,0.2-0.5,0.5-0.5h2.3c0.3,0,0.5,0.2,0.5,0.5
		C361.9,141,361.6,141.3,361.4,141.3z M354.1,141.3h-2.3c-0.3,0-0.5-0.2-0.5-0.5c0-0.3,0.2-0.5,0.5-0.5h2.3c0.3,0,0.5,0.2,0.5,0.5
		C354.6,141,354.4,141.3,354.1,141.3z M346.8,141.3h-2.3c-0.3,0-0.5-0.2-0.5-0.5c0-0.3,0.2-0.5,0.5-0.5h2.3c0.3,0,0.5,0.2,0.5,0.5
		C347.3,141,347.1,141.3,346.8,141.3z M339.6,141.3h-2.3c-0.3,0-0.5-0.2-0.5-0.5c0-0.3,0.2-0.5,0.5-0.5h2.3c0.3,0,0.5,0.2,0.5,0.5
		C340.1,141,339.9,141.3,339.6,141.3z M332.3,141.3H330c-0.3,0-0.5-0.2-0.5-0.5c0-0.3,0.2-0.5,0.5-0.5h2.3c0.3,0,0.5,0.2,0.5,0.5
		C332.8,141,332.6,141.3,332.3,141.3z M325.1,141.3h-2.3c-0.3,0-0.5-0.2-0.5-0.5c0-0.3,0.2-0.5,0.5-0.5h2.3c0.3,0,0.5,0.2,0.5,0.5
		C325.6,141,325.3,141.3,325.1,141.3z M317.8,141.3h-2.3c-0.3,0-0.5-0.2-0.5-0.5c0-0.3,0.2-0.5,0.5-0.5h2.3c0.3,0,0.5,0.2,0.5,0.5
		C318.3,141,318.1,141.3,317.8,141.3z M310.5,141.3h-2.3c-0.3,0-0.5-0.2-0.5-0.5c0-0.3,0.2-0.5,0.5-0.5h2.3c0.3,0,0.5,0.2,0.5,0.5
		C311,141,310.8,141.3,310.5,141.3z M303.3,141.3H301c-0.3,0-0.5-0.2-0.5-0.5c0-0.3,0.2-0.5,0.5-0.5h2.3c0.3,0,0.5,0.2,0.5,0.5
		C303.8,141,303.6,141.3,303.3,141.3z M296,141.3h-2.3c-0.3,0-0.5-0.2-0.5-0.5c0-0.3,0.2-0.5,0.5-0.5h2.3c0.3,0,0.5,0.2,0.5,0.5
		C296.5,141,296.3,141.3,296,141.3z M288.8,141.3h-2.3c-0.3,0-0.5-0.2-0.5-0.5c0-0.3,0.2-0.5,0.5-0.5h2.3c0.3,0,0.5,0.2,0.5,0.5
		C289.3,141,289,141.3,288.8,141.3z M281.5,141.3h-2.3c-0.3,0-0.5-0.2-0.5-0.5c0-0.3,0.2-0.5,0.5-0.5h2.3c0.3,0,0.5,0.2,0.5,0.5
		C282,141,281.8,141.3,281.5,141.3z M274.2,141.3h-2.3c-0.3,0-0.5-0.2-0.5-0.5c0-0.3,0.2-0.5,0.5-0.5h2.3c0.3,0,0.5,0.2,0.5,0.5
		C274.7,141,274.5,141.3,274.2,141.3z M267,141.3h-2.3c-0.3,0-0.5-0.2-0.5-0.5c0-0.3,0.2-0.5,0.5-0.5h2.3c0.3,0,0.5,0.2,0.5,0.5
		C267.5,141,267.2,141.3,267,141.3z M259.7,141.3h-2.3c-0.3,0-0.5-0.2-0.5-0.5c0-0.3,0.2-0.5,0.5-0.5h2.3c0.3,0,0.5,0.2,0.5,0.5
		C260.2,141,260,141.3,259.7,141.3z M252.5,141.3h-2.3c-0.3,0-0.5-0.2-0.5-0.5c0-0.3,0.2-0.5,0.5-0.5h2.3c0.3,0,0.5,0.2,0.5,0.5
		C252.9,141,252.7,141.3,252.5,141.3z"/>
</g>
<g>
	<g>
		<path class="st12" d="M414.8,130.5l0.4-0.6c0.1-0.2,0.4-0.3,0.5-0.1c0.7,0.6,1.3,1.1,2.5,1.1c1.1,0,1.8-0.7,1.8-1.5
			c0-1-0.8-1.6-2.4-2.2c-1.6-0.7-2.9-1.5-2.9-3.4c0-1.2,1-2.9,3.5-2.9c1.6,0,2.8,0.8,2.9,0.9c0.1,0.1,0.3,0.3,0.1,0.5l-0.4,0.6
			c-0.1,0.2-0.3,0.3-0.6,0.2c-0.6-0.4-1.2-0.8-2.1-0.8c-1.3,0-1.8,0.8-1.8,1.4c0,0.9,0.7,1.5,2,2c1.8,0.7,3.4,1.6,3.4,3.5
			c0,1.6-1.5,3-3.5,3c-1.9,0-3.2-1-3.4-1.3C414.7,130.9,414.6,130.8,414.8,130.5z"/>
	</g>
	<g>
		<path class="st12" d="M429,120.9c1.6,0,2.8,0.5,3.8,1.5c0.1,0.1,0.1,0.3,0,0.4l-0.7,0.7c-0.1,0.1-0.3,0.1-0.4,0
			c-0.7-0.6-1.8-1.1-2.7-1.1c-2.3,0-4,1.9-4,4.1c0,2.2,1.7,4.1,4,4.1c1.2,0,2-0.5,2.7-1c0.1-0.1,0.3-0.1,0.4,0l0.7,0.7
			c0.1,0.1,0.1,0.3,0,0.4c-1.1,1-2.4,1.5-3.8,1.5c-3.2,0-5.7-2.5-5.7-5.7C423.2,123.4,425.8,120.9,429,120.9z"/>
	</g>
	<g>
		<path class="st12" d="M435,121.4c0-0.2,0.1-0.3,0.3-0.3h4.3c1.9,0,3.5,1.5,3.5,3.4c0,1.5-1,2.7-2.3,3.2l2.2,4
			c0.1,0.2,0,0.5-0.3,0.5h-1.2c-0.2,0-0.3-0.1-0.3-0.2l-2.1-4.1h-2.4v4c0,0.2-0.1,0.3-0.3,0.3h-1c-0.2,0-0.3-0.1-0.3-0.3V121.4z
			 M439.5,126.4c1,0,1.9-0.9,1.9-2c0-1-0.9-1.9-1.9-1.9h-2.8v3.8H439.5z"/>
	</g>
	<g>
		<path class="st12" d="M444,131.7l4.9-10.7c0-0.1,0.2-0.2,0.3-0.2h0.2c0.1,0,0.2,0.1,0.3,0.2l4.8,10.7c0.1,0.2,0,0.4-0.3,0.4h-1
			c-0.2,0-0.3-0.1-0.4-0.2l-1-2.2h-5.2l-1,2.2c0,0.1-0.2,0.2-0.4,0.2h-1C444,132.1,443.9,131.9,444,131.7z M451.2,128.4l-1.9-4.3
			h-0.1l-1.9,4.3H451.2z"/>
	</g>
	<g>
		<path class="st12" d="M457.1,122.5h-2.6c-0.2,0-0.3-0.1-0.3-0.3v-0.9c0-0.2,0.1-0.3,0.3-0.3h6.8c0.2,0,0.3,0.1,0.3,0.3v0.9
			c0,0.2-0.1,0.3-0.3,0.3h-2.6v9.3c0,0.2-0.1,0.3-0.3,0.3h-1c-0.2,0-0.3-0.1-0.3-0.3V122.5z"/>
	</g>
	<g>
		<path class="st12" d="M468.2,120.9c1.6,0,2.8,0.5,3.8,1.5c0.1,0.1,0.1,0.3,0,0.4l-0.7,0.7c-0.1,0.1-0.3,0.1-0.4,0
			c-0.7-0.6-1.8-1.1-2.7-1.1c-2.3,0-4,1.9-4,4.1c0,2.2,1.7,4.1,4,4.1c1.2,0,2-0.5,2.7-1c0.1-0.1,0.3-0.1,0.4,0l0.7,0.7
			c0.1,0.1,0.1,0.3,0,0.4c-1.1,1-2.4,1.5-3.8,1.5c-3.2,0-5.7-2.5-5.7-5.7C462.4,123.4,465,120.9,468.2,120.9z"/>
	</g>
	<g>
		<path class="st12" d="M474.2,121.4c0-0.2,0.1-0.3,0.3-0.3h1c0.2,0,0.3,0.1,0.3,0.3v4.4h5.8v-4.4c0-0.2,0.1-0.3,0.3-0.3h1
			c0.2,0,0.3,0.1,0.3,0.3v10.5c0,0.2-0.1,0.3-0.3,0.3h-1c-0.2,0-0.3-0.1-0.3-0.3v-4.6h-5.8v4.6c0,0.2-0.1,0.3-0.3,0.3h-1
			c-0.2,0-0.3-0.1-0.3-0.3V121.4z"/>
	</g>
</g>
<g>
	<g>
		<path class="st12" d="M415.4,190.6c0-0.2,0.1-0.3,0.3-0.3h3.6c3.1,0,5.6,2.5,5.6,5.5c0,3.1-2.5,5.6-5.6,5.6h-3.6
			c-0.2,0-0.3-0.1-0.3-0.3V190.6z M419.1,199.9c2.3,0,4-1.7,4-4.1c0-2.3-1.6-4-4-4H417v8.1H419.1z"/>
	</g>
	<g>
		<path class="st12" d="M427.1,190.6c0-0.2,0.1-0.3,0.3-0.3h6.3c0.2,0,0.3,0.1,0.3,0.3v0.9c0,0.2-0.1,0.3-0.3,0.3h-5v3.2h4.2
			c0.2,0,0.3,0.1,0.3,0.3v0.9c0,0.2-0.1,0.3-0.3,0.3h-4.2v3.4h5c0.2,0,0.3,0.1,0.3,0.3v0.9c0,0.2-0.1,0.3-0.3,0.3h-6.3
			c-0.2,0-0.3-0.1-0.3-0.3V190.6z"/>
	</g>
	<g>
		<path class="st12" d="M436.2,190.4c0-0.2,0.1-0.3,0.3-0.3h0.1c0.2,0,0.3,0,0.5,0.2l6.7,7.7h0v-7.5c0-0.2,0.1-0.3,0.3-0.3h1
			c0.2,0,0.3,0.1,0.3,0.3v10.7c0,0.2-0.1,0.3-0.3,0.3H445c-0.2,0-0.3,0-0.5-0.2l-6.7-8h0v7.7c0,0.2-0.1,0.3-0.3,0.3h-1
			c-0.2,0-0.3-0.1-0.3-0.3V190.4z"/>
	</g>
	<g>
		<path class="st12" d="M450.2,191.8h-2.6c-0.2,0-0.3-0.1-0.3-0.3v-0.9c0-0.2,0.1-0.3,0.3-0.3h6.8c0.2,0,0.3,0.1,0.3,0.3v0.9
			c0,0.2-0.1,0.3-0.3,0.3h-2.6v9.3c0,0.2-0.1,0.3-0.3,0.3h-1c-0.2,0-0.3-0.1-0.3-0.3V191.8z"/>
	</g>
</g>
<g>
	<path class="st2" d="M283,97c-1,0.7-2,1.5-3,2.2c-0.1,0.1-0.2,0.1-0.4,0.2c-0.3,0.1-0.6,0-0.8-0.1c-0.7-0.2-1.1-0.5-1.8-0.7
		c-0.6-0.2-1.6-0.3-2.2-0.1c-0.3,0.1-0.4,0.2-0.6,0.4c-0.5,0.4-1.1,0.8-1.7,1.2c-0.2,0.1-0.3,0.2-0.6,0.2c-0.2,0-0.4-0.1-0.6-0.1
		c-1.2-0.4-2.5-0.8-3.7-1.2c-1.6,0.6-3.2,1.3-4.7,1.9c-0.2,0.1-0.3,0.1-0.5,0.1c-0.2,0-0.4-0.1-0.5-0.1c-0.9-0.4-1.7-0.7-2.6-1.1
		c0.4,1.2,0.9,2.4,1.6,3.5c2.3-0.8,4.7-1.6,7.3-2.1c1.4,0.4,2.5,0.9,3.3,1.6c0.2,0.2,0.5,0.4,1,0.4c0.4,0,0.7-0.2,0.9-0.3
		c1.1-0.7,2.4-1.4,3.9-1.9c0.2-0.1,0.5-0.1,0.7-0.1c0.2,0,0.4,0.1,0.5,0.2c1.4,0.9,2.8,1.8,4.2,2.7c0.2,0.1,0.4,0.3,0.8,0.3
		c0.3,0,0.7-0.1,0.5-0.3"/>
</g>
<g>
	<path class="st2" d="M278.6,177.9c-2.3,2.9-4.4,5.8-6.3,8.7c-3.9-1-7.6-2.4-11-4.1c-2.4,1.6-4.7,3.2-7.1,4.7
		c-0.4,0.3-0.9,0.6-1.5,0.7c-0.6,0.1-1.2,0-1.7-0.1c-2-0.4-3.9-0.8-5.9-1.1c-0.4-0.1-0.9-0.2-1.3-0.1c-0.6,0.1-0.9,0.5-1.3,0.7
		c-2.5,1.8-7.3,1.6-9.4-0.5c0.3,1.4,1.7,2.5,3,3.5c0.4,0.3,0.9,0.7,1.5,0.8c0.8,0.1,1.6-0.3,2.4-0.6c3.7-1.6,8.9-1.5,12.3,0.4
		c0.7,0.4,1.4,0.9,2.3,1c1.3,0.2,2.5-0.5,3.3-1.3c0.8-0.7,1.4-1.6,2.5-2.2c2.3-1.1,5.5-0.3,7.7,0.9c2.2,1.2,4.1,2.8,6.8,3.3
		c1.4-1.5,2.8-3.1,4.1-4.6"/>
</g>
<g>
	<path class="st13" d="M241.3,85c-0.1-8.4-0.4-24.3-6.8-31c-2.7-2.9-5.9-3.5-9-2.7c0,0,0,0-0.1,0c-1.7,15.2-2.9,36.1-3.5,54.2
		c-0.3,8.1-0.4,15.7-0.4,21.9c0,0,0,0,0,0c0,7.2,7.5,89.1,8.7,97.6c0.7,4.7,9,8.5,15.7,10.6c0.2-0.2,0.3-0.4,0.5-0.6
		c0.2-0.3,0.5-0.7,0.7-1c0.3-0.4,0.5-0.8,0.7-1.2c0.3-0.6,0.5-1.1,0.7-1.6c0.1-0.4,0.2-0.7,0.2-1C249.6,183.2,242,132.8,241.3,85z"
		/>
</g>
<g>
	<path class="st2" d="M282.5,127.5c-1.5,0.8-3,1.5-4.5,2.3c-0.1,0.1-0.3,0.1-0.5,0.2c-0.4,0.1-0.8,0-1.2-0.1c-1-0.2-1.7-0.5-2.6-0.8
		s-2.3-0.3-3.2-0.1c-0.4,0.1-0.6,0.2-0.8,0.4c-0.7,0.4-1.6,0.8-2.5,1.2c-0.2,0.1-0.5,0.2-0.9,0.2c-0.3,0-0.6-0.1-0.9-0.1
		c-1.8-0.4-3.6-0.8-5.4-1.2c-2.3,0.7-4.6,1.3-7,2c-0.2,0.1-0.5,0.1-0.8,0.1c-0.3,0-0.5-0.1-0.7-0.1c-1.3-0.4-2.6-0.7-3.8-1.1
		c0.6,1.2,1.3,2.5,2.4,3.7c3.3-0.9,6.9-1.6,10.8-2.2c2,0.4,3.7,1,4.9,1.6c0.4,0.2,0.8,0.5,1.5,0.4c0.6,0,1-0.2,1.3-0.4
		c1.5-0.8,3.5-1.4,5.8-1.9c0.3-0.1,0.7-0.1,1.1-0.1c0.3,0,0.5,0.1,0.7,0.2c2.1,0.9,4.2,1.8,6.2,2.7c0.3,0.1,0.6,0.3,1.1,0.3
		c0.5,0,1-0.1,0.8-0.3"/>
</g>
<g>
	<path class="st1" d="M403.4,126.4h-2.3c-0.3,0-0.5-0.2-0.5-0.5c0-0.3,0.2-0.5,0.5-0.5h2.3c0.3,0,0.5,0.2,0.5,0.5
		C403.9,126.2,403.7,126.4,403.4,126.4z M396.2,126.4h-2.3c-0.3,0-0.5-0.2-0.5-0.5c0-0.3,0.2-0.5,0.5-0.5h2.3c0.3,0,0.5,0.2,0.5,0.5
		C396.7,126.2,396.5,126.4,396.2,126.4z"/>
</g>
<g>
	<path class="st1" d="M390.7,110.7h-2.3c-0.3,0-0.5-0.2-0.5-0.5c0-0.3,0.2-0.5,0.5-0.5h2.3c0.3,0,0.5,0.2,0.5,0.5
		C391.2,110.5,391,110.7,390.7,110.7z M383.4,110.7h-2.3c-0.3,0-0.5-0.2-0.5-0.5c0-0.3,0.2-0.5,0.5-0.5h2.3c0.3,0,0.5,0.2,0.5,0.5
		C383.9,110.5,383.7,110.7,383.4,110.7z M376.2,110.7h-2.3c-0.3,0-0.5-0.2-0.5-0.5c0-0.3,0.2-0.5,0.5-0.5h2.3c0.3,0,0.5,0.2,0.5,0.5
		C376.7,110.5,376.4,110.7,376.2,110.7z M368.9,110.7h-2.3c-0.3,0-0.5-0.2-0.5-0.5c0-0.3,0.2-0.5,0.5-0.5h2.3c0.3,0,0.5,0.2,0.5,0.5
		C369.4,110.5,369.2,110.7,368.9,110.7z M361.7,110.7h-2.3c-0.3,0-0.5-0.2-0.5-0.5c0-0.3,0.2-0.5,0.5-0.5h2.3c0.3,0,0.5,0.2,0.5,0.5
		C362.1,110.5,361.9,110.7,361.7,110.7z M354.4,110.7h-2.3c-0.3,0-0.5-0.2-0.5-0.5c0-0.3,0.2-0.5,0.5-0.5h2.3c0.3,0,0.5,0.2,0.5,0.5
		C354.9,110.5,354.7,110.7,354.4,110.7z M347.1,110.7h-2.3c-0.3,0-0.5-0.2-0.5-0.5c0-0.3,0.2-0.5,0.5-0.5h2.3c0.3,0,0.5,0.2,0.5,0.5
		C347.6,110.5,347.4,110.7,347.1,110.7z M339.9,110.7h-2.3c-0.3,0-0.5-0.2-0.5-0.5c0-0.3,0.2-0.5,0.5-0.5h2.3c0.3,0,0.5,0.2,0.5,0.5
		C340.4,110.5,340.1,110.7,339.9,110.7z M332.6,110.7h-2.3c-0.3,0-0.5-0.2-0.5-0.5c0-0.3,0.2-0.5,0.5-0.5h2.3c0.3,0,0.5,0.2,0.5,0.5
		C333.1,110.5,332.9,110.7,332.6,110.7z M325.3,110.7H323c-0.3,0-0.5-0.2-0.5-0.5c0-0.3,0.2-0.5,0.5-0.5h2.3c0.3,0,0.5,0.2,0.5,0.5
		C325.8,110.5,325.6,110.7,325.3,110.7z M318.1,110.7h-2.3c-0.3,0-0.5-0.2-0.5-0.5c0-0.3,0.2-0.5,0.5-0.5h2.3c0.3,0,0.5,0.2,0.5,0.5
		C318.6,110.5,318.4,110.7,318.1,110.7z M310.8,110.7h-2.3c-0.3,0-0.5-0.2-0.5-0.5c0-0.3,0.2-0.5,0.5-0.5h2.3c0.3,0,0.5,0.2,0.5,0.5
		C311.3,110.5,311.1,110.7,310.8,110.7z M303.6,110.7h-2.3c-0.3,0-0.5-0.2-0.5-0.5c0-0.3,0.2-0.5,0.5-0.5h2.3c0.3,0,0.5,0.2,0.5,0.5
		C304.1,110.5,303.8,110.7,303.6,110.7z M296.3,110.7H294c-0.3,0-0.5-0.2-0.5-0.5c0-0.3,0.2-0.5,0.5-0.5h2.3c0.3,0,0.5,0.2,0.5,0.5
		C296.8,110.5,296.6,110.7,296.3,110.7z M289,110.7h-2.3c-0.3,0-0.5-0.2-0.5-0.5c0-0.3,0.2-0.5,0.5-0.5h2.3c0.3,0,0.5,0.2,0.5,0.5
		C289.5,110.5,289.3,110.7,289,110.7z M281.8,110.7h-2.3c-0.3,0-0.5-0.2-0.5-0.5c0-0.3,0.2-0.5,0.5-0.5h2.3c0.3,0,0.5,0.2,0.5,0.5
		C282.3,110.5,282.1,110.7,281.8,110.7z M274.5,110.7h-2.3c-0.3,0-0.5-0.2-0.5-0.5c0-0.3,0.2-0.5,0.5-0.5h2.3c0.3,0,0.5,0.2,0.5,0.5
		C275,110.5,274.8,110.7,274.5,110.7z M267.3,110.7H265c-0.3,0-0.5-0.2-0.5-0.5c0-0.3,0.2-0.5,0.5-0.5h2.3c0.3,0,0.5,0.2,0.5,0.5
		C267.8,110.5,267.5,110.7,267.3,110.7z M260,110.7h-2.3c-0.3,0-0.5-0.2-0.5-0.5c0-0.3,0.2-0.5,0.5-0.5h2.3c0.3,0,0.5,0.2,0.5,0.5
		C260.5,110.5,260.3,110.7,260,110.7z"/>
</g>
<g>
	<g>
		<path class="st14" d="M273.6,83.8c0-0.8,0.3-1.3,0.7-1.9c0.1-0.1,0.2-0.1,0.2,0l0.3,0.3c0.1,0.1,0.1,0.1,0,0.2
			c-0.3,0.4-0.5,0.9-0.5,1.3c0,1.1,0.9,1.9,2,1.9s2-0.8,2-1.9c0-0.6-0.2-0.9-0.5-1.3c-0.1-0.1,0-0.1,0-0.2l0.3-0.4
			c0.1-0.1,0.2,0,0.2,0c0.5,0.5,0.7,1.2,0.7,1.9c0,1.5-1.2,2.8-2.7,2.8C274.8,86.6,273.6,85.4,273.6,83.8z"/>
	</g>
	<g>
		<path class="st14" d="M273.8,81.1c-0.1,0-0.2-0.1-0.2-0.2v-0.4c0-0.1,0.1-0.2,0.2-0.2h5c0.1,0,0.2,0.1,0.2,0.2v0.4
			c0,0.1-0.1,0.2-0.2,0.2H273.8z"/>
	</g>
	<g>
		<path class="st14" d="M275.4,77.7c0-0.9,0.7-1.6,1.6-1.6c0.1,0,0.2,0,0.2,0c0.1,0,0.2,0.1,0.2,0.2v2.4c0.5,0,1-0.4,1-1.1
			c0-0.4-0.1-0.7-0.3-0.9c-0.1-0.1-0.1-0.1,0-0.2l0.3-0.2c0.1-0.1,0.1-0.1,0.2,0c0.2,0.3,0.4,0.7,0.4,1.3c0,1.1-0.8,1.8-1.9,1.8
			C276.3,79.4,275.4,78.7,275.4,77.7z M276.9,76.8c-0.4,0-0.8,0.4-0.8,0.9c0,0.6,0.4,0.9,0.8,0.9V76.8z"/>
	</g>
	<g>
		<path class="st14" d="M276.8,74.1c0-0.4,0.1-0.7,0.1-0.7c-0.6,0-0.8,0.1-0.8,0.6c0,0.4,0.1,0.8,0.2,1c0,0.1,0,0.2-0.1,0.2
			l-0.3,0.1c-0.1,0-0.2,0-0.2-0.1c0-0.1-0.2-0.6-0.2-1.2c0-1.1,0.7-1.2,1.6-1.2h1.9c0.1,0,0.2,0.1,0.2,0.2v0.3c0,0.1,0,0.1-0.1,0.1
			l-0.2,0.1c0.2,0.2,0.4,0.5,0.4,1.1c0,0.7-0.4,1.1-1.2,1.1C277.3,75.5,276.8,75,276.8,74.1z M278.5,74.2c0-0.4-0.3-0.7-0.4-0.8
			h-0.6c0,0-0.1,0.3-0.1,0.6c0,0.4,0.2,0.7,0.6,0.7C278.2,74.8,278.5,74.6,278.5,74.2z"/>
	</g>
	<g>
		<path class="st14" d="M275.7,71.6c-0.1,0-0.2-0.1-0.2-0.2v-0.2c0-0.1,0.1-0.1,0.1-0.2l0.3-0.1c-0.1-0.1-0.5-0.4-0.5-1.1
			c0-0.3,0.1-0.8,0.3-0.6l0.4,0.2c0.1,0,0.1,0.1,0.1,0.2c0,0.1-0.1,0.2-0.1,0.3c0,0.5,0.4,0.8,0.5,0.8h2.2c0.2,0,0.2,0.1,0.2,0.2
			v0.4c0,0.1-0.1,0.2-0.2,0.2H275.7z"/>
	</g>
	<g>
		<path class="st14" d="M273.6,64.4c0-0.8,0.3-1.3,0.7-1.9c0.1-0.1,0.2-0.1,0.2,0l0.3,0.3c0.1,0.1,0.1,0.1,0,0.2
			c-0.3,0.4-0.5,0.9-0.5,1.3c0,1.1,0.9,1.9,2,1.9s2-0.8,2-1.9c0-0.6-0.2-0.9-0.5-1.3c-0.1-0.1,0-0.1,0-0.2l0.3-0.4
			c0.1-0.1,0.2,0,0.2,0c0.5,0.5,0.7,1.2,0.7,1.9c0,1.5-1.2,2.8-2.7,2.8C274.8,67.1,273.6,65.9,273.6,64.4z"/>
	</g>
	<g>
		<path class="st14" d="M275.4,60.1c0-1,0.8-1.8,1.8-1.8c1,0,1.9,0.8,1.9,1.8c0,1-0.9,1.8-1.9,1.8C276.3,61.9,275.4,61.1,275.4,60.1
			z M278.4,60.1c0-0.6-0.5-1-1.1-1c-0.6,0-1.1,0.5-1.1,1c0,0.6,0.5,1.1,1.1,1.1C277.9,61.2,278.4,60.7,278.4,60.1z"/>
	</g>
	<g>
		<path class="st14" d="M276.8,56.3c0-0.4,0.1-0.7,0.1-0.7c-0.6,0-0.8,0.1-0.8,0.6c0,0.4,0.1,0.8,0.2,1c0,0.1,0,0.2-0.1,0.2
			l-0.3,0.1c-0.1,0-0.2,0-0.2-0.1c0-0.1-0.2-0.6-0.2-1.2c0-1.1,0.7-1.2,1.6-1.2h1.9c0.1,0,0.2,0.1,0.2,0.2v0.3c0,0.1,0,0.1-0.1,0.1
			l-0.2,0.1c0.2,0.2,0.4,0.5,0.4,1.1c0,0.7-0.4,1.1-1.2,1.1C277.3,57.7,276.8,57.2,276.8,56.3z M278.5,56.4c0-0.4-0.3-0.7-0.4-0.8
			h-0.6c0,0-0.1,0.3-0.1,0.6c0,0.4,0.2,0.7,0.6,0.7C278.2,57,278.5,56.8,278.5,56.4z"/>
	</g>
	<g>
		<path class="st14" d="M276.1,53.6V54c0,0.1-0.1,0.2-0.2,0.2h-0.3c-0.1,0-0.2-0.1-0.2-0.2v-0.4h-1c-0.1,0-0.2-0.1-0.2-0.2V53
			c0-0.1,0.1-0.2,0.2-0.2h1v-0.9c0-0.1,0.1-0.2,0.2-0.2h0.3c0.1,0,0.2,0.1,0.2,0.2v0.9h1.9c0.3,0,0.4-0.1,0.4-0.3
			c0-0.2-0.1-0.4-0.2-0.6c-0.1-0.1,0-0.2,0.1-0.2l0.4-0.1c0.1,0,0.2,0,0.2,0.1c0.1,0.1,0.3,0.6,0.3,1c0,0.7-0.4,0.9-1.1,0.9H276.1z"
			/>
	</g>
</g>
<g>
	<g>
		<path class="st14" d="M263.2,90.4c0.2-0.5,0.6-0.9,1.2-0.9c0.9,0,1.5,0.7,1.5,1.7V93c0,0.1-0.1,0.1-0.1,0.1h-5.1
			c-0.1,0-0.1-0.1-0.1-0.1v-1.7c0-0.9,0.6-1.6,1.4-1.6C262.6,89.7,263,90,263.2,90.4L263.2,90.4z M262.9,91.4c0-0.5-0.3-0.8-0.8-0.8
			c-0.5,0-0.8,0.3-0.8,0.8v1h1.6V91.4z M265.3,91.2c0-0.5-0.4-0.8-0.8-0.8c-0.5,0-0.8,0.4-0.8,0.8v1.2h1.6V91.2z"/>
	</g>
	<g>
		<path class="st14" d="M263.7,87.5c0-0.4,0.1-0.7,0.1-0.7c-0.6,0-0.8,0.1-0.8,0.6c0,0.4,0.1,0.8,0.2,1c0,0.1,0,0.2-0.1,0.2
			l-0.3,0.1c-0.1,0-0.2,0-0.2-0.1c0-0.1-0.2-0.6-0.2-1.2c0-1.1,0.7-1.2,1.6-1.2h1.9c0.1,0,0.2,0.1,0.2,0.2v0.3c0,0.1,0,0.1-0.1,0.1
			l-0.2,0.1c0.2,0.2,0.4,0.5,0.4,1.1c0,0.7-0.4,1.1-1.2,1.1C264.2,88.9,263.7,88.4,263.7,87.5z M265.4,87.6c0-0.4-0.3-0.7-0.4-0.8
			h-0.6c0,0-0.1,0.3-0.1,0.6c0,0.4,0.2,0.7,0.6,0.7C265.2,88.1,265.4,87.9,265.4,87.6z"/>
	</g>
	<g>
		<path class="st14" d="M265.7,85.1c0,0.1-0.1,0.1-0.2,0.1l-0.3-0.2c-0.1,0-0.1-0.1,0-0.2c0.1-0.2,0.3-0.5,0.3-0.9
			c0-0.3-0.1-0.5-0.3-0.5c-0.2,0-0.4,0.3-0.6,0.8c-0.2,0.5-0.5,1-1.1,1c-0.4,0-1-0.3-1-1.2c0-0.5,0.1-0.9,0.3-1
			c0.1-0.1,0.2-0.1,0.3-0.1l0.2,0.1c0.1,0.1,0.1,0.2,0.1,0.2c-0.1,0.2-0.2,0.5-0.2,0.8c0,0.3,0.2,0.5,0.3,0.5c0.2,0,0.4-0.3,0.5-0.6
			c0.3-0.7,0.5-1.1,1.2-1.1c0.6,0,1,0.5,1,1.3C266,84.5,265.8,84.9,265.7,85.1z"/>
	</g>
	<g>
		<path class="st14" d="M262.3,80.3c0-0.9,0.7-1.6,1.6-1.6c0.1,0,0.2,0,0.2,0c0.1,0,0.2,0.1,0.2,0.2v2.4c0.5,0,1-0.4,1-1.1
			c0-0.4-0.1-0.7-0.3-0.9c-0.1-0.1-0.1-0.1,0-0.2l0.3-0.2c0.1-0.1,0.1-0.1,0.2,0c0.2,0.3,0.4,0.7,0.4,1.3c0,1.1-0.8,1.8-1.9,1.8
			C263.2,82.1,262.3,81.4,262.3,80.3z M263.8,79.5c-0.4,0-0.8,0.4-0.8,0.9c0,0.6,0.4,0.9,0.8,0.9V79.5z"/>
	</g>
	<g>
		<path class="st14" d="M260.5,73.5c0-0.8,0.3-1.3,0.7-1.9c0.1-0.1,0.2-0.1,0.2,0l0.3,0.3c0.1,0.1,0.1,0.1,0,0.2
			c-0.3,0.4-0.5,0.9-0.5,1.3c0,1.1,0.9,1.9,2,1.9c1.1,0,2-0.8,2-1.9c0-0.6-0.2-0.9-0.5-1.3c-0.1-0.1,0-0.1,0-0.2l0.3-0.4
			c0.1-0.1,0.2,0,0.2,0c0.5,0.5,0.7,1.2,0.7,1.9c0,1.5-1.2,2.8-2.7,2.8C261.8,76.2,260.5,75,260.5,73.5z"/>
	</g>
	<g>
		<path class="st14" d="M262.3,69.2c0-1,0.8-1.8,1.8-1.8c1,0,1.9,0.8,1.9,1.8c0,1-0.9,1.8-1.9,1.8C263.2,71,262.3,70.2,262.3,69.2z
			 M265.3,69.2c0-0.6-0.5-1-1.1-1c-0.6,0-1.1,0.5-1.1,1c0,0.6,0.5,1.1,1.1,1.1C264.8,70.3,265.3,69.8,265.3,69.2z"/>
	</g>
	<g>
		<path class="st14" d="M260.8,66.5c-0.1,0-0.2-0.1-0.2-0.2v-0.4c0-0.1,0.1-0.2,0.2-0.2h5c0.1,0,0.2,0.1,0.2,0.2v0.4
			c0,0.1-0.1,0.2-0.2,0.2H260.8z"/>
	</g>
	<g>
		<path class="st14" d="M262.3,63.1c0-1,0.8-1.8,1.8-1.8c1,0,1.9,0.8,1.9,1.8c0,1-0.9,1.8-1.9,1.8C263.2,64.9,262.3,64.1,262.3,63.1
			z M265.3,63.1c0-0.6-0.5-1-1.1-1c-0.6,0-1.1,0.5-1.1,1c0,0.6,0.5,1.1,1.1,1.1C264.8,64.1,265.3,63.7,265.3,63.1z"/>
	</g>
	<g>
		<path class="st14" d="M262.6,60.5c-0.1,0-0.2-0.1-0.2-0.2v-0.4c0-0.1,0.1-0.2,0.2-0.2h1.9c0.6,0,0.8-0.2,0.8-0.7
			c0-0.5-0.4-0.8-0.6-0.8h-2.1c-0.1,0-0.2-0.1-0.2-0.2v-0.4c0-0.1,0.1-0.2,0.2-0.2h3.2c0.1,0,0.2,0.1,0.2,0.2v0.2
			c0,0.1-0.1,0.1-0.1,0.2l-0.3,0.1c0.1,0.1,0.5,0.4,0.5,1.1c0,1.1-0.7,1.3-1.6,1.3H262.6z"/>
	</g>
	<g>
		<path class="st14" d="M262.6,56.3c-0.1,0-0.2-0.1-0.2-0.2V56c0-0.1,0.1-0.1,0.1-0.2l0.3-0.1c-0.1-0.1-0.5-0.4-0.5-1.1
			c0-0.3,0.1-0.8,0.3-0.6l0.4,0.2c0.1,0,0.1,0.1,0.1,0.2c0,0.1-0.1,0.2-0.1,0.3c0,0.5,0.4,0.8,0.5,0.8h2.2c0.2,0,0.2,0.1,0.2,0.2
			v0.4c0,0.1-0.1,0.2-0.2,0.2H262.6z"/>
	</g>
</g>
<g>
	<g>
		<path class="st14" d="M246.7,93.1c-0.1,0-0.1-0.1-0.1-0.1v-1.7c0-0.9,0.8-1.7,1.7-1.7c0.9,0,1.7,0.8,1.7,1.7v1.1h1.8
			c0.1,0,0.1,0.1,0.1,0.1V93c0,0.1-0.1,0.1-0.1,0.1H246.7z M249.2,91.3c0-0.5-0.4-0.9-1-0.9c-0.5,0-0.9,0.4-0.9,0.9v1.1h1.9V91.3z"
			/>
	</g>
	<g>
		<path class="st14" d="M248.6,88.9c-0.1,0-0.2-0.1-0.2-0.2v-0.2c0-0.1,0.1-0.1,0.1-0.2l0.3-0.1c-0.1-0.1-0.5-0.4-0.5-1.1
			c0-0.3,0.1-0.8,0.3-0.6l0.4,0.2c0.1,0,0.1,0.1,0.1,0.2c0,0.1-0.1,0.2-0.1,0.3c0,0.5,0.4,0.8,0.5,0.8h2.2c0.2,0,0.2,0.1,0.2,0.2
			v0.4c0,0.1-0.1,0.2-0.2,0.2H248.6z"/>
	</g>
	<g>
		<path class="st14" d="M247.1,86c-0.3,0-0.5-0.2-0.5-0.5c0-0.3,0.2-0.5,0.5-0.5c0.3,0,0.5,0.2,0.5,0.5
			C247.6,85.8,247.4,86,247.1,86z M248.6,85.9c-0.1,0-0.2-0.1-0.2-0.2v-0.4c0-0.1,0.1-0.2,0.2-0.2h3.2c0.1,0,0.2,0.1,0.2,0.2v0.4
			c0,0.1-0.1,0.2-0.2,0.2H248.6z"/>
	</g>
	<g>
		<path class="st14" d="M248.6,84.1c-0.1,0-0.2-0.1-0.2-0.2v-0.2c0-0.1,0-0.1,0.1-0.2l0.3-0.1c-0.1-0.1-0.5-0.5-0.5-1.1
			c0-0.5,0.2-0.8,0.6-1.1c-0.1-0.1-0.6-0.5-0.6-1.2c0-1.1,0.8-1.3,1.7-1.3h1.8c0.1,0,0.2,0.1,0.2,0.2v0.4c0,0.1-0.1,0.2-0.2,0.2H250
			c-0.6,0-0.9,0.2-0.9,0.7c0,0.5,0.4,0.8,0.4,0.9c0.1,0,0.3,0,0.5,0h1.8c0.1,0,0.2,0.1,0.2,0.2v0.4c0,0.1-0.1,0.2-0.2,0.2H250
			c-0.6,0-0.9,0.2-0.9,0.7c0,0.5,0.4,0.8,0.5,0.8h2.2c0.1,0,0.2,0.1,0.2,0.2v0.4c0,0.1-0.1,0.2-0.2,0.2H248.6z"/>
	</g>
	<g>
		<path class="st14" d="M248.3,76.1c0-0.9,0.7-1.6,1.6-1.6c0.1,0,0.2,0,0.2,0c0.1,0,0.2,0.1,0.2,0.2v2.4c0.5,0,1-0.4,1-1.1
			c0-0.4-0.1-0.7-0.3-0.9c-0.1-0.1-0.1-0.1,0-0.2l0.3-0.2c0.1-0.1,0.1-0.1,0.2,0c0.2,0.3,0.4,0.7,0.4,1.3c0,1.1-0.8,1.8-1.9,1.8
			C249.2,77.9,248.3,77.2,248.3,76.1z M249.8,75.3c-0.4,0-0.8,0.4-0.8,0.9c0,0.6,0.4,0.9,0.8,0.9V75.3z"/>
	</g>
	<g>
		<path class="st14" d="M248.6,73.7c-0.1,0-0.2-0.1-0.2-0.2v-0.2c0-0.1,0.1-0.1,0.1-0.2l0.3-0.1c-0.1-0.1-0.5-0.4-0.5-1.1
			c0-0.3,0.1-0.8,0.3-0.6l0.4,0.2c0.1,0,0.1,0.1,0.1,0.2c0,0.1-0.1,0.2-0.1,0.3c0,0.5,0.4,0.8,0.5,0.8h2.2c0.2,0,0.2,0.1,0.2,0.2
			v0.4c0,0.1-0.1,0.2-0.2,0.2H248.6z"/>
	</g>
</g>
<g>
	<path class="st1" d="M393.9,141.3c-0.3,0-0.5-0.2-0.5-0.5v-1.5c0-0.3,0.2-0.5,0.5-0.5c0.3,0,0.5,0.2,0.5,0.5v1.5
		C394.4,141,394.1,141.3,393.9,141.3z M393.9,134.8c-0.3,0-0.5-0.2-0.5-0.5V132c0-0.3,0.2-0.5,0.5-0.5c0.3,0,0.5,0.2,0.5,0.5v2.3
		C394.4,134.6,394.1,134.8,393.9,134.8z M393.9,127.6c-0.3,0-0.5-0.2-0.5-0.5v-2.3c0-0.3,0.2-0.5,0.5-0.5c0.3,0,0.5,0.2,0.5,0.5v2.3
		C394.4,127.3,394.1,127.6,393.9,127.6z M393.9,120.3c-0.3,0-0.5-0.2-0.5-0.5v-2.3c0-0.3,0.2-0.5,0.5-0.5c0.3,0,0.5,0.2,0.5,0.5v2.3
		C394.4,120.1,394.1,120.3,393.9,120.3z M393.9,113c-0.3,0-0.5-0.2-0.5-0.5v-2.3c0-0.3,0.2-0.5,0.5-0.5c0.3,0,0.5,0.2,0.5,0.5v2.3
		C394.4,112.8,394.1,113,393.9,113z"/>
</g>
<g>
	<g>
		<path class="st14" d="M230.1,139.4c-0.1,0-0.1-0.1-0.1-0.1v-0.1c0,0,0-0.1,0.1-0.1l3.9-1.6v0l-3.9-1.6c0,0-0.1-0.1-0.1-0.1v-0.1
			c0-0.1,0.1-0.1,0.1-0.1l5.1-0.9c0.1,0,0.2,0,0.2,0.1v0.5c0,0.1-0.1,0.1-0.1,0.1l-3.4,0.6c0,0,0,0,0,0l3.5,1.4c0,0,0.1,0.1,0.1,0.1
			v0.1c0,0.1,0,0.1-0.1,0.1l-3.5,1.4c0,0,0,0,0,0l3.4,0.6c0.1,0,0.1,0.1,0.1,0.1v0.5c0,0.1-0.1,0.2-0.2,0.1L230.1,139.4z"/>
	</g>
	<g>
		<path class="st14" d="M231.8,132.1c0-0.9,0.7-1.6,1.6-1.6c0.1,0,0.2,0,0.2,0c0.1,0,0.2,0.1,0.2,0.2v2.4c0.5,0,1-0.4,1-1.1
			c0-0.4-0.1-0.7-0.3-0.9c-0.1-0.1-0.1-0.1,0-0.2l0.3-0.2c0.1-0.1,0.1-0.1,0.2,0c0.2,0.3,0.4,0.7,0.4,1.3c0,1.1-0.8,1.8-1.9,1.8
			C232.7,133.9,231.8,133.2,231.8,132.1z M233.3,131.3c-0.4,0-0.8,0.4-0.8,0.9c0,0.6,0.4,0.9,0.8,0.9V131.3z"/>
	</g>
	<g>
		<path class="st14" d="M232.6,129.5v0.4c0,0.1-0.1,0.2-0.2,0.2h-0.3c-0.1,0-0.2-0.1-0.2-0.2v-0.4h-1c-0.1,0-0.2-0.1-0.2-0.2v-0.4
			c0-0.1,0.1-0.2,0.2-0.2h1v-0.9c0-0.1,0.1-0.2,0.2-0.2h0.3c0.1,0,0.2,0.1,0.2,0.2v0.9h1.9c0.3,0,0.4-0.1,0.4-0.3
			c0-0.2-0.1-0.4-0.2-0.6c-0.1-0.1,0-0.2,0.1-0.2l0.4-0.1c0.1,0,0.2,0,0.2,0.1c0.1,0.1,0.3,0.6,0.3,1c0,0.7-0.4,0.9-1.1,0.9H232.6z"
			/>
	</g>
	<g>
		<path class="st14" d="M233.2,125.7c0-0.4,0.1-0.7,0.1-0.7c-0.6,0-0.8,0.1-0.8,0.6c0,0.4,0.1,0.8,0.2,1c0,0.1,0,0.2-0.1,0.2
			l-0.3,0.1c-0.1,0-0.2,0-0.2-0.1c0-0.1-0.2-0.6-0.2-1.2c0-1.1,0.7-1.2,1.6-1.2h1.9c0.1,0,0.2,0.1,0.2,0.2v0.3c0,0.1,0,0.1-0.1,0.1
			l-0.2,0.1c0.2,0.2,0.4,0.5,0.4,1.1c0,0.7-0.4,1.1-1.2,1.1C233.7,127.1,233.2,126.6,233.2,125.7z M234.9,125.8
			c0-0.4-0.3-0.7-0.4-0.8h-0.6c0,0-0.1,0.3-0.1,0.6c0,0.4,0.2,0.7,0.6,0.7C234.7,126.3,234.9,126.1,234.9,125.8z"/>
	</g>
	<g>
		<path class="st14" d="M230.3,123.1c-0.1,0-0.2-0.1-0.2-0.2v-0.4c0-0.1,0.1-0.2,0.2-0.2h5c0.1,0,0.2,0.1,0.2,0.2v0.4
			c0,0.1-0.1,0.2-0.2,0.2H230.3z"/>
	</g>
	<g>
		<path class="st14" d="M232.7,116.6c0.2-0.5,0.6-0.9,1.2-0.9c0.9,0,1.5,0.7,1.5,1.7v1.8c0,0.1-0.1,0.1-0.1,0.1h-5.1
			c-0.1,0-0.1-0.1-0.1-0.1v-1.7c0-0.9,0.6-1.6,1.4-1.6C232.1,115.8,232.5,116.1,232.7,116.6L232.7,116.6z M232.4,117.5
			c0-0.5-0.3-0.8-0.8-0.8c-0.5,0-0.8,0.3-0.8,0.8v1h1.6V117.5z M234.8,117.3c0-0.5-0.4-0.8-0.8-0.8c-0.5,0-0.8,0.4-0.8,0.8v1.2h1.6
			V117.3z"/>
	</g>
	<g>
		<path class="st14" d="M231.8,113.2c0-1,0.8-1.8,1.8-1.8c1,0,1.9,0.8,1.9,1.8c0,1-0.9,1.8-1.9,1.8
			C232.7,115,231.8,114.2,231.8,113.2z M234.8,113.2c0-0.6-0.5-1-1.1-1c-0.6,0-1.1,0.5-1.1,1c0,0.6,0.5,1.1,1.1,1.1
			C234.3,114.2,234.8,113.8,234.8,113.2z"/>
	</g>
	<g>
		<path class="st14" d="M231.8,109c0-0.5,0.2-0.8,0.2-0.9h-1.8c-0.1,0-0.2-0.1-0.2-0.2v-0.4c0-0.1,0.1-0.2,0.2-0.2h5
			c0.1,0,0.2,0.1,0.2,0.2v0.2c0,0.1-0.1,0.1-0.2,0.2l-0.3,0.1c0,0,0.5,0.5,0.5,1.2c0,0.9-0.8,1.6-1.9,1.6
			C232.7,110.7,231.8,110,231.8,109z M234.8,109c0-0.5-0.4-0.8-0.5-0.9h-1.5c0,0-0.2,0.4-0.2,0.8c0,0.6,0.5,1,1.1,1
			C234.3,110,234.8,109.6,234.8,109z"/>
	</g>
	<g>
		<path class="st14" d="M232.2,106.6c-0.1,0-0.2,0-0.2-0.2V106c0-0.1,0-0.1,0.1-0.2l2.4-0.8v0l-2.4-1c-0.1,0-0.1-0.1-0.1-0.2v-0.5
			c0-0.1,0.1-0.2,0.2-0.2l5,2.2c0.1,0,0.1,0.1,0.1,0.1v0.5c0,0.1-0.1,0.2-0.2,0.2l-1.7-0.7L232.2,106.6z"/>
	</g>
</g>
<g>
	<g>
		<path class="st3" d="M268.9,246.2c-30.6,0-59.4-11.9-81-33.6c-21.6-21.6-33.6-50.4-33.6-81s11.9-59.4,33.6-81
			c21.6-21.6,50.4-33.6,81-33.6c30.6,0,59.4,11.9,81,33.6c21.6,21.6,33.6,50.4,33.6,81s-11.9,59.4-33.6,81
			C328.2,234.3,299.5,246.2,268.9,246.2z M268.9,19.4c-30,0-58.2,11.7-79.4,32.9c-21.2,21.2-32.9,49.4-32.9,79.4
			c0,30,11.7,58.2,32.9,79.4c21.2,21.2,49.4,32.9,79.4,32.9s58.2-11.7,79.4-32.9c21.2-21.2,32.9-49.4,32.9-79.4
			s-11.7-58.2-32.9-79.4C327,31.1,298.8,19.4,268.9,19.4z"/>
	</g>
</g>
<g>
	<path class="st1" d="M406.5,197.7h-2.3c-0.3,0-0.5-0.2-0.5-0.5s0.2-0.5,0.5-0.5h2.3c0.3,0,0.5,0.2,0.5,0.5S406.7,197.7,406.5,197.7
		z M399.2,197.7h-2.3c-0.3,0-0.5-0.2-0.5-0.5s0.2-0.5,0.5-0.5h2.3c0.3,0,0.5,0.2,0.5,0.5S399.5,197.7,399.2,197.7z M391.9,197.7
		h-2.3c-0.3,0-0.5-0.2-0.5-0.5s0.2-0.5,0.5-0.5h2.3c0.3,0,0.5,0.2,0.5,0.5S392.2,197.7,391.9,197.7z M384.7,197.7h-2.3
		c-0.3,0-0.5-0.2-0.5-0.5s0.2-0.5,0.5-0.5h2.3c0.3,0,0.5,0.2,0.5,0.5S385,197.7,384.7,197.7z M377.4,197.7h-2.3
		c-0.3,0-0.5-0.2-0.5-0.5s0.2-0.5,0.5-0.5h2.3c0.3,0,0.5,0.2,0.5,0.5S377.7,197.7,377.4,197.7z M370.2,197.7h-2.3
		c-0.3,0-0.5-0.2-0.5-0.5s0.2-0.5,0.5-0.5h2.3c0.3,0,0.5,0.2,0.5,0.5S370.4,197.7,370.2,197.7z M362.9,197.7h-2.3
		c-0.3,0-0.5-0.2-0.5-0.5s0.2-0.5,0.5-0.5h2.3c0.3,0,0.5,0.2,0.5,0.5S363.2,197.7,362.9,197.7z M355.6,197.7h-2.3
		c-0.3,0-0.5-0.2-0.5-0.5s0.2-0.5,0.5-0.5h2.3c0.3,0,0.5,0.2,0.5,0.5S355.9,197.7,355.6,197.7z M348.4,197.7h-2.3
		c-0.3,0-0.5-0.2-0.5-0.5s0.2-0.5,0.5-0.5h2.3c0.3,0,0.5,0.2,0.5,0.5S348.6,197.7,348.4,197.7z M341.1,197.7h-2.3
		c-0.3,0-0.5-0.2-0.5-0.5s0.2-0.5,0.5-0.5h2.3c0.3,0,0.5,0.2,0.5,0.5S341.4,197.7,341.1,197.7z M333.9,197.7h-2.3
		c-0.3,0-0.5-0.2-0.5-0.5s0.2-0.5,0.5-0.5h2.3c0.3,0,0.5,0.2,0.5,0.5S334.1,197.7,333.9,197.7z M326.6,197.7h-2.3
		c-0.3,0-0.5-0.2-0.5-0.5s0.2-0.5,0.5-0.5h2.3c0.3,0,0.5,0.2,0.5,0.5S326.9,197.7,326.6,197.7z M319.3,197.7H317
		c-0.3,0-0.5-0.2-0.5-0.5s0.2-0.5,0.5-0.5h2.3c0.3,0,0.5,0.2,0.5,0.5S319.6,197.7,319.3,197.7z M312.1,197.7h-2.3
		c-0.3,0-0.5-0.2-0.5-0.5s0.2-0.5,0.5-0.5h2.3c0.3,0,0.5,0.2,0.5,0.5S312.3,197.7,312.1,197.7z M304.8,197.7h-2.3
		c-0.3,0-0.5-0.2-0.5-0.5s0.2-0.5,0.5-0.5h2.3c0.3,0,0.5,0.2,0.5,0.5S305.1,197.7,304.8,197.7z M297.5,197.7h-2.3
		c-0.3,0-0.5-0.2-0.5-0.5s0.2-0.5,0.5-0.5h2.3c0.3,0,0.5,0.2,0.5,0.5S297.8,197.7,297.5,197.7z M290.3,197.7H288
		c-0.3,0-0.5-0.2-0.5-0.5s0.2-0.5,0.5-0.5h2.3c0.3,0,0.5,0.2,0.5,0.5S290.6,197.7,290.3,197.7z M283,197.7h-2.3
		c-0.3,0-0.5-0.2-0.5-0.5s0.2-0.5,0.5-0.5h2.3c0.3,0,0.5,0.2,0.5,0.5S283.3,197.7,283,197.7z M275.8,197.7h-2.3
		c-0.3,0-0.5-0.2-0.5-0.5s0.2-0.5,0.5-0.5h2.3c0.3,0,0.5,0.2,0.5,0.5S276,197.7,275.8,197.7z M268.5,197.7h-2.3
		c-0.3,0-0.5-0.2-0.5-0.5s0.2-0.5,0.5-0.5h2.3c0.3,0,0.5,0.2,0.5,0.5S268.8,197.7,268.5,197.7z M261.2,197.7h-2.3
		c-0.3,0-0.5-0.2-0.5-0.5s0.2-0.5,0.5-0.5h2.3c0.3,0,0.5,0.2,0.5,0.5S261.5,197.7,261.2,197.7z M254,197.7h-2.3
		c-0.3,0-0.5-0.2-0.5-0.5s0.2-0.5,0.5-0.5h2.3c0.3,0,0.5,0.2,0.5,0.5S254.3,197.7,254,197.7z M246.7,197.7h-2.3
		c-0.3,0-0.5-0.2-0.5-0.5s0.2-0.5,0.5-0.5h2.3c0.3,0,0.5,0.2,0.5,0.5S247,197.7,246.7,197.7z M239.5,197.7h-2.3
		c-0.3,0-0.5-0.2-0.5-0.5s0.2-0.5,0.5-0.5h2.3c0.3,0,0.5,0.2,0.5,0.5S239.7,197.7,239.5,197.7z"/>
</g>
<g>
	<path class="st15" d="M239.6,159.9c0.2,1.2-7.5,11.7-8.2,14.2c-1.5,5.2-2.5,12-0.3,16.9C239.2,184.1,241.4,169.8,239.6,159.9z"/>
</g>
<g>
	<path class="st15" d="M232.2,204.8c1.6,7.2,3.1,14.3,4.7,21.5c4.1-7.2,1.8-17.3-5-22"/>
</g>
<g>
	<path class="st15" d="M236,192.7c1.2-3.8,4.7-6.7,8.6-7.2c-1.9,4.3-6.8,7-11.5,6.2c1-1.2,1.9-2.3,2.9-3.5"/>
</g>
<g>
	<g>
		<path class="st1" d="M106.4,283.5c0-0.2,0.2-0.4,0.4-0.4h4.8c4,0,7.4,3.3,7.4,7.3c0,4.1-3.3,7.4-7.4,7.4h-4.8
			c-0.2,0-0.4-0.2-0.4-0.4V283.5z M111.4,295.8c3.1,0,5.3-2.3,5.3-5.4c0-3.1-2.2-5.3-5.3-5.3h-2.8v10.7H111.4z"/>
	</g>
	<g>
		<path class="st1" d="M125.6,287.9c2.5,0,4.4,1.9,4.4,4.4c0,0.2,0,0.5,0,0.7c0,0.3-0.2,0.4-0.4,0.4h-6.7c0,1.3,1.2,2.6,2.9,2.6
			c1.1,0,1.8-0.4,2.4-0.8c0.2-0.1,0.4-0.2,0.6,0l0.6,0.9c0.2,0.2,0.3,0.4,0,0.7c-0.7,0.6-2,1.2-3.6,1.2c-2.9,0-4.8-2.3-4.8-5.1
			C120.8,290.2,122.7,287.9,125.6,287.9z M127.9,291.9c0-1.2-1-2.2-2.4-2.2c-1.5,0-2.5,1-2.6,2.2H127.9z"/>
	</g>
	<g>
		<path class="st1" d="M132.2,288.6c0-0.2,0.2-0.5,0.5-0.5h0.5c0.2,0,0.4,0.1,0.4,0.3l0.3,0.8c0.2-0.3,1.3-1.3,3.2-1.3
			c3,0,3.8,2.1,3.8,4.6v4.9c0,0.3-0.2,0.5-0.5,0.5h-1.2c-0.3,0-0.5-0.2-0.5-0.5v-4.9c0-1.6-0.6-2.5-1.9-2.5c-1.5,0-2.4,1.1-2.6,1.4
			v6c0,0.3-0.2,0.5-0.6,0.5h-1.1c-0.3,0-0.5-0.2-0.5-0.5V288.6z"/>
	</g>
	<g>
		<path class="st1" d="M144.2,289.9h-1.1c-0.3,0-0.5-0.2-0.5-0.5v-0.9c0-0.3,0.2-0.5,0.5-0.5h1.1v-2.7c0-0.3,0.2-0.5,0.5-0.5h1.2
			c0.3,0,0.4,0.2,0.4,0.5v2.7h2.6c0.3,0,0.5,0.2,0.5,0.5v0.9c0,0.2-0.2,0.5-0.5,0.5h-2.6v5.2c0,0.8,0.3,1,0.8,1
			c0.6,0,1.2-0.3,1.6-0.5c0.3-0.2,0.5,0,0.6,0.2l0.4,1c0.1,0.3,0,0.4-0.2,0.6c-0.4,0.3-1.5,0.7-2.7,0.7c-1.9,0-2.5-1.2-2.5-2.9
			V289.9z"/>
	</g>
	<g>
		<path class="st1" d="M156.2,284.6c0-0.8,0.6-1.4,1.4-1.4c0.8,0,1.4,0.6,1.4,1.4c0,0.8-0.6,1.4-1.4,1.4
			C156.8,286,156.2,285.4,156.2,284.6z M156.6,288.6c0-0.2,0.2-0.5,0.5-0.5h1.2c0.2,0,0.5,0.2,0.5,0.5v8.8c0,0.3-0.2,0.5-0.5,0.5
			H157c-0.3,0-0.5-0.2-0.5-0.5V288.6z"/>
	</g>
	<g>
		<path class="st1" d="M161.2,297c-0.1-0.1-0.3-0.3-0.2-0.5l0.4-0.9c0.1-0.2,0.4-0.3,0.6-0.1c0.6,0.3,1.3,0.7,2.4,0.7
			c0.8,0,1.3-0.4,1.3-0.9c0-0.6-0.7-1.1-2.1-1.7c-1.5-0.7-2.6-1.5-2.6-3.1c0-1.2,0.9-2.6,3.2-2.6c1.3,0,2.3,0.4,2.8,0.7
			c0.2,0.2,0.3,0.5,0.2,0.7L167,290c-0.1,0.3-0.4,0.3-0.6,0.2c-0.7-0.3-1.3-0.5-2.1-0.5c-0.8,0-1.2,0.4-1.2,0.9c0,0.6,0.7,1,1.7,1.4
			c1.8,0.8,3.1,1.4,3.1,3.2c0,1.5-1.3,2.8-3.5,2.8C162.8,298,161.7,297.4,161.2,297z"/>
	</g>
	<g>
		<path class="st1" d="M178.2,291.7c1,0,1.9,0.3,1.9,0.3c0-1.5-0.3-2.2-1.6-2.2c-1.1,0-2.2,0.3-2.7,0.5c-0.3,0.1-0.5-0.1-0.5-0.4
			l-0.2-0.8c-0.1-0.3,0.1-0.5,0.3-0.6c0.2-0.1,1.6-0.5,3.3-0.5c3.1,0,3.4,1.9,3.4,4.3v5.2c0,0.3-0.2,0.5-0.5,0.5h-0.7
			c-0.2,0-0.3-0.1-0.4-0.3l-0.2-0.6c-0.5,0.5-1.5,1.2-3,1.2c-1.8,0-3.1-1.2-3.1-3.2C174.4,293,175.7,291.7,178.2,291.7z
			 M177.9,296.3c1,0,1.9-0.7,2.2-1.2v-1.6c-0.1-0.1-0.9-0.3-1.8-0.3c-1.1,0-2,0.6-2,1.6C176.4,295.6,176.9,296.3,177.9,296.3z"/>
	</g>
	<g>
		<path class="st1" d="M194.2,287.9c1.2,0,2.2,0.4,2.4,0.5v-4.8c0-0.2,0.2-0.5,0.5-0.5h1.2c0.3,0,0.5,0.2,0.5,0.5v13.8
			c0,0.3-0.2,0.5-0.5,0.5h-0.5c-0.2,0-0.4-0.2-0.4-0.4l-0.2-0.7c0,0-1.3,1.4-3.2,1.4c-2.6,0-4.4-2.3-4.4-5.1
			C189.5,290.1,191.5,287.9,194.2,287.9z M194.2,296c1.5,0,2.3-1.2,2.4-1.4v-4.2c0,0-1-0.6-2.2-0.6c-1.6,0-2.8,1.4-2.8,3.1
			C191.6,294.6,192.7,296,194.2,296z"/>
	</g>
	<g>
		<path class="st1" d="M204.8,291.7c1,0,1.9,0.3,1.9,0.3c0-1.5-0.3-2.2-1.6-2.2c-1.1,0-2.2,0.3-2.7,0.5c-0.3,0.1-0.5-0.1-0.5-0.4
			l-0.2-0.8c-0.1-0.3,0.1-0.5,0.3-0.6c0.2-0.1,1.6-0.5,3.3-0.5c3.1,0,3.4,1.9,3.4,4.3v5.2c0,0.3-0.2,0.5-0.5,0.5h-0.7
			c-0.2,0-0.3-0.1-0.4-0.3l-0.2-0.6c-0.5,0.5-1.5,1.2-3,1.2c-1.8,0-3.1-1.2-3.1-3.2C201,293,202.3,291.7,204.8,291.7z M204.5,296.3
			c1,0,1.9-0.7,2.2-1.2v-1.6c-0.1-0.1-0.9-0.3-1.8-0.3c-1.1,0-2,0.6-2,1.6C203,295.6,203.5,296.3,204.5,296.3z"/>
	</g>
	<g>
		<path class="st1" d="M211.7,288.6c0-0.2,0.2-0.5,0.5-0.5h0.5c0.2,0,0.4,0.1,0.4,0.3l0.3,0.8c0.2-0.2,1.2-1.3,3.1-1.3
			c1.4,0,2.2,0.5,3,1.5c0.3-0.3,1.4-1.5,3.3-1.5c3,0,3.7,2.1,3.7,4.6v4.9c0,0.3-0.2,0.5-0.5,0.5h-1.2c-0.3,0-0.5-0.2-0.5-0.5v-4.9
			c0-1.6-0.6-2.5-1.9-2.5c-1.5,0-2.2,1-2.3,1.1c0,0.2,0.1,0.8,0.1,1.3v5c0,0.3-0.2,0.5-0.4,0.5h-1.2c-0.3,0-0.5-0.2-0.5-0.5v-4.9
			c0-1.6-0.6-2.5-1.9-2.5c-1.4,0-2.2,1.1-2.3,1.4v6c0,0.3-0.2,0.5-0.5,0.5h-1.2c-0.3,0-0.5-0.2-0.5-0.5V288.6z"/>
	</g>
	<g>
		<path class="st1" d="M232.3,291.7c1,0,1.9,0.3,1.9,0.3c0-1.5-0.3-2.2-1.6-2.2c-1.1,0-2.2,0.3-2.7,0.5c-0.3,0.1-0.5-0.1-0.5-0.4
			l-0.2-0.8c-0.1-0.3,0.1-0.5,0.3-0.6c0.2-0.1,1.6-0.5,3.3-0.5c3.1,0,3.4,1.9,3.4,4.3v5.2c0,0.3-0.2,0.5-0.5,0.5h-0.7
			c-0.2,0-0.3-0.1-0.4-0.3l-0.2-0.6c-0.5,0.5-1.5,1.2-3,1.2c-1.8,0-3.1-1.2-3.1-3.2C228.4,293,229.8,291.7,232.3,291.7z M232,296.3
			c1,0,1.9-0.7,2.2-1.2v-1.6c-0.1-0.1-0.9-0.3-1.8-0.3c-1.1,0-2,0.6-2,1.6C230.5,295.6,231,296.3,232,296.3z"/>
	</g>
	<g>
		<path class="st1" d="M247.8,297.9c0,3-1.9,4.5-4.5,4.5c-1.6,0-2.9-0.8-3.4-1.2c-0.2-0.1-0.2-0.4-0.1-0.5l0.5-0.9
			c0.1-0.3,0.4-0.3,0.6-0.1c0.3,0.3,1.2,0.9,2.3,0.9c1.3,0,2.4-0.6,2.4-2.6v-0.5c-0.2,0.1-1.2,0.7-2.5,0.7c-2.6,0-4.7-2.2-4.7-5.1
			c0-2.8,1.9-5.1,4.6-5.1c1.8,0,2.9,1,3.1,1.2l0.3-0.6c0.1-0.2,0.1-0.3,0.4-0.3h0.6c0.3,0,0.5,0.2,0.5,0.5V297.9z M243.5,296
			c1.3,0,2.2-0.8,2.2-0.8v-4c-0.2-0.4-1-1.4-2.3-1.4c-1.7,0-2.7,1.4-2.7,3.1C240.7,294.6,241.9,296,243.5,296z"/>
	</g>
	<g>
		<path class="st1" d="M255,287.9c2.5,0,4.4,1.9,4.4,4.4c0,0.2,0,0.5,0,0.7c0,0.3-0.2,0.4-0.4,0.4h-6.7c0,1.3,1.2,2.6,2.9,2.6
			c1.1,0,1.8-0.4,2.4-0.8c0.2-0.1,0.4-0.2,0.6,0l0.6,0.9c0.2,0.2,0.3,0.4,0,0.7c-0.7,0.6-2,1.2-3.6,1.2c-2.9,0-4.8-2.3-4.8-5.1
			C250.2,290.2,252.1,287.9,255,287.9z M257.3,291.9c0-1.2-1-2.2-2.4-2.2c-1.5,0-2.5,1-2.6,2.2H257.3z"/>
	</g>
	<g>
		<path class="st1" d="M271,287.9c2.7,0,4.9,2.3,4.9,5c0,2.8-2.2,5.1-4.9,5.1c-2.7,0-4.9-2.3-4.9-5.1
			C266,290.2,268.3,287.9,271,287.9z M271,296c1.6,0,2.9-1.3,2.9-3.1c0-1.7-1.3-3-2.9-3c-1.6,0-2.9,1.3-2.9,3
			C268.1,294.7,269.4,296,271,296z"/>
	</g>
	<g>
		<path class="st1" d="M278.2,288.6c0-0.2,0.2-0.5,0.5-0.5h0.5c0.2,0,0.4,0.1,0.4,0.3l0.3,0.8c0.2-0.3,1.3-1.3,3.2-1.3
			c3,0,3.8,2.1,3.8,4.6v4.9c0,0.3-0.2,0.5-0.5,0.5h-1.2c-0.3,0-0.5-0.2-0.5-0.5v-4.9c0-1.6-0.6-2.5-1.9-2.5c-1.5,0-2.4,1.1-2.6,1.4
			v6c0,0.3-0.2,0.5-0.6,0.5h-1.1c-0.3,0-0.5-0.2-0.5-0.5V288.6z"/>
	</g>
	<g>
		<path class="st1" d="M294.8,288.6c0-0.2,0.2-0.5,0.5-0.5h0.5c0.2,0,0.4,0.1,0.4,0.3l0.3,0.8c0.2-0.2,1.2-1.3,3.1-1.3
			c1.4,0,2.2,0.5,3,1.5c0.3-0.3,1.4-1.5,3.3-1.5c3,0,3.7,2.1,3.7,4.6v4.9c0,0.3-0.2,0.5-0.5,0.5h-1.2c-0.3,0-0.5-0.2-0.5-0.5v-4.9
			c0-1.6-0.6-2.5-1.9-2.5c-1.5,0-2.2,1-2.3,1.1c0,0.2,0.1,0.8,0.1,1.3v5c0,0.3-0.2,0.5-0.4,0.5h-1.2c-0.3,0-0.5-0.2-0.5-0.5v-4.9
			c0-1.6-0.6-2.5-1.9-2.5c-1.4,0-2.2,1.1-2.3,1.4v6c0,0.3-0.2,0.5-0.5,0.5h-1.2c-0.3,0-0.5-0.2-0.5-0.5V288.6z"/>
	</g>
	<g>
		<path class="st1" d="M316.5,287.9c2.5,0,4.4,1.9,4.4,4.4c0,0.2,0,0.5,0,0.7c0,0.3-0.2,0.4-0.4,0.4h-6.7c0,1.3,1.2,2.6,2.9,2.6
			c1.1,0,1.8-0.4,2.4-0.8c0.2-0.1,0.4-0.2,0.6,0l0.6,0.9c0.2,0.2,0.3,0.4,0,0.7c-0.7,0.6-2,1.2-3.6,1.2c-2.9,0-4.8-2.3-4.8-5.1
			C311.6,290.2,313.5,287.9,316.5,287.9z M318.8,291.9c0-1.2-1-2.2-2.4-2.2c-1.5,0-2.5,1-2.6,2.2H318.8z"/>
	</g>
	<g>
		<path class="st1" d="M323.7,289.9h-1.1c-0.3,0-0.5-0.2-0.5-0.5v-0.9c0-0.3,0.2-0.5,0.5-0.5h1.1v-2.7c0-0.3,0.2-0.5,0.5-0.5h1.2
			c0.3,0,0.4,0.2,0.4,0.5v2.7h2.6c0.3,0,0.5,0.2,0.5,0.5v0.9c0,0.2-0.2,0.5-0.5,0.5h-2.6v5.2c0,0.8,0.3,1,0.8,1
			c0.6,0,1.2-0.3,1.6-0.5c0.3-0.2,0.5,0,0.6,0.2l0.4,1c0.1,0.3,0,0.4-0.2,0.6c-0.4,0.3-1.5,0.7-2.7,0.7c-1.9,0-2.5-1.2-2.5-2.9
			V289.9z"/>
	</g>
	<g>
		<path class="st1" d="M334.2,291.7c1,0,1.9,0.3,1.9,0.3c0-1.5-0.3-2.2-1.6-2.2c-1.1,0-2.2,0.3-2.7,0.5c-0.3,0.1-0.5-0.1-0.5-0.4
			l-0.2-0.8c-0.1-0.3,0.1-0.5,0.3-0.6c0.2-0.1,1.6-0.5,3.3-0.5c3.1,0,3.4,1.9,3.4,4.3v5.2c0,0.3-0.2,0.5-0.5,0.5H337
			c-0.2,0-0.3-0.1-0.4-0.3l-0.2-0.6c-0.5,0.5-1.5,1.2-3,1.2c-1.8,0-3.1-1.2-3.1-3.2C330.3,293,331.7,291.7,334.2,291.7z
			 M333.9,296.3c1,0,1.9-0.7,2.2-1.2v-1.6c-0.1-0.1-0.9-0.3-1.8-0.3c-1.1,0-2,0.6-2,1.6C332.4,295.6,332.9,296.3,333.9,296.3z"/>
	</g>
	<g>
		<path class="st1" d="M341.1,283.6c0-0.2,0.2-0.5,0.5-0.5h1.2c0.2,0,0.5,0.2,0.5,0.5v13.8c0,0.3-0.2,0.5-0.5,0.5h-1.2
			c-0.3,0-0.5-0.2-0.5-0.5V283.6z"/>
	</g>
	<g>
		<path class="st1" d="M351.2,283.6c0-0.2,0.2-0.5,0.5-0.5h1.2c0.2,0,0.5,0.2,0.5,0.5v4.8c0.2-0.1,1.2-0.5,2.4-0.5
			c2.7,0,4.8,2.2,4.8,5.1c0,2.8-2,5.1-4.5,5.1c-1.9,0-3.2-1.4-3.2-1.4l-0.2,0.7c-0.1,0.3-0.2,0.4-0.4,0.4h-0.5
			c-0.3,0-0.5-0.2-0.5-0.5V283.6z M355.7,296c1.6,0,2.7-1.4,2.7-3.1c0-1.7-1.3-3.1-2.9-3.1c-1.3,0-2.2,0.5-2.2,0.5v4.2
			C353.5,294.9,354.3,296,355.7,296z"/>
	</g>
	<g>
		<path class="st1" d="M367.2,287.9c2.7,0,4.9,2.3,4.9,5c0,2.8-2.2,5.1-4.9,5.1c-2.7,0-4.9-2.3-4.9-5.1
			C362.3,290.2,364.5,287.9,367.2,287.9z M367.2,296c1.6,0,2.9-1.3,2.9-3.1c0-1.7-1.3-3-2.9-3c-1.6,0-2.9,1.3-2.9,3
			C364.3,294.7,365.6,296,367.2,296z"/>
	</g>
	<g>
		<path class="st1" d="M378.6,287.9c1.2,0,2.2,0.4,2.4,0.5v-4.8c0-0.2,0.2-0.5,0.5-0.5h1.2c0.3,0,0.5,0.2,0.5,0.5v13.8
			c0,0.3-0.2,0.5-0.5,0.5h-0.5c-0.2,0-0.4-0.2-0.4-0.4l-0.2-0.7c0,0-1.3,1.4-3.2,1.4c-2.6,0-4.4-2.3-4.4-5.1
			C373.9,290.1,375.9,287.9,378.6,287.9z M378.6,296c1.5,0,2.3-1.2,2.4-1.4v-4.2c0,0-1-0.6-2.2-0.6c-1.6,0-2.8,1.4-2.8,3.1
			C376,294.6,377.1,296,378.6,296z"/>
	</g>
	<g>
		<path class="st1" d="M385.1,288.7c-0.1-0.3,0-0.6,0.4-0.6h1.4c0.1,0,0.4,0.1,0.4,0.3l2.2,6.6h0l2.7-6.6c0.1-0.2,0.3-0.3,0.5-0.3
			h1.3c0.4,0,0.6,0.3,0.4,0.6l-5.9,13.8c-0.1,0.1-0.2,0.3-0.4,0.3h-1.3c-0.4,0-0.6-0.3-0.4-0.6l1.9-4.7L385.1,288.7z"/>
	</g>
	<g>
		<path class="st1" d="M62.7,320.8l0.5-0.9c0.2-0.3,0.5-0.4,0.7-0.2c1,0.8,1.7,1.4,3.4,1.4c1.4,0,2.4-0.9,2.4-1.9
			c0-1.3-1.1-2.1-3.2-2.9c-2.1-0.9-3.8-2-3.8-4.4c0-1.6,1.3-3.9,4.6-3.9c2.1,0,3.7,1.1,3.9,1.2c0.2,0.1,0.3,0.4,0.1,0.7l-0.5,0.8
			c-0.2,0.3-0.4,0.4-0.7,0.2c-0.8-0.5-1.6-1-2.8-1c-1.8,0-2.4,1.1-2.4,1.9c0,1.2,0.9,1.9,2.7,2.6c2.4,1,4.5,2.1,4.5,4.7
			c0,2.2-1.9,4-4.7,4c-2.6,0-4.2-1.3-4.5-1.7C62.7,321.3,62.5,321.2,62.7,320.8z"/>
	</g>
	<g>
		<path class="st1" d="M78.7,313.1c1.5,0,2.6,0.6,3.5,1.7c0.2,0.2,0.1,0.5-0.1,0.7l-0.8,0.7c-0.3,0.3-0.5,0.1-0.6-0.1
			c-0.4-0.5-1.2-1-2-1c-1.7,0-2.9,1.3-2.9,3.1c0,1.7,1.3,3.1,2.9,3.1c1.3,0,1.8-0.7,2.3-1.2c0.2-0.2,0.4-0.2,0.7,0l0.6,0.5
			c0.2,0.2,0.3,0.4,0.2,0.7c-0.8,1.2-2.1,2-3.8,2c-2.7,0-4.9-2.1-4.9-5.1C73.8,315.3,76,313.1,78.7,313.1z"/>
	</g>
	<g>
		<path class="st1" d="M84.7,313.7c0-0.2,0.2-0.5,0.5-0.5h0.5c0.2,0,0.4,0.1,0.4,0.3l0.3,0.9c0.2-0.3,1.2-1.4,2.9-1.4
			c0.9,0,2.1,0.3,1.8,0.9l-0.5,1c-0.1,0.3-0.4,0.3-0.6,0.2c-0.1-0.1-0.6-0.2-0.9-0.2c-1.4,0-2.2,1.1-2.3,1.3v6.1
			c0,0.4-0.3,0.5-0.7,0.5h-1c-0.3,0-0.5-0.2-0.5-0.5V313.7z"/>
	</g>
	<g>
		<path class="st1" d="M95.8,316.8c1,0,1.9,0.3,1.9,0.3c0-1.5-0.3-2.2-1.6-2.2c-1.1,0-2.2,0.3-2.7,0.5c-0.3,0.1-0.5-0.1-0.5-0.4
			l-0.2-0.8c-0.1-0.3,0.1-0.5,0.3-0.6c0.2-0.1,1.6-0.5,3.3-0.5c3.1,0,3.4,1.9,3.4,4.3v5.2c0,0.3-0.2,0.5-0.5,0.5h-0.7
			c-0.2,0-0.3-0.1-0.4-0.3l-0.2-0.6c-0.5,0.5-1.5,1.2-3,1.2c-1.8,0-3.1-1.2-3.1-3.2C92,318.2,93.3,316.8,95.8,316.8z M95.5,321.5
			c1,0,1.9-0.7,2.2-1.2v-1.6c-0.1-0.1-0.9-0.3-1.8-0.3c-1.1,0-2,0.6-2,1.6C94,320.8,94.5,321.5,95.5,321.5z"/>
	</g>
	<g>
		<path class="st1" d="M103.3,315h-1.1c-0.3,0-0.5-0.2-0.5-0.5v-0.9c0-0.3,0.2-0.5,0.5-0.5h1.1v-2.7c0-0.3,0.2-0.5,0.5-0.5h1.2
			c0.3,0,0.4,0.2,0.4,0.5v2.7h2.6c0.3,0,0.5,0.2,0.5,0.5v0.9c0,0.2-0.2,0.5-0.5,0.5h-2.6v5.2c0,0.8,0.3,1,0.8,1
			c0.6,0,1.2-0.3,1.6-0.5c0.3-0.2,0.5,0,0.6,0.2l0.4,1c0.1,0.3,0,0.4-0.2,0.6c-0.4,0.3-1.5,0.7-2.7,0.7c-1.9,0-2.5-1.2-2.5-2.9V315z
			"/>
	</g>
	<g>
		<path class="st1" d="M115,313.1c1.5,0,2.6,0.6,3.5,1.7c0.2,0.2,0.1,0.5-0.1,0.7l-0.8,0.7c-0.3,0.3-0.5,0.1-0.6-0.1
			c-0.4-0.5-1.2-1-2-1c-1.7,0-2.9,1.3-2.9,3.1c0,1.7,1.3,3.1,2.9,3.1c1.3,0,1.8-0.7,2.3-1.2c0.2-0.2,0.4-0.2,0.7,0l0.6,0.5
			c0.2,0.2,0.3,0.4,0.2,0.7c-0.8,1.2-2.1,2-3.8,2c-2.7,0-4.9-2.1-4.9-5.1C110,315.3,112.3,313.1,115,313.1z"/>
	</g>
	<g>
		<path class="st1" d="M121,308.7c0-0.2,0.2-0.5,0.5-0.5h1.2c0.2,0,0.5,0.2,0.5,0.5v5.3c0.2-0.2,1.3-1,2.8-1c2.7,0,3.8,1.9,3.8,4.6
			v4.9c0,0.3-0.2,0.5-0.5,0.5H128c-0.3,0-0.5-0.2-0.5-0.5v-4.9c0-1.6-0.7-2.5-1.9-2.5c-1.5,0-2.3,1-2.5,1.4v6c0,0.3-0.2,0.5-0.5,0.5
			h-1.2c-0.3,0-0.5-0.2-0.5-0.5V308.7z"/>
	</g>
	<g>
		<path class="st1" d="M137.2,309.8c0-0.8,0.6-1.4,1.4-1.4c0.8,0,1.4,0.6,1.4,1.4c0,0.8-0.6,1.4-1.4,1.4
			C137.8,311.2,137.2,310.6,137.2,309.8z M137.5,313.7c0-0.2,0.2-0.5,0.5-0.5h1.2c0.2,0,0.5,0.2,0.5,0.5v8.8c0,0.3-0.2,0.5-0.5,0.5
			h-1.2c-0.3,0-0.5-0.2-0.5-0.5V313.7z"/>
	</g>
	<g>
		<path class="st1" d="M142.1,322.2c-0.1-0.1-0.3-0.3-0.2-0.5l0.4-0.9c0.1-0.2,0.4-0.3,0.6-0.1c0.6,0.3,1.3,0.7,2.4,0.7
			c0.8,0,1.3-0.4,1.3-0.9c0-0.6-0.7-1.1-2.1-1.7c-1.5-0.7-2.6-1.5-2.6-3.1c0-1.2,0.9-2.6,3.2-2.6c1.3,0,2.3,0.4,2.8,0.7
			c0.2,0.2,0.3,0.5,0.2,0.7l-0.3,0.7c-0.1,0.3-0.4,0.3-0.6,0.2c-0.7-0.3-1.3-0.5-2.1-0.5c-0.8,0-1.2,0.4-1.2,0.9
			c0,0.6,0.7,1,1.7,1.4c1.8,0.8,3.1,1.4,3.1,3.2c0,1.5-1.3,2.8-3.5,2.8C143.8,323.2,142.7,322.6,142.1,322.2z"/>
	</g>
	<g>
		<path class="st1" d="M159.2,316.8c1,0,1.9,0.3,1.9,0.3c0-1.5-0.3-2.2-1.6-2.2c-1.1,0-2.2,0.3-2.7,0.5c-0.3,0.1-0.5-0.1-0.5-0.4
			l-0.2-0.8c-0.1-0.3,0.1-0.5,0.3-0.6c0.2-0.1,1.6-0.5,3.3-0.5c3.1,0,3.4,1.9,3.4,4.3v5.2c0,0.3-0.2,0.5-0.5,0.5H162
			c-0.2,0-0.3-0.1-0.4-0.3l-0.2-0.6c-0.5,0.5-1.5,1.2-3,1.2c-1.8,0-3.1-1.2-3.1-3.2C155.3,318.2,156.7,316.8,159.2,316.8z
			 M158.8,321.5c1,0,1.9-0.7,2.2-1.2v-1.6c-0.1-0.1-0.9-0.3-1.8-0.3c-1.1,0-2,0.6-2,1.6C157.3,320.8,157.8,321.5,158.8,321.5z"/>
	</g>
	<g>
		<path class="st1" d="M175.1,313.1c1.2,0,2.2,0.4,2.4,0.5v-4.8c0-0.2,0.2-0.5,0.5-0.5h1.2c0.3,0,0.5,0.2,0.5,0.5v13.8
			c0,0.3-0.2,0.5-0.5,0.5h-0.5c-0.2,0-0.4-0.2-0.4-0.4l-0.2-0.7c0,0-1.3,1.4-3.2,1.4c-2.6,0-4.4-2.3-4.4-5.1
			C170.5,315.3,172.5,313.1,175.1,313.1z M175.2,321.2c1.5,0,2.3-1.2,2.4-1.4v-4.2c0,0-1-0.6-2.2-0.6c-1.6,0-2.8,1.4-2.8,3.1
			C172.6,319.7,173.6,321.2,175.2,321.2z"/>
	</g>
	<g>
		<path class="st1" d="M185.8,316.8c1,0,1.9,0.3,1.9,0.3c0-1.5-0.3-2.2-1.6-2.2c-1.1,0-2.2,0.3-2.7,0.5c-0.3,0.1-0.5-0.1-0.5-0.4
			l-0.2-0.8c-0.1-0.3,0.1-0.5,0.3-0.6c0.2-0.1,1.6-0.5,3.3-0.5c3.1,0,3.4,1.9,3.4,4.3v5.2c0,0.3-0.2,0.5-0.5,0.5h-0.7
			c-0.2,0-0.3-0.1-0.4-0.3L188,322c-0.5,0.5-1.5,1.2-3,1.2c-1.8,0-3.1-1.2-3.1-3.2C181.9,318.2,183.3,316.8,185.8,316.8z
			 M185.5,321.5c1,0,1.9-0.7,2.2-1.2v-1.6c-0.1-0.1-0.9-0.3-1.8-0.3c-1.1,0-2,0.6-2,1.6C183.9,320.8,184.4,321.5,185.5,321.5z"/>
	</g>
	<g>
		<path class="st1" d="M192.6,313.7c0-0.2,0.2-0.5,0.5-0.5h0.5c0.2,0,0.4,0.1,0.4,0.3l0.3,0.8c0.2-0.2,1.2-1.3,3.1-1.3
			c1.4,0,2.2,0.5,3,1.5c0.3-0.3,1.4-1.5,3.3-1.5c3,0,3.7,2.1,3.7,4.6v4.9c0,0.3-0.2,0.5-0.5,0.5h-1.2c-0.3,0-0.5-0.2-0.5-0.5v-4.9
			c0-1.6-0.6-2.5-1.9-2.5c-1.5,0-2.2,1-2.3,1.1c0,0.2,0.1,0.8,0.1,1.3v5c0,0.3-0.2,0.5-0.4,0.5h-1.2c-0.3,0-0.5-0.2-0.5-0.5v-4.9
			c0-1.6-0.6-2.5-1.9-2.5c-1.4,0-2.2,1.1-2.3,1.4v6c0,0.3-0.2,0.5-0.5,0.5h-1.2c-0.3,0-0.5-0.2-0.5-0.5V313.7z"/>
	</g>
	<g>
		<path class="st1" d="M213.2,316.8c1,0,1.9,0.3,1.9,0.3c0-1.5-0.3-2.2-1.6-2.2c-1.1,0-2.2,0.3-2.7,0.5c-0.3,0.1-0.5-0.1-0.5-0.4
			l-0.2-0.8c-0.1-0.3,0.1-0.5,0.3-0.6c0.2-0.1,1.6-0.5,3.3-0.5c3.1,0,3.4,1.9,3.4,4.3v5.2c0,0.3-0.2,0.5-0.5,0.5h-0.7
			c-0.2,0-0.3-0.1-0.4-0.3l-0.2-0.6c-0.5,0.5-1.5,1.2-3,1.2c-1.8,0-3.1-1.2-3.1-3.2C209.3,318.2,210.7,316.8,213.2,316.8z
			 M212.9,321.5c1,0,1.9-0.7,2.2-1.2v-1.6c-0.1-0.1-0.9-0.3-1.8-0.3c-1.1,0-2,0.6-2,1.6C211.4,320.8,211.9,321.5,212.9,321.5z"/>
	</g>
	<g>
		<path class="st1" d="M228.8,323c0,3-1.9,4.5-4.5,4.5c-1.6,0-2.9-0.8-3.4-1.2c-0.2-0.1-0.2-0.4-0.1-0.5l0.5-0.9
			c0.1-0.3,0.4-0.3,0.7-0.1c0.3,0.3,1.2,0.9,2.3,0.9c1.3,0,2.4-0.6,2.4-2.6v-0.5c-0.2,0.1-1.2,0.7-2.5,0.7c-2.6,0-4.7-2.2-4.7-5.1
			c0-2.8,1.9-5.1,4.6-5.1c1.8,0,2.9,1,3.1,1.2l0.3-0.6c0.1-0.2,0.1-0.3,0.4-0.3h0.6c0.3,0,0.5,0.2,0.5,0.5V323z M224.4,321.2
			c1.3,0,2.2-0.8,2.2-0.8v-4c-0.2-0.4-1-1.4-2.3-1.4c-1.7,0-2.7,1.4-2.7,3.1C221.6,319.8,222.8,321.2,224.4,321.2z"/>
	</g>
	<g>
		<path class="st1" d="M235.9,313.1c2.5,0,4.4,1.9,4.4,4.4c0,0.2,0,0.5,0,0.7c0,0.3-0.2,0.4-0.4,0.4h-6.7c0,1.3,1.2,2.6,2.9,2.6
			c1.1,0,1.8-0.4,2.4-0.8c0.2-0.1,0.4-0.2,0.6,0l0.6,0.9c0.2,0.2,0.3,0.4,0,0.7c-0.7,0.6-2,1.2-3.6,1.2c-2.9,0-4.8-2.3-4.8-5.1
			C231.1,315.4,233,313.1,235.9,313.1z M238.3,317c0-1.2-1-2.2-2.4-2.2c-1.5,0-2.5,1-2.6,2.2H238.3z"/>
	</g>
	<g>
		<path class="st1" d="M251.9,313.1c2.7,0,4.9,2.3,4.9,5c0,2.8-2.2,5.1-4.9,5.1c-2.7,0-4.9-2.3-4.9-5.1
			C247,315.4,249.2,313.1,251.9,313.1z M251.9,321.2c1.6,0,2.9-1.3,2.9-3.1c0-1.7-1.3-3-2.9-3c-1.6,0-2.9,1.3-2.9,3
			C249,319.9,250.3,321.2,251.9,321.2z"/>
	</g>
	<g>
		<path class="st1" d="M259.2,313.7c0-0.2,0.2-0.5,0.5-0.5h0.5c0.2,0,0.4,0.1,0.4,0.3l0.3,0.8c0.2-0.3,1.3-1.3,3.2-1.3
			c3,0,3.8,2.1,3.8,4.6v4.9c0,0.3-0.2,0.5-0.5,0.5h-1.2c-0.3,0-0.5-0.2-0.5-0.5v-4.9c0-1.6-0.7-2.5-1.9-2.5c-1.5,0-2.4,1.1-2.6,1.4
			v6c0,0.3-0.2,0.5-0.6,0.5h-1.1c-0.3,0-0.5-0.2-0.5-0.5V313.7z"/>
	</g>
	<g>
		<path class="st1" d="M277.8,327.5c0,0.3-0.2,0.5-0.5,0.5h-1.2c-0.3,0-0.5-0.2-0.5-0.5v-13.8c0-0.2,0.2-0.5,0.5-0.5h0.5
			c0.2,0,0.3,0.1,0.4,0.3l0.3,0.6c0.2-0.2,1.3-1.2,3-1.2c2.7,0,4.6,2.3,4.6,5.1c0,2.8-2,5.1-4.7,5.1c-1.3,0-2.3-0.6-2.5-0.7V327.5z
			 M280,321.2c1.6,0,2.8-1.3,2.8-3.1c0-1.7-1.1-3.1-2.7-3.1c-1.4,0-2.2,1.1-2.3,1.4v4.1C277.8,320.5,278.7,321.2,280,321.2z"/>
	</g>
	<g>
		<path class="st1" d="M290.5,316.8c1,0,1.9,0.3,1.9,0.3c0-1.5-0.3-2.2-1.6-2.2c-1.1,0-2.2,0.3-2.7,0.5c-0.3,0.1-0.5-0.1-0.5-0.4
			l-0.2-0.8c-0.1-0.3,0.1-0.5,0.3-0.6c0.2-0.1,1.6-0.5,3.3-0.5c3.1,0,3.4,1.9,3.4,4.3v5.2c0,0.3-0.2,0.5-0.5,0.5h-0.7
			c-0.2,0-0.3-0.1-0.4-0.3l-0.2-0.6c-0.5,0.5-1.5,1.2-3,1.2c-1.8,0-3.1-1.2-3.1-3.2C286.6,318.2,288,316.8,290.5,316.8z
			 M290.1,321.5c1,0,1.9-0.7,2.2-1.2v-1.6c-0.1-0.1-0.9-0.3-1.8-0.3c-1.1,0-2,0.6-2,1.6C288.6,320.8,289.1,321.5,290.1,321.5z"/>
	</g>
	<g>
		<path class="st1" d="M297,309.8c0-0.8,0.6-1.4,1.4-1.4c0.8,0,1.4,0.6,1.4,1.4c0,0.8-0.6,1.4-1.4,1.4
			C297.6,311.2,297,310.6,297,309.8z M297.3,313.7c0-0.2,0.2-0.5,0.5-0.5h1.2c0.2,0,0.5,0.2,0.5,0.5v8.8c0,0.3-0.2,0.5-0.5,0.5h-1.2
			c-0.3,0-0.5-0.2-0.5-0.5V313.7z"/>
	</g>
	<g>
		<path class="st1" d="M302.3,313.7c0-0.2,0.2-0.5,0.5-0.5h0.5c0.2,0,0.4,0.1,0.4,0.3l0.3,0.8c0.2-0.3,1.3-1.3,3.2-1.3
			c3,0,3.8,2.1,3.8,4.6v4.9c0,0.3-0.2,0.5-0.5,0.5h-1.2c-0.3,0-0.5-0.2-0.5-0.5v-4.9c0-1.6-0.7-2.5-1.9-2.5c-1.5,0-2.4,1.1-2.6,1.4
			v6c0,0.3-0.2,0.5-0.6,0.5h-1.1c-0.3,0-0.5-0.2-0.5-0.5V313.7z"/>
	</g>
	<g>
		<path class="st1" d="M314.3,315h-1.1c-0.3,0-0.5-0.2-0.5-0.5v-0.9c0-0.3,0.2-0.5,0.5-0.5h1.1v-2.7c0-0.3,0.2-0.5,0.5-0.5h1.2
			c0.3,0,0.4,0.2,0.4,0.5v2.7h2.6c0.3,0,0.5,0.2,0.5,0.5v0.9c0,0.2-0.2,0.5-0.5,0.5h-2.6v5.2c0,0.8,0.3,1,0.8,1
			c0.6,0,1.2-0.3,1.6-0.5c0.3-0.2,0.5,0,0.6,0.2l0.4,1c0.1,0.3,0,0.4-0.2,0.6c-0.4,0.3-1.5,0.7-2.7,0.7c-1.9,0-2.5-1.2-2.5-2.9V315z
			"/>
	</g>
	<g>
		<path class="st1" d="M325.5,308.5c0-0.1,0.2-0.3,0.4-0.3h1c0.3,0,0.5,0.2,0.4,0.5l-4.1,13.9c0,0.1-0.2,0.3-0.4,0.3h-1
			c-0.3,0-0.5-0.2-0.4-0.5L325.5,308.5z"/>
	</g>
	<g>
		<path class="st1" d="M331.7,327.5c0,0.3-0.2,0.5-0.5,0.5H330c-0.3,0-0.5-0.2-0.5-0.5v-13.8c0-0.2,0.2-0.5,0.5-0.5h0.5
			c0.2,0,0.3,0.1,0.4,0.3l0.3,0.6c0.2-0.2,1.3-1.2,3-1.2c2.7,0,4.6,2.3,4.6,5.1c0,2.8-2,5.1-4.7,5.1c-1.3,0-2.3-0.6-2.5-0.7V327.5z
			 M333.9,321.2c1.6,0,2.8-1.3,2.8-3.1c0-1.7-1.1-3.1-2.7-3.1c-1.4,0-2.2,1.1-2.3,1.4v4.1C331.7,320.5,332.6,321.2,333.9,321.2z"/>
	</g>
	<g>
		<path class="st1" d="M341.2,313.7c0-0.2,0.2-0.5,0.5-0.5h0.5c0.2,0,0.4,0.1,0.4,0.3l0.3,0.9c0.2-0.3,1.2-1.4,2.9-1.4
			c0.9,0,2.1,0.3,1.8,0.9l-0.5,1c-0.1,0.3-0.4,0.3-0.6,0.2c-0.1-0.1-0.6-0.2-0.9-0.2c-1.4,0-2.2,1.1-2.3,1.3v6.1
			c0,0.4-0.3,0.5-0.7,0.5h-1c-0.3,0-0.5-0.2-0.5-0.5V313.7z"/>
	</g>
	<g>
		<path class="st1" d="M349,309.8c0-0.8,0.6-1.4,1.4-1.4c0.8,0,1.4,0.6,1.4,1.4c0,0.8-0.6,1.4-1.4,1.4
			C349.6,311.2,349,310.6,349,309.8z M349.3,313.7c0-0.2,0.2-0.5,0.5-0.5h1.2c0.2,0,0.5,0.2,0.5,0.5v8.8c0,0.3-0.2,0.5-0.5,0.5h-1.2
			c-0.3,0-0.5-0.2-0.5-0.5V313.7z"/>
	</g>
	<g>
		<path class="st1" d="M354.3,313.7c0-0.2,0.2-0.5,0.5-0.5h0.5c0.2,0,0.4,0.1,0.4,0.3l0.3,0.8c0.2-0.2,1.2-1.3,3.1-1.3
			c1.4,0,2.2,0.5,3,1.5c0.3-0.3,1.4-1.5,3.3-1.5c3,0,3.7,2.1,3.7,4.6v4.9c0,0.3-0.2,0.5-0.5,0.5h-1.2c-0.3,0-0.5-0.2-0.5-0.5v-4.9
			c0-1.6-0.6-2.5-1.9-2.5c-1.5,0-2.2,1-2.3,1.1c0,0.2,0.1,0.8,0.1,1.3v5c0,0.3-0.2,0.5-0.4,0.5h-1.2c-0.3,0-0.5-0.2-0.5-0.5v-4.9
			c0-1.6-0.6-2.5-1.9-2.5c-1.4,0-2.2,1.1-2.3,1.4v6c0,0.3-0.2,0.5-0.5,0.5h-1.2c-0.3,0-0.5-0.2-0.5-0.5V313.7z"/>
	</g>
	<g>
		<path class="st1" d="M376,313.1c2.5,0,4.4,1.9,4.4,4.4c0,0.2,0,0.5,0,0.7c0,0.3-0.2,0.4-0.4,0.4h-6.7c0,1.3,1.2,2.6,2.9,2.6
			c1.1,0,1.8-0.4,2.4-0.8c0.2-0.1,0.4-0.2,0.6,0l0.6,0.9c0.2,0.2,0.3,0.4,0,0.7c-0.7,0.6-2,1.2-3.6,1.2c-2.9,0-4.8-2.3-4.8-5.1
			C371.2,315.4,373.1,313.1,376,313.1z M378.4,317c0-1.2-1-2.2-2.4-2.2c-1.5,0-2.5,1-2.6,2.2H378.4z"/>
	</g>
	<g>
		<path class="st1" d="M382.6,313.7c0-0.2,0.2-0.5,0.5-0.5h0.5c0.2,0,0.4,0.1,0.4,0.3l0.3,0.9c0.2-0.3,1.2-1.4,2.9-1.4
			c0.9,0,2.1,0.3,1.8,0.9l-0.5,1c-0.1,0.3-0.4,0.3-0.6,0.2c-0.1-0.1-0.6-0.2-0.9-0.2c-1.4,0-2.2,1.1-2.3,1.3v6.1
			c0,0.4-0.3,0.5-0.7,0.5h-1c-0.3,0-0.5-0.2-0.5-0.5V313.7z"/>
	</g>
	<g>
		<path class="st1" d="M395.4,308.7c0-0.2,0.2-0.5,0.5-0.5h1.2c0.2,0,0.5,0.2,0.5,0.5v13.8c0,0.3-0.2,0.5-0.5,0.5h-1.2
			c-0.3,0-0.5-0.2-0.5-0.5V308.7z"/>
	</g>
	<g>
		<path class="st1" d="M403.6,316.8c1,0,1.9,0.3,1.9,0.3c0-1.5-0.3-2.2-1.6-2.2c-1.1,0-2.2,0.3-2.7,0.5c-0.3,0.1-0.5-0.1-0.5-0.4
			l-0.2-0.8c-0.1-0.3,0.1-0.5,0.3-0.6c0.2-0.1,1.6-0.5,3.3-0.5c3.1,0,3.4,1.9,3.4,4.3v5.2c0,0.3-0.2,0.5-0.5,0.5h-0.7
			c-0.2,0-0.3-0.1-0.4-0.3l-0.2-0.6c-0.5,0.5-1.5,1.2-3,1.2c-1.8,0-3.1-1.2-3.1-3.2C399.7,318.2,401.1,316.8,403.6,316.8z
			 M403.3,321.5c1,0,1.9-0.7,2.2-1.2v-1.6c-0.1-0.1-0.9-0.3-1.8-0.3c-1.1,0-2,0.6-2,1.6C401.8,320.8,402.3,321.5,403.3,321.5z"/>
	</g>
	<g>
		<path class="st1" d="M409.3,313.9c-0.1-0.3,0-0.6,0.4-0.6h1.4c0.1,0,0.4,0.1,0.4,0.3l2.2,6.6h0l2.7-6.6c0.1-0.2,0.3-0.3,0.5-0.3
			h1.3c0.4,0,0.6,0.3,0.4,0.6l-5.9,13.8c-0.1,0.1-0.2,0.3-0.4,0.3h-1.3c-0.4,0-0.6-0.3-0.4-0.6l1.9-4.7L409.3,313.9z"/>
	</g>
	<g>
		<path class="st1" d="M424.7,313.1c2.5,0,4.4,1.9,4.4,4.4c0,0.2,0,0.5,0,0.7c0,0.3-0.2,0.4-0.4,0.4h-6.7c0,1.3,1.2,2.6,2.9,2.6
			c1.1,0,1.8-0.4,2.4-0.8c0.2-0.1,0.4-0.2,0.6,0l0.6,0.9c0.2,0.2,0.3,0.4,0,0.7c-0.7,0.6-2,1.2-3.6,1.2c-2.9,0-4.8-2.3-4.8-5.1
			C419.8,315.4,421.7,313.1,424.7,313.1z M427,317c0-1.2-1-2.2-2.4-2.2c-1.5,0-2.5,1-2.6,2.2H427z"/>
	</g>
	<g>
		<path class="st1" d="M431.3,313.7c0-0.2,0.2-0.5,0.5-0.5h0.5c0.2,0,0.4,0.1,0.4,0.3l0.3,0.9c0.2-0.3,1.2-1.4,2.9-1.4
			c0.9,0,2.1,0.3,1.8,0.9l-0.5,1c-0.1,0.3-0.4,0.3-0.6,0.2c-0.1-0.1-0.6-0.2-0.9-0.2c-1.4,0-2.2,1.1-2.3,1.3v6.1
			c0,0.4-0.3,0.5-0.7,0.5h-1c-0.3,0-0.5-0.2-0.5-0.5V313.7z"/>
	</g>
</g>
</svg>
