<?xml version="1.0" encoding="UTF-8" standalone="no"?>
<svg width="13px" height="20px" viewBox="0 0 13 20" version="1.1" xmlns="http://www.w3.org/2000/svg" xmlns:xlink="http://www.w3.org/1999/xlink">
    <!-- Generator: Sketch 41.1 (35376) - http://www.bohemiancoding.com/sketch -->
    <title>Download_app_white</title>
    <desc>Created with Sketch.</desc>
    <defs></defs>
    <g id="Page-1" stroke="none" stroke-width="1" fill="none" fill-rule="evenodd">
        <g id="CustomerReviews" transform="translate(-296.000000, -16.000000)" fill="#FFFFFF">
            <g id="header" transform="translate(13.828125, 4.500000)">
                <g id="Icons" transform="translate(239.171875, 11.500000)">
                    <g id="Group-39" transform="translate(43.000000, 0.000000)">
                        <g id="Download_app_white">
                            <g id="appDownload_icon">
                                <path d="M10.9090909,0.00909090909 L1.81818182,0 C0.818181818,0 0,0.818181818 0,1.81818182 L0,18.1818182 C0,19.1818182 0.818181818,20 1.81818182,20 L10.9090909,20 C11.9090909,20 12.7272727,19.1818182 12.7272727,18.1818182 L12.7272727,1.81818182 C12.7272727,0.818181818 11.9090909,0.00909090909 10.9090909,0.00909090909 L10.9090909,0.00909090909 Z M10.9090909,16.3636364 L1.81818182,16.3636364 L1.81818182,3.63636364 L10.9090909,3.63636364 L10.9090909,16.3636364 L10.9090909,16.3636364 Z" id="Shape"></path>
                            </g>
                            <g id="ic_file_download_black_24px" transform="translate(4.000000, 7.000000)">
                                <path d="M5.09039209,2.39588233 L3.65980388,2.39588233 L3.65980388,0.25 L1.51392155,0.25 L1.51392155,2.39588233 L0.0833333333,2.39588233 L2.58686271,4.89941171 L5.09039209,2.39588233 L5.09039209,2.39588233 Z M0.0833333333,5.61470582 L0.0833333333,6.32999992 L5.09039209,6.32999992 L5.09039209,5.61470582 L0.0833333333,5.61470582 L0.0833333333,5.61470582 Z" id="Shape"></path>
                            </g>
                        </g>
                    </g>
                </g>
            </g>
        </g>
    </g>
</svg>