<?xml version="1.0" encoding="UTF-8" standalone="no"?>
<svg width="38px" height="36px" viewBox="0 0 38 36" version="1.1" xmlns="http://www.w3.org/2000/svg" xmlns:xlink="http://www.w3.org/1999/xlink">
    <!-- Generator: Sketch 39.1 (31720) - http://www.bohemiancoding.com/sketch -->
    <title>estimator</title>
    <desc>Created with Sketch.</desc>
    <defs></defs>
    <g id="Page-1" stroke="none" stroke-width="1" fill="none" fill-rule="evenodd">
        <g id="Home_new" transform="translate(-1027.000000, -626.000000)">
            <g id="USP" transform="translate(147.000000, 622.000000)">
                <g id="Group-26">
                    <g id="pricing" transform="translate(880.000000, 0.000000)">
                        <g id="estimator" transform="translate(0.000000, 4.000000)">
                            <g id="Group">
                                <path d="M20.72,3.45 L3.44,3.45 C1.52,3.45 0,4.875 0,6.675 L0,32.625 C0,34.425 1.52,35.85 3.44,35.85 L20.72,35.85 C22.64,35.85 24.16,34.425 24.16,32.625 L24.16,6.75 C24.16,4.95 22.64,3.45 20.72,3.45 L20.72,3.45 Z M5.12,32.625 C4.16,32.625 3.36,31.875 3.36,30.975 C3.36,30.075 4.16,29.325 5.12,29.325 C6.08,29.325 6.88,30.075 6.88,30.975 C6.88,31.95 6.08,32.625 5.12,32.625 L5.12,32.625 Z M5.12,26.175 C4.16,26.175 3.36,25.425 3.36,24.525 C3.36,23.625 4.16,22.875 5.12,22.875 C6.08,22.875 6.88,23.625 6.88,24.525 C6.88,25.425 6.08,26.175 5.12,26.175 L5.12,26.175 Z M5.12,19.65 C4.16,19.65 3.36,18.9 3.36,18 C3.36,17.1 4.16,16.35 5.12,16.35 C6.08,16.35 6.88,17.1 6.88,18 C6.88,18.975 6.08,19.65 5.12,19.65 L5.12,19.65 Z M12.08,32.625 C11.12,32.625 10.32,31.875 10.32,30.975 C10.32,30.075 11.12,29.325 12.08,29.325 C13.04,29.325 13.84,30.075 13.84,30.975 C13.76,31.95 13.04,32.625 12.08,32.625 L12.08,32.625 Z M12.08,26.175 C11.12,26.175 10.32,25.425 10.32,24.525 C10.32,23.625 11.12,22.875 12.08,22.875 C13.04,22.875 13.84,23.625 13.84,24.525 C13.76,25.425 13.04,26.175 12.08,26.175 L12.08,26.175 Z M12.08,19.65 C11.12,19.65 10.32,18.9 10.32,18 C10.32,17.1 11.12,16.35 12.08,16.35 C13.04,16.35 13.84,17.1 13.84,18 C13.76,18.975 13.04,19.65 12.08,19.65 L12.08,19.65 Z M18.96,32.625 C18,32.625 17.2,31.875 17.2,30.975 C17.2,30.075 18,29.325 18.96,29.325 C19.92,29.325 20.72,30.075 20.72,30.975 C20.72,31.95 19.92,32.625 18.96,32.625 L18.96,32.625 Z M18.96,26.175 C18,26.175 17.2,25.425 17.2,24.525 C17.2,23.625 18,22.875 18.96,22.875 C19.92,22.875 20.72,23.625 20.72,24.525 C20.72,25.425 19.92,26.175 18.96,26.175 L18.96,26.175 Z M18.96,19.65 C18,19.65 17.2,18.9 17.2,18 C17.2,17.1 18,16.35 18.96,16.35 C19.92,16.35 20.72,17.1 20.72,18 C20.72,18.975 19.92,19.65 18.96,19.65 L18.96,19.65 Z M20.72,13.2 L3.44,13.2 L3.44,6.75 L20.72,6.75 L20.72,13.2 L20.72,13.2 Z" id="Shape" fill="#A5A5E5"></path>
                                <g transform="translate(15.200000, 0.000000)">
                                    <ellipse id="Oval" fill="#F3F3F3" cx="11.12" cy="10.275" rx="10" ry="9.375"></ellipse>
                                    <path d="M11.12,20.475 C5.12,20.475 0.24,15.9 0.24,10.275 C0.24,4.65 5.12,0.075 11.12,0.075 C17.12,0.075 22,4.65 22,10.275 C22,15.9 17.12,20.475 11.12,20.475 L11.12,20.475 Z M11.12,1.725 C6.08,1.725 2,5.55 2,10.275 C2,15 6.08,18.825 11.12,18.825 C16.16,18.825 20.24,15 20.24,10.275 C20.24,5.625 16.16,1.725 11.12,1.725 L11.12,1.725 Z" id="Shape" fill="#A7A5D1"></path>
                                </g>
                                <g transform="translate(23.200000, 6.750000)" id="Shape" fill="#A5A5E5">
                                    <path d="M0.48,0.45 L6.56,0.45 C6.56,0.45 6.64,0.45 6.64,0.525 L6.64,1.05 C6.64,1.05 6.64,1.125 6.56,1.125 L4.24,1.125 L4.24,1.2 C4.56,1.35 4.8,1.725 4.96,2.175 L4.96,2.325 L6.48,2.325 C6.48,2.325 6.56,2.325 6.56,2.4 L6.56,2.925 C6.56,2.925 6.56,3 6.48,3 L5.04,3 C5.04,3.6 4.64,4.2 3.84,4.8 C3.12,5.175 2.64,5.4 2.32,5.4 C2.32,5.4 2.32,5.4 2.24,5.4 L5.52,9.375 L5.52,9.45 L4.32,9.45 C4.32,9.45 3.04,7.95 0.56,4.875 L0.56,4.875 L0.96,4.875 C2.32,4.875 3.2,4.425 3.44,3.45 L3.44,3.15 L3.44,3 L0.4,3 C0.4,3 0.32,3 0.32,2.925 L0.32,2.4 C0.32,2.4 0.32,2.325 0.4,2.325 L3.44,2.325 C3.36,1.95 3.12,1.65 2.8,1.425 C2.32,1.2 1.92,1.05 1.52,1.05 L0.4,1.05 C0.4,1.05 0.32,1.05 0.32,0.975 L0.48,0.45 C0.4,0.45 0.4,0.45 0.48,0.45 L0.48,0.45 Z"></path>
                                    <path d="M5.76,9.525 L4.32,9.525 C4.24,9.525 4.24,9.525 0.4,4.875 L0.4,4.8 L0.4,4.575 L0.56,4.575 L0.96,4.575 C2.24,4.575 3.04,4.125 3.28,3.3 L3.28,3.15 L0.4,3.15 C0.24,3.15 0.16,3.075 0.16,2.925 L0.16,2.4 C0.16,2.25 0.24,2.175 0.4,2.175 L3.2,2.175 C3.12,1.95 2.88,1.725 2.72,1.575 C2.32,1.35 1.92,1.275 1.52,1.275 L0.4,1.275 C0.24,1.275 0.16,1.2 0.16,1.05 L0.16,0.525 C0.16,0.375 0.24,0.3 0.4,0.3 L6.48,0.3 C6.64,0.3 6.72,0.375 6.72,0.525 L6.72,1.05 C6.72,1.2 6.64,1.275 6.48,1.275 L4.64,1.275 C4.88,1.5 5.04,1.8 5.12,2.1 L5.12,2.175 L6.48,2.175 C6.64,2.175 6.72,2.25 6.72,2.4 L6.72,2.925 C6.72,3.075 6.64,3.15 6.48,3.15 L5.2,3.15 C5.2,3.75 4.8,4.275 4,4.875 C3.44,5.175 2.96,5.4 2.64,5.475 L5.76,9.3 L5.76,9.525 L5.76,9.525 Z M4.48,9.15 L5.36,9.15 L2.08,5.175 L2.32,5.175 L2.32,5.175 L2.4,5.175 C2.56,5.175 2.96,5.1 3.84,4.65 C4.56,4.125 4.96,3.6 4.96,3 L4.96,2.85 L6.4,2.85 L6.4,2.55 L4.88,2.55 L4.8,2.25 C4.64,1.8 4.4,1.5 4.16,1.35 L4.08,1.275 L4.08,0.975 L6.4,0.975 L6.4,0.675 L0.56,0.675 L0.56,0.975 L1.6,0.975 C2,0.975 2.48,1.125 2.96,1.35 C3.36,1.575 3.6,1.95 3.68,2.325 L3.76,2.55 L0.64,2.55 L0.64,2.85 L3.76,2.85 L3.76,3 L3.76,3.3 C3.44,4.35 2.56,4.875 1.12,4.875 L1.04,4.875 C3.44,7.95 4.24,8.925 4.48,9.15 L4.48,9.15 Z"></path>
                                </g>
                            </g>
                        </g>
                    </g>
                </g>
            </g>
        </g>
    </g>
</svg>