<?xml version="1.0" encoding="UTF-8" standalone="no"?>
<svg width="22px" height="22px" viewBox="0 0 22 22" version="1.1" xmlns="http://www.w3.org/2000/svg" xmlns:xlink="http://www.w3.org/1999/xlink">
    <!-- Generator: Sketch 41.1 (35376) - http://www.bohemiancoding.com/sketch -->
    <title>facebook_logo</title>
    <desc>Created with Sketch.</desc>
    <defs></defs>
    <g id="Page-1" stroke="none" stroke-width="1" fill="none" fill-rule="evenodd">
        <g id="UserStories-Copy-3" transform="translate(-542.000000, -1577.000000)">
            <g id="Group-12" transform="translate(543.000000, 1356.000000)">
                <g id="TITLE_FB" transform="translate(0.000000, 222.000000)">
                    <g id="facebook_logo">
                        <rect id="Rectangle" stroke-opacity="0.192595109" stroke="#979797" fill="#FFFFFF" x="0" y="0" width="20" height="20" rx="2"></rect>
                        <path d="M13.2840839,3.00291293 L11.4685975,3 C9.42896081,3 8.11085796,4.35232983 8.11085796,6.44541889 L8.11085796,8.0339877 L6.28546758,8.0339877 C6.12773218,8.0339877 6,8.16186553 6,8.31960093 L6,10.6212561 C6,10.7789915 6.12787782,10.9067237 6.28546758,10.9067237 L8.11085796,10.9067237 L8.11085796,16.7145324 C8.11085796,16.8722678 8.23859014,17 8.39632554,17 L10.7779408,17 C10.9356762,17 11.0634083,16.8721222 11.0634083,16.7145324 L11.0634083,10.9067237 L13.1977154,10.9067237 C13.3554508,10.9067237 13.483183,10.7789915 13.483183,10.6212561 L13.4840569,8.31960093 C13.4840569,8.24386463 13.453908,8.17133256 13.4004557,8.11773457 C13.3470033,8.06413658 13.27418,8.0339877 13.1984437,8.0339877 L11.0634083,8.0339877 L11.0634083,6.6873381 C11.0634083,6.04008406 11.2176482,5.71150505 12.0607971,5.71150505 L13.2837926,5.71106811 C13.4413824,5.71106811 13.5691146,5.58319029 13.5691146,5.42560053 L13.5691146,3.28838051 C13.5691146,3.1309364 13.441528,3.00320423 13.2840839,3.00291293 Z" id="Shape" fill="#3B5997"></path>
                    </g>
                </g>
            </g>
        </g>
    </g>
</svg>