<?xml version="1.0" encoding="UTF-8" standalone="no"?>
<svg width="15px" height="12px" viewBox="0 0 15 12" version="1.1" xmlns="http://www.w3.org/2000/svg" xmlns:xlink="http://www.w3.org/1999/xlink">
    <!-- Generator: Sketch 39.1 (31720) - http://www.bohemiancoding.com/sketch -->
    <title>footer_twit</title>
    <desc>Created with Sketch.</desc>
    <defs></defs>
    <g id="Page-1" stroke="none" stroke-width="1" fill="none" fill-rule="evenodd" opacity="0.400000006">
        <g id="Home_new" transform="translate(-1242.000000, -4671.000000)" fill="#FFFFFF">
            <g id="Group-35" transform="translate(-36.000000, 1382.000000)">
                <g id="footer" transform="translate(35.000000, 3263.000000)">
                    <g id="Group-39" transform="translate(176.000000, 19.000000)">
                        <path d="M1081.7731,8.41978882 C1081.22937,8.66072107 1080.64595,8.82411857 1080.03296,8.8970669 C1080.65886,8.52225926 1081.13798,7.92776176 1081.36505,7.22154856 C1080.77794,7.56864453 1080.12988,7.82068076 1079.43936,7.95730801 C1078.8864,7.36742108 1078.09988,7 1077.22749,7 C1075.55383,7 1074.1968,8.35702719 1074.1968,10.0297695 C1074.1968,10.2670085 1074.22357,10.4987196 1074.27528,10.7202923 C1071.75695,10.5938035 1069.52386,9.38725939 1068.02929,7.55387141 C1067.76803,8.00068595 1067.61941,8.52131783 1067.61941,9.07707209 C1067.61941,10.1285467 1068.15484,11.0563084 1068.96722,11.5991 C1068.47055,11.5824923 1068.00344,11.4458651 1067.5945,11.2187645 L1067.5945,11.2566146 C1067.5945,12.7244161 1068.6395,13.9494266 1070.02513,14.2282331 C1069.77126,14.2965467 1069.50356,14.3343968 1069.22661,14.3343968 C1069.03092,14.3343968 1068.84167,14.3150131 1068.65611,14.2780803 C1069.04197,15.4827898 1070.16084,16.3588457 1071.48649,16.3828641 C1070.44979,17.195241 1069.14261,17.6780469 1067.72282,17.6780469 C1067.4782,17.6780469 1067.23724,17.6632738 1067,17.6365035 C1068.34134,18.4978104 1069.93377,19 1071.64528,19 C1077.22015,19 1080.26747,14.3824094 1080.26747,10.3778069 L1080.25731,9.9854743 C1080.85272,9.5607953 1081.36783,9.02722487 1081.7731,8.41978882 L1081.7731,8.41978882 Z" id="footer_twit"></path>
                    </g>
                </g>
            </g>
        </g>
    </g>
</svg>