<?xml version="1.0" encoding="UTF-8" standalone="no"?>
<svg width="46px" height="47px" viewBox="0 0 46 47" version="1.1" xmlns="http://www.w3.org/2000/svg" xmlns:xlink="http://www.w3.org/1999/xlink">
    <!-- Generator: Sketch 40.3 (33839) - http://www.bohemiancoding.com/sketch -->
    <title>footer_logo</title>
    <desc>Created with Sketch.</desc>
    <defs></defs>
    <g id="Page-1" stroke="none" stroke-width="1" fill="none" fill-rule="evenodd">
        <g id="Home_BUMPER" transform="translate(-149.000000, -4820.000000)">
            <g id="Group-69" transform="translate(-2.000000, 4783.000000)">
                <g id="footer">
                    <g id="footer_logo" transform="translate(151.000000, 37.000000)">
                        <path d="M23.5514163,32.399794 C21.6027811,32.399794 19.7373734,31.8923948 17.9578712,31.128515 L17.9578712,11.5513133 L20.8112961,11.5513133 L20.8112961,20.7327039 C21.8003433,19.0650644 23.1564979,18.1895279 25.2748841,18.1895279 C28.2982661,18.1895279 31.3482232,20.4218369 31.2635536,25.3374077 C31.1224378,30.3096309 27.7603777,32.4848755 23.5514163,32.399794 M44.5655279,26.8839142 C43.7719828,26.1202403 42.8243433,25.4657511 42.1937511,24.5473648 C40.9607897,22.75097 41.7794678,20.6257854 42.0664378,18.6829185 C42.2621459,17.3609614 42.5147124,16.056927 42.5027639,14.7077768 C42.4689785,10.8618026 40.0419914,8.71457511 36.9710215,7.61778541 C35.5425579,7.10791416 34.2195708,6.9791588 32.808206,6.36813734 C31.1424206,5.64628326 30.5480858,3.85751073 29.6424721,2.43399142 C29.2543519,1.82482403 28.7380944,1.14334764 28.1468498,0.767381974 C26.8494077,-0.0576824034 25.1926867,-0.0721030043 23.7458884,0.705373391 C21.960618,1.66496137 20.7709185,2.80130472 19.0824721,3.79612017 C18.1057854,4.37150215 16.9706781,4.72233476 15.8475193,4.83749356 C14.6835708,4.95697854 13.5264206,4.82678112 12.3665923,4.72666094 C11.4440858,4.64714163 10.5176652,4.57545064 9.59103863,4.60408584 C8.45593133,4.6391073 7.19495279,4.88384549 6.41315021,5.78945923 C6.21558798,6.01833476 6.04274678,6.30118455 5.92841202,6.58176824 C5.35261803,7.99272103 5.8824721,9.60824034 6.14224893,11.0334077 C6.22156223,11.4697339 6.2953133,11.9068841 6.35072961,12.3469185 C6.47721888,13.3530644 6.41624034,14.3688927 6.09816309,15.335485 C6.0095794,15.6043262 5.89854077,15.8665751 5.76999142,16.1189356 C5.43193133,16.7818712 4.99127897,17.3825923 4.44782833,17.8928755 C3.66458369,18.6275021 2.73507296,19.1833133 1.9415279,19.9074335 C1.71945064,20.1101459 1.50684979,20.3233648 1.30990558,20.5505923 C0.877081545,21.0503691 0.528927039,21.6173047 0.285012876,22.2322403 C-0.249373391,23.5787124 -0.00154506438,25.0747468 0.772635193,26.2753648 C1.46729614,27.3523777 2.67265236,27.8927382 3.53232618,28.8319313 C4.42351931,29.8051159 4.67773391,31.1647725 4.77229185,32.4381116 C4.8384206,33.3280687 4.84254077,34.2209099 4.83553648,35.112927 C4.83224034,35.4944549 4.8167897,35.8770129 4.84006867,36.2581288 C4.86623176,36.6862146 4.85902146,37.0969957 5.0928412,37.4768755 C5.29823176,37.8104034 5.63876395,38.0464893 6.03347639,38.0782146 C6.22671245,38.0936652 6.4967897,38.0860429 6.6791073,38.0133219 C6.84412017,37.9480172 7.04456652,37.8520172 7.17826609,37.7331502 C7.65744206,37.3069185 7.7975279,36.6435708 7.89290987,36.0381116 C7.92422318,35.8403433 7.95203433,35.6417511 7.98293562,35.4437768 C8.0591588,34.9555365 8.16298712,34.3811845 8.53936481,34.0256137 C8.72147639,33.8535966 9.02987124,33.7011502 9.28367382,33.6850815 C9.55993133,33.6673648 9.90664378,33.791382 10.1126524,33.9708155 C10.5514506,34.3529614 10.607073,34.968103 10.6723777,35.5047554 C10.7603433,36.2270215 10.7799142,36.9486695 10.799279,37.6752618 C10.8104034,38.0977854 10.8221459,38.5217511 10.8499571,38.9434506 C10.8773562,39.3577339 10.9057854,39.7713991 10.9333906,40.1852704 C10.9665579,40.6829871 10.9972532,41.2109871 11.16103,41.6862489 C11.2654764,41.9901116 11.4521202,42.2774936 11.7106609,42.4719657 C12.0143176,42.7000172 12.5318112,42.8955193 12.9149871,42.8955193 C14.3432446,42.8955193 14.7787468,41.6539056 15.2500944,40.6413734 C15.6563433,39.769133 16.44,38.9411845 17.3206867,38.569133 C19.1786781,37.7842403 21.3242575,38.1087039 22.6299399,39.7060944 C23.4070043,40.656412 23.7568069,41.8244807 24.1991073,42.9455794 C24.6142146,43.9966352 25.1502489,45.2963433 26.111691,45.9629871 C26.7581459,46.4114678 27.7296824,46.6207725 28.4978884,46.41703 C28.9836567,46.2878627 29.4768412,46.0013047 29.8307639,45.648 C30.7372017,44.7434163 31.1422146,43.3790215 31.6246867,42.2224893 C31.7456137,41.9322232 31.824927,41.6252704 31.968927,41.3446867 C32.6147639,40.0863863 34.0483777,39.3089099 35.4572704,39.6591245 C36.4007897,39.8933562 37.1673476,40.5927554 38.1189013,40.7925837 C39.1549185,41.0101288 40.1808412,40.4419571 40.5885322,39.4572361 C40.9752103,38.5242232 40.8293562,37.3736652 40.8071073,36.3866781 C40.7848584,35.3906266 40.8868326,34.6928755 41.5839657,33.9261116 C42.3385751,33.095485 43.4998455,33.287485 44.3865064,32.7650472 C46.6919485,31.4074506 46.2826094,28.536721 44.5655279,26.8839142" id="Fill-3" fill="#795FF9"></path>
                        <path d="M24.4555262,20.7893768 C21.9978438,20.7893768 20.9811914,23.2754884 20.9811914,25.3374283 L20.9811914,29.2639519 C21.9694146,29.6314712 22.9304446,29.8572567 23.8335863,29.8572567 C26.4049854,29.8572567 28.099818,28.3886215 28.1280412,25.3374283 C28.2129167,22.5977202 26.8287451,20.7893768 24.4555262,20.7893768" id="Fill-6" fill="#7147E6"></path>
                        <path d="M25.2748429,18.1894249 C23.1564567,18.1894249 21.8003021,19.0651674 20.8114609,20.7328069 L20.8114609,11.5514163 L17.95783,11.5514163 L17.95783,31.128618 C19.7375382,31.8922918 21.6027399,32.399691 23.5513751,32.399691 C27.7603365,32.4847725 31.1226026,30.3095279 31.2635124,25.3375107 C31.348182,20.4217339 28.2984309,18.1894249 25.2748429,18.1894249" id="Fill-8" fill="#FFFFFF"></path>
                        <path d="M28.1279794,25.3374489 C28.0997562,28.3886421 26.4051296,29.8572773 23.8335245,29.8572773 C22.9303828,29.8572773 21.9693528,29.6314918 20.9811296,29.2639725 L20.9811296,25.3374489 C20.9811296,23.275509 21.997782,20.7893974 24.4554644,20.7893974 C26.8286833,20.7893974 28.2128549,22.5977408 28.1279794,25.3374489" id="Fill-10" fill="#795FF9"></path>
                    </g>
                </g>
            </g>
        </g>
    </g>
</svg>