<?xml version="1.0" encoding="UTF-8" standalone="no"?>
<svg width="13px" height="12px" viewBox="0 0 13 12" version="1.1" xmlns="http://www.w3.org/2000/svg" xmlns:xlink="http://www.w3.org/1999/xlink">
    <!-- Generator: Sketch 39.1 (31720) - http://www.bohemiancoding.com/sketch -->
    <title>footer_linked</title>
    <desc>Created with Sketch.</desc>
    <defs></defs>
    <g id="Page-1" stroke="none" stroke-width="1" fill="none" fill-rule="evenodd" opacity="0.400000006">
        <g id="Home_new" transform="translate(-1277.000000, -4670.000000)" fill="#FFFFFF">
            <g id="Group-35" transform="translate(-36.000000, 1382.000000)">
                <g id="footer" transform="translate(35.000000, 3263.000000)">
                    <g id="Group-39" transform="translate(176.000000, 19.000000)">
                        <path d="M1114.5581,13.3571905 L1114.5581,18 L1111.86649,18 L1111.86649,13.6681379 C1111.86649,12.5799388 1111.47718,11.8372855 1110.50291,11.8372855 C1109.75917,11.8372855 1109.31658,12.3377794 1109.12186,12.821923 C1109.05086,12.9950025 1109.03258,13.2359064 1109.03258,13.4781826 L1109.03258,18 L1106.34007,18 C1106.34007,18 1106.37633,10.6632474 1106.34007,9.90310509 L1109.03232,9.90310509 L1109.03232,11.0508075 C1109.02686,11.0593914 1109.01976,11.0686469 1109.01462,11.076968 L1109.03232,11.076968 L1109.03232,11.0508075 C1109.39001,10.4998905 1110.02881,9.71288704 1111.45864,9.71288704 C1113.23011,9.71285784 1114.5581,10.8701369 1114.5581,13.3571905 L1114.5581,13.3571905 Z M1103.52358,6 C1102.60248,6 1102,6.60417224 1102,7.39867933 C1102,8.17587262 1102.58505,8.79838054 1103.48785,8.79838054 L1103.50583,8.79838054 C1104.44478,8.79838054 1105.02872,8.17598941 1105.02872,7.39867933 C1105.01102,6.60417224 1104.44478,6 1103.52358,6 L1103.52358,6 Z M1102.15991,18 L1104.8514,18 L1104.8514,9.90310509 L1102.15991,9.90310509 L1102.15991,18 L1102.15991,18 Z" id="footer_linked"></path>
                    </g>
                </g>
            </g>
        </g>
    </g>
</svg>