<svg id="Layer_1" data-name="Layer 1" xmlns="http://www.w3.org/2000/svg" viewBox="0 0 441.1 85"><defs><style>.cls-1{fill:#f6f6f6;}</style></defs><title>footer_graphic</title><path class="cls-1" d="M0,18c10.7,2.3,19.3,3.7,30.3,3.7,10.2,0,20.7,1,29.4,6.5C67.3,33,68.6,37,72.6,44.5c3.1,5.8,7.1,10.7,13.8,12.4,16.2,4.1,14.4-19.2,29.8-16.1C134.4,44.5,137,59.9,148.7,71c8.8,8.3,21.5,3.5,26.8-6.4,2.1-3.8,5.7-16.2,12.6-10.7,3.9,3.1,3.9,10.7,10.4,6.9,4.1-2.4,4.5-10.3,8-13.8,6.2-6.3,18-5.7,25.1-1.4,12.7,7.7,16.1,22.9,23.4,34.9,10.9,17.9,24.1,29.8,45.5,17.4,10.3-6,14.6-17.7,16.3-29.1,1.7-11,7.7-22.4,17.3-28.3,7.7-4.8,25.8-5.3,32.9,1,14.4,12.9,21.7,9.3,31.6-4.6,10.6-14.8,25.1-15.5,42.5-16.7Z" transform="translate(0 -18)"/></svg>