<svg xmlns="http://www.w3.org/2000/svg" viewBox="0 0 1516.66 534.7"><defs><style>.cls-1{fill:none;stroke:#535454;stroke-miterlimit:10;stroke-width:2px;}</style></defs><title>Asset 2</title><g id="Layer_2" data-name="Layer 2"><g id="Layer_1-2" data-name="Layer 1"><g id="left"><g id="expended"><path class="cls-1" d="M899.92,17.27c-11.67-2.67-146.08,3.58-220,36C514.26,125.94,491.59,169.61,491.59,169.61s-45.33,42-15.69,252.71c36.86,0,385-1,390.86-1.21C845.26,230.61,877.26,176.94,899.92,17.27Zm-333.63,162c3,0,10.47-2.92,16.8-8.08s7-45.33-15.6-45.52a5.28,5.28,0,0,1,1.26-3.07c164-112.5,311-95.5,311-95.5l-35.5,136.5S564,179.27,566.29,179.27Z"/><path class="cls-1" d="M491.59,168.61c-6.67-5.33-27.33-22.67-27.33-22.67s-28,16.67-48.67,17.33c-48.67,23.33-273.33,51.67-311.33,77,33.33,16,21.33,27.33,21.33,27.33s54.88-11.11,89.13,30.28a162.45,162.45,0,0,1,86.53-6.28c54,11,95,64.5,102,105.5,5.27,30.87,4.3,53.52,3.51,62.83,36,0,69.25,0,75.83.34C466.26,365.61,450.26,226.61,491.59,168.61Z"/><path class="cls-1" d="M1138.41,417.92s-.56,24.35-1.29,29.52-1.29,9.86-7.88,9.9l-646.64,2.93-6.69-38"/><path class="cls-1" d="M1120.09,413"/><path class="cls-1" d="M475.9,422.32"/><path class="cls-1" d="M1224.26,153.61s-22-83.33-99.33-113.33c-95.33-31.33-226-23.33-226-23.33l-25.33,154s-27.33,122-8,250.33l239.27-1A20.31,20.31,0,0,0,1125,402.59c3.59-28.18,20.47-84.36,95.2-126.11a33.41,33.41,0,0,1,5.77-2.66C1257.05,263.57,1224.26,153.61,1224.26,153.61Zm-62.5-6-256.5,13.5,12.5-134.5s196-7,246,48C1164.26,93.86,1161.76,147.61,1161.76,147.61Z"/><path class="cls-1" d="M1120.88,412.51s10.67,2.74,17.53,5.42c19.52-157,165.18-135.32,195.66-116.36,5.91-5.91,33.19-31.29,33.19-31.29h0l53.4-8.14c5.37-.88,6.35-5.47,6.47-10.91l.13-52.27h0c-.15,0-12.67,1.56-12.67-17s23.31-24.66,34.65-25.33a0,0,0,0,0,0,0c-10-5.68-42.18-23.08-47.32-24.66-74.67-23-174.54-99.7-189.66-111.08h0l-43.5,45.75"/><path class="cls-1" d="M492.59,168.94l-27.67-22.33,59-35.33s64-34.67,93.67-48.33,69-29,69-29l2-3.67S784.26.27,898.26,1.61c112.33-2.33,251.33,1.67,314,19.25"/><path class="cls-1" d="M1212.26,20.86s-.48-13.29,49.43-.66a4.46,4.46,0,0,1,3.33,5.41c-2.16,7.46-18.76,3.2-22.94,17.26"/><path class="cls-1" d="M1249.5,33.75s106.76,52.85,162.76,96.35c14,6,41.5,19.5,45,22s19.5,5.5,20.5,20,3.5,88.5,3.5,88.5l25.5,29.5s14.5,11,6.5,44-9.5,34-8.5,37.5,4,16-4.5,22-42,24.43-54,28.71a175.15,175.15,0,0,1-22,6.29s2.5-32-7-47c-12.5-2-8-1-15-1-4.75-19.25-29.25-59.75-68.87-79.37"/><path class="cls-1" d="M1508.57,291.94s.22,10.17-10.81,0a334.27,334.27,0,0,1-28-29.83l-1-58.33-1-30.67s-1.67-10-18.52-16.5"/><path class="cls-1" d="M1426.26,199s40.93,4,53,7.64"/><line class="cls-1" x1="1469.75" y1="261.59" x2="1482.11" y2="261.59"/><path class="cls-1" d="M1127.51,197.11s-1-14.5,25.5-15.75,41-.5,42,10,1.25,14-7.75,18-37.75,2.75-37.75,2.75S1128.76,213.86,1127.51,197.11Z"/><path class="cls-1" d="M1191.76,198a12.57,12.57,0,0,0-8.92-11.13c-3.69-1.23-8.94-1.62-16.08-1.5-29,.5-35.25,4.73-35.25,11.24s5.25,10.76,18.75,11.76,20.25,0,20.25,0,9-.08,9.75-11.29c-7.5-.47-44.5,0-44.5,0s-2.5,6,14,7.54c9.89.9,15.2.81,17.86.59a6.57,6.57,0,0,0,4.09-1.86c1.59-1.57,3.7-4.09,3.55-6.36"/><line class="cls-1" x1="1180.26" y1="197.06" x2="1191.76" y2="197.06"/><path class="cls-1" d="M756.51,215.11s-1-14.5,25.5-15.75,41-.5,42,10,1.25,14-7.75,18-37.75,2.75-37.75,2.75S757.76,231.86,756.51,215.11Z"/><path class="cls-1" d="M820.76,216a12.57,12.57,0,0,0-8.92-11.13c-3.69-1.23-8.94-1.62-16.08-1.5-29,.5-35.25,4.73-35.25,11.24s5.25,10.76,18.75,11.76,20.25,0,20.25,0,9-.08,9.75-11.29c-7.5-.47-44.5,0-44.5,0s-2.5,6,14,7.54c9.89.9,15.2.81,17.86.59a6.57,6.57,0,0,0,4.09-1.86c1.59-1.57,3.7-4.09,3.55-6.36"/><line class="cls-1" x1="809.26" y1="215.06" x2="820.76" y2="215.06"/><path class="cls-1" d="M567.49,125.67s-19.24.27-22.24,1.93-27,19.17-27,43.33h10.83s3.17,6.5,6.83,6.83,31.57,1.5,31.57,1.5"/><path class="cls-1" d="M214.72,297.89s-33.8,17.55-42.3,27.55c-17.29,19.17-44.59,37.74-39.85,121.18a4.93,4.93,0,0,1-5.14,5.21c-16.15-.65-35.64-5.93-51.17-9.22-17.33-3.67-49.67-11-66.67-25.67C6,408.11,6.76,404.61,7.26,402.86s4.75-11.75,2.25-22-8.75-24-8.5-42.5v-16.5s6.51-16.25,26-29.75c0,0,1.63,2.5,21.5-1.12,14.79-2.7,37-7.33,47.37-9.53a45.22,45.22,0,0,0,11.07-3.9c6.65-3.37,17.33-8.84,18.64-9.95"/><path class="cls-1" d="M1,321.86s7.11-15.42,26-29.75c0,0,5.25-11.25,9.25-17.25s15.5-27.75,40.5-33.5c12.75-2,27.5-1.08,27.5-1.08"/><path class="cls-1" d="M46.08,260.88s13.68-19.77,64.43-38S246.76,184.61,300,177.11s90.67-13.67,115.58-13.83"/><path class="cls-1" d="M6.67,371.14H18.92s9-.2,10.33,13.13-2.67,20.33-6,21.67-16.43,0-16.43,0"/><circle class="cls-1" cx="266.42" cy="418.44" r="115.26"/><circle class="cls-1" cx="266.42" cy="418.44" r="82.52"/><circle class="cls-1" cx="1273.76" cy="418.44" r="115.26"/><circle class="cls-1" cx="1273.76" cy="418.44" r="82.52"/><path class="cls-1" d="M1424.26,428.61s-9,31.67-15,31.67-17-3.33-18.33-5-2.42-18.9-2.18-28.95"/></g></g></g></g></svg>