<?xml version="1.0" encoding="utf-8"?>
<!-- Generator: Adobe Illustrator 16.0.0, SVG Export Plug-In . SVG Version: 6.00 Build 0)  -->
<!DOCTYPE svg PUBLIC "-//W3C//DTD SVG 1.1//EN" "http://www.w3.org/Graphics/SVG/1.1/DTD/svg11.dtd">
<svg version="1.1" id="Layer_1" xmlns="http://www.w3.org/2000/svg" xmlns:xlink="http://www.w3.org/1999/xlink" x="0px" y="0px"
	 width="181px" height="179px" viewBox="0 0 530 530" enable-background="new 0 0 530 530" xml:space="preserve">
<g>
	<g>
		<g>
			<defs>
				<circle id="SVGID_1_" cx="265" cy="264.999" r="228.353"/>
			</defs>
			<clipPath id="SVGID_2_">
				<use xlink:href="#SVGID_1_"  overflow="visible"/>
			</clipPath>
			<circle clip-path="url(#SVGID_2_)" fill="#DDDDDD" cx="265" cy="264.999" r="228.353"/>
			<path clip-path="url(#SVGID_2_)" fill="#9999D9" d="M748.801,432.634c0,45.85-11.814,83.016-26.389,83.016H45.616
				c-14.574,0-26.388-37.166-26.388-83.016l0,0c0-45.854,11.813-83.02,26.388-83.02h676.796
				C736.986,349.614,748.801,386.78,748.801,432.634L748.801,432.634z"/>
			<path clip-path="url(#SVGID_2_)" fill="#623ED8" d="M573.85,484.258c0,15.022-2.238,27.204-5,27.204H43.649
				c-2.762,0-5-12.182-5-27.204V376.922c0-15.023,2.238-27.197,5-27.197H568.85c2.762,0,5,12.174,5,27.197V484.258z"/>
			<path clip-path="url(#SVGID_2_)" fill="#DDDDDD" d="M497.887,211.208"/>
			<circle clip-path="url(#SVGID_2_)" fill="none" cx="265" cy="251.272" r="228.353"/>
			<g clip-path="url(#SVGID_2_)">
				<g>
					<g>
						<g>
							<path fill="#271F45" d="M306.527,322.841c0,26.982,21.877,48.859,48.861,48.859c26.986,0,48.859-21.877,48.859-48.859
								c0-26.988-21.873-48.867-48.859-48.867C328.404,273.974,306.527,295.853,306.527,322.841z"/>
							<path fill="#271F45" d="M700.906,322.841c0,26.982,21.875,48.859,48.859,48.859c26.986,0,48.863-21.877,48.863-48.859
								c0-26.988-21.877-48.867-48.863-48.867C722.781,273.974,700.906,295.853,700.906,322.841z"/>
							<path fill="#271F45" d="M809.482,330.509c0,0-153.566,3.104-155.893,3.104s-361.438,3.104-361.438,3.104
								s-44.983-62.826,34.131-72.135c79.111-9.303,108.586-3.877,161.328-3.877c52.738,0,252.846-0.773,265.258-0.773
								c12.406,0,37.227-6.207,44.211,6.203C804.059,278.542,809.482,330.509,809.482,330.509z"/>
							<g>
								<defs>
									<path id="SVGID_3_" d="M690.049,338.351H414.336c0,0-2.334-69.801-62.824-69.801c-36.064,2.328-54.68,34.898-50.027,74.455
										c-40.72-3.49-48.858-9.307-50.026-16.287c-6.978-8.143-10.466-37.229-5.817-45.373c4.661-8.141,9.313-31.406,50.029-44.207
										c40.717-12.799,112.846-26.758,112.846-26.758l104.703-55.838c0,0,40.717-11.635,95.396-12.797
										c54.68-1.166,108.193,2.324,108.193,2.324s60.492,15.123,97.723,51.189c30.248,0,54.258-6.158,52.346,15.832
										c-2.211,25.408,8.148,50.479,8.148,50.479s16.283,19.775,5.816,29.08c-10.475,9.312-11.637,12.799-10.475,18.615
										c1.164,5.82-9.305,20.943-41.877,23.273c-32.578,2.324-24.432,3.484-24.432,3.484s5.812-66.309-66.309-65.145
										C685.396,272.036,690.049,338.351,690.049,338.351z"/>
								</defs>
								<use xlink:href="#SVGID_3_"  overflow="visible" fill="#9999D9"/>
								<clipPath id="SVGID_4_">
									<use xlink:href="#SVGID_3_"  overflow="visible"/>
								</clipPath>
								<path clip-path="url(#SVGID_4_)" fill="#9999D9" d="M818.535,191.413c0,0,5.686,23.785-122.029,32.062
									c-127.717,8.271-261.637,3.617-261.637,3.617s-28.957-4.137-31.543-16.547c-2.586-12.406,90.486-71.354,146.336-77.039
									c55.838-5.691,119.959,6.719,121.51,6.719c1.549,0,53.773-1.033,57.393-1.033c3.617,0,77.561,12.41,84.283,24.301
									C819.57,175.388,818.535,191.413,818.535,191.413z"/>
								<g clip-path="url(#SVGID_4_)">
									<defs>
										<path id="SVGID_5_" d="M690.049,338.351H414.336c0,0-2.334-69.801-62.824-69.801
											c-36.064,2.328-54.68,34.898-50.027,74.455c-40.72-3.49-48.858-9.307-50.026-16.287
											c-6.978-8.143-10.466-37.229-5.817-45.373c4.661-8.141,9.313-31.406,50.029-44.207
											c40.717-12.799,112.846-26.758,112.846-26.758l104.703-55.838c0,0,40.717-11.635,95.396-12.797
											c54.68-1.166,108.193,2.324,108.193,2.324s60.492,15.123,97.723,51.189c30.248,0,54.744-7.977,52.346,13.965
											c-2.211,20.248,8.148,52.346,8.148,52.346s16.283,19.775,5.816,29.08c-10.475,9.312-11.637,12.799-10.475,18.615
											c1.164,5.82-9.305,20.943-41.877,23.273c-32.578,2.324-24.432,3.484-24.432,3.484s5.812-66.309-66.309-65.145
											C685.396,272.036,690.049,338.351,690.049,338.351z"/>
									</defs>
									<clipPath id="SVGID_6_">
										<use xlink:href="#SVGID_5_"  overflow="visible"/>
									</clipPath>
								</g>
							</g>
							<path fill="#C5C6C7" d="M323.977,322.841c0,17.344,14.064,31.406,31.412,31.406s31.41-14.062,31.41-31.406
								c0-17.346-14.062-31.414-31.41-31.414S323.977,305.495,323.977,322.841z"/>
							<path fill="#C5C6C7" d="M718.354,322.841c0,17.344,14.068,31.406,31.412,31.406c17.348,0,31.412-14.062,31.412-31.406
								c0-17.346-14.064-31.414-31.412-31.414C732.422,291.427,718.354,305.495,718.354,322.841z"/>
							<polygon fill="#2A1F48" points="621.016,152.636 606.533,219.339 718.221,214.685 694.438,155.218 							"/>
							<path fill="#2A1F48" d="M598.262,154.706l-51.189,3.619c0,0-33.094,5.688-58.949,25.854
								c-25.85,20.162-39.289,34.641-39.289,34.641l134.434,1.035L598.262,154.706z"/>
							<path fill="#2A1F48" d="M732.182,212.616l-24.816-55.842c0,0,39.816,6.203,59.977,26.367
								C787.508,203.31,776.65,211.581,732.182,212.616z"/>
							<path fill="#FFFFFF" d="M864.039,218.819c0,0-9.828,0-12.414,6.721c-2.582,6.725-9.824,30.512,1.553,30.512
								c11.375,0,21.201,1.553,19.648-13.443C871.277,227.612,864.039,218.819,864.039,218.819z"/>
							<path fill="#FFFFFF" d="M258.024,256.052l19.65,1.031c0,0,6.725,4.141,3.102,8.793c-3.615,4.654-9.82,12.41-22.751,12.41
								C245.094,278.286,242.513,268.979,258.024,256.052z"/>
							<path fill="#2A1F48" d="M814.531,195.259c0,0-16.223-14.824-56.035-30.854c-39.816-16.029-23.135-15.42-23.135-15.42
								s27.898,9.18,48.582,21.592C804.625,182.983,822.387,195.485,814.531,195.259z"/>
							<path fill="#2A1F48" d="M513.219,154.542l3.348,3.264c0,0-65.15,38.783-71.875,43.438
								c-6.721,4.65-22.232,17.061-22.232,17.061l-13.943-7.924C408.516,210.38,477.812,167.304,513.219,154.542z"/>
						</g>
					</g>
					<polygon fill="#FFFFFF" points="693.996,155.134 681.811,154.62 609.42,219.251 623.023,218.571 					"/>
					<polygon fill="#FFFFFF" points="597.82,154.62 584.6,155.495 513.244,219.251 525.436,219.325 					"/>
					<polygon fill="#FFFFFF" points="699.535,168.987 645.215,217.624 657.367,217.114 702.625,176.712 					"/>
				</g>
				<g>
					<defs>
						<path id="SVGID_7_" d="M316.561,232.925c-5.682,1.102-15.266-1.354-17.389,6.139c-2.025,7.146,7.088,11.527,11.828,14.559
							c8.303,5.311,14.328,16.113,23.625,19.299c8.582,2.943,20.027,4.113,29.035,6.09c6.992,1.533,14.225,2.738,20.836,4.992
							c13.439,4.578,26.307,13.203,40.654,14.719c14.115,1.49,15.057-13.852,18.994-25.01c3.938-11.15,1.385-21.328-7.395-29.619
							c-4.156-3.924-5.338-6.365-8.537-10.949c-5.412-7.76-13.008-9.855-21.609-12.98c-9.041-3.283-17.072-3.797-26.268-2.395
							c-16.98,2.586-32.84,6.816-49.494,11.189C326.34,230.14,321.051,232.054,316.561,232.925z"/>
					</defs>
					<clipPath id="SVGID_8_">
						<use xlink:href="#SVGID_7_"  overflow="visible"/>
					</clipPath>
					<g clip-path="url(#SVGID_8_)">
						<path fill="#271F45" stroke="#271F45" stroke-width="0.9532" stroke-miterlimit="10" d="M413.707,271.085
							c-0.775-0.266-1.924-0.664-3.379-1.172c-1.451-0.516-3.219-1.127-5.246-1.844c-2.021-0.709-4.307-1.508-6.801-2.396
							c-2.49-0.881-5.184-1.846-8.035-2.865c-2.848-1.016-5.855-2.094-8.965-3.203c-3.105-1.129-6.316-2.281-9.578-3.459
							c-3.262-1.186-6.568-2.381-9.885-3.584c-3.305-1.215-6.619-2.424-9.875-3.611c-3.26-1.188-6.455-2.377-9.557-3.52
							c-3.096-1.141-6.088-2.252-8.928-3.303c-2.832-1.055-5.521-2.057-7.996-2.979c-2.471-0.922-4.742-1.777-6.748-2.535
							c-2.012-0.766-3.758-1.42-5.201-1.963c-1.443-0.545-2.572-0.984-3.348-1.279c-0.77-0.293-1.178-0.445-1.178-0.445
							s0.408,0.143,1.191,0.41c0.779,0.273,1.928,0.668,3.381,1.182c1.453,0.51,3.219,1.129,5.246,1.84
							c2.023,0.711,4.311,1.512,6.801,2.4c2.492,0.881,5.191,1.846,8.039,2.863c2.844,1.02,5.854,2.096,8.963,3.207
							c3.104,1.121,6.322,2.273,9.58,3.461c3.26,1.178,6.566,2.377,9.881,3.582c3.311,1.207,6.619,2.42,9.875,3.605
							c3.254,1.199,6.457,2.381,9.555,3.516c3.1,1.15,6.096,2.258,8.934,3.311c2.836,1.051,5.516,2.053,7.996,2.979
							c2.471,0.916,4.74,1.777,6.75,2.543c2.004,0.75,3.762,1.416,5.201,1.951c1.443,0.547,2.572,0.986,3.342,1.273
							c0.773,0.297,1.184,0.455,1.184,0.455S414.494,271.356,413.707,271.085z"/>
						<path fill="#271F45" stroke="#271F45" stroke-width="0.9532" stroke-miterlimit="10" d="M380.953,214.749
							c-0.213,0.645-0.535,1.588-0.953,2.771c-0.42,1.195-0.924,2.646-1.5,4.314c-0.58,1.664-1.232,3.543-1.955,5.594
							c-0.725,2.041-1.51,4.254-2.344,6.592c-0.832,2.344-1.717,4.814-2.625,7.365c-0.922,2.547-1.861,5.188-2.834,7.859
							c-0.973,2.678-1.955,5.396-2.943,8.111c-0.99,2.723-1.982,5.434-2.961,8.107c-0.975,2.67-1.953,5.303-2.893,7.842
							c-0.943,2.543-1.85,5.002-2.721,7.322c-0.873,2.336-1.697,4.537-2.459,6.562c-0.756,2.035-1.461,3.889-2.092,5.541
							c-0.629,1.65-1.174,3.078-1.619,4.266c-0.451,1.186-0.814,2.105-1.059,2.74c-0.244,0.637-0.375,0.969-0.375,0.969
							s0.117-0.346,0.342-0.979c0.217-0.648,0.537-1.588,0.955-2.779c0.416-1.199,0.924-2.645,1.498-4.309
							c0.578-1.67,1.236-3.543,1.959-5.59c0.719-2.047,1.506-4.262,2.336-6.604c0.836-2.336,1.719-4.803,2.627-7.357
							c0.92-2.551,1.859-5.188,2.834-7.863c0.969-2.678,1.957-5.393,2.939-8.111c0.994-2.717,1.986-5.432,2.967-8.104
							c0.973-2.676,1.953-5.299,2.889-7.846c0.941-2.535,1.85-4.996,2.717-7.328c0.875-2.328,1.695-4.529,2.461-6.559
							c0.762-2.031,1.469-3.883,2.092-5.533c0.625-1.654,1.176-3.084,1.621-4.266c0.449-1.191,0.816-2.111,1.057-2.744
							c0.244-0.629,0.377-0.969,0.377-0.969S381.168,214.112,380.953,214.749z"/>
						<path fill="#271F45" stroke="#271F45" stroke-width="0.9532" stroke-miterlimit="10" d="M365.275,222.526
							c-0.297,0.873-0.656,1.939-1.076,3.148c-0.418,1.217-0.893,2.576-1.41,4.068c-0.518,1.496-1.08,3.105-1.682,4.818
							c-0.602,1.707-1.236,3.512-1.898,5.361c-0.672,1.859-1.348,3.787-2.057,5.73c-0.705,1.947-1.424,3.93-2.139,5.914
							c-0.721,1.975-1.447,3.949-2.162,5.898c-0.707,1.943-1.43,3.85-2.107,5.713c-0.686,1.848-1.367,3.623-1.998,5.32
							c-0.631,1.699-1.242,3.295-1.803,4.775c-0.561,1.471-1.078,2.824-1.543,4.021s-0.869,2.242-1.199,3.1
							c-0.674,1.717-1.061,2.697-1.061,2.697s0.334-0.998,0.924-2.742c0.297-0.873,0.658-1.939,1.072-3.15
							c0.418-1.213,0.885-2.582,1.408-4.076c0.518-1.494,1.084-3.104,1.688-4.811c0.6-1.703,1.229-3.508,1.895-5.367
							c0.67-1.846,1.346-3.781,2.059-5.73c0.707-1.941,1.422-3.926,2.135-5.906c0.727-1.975,1.455-3.947,2.168-5.898
							c0.713-1.941,1.428-3.854,2.113-5.705c0.682-1.855,1.359-3.635,1.994-5.328c0.635-1.701,1.238-3.301,1.803-4.773
							c0.566-1.477,1.086-2.83,1.543-4.025c0.463-1.193,0.871-2.24,1.203-3.1c0.674-1.717,1.057-2.693,1.057-2.693
							S365.865,220.778,365.275,222.526z"/>
						<path fill="#271F45" stroke="#271F45" stroke-width="0.9532" stroke-miterlimit="10" d="M385.527,236.448
							c-0.111,0.357-0.277,0.881-0.498,1.547c-0.225,0.666-0.492,1.465-0.801,2.391c-0.311,0.924-0.664,1.961-1.055,3.094
							c-0.389,1.137-0.809,2.365-1.262,3.66c-0.455,1.297-0.932,2.664-1.436,4.076c-0.502,1.412-1.01,2.873-1.547,4.352
							c-0.535,1.475-1.078,2.979-1.625,4.479c-0.545,1.5-1.098,3.004-1.639,4.477c-0.541,1.475-1.088,2.924-1.609,4.322
							c-0.523,1.412-1.039,2.766-1.525,4.051c-0.49,1.281-0.951,2.49-1.387,3.611c-0.426,1.117-0.826,2.141-1.184,3.049
							c-0.355,0.908-0.668,1.691-0.928,2.342c-0.256,0.646-0.465,1.162-0.605,1.506c-0.141,0.35-0.215,0.535-0.215,0.535
							s0.061-0.189,0.18-0.545c0.113-0.357,0.281-0.883,0.504-1.547c0.219-0.664,0.486-1.469,0.799-2.385
							c0.312-0.928,0.66-1.967,1.055-3.1c0.387-1.131,0.811-2.367,1.266-3.658c0.455-1.297,0.922-2.67,1.426-4.074
							c0.508-1.412,1.014-2.871,1.549-4.352c0.539-1.48,1.078-2.988,1.623-4.484c0.551-1.496,1.1-2.998,1.641-4.473
							c0.541-1.477,1.09-2.922,1.613-4.324c0.518-1.41,1.033-2.762,1.523-4.043c0.482-1.291,0.953-2.498,1.385-3.617
							c0.426-1.123,0.824-2.143,1.184-3.051c0.359-0.9,0.672-1.691,0.926-2.338c0.26-0.65,0.469-1.16,0.607-1.51
							c0.143-0.352,0.219-0.529,0.219-0.529S385.646,236.097,385.527,236.448z"/>
						<path fill="#271F45" stroke="#271F45" stroke-width="0.9532" stroke-miterlimit="10" d="M392.018,247.569
							c-0.094,0.275-0.217,0.699-0.391,1.229c-0.17,0.529-0.379,1.17-0.623,1.908c-0.24,0.736-0.521,1.559-0.824,2.463
							c-0.299,0.904-0.631,1.883-0.992,2.91c-0.357,1.035-0.734,2.123-1.129,3.244c-0.4,1.129-0.799,2.287-1.23,3.467
							c-0.422,1.176-0.854,2.371-1.279,3.57c-0.441,1.189-0.879,2.383-1.311,3.555c-0.424,1.178-0.871,2.324-1.289,3.441
							c-0.412,1.115-0.828,2.184-1.219,3.207c-0.391,1.02-0.766,1.98-1.111,2.869c-0.346,0.885-0.67,1.703-0.957,2.42
							c-0.285,0.719-0.541,1.348-0.75,1.857c-0.203,0.52-0.379,0.924-0.488,1.197c-0.119,0.275-0.176,0.42-0.176,0.42
							s0.051-0.146,0.145-0.432c0.082-0.283,0.211-0.709,0.387-1.232c0.168-0.525,0.377-1.17,0.623-1.906
							c0.24-0.734,0.518-1.566,0.822-2.469c0.307-0.9,0.639-1.879,0.994-2.912c0.357-1.033,0.732-2.127,1.129-3.244
							c0.396-1.123,0.797-2.289,1.23-3.455c0.422-1.188,0.857-2.375,1.283-3.572c0.438-1.189,0.879-2.385,1.316-3.559
							c0.424-1.178,0.861-2.324,1.285-3.439c0.41-1.121,0.826-2.193,1.217-3.207c0.389-1.025,0.762-1.988,1.117-2.869
							c0.336-0.893,0.666-1.707,0.953-2.42c0.287-0.719,0.533-1.35,0.742-1.865c0.211-0.518,0.381-0.918,0.496-1.191
							s0.176-0.424,0.176-0.424S392.111,247.276,392.018,247.569z"/>
						<path fill="#271F45" stroke="#271F45" stroke-width="0.9532" stroke-miterlimit="10" d="M396.441,261.388
							c-0.889-0.307-1.965-0.678-3.209-1.107c-1.238-0.426-2.635-0.908-4.16-1.434c-1.523-0.533-3.17-1.1-4.914-1.721
							c-1.744-0.623-3.578-1.262-5.479-1.943c-1.9-0.684-3.863-1.373-5.852-2.098c-1.986-0.725-4.01-1.451-6.035-2.188
							c-2.018-0.736-4.033-1.479-6.023-2.207c-1.988-0.729-3.936-1.457-5.828-2.154c-1.895-0.701-3.717-1.385-5.447-2.035
							c-1.727-0.645-3.367-1.271-4.873-1.844c-1.508-0.57-2.889-1.1-4.105-1.568c-1.225-0.477-2.293-0.887-3.172-1.229
							c-1.75-0.688-2.75-1.078-2.75-1.078s1.018,0.344,2.801,0.945c0.891,0.305,1.971,0.676,3.213,1.1
							c1.244,0.43,2.637,0.902,4.16,1.434c1.529,0.537,3.174,1.109,4.914,1.725c1.742,0.615,3.582,1.268,5.48,1.943
							c1.898,0.682,3.857,1.375,5.85,2.102c1.99,0.721,4.006,1.451,6.029,2.182c2.02,0.744,4.039,1.479,6.029,2.209
							c1.992,0.727,3.939,1.457,5.83,2.16c1.891,0.689,3.713,1.381,5.445,2.033c1.727,0.646,3.365,1.268,4.873,1.84
							c1.502,0.578,2.883,1.102,4.111,1.576c1.221,0.475,2.283,0.883,3.168,1.221c1.752,0.688,2.75,1.08,2.75,1.08
							S398.225,261.989,396.441,261.388z"/>
						<path fill="#271F45" stroke="#271F45" stroke-width="0.9532" stroke-miterlimit="10" d="M394.117,252.907
							c-0.812-0.271-1.799-0.607-2.932-0.99c-1.131-0.389-2.41-0.828-3.801-1.314c-1.393-0.482-2.898-1.004-4.488-1.566
							c-1.586-0.559-3.266-1.148-4.998-1.766c-1.734-0.621-3.523-1.256-5.342-1.912c-1.82-0.66-3.666-1.326-5.51-1.996
							c-1.844-0.676-3.688-1.354-5.502-2.016c-1.812-0.654-3.592-1.33-5.32-1.971c-1.723-0.637-3.389-1.264-4.965-1.857
							c-1.58-0.59-3.07-1.166-4.447-1.689c-1.373-0.521-2.635-1.01-3.748-1.441c-1.113-0.428-2.088-0.816-2.889-1.123
							c-1.598-0.635-2.51-0.996-2.51-0.996s0.936,0.312,2.559,0.848c0.814,0.279,1.803,0.623,2.934,1.002
							c1.135,0.393,2.41,0.824,3.805,1.316c1.389,0.479,2.896,1.006,4.488,1.562c1.59,0.559,3.262,1.143,5,1.77
							c1.729,0.623,3.525,1.252,5.342,1.916c1.812,0.654,3.664,1.322,5.508,1.992c1.842,0.672,3.686,1.35,5.498,2.02
							c1.812,0.658,3.596,1.332,5.318,1.965c1.723,0.643,3.389,1.27,4.971,1.869c1.578,0.588,3.066,1.158,4.445,1.684
							c1.371,0.521,2.635,1.008,3.75,1.438c1.115,0.438,2.082,0.814,2.885,1.125c1.598,0.637,2.51,0.99,2.51,0.99
							S395.744,253.454,394.117,252.907z"/>
						<path fill="#271F45" stroke="#271F45" stroke-width="0.9532" stroke-miterlimit="10" d="M407.207,250.813
							c-0.955-0.324-2.111-0.725-3.445-1.178c-1.328-0.467-2.826-0.984-4.465-1.555c-1.627-0.568-3.402-1.188-5.27-1.846
							c-1.871-0.672-3.84-1.363-5.879-2.092c-2.033-0.736-4.141-1.477-6.273-2.258c-2.135-0.775-4.301-1.549-6.471-2.342
							c-2.172-0.795-4.338-1.582-6.465-2.371c-2.135-0.771-4.229-1.562-6.252-2.307c-2.033-0.75-3.99-1.49-5.85-2.18
							c-1.857-0.697-3.604-1.354-5.227-1.975c-1.619-0.615-3.102-1.18-4.41-1.678c-1.312-0.508-2.463-0.951-3.4-1.312
							c-1.885-0.736-2.957-1.152-2.957-1.152s1.094,0.369,3.008,1.014c0.949,0.33,2.109,0.73,3.439,1.18
							c1.328,0.467,2.826,0.988,4.467,1.553c1.633,0.578,3.396,1.191,5.268,1.855c1.871,0.658,3.844,1.359,5.879,2.088
							c2.035,0.732,4.141,1.475,6.273,2.25c2.135,0.775,4.305,1.562,6.475,2.348c2.166,0.795,4.334,1.584,6.469,2.365
							c2.133,0.779,4.219,1.566,6.254,2.312c2.027,0.748,3.984,1.486,5.84,2.184c1.861,0.691,3.609,1.352,5.229,1.973
							c1.617,0.613,3.102,1.182,4.418,1.682c1.309,0.506,2.449,0.945,3.396,1.305c1.881,0.736,2.957,1.158,2.957,1.158
							S409.121,251.468,407.207,250.813z"/>
						<path fill="#271F45" stroke="#271F45" stroke-width="0.9532" stroke-miterlimit="10" d="M401.477,246.386
							c-0.385-0.127-0.947-0.316-1.664-0.551c-0.719-0.236-1.586-0.533-2.586-0.871c-0.994-0.334-2.121-0.715-3.35-1.141
							c-1.221-0.422-2.555-0.883-3.949-1.369c-1.398-0.49-2.879-1.01-4.404-1.557c-1.523-0.543-3.107-1.1-4.701-1.68
							c-1.602-0.582-3.225-1.166-4.848-1.752c-1.629-0.592-3.246-1.189-4.846-1.775c-1.6-0.582-3.164-1.176-4.682-1.738
							c-1.521-0.562-2.984-1.117-4.371-1.641c-1.391-0.527-2.697-1.027-3.906-1.49c-1.213-0.469-2.318-0.895-3.299-1.283
							c-0.982-0.379-1.84-0.719-2.541-0.994c-0.707-0.281-1.256-0.496-1.635-0.648c-0.373-0.154-0.576-0.234-0.576-0.234
							s0.209,0.068,0.59,0.195c0.389,0.127,0.949,0.309,1.67,0.545c0.719,0.244,1.59,0.537,2.586,0.877
							c1,0.33,2.125,0.713,3.35,1.141c1.225,0.424,2.551,0.877,3.951,1.367c1.402,0.498,2.879,1.002,4.406,1.553
							c1.521,0.545,3.104,1.104,4.701,1.686c1.602,0.572,3.225,1.162,4.848,1.75c1.623,0.596,3.248,1.189,4.844,1.777
							c1.592,0.576,3.16,1.172,4.68,1.74c1.52,0.559,2.984,1.117,4.369,1.643c1.393,0.52,2.705,1.027,3.912,1.488
							c1.207,0.465,2.316,0.898,3.297,1.279c0.982,0.381,1.838,0.723,2.543,0.998c0.697,0.273,1.256,0.5,1.627,0.645
							c0.375,0.154,0.578,0.23,0.578,0.23S401.865,246.513,401.477,246.386z"/>
					</g>
				</g>
			</g>
			<polygon clip-path="url(#SVGID_2_)" fill="#DDDDDD" points="289.693,238.702 336.789,233.241 363.102,220.058 363.102,202.196 
				289.693,230.642 			"/>
			<g clip-path="url(#SVGID_2_)">
				<g>
					<g>
						<path fill="#F4A671" d="M147.938,155.552c1.486,6.021,7.577,9.699,13.602,8.212l17.559-4.337
							c6.021-1.491,9.699-7.579,8.21-13.607l0,0c-1.489-6.019-7.579-9.697-13.602-8.21l-17.558,4.339
							C150.126,143.436,146.448,149.525,147.938,155.552L147.938,155.552z"/>
						<g>
							<path fill="#623ED8" d="M99.458,84.414v146.961c0,7.757,5.955,14.065,13.303,14.065h62.642
								c7.348,0,13.303-6.309,13.303-14.065V84.414c0-7.779-5.955-14.083-13.303-14.083h-62.642
								C105.413,70.331,99.458,76.635,99.458,84.414z M105.578,92.868h76.991v130.03h-76.991V92.868z"/>
							<rect x="105.578" y="92.868" fill="#FFFFFF" width="76.991" height="130.03"/>
							<path fill="#271F45" d="M128.385,81.734c0,0.909,0.74,1.653,1.654,1.653h28.081c0.91,0,1.651-0.744,1.651-1.653l0,0
								c0-0.91-0.742-1.65-1.651-1.65h-28.081C129.125,80.084,128.385,80.824,128.385,81.734L128.385,81.734z"/>
						</g>
						<path fill="#F4A671" d="M94.445,177.974c0.304-1.354,1.047-5.263-0.142-6.375c-1.213-1.139-4.575,0.03-5.903,0.097
							c-3.282,0.162-6.434,0.435-9.718,0.915c-4.261,0.621-9.17,1.001-12.926,3.315c-3.165,1.955-2.968,6.032-4.825,9.027
							c-1.902,3.067-2.01,6.958-2.475,10.504c-0.724,6.137-1.313,13.938-1.313,17.581c0.187,4.317-0.819,8.637-1.697,12.834
							c-0.165,0.902-0.35,1.803-0.574,2.682v0.064c-2.459,10.438-8.205,20.122-14.064,28.842c8.045,4.392,16.09,8.784,24.136,13.177
							c6.597,3.602,13.194,7.202,19.791,10.806c1.955,1.067,7.694,2.949,8.796,4.855c1.482,2.567-1.361,6.542,0.192,9.526
							c2.576,4.947,6.491,0.779,10.943-1.801c7.619-4.414,15.323-9.08,22.807-13.23c12.167-6.748,23.701-16.433,34.879-25.091
							c1.373-1.063,9.378-10.097,10.186-10.097h-59.777c-7.349,0-13.303-6.302-13.303-14.085v-58.135
							C97.432,174.777,96.142,176.271,94.445,177.974z"/>
						<path fill="#F4A671" d="M187.048,155.708c0,0-8.732,22.392-4.236,28.863c4.499,6.47,12.187,2.523,16.15-9.846
							c1.128-3.521,2.188-7.065,3.06-10.639c0.965-3.948,1.82-7.854-2.656-10.244C196.79,152.467,191.367,150.973,187.048,155.708z"
							/>
						<path fill="#F4A671" d="M195.862,177.974c0,0-13.74,17.181-11.213,23.845c2.524,6.662,10.453,5.158,17.03-4.499
							c1.872-2.75,3.686-5.535,5.339-8.393c1.826-3.155,3.541-6.302,0.053-9.453C205.063,177.658,200.921,174.962,195.862,177.974z"
							/>
						<path fill="#F4A671" d="M197.193,196.365c0,0-15.203,13.552-13.645,19.975c1.556,6.424,9.269,6.239,16.724-1.546
							c2.124-2.219,4.195-4.476,6.125-6.821c2.128-2.594,4.153-5.193,1.241-8.574C205.961,197.452,202.374,194.389,197.193,196.365z
							"/>
						<path fill="#F67A82" d="M184.339,173.905l10.563,1.193c0,0-0.598,7.224-4.524,8.8c-3.927,1.575-5.89-1.559-6.669-3.16
							C182.774,178.815,184.339,173.905,184.339,173.905z"/>
						<path fill="#F67A82" d="M189.156,192.783l8.517,5.209c0,0-2.196,4.947-6.019,5.946c-3.821,0.999-5.271-2.135-5.806-3.71
							C185.208,198.338,189.156,192.783,189.156,192.783z"/>
						<path fill="#F67A82" d="M190.101,208.288l6.613,5.471c0,0-2.611,5.024-6.54,5.432c-2.792,0.292-5.579-2.283-4.947-5.293
							C185.695,211.666,188.387,209.671,190.101,208.288z"/>
					</g>
					<g>
						<text transform="matrix(1 0 0 1 122.0024 111.4834)"><tspan x="0" y="0" fill="#707070" font-family="'Roboto-Medium'" font-size="10">Scratch</tspan><tspan x="33.816" y="0" fill="#707070" font-family="'Roboto-Medium'" font-size="10">es</tspan></text>
						<text transform="matrix(1 0 0 1 97.4482 123.3418)" fill="#707070" font-family="'BrandonText-Medium'" font-size="8.0852">                                              </text>
						<circle fill="none" stroke="#FF6666" stroke-width="0.8712" stroke-miterlimit="10" cx="114.467" cy="108.059" r="3.369"/>
						<path fill="#FF6666" d="M116.31,108.059c0,1.02-0.825,1.843-1.842,1.843c-1.018,0-1.843-0.823-1.843-1.843
							c0-1.017,0.825-1.842,1.843-1.842C115.484,106.217,116.31,107.042,116.31,108.059"/>
						<text transform="matrix(1 0 0 1 122.0024 195.1045)"><tspan x="0" y="0" fill="#707070" font-family="'Roboto-Medium'" font-size="10">R</tspan><tspan x="5.96" y="0" fill="#707070" font-family="'Roboto-Medium'" font-size="10">epla</tspan><tspan x="24.92" y="0" fill="#707070" font-family="'Roboto-Medium'" font-size="10">c</tspan><tspan x="30.095" y="0" fill="#707070" font-family="'Roboto-Medium'" font-size="10">eme</tspan><tspan x="49.528" y="0" fill="#707070" font-family="'Roboto-Medium'" font-size="10">n</tspan><tspan x="55.04" y="0" fill="#707070" font-family="'Roboto-Medium'" font-size="10">t  </tspan></text>
						<g>
							<path fill="#707070" d="M125.606,202.177c1.248,0,2.246,1.055,2.246,2.321c0,1.307-0.998,2.351-2.246,2.351
								c-1.278,0-2.247-1.044-2.247-2.351C123.36,203.231,124.329,202.177,125.606,202.177z M125.606,206.433
								c0.997,0,1.791-0.859,1.791-1.935c0-1.044-0.794-1.906-1.791-1.906c-1.018,0-1.82,0.862-1.82,1.906
								C123.786,205.573,124.589,206.433,125.606,206.433z"/>
							<path fill="#707070" d="M129.167,202.418c0-0.077,0.058-0.145,0.155-0.145h0.047c0.087,0,0.125,0.037,0.136,0.114
								l0.048,0.475c0.145-0.154,0.686-0.686,1.577-0.686c1.269,0,1.686,0.782,1.686,1.952v2.469c0,0.079-0.069,0.146-0.146,0.146
								h-0.136c-0.077,0-0.144-0.067-0.144-0.146v-2.447c0-1.035-0.417-1.559-1.279-1.559c-0.91,0-1.481,0.706-1.519,0.765v3.241
								c0,0.097-0.047,0.146-0.145,0.146h-0.155c-0.087,0-0.125-0.067-0.125-0.146V202.418z"/>
							<path fill="#707070" d="M136.532,200.666c0-0.213,0.172-0.378,0.386-0.378c0.213,0,0.378,0.165,0.378,0.378
								c0,0.202-0.165,0.366-0.378,0.366C136.704,201.032,136.532,200.868,136.532,200.666z M136.716,202.418
								c0-0.077,0.058-0.145,0.145-0.145h0.134c0.068,0,0.146,0.067,0.146,0.145v4.18c0,0.097-0.049,0.146-0.146,0.146h-0.155
								c-0.086,0-0.125-0.067-0.125-0.146V202.418z"/>
							<path fill="#707070" d="M138.767,202.418c0-0.077,0.058-0.145,0.155-0.145h0.049c0.086,0,0.124,0.037,0.133,0.114l0.05,0.475
								c0.144-0.154,0.687-0.686,1.576-0.686c1.269,0,1.685,0.782,1.685,1.952v2.469c0,0.079-0.068,0.146-0.143,0.146h-0.138
								c-0.077,0-0.144-0.067-0.144-0.146v-2.447c0-1.035-0.418-1.559-1.279-1.559c-0.908,0-1.48,0.706-1.519,0.765v3.241
								c0,0.097-0.049,0.146-0.146,0.146h-0.154c-0.086,0-0.125-0.067-0.125-0.146V202.418z"/>
							<path fill="#707070" d="M143.712,206.191l0.087-0.154c0.039-0.068,0.125-0.076,0.203-0.02
								c0.115,0.098,0.591,0.437,1.218,0.437c0.679,0,1.113-0.329,1.113-0.804c0-0.513-0.541-0.757-1.297-1.036
								c-0.782-0.279-1.335-0.591-1.335-1.297c0-0.483,0.407-1.141,1.433-1.141c0.589,0,1.035,0.202,1.258,0.339
								c0.067,0.048,0.097,0.125,0.058,0.202l-0.058,0.108c-0.039,0.076-0.115,0.076-0.193,0.036c-0.106-0.057-0.59-0.29-1.065-0.29
								c-0.708,0-1.007,0.397-1.007,0.736c0,0.446,0.445,0.688,1.104,0.928c0.831,0.311,1.529,0.562,1.529,1.414
								c0,0.677-0.639,1.198-1.54,1.198c-0.754,0-1.218-0.308-1.461-0.493C143.712,206.32,143.674,206.261,143.712,206.191z"/>
							<path fill="#707070" d="M148.425,208.903c0,0.077-0.088,0.145-0.157,0.145h-0.125c-0.086,0-0.146-0.067-0.146-0.145v-6.485
								c0-0.098,0.081-0.145,0.157-0.145h0.059c0.077,0,0.115,0.028,0.125,0.114l0.04,0.31c0.135-0.105,0.687-0.521,1.509-0.521
								c1.241,0,2.122,1.016,2.122,2.321c0,1.316-0.931,2.351-2.229,2.351c-0.744,0-1.229-0.356-1.354-0.462V208.903z
								 M149.77,206.433c1.083,0,1.81-0.852,1.81-1.943c0-1.035-0.687-1.897-1.714-1.897c-0.861,0-1.383,0.514-1.44,0.59v2.71
								C148.483,205.951,149.014,206.433,149.77,206.433z"/>
							<path fill="#707070" d="M155.19,202.177c1.18,0,2.002,0.89,2.002,2.031c0,0.176,0,0.435-0.164,0.435h-3.571
								c0.019,0.998,0.775,1.79,1.733,1.79c0.628,0,1.103-0.258,1.374-0.442c0.096-0.061,0.145-0.068,0.194,0l0.105,0.163
								c0.04,0.038,0.031,0.118-0.047,0.174c-0.262,0.214-0.919,0.521-1.625,0.521c-1.316,0-2.16-1.044-2.16-2.351
								C153.03,203.231,153.874,202.177,155.19,202.177z M156.768,204.247c0-0.88-0.571-1.655-1.578-1.655
								c-0.967,0-1.666,0.726-1.725,1.655H156.768z"/>
							<path fill="#707070" d="M160.453,202.177c0.861,0,1.451,0.437,1.646,0.686c0.058,0.068,0.047,0.146-0.009,0.204l-0.08,0.077
								c-0.085,0.088-0.164,0.058-0.24-0.02c-0.107-0.116-0.612-0.532-1.317-0.532c-1.015,0-1.887,0.842-1.887,1.906
								c0,1.083,0.833,1.935,1.897,1.935c0.813,0,1.288-0.548,1.412-0.688c0.079-0.087,0.145-0.077,0.215-0.008l0.086,0.077
								c0.059,0.06,0.067,0.115,0.029,0.176c-0.185,0.271-0.824,0.858-1.752,0.858c-1.268,0-2.313-0.985-2.313-2.34
								C158.14,203.162,159.186,202.177,160.453,202.177z"/>
							<path fill="#707070" d="M163.656,202.69h-0.541c-0.117,0-0.146-0.06-0.146-0.146v-0.156c0-0.086,0.058-0.114,0.146-0.114
								h0.541v-1.221c0-0.087,0.068-0.134,0.155-0.146l0.126-0.007c0.077-0.011,0.145,0.066,0.145,0.144v1.23h1.578
								c0.096,0,0.155,0.067,0.155,0.145v0.126c0,0.087-0.059,0.146-0.155,0.146h-1.578v2.922c0,0.579,0.097,0.82,0.609,0.82
								c0.494,0,0.892-0.269,1.026-0.356c0.106-0.059,0.146-0.011,0.175,0.039l0.077,0.137c0.038,0.075,0.021,0.125-0.038,0.17
								c-0.165,0.129-0.688,0.427-1.297,0.427c-0.833,0-0.978-0.549-0.978-1.19V202.69z"/>
							<path fill="#707070" d="M166.783,200.666c0-0.213,0.175-0.378,0.386-0.378c0.212,0,0.377,0.165,0.377,0.378
								c0,0.202-0.165,0.366-0.377,0.366C166.958,201.032,166.783,200.868,166.783,200.666z M166.966,202.418
								c0-0.077,0.059-0.145,0.146-0.145h0.135c0.067,0,0.145,0.067,0.145,0.145v4.18c0,0.097-0.049,0.146-0.145,0.146h-0.157
								c-0.087,0-0.125-0.067-0.125-0.146V202.418z"/>
							<path fill="#707070" d="M170.952,202.177c1.25,0,2.248,1.055,2.248,2.321c0,1.307-0.999,2.351-2.248,2.351
								c-1.277,0-2.245-1.044-2.245-2.351C168.707,203.231,169.674,202.177,170.952,202.177z M170.952,206.433
								c0.999,0,1.791-0.859,1.791-1.935c0-1.044-0.792-1.906-1.791-1.906c-1.015,0-1.817,0.862-1.817,1.906
								C169.134,205.573,169.937,206.433,170.952,206.433z"/>
							<path fill="#707070" d="M174.515,202.418c0-0.077,0.057-0.145,0.153-0.145h0.047c0.089,0,0.127,0.037,0.138,0.114
								l0.047,0.475c0.145-0.154,0.688-0.686,1.578-0.686c1.269,0,1.685,0.782,1.685,1.952v2.469c0,0.079-0.068,0.146-0.145,0.146
								h-0.136c-0.077,0-0.145-0.067-0.145-0.146v-2.447c0-1.035-0.416-1.559-1.278-1.559c-0.91,0-1.482,0.706-1.519,0.765v3.241
								c0,0.097-0.048,0.146-0.145,0.146h-0.155c-0.087,0-0.125-0.067-0.125-0.146V202.418z"/>
						</g>
						<circle fill="none" stroke="#A3A3A3" stroke-width="0.8712" stroke-miterlimit="10" cx="114.467" cy="191.68" r="3.369"/>
						<circle fill="none" stroke="#A3A3A3" stroke-width="0.8712" stroke-miterlimit="10" cx="114.467" cy="191.68" r="1.843"/>
						
							<line fill="none" stroke="#A3A3A3" stroke-width="0.5961" stroke-miterlimit="10" x1="108.532" y1="129.447" x2="162.238" y2="129.447"/>
						<text transform="matrix(1 0 0 1 122.0024 123.3418)"><tspan x="0" y="0" fill="#707070" font-family="'RupeeForadian'" font-size="10">`</tspan><tspan x="5" y="0" fill="#707070" font-family="'Roboto-Regular'" font-size="10">1499</tspan></text>
					</g>
					<path fill="#F4A671" d="M59.75,187.572c0,0,9.527-31.785,13.234-37.232c3.707-5.448,13.493-18.394,15.369-35.931
						c0,0,12.028-5.052,13.539,13.951c1.51,19.003-7.447,49.613-7.447,49.613"/>
				</g>
				<path fill="#F4A671" d="M116.271,286.983l-61.56,40.883l-43.666-50.089c0,0,33.865-17.653,39.67-37.679"/>
				<polygon fill="#271F45" points="43.118,237.18 93.882,310.259 38.015,348.412 -19.136,287.977 				"/>
				<g>
					<g>
						<g>
							<path fill="#FFB37B" d="M157.164,175.529l2.121,100.646c0,0.036,0.001,0.12,0.002,0.154c0.195,5.273,4.627,9.391,9.905,9.195
								c5.271-0.196,18.342-7.549,18.147-12.829l-12.67-97.675c-0.176-4.765-4.149-8.529-8.94-8.431
								C160.896,166.691,157.058,170.691,157.164,175.529z"/>
							<path fill="#F67A82" d="M160.597,183.298l12.08-1.021c0,0,0-9.283-3.239-11.879
								C167.136,168.555,157.018,168.147,160.597,183.298z"/>
							<path fill="#FFB37B" d="M236.982,366.708c0,0,15.565-35.815,14.517-72.063c-0.074-2.578-0.177-6.199-0.288-10.002
								c-6.37-1.918-12.528-4.182-18.571-7.181c-8.028-3.98-15.738-8.707-23.207-13.652c-4.634-3.072-9.161-6.292-13.652-9.565
								l-12.77,0.572c-0.493,2.895-2.031,2.78-2.803,2.845c-2.301,0.185-2.843-2.679-2.843-2.679l-17.747,13.888
								c-2.001,61.937,11.902,99.737,11.902,99.737L236.982,366.708z"/>
							<path fill="#FFB37B" d="M148.947,334.082c4.34,9.289,22.573,34.525,22.573,34.525l13.399-76.158
								c-23.095,5.912-28.006-11.538-28.006-11.538l-7.879-32.544c-8.401-23.301-22.977-17.237-22.977-17.237l6.995,50.478
								C133.052,281.607,143.113,321.615,148.947,334.082z"/>
							<path fill="#FFB37B" d="M263.461,675.368c0,0-21.365-267.122-26.97-310.821l-64.592,1.908c0,0-8.701,289.689-1.116,311.604
								L263.461,675.368z"/>
							<g>
								<g>
									<line fill="#E5AE51" x1="202.795" y1="354.683" x2="202.493" y2="349.596"/>
								</g>
							</g>
							<polygon fill="#271F45" points="272.682,690.911 251.586,384.588 160.02,385.947 162.527,693.726 							"/>
							<path fill="#271F45" d="M231.204,659.7c0.56,10.718,0.125,21.53-0.884,32.291l36.966-3.188l-15.7-304.216l-13.728,0.203
								c1.377,16.729-9.588,204.431-9.188,223.021C229.04,625.15,230.297,642.393,231.204,659.7z"/>
						</g>
						<path fill="#FFB37B" d="M249.717,320.903c0,0,12.808-46.385-1.691-56.361c-9.452-6.508-49.962-25.847-49.962-25.847
							l-11.054,25.701L249.717,320.903z"/>
						<path fill="#FFB37B" d="M243.207,273.042l-8.199-21.031c0,0-5.726-8.373-16.302-9.191
							c-10.577-0.819-38.455-1.957-38.455-1.957l20.621,37.375L243.207,273.042z"/>
						<path fill="#FFB37B" d="M219.537,258.68l-11-19.713c0,0-6.819-7.511-17.407-6.876c-10.59,0.634-23.209,5.2-23.209,5.2
							l10.388,32.327L219.537,258.68z"/>
					</g>
				</g>
				<path fill="#F67A82" d="M126.544,234.646c0,0,7.518-0.185,11.196,13.173l-8.833,2.013L126.544,234.646z"/>
			</g>
		</g>
	</g>
	<g>
		<g>
			<defs>
				<rect id="SVGID_9_" x="64.919" y="65.036" width="259.008" height="123.239"/>
			</defs>
			<clipPath id="SVGID_10_">
				<use xlink:href="#SVGID_9_"  overflow="visible"/>
			</clipPath>
			<g clip-path="url(#SVGID_10_)">
				<g>
					<path fill="#F4A671" d="M174.381,129.112c1.528,5.181,7.325,8.461,12.946,7.32l16.386-3.322
						c5.617-1.143,8.936-6.269,7.407-11.456l0,0c-1.529-5.181-7.327-8.46-12.947-7.32l-16.383,3.325
						C176.168,118.8,172.85,123.927,174.381,129.112L174.381,129.112z"/>
					<g>
						<path fill="#623ED8" d="M99.458,84.414v146.961c0,7.757,5.955,14.065,13.303,14.065h62.642
							c7.348,0,13.303-6.309,13.303-14.065V84.414c0-7.779-5.955-14.083-13.303-14.083h-62.642
							C105.413,70.331,99.458,76.635,99.458,84.414z M105.578,92.868h76.991v130.03h-76.991V92.868z"/>
						<rect x="105.578" y="92.868" fill="#FFFFFF" width="76.991" height="130.03"/>
						<path fill="#271F45" d="M128.385,81.734c0,0.909,0.74,1.653,1.654,1.653h28.081c0.91,0,1.651-0.744,1.651-1.653l0,0
							c0-0.91-0.742-1.65-1.651-1.65h-28.081C129.125,80.084,128.385,80.824,128.385,81.734L128.385,81.734z"/>
					</g>
					<path fill="#F4A671" d="M94.445,177.974c0.304-1.354,1.047-5.263-0.142-6.375c-1.213-1.139-4.575,0.03-5.903,0.097
						c-3.282,0.162-6.434,0.435-9.718,0.915c-4.261,0.621-9.17,1.001-12.926,3.315c-3.165,1.955-2.968,6.032-4.825,9.027
						c-1.902,3.067-2.01,6.958-2.475,10.504c-0.724,6.137-1.313,13.938-1.313,17.581c0.187,4.317-0.819,8.637-1.697,12.834
						c-0.165,0.902-0.35,1.803-0.574,2.682v0.064c-2.459,10.438-8.205,20.122-14.064,28.842c8.045,4.392,16.09,8.784,24.136,13.177
						c6.597,3.602,13.194,7.202,19.791,10.806c1.955,1.067,7.694,2.949,8.796,4.855c1.482,2.567-1.361,6.542,0.192,9.526
						c2.576,4.947,6.491,0.779,10.943-1.801c7.619-4.414,15.323-9.08,22.807-13.23c12.167-6.748,23.701-16.433,34.879-25.091
						c1.373-1.063,9.378-10.097,10.186-10.097h-59.777c-7.349,0-13.303-6.302-13.303-14.085v-58.135
						C97.432,174.777,96.142,176.271,94.445,177.974z"/>
					<path fill="#F4A671" d="M187.048,155.708c0,0-8.732,22.392-4.236,28.863c4.499,6.47,12.187,2.523,16.15-9.846
						c1.128-3.521,2.188-7.065,3.06-10.639c0.965-3.948,1.82-7.854-2.656-10.244C196.79,152.467,191.367,150.973,187.048,155.708z"
						/>
					<path fill="#F4A671" d="M195.862,177.974c0,0-13.74,17.181-11.213,23.845c2.524,6.662,10.453,5.158,17.03-4.499
						c1.872-2.75,3.686-5.535,5.339-8.393c1.826-3.155,3.541-6.302,0.053-9.453C205.063,177.658,200.921,174.962,195.862,177.974z"
						/>
					<path fill="#F4A671" d="M197.193,196.365c0,0-15.203,13.552-13.645,19.975c1.556,6.424,9.269,6.239,16.724-1.546
						c2.124-2.219,4.195-4.476,6.125-6.821c2.128-2.594,4.153-5.193,1.241-8.574C205.961,197.452,202.374,194.389,197.193,196.365z"
						/>
					<path fill="#F67A82" d="M184.339,173.905l10.563,1.193c0,0-0.598,7.224-4.524,8.8c-3.927,1.575-5.89-1.559-6.669-3.16
						C182.774,178.815,184.339,173.905,184.339,173.905z"/>
					<path fill="#F67A82" d="M189.156,192.783l8.517,5.209c0,0-2.196,4.947-6.019,5.946c-3.821,0.999-5.271-2.135-5.806-3.71
						C185.208,198.338,189.156,192.783,189.156,192.783z"/>
					<path fill="#F67A82" d="M190.101,208.288l6.613,5.471c0,0-2.611,5.024-6.54,5.432c-2.792,0.292-5.579-2.283-4.947-5.293
						C185.695,211.666,188.387,209.671,190.101,208.288z"/>
				</g>
				<g>
					<text transform="matrix(1 0 0 1 122.0024 111.4834)"><tspan x="0" y="0" fill="#707070" font-family="'Roboto-Medium'" font-size="10.1788">Scratch</tspan><tspan x="34.421" y="0" fill="#707070" font-family="'Roboto-Medium'" font-size="10.1788">es</tspan></text>
					<text transform="matrix(1 0 0 1 97.4482 123.3418)" font-family="'BrandonText-Medium'" font-size="8.0852">                                              </text>
					<circle fill="none" stroke="#A3A3A3" stroke-width="0.8712" stroke-miterlimit="10" cx="114.467" cy="108.059" r="3.369"/>
					<path fill="none" stroke="#A3A3A3" stroke-width="0.8712" stroke-miterlimit="10" d="M116.31,108.059
						c0,1.02-0.825,1.843-1.842,1.843c-1.018,0-1.843-0.823-1.843-1.843c0-1.017,0.825-1.842,1.843-1.842
						C115.484,106.217,116.31,107.042,116.31,108.059"/>
					<text transform="matrix(1 0 0 1 122.0024 195.1045)"><tspan x="0" y="0" font-family="'BrandonText-Medium'" font-size="9.7023">R</tspan><tspan x="6.083" y="0" font-family="'BrandonText-Medium'" font-size="9.7023">epla</tspan><tspan x="23.499" y="0" font-family="'BrandonText-Medium'" font-size="9.7023">c</tspan><tspan x="28.213" y="0" font-family="'BrandonText-Medium'" font-size="9.7023">eme</tspan><tspan x="46.347" y="0" font-family="'BrandonText-Medium'" font-size="9.7023">n</tspan><tspan x="51.615" y="0" font-family="'BrandonText-Medium'" font-size="9.7023">t  </tspan></text>
					<text transform="matrix(0.3971 0 0 1 138.1895 195.1045)" font-family="'RupeeForadian'" font-size="8.0852">            </text>
					<g>
						<path d="M125.237,201.834c1.043,0,1.876,0.881,1.876,1.939c0,1.092-0.833,1.964-1.876,1.964c-1.067,0-1.877-0.872-1.877-1.964
							C123.36,202.715,124.169,201.834,125.237,201.834z M125.237,205.39c0.833,0,1.496-0.718,1.496-1.616
							c0-0.872-0.664-1.593-1.496-1.593c-0.85,0-1.521,0.721-1.521,1.593C123.716,204.672,124.387,205.39,125.237,205.39z"/>
						<path d="M128.212,202.035c0-0.064,0.048-0.12,0.13-0.12h0.04c0.073,0,0.105,0.03,0.114,0.095l0.041,0.396
							c0.121-0.129,0.573-0.572,1.317-0.572c1.06,0,1.408,0.653,1.408,1.631v2.062c0,0.066-0.058,0.122-0.122,0.122h-0.114
							c-0.064,0-0.12-0.056-0.12-0.122v-2.045c0-0.864-0.348-1.302-1.068-1.302c-0.76,0-1.238,0.59-1.269,0.639v2.708
							c0,0.081-0.04,0.122-0.121,0.122h-0.13c-0.073,0-0.105-0.056-0.105-0.122V202.035z"/>
						<path d="M134.365,200.571c0-0.178,0.144-0.315,0.323-0.315c0.178,0,0.316,0.138,0.316,0.315c0,0.169-0.138,0.307-0.316,0.307
							C134.509,200.878,134.365,200.74,134.365,200.571z M134.519,202.035c0-0.064,0.048-0.12,0.121-0.12h0.112
							c0.057,0,0.123,0.056,0.123,0.12v3.492c0,0.081-0.041,0.122-0.123,0.122h-0.129c-0.072,0-0.104-0.056-0.104-0.122V202.035z"/>
						<path d="M136.232,202.035c0-0.064,0.048-0.12,0.129-0.12h0.041c0.072,0,0.104,0.03,0.111,0.095l0.042,0.396
							c0.12-0.129,0.573-0.572,1.317-0.572c1.06,0,1.407,0.653,1.407,1.631v2.062c0,0.066-0.057,0.122-0.12,0.122h-0.115
							c-0.064,0-0.12-0.056-0.12-0.122v-2.045c0-0.864-0.35-1.302-1.069-1.302c-0.759,0-1.237,0.59-1.269,0.639v2.708
							c0,0.081-0.041,0.122-0.123,0.122h-0.128c-0.072,0-0.105-0.056-0.105-0.122V202.035z"/>
						<path d="M140.364,205.188l0.073-0.129c0.032-0.058,0.104-0.064,0.169-0.017c0.096,0.081,0.494,0.364,1.018,0.364
							c0.567,0,0.93-0.274,0.93-0.671c0-0.429-0.452-0.633-1.083-0.866c-0.654-0.233-1.116-0.493-1.116-1.083
							c0-0.404,0.34-0.953,1.197-0.953c0.492,0,0.865,0.169,1.051,0.283c0.056,0.04,0.081,0.104,0.048,0.169l-0.048,0.09
							c-0.032,0.064-0.096,0.064-0.162,0.03c-0.089-0.047-0.493-0.242-0.89-0.242c-0.592,0-0.841,0.332-0.841,0.615
							c0,0.373,0.372,0.574,0.922,0.775c0.694,0.26,1.277,0.47,1.277,1.182c0,0.565-0.534,1.001-1.286,1.001
							c-0.63,0-1.018-0.257-1.221-0.412C140.364,205.296,140.332,205.246,140.364,205.188z"/>
						<path d="M144.302,207.454c0,0.064-0.074,0.12-0.131,0.12h-0.105c-0.072,0-0.122-0.056-0.122-0.12v-5.419
							c0-0.081,0.067-0.12,0.131-0.12h0.049c0.064,0,0.096,0.023,0.104,0.095l0.033,0.259c0.112-0.088,0.573-0.435,1.26-0.435
							c1.037,0,1.773,0.849,1.773,1.939c0,1.1-0.777,1.964-1.862,1.964c-0.622,0-1.027-0.298-1.131-0.386V207.454z M145.425,205.39
							c0.905,0,1.512-0.712,1.512-1.624c0-0.864-0.574-1.585-1.432-1.585c-0.719,0-1.155,0.429-1.204,0.493v2.264
							C144.35,204.987,144.794,205.39,145.425,205.39z"/>
						<path d="M149.954,201.834c0.986,0,1.673,0.743,1.673,1.697c0,0.146,0,0.362-0.137,0.362h-2.984
							c0.016,0.834,0.647,1.496,1.448,1.496c0.525,0,0.921-0.216,1.147-0.37c0.081-0.05,0.121-0.057,0.162,0l0.088,0.137
							c0.033,0.032,0.026,0.099-0.04,0.146c-0.219,0.179-0.769,0.436-1.358,0.436c-1.1,0-1.804-0.872-1.804-1.964
							C148.149,202.715,148.854,201.834,149.954,201.834z M151.272,203.563c0-0.735-0.477-1.383-1.318-1.383
							c-0.808,0-1.392,0.606-1.441,1.383H151.272z"/>
						<path d="M154.351,201.834c0.719,0,1.212,0.364,1.375,0.572c0.048,0.058,0.04,0.122-0.007,0.171l-0.066,0.064
							c-0.071,0.073-0.137,0.048-0.201-0.017c-0.09-0.097-0.511-0.444-1.101-0.444c-0.848,0-1.577,0.703-1.577,1.593
							c0,0.904,0.696,1.616,1.585,1.616c0.68,0,1.076-0.458,1.18-0.574c0.065-0.073,0.121-0.064,0.179-0.007l0.072,0.064
							c0.049,0.05,0.057,0.097,0.024,0.146c-0.154,0.227-0.688,0.718-1.464,0.718c-1.059,0-1.933-0.823-1.933-1.955
							C152.418,202.657,153.292,201.834,154.351,201.834z"/>
						<path d="M157.027,202.263h-0.452c-0.098,0-0.123-0.05-0.123-0.122v-0.131c0-0.071,0.048-0.095,0.123-0.095h0.452v-1.021
							c0-0.072,0.057-0.111,0.129-0.122l0.105-0.006c0.064-0.009,0.121,0.056,0.121,0.12v1.028h1.318c0.08,0,0.129,0.056,0.129,0.12
							v0.105c0,0.072-0.049,0.122-0.129,0.122h-1.318v2.441c0,0.484,0.081,0.686,0.509,0.686c0.413,0,0.745-0.225,0.857-0.298
							c0.089-0.049,0.122-0.009,0.146,0.032l0.064,0.114c0.032,0.063,0.018,0.104-0.032,0.143c-0.137,0.107-0.575,0.356-1.084,0.356
							c-0.695,0-0.816-0.459-0.816-0.995V202.263z"/>
						<path d="M159.639,200.571c0-0.178,0.146-0.315,0.323-0.315c0.178,0,0.315,0.138,0.315,0.315c0,0.169-0.137,0.307-0.315,0.307
							C159.785,200.878,159.639,200.74,159.639,200.571z M159.792,202.035c0-0.064,0.049-0.12,0.122-0.12h0.113
							c0.056,0,0.121,0.056,0.121,0.12v3.492c0,0.081-0.041,0.122-0.121,0.122h-0.131c-0.073,0-0.104-0.056-0.104-0.122V202.035z"/>
						<path d="M163.123,201.834c1.044,0,1.878,0.881,1.878,1.939c0,1.092-0.834,1.964-1.878,1.964c-1.067,0-1.875-0.872-1.875-1.964
							C161.247,202.715,162.055,201.834,163.123,201.834z M163.123,205.39c0.834,0,1.496-0.718,1.496-1.616
							c0-0.872-0.662-1.593-1.496-1.593c-0.848,0-1.519,0.721-1.519,1.593C161.604,204.672,162.275,205.39,163.123,205.39z"/>
						<path d="M166.099,202.035c0-0.064,0.048-0.12,0.128-0.12h0.04c0.074,0,0.106,0.03,0.115,0.095l0.04,0.396
							c0.121-0.129,0.575-0.572,1.318-0.572c1.06,0,1.407,0.653,1.407,1.631v2.062c0,0.066-0.057,0.122-0.121,0.122h-0.113
							c-0.064,0-0.121-0.056-0.121-0.122v-2.045c0-0.864-0.348-1.302-1.068-1.302c-0.76,0-1.238,0.59-1.269,0.639v2.708
							c0,0.081-0.041,0.122-0.121,0.122h-0.129c-0.073,0-0.105-0.056-0.105-0.122V202.035z"/>
					</g>
					<circle fill="none" stroke="#A3A3A3" stroke-width="0.8712" stroke-miterlimit="10" cx="114.467" cy="191.68" r="3.369"/>
					<circle fill="none" stroke="#A3A3A3" stroke-width="0.8712" stroke-miterlimit="10" cx="114.467" cy="191.68" r="1.843"/>
					
						<line fill="none" stroke="#A3A3A3" stroke-width="0.5961" stroke-miterlimit="10" x1="108.532" y1="129.447" x2="162.238" y2="129.447"/>
					
						<line fill="none" stroke="#A3A3A3" stroke-width="0.5961" stroke-miterlimit="10" x1="108.532" y1="179.697" x2="162.238" y2="179.697"/>
					<text transform="matrix(1 0 0 1 122.0024 123.3418)"><tspan x="0" y="0" fill="#707070" font-family="'RupeeForadian'" font-size="10.1788">`</tspan><tspan x="5.089" y="0" fill="#707070" font-family="'Roboto-Regular'" font-size="10.1788">1499</tspan></text>
				</g>
				<path fill="#F4A671" d="M59.75,187.572c0,0,9.527-31.785,13.234-37.232c3.707-5.448,13.493-18.394,15.369-35.931
					c0,0,12.028-5.052,13.539,13.951c1.51,19.003-7.447,49.613-7.447,49.613"/>
			</g>
			<g clip-path="url(#SVGID_10_)">
				<path fill="#FFFFFF" d="M305.359,130.983h-4.09h-88.578h-106.33v48.147h106.33h88.578h4.09c3.317,0,6.008-2.69,6.008-6.009
					v-36.13C311.367,133.674,308.677,130.983,305.359,130.983z"/>
				<g>
					<defs>
						<rect id="SVGID_11_" x="242.185" y="134.943" width="59.696" height="41.798"/>
					</defs>
					<clipPath id="SVGID_12_">
						<use xlink:href="#SVGID_11_"  overflow="visible"/>
					</clipPath>
					<path clip-path="url(#SVGID_12_)" fill="#FF6666" d="M327.482,167.493c0,4.8,3.895,8.703,8.709,8.703
						c4.812,0,8.705-3.891,8.705-8.703c0-4.818-3.9-8.711-8.705-8.711C331.379,158.782,327.482,162.675,327.482,167.493
						 M331.377,167.395c0-2.673,2.162-4.838,4.834-4.838c2.676,0,4.835,2.167,4.835,4.838c0.003,0.731-0.171,1.417-0.463,2.041
						c-0.772,1.645-2.431,2.795-4.372,2.795C333.538,172.23,331.377,170.063,331.377,167.395"/>
					<path clip-path="url(#SVGID_12_)" fill="#FF6666" d="M268.727,157.442c8.908,0.967,9.22,10.589,9.22,10.589v1.975h52.62v-2.47
						c0,0,1.154-9.702,10.77-9.785c9.622-0.075,9.789,9.785,10.284,9.785c0.493,0,12.169-1.805,13.157-2.958
						c0.982-1.146,1.556-6.334,0.982-6.902c-0.579-0.576-1.315-1.322-1.315-2.14c0-0.82,0-8.218-1.315-9.367
						c-1.316-1.149-10.527,0-13.811-0.823c-3.287-0.821-12.994-7.426-17.771-9.175c-10.279-3.751-32.386-0.533-36.991,0.452
						c-4.603,0.986-23.187,11.84-23.187,11.84 M330.896,148.463h-18.871l1.15-10.525h10.482c1.486,0,4.773,0.502,6.248,2.633
						c1.48,2.137,0.99,7.895,0.99,7.895V148.463z M283.302,145.179c0,0,8.376-4.768,11.991-5.756
						c3.614-0.99,12.727-1.483,14.535-1.481l-1.619,10.523h-24.907V145.179z"/>
					<path clip-path="url(#SVGID_12_)" fill="#FF6666" d="M250.953,168.201c0,0-0.96-8.862,3.018-13.067
						c3.978-4.208,17.398-6.671,17.398-6.671l2.686,11.15c0,0-5.044-3.62-10.605-0.831c-5.342,2.679-6.385,9.419-6.385,9.419"/>
					<polyline clip-path="url(#SVGID_12_)" fill="#FFFFFF" points="249.201,149.583 257.598,154.577 261.403,151.014 265,153.215 
						275.492,146.101 					"/>
					<path clip-path="url(#SVGID_12_)" fill="#FF6666" d="M259.053,167.493c0,4.8,3.895,8.703,8.709,8.703
						c4.812,0,8.704-3.891,8.704-8.703c0-4.818-3.897-8.711-8.704-8.711C262.95,158.782,259.053,162.675,259.053,167.493
						 M262.947,167.395c0-2.673,2.163-4.838,4.835-4.838c2.677,0,4.835,2.167,4.835,4.838c0.001,0.731-0.172,1.417-0.463,2.041
						c-0.773,1.645-2.432,2.795-4.372,2.795C265.109,172.23,262.947,170.063,262.947,167.395"/>
					<g clip-path="url(#SVGID_12_)">
						<defs>
							<path id="SVGID_13_" d="M263.193,151.213c-0.501,1.243-0.667,2.611-0.31,4.105c0.759,3.195,2.667,3.262,5.203,2.953
								c1.166-0.144,1.858-1.018,3.312-0.979c6.268,0.156,9.719,8.789,9.588,14.02c2.235,0.023,4.516-0.322,6.711-0.733
								c2.5-0.472,3.07-0.418,4.721-2.373c2.825-3.351,3.127-4.8,1.704-8.478c-0.47-1.211-0.927-3.207-1.708-3.983
								c-1.098-1.091-3.05-0.341-3.99-1.172c-0.958-0.849-2.096-5.653-2.461-7.035c-0.952-3.61,0.039-6.819-4.977-7.147
								c-3.501-0.229-8.03,1.908-10.871,3.813C267.555,145.923,264.4,148.219,263.193,151.213z"/>
						</defs>
						<clipPath id="SVGID_14_">
							<use xlink:href="#SVGID_13_"  overflow="visible"/>
						</clipPath>
						<path clip-path="url(#SVGID_14_)" fill="none" stroke="#FFFFFF" stroke-width="0.402" stroke-miterlimit="10" d="
							M291.971,141.719c-0.238,0.249-0.598,0.617-1.051,1.083c-0.455,0.463-1.004,1.028-1.637,1.676
							c-0.634,0.647-1.347,1.379-2.129,2.172c-0.78,0.795-1.629,1.654-2.527,2.562c-0.897,0.909-1.844,1.867-2.822,2.857
							c-0.984,0.986-1.996,2.009-3.027,3.046c-1.037,1.035-2.083,2.088-3.133,3.141c-1.053,1.048-2.105,2.099-3.143,3.132
							c-1.033,1.035-2.057,2.043-3.045,3.026c-0.988,0.979-1.945,1.925-2.854,2.823c-0.908,0.896-1.77,1.743-2.562,2.527
							c-0.794,0.78-1.524,1.496-2.173,2.129c-0.65,0.632-1.211,1.181-1.676,1.635c-0.466,0.457-0.833,0.811-1.084,1.053
							c-0.251,0.244-0.382,0.373-0.382,0.373s0.129-0.133,0.371-0.382c0.243-0.25,0.597-0.619,1.051-1.082
							c0.456-0.465,1.005-1.031,1.639-1.681c0.634-0.646,1.346-1.376,2.131-2.172c0.778-0.793,1.629-1.652,2.526-2.562
							c0.896-0.906,1.843-1.867,2.822-2.854c0.98-0.988,1.994-2.014,3.03-3.047c1.032-1.035,2.078-2.087,3.13-3.138
							c1.053-1.051,2.104-2.101,3.138-3.134c1.038-1.031,2.06-2.045,3.045-3.027c0.993-0.979,1.95-1.927,2.857-2.823
							c0.908-0.897,1.77-1.744,2.563-2.527c0.793-0.782,1.524-1.493,2.176-2.128c0.644-0.633,1.211-1.186,1.674-1.638
							c0.465-0.455,0.834-0.811,1.082-1.053c0.25-0.242,0.383-0.373,0.383-0.373S292.215,141.466,291.971,141.719z"/>
						<path clip-path="url(#SVGID_14_)" fill="none" stroke="#FFFFFF" stroke-width="0.402" stroke-miterlimit="10" d="
							M264.598,144.201c0.207,0.197,0.511,0.489,0.889,0.859c0.385,0.376,0.847,0.825,1.383,1.342
							c0.534,0.52,1.134,1.104,1.789,1.743c0.651,0.641,1.358,1.336,2.104,2.073s1.532,1.511,2.349,2.316
							c0.808,0.804,1.649,1.634,2.497,2.48c0.852,0.851,1.715,1.711,2.578,2.57c0.863,0.864,1.725,1.728,2.571,2.579
							c0.848,0.849,1.677,1.687,2.482,2.501c0.805,0.812,1.583,1.6,2.315,2.345c0.736,0.749,1.433,1.456,2.07,2.109
							c0.643,0.65,1.227,1.252,1.744,1.786c0.521,0.534,0.969,0.997,1.342,1.378c0.376,0.386,0.663,0.688,0.86,0.895
							c0.2,0.205,0.304,0.316,0.304,0.316s-0.111-0.106-0.313-0.306c-0.21-0.2-0.511-0.487-0.894-0.86s-0.845-0.825-1.38-1.342
							c-0.534-0.517-1.133-1.102-1.788-1.742c-0.654-0.641-1.358-1.336-2.106-2.071c-0.745-0.735-1.532-1.511-2.347-2.312
							c-0.808-0.809-1.65-1.636-2.498-2.484c-0.854-0.849-1.714-1.709-2.58-2.57c-0.86-0.864-1.723-1.728-2.566-2.579
							c-0.852-0.847-1.679-1.688-2.486-2.501c-0.803-0.812-1.579-1.595-2.316-2.343c-0.734-0.751-1.43-1.456-2.07-2.109
							c-0.641-0.654-1.223-1.254-1.742-1.788c-0.52-0.531-0.97-0.997-1.341-1.378c-0.375-0.384-0.663-0.688-0.862-0.895
							c-0.197-0.203-0.303-0.314-0.303-0.314S264.394,144.006,264.598,144.201z"/>
						<path clip-path="url(#SVGID_14_)" fill="none" stroke="#FFFFFF" stroke-width="0.402" stroke-miterlimit="10" d="
							M264.778,151.584c0.28,0.268,0.625,0.596,1.013,0.971c0.389,0.375,0.824,0.8,1.303,1.263c0.482,0.465,0.995,0.967,1.542,1.503
							c0.548,0.533,1.123,1.098,1.712,1.681c0.592,0.587,1.209,1.189,1.824,1.807c0.619,0.617,1.25,1.245,1.881,1.871
							c0.627,0.629,1.252,1.257,1.871,1.876c0.615,0.617,1.215,1.232,1.805,1.826c0.584,0.59,1.144,1.166,1.68,1.709
							c0.536,0.546,1.037,1.062,1.505,1.543c0.462,0.474,0.888,0.913,1.263,1.306c0.375,0.39,0.701,0.729,0.97,1.01
							c0.538,0.563,0.845,0.885,0.845,0.885s-0.322-0.305-0.888-0.84c-0.276-0.271-0.62-0.599-1.011-0.974s-0.829-0.797-1.309-1.263
							c-0.479-0.463-0.992-0.967-1.537-1.502c-0.545-0.532-1.122-1.096-1.713-1.681c-0.589-0.585-1.207-1.188-1.826-1.808
							c-0.616-0.617-1.248-1.241-1.877-1.869c-0.623-0.63-1.25-1.258-1.869-1.88c-0.615-0.617-1.219-1.232-1.805-1.822
							c-0.586-0.591-1.146-1.17-1.68-1.712c-0.537-0.545-1.041-1.063-1.506-1.539c-0.464-0.48-0.887-0.92-1.262-1.308
							c-0.375-0.391-0.703-0.733-0.971-1.013c-0.537-0.565-0.843-0.885-0.843-0.885S264.214,151.046,264.778,151.584z"/>
						<path clip-path="url(#SVGID_14_)" fill="none" stroke="#FFFFFF" stroke-width="0.402" stroke-miterlimit="10" d="
							M273.709,146.321c0.116,0.105,0.287,0.262,0.502,0.465c0.215,0.204,0.473,0.448,0.771,0.731
							c0.3,0.283,0.633,0.604,0.996,0.956c0.365,0.35,0.761,0.729,1.175,1.132c0.414,0.407,0.854,0.831,1.302,1.275
							c0.45,0.443,0.919,0.898,1.388,1.367c0.47,0.47,0.948,0.945,1.423,1.419c0.476,0.477,0.952,0.956,1.419,1.426
							c0.47,0.47,0.928,0.935,1.367,1.385c0.444,0.45,0.872,0.89,1.277,1.304c0.401,0.415,0.782,0.808,1.131,1.175
							c0.354,0.359,0.673,0.694,0.957,0.994c0.283,0.298,0.525,0.558,0.729,0.773c0.203,0.213,0.361,0.384,0.469,0.5
							c0.107,0.115,0.164,0.176,0.164,0.176s-0.061-0.056-0.174-0.165c-0.116-0.107-0.287-0.264-0.502-0.468
							c-0.215-0.201-0.475-0.447-0.77-0.73c-0.299-0.283-0.636-0.603-0.998-0.956c-0.363-0.348-0.76-0.731-1.172-1.134
							c-0.415-0.405-0.857-0.83-1.305-1.271c-0.448-0.445-0.916-0.9-1.387-1.37c-0.47-0.467-0.95-0.942-1.424-1.417
							c-0.476-0.478-0.953-0.955-1.42-1.427c-0.467-0.468-0.921-0.935-1.365-1.385c-0.445-0.45-0.871-0.888-1.274-1.304
							c-0.407-0.414-0.784-0.809-1.136-1.175c-0.354-0.36-0.67-0.696-0.957-0.994c-0.278-0.298-0.525-0.558-0.729-0.772
							c-0.201-0.212-0.359-0.383-0.469-0.499c-0.107-0.118-0.162-0.178-0.162-0.178S273.595,146.212,273.709,146.321z"/>
						<path clip-path="url(#SVGID_14_)" fill="none" stroke="#FFFFFF" stroke-width="0.402" stroke-miterlimit="10" d="
							M279.117,145.819c0.088,0.086,0.229,0.211,0.399,0.369s0.38,0.352,0.619,0.579c0.235,0.223,0.504,0.476,0.796,0.752
							c0.29,0.276,0.606,0.579,0.936,0.9c0.331,0.319,0.678,0.656,1.038,1.01c0.356,0.352,0.731,0.714,1.104,1.087
							c0.375,0.368,0.756,0.748,1.138,1.125c0.378,0.38,0.754,0.761,1.124,1.134c0.375,0.373,0.734,0.748,1.088,1.104
							c0.35,0.357,0.688,0.709,1.009,1.039c0.318,0.33,0.62,0.646,0.896,0.938c0.276,0.289,0.534,0.555,0.759,0.795
							c0.224,0.238,0.416,0.445,0.574,0.617c0.162,0.172,0.286,0.309,0.37,0.4c0.085,0.095,0.132,0.142,0.132,0.142
							s-0.049-0.045-0.141-0.13c-0.094-0.084-0.234-0.208-0.402-0.369c-0.171-0.158-0.38-0.352-0.619-0.576
							c-0.236-0.224-0.504-0.479-0.797-0.755c-0.287-0.281-0.604-0.581-0.936-0.9c-0.334-0.321-0.682-0.658-1.04-1.01
							c-0.356-0.352-0.733-0.712-1.101-1.085c-0.377-0.373-0.756-0.752-1.137-1.127c-0.378-0.377-0.756-0.762-1.129-1.137
							c-0.371-0.375-0.732-0.746-1.083-1.104c-0.354-0.358-0.69-0.707-1.01-1.04c-0.32-0.33-0.624-0.643-0.899-0.937
							c-0.279-0.289-0.532-0.56-0.754-0.795c-0.223-0.238-0.42-0.444-0.579-0.617c-0.159-0.172-0.284-0.309-0.368-0.401
							c-0.084-0.092-0.131-0.142-0.131-0.142S279.021,145.731,279.117,145.819z"/>
						<path clip-path="url(#SVGID_14_)" fill="none" stroke="#FFFFFF" stroke-width="0.402" stroke-miterlimit="10" d="
							M285.186,146.589c-0.272,0.287-0.607,0.633-0.992,1.031c-0.383,0.398-0.818,0.845-1.29,1.336
							c-0.476,0.488-0.987,1.014-1.534,1.571c-0.549,0.555-1.121,1.145-1.719,1.749c-0.6,0.604-1.212,1.23-1.844,1.862
							c-0.631,0.633-1.27,1.273-1.91,1.917c-0.643,0.641-1.283,1.279-1.918,1.91c-0.633,0.632-1.26,1.245-1.863,1.843
							c-0.605,0.601-1.191,1.175-1.748,1.722c-0.555,0.547-1.086,1.059-1.572,1.535c-0.487,0.473-0.934,0.906-1.332,1.29
							c-0.4,0.384-0.746,0.718-1.035,0.992c-0.573,0.547-0.899,0.862-0.899,0.862s0.312-0.33,0.858-0.905
							c0.273-0.285,0.609-0.632,0.992-1.03c0.385-0.399,0.816-0.85,1.291-1.338c0.475-0.489,0.99-1.017,1.535-1.571
							c0.543-0.556,1.122-1.145,1.719-1.747c0.598-0.604,1.213-1.23,1.845-1.863c0.63-0.632,1.268-1.273,1.907-1.916
							c0.645-0.641,1.285-1.279,1.92-1.912c0.633-0.63,1.258-1.245,1.865-1.844c0.6-0.6,1.189-1.172,1.747-1.717
							c0.554-0.547,1.083-1.063,1.571-1.537c0.488-0.469,0.935-0.904,1.334-1.29c0.398-0.384,0.745-0.716,1.031-0.993
							c0.576-0.549,0.902-0.861,0.902-0.861S285.734,146.015,285.186,146.589z"/>
						<path clip-path="url(#SVGID_14_)" fill="none" stroke="#FFFFFF" stroke-width="0.402" stroke-miterlimit="10" d="
							M281.53,145.968c-0.249,0.262-0.553,0.578-0.9,0.945c-0.351,0.362-0.747,0.773-1.177,1.22c-0.436,0.443-0.903,0.928-1.4,1.437
							c-0.498,0.506-1.021,1.043-1.567,1.597c-0.544,0.551-1.106,1.123-1.682,1.7c-0.577,0.576-1.161,1.166-1.746,1.751
							c-0.586,0.585-1.173,1.168-1.751,1.745c-0.571,0.574-1.146,1.134-1.699,1.683c-0.551,0.544-1.088,1.069-1.596,1.564
							c-0.508,0.499-0.992,0.967-1.438,1.399c-0.442,0.434-0.855,0.828-1.217,1.178c-0.363,0.349-0.683,0.651-0.945,0.904
							c-0.525,0.497-0.825,0.782-0.825,0.782s0.285-0.302,0.779-0.829c0.251-0.26,0.559-0.577,0.905-0.941
							c0.351-0.364,0.747-0.773,1.181-1.22c0.431-0.444,0.899-0.929,1.396-1.437c0.497-0.51,1.017-1.044,1.567-1.599
							c0.547-0.549,1.104-1.124,1.684-1.7c0.574-0.574,1.162-1.164,1.744-1.751c0.586-0.581,1.174-1.166,1.751-1.741
							c0.575-0.574,1.149-1.138,1.698-1.683c0.553-0.544,1.092-1.071,1.601-1.566c0.507-0.498,0.99-0.967,1.435-1.4
							c0.444-0.433,0.857-0.829,1.221-1.179c0.364-0.35,0.682-0.649,0.943-0.902c0.527-0.497,0.826-0.782,0.826-0.782
							S282.031,145.444,281.53,145.968z"/>
						<path clip-path="url(#SVGID_14_)" fill="none" stroke="#FFFFFF" stroke-width="0.402" stroke-miterlimit="10" d="
							M283.062,140.592c-0.294,0.309-0.652,0.679-1.063,1.105c-0.415,0.427-0.882,0.907-1.39,1.433
							c-0.509,0.521-1.061,1.086-1.645,1.685c-0.59,0.596-1.204,1.224-1.848,1.873c-0.643,0.647-1.303,1.321-1.982,1.996
							c-0.675,0.68-1.357,1.37-2.046,2.056c-0.69,0.688-1.378,1.378-2.058,2.052c-0.674,0.677-1.351,1.339-1.997,1.98
							c-0.647,0.641-1.278,1.258-1.874,1.846c-0.6,0.585-1.162,1.136-1.686,1.648c-0.524,0.506-1.005,0.973-1.428,1.385
							c-0.428,0.411-0.802,0.773-1.107,1.067c-0.616,0.59-0.968,0.924-0.968,0.924s0.336-0.352,0.925-0.969
							c0.292-0.307,0.652-0.676,1.062-1.104c0.417-0.424,0.882-0.904,1.39-1.43c0.511-0.522,1.06-1.087,1.647-1.685
							c0.584-0.598,1.203-1.229,1.844-1.876c0.645-0.647,1.303-1.32,1.98-1.997c0.674-0.678,1.361-1.368,2.05-2.061
							c0.69-0.682,1.378-1.372,2.056-2.047c0.679-0.678,1.35-1.336,1.999-1.979c0.647-0.644,1.278-1.259,1.874-1.846
							c0.598-0.585,1.162-1.137,1.687-1.648c0.522-0.506,1.005-0.974,1.43-1.385c0.427-0.414,0.8-0.771,1.104-1.067
							c0.617-0.588,0.971-0.922,0.971-0.922S283.652,139.974,283.062,140.592z"/>
						<path clip-path="url(#SVGID_14_)" fill="none" stroke="#FFFFFF" stroke-width="0.402" stroke-miterlimit="10" d="
							M280.351,141.991c-0.119,0.127-0.29,0.309-0.509,0.54s-0.484,0.513-0.793,0.834c-0.307,0.321-0.651,0.682-1.033,1.076
							c-0.379,0.393-0.792,0.819-1.227,1.267c-0.438,0.448-0.899,0.92-1.38,1.404c-0.479,0.488-0.974,0.992-1.481,1.5
							c-0.506,0.511-1.02,1.027-1.532,1.542c-0.517,0.515-1.033,1.026-1.542,1.534c-0.506,0.509-1.014,1.002-1.496,1.481
							c-0.488,0.48-0.962,0.941-1.408,1.378c-0.449,0.438-0.873,0.85-1.267,1.229c-0.394,0.38-0.753,0.727-1.077,1.033
							c-0.32,0.307-0.604,0.572-0.833,0.796c-0.234,0.219-0.414,0.39-0.538,0.506c-0.126,0.115-0.193,0.18-0.193,0.18
							s0.062-0.068,0.18-0.192c0.117-0.125,0.289-0.307,0.505-0.541c0.222-0.231,0.491-0.512,0.796-0.834
							c0.304-0.318,0.651-0.682,1.033-1.073c0.38-0.393,0.791-0.821,1.227-1.267c0.44-0.448,0.897-0.924,1.379-1.411
							c0.482-0.482,0.975-0.988,1.482-1.496c0.504-0.51,1.018-1.024,1.533-1.541c0.516-0.515,1.034-1.029,1.543-1.535
							c0.503-0.506,1.012-0.999,1.499-1.479c0.483-0.48,0.958-0.941,1.405-1.377c0.447-0.441,0.874-0.853,1.267-1.229
							c0.394-0.38,0.755-0.728,1.077-1.033c0.316-0.31,0.602-0.573,0.832-0.796c0.23-0.217,0.416-0.39,0.537-0.506
							c0.126-0.118,0.191-0.18,0.191-0.18S280.467,141.867,280.351,141.991z"/>
					</g>
				</g>
				<text transform="matrix(1 0 0 1 126.7861 154.0908)"><tspan x="0" y="0" font-family="'BrandonText-Medium'" font-size="13.2108">Dents and Sc</tspan><tspan x="74.996" y="0" font-family="'BrandonText-Medium'" font-size="13.2108">r</tspan><tspan x="80.055" y="0" font-family="'BrandonText-Medium'" font-size="13.2108">atches          </tspan></text>
				<text transform="matrix(1 0 0 1 126.7866 170.1396)"><tspan x="0" y="0" font-family="'RupeeForadian'" font-size="10.8129">`</tspan><tspan x="5.406" y="0" font-family="'Roboto-Regular'" font-size="10.8129">2499</tspan></text>
				<circle fill="none" stroke="#FF6666" stroke-width="1.1862" stroke-miterlimit="10" cx="116.523" cy="149.434" r="4.587"/>
				<path fill="#FF6666" d="M119.032,149.434c0,1.385-1.124,2.508-2.51,2.508c-1.385,0-2.509-1.123-2.509-2.508
					c0-1.387,1.125-2.51,2.509-2.51C117.909,146.924,119.032,148.047,119.032,149.434"/>
			</g>
			<path clip-path="url(#SVGID_10_)" fill="#F67A82" d="M88.078,116.703c0,0-1.721,9.293-3.276,12.542l3.434,0.746
				C88.235,129.991,91.688,122.07,88.078,116.703z"/>
		</g>
		<path fill="#FFB37B" d="M157.164,175.529l2.121,100.646c0,0.036,0.001,0.12,0.002,0.154c0.195,5.273,4.627,9.391,9.905,9.195
			c5.271-0.196,18.342-7.549,18.147-12.829l-12.67-97.675c-0.176-4.765-4.149-8.529-8.94-8.431
			C160.896,166.691,157.058,170.691,157.164,175.529z"/>
		<path fill="#F67A82" d="M160.597,183.298l12.08-1.021c0,0,0-9.283-3.239-11.879C167.136,168.555,157.018,168.147,160.597,183.298z
			"/>
	</g>
</g>
</svg>
