<?xml version="1.0" encoding="utf-8"?>
<!-- Generator: Adobe Illustrator 16.0.0, SVG Export Plug-In . SVG Version: 6.00 Build 0)  -->
<!DOCTYPE svg PUBLIC "-//W3C//DTD SVG 1.1//EN" "http://www.w3.org/Graphics/SVG/1.1/DTD/svg11.dtd">
<svg version="1.1" id="Layer_1" xmlns="http://www.w3.org/2000/svg" xmlns:xlink="http://www.w3.org/1999/xlink" x="0px" y="0px"
	 width="181px" height="179px" viewBox="0 0 530 530" enable-background="new 0 0 530 530" xml:space="preserve">
<g>
	<g>
		<defs>
			<circle id="SVGID_1_" cx="265.001" cy="265" r="228.353"/>
		</defs>
		<clipPath id="SVGID_2_">
			<use xlink:href="#SVGID_1_"  overflow="visible"/>
		</clipPath>
		<circle clip-path="url(#SVGID_2_)" fill="#DDDDDD" cx="265.001" cy="265" r="228.353"/>
		<path clip-path="url(#SVGID_2_)" fill="#DDDDDD" d="M497.889,211.209"/>
		<polygon clip-path="url(#SVGID_2_)" fill="#DDDDDD" points="289.693,238.703 336.789,233.242 363.102,220.059 363.102,202.197 
			289.693,230.643 		"/>
		<circle clip-path="url(#SVGID_2_)" fill="none" cx="265.001" cy="265" r="228.353"/>
		<path clip-path="url(#SVGID_2_)" fill="#FFB37B" d="M239.027,31.776c0,0-3.378,32.12-1.928,40.782
			c-0.149-0.878-15.777,17.581-11.924,15.911l13.111-1.139c0,0-4.415,22.408,9.664,25.844c14.082,3.439,25.438-12.889,29.213,3.804
			c3.777,16.676,9.405,85.33,9.405,85.33l72.765-24.342L334.62,82.432l4.187-19.314l-11.472-34.865L239.027,31.776z"/>
		<path clip-path="url(#SVGID_2_)" fill="#795FF9" d="M232.006,149.465c0,0-67.021,25.791-71.602,105.382
			c-3.748,65.105,12.76,147.06,12.76,147.06l-24.717,119.439c0,0,31.518,8.839,34.266,7.479
			c2.749-1.359,51.381-124.574,44.509-271.046"/>
		<path clip-path="url(#SVGID_2_)" fill="#795FF9" d="M432.484,168.931l-59.506-36.813l-26.77-10.692
			c0.465,5.953-31.242,46.808-31.242,46.808l-15.661,21.189l-11.101-26.435l-9.991-33.343l-24.94,10.611l-56.172,49.188
			c16.743,153.514,18.85,143.813,21.262,209.004c2.043,55.199,2.3,53.437,2.3,53.437s43.205,12.751,110.275,9.471
			c67.07-3.281,67.335-15.151,67.335-15.151s19.129-141.057,27.649-199.265c7.832-53.54,23.528-63.844,23.528-63.844"/>
		<g clip-path="url(#SVGID_2_)">
			<path fill="#623ED8" d="M299.306,189.422c0,0-0.292,15.505-0.729,38.763c-0.224,11.623-0.484,25.182-0.765,39.71
				c-0.204,7.262-0.171,14.769-0.34,22.393c-0.064,3.812-0.131,7.655-0.196,11.513c-0.018,3.857-0.035,7.73-0.053,11.604
				c-0.037,3.872-0.074,7.744-0.111,11.602c-0.044,3.857-0.086,7.7-0.031,11.511c0.079,7.621,0.048,15.122,0.076,22.383
				c0.133,14.531,0.257,28.103,0.254,39.732c0.029,11.631-0.035,21.325-0.1,28.111c-0.091,6.787-0.143,10.665-0.143,10.665
				s-0.218-3.872-0.598-10.649c-0.354-6.777-0.832-16.46-1.299-28.081c-0.242-5.811-0.499-12.105-0.722-18.765
				c-0.226-6.66-0.521-13.678-0.673-20.948c-0.124-7.275-0.312-14.793-0.394-22.434c-0.077-3.82-0.056-7.67-0.034-11.534
				c0.018-3.865,0.034-7.745,0.051-11.624c0.039-3.88,0.078-7.76,0.117-11.624c0.088-3.863,0.176-7.711,0.263-11.528
				c0.099-3.816,0.196-7.604,0.293-11.345c0.095-3.741,0.216-7.437,0.368-11.069c0.305-7.266,0.599-14.29,0.878-20.95
				c0.328-6.658,0.695-12.95,1.03-18.757c0.305-5.809,0.712-11.127,1.029-15.843c0.311-4.716,0.637-8.825,0.912-12.208
				C298.933,193.283,299.306,189.422,299.306,189.422z"/>
		</g>
		<polygon clip-path="url(#SVGID_2_)" fill="#271F45" points="333.577,232.916 385.711,234.543 384.43,278.045 358.088,296.632 
			333.432,276.751 		"/>
		<g clip-path="url(#SVGID_2_)">
			
				<text transform="matrix(0.9998 0.02 -0.02 0.9998 338.9619 245.9609)" fill="#795FF9" font-family="'Intro-Regular-Alt'" font-size="10.9372">bumper</text>
		</g>
		<g clip-path="url(#SVGID_2_)">
			<path fill="#623ED8" d="M373.1,137.591l-10.852,18.942l-10.946,18.885l-11.019,18.841l-11.074,18.808l-2.928,4.972l0.313-5.839
				c0.04-0.75,0.092-1.497,0.064-2.254c0.003-0.753-0.068-1.513-0.14-2.27c-0.078-0.758-0.189-1.514-0.33-2.268
				c-0.145-0.753-0.295-1.507-0.492-2.254c-0.747-2.996-1.861-5.921-3.148-8.771c-1.285-2.854-2.791-5.622-4.416-8.317
				c-0.815-1.347-1.667-2.672-2.551-3.975l-1.35-1.934c-0.455-0.63-0.933-1.279-1.389-1.861l2.294,0.351
				c-0.511,0.435-1.039,0.844-1.585,1.226c-0.542,0.389-1.073,0.794-1.624,1.17l-1.682,1.084c-0.551,0.376-1.148,0.683-1.728,1.019
				c-0.576,0.337-1.165,0.658-1.776,0.946c-0.602,0.303-1.205,0.601-1.838,0.858c-0.617,0.279-1.26,0.521-1.908,0.755
				c-0.65,0.231-1.321,0.432-2.017,0.597c0.404-0.589,0.833-1.144,1.283-1.667c0.451-0.521,0.908-1.034,1.391-1.509
				c0.467-0.498,0.963-0.954,1.462-1.406c0.488-0.467,0.999-0.901,1.521-1.318c0.521-0.419,1.023-0.866,1.572-1.245l1.617-1.179
				c0.55-0.379,1.118-0.728,1.677-1.094c0.553-0.372,1.125-0.718,1.714-1.038l1.431-0.776l0.863,1.127
				c0.524,0.686,0.988,1.334,1.464,2.008l1.379,2.025c0.9,1.36,1.767,2.742,2.595,4.147c1.652,2.812,3.184,5.703,4.497,8.71
				c1.324,2.999,2.424,6.121,3.175,9.36c0.196,0.807,0.346,1.629,0.487,2.452c0.136,0.825,0.243,1.656,0.314,2.495
				c0.063,0.838,0.124,1.68,0.106,2.529c0.013,0.847-0.059,1.698-0.124,2.547l-2.614-0.866l11.476-18.566l11.531-18.532
				l11.604-18.488L373.1,137.591z"/>
		</g>
		<g clip-path="url(#SVGID_2_)">
			<path fill="#623ED8" d="M295.174,181.53c-2.188-1.553-4.291-3.195-6.361-4.872c-1.04-0.834-2.071-1.677-3.083-2.54
				c-1.019-0.857-2.043-1.707-3.037-2.59l2.233-0.319c-0.38,0.714-0.761,1.47-1.133,2.213l-1.114,2.245
				c-0.747,1.495-1.448,3.012-2.152,4.525l-1.065,2.265c-0.345,0.759-0.719,1.506-1.077,2.26c-0.34,0.761-0.691,1.517-1.056,2.27
				c-0.372,0.751-0.685,1.521-1.039,2.28c-0.346,0.761-0.699,1.522-1.003,2.299c-0.312,0.774-0.645,1.545-0.941,2.327l-0.813,2.372
				c-0.285,0.791-0.436,1.609-0.661,2.415l-0.307,1.216l-0.2,1.232c-0.098,0.824-0.306,1.646-0.296,2.476
				c-0.017,0.828-0.089,1.658-0.063,2.481c0.062,0.82,0.162,1.636,0.237,2.45l-1.287,0.262c-1.695-5.653-3.792-11.197-5.491-16.849
				l-2.532-8.481c-0.818-2.834-1.662-5.661-2.434-8.508c-0.765-2.848-1.498-5.705-2.18-8.576c-0.354-1.432-0.667-2.875-1.002-4.311
				c-0.333-1.438-0.662-2.876-0.965-4.322c-0.63-2.884-1.222-5.779-1.773-8.685c-0.556-2.904-1.062-5.822-1.483-8.762l0.359-0.097
				c1.106,2.757,2.126,5.537,3.096,8.331c0.976,2.792,1.91,5.595,2.807,8.408c0.46,1.403,0.895,2.813,1.324,4.225
				c0.428,1.412,0.878,2.818,1.287,4.235c0.845,2.827,1.638,5.667,2.399,8.517c0.754,2.851,1.437,5.721,2.145,8.585l2.048,8.611
				c1.354,5.744,2.31,11.594,3.667,17.337l-1.287,0.262c-0.042-0.873-0.061-1.744-0.115-2.61c-0.009-0.865,0.082-1.724,0.119-2.585
				c0.015-0.866,0.193-1.705,0.282-2.559l0.152-1.279l0.222-1.264c0.156-0.841,0.261-1.699,0.462-2.53l0.525-2.521
				c0.407-1.662,0.782-3.348,1.284-4.988c0.465-1.657,1.017-3.282,1.614-4.891l0.953-2.388c0.329-0.792,0.695-1.565,1.057-2.341
				c0.348-0.783,0.764-1.532,1.146-2.297c0.384-0.765,0.795-1.516,1.196-2.271c0.803-1.518,1.679-2.968,2.601-4.452l0.977-1.57
				l1.258,1.25c0.942,0.937,1.854,1.907,2.773,2.87c0.924,0.957,1.829,1.934,2.728,2.919c1.802,1.962,3.571,3.96,5.258,6.047
				L295.174,181.53z"/>
		</g>
		<path clip-path="url(#SVGID_2_)" fill="#623ED8" d="M220.689,447.015l-0.026,15.79c0,0,107.818,12.404,177.61-4.673l-1.19-14.114
			C397.083,444.018,331.674,456.081,220.689,447.015z"/>
		<path clip-path="url(#SVGID_2_)" fill="#271F45" d="M220.663,458.022c0,0-17.497,23.694-12.007,75.116
			c5.492,51.422-1.105,162.729,2.702,194.317c3.809,31.586,5.635,71.252,5.938,84.905c0.815,36.651,3.922-5.755,9.734,109.932
			l74.618,4.818c0,0,3.31-152.98-1.551-178.952c-4.861-25.977,11.104-70.769,9.584-107.994
			c-1.522-37.226,1.519-109.948,1.519-109.948s10.24-0.229,21.766,57.268c11.525,57.495,21.124,101.992,27.562,124.204
			c6.435,22.214,13.946,66.759,18.126,87.159c4.18,20.398,15.871,127.259,15.871,127.259l77.088-10.099
			c0,0-21.229-158.812-29.238-183.782c-8.006-24.974-16.587-130.425-15.04-178.021c1.925-59.165-29.062-100.854-29.062-100.854
			S326.595,466.224,220.663,458.022z"/>
		<g clip-path="url(#SVGID_2_)">
			<path fill="#F4A671" d="M252.842,408.471c0,0,28.128,6.539,35.891,9.65c7.763,3.108,5.502-8.304,5.502-8.304
				s-27.24-5.286-32.747-5.911C257.943,403.506,254.331,403.577,252.842,408.471z"/>
			<path fill="#F4A671" d="M241.345,428.777c0,0,13.963,1.537,14.42,1.535c0.458-0.002,27.539-12.524,27.539-12.524
				s-24.932,2.172-31.425,2.841C245.384,421.298,239.621,422.331,241.345,428.777z"/>
			<path fill="#F4A671" d="M246.743,417.193c20.796,5.813,21.669,7.912,22.974,8.184c0.353,0.074,16.316-9.591,16.316-9.591
				s-24.117-3.389-29.24-3.957C251.673,411.261,246.486,411.937,246.743,417.193z"/>
			<path fill="#FFB37B" d="M264.389,374.987c0,0-4.374,5.658,0.349,9.604c4.724,3.949,15.161,7.458,19.781,11.134
				c4.622,3.676,4.491,4.962,4.491,4.962s-0.649,13.533-12.729,18.835c-12.08,5.296-30.915,12.354-33.218,13.216
				c-2.306,0.864-5.642,3.509-4.882,9.249c0,0,13.551-2.603,24.206-5.516c10.655-2.908,24.005-4.821,37.282-9.795
				c13.282-4.977,30.575-10.377,38.467-9.935c7.896,0.443-0.601-27.592-0.601-27.592s-14.803,4.622-17.786,4.503
				c-2.98-0.12-4.486-3.726-13.482-5.458c-8.99-1.73-14.138-2.274-24.029-5.987C272.346,378.496,264.389,374.987,264.389,374.987z"
				/>
			<path fill="#F9D9C2" d="M265.293,375.382c0.204,0.091,0.697,3.583,6.271,4.35l0.566-1.484L265.293,375.382z"/>
			<path fill="#F9D9C2" d="M239.852,441.656c0,0,0.734-1.717,3.643-2.382c2.903-0.661,3.443-0.821,3.443-0.821l0.93,1.524
				L239.852,441.656z"/>
		</g>
		<g clip-path="url(#SVGID_2_)">
			<path fill="#FFB37B" d="M281.617,293.997l4.125,1.813c0,0-0.686,4.437-4.51,5.63"/>
			<g>
				<g>
					<g>
						<g>
							<polygon fill="#2A1F48" points="254.795,377.236 254.823,383.747 255.845,385.023 255.866,389.933 256.727,391.208 
								256.733,392.753 255.565,393.881 256.641,395.584 255.684,396.651 256.708,398.73 256.738,405.88 255.679,406.845 
								258.682,410.885 261.895,406.036 261.861,397.988 262.86,396.808 261.9,395.826 261.879,390.775 262.907,389.1 
								262.852,377.199 							"/>
							<polygon fill="#FFFFFF" points="255.433,377.238 255.464,383.747 256.482,385.025 256.506,389.933 257.363,391.208 
								257.371,392.753 256.202,393.881 257.277,395.584 256.323,396.651 257.346,398.73 257.377,405.88 256.317,406.845 
								259.321,410.885 262.535,406.038 262.497,397.988 263.498,396.81 262.539,395.826 262.519,390.779 263.545,389.1 
								263.491,377.199 							"/>
							<path fill="#FFFFFF" d="M258.807,381.862c-0.002-0.544-0.178-0.988-0.393-0.986c-0.217,0.002-0.389,0.444-0.388,0.99
								l0.125,27.067l0.784,1.058"/>
							<path fill="#FFFFFF" d="M260.28,380.867c-0.216,0.002-0.39,0.443-0.386,0.991l0.125,27.595l0.776-1.169l-0.119-26.432
								C260.673,381.309,260.494,380.867,260.28,380.867z"/>
						</g>
						<path fill="#FF6666" d="M265.59,351.609l-12.72,0.058c-3.535,0.015-6.391,2.896-6.373,6.431l0.062,13.913
							c0.017,3.535,2.898,6.39,6.436,6.374l12.719-0.059c3.533-0.015,6.387-2.896,6.37-6.431l-0.062-13.915
							C272.004,354.445,269.125,351.591,265.59,351.609z M267.741,358.625c0.005,1.154-0.924,2.095-2.079,2.1l-12.315,0.059
							c-1.156,0.004-2.098-0.929-2.101-2.083l-0.002-0.812c-0.008-1.156,0.926-2.097,2.08-2.101l12.314-0.059
							c1.152-0.004,2.095,0.927,2.1,2.081L267.741,358.625z"/>
						
							<linearGradient id="SVGID_3_" gradientUnits="userSpaceOnUse" x1="316.1328" y1="337.2842" x2="316.1328" y2="352.251" gradientTransform="matrix(0.8557 0.5175 -0.5175 0.8557 168.2945 -101.8493)">
							<stop  offset="0" style="stop-color:#6C6F73"/>
							<stop  offset="1" style="stop-color:#040302"/>
						</linearGradient>
						<path fill="url(#SVGID_3_)" d="M265.691,355.682l-12.422,0.054c-1.166,0.007-2.105,0.965-2.1,2.144l0.004,0.831
							c0.005,1.179,0.954,2.13,2.119,2.123l12.422-0.055c1.166-0.008,2.104-0.966,2.101-2.146l-0.003-0.832
							C267.807,356.625,266.856,355.673,265.691,355.682z M267.741,358.625c0.005,1.154-0.924,2.095-2.079,2.1l-12.315,0.059
							c-1.156,0.004-2.098-0.929-2.101-2.083l-0.002-0.812c-0.008-1.156,0.926-2.097,2.08-2.101l12.314-0.059
							c1.152-0.004,2.095,0.927,2.1,2.081L267.741,358.625z"/>
						<path fill="#2A1F48" d="M265.639,355.729l-12.314,0.059c-1.154,0.004-2.088,0.944-2.08,2.101l0.002,0.812
							c0.003,1.154,0.944,2.087,2.101,2.083l12.315-0.059c1.155-0.005,2.084-0.945,2.079-2.1l-0.003-0.814
							C267.733,356.656,266.791,355.726,265.639,355.729z M266.209,358.808c0.002,0.909-0.756,1.653-1.697,1.657l-10.02,0.043
							c-0.941,0.004-1.708-0.73-1.709-1.638l-0.004-0.642c-0.005-0.909,0.754-1.651,1.694-1.657l10.023-0.045
							c0.939-0.004,1.704,0.729,1.709,1.642L266.209,358.808z"/>
						
							<linearGradient id="SVGID_4_" gradientUnits="userSpaceOnUse" x1="316.1338" y1="346.8105" x2="316.1338" y2="361.4449" gradientTransform="matrix(0.8557 0.5175 -0.5175 0.8557 168.2945 -101.8493)">
							<stop  offset="0.1559" style="stop-color:#000000"/>
							<stop  offset="0.2456" style="stop-color:#131313"/>
							<stop  offset="0.428" style="stop-color:#454545"/>
							<stop  offset="0.6872" style="stop-color:#969696"/>
							<stop  offset="1" style="stop-color:#FFFFFF"/>
						</linearGradient>
						<path opacity="0.7" fill="url(#SVGID_4_)" d="M251.244,357.889c-0.008-1.156,0.926-2.097,2.08-2.101l12.314-0.059
							c1.152-0.004,2.095,0.927,2.1,2.081l0.003,0.814c0.005,1.154-0.924,2.095-2.079,2.1l-12.315,0.059
							c-1.156,0.004-2.098-0.929-2.101-2.083L251.244,357.889z"/>
					</g>
					<g>
						<g>
							<path fill="#FFFFFF" d="M246.078,352.664c-3.21-5.178-1.61-12.005,3.567-15.214c5.178-3.211,12.002-1.611,15.215,3.567
								c2.055,3.313,2.128,7.293,0.566,10.575c0.423-0.032,0.865,0.061,1.264,0.134c0.226,0.04,0.476,0.086,0.718,0.153h0.002
								c0.038,0.012,0.077,0.021,0.121,0.03c0.024,0.01,0.044,0.022,0.067,0.032c0.006,0.002,0.01,0.002,0.016,0.002
								c1.59-3.8,1.396-8.29-0.937-12.051c-3.833-6.184-11.979-8.095-18.163-4.261c-6.178,3.832-8.087,11.979-4.255,18.158
								c3.832,6.181,11.979,8.09,18.161,4.26c0.729-0.453,1.392-0.975,1.995-1.537l-3.662,0.019
								C255.648,359.32,249.18,357.667,246.078,352.664z"/>
							<path fill="#FFFFFF" d="M261.48,356.534c-5.346,3.316-12.393,1.662-15.704-3.682c-3.314-5.345-1.666-12.39,3.681-15.705
								c5.346-3.314,12.391-1.662,15.705,3.684c2.088,3.365,2.194,7.401,0.661,10.764c0.293,0.021,0.592,0.083,0.867,0.132
								c0.188,0.032,0.384,0.07,0.58,0.119c1.563-3.709,1.383-8.093-0.896-11.767c-3.731-6.016-11.655-7.872-17.668-4.144
								c-6.014,3.728-7.874,11.653-4.145,17.669c3.729,6.014,11.654,7.872,17.668,4.144c0.594-0.37,1.138-0.785,1.646-1.233
								l-2.382,0.01C261.488,356.528,261.484,356.532,261.48,356.534z"/>
						</g>
						<g>
							<path fill="#FFFFFF" d="M247.952,354.135c-4.255-4.357-4.171-11.372,0.188-15.627c4.36-4.256,11.372-4.171,15.626,0.188
								c3.436,3.521,4.038,8.766,1.85,12.895c0.366,0.008,0.732,0.076,1.074,0.136c0.226,0.04,0.476,0.086,0.718,0.153h0.002
								c0.038,0.012,0.077,0.021,0.121,0.03c0.024,0.01,0.044,0.022,0.067,0.032c0.062,0.019,0.122,0.043,0.182,0.068
								c0.002,0,0.004,0,0.01,0c2.257-4.83,1.45-10.771-2.491-14.807c-5.081-5.203-13.447-5.308-18.65-0.225
								c-5.205,5.079-5.307,13.446-0.227,18.649c4.846,4.966,12.674,5.273,17.905,0.885l-4.062,0.019
								C256.178,358.308,251.244,357.507,247.952,354.135z"/>
							<path fill="#FFFFFF" d="M247.697,354.383c-4.392-4.499-4.308-11.737,0.196-16.128c4.498-4.397,11.735-4.307,16.132,0.194
								c3.506,3.592,4.147,8.928,1.977,13.166c0.237,0.03,0.468,0.072,0.688,0.111c0.226,0.04,0.476,0.086,0.718,0.153h0.002
								c0.014,0.004,0.024,0.006,0.038,0.012c2.219-4.711,1.437-10.502-2.404-14.439c-4.942-5.064-13.083-5.16-18.146-0.22
								c-5.064,4.945-5.164,13.084-0.221,18.149c4.613,4.726,12.013,5.12,17.093,1.133l-2.667,0.012
								C256.762,358.775,251.284,358.059,247.697,354.383z"/>
						</g>
						<g>
							<path fill="#FFFFFF" d="M256.151,356.953c-6.092,0.028-11.069-4.907-11.101-11.002c-0.027-6.091,4.909-11.072,11.001-11.101
								c6.097-0.026,11.075,4.907,11.1,11.003c0.012,2.1-0.582,4.061-1.596,5.737c0.381-0.004,0.776,0.072,1.135,0.136
								c0.226,0.04,0.476,0.086,0.718,0.153h0.002c0.038,0.012,0.077,0.021,0.121,0.03c0.024,0.01,0.044,0.022,0.067,0.032
								c0.062,0.019,0.122,0.043,0.182,0.068h0.002c0.971-1.844,1.521-3.942,1.508-6.167c-0.032-7.273-5.977-13.163-13.248-13.129
								c-7.272,0.032-13.163,5.976-13.131,13.248c0.035,7.271,5.979,13.16,13.251,13.129c2.896-0.012,5.556-0.977,7.721-2.577
								l-4.797,0.021C258.151,356.804,257.169,356.947,256.151,356.953z"/>
							<path fill="#FFFFFF" d="M256.155,357.309c-6.29,0.03-11.43-5.064-11.459-11.354c-0.029-6.288,5.065-11.431,11.355-11.457
								c6.288-0.028,11.431,5.063,11.458,11.355c0.009,2.096-0.567,4.061-1.551,5.756c0.25,0.029,0.497,0.076,0.731,0.117
								c0.226,0.04,0.476,0.086,0.718,0.153h0.002c0.012,0.004,0.024,0.008,0.038,0.012c0.957-1.806,1.496-3.864,1.488-6.046
								c-0.033-7.077-5.817-12.808-12.893-12.775c-7.075,0.031-12.805,5.815-12.774,12.891c0.033,7.077,5.816,12.808,12.891,12.775
								c2.635-0.012,5.068-0.841,7.1-2.22l-3.034,0.016C258.962,357.027,257.59,357.301,256.155,357.309z"/>
						</g>
					</g>
					<g>
						<path fill="#FF6666" d="M241.451,350.511l-6.389-8.856c-2.481-3.432-7.273-4.204-10.707-1.729l-25.432,18.361
							c-3.431,2.479-4.206,7.271-1.728,10.705l6.392,8.851c2.48,3.436,7.272,4.21,10.705,1.732l25.43-18.362
							C243.157,358.736,243.932,353.942,241.451,350.511z M237.401,353.91c-0.653,0.473-1.575,0.309-2.062-0.368l-5.187-7.179
							c-0.483-0.673-0.352-1.604,0.301-2.072l0.46-0.332c0.65-0.471,1.573-0.307,2.062,0.366l5.185,7.181
							c0.485,0.677,0.351,1.602-0.3,2.074L237.401,353.91z"/>
						<path fill="#FF6666" d="M242.897,354.768c-0.04-1.482-0.512-2.969-1.446-4.257l-6.389-8.856
							c-2.481-3.432-7.273-4.204-10.707-1.729l-25.432,18.361c-1.29,0.935-2.205,2.194-2.713,3.584
							c0.042,1.483,0.513,2.968,1.445,4.262l6.396,8.854c2.478,3.434,7.268,4.206,10.702,1.728l25.432-18.36
							C241.479,357.422,242.392,356.162,242.897,354.768z M237.401,353.91c-0.653,0.473-1.575,0.309-2.062-0.368l-5.187-7.179
							c-0.483-0.673-0.352-1.604,0.301-2.072l0.46-0.332c0.65-0.471,1.573-0.307,2.062,0.366l5.185,7.181
							c0.485,0.677,0.351,1.602-0.3,2.074L237.401,353.91z"/>
						<g>
							<g>
								<path fill="#FF6666" d="M219.087,352.979c-0.63-0.871-0.432-2.083,0.437-2.711l3.391-2.447
									c0.865-0.627,2.082-0.431,2.709,0.438l6.936,9.605c0.626,0.867,0.429,2.086-0.438,2.709l-3.391,2.447
									c-0.866,0.627-2.083,0.431-2.71-0.436L219.087,352.979z"/>
							</g>
						</g>
						<g>
							<g>
								<path fill="#FF6666" d="M211.042,358.73c-0.625-0.867-0.43-2.083,0.438-2.708l3.39-2.45c0.867-0.625,2.083-0.429,2.71,0.44
									l6.938,9.604c0.624,0.866,0.428,2.085-0.439,2.71l-3.391,2.446c-0.866,0.627-2.083,0.432-2.71-0.437L211.042,358.73z"/>
							</g>
						</g>
						<g>
							<g>
								<path fill="#FF6666" d="M202.989,364.542c-0.626-0.866-0.431-2.079,0.438-2.708l3.39-2.448
									c0.868-0.625,2.084-0.433,2.711,0.438l6.938,9.606c0.623,0.866,0.427,2.083-0.438,2.708l-3.394,2.45
									c-0.867,0.627-2.08,0.431-2.71-0.437L202.989,364.542z"/>
							</g>
						</g>
						<path fill="#2A1F48" d="M239.317,351.92l-6.368-8.822c-0.599-0.831-1.754-1.017-2.582-0.42l-0.581,0.424
							c-0.826,0.595-1.017,1.752-0.417,2.578l6.368,8.824c0.6,0.829,1.754,1.014,2.582,0.415l0.582-0.419
							C239.73,353.901,239.916,352.747,239.317,351.92z M237.401,353.91c-0.653,0.473-1.575,0.309-2.062-0.368l-5.187-7.179
							c-0.483-0.673-0.352-1.604,0.301-2.072l0.46-0.332c0.65-0.471,1.573-0.307,2.062,0.366l5.185,7.181
							c0.485,0.677,0.351,1.602-0.3,2.074L237.401,353.91z"/>
					</g>
					<g>
						<g>
							<path fill="#FFFFFF" d="M245.027,338.777c0.029-0.055,0.062-0.1,0.093-0.15c-2.468-0.979-5.345-0.83-7.769,0.674
								c-0.963,0.595-1.758,1.353-2.393,2.21l0.874,1.211c0.565-0.873,1.318-1.644,2.259-2.226c1.944-1.205,4.235-1.371,6.24-0.672
								c0.023-0.03,0.051-0.068,0.077-0.099C244.604,339.401,244.812,339.088,245.027,338.777z"/>
							<path fill="#FFFFFF" d="M249.296,342.102c-0.593-0.959-1.352-1.754-2.206-2.391c-0.286,0.336-0.567,0.678-0.77,1.062
								c-0.016,0.03-0.036,0.055-0.053,0.081c0.712,0.529,1.341,1.191,1.835,1.99c2.113,3.408,1.059,7.897-2.347,10.009
								c-3.408,2.112-7.898,1.058-10.01-2.346c-0.745-1.201-1.087-2.538-1.078-3.856l-1.236-1.71
								c-0.427,2.097-0.095,4.351,1.117,6.307c2.521,4.066,7.882,5.321,11.948,2.803
								C250.565,351.528,251.818,346.166,249.296,342.102z"/>
							<path fill="#FFFFFF" d="M244.468,339.624c0.164-0.272,0.342-0.536,0.524-0.796c-2.391-0.933-5.175-0.783-7.517,0.669
								c-0.956,0.595-1.747,1.353-2.376,2.214l0.585,0.805c0.578-0.867,1.34-1.632,2.285-2.22
								C239.991,339.042,242.384,338.876,244.468,339.624z"/>
							<path fill="#FFFFFF" d="M249.098,342.229c-0.583-0.938-1.318-1.717-2.158-2.335c-0.202,0.242-0.387,0.493-0.545,0.762
								c0.74,0.55,1.395,1.233,1.909,2.062c2.18,3.519,1.089,8.153-2.426,10.331c-3.516,2.186-8.151,1.1-10.331-2.421
								c-0.827-1.334-1.173-2.824-1.103-4.286l-0.816-1.131c-0.354,1.97-0.017,4.074,1.12,5.914
								c2.455,3.955,7.667,5.179,11.625,2.725C250.329,351.396,251.551,346.18,249.098,342.229z"/>
						</g>
						<g>
							<path fill="#FFFFFF" d="M248.243,352.602c3.424-3.342,3.488-8.845,0.147-12.268c-0.331-0.338-0.689-0.635-1.059-0.906
								c-0.304,0.358-0.611,0.714-0.86,1.106c0.319,0.234,0.627,0.491,0.913,0.784c2.8,2.869,2.743,7.479-0.127,10.28
								c-2.868,2.799-7.479,2.744-10.279-0.125c-1.209-1.242-1.875-2.809-2.017-4.414l-1.356-1.877
								c-0.361,2.57,0.415,5.275,2.367,7.273C239.314,355.879,244.817,355.944,248.243,352.602z"/>
							<path fill="#FFFFFF" d="M245.327,338.318c-3.072-1.193-6.699-0.581-9.206,1.868c-0.434,0.419-0.811,0.878-1.137,1.36
								l0.895,1.238c0.327-0.572,0.731-1.11,1.225-1.594c2.024-1.976,4.916-2.523,7.426-1.668c0.159-0.259,0.328-0.508,0.505-0.759
								C245.125,338.609,245.223,338.462,245.327,338.318z"/>
							<path fill="#FFFFFF" d="M245.19,338.519c-2.979-1.133-6.479-0.534-8.906,1.834c-0.442,0.431-0.824,0.903-1.149,1.399
								l0.594,0.826c0.33-0.556,0.729-1.081,1.21-1.551c2.108-2.059,5.117-2.614,7.726-1.704c0.119-0.188,0.243-0.376,0.37-0.559
								C245.083,338.68,245.136,338.599,245.19,338.519z"/>
							<path fill="#FFFFFF" d="M248.08,352.436c3.331-3.251,3.394-8.607,0.143-11.938c-0.325-0.334-0.677-0.627-1.043-0.892
								c-0.202,0.238-0.403,0.479-0.583,0.733c0.337,0.241,0.656,0.506,0.953,0.812c2.893,2.963,2.833,7.723-0.125,10.61
								c-2.961,2.892-7.723,2.835-10.614-0.126c-1.345-1.379-2.039-3.148-2.11-4.941l-0.895-1.237
								c-0.272,2.429,0.497,4.952,2.334,6.834C239.391,355.621,244.747,355.686,248.08,352.436z"/>
						</g>
						<g>
							<path fill="#FFFFFF" d="M245.563,338.005c-1.009-0.404-2.112-0.629-3.263-0.623c-3.105,0.012-5.817,1.67-7.339,4.133
								l0.906,1.252c1.194-2.348,3.626-3.966,6.439-3.981c0.854-0.004,1.673,0.151,2.434,0.42c0.098-0.149,0.192-0.295,0.293-0.442
								C245.19,338.494,245.372,338.247,245.563,338.005z"/>
							<path fill="#FFFFFF" d="M251.018,346.018c-0.014-2.809-1.378-5.291-3.462-6.868c-0.289,0.365-0.61,0.711-0.888,1.085
								c1.771,1.318,2.934,3.416,2.945,5.789c0.016,4.008-3.23,7.284-7.239,7.304c-3.565,0.017-6.543-2.55-7.173-5.937l-1.498-2.076
								c-0.025,0.257-0.04,0.518-0.04,0.782c0.021,4.784,3.932,8.658,8.717,8.638C247.166,354.713,251.04,350.804,251.018,346.018z"
								/>
							<path fill="#FFFFFF" d="M250.783,346.018c-0.011-2.733-1.339-5.149-3.371-6.683c-0.198,0.238-0.404,0.474-0.597,0.718
								c1.824,1.363,3.021,3.524,3.032,5.971c0.016,4.138-3.335,7.519-7.472,7.539c-3.84,0.016-7.027-2.87-7.479-6.592l-0.975-1.352
								c-0.01,0.154-0.024,0.313-0.024,0.474c0.024,4.657,3.827,8.426,8.481,8.407C247.034,354.479,250.806,350.673,250.783,346.018
								z"/>
							<path fill="#FFFFFF" d="M245.463,338.37c-0.952-0.406-1.993-0.655-3.091-0.687c-3.053-0.083-5.771,1.478-7.32,3.874
								l0.572,0.849c1.333-2.323,3.864-3.863,6.721-3.783c0.904,0.026,1.76,0.217,2.554,0.532c0.057-0.079,0.11-0.156,0.166-0.234
								C245.188,338.73,245.322,338.545,245.463,338.37z"/>
						</g>
					</g>
				</g>
				<g>
					<path fill="#FFB37B" d="M125.971,318.821c0,0,28.316-15.964,34.493-19.158c6.173-3.193,26.398-5.108,37.255-8.517
						c10.858-3.409,19.8-6.176,26.401-5.537c6.599,0.64,22.568,1.492,30.444,0.854c7.876-0.641,11.285-1.49,14.902,2.34
						c0,0,11.637,4.341,14.053,6.386c3.454,2.93-0.285,7.603-6.668,6.358l6.454,12.592c0,0-6.388,5.534-11.283,0.427
						c-4.896-5.11-8.446-10.422-8.446-10.422l4.188,29.079c0,0-0.638,4.976-6.601,2.847c-5.96-2.131-8.312-17.577-10.015-22.899
						c-1.704-5.324-2.133-4.186-2.133-4.186s-7.866-2.297-12.337-3.787s-4.471-1.49-4.471-1.49s-5.108,2.342-8.089,4.897
						c-2.981,2.554-1.489,8.729,2.766,10.43c4.259,1.706,20.44,8.521,24.696,11.713c4.258,3.191,3.409,11.493,2.982,12.347
						c-0.427,0.852-0.427,0.852-0.427,0.852s-19.8-5.747-25.547-7.876c-5.75-2.131-10.009-4.687-17.245-6.602
						c-7.239-1.915-12.988-1.278-18.948-4.896c-5.963-3.619-60.253,24.909-60.253,24.909"/>
					<path fill="#F67A82" d="M279.081,305.896l-3.062,1.042c0,0,2.611,6.312,6.437,5.538L279.081,305.896z"/>
					<path fill="#F67A82" d="M254.138,343.945c0,0,0.625-2.839-3.711-4.431c-4.337-1.589-7.372-2.021-7.372-2.021l-1.126,2.833
						L254.138,343.945z"/>
					<polygon fill="#271F45" points="168.357,335.697 149.683,301.44 38.956,343.945 64.839,399.322 					"/>
					<path fill="#F67A82" d="M284.732,295.402l-6.197-2.863l-0.797,1.974C277.738,294.513,282.503,297.538,284.732,295.402z"/>
				</g>
				<g>
					<defs>
						<path id="SVGID_5_" d="M268.812,333.37c0.057,0.225,0.102,0.451,0.129,0.688c0.386,3.345-2.861,6.351-5.888,6.978
							c-1.824,0.377-3.946-0.299-5.718-0.739c-2.507-0.619-2.654-2.362-3.01-4.645c-0.328-2.132-1.48-3.707-1.478-5.943
							c0-1.409,0-2.818,0-4.228c4.964,0,9.929,0.004,14.893,0c0,1.615-0.146,3.3,0.135,4.895
							C268.057,331.404,268.556,332.361,268.812,333.37z"/>
					</defs>
					<clipPath id="SVGID_6_">
						<use xlink:href="#SVGID_5_"  overflow="visible"/>
					</clipPath>
					<g clip-path="url(#SVGID_6_)">
						<g>
							<path fill="#FFFFFF" d="M246.078,352.664c-3.21-5.178-1.61-12.005,3.567-15.214c5.178-3.211,12.002-1.611,15.215,3.567
								c2.055,3.313,2.128,7.293,0.566,10.575c0.423-0.032,0.865,0.061,1.264,0.134c0.226,0.04,0.476,0.086,0.718,0.153h0.002
								c0.038,0.012,0.077,0.021,0.121,0.03c0.024,0.01,0.044,0.022,0.067,0.032c0.006,0.002,0.01,0.002,0.016,0.002
								c1.59-3.8,1.396-8.29-0.937-12.051c-3.833-6.184-11.979-8.095-18.163-4.261c-6.178,3.832-8.087,11.979-4.255,18.158
								c3.832,6.181,11.979,8.09,18.161,4.26c0.729-0.453,1.392-0.975,1.995-1.537l-3.662,0.019
								C255.648,359.32,249.18,357.667,246.078,352.664z"/>
							<path fill="#FFFFFF" d="M261.48,356.534c-5.346,3.316-12.393,1.662-15.704-3.682c-3.314-5.345-1.666-12.39,3.681-15.705
								c5.346-3.314,12.391-1.662,15.705,3.684c2.088,3.365,2.194,7.401,0.661,10.764c0.293,0.021,0.592,0.083,0.867,0.132
								c0.188,0.032,0.384,0.07,0.58,0.119c1.563-3.709,1.383-8.093-0.896-11.767c-3.731-6.016-11.655-7.872-17.668-4.144
								c-6.014,3.728-7.874,11.653-4.145,17.669c3.729,6.014,11.654,7.872,17.668,4.144c0.594-0.37,1.138-0.785,1.646-1.233
								l-2.382,0.01C261.488,356.528,261.484,356.532,261.48,356.534z"/>
						</g>
						<g>
							<path fill="#FFFFFF" d="M247.952,354.135c-4.255-4.357-4.171-11.372,0.188-15.627c4.36-4.256,11.372-4.171,15.626,0.188
								c3.436,3.521,4.038,8.766,1.85,12.895c0.366,0.008,0.732,0.076,1.074,0.136c0.226,0.04,0.476,0.086,0.718,0.153h0.002
								c0.038,0.012,0.077,0.021,0.121,0.03c0.024,0.01,0.044,0.022,0.067,0.032c0.062,0.019,0.122,0.043,0.182,0.068
								c0.002,0,0.004,0,0.01,0c2.257-4.83,1.45-10.771-2.491-14.807c-5.081-5.203-13.447-5.308-18.65-0.225
								c-5.205,5.079-5.307,13.446-0.227,18.649c4.846,4.966,12.674,5.273,17.905,0.885l-4.062,0.019
								C256.178,358.308,251.244,357.507,247.952,354.135z"/>
							<path fill="#FFFFFF" d="M247.697,354.383c-4.392-4.499-4.308-11.737,0.196-16.128c4.498-4.397,11.735-4.307,16.132,0.194
								c3.506,3.592,4.147,8.928,1.977,13.166c0.237,0.03,0.468,0.072,0.688,0.111c0.226,0.04,0.476,0.086,0.718,0.153h0.002
								c0.014,0.004,0.024,0.006,0.038,0.012c2.219-4.711,1.437-10.502-2.404-14.439c-4.942-5.064-13.083-5.16-18.146-0.22
								c-5.064,4.945-5.164,13.084-0.221,18.149c4.613,4.726,12.013,5.12,17.093,1.133l-2.667,0.012
								C256.762,358.775,251.284,358.059,247.697,354.383z"/>
						</g>
						<g>
							<path fill="#FFFFFF" d="M256.151,356.953c-6.092,0.028-11.069-4.907-11.101-11.002c-0.027-6.091,4.909-11.072,11.001-11.101
								c6.097-0.026,11.075,4.907,11.1,11.003c0.012,2.1-0.582,4.061-1.596,5.737c0.381-0.004,0.776,0.072,1.135,0.136
								c0.226,0.04,0.476,0.086,0.718,0.153h0.002c0.038,0.012,0.077,0.021,0.121,0.03c0.024,0.01,0.044,0.022,0.067,0.032
								c0.062,0.019,0.122,0.043,0.182,0.068h0.002c0.971-1.844,1.521-3.942,1.508-6.167c-0.032-7.273-5.977-13.163-13.248-13.129
								c-7.272,0.032-13.163,5.976-13.131,13.248c0.035,7.271,5.979,13.16,13.251,13.129c2.896-0.012,5.556-0.977,7.721-2.577
								l-4.797,0.021C258.151,356.804,257.169,356.947,256.151,356.953z"/>
							<path fill="#FFFFFF" d="M256.155,357.309c-6.29,0.03-11.43-5.064-11.459-11.354c-0.029-6.288,5.065-11.431,11.355-11.457
								c6.288-0.028,11.431,5.063,11.458,11.355c0.009,2.096-0.567,4.061-1.551,5.756c0.25,0.029,0.497,0.076,0.731,0.117
								c0.226,0.04,0.476,0.086,0.718,0.153h0.002c0.012,0.004,0.024,0.008,0.038,0.012c0.957-1.806,1.496-3.864,1.488-6.046
								c-0.033-7.077-5.817-12.808-12.893-12.775c-7.075,0.031-12.805,5.815-12.774,12.891c0.033,7.077,5.816,12.808,12.891,12.775
								c2.635-0.012,5.068-0.841,7.1-2.22l-3.034,0.016C258.962,357.027,257.59,357.301,256.155,357.309z"/>
						</g>
					</g>
				</g>
			</g>
		</g>
		<g clip-path="url(#SVGID_2_)">
			<path fill="#271F45" d="M361.174,292.05c-1.358-0.344-2.837,0.075-4.151,0.442c-0.805,0.223-1.439,0.702-2.117,1.176
				c-1.33,0.934-1.9,2.401-2.121,3.959c-0.147,1.035-0.24,2.082-0.323,3.122c-0.182,2.319-0.293,4.656-0.523,6.97
				c-0.105,1.065-0.589,2.214-1.864,1.979c-1.828-0.336-1.337-3.519-1.299-4.786c0.061-1.988,0.034-3.978-0.016-5.967
				c-0.026-0.999-0.069-1.996-0.13-2.993c-0.047-0.767-0.028-1.585-0.206-2.337c-0.182-0.763-1.013-1.699-1.856-1.535
				c-1.017,0.196-1.32,1.254-1.484,2.133c-0.293,1.574-0.23,3.145-0.329,4.73c-0.059,0.948-0.194,2.352-1.326,2.626
				c-1.434,0.348-1.466-2.513-1.501-3.277c-0.146-3.017-0.191-5.976-0.677-8.966c-0.14-0.855-0.296-1.709-0.464-2.562
				c-0.59-2.961-1.353-6.008-3.532-8.232c-0.483-0.495-1.045-0.938-1.636-1.302"/>
		</g>
		<g clip-path="url(#SVGID_2_)">
			<defs>
				<path id="SVGID_7_" d="M278.72,392.957c10.275-3.021,4.891-17.392-1.632-21.585c-7.484-4.811-21.731-1.043-17.916,9.897
					C261.838,388.909,270.553,395.357,278.72,392.957z"/>
			</defs>
			<clipPath id="SVGID_8_">
				<use xlink:href="#SVGID_7_"  overflow="visible"/>
			</clipPath>
			<g clip-path="url(#SVGID_8_)">
				<path fill="#F4A671" d="M252.842,408.471c0,0,28.128,6.539,35.891,9.65c7.763,3.108,5.502-8.304,5.502-8.304
					s-27.24-5.286-32.747-5.911C257.943,403.506,254.331,403.577,252.842,408.471z"/>
				<path fill="#F4A671" d="M241.345,428.777c0,0,13.963,1.537,14.42,1.535c0.458-0.002,27.539-12.524,27.539-12.524
					s-24.932,2.172-31.425,2.841C245.384,421.298,239.621,422.331,241.345,428.777z"/>
				<path fill="#F4A671" d="M246.743,417.193c20.796,5.813,21.669,7.912,22.974,8.184c0.353,0.074,16.316-9.591,16.316-9.591
					s-24.117-3.389-29.24-3.957C251.673,411.261,246.486,411.937,246.743,417.193z"/>
				<path fill="#FFB37B" d="M264.389,374.987c0,0-4.374,5.658,0.349,9.604c4.724,3.949,15.161,7.458,19.781,11.134
					c4.622,3.676,4.491,4.962,4.491,4.962s-0.649,13.533-12.729,18.835c-12.08,5.296-30.915,12.354-33.218,13.216
					c-2.306,0.864-5.642,3.509-4.882,9.249c0,0,13.551-2.603,24.206-5.516c10.655-2.908,24.005-4.821,37.282-9.795
					c13.282-4.977,30.575-10.377,38.467-9.935c7.896,0.443-0.601-27.592-0.601-27.592s-14.803,4.622-17.786,4.503
					c-2.98-0.12-4.486-3.726-13.482-5.458c-8.99-1.73-14.138-2.274-24.029-5.987C272.346,378.496,264.389,374.987,264.389,374.987z"
					/>
				<path fill="#F9D9C2" d="M265.293,375.382c0.204,0.091,0.697,3.583,6.271,4.35l0.566-1.484L265.293,375.382z"/>
				<path fill="#F9D9C2" d="M239.852,441.656c0,0,0.734-1.717,3.643-2.382c2.903-0.661,3.443-0.821,3.443-0.821l0.93,1.524
					L239.852,441.656z"/>
			</g>
		</g>
		<g clip-path="url(#SVGID_2_)">
			<path fill="#623ED8" d="M357.605,409.21c0,0,0.902-0.304,2.482-0.834c1.584-0.511,3.822-1.32,6.51-2.26
				c2.683-0.954,5.805-2.08,9.12-3.354c1.661-0.628,3.36-1.319,5.089-2.013c1.729-0.691,3.468-1.436,5.197-2.196
				c6.931-3.014,13.622-6.546,18.24-9.811c0.586-0.396,1.13-0.8,1.639-1.193c0.515-0.388,1.017-0.742,1.449-1.12
				c0.441-0.37,0.854-0.716,1.237-1.036c0.362-0.341,0.696-0.654,0.998-0.938c0.617-0.556,1.038-1.054,1.357-1.367
				c0.31-0.323,0.475-0.495,0.475-0.495s-0.139,0.193-0.397,0.558c-0.275,0.35-0.606,0.932-1.173,1.548
				c-0.273,0.318-0.575,0.672-0.904,1.056c-0.351,0.364-0.729,0.759-1.135,1.181c-0.823,0.829-1.78,1.749-2.908,2.646
				c-1.104,0.928-2.352,1.871-3.719,2.796c-1.354,0.943-2.822,1.883-4.383,2.776c-1.554,0.906-3.181,1.805-4.871,2.643
				c-1.688,0.843-3.423,1.653-5.169,2.436c-1.761,0.752-3.527,1.484-5.282,2.163c-1.749,0.693-3.501,1.295-5.192,1.882
				c-3.388,1.161-6.593,2.108-9.358,2.841c-2.763,0.748-5.098,1.242-6.726,1.602C358.549,409.062,357.605,409.21,357.605,409.21z"/>
		</g>
		<path clip-path="url(#SVGID_2_)" fill="none" stroke="#623ED8" stroke-width="0.9163" stroke-miterlimit="10" d="M454.598,178.477
			"/>
		<path clip-path="url(#SVGID_2_)" fill="none" stroke="#623ED8" stroke-width="0.9163" stroke-miterlimit="10" d="M454.598,187.337
			"/>
		<path clip-path="url(#SVGID_2_)" fill="#795FF9" d="M427.575,193.858l-35.127-34.379l-19.47-27.362
			c48.462,9.738,81.619,55.22,81.619,55.22"/>
		<path clip-path="url(#SVGID_2_)" fill="#795FF9" d="M179.654,195.937c0,0,13.718-33.903,79.031-58.269l-14.904,21.409
			l-16.025,34.781"/>
	</g>
	<g>
		<path fill="#FFB37B" d="M338.406,97.071l-3.786-14.64l4.187-19.314l-11.472-34.865l-88.308,3.524c0,0-3.378,32.12-1.928,40.782
			c-0.149-0.878-15.777,17.581-11.924,15.911l13.111-1.139c0,0-4.415,22.408,9.664,25.844c14.082,3.439,25.438-12.889,29.213,3.804"
			/>
		<path fill="#271F45" d="M317.732,7.914c-18.778-5.649-41.145-4.139-57.563,4.885c-25.336,13.959-36.544,24.416-36.544,24.416
			l10.642,3.826l-12.144,10.703c0,0,41.009,7.677,77.826-17.516c0,0-8.932,21.618-3.58,33.014c1.021,2.19,3.675,7.17,6.782,6.195
			c5.559-1.719,2.669-10.969,5.243-14.198c2.869-3.573,12.456-3.343,15.863-1.075c2.96,1.955,3.674,5.801,1.415,8.921
			c-1.296,1.798-3.902,2.622-4.856,4.529c-1.39,2.825,1.231,10.385,4.242,11.285c5.192,1.566,14.489,1.081,17.741-14.311
			c3.253-15.392,1.632-45.85-6.539-51.747C330.85,12.938,324.534,9.954,317.732,7.914z"/>
	</g>
	<g>
		<path fill="#795FF9" d="M405.06,252.735c0,0-22.363-64.146-2.157-84.79c20.208-20.646,67.437,16.687,81.961,89.833
			c9.874,49.732,64.369,150.132-134.101,166.923c0,0-2.795-16.53-15.146-33.361l105.045-45.346L405.06,252.735z"/>
		<g>
			<path fill="#623ED8" d="M347.984,385.568c0,0,3.095-1.81,7.879-4.188c1.194-0.599,2.488-1.247,3.872-1.896
				c1.381-0.657,2.831-1.364,4.353-2.044c1.521-0.683,3.076-1.425,4.686-2.112c1.605-0.697,3.236-1.404,4.867-2.112
				c1.643-0.679,3.286-1.357,4.903-2.025c1.611-0.682,3.229-1.278,4.777-1.896c3.106-1.211,6.028-2.288,8.554-3.164
				c5.038-1.778,8.492-2.738,8.492-2.738s-3.094,1.812-7.877,4.192c-2.387,1.203-5.193,2.552-8.226,3.939
				c-1.521,0.682-3.075,1.428-4.687,2.11c-1.605,0.696-3.236,1.404-4.867,2.111c-1.643,0.679-3.286,1.356-4.903,2.024
				c-1.614,0.677-3.229,1.277-4.778,1.895c-1.548,0.619-3.064,1.169-4.497,1.703c-1.43,0.541-2.796,1.02-4.057,1.46
				C351.438,384.605,347.984,385.568,347.984,385.568z"/>
		</g>
		<g>
			<path fill="#623ED8" d="M350.164,423.583c0,0,3.2-0.819,8.039-1.687c1.21-0.221,2.52-0.46,3.909-0.674
				c1.39-0.223,2.853-0.472,4.372-0.674c1.519-0.205,3.084-0.457,4.683-0.642c1.598-0.193,3.22-0.391,4.843-0.588
				c1.626-0.165,3.252-0.331,4.853-0.494c1.6-0.178,3.182-0.272,4.708-0.407c3.056-0.244,5.914-0.414,8.369-0.509
				c4.907-0.219,8.205-0.121,8.205-0.121s-3.2,0.822-8.039,1.69c-2.418,0.448-5.245,0.912-8.28,1.347
				c-1.52,0.204-3.085,0.461-4.684,0.64c-1.598,0.193-3.22,0.39-4.843,0.587c-1.626,0.165-3.252,0.33-4.853,0.492
				c-1.6,0.173-3.182,0.271-4.708,0.406c-1.526,0.137-3.008,0.216-4.411,0.306c-1.401,0.097-2.731,0.152-3.959,0.203
				C353.461,423.678,350.164,423.583,350.164,423.583z"/>
		</g>
		<path fill="#623ED8" d="M327.269,388.677c0,0,11.204,21.286,4.193,33.575l18.765,0.443c0,0,1.397-26.465-5.29-37.588
			L327.269,388.677z"/>
		<path fill="#795FF9" d="M440.662,405.543c0,0,41.502-30.883,53.408-49.463c11.907-18.577,0-100.633-24.079-140.678"/>
	</g>
</g>
</svg>
