<?xml version="1.0" encoding="utf-8"?>
<!-- Generator: Adobe Illustrator 16.0.0, SVG Export Plug-In . SVG Version: 6.00 Build 0)  -->
<!DOCTYPE svg PUBLIC "-//W3C//DTD SVG 1.1//EN" "http://www.w3.org/Graphics/SVG/1.1/DTD/svg11.dtd">
<svg version="1.1" id="Layer_1" xmlns="http://www.w3.org/2000/svg" xmlns:xlink="http://www.w3.org/1999/xlink" x="0px" y="0px"
	 width="181px" height="179px" viewBox="0 0 530 530" enable-background="new 0 0 530 530" xml:space="preserve">
<g>
	<g>
		<defs>
			<circle id="SVGID_1_" cx="265" cy="264.787" r="228.353"/>
		</defs>
		<clipPath id="SVGID_2_">
			<use xlink:href="#SVGID_1_"  overflow="visible"/>
		</clipPath>
		<circle clip-path="url(#SVGID_2_)" fill="#DDDDDD" cx="265" cy="264.787" r="228.353"/>
		<path clip-path="url(#SVGID_2_)" fill="#9999D9" d="M724.974,432.421c0,45.848-11.814,83.016-26.389,83.016H21.788
			c-14.574,0-26.387-37.168-26.387-83.016l0,0c0-45.852,11.812-83.018,26.387-83.018h676.797
			C713.159,349.403,724.974,386.569,724.974,432.421L724.974,432.421z"/>
		<g clip-path="url(#SVGID_2_)">
			<g>
				<g>
					<g>
						<path fill="#271F45" d="M282.7,322.63c0,26.982,21.877,48.857,48.861,48.857c26.986,0,48.859-21.875,48.859-48.857
							c0-26.989-21.873-48.868-48.859-48.868C304.577,273.762,282.7,295.641,282.7,322.63z"/>
						<path fill="#271F45" d="M677.079,322.63c0,26.982,21.877,48.857,48.861,48.857s48.861-21.875,48.861-48.857
							c0-26.989-21.877-48.868-48.861-48.868S677.079,295.641,677.079,322.63z"/>
						<path fill="#271F45" d="M785.655,330.298c0,0-153.568,3.102-155.893,3.102c-2.326,0-361.438,3.104-361.438,3.104
							s-44.982-62.825,34.131-72.134c79.111-9.304,108.586-3.877,161.328-3.877c52.738,0,252.846-0.774,265.258-0.774
							c12.406,0,37.227-6.206,44.211,6.204C780.231,278.33,785.655,330.298,785.655,330.298z"/>
						<g>
							<defs>
								<path id="SVGID_3_" d="M666.22,338.14H390.509c0,0-2.334-69.802-62.824-69.802c-36.064,2.328-54.68,34.899-50.027,74.456
									c-40.721-3.49-48.857-9.309-50.025-16.287c-6.979-8.145-10.467-37.23-5.818-45.374c4.662-8.141,9.314-31.406,50.029-44.207
									c40.717-12.799,112.846-26.758,112.846-26.758l104.703-55.839c0,0,40.717-11.635,95.396-12.796
									c54.678-1.166,108.191,2.323,108.191,2.323s60.494,15.124,97.725,51.189c30.248,0,54.26-6.157,52.346,15.832
									c-2.209,25.409,8.148,50.479,8.148,50.479s16.282,19.775,5.816,29.08c-10.475,9.312-11.637,12.8-10.475,18.616
									c1.164,5.82-9.305,20.941-41.877,23.273c-32.578,2.322-24.432,3.484-24.432,3.484s5.812-66.311-66.309-65.146
									C661.567,271.824,666.22,338.14,666.22,338.14z"/>
							</defs>
							<use xlink:href="#SVGID_3_"  overflow="visible" fill="#623ED8"/>
							<clipPath id="SVGID_4_">
								<use xlink:href="#SVGID_3_"  overflow="visible"/>
							</clipPath>
							<path clip-path="url(#SVGID_4_)" fill="#623ED8" d="M794.71,191.201c0,0,5.684,23.785-122.031,32.062
								c-127.719,8.271-261.637,3.617-261.637,3.617s-28.957-4.138-31.543-16.547c-2.586-12.407,90.486-71.354,146.334-77.039
								c55.84-5.691,119.961,6.719,121.512,6.719c1.549,0,53.773-1.033,57.393-1.033c3.617,0,77.561,12.41,84.285,24.301
								C795.743,175.176,794.71,191.201,794.71,191.201z"/>
							<g clip-path="url(#SVGID_4_)">
								<defs>
									<path id="SVGID_5_" d="M666.22,338.14H390.509c0,0-2.334-69.802-62.824-69.802c-36.064,2.328-54.68,34.899-50.027,74.456
										c-40.721-3.49-48.857-9.309-50.025-16.287c-6.979-8.145-10.467-37.23-5.818-45.374c4.662-8.141,9.314-31.406,50.029-44.207
										c40.717-12.799,112.846-26.758,112.846-26.758l104.703-55.839c0,0,40.717-11.635,95.396-12.796
										c54.678-1.166,108.191,2.323,108.191,2.323s60.494,15.124,97.725,51.189c30.248,0,54.744-7.976,52.346,13.966
										c-2.209,20.248,8.148,52.346,8.148,52.346s16.282,19.775,5.816,29.08c-10.475,9.312-11.637,12.8-10.475,18.616
										c1.164,5.82-9.305,20.941-41.877,23.273c-32.578,2.322-24.432,3.484-24.432,3.484s5.812-66.311-66.309-65.146
										C661.567,271.824,666.22,338.14,666.22,338.14z"/>
								</defs>
								<clipPath id="SVGID_6_">
									<use xlink:href="#SVGID_5_"  overflow="visible"/>
								</clipPath>
							</g>
						</g>
						<path fill="#C5C6C7" d="M300.149,322.63c0,17.344,14.064,31.406,31.412,31.406s31.41-14.062,31.41-31.406
							c0-17.348-14.062-31.416-31.41-31.416S300.149,305.282,300.149,322.63z"/>
						<path fill="#C5C6C7" d="M694.524,322.63c0,17.344,14.07,31.406,31.416,31.406c17.348,0,31.41-14.062,31.41-31.406
							c0-17.348-14.062-31.416-31.41-31.416C708.595,291.214,694.524,305.282,694.524,322.63z"/>
						<polygon fill="#2A1F48" points="597.187,152.423 582.706,219.126 694.392,214.472 670.61,155.006 						"/>
						<path fill="#2A1F48" d="M574.435,154.493l-51.189,3.62c0,0-33.094,5.687-58.949,25.853
							c-25.85,20.163-39.289,34.642-39.289,34.642l134.434,1.034L574.435,154.493z"/>
						<path fill="#2A1F48" d="M708.354,212.404l-24.816-55.843c0,0,39.816,6.204,59.979,26.368
							C763.681,203.097,752.825,211.368,708.354,212.404z"/>
						<path fill="#FFFFFF" d="M840.214,218.607c0,0-9.83,0-12.416,6.721c-2.582,6.724-9.824,30.512,1.553,30.512
							s21.201,1.552,19.648-13.443C847.45,227.399,840.214,218.607,840.214,218.607z"/>
						<path fill="#FFFFFF" d="M234.196,255.84l19.65,1.031c0,0,6.725,4.141,3.102,8.793c-3.615,4.653-9.82,12.41-22.752,12.41
							C221.267,278.074,218.687,268.767,234.196,255.84z"/>
						<path fill="#2A1F48" d="M790.704,195.046c0,0-16.221-14.823-56.035-30.853c-39.818-16.029-23.135-15.421-23.135-15.421
							s27.9,9.18,48.584,21.592C780.8,182.771,798.56,195.273,790.704,195.046z"/>
						<path fill="#2A1F48" d="M489.392,154.329l3.346,3.264c0,0-65.148,38.783-71.873,43.438
							c-6.721,4.649-22.232,17.061-22.232,17.061l-13.943-7.924C384.688,210.168,453.985,167.092,489.392,154.329z"/>
					</g>
				</g>
				<polygon fill="#FFFFFF" points="670.167,154.921 657.983,154.407 585.591,219.039 599.196,218.358 				"/>
				<polygon fill="#FFFFFF" points="573.991,154.407 560.772,155.282 489.417,219.039 501.608,219.113 				"/>
				<polygon fill="#FFFFFF" points="675.706,168.775 621.388,217.411 633.54,216.901 678.798,176.5 				"/>
			</g>
		</g>
		<g clip-path="url(#SVGID_2_)">
			<path fill="#F4A671" d="M215.044,96.104c1.832,6.209,8.777,10.141,15.518,8.773l19.639-3.982
				c6.732-1.37,10.711-7.514,8.877-13.731l0,0c-1.832-6.211-8.779-10.141-15.518-8.773l-19.637,3.984
				C217.187,83.743,213.21,89.886,215.044,96.104L215.044,96.104z"/>
			<g>
				<g>
					<g>
						<path fill="#F4A671" d="M191.708,128.163c1.781,7.218,9.08,11.625,16.301,9.842l21.047-5.195
							c7.217-1.788,11.625-9.087,9.84-16.311l0,0c-1.783-7.217-9.082-11.623-16.303-9.842l-21.045,5.201
							C194.329,113.643,189.921,120.94,191.708,128.163L191.708,128.163z"/>
						<g>
							<path fill="#623ED8" d="M133.599,42.898v176.146c0,9.297,7.137,16.856,15.945,16.856h75.082
								c8.807,0,15.945-7.56,15.945-16.856V42.898c0-9.322-7.139-16.882-15.945-16.882h-75.082
								C140.735,26.017,133.599,33.576,133.599,42.898z M140.933,53.033h92.279v155.853h-92.279V53.033z"/>
							<rect x="140.933" y="53.033" fill="#FFFFFF" width="92.279" height="155.853"/>
							<path fill="#271F45" d="M168.271,39.687c0,1.092,0.887,1.982,1.982,1.982h33.656c1.09,0,1.98-0.891,1.98-1.982l0,0
								c0-1.093-0.891-1.979-1.98-1.979h-33.656C169.157,37.708,168.271,38.594,168.271,39.687L168.271,39.687z"/>
						</g>
						<path fill="#F4A671" d="M127.591,155.038c0.365-1.622,1.256-6.308-0.168-7.643c-1.455-1.364-5.484,0.035-7.078,0.116
							c-3.934,0.196-7.711,0.523-11.648,1.097c-5.105,0.746-10.99,1.198-15.492,3.977c-3.793,2.341-3.555,7.227-5.783,10.818
							c-2.279,3.678-2.408,8.341-2.967,12.589c-0.865,7.354-1.572,16.706-1.572,21.075c0.223,5.172-0.98,10.35-2.033,15.381
							c-0.199,1.081-0.42,2.163-0.689,3.215v0.078c-2.947,12.511-12.051,37.728-19.076,48.177c9.645,5.266,21.504-3.08,31.148,2.186
							c7.906,4.313,15.814,8.634,23.721,12.948c2.344,1.281,9.223,3.539,10.541,5.822c1.779,3.078-1.631,7.84,0.23,11.416
							c3.088,5.934,7.779,0.936,13.117-2.156c9.131-5.291,18.365-10.883,27.336-15.857c14.584-8.089,28.408-19.699,41.805-30.073
							c1.646-1.276,11.24-12.102,12.211-12.102h-71.648c-8.809,0-15.945-7.556-15.945-16.881v-69.682
							C131.171,151.207,129.626,152.999,127.591,155.038z"/>
						<path fill="#F4A671" d="M238.583,128.352c0,0-10.465,26.837-5.076,34.593c5.391,7.756,14.605,3.026,19.355-11.8
							c1.354-4.221,2.623-8.468,3.668-12.751c1.158-4.731,2.182-9.414-3.182-12.278
							C250.259,124.467,243.759,122.676,238.583,128.352z"/>
						<path fill="#F4A671" d="M249.147,155.036c0,0-16.467,20.597-13.441,28.581c3.025,7.988,12.531,6.183,20.412-5.39
							c2.244-3.301,4.418-6.635,6.398-10.06c2.189-3.783,4.244-7.558,0.064-11.333C260.175,154.661,255.212,151.429,249.147,155.036
							z"/>
						<path fill="#F4A671" d="M250.743,177.083c0,0-18.223,16.239-16.355,23.938c1.865,7.7,11.109,7.48,20.045-1.851
							c2.547-2.66,5.029-5.363,7.34-8.176c2.553-3.107,4.979-6.227,1.488-10.277C261.253,178.385,256.952,174.712,250.743,177.083z"
							/>
						<path fill="#F67A82" d="M235.335,150.16l12.662,1.433c0,0-0.717,8.658-5.422,10.548c-4.707,1.887-7.061-1.87-7.992-3.787
							C233.46,156.047,235.335,150.16,235.335,150.16z"/>
						<path fill="#F67A82" d="M241.11,172.788l10.207,6.244c0,0-2.633,5.93-7.213,7.126c-4.582,1.197-6.318-2.56-6.959-4.444
							C236.378,179.447,241.11,172.788,241.11,172.788z"/>
						<path fill="#F67A82" d="M242.241,191.374l7.926,6.554c0,0-3.127,6.022-7.836,6.513c-3.348,0.349-6.688-2.736-5.93-6.343
							C236.962,195.42,240.187,193.028,242.241,191.374z"/>
					</g>
					<path fill="#F4A671" d="M86.005,166.542c0,0,11.42-38.096,15.863-44.626c4.443-6.529,16.172-22.046,18.42-43.068
						c0,0,14.416-6.053,16.229,16.724c1.809,22.777-8.926,59.467-8.926,59.467"/>
				</g>
				<path fill="#F4A671" d="M153.751,285.696l-22.053,54.209L36.003,317.88c0,0,27.299-58.108,37.73-81.979"/>
				<polygon fill="#271F45" points="49.827,272.362 140.933,317.202 85.237,573.231 -71.13,562.22 				"/>
				<path fill="#F67A82" d="M120.017,81.697c0,0,5.652,2.931,3.191,19.35l-7.982-1.562L120.017,81.697z"/>
			</g>
			<path fill="#623ED8" d="M224.673,182.469c0,2.164-1.756,3.92-3.92,3.92h-66.76c-2.164,0-3.922-1.756-3.922-3.92v-7.587
				c0-2.166,1.758-3.922,3.922-3.922h66.76c2.164,0,3.92,1.756,3.92,3.922V182.469z"/>
			<text transform="matrix(1 0 0 1 165.5425 182.4189)" fill="#FFFFFF" font-family="'Roboto-Regular'" font-size="11.0331">PAID</text>
			<g>
				<g>
					<circle fill="#FF6666" cx="213.089" cy="178.674" r="13.049"/>
				</g>
				<g>
					<g>
						
							<rect x="206.139" y="178.575" transform="matrix(0.7073 0.707 -0.707 0.7073 188.6897 -95.4043)" fill="#FFFFFF" width="6.805" height="3.113"/>
					</g>
					<g>
						
							<rect x="213.477" y="173.624" transform="matrix(0.7074 0.7068 -0.7068 0.7074 189.784 -99.4658)" fill="#FFFFFF" width="3.112" height="11.754"/>
					</g>
				</g>
			</g>
			<g>
				<path fill="#623ED8" d="M188.005,129.817c-4.516,0-8.764-1.807-12.014-4.969c-0.271-0.271-0.271-0.723,0-0.995
					c0.27-0.271,0.721-0.271,0.992,0c2.982,2.982,6.867,4.607,11.021,4.607c4.156,0,8.131-1.625,11.023-4.607
					c0.271-0.271,0.723-0.271,0.994,0c0.27,0.272,0.27,0.724,0,0.995C196.858,128.011,192.522,129.817,188.005,129.817z"/>
			</g>
			<g>
				<path fill="#623ED8" d="M198.938,107.953c1.596,0,2.891,1.296,2.891,2.89c0,1.599-1.295,2.895-2.891,2.895
					c-1.6,0-2.893-1.296-2.893-2.895C196.046,109.249,197.339,107.953,198.938,107.953z"/>
			</g>
			<g>
				<path fill="#623ED8" d="M177.163,107.953c1.598,0,2.893,1.296,2.893,2.89c0,1.599-1.295,2.895-2.893,2.895
					c-1.596,0-2.891-1.296-2.891-2.895C174.272,109.249,175.567,107.953,177.163,107.953z"/>
			</g>
			<g>
				<path fill="#623ED8" d="M187.372,146.802c-0.09,0-0.18,0-0.27,0c-8.221-0.091-15.99-3.344-21.863-9.125
					c-5.873-5.873-9.035-13.551-9.125-21.864c-0.092-17.164,13.732-31.349,30.988-31.438c5.873,0,11.654,1.535,16.713,4.697
					c0.363,0.18,0.453,0.634,0.182,0.904c-0.182,0.361-0.633,0.451-0.904,0.18c-4.787-2.98-10.299-4.517-15.99-4.427
					c-16.441,0.181-29.723,13.645-29.633,30.084c0.09,7.86,3.162,15.268,8.764,20.87c5.6,5.602,13.008,8.675,20.869,8.764
					c0.09,0,0.18,0,0.27,0c7.861,0,15.27-3.071,20.961-8.673c5.693-5.603,8.854-13.101,8.945-21.051
					c0-5.69-1.537-11.202-4.518-15.99c-0.182-0.359-0.09-0.722,0.18-0.902c0.363-0.182,0.725-0.09,0.904,0.181
					c3.16,4.968,4.787,10.75,4.787,16.712c0,8.313-3.342,16.172-9.305,22.046C203.364,143.64,195.595,146.802,187.372,146.802z"/>
			</g>
		</g>
		<path clip-path="url(#SVGID_2_)" fill="#FFFFFF" d="M314.892,225.745c-10.805-0.829-11.479-13.391-11.479-13.391
			s-2.586,12.314-13.391,11.481l-0.012,0.193c10.801,0.826,11.479,13.388,11.479,13.388s2.582-12.311,13.389-11.481"/>
		<path clip-path="url(#SVGID_2_)" fill="#FFFFFF" d="M383.066,192.185c-14.858-1.328-15.568-18.627-15.568-18.627
			s-3.773,16.897-18.629,15.569l-0.021,0.261c14.853,1.33,15.567,18.629,15.567,18.629s3.769-16.897,18.627-15.572"/>
	</g>
	<g>
		<defs>
			<path id="SVGID_7_" d="M190.302,19.172c-7.886,0.304-15.771,0.63-23.643,1.193c-9.146,0.654-27.623-0.373-34.923,5.378
				c-13.467,10.608-8.435,40.928-15.066,55.57c-2.781,6.14-9.967,10.287-10.762,16.289c-0.883,6.66,4.776,13.198,11.098,13.943
				c15.528,1.832,23.888-20.367,33.236-28.551c13.344-11.682,37.121-5.114,53.588-7.994c12.07-2.111,36.253-6.675,42.583-18.987
				c3.608-7.019,2.178-28.802-4.433-33.583c-7.827-5.661-25.111-4.426-34.319-3.976C201.877,18.738,196.09,18.949,190.302,19.172z"
				/>
		</defs>
		<clipPath id="SVGID_8_">
			<use xlink:href="#SVGID_7_"  overflow="visible"/>
		</clipPath>
		<g clip-path="url(#SVGID_8_)">
			<path fill="#F4A671" d="M215.044,96.104c1.832,6.209,8.777,10.141,15.518,8.773l19.639-3.982
				c6.732-1.37,10.711-7.514,8.877-13.731l0,0c-1.832-6.211-8.779-10.141-15.518-8.773l-19.637,3.984
				C217.187,83.743,213.21,89.886,215.044,96.104L215.044,96.104z"/>
			<g>
				<g>
					<g>
						<path fill="#F4A671" d="M191.708,128.163c1.781,7.218,9.08,11.625,16.301,9.842l21.047-5.195
							c7.217-1.788,11.625-9.087,9.84-16.311l0,0c-1.783-7.217-9.082-11.623-16.303-9.842l-21.045,5.201
							C194.329,113.643,189.921,120.94,191.708,128.163L191.708,128.163z"/>
						<g>
							<path fill="#623ED8" d="M133.599,42.898v176.146c0,9.297,7.137,16.856,15.945,16.856h75.082
								c8.807,0,15.945-7.56,15.945-16.856V42.898c0-9.322-7.139-16.882-15.945-16.882h-75.082
								C140.735,26.017,133.599,33.576,133.599,42.898z M140.933,53.033h92.279v155.853h-92.279V53.033z"/>
							<rect x="140.933" y="53.033" fill="#FFFFFF" width="92.279" height="155.853"/>
							<path fill="#271F45" d="M168.271,39.687c0,1.092,0.887,1.982,1.982,1.982h33.656c1.09,0,1.98-0.891,1.98-1.982l0,0
								c0-1.093-0.891-1.979-1.98-1.979h-33.656C169.157,37.708,168.271,38.594,168.271,39.687L168.271,39.687z"/>
						</g>
						<path fill="#F4A671" d="M127.591,155.038c0.365-1.622,1.256-6.308-0.168-7.643c-1.455-1.364-5.484,0.035-7.078,0.116
							c-3.934,0.196-7.711,0.523-11.648,1.097c-5.105,0.746-10.99,1.198-15.492,3.977c-3.793,2.341-3.555,7.227-5.783,10.818
							c-2.279,3.678-2.408,8.341-2.967,12.589c-0.865,7.354-1.572,16.706-1.572,21.075c0.223,5.172-0.98,10.35-2.033,15.381
							c-0.199,1.081-0.42,2.163-0.689,3.215v0.078c-2.947,12.511-12.051,37.728-19.076,48.177c9.645,5.266,21.504-3.08,31.148,2.186
							c7.906,4.313,15.814,8.634,23.721,12.948c2.344,1.281,9.223,3.539,10.541,5.822c1.779,3.078-1.631,7.84,0.23,11.416
							c3.088,5.934,7.779,0.936,13.117-2.156c9.131-5.291,18.365-10.883,27.336-15.857c14.584-8.089,28.408-19.699,41.805-30.073
							c1.646-1.276,11.24-12.102,12.211-12.102h-71.648c-8.809,0-15.945-7.556-15.945-16.881v-69.682
							C131.171,151.207,129.626,152.999,127.591,155.038z"/>
						<path fill="#F4A671" d="M238.583,128.352c0,0-10.465,26.837-5.076,34.593c5.391,7.756,14.605,3.026,19.355-11.8
							c1.354-4.221,2.623-8.468,3.668-12.751c1.158-4.731,2.182-9.414-3.182-12.278
							C250.259,124.467,243.759,122.676,238.583,128.352z"/>
						<path fill="#F4A671" d="M249.147,155.036c0,0-16.467,20.597-13.441,28.581c3.025,7.988,12.531,6.183,20.412-5.39
							c2.244-3.301,4.418-6.635,6.398-10.06c2.189-3.783,4.244-7.558,0.064-11.333C260.175,154.661,255.212,151.429,249.147,155.036
							z"/>
						<path fill="#F4A671" d="M250.743,177.083c0,0-18.223,16.239-16.355,23.938c1.865,7.7,11.109,7.48,20.045-1.851
							c2.547-2.66,5.029-5.363,7.34-8.176c2.553-3.107,4.979-6.227,1.488-10.277C261.253,178.385,256.952,174.712,250.743,177.083z"
							/>
						<path fill="#F67A82" d="M235.335,150.16l12.662,1.433c0,0-0.717,8.658-5.422,10.548c-4.707,1.887-7.061-1.87-7.992-3.787
							C233.46,156.047,235.335,150.16,235.335,150.16z"/>
						<path fill="#F67A82" d="M241.11,172.788l10.207,6.244c0,0-2.633,5.93-7.213,7.126c-4.582,1.197-6.318-2.56-6.959-4.444
							C236.378,179.447,241.11,172.788,241.11,172.788z"/>
						<path fill="#F67A82" d="M242.241,191.374l7.926,6.554c0,0-3.127,6.022-7.836,6.513c-3.348,0.349-6.688-2.736-5.93-6.343
							C236.962,195.42,240.187,193.028,242.241,191.374z"/>
					</g>
					<path fill="#F4A671" d="M86.005,166.542c0,0,11.42-38.096,15.863-44.626c4.443-6.529,16.172-22.046,18.42-43.068
						c0,0,14.416-6.053,16.229,16.724c1.809,22.777-8.926,59.467-8.926,59.467"/>
				</g>
				<path fill="#F4A671" d="M153.751,285.696l-22.053,54.209L36.003,317.88c0,0,27.299-58.108,37.73-81.979"/>
				<polygon fill="#271F45" points="49.827,272.362 140.933,317.202 85.237,573.231 -71.13,562.22 				"/>
				<path fill="#F67A82" d="M120.017,81.697c0,0,5.652,2.931,3.191,19.35l-7.982-1.562L120.017,81.697z"/>
			</g>
			<path fill="#623ED8" d="M224.673,182.469c0,2.164-1.756,3.92-3.92,3.92h-66.76c-2.164,0-3.922-1.756-3.922-3.92v-7.587
				c0-2.166,1.758-3.922,3.922-3.922h66.76c2.164,0,3.92,1.756,3.92,3.922V182.469z"/>
			<text transform="matrix(1 0 0 1 165.5425 182.4189)" fill="#FFFFFF" font-family="'Roboto-Regular'" font-size="11.0331">PAID</text>
			<g>
				<g>
					<circle fill="#FF6666" cx="213.089" cy="178.674" r="13.049"/>
				</g>
				<g>
					<g>
						
							<rect x="206.139" y="178.575" transform="matrix(0.7073 0.707 -0.707 0.7073 188.6897 -95.4043)" fill="#FFFFFF" width="6.805" height="3.113"/>
					</g>
					<g>
						
							<rect x="213.477" y="173.624" transform="matrix(0.7074 0.7068 -0.7068 0.7074 189.784 -99.4658)" fill="#FFFFFF" width="3.112" height="11.754"/>
					</g>
				</g>
			</g>
			<g>
				<path fill="#623ED8" d="M188.005,129.817c-4.516,0-8.764-1.807-12.014-4.969c-0.271-0.271-0.271-0.723,0-0.995
					c0.27-0.271,0.721-0.271,0.992,0c2.982,2.982,6.867,4.607,11.021,4.607c4.156,0,8.131-1.625,11.023-4.607
					c0.271-0.271,0.723-0.271,0.994,0c0.27,0.272,0.27,0.724,0,0.995C196.858,128.011,192.522,129.817,188.005,129.817z"/>
			</g>
			<g>
				<path fill="#623ED8" d="M198.938,107.953c1.596,0,2.891,1.296,2.891,2.89c0,1.599-1.295,2.895-2.891,2.895
					c-1.6,0-2.893-1.296-2.893-2.895C196.046,109.249,197.339,107.953,198.938,107.953z"/>
			</g>
			<g>
				<path fill="#623ED8" d="M177.163,107.953c1.598,0,2.893,1.296,2.893,2.89c0,1.599-1.295,2.895-2.893,2.895
					c-1.596,0-2.891-1.296-2.891-2.895C174.272,109.249,175.567,107.953,177.163,107.953z"/>
			</g>
			<g>
				<path fill="#623ED8" d="M187.372,146.802c-0.09,0-0.18,0-0.27,0c-8.221-0.091-15.99-3.344-21.863-9.125
					c-5.873-5.873-9.035-13.551-9.125-21.864c-0.092-17.164,13.732-31.349,30.988-31.438c5.873,0,11.654,1.535,16.713,4.697
					c0.363,0.18,0.453,0.634,0.182,0.904c-0.182,0.361-0.633,0.451-0.904,0.18c-4.787-2.98-10.299-4.517-15.99-4.427
					c-16.441,0.181-29.723,13.645-29.633,30.084c0.09,7.86,3.162,15.268,8.764,20.87c5.6,5.602,13.008,8.675,20.869,8.764
					c0.09,0,0.18,0,0.27,0c7.861,0,15.27-3.071,20.961-8.673c5.693-5.603,8.854-13.101,8.945-21.051
					c0-5.69-1.537-11.202-4.518-15.99c-0.182-0.359-0.09-0.722,0.18-0.902c0.363-0.182,0.725-0.09,0.904,0.181
					c3.16,4.968,4.787,10.75,4.787,16.712c0,8.313-3.342,16.172-9.305,22.046C203.364,143.64,195.595,146.802,187.372,146.802z"/>
			</g>
		</g>
	</g>
</g>
</svg>
