<?xml version="1.0" encoding="utf-8"?>
<!-- Generator: Adobe Illustrator 16.0.0, SVG Export Plug-In . SVG Version: 6.00 Build 0)  -->
<!DOCTYPE svg PUBLIC "-//W3C//DTD SVG 1.1//EN" "http://www.w3.org/Graphics/SVG/1.1/DTD/svg11.dtd">
<svg version="1.1" id="Layer_1" xmlns="http://www.w3.org/2000/svg" xmlns:xlink="http://www.w3.org/1999/xlink" x="0px" y="0px"
	 width="181px" height="179px" viewBox="0 0 530 530" enable-background="new 0 0 530 530" xml:space="preserve">
<g>
	<circle fill="#DDDDDD" cx="265" cy="264.999" r="228.354"/>
	<g>
		<g>
			<g>
				<path fill="#623ED8" d="M58.848,438.035h412.359c21.768,0,39.463-16.709,39.463-37.328V224.941
					c0-20.617-17.695-37.328-39.463-37.328H58.848c-21.822,0-39.518,16.711-39.518,37.328v175.766
					C19.33,421.326,37.025,438.035,58.848,438.035z M82.572,420.865V204.84h364.852v216.025H82.572z"/>
				<path fill="#271F45" d="M51.332,356.871c2.553,0,4.641-2.078,4.641-4.641v-78.791c0-2.553-2.088-4.637-4.641-4.637l0,0
					c-2.557,0-4.634,2.084-4.634,4.637v78.791C46.698,354.793,48.775,356.871,51.332,356.871L51.332,356.871z"/>
			</g>
			<g>
				<defs>
					<rect id="SVGID_1_" x="82.574" y="204.812" width="364.852" height="216.023"/>
				</defs>
				<clipPath id="SVGID_2_">
					<use xlink:href="#SVGID_1_"  overflow="visible"/>
				</clipPath>
				<g clip-path="url(#SVGID_2_)">
					<g>
						
							<line fill="none" stroke="#623ED8" stroke-width="2.9114" stroke-linecap="round" stroke-linejoin="round" x1="317.428" y1="308.004" x2="318.359" y2="307.731"/>
						
							<line fill="none" stroke="#623ED8" stroke-width="2.9114" stroke-linecap="round" stroke-linejoin="round" stroke-dasharray="2.0798,6.2395" x1="324.348" y1="305.979" x2="353.291" y2="297.508"/>
						
							<line fill="none" stroke="#623ED8" stroke-width="2.9114" stroke-linecap="round" stroke-linejoin="round" x1="356.285" y1="296.632" x2="357.217" y2="296.359"/>
					</g>
				</g>
				<g clip-path="url(#SVGID_2_)">
					<g>
						
							<line fill="none" stroke="#623ED8" stroke-width="2.9114" stroke-linecap="round" stroke-linejoin="round" x1="322.527" y1="317.125" x2="323.394" y2="316.688"/>
						
							<line fill="none" stroke="#623ED8" stroke-width="2.9114" stroke-linecap="round" stroke-linejoin="round" stroke-dasharray="2.0799,6.2396" x1="328.964" y1="313.876" x2="355.886" y2="300.284"/>
						
							<line fill="none" stroke="#623ED8" stroke-width="2.9114" stroke-linecap="round" stroke-linejoin="round" x1="358.671" y1="298.879" x2="359.537" y2="298.441"/>
					</g>
				</g>
				<rect x="22.432" y="392.996" clip-path="url(#SVGID_2_)" fill="#9999D9" width="442.012" height="74.148"/>
				<rect x="47.75" y="392.996" opacity="0.4" clip-path="url(#SVGID_2_)" fill="#7A62ED" width="449.396" height="27.172"/>
				<path clip-path="url(#SVGID_2_)" fill="none" d="M36.457,273.205c0,122.391,99.217,221.611,221.613,221.611
					c122.393,0,221.611-99.221,221.611-221.611c0-122.393-99.219-221.611-221.611-221.611
					C135.674,51.594,36.457,150.812,36.457,273.205z"/>
				<path clip-path="url(#SVGID_2_)" fill="none" stroke="#623ED8" stroke-width="0.9705" stroke-miterlimit="10" d="
					M447.627,134.188"/>
				<path clip-path="url(#SVGID_2_)" fill="none" stroke="#623ED8" stroke-width="0.9705" stroke-miterlimit="10" d="
					M447.627,143.572"/>
				<g clip-path="url(#SVGID_2_)">
					<g>
						<g>
							<g>
								<path fill="#271F45" d="M246.775,351.566c0,33.715-27.334,61.047-61.051,61.047c-33.721,0-61.051-27.332-61.051-61.047
									c0-33.721,27.33-61.059,61.051-61.059C219.441,290.508,246.775,317.846,246.775,351.566z"/>
								<path fill="#271F45" d="M-246.002,351.566c0,33.715-27.334,61.047-61.051,61.047c-33.719,0-61.055-27.332-61.055-61.047
									c0-33.721,27.336-61.059,61.055-61.059C-273.336,290.508-246.002,317.846-246.002,351.566z"/>
								<path fill="#271F45" d="M-381.67,361.146c0,0,191.885,3.879,194.791,3.879s451.617,3.875,451.617,3.875
									s56.203-78.498-42.648-90.129c-98.848-11.625-135.678-4.844-201.58-4.844c-65.896,0-315.931-0.969-331.439-0.969
									c-15.502,0-46.516-7.754-55.242,7.752C-374.891,296.217-381.67,361.146-381.67,361.146z"/>
								<g>
									<defs>
										<path id="SVGID_3_" d="M-232.434,370.945H112.07c0,0,2.914-87.215,78.498-87.215c45.062,2.91,68.322,43.607,62.508,93.033
											c50.879-4.363,61.047-11.631,62.508-20.352c8.717-10.176,13.076-46.518,7.268-56.693
											c-5.822-10.172-11.637-39.242-62.51-55.236c-50.875-15.994-141.002-33.436-141.002-33.436l-130.826-69.77
											c0,0-50.875-14.539-119.197-15.99c-68.321-1.455-135.186,2.904-135.186,2.904s-75.588,18.896-122.107,63.961
											c-37.795,0-67.797-7.693-65.406,19.783c2.762,31.748-10.18,63.074-10.18,63.074s-20.348,24.709-7.268,36.334
											c13.086,11.637,14.539,15.994,13.086,23.26c-1.455,7.271,11.627,26.168,52.326,29.08
											c40.707,2.902,30.527,4.352,30.527,4.352s-7.262-82.85,82.854-81.395C-226.621,288.086-232.434,370.945-232.434,370.945z"
											/>
									</defs>
									<use xlink:href="#SVGID_3_"  overflow="visible" fill="#9999D9"/>
									<clipPath id="SVGID_4_">
										<use xlink:href="#SVGID_3_"  overflow="visible"/>
									</clipPath>
									<path clip-path="url(#SVGID_4_)" fill="#9999D9" d="M-392.98,187.348c0,0-7.104,29.721,152.477,40.062
										c159.584,10.336,326.916,4.52,326.916,4.52s36.184-5.17,39.414-20.676c3.23-15.502-113.064-89.154-182.848-96.258
										c-69.77-7.113-149.889,8.395-151.826,8.395c-1.937,0-67.191-1.291-71.714-1.291c-4.52,0-96.911,15.506-105.312,30.363
										C-394.273,167.324-392.98,187.348-392.98,187.348z"/>
									<g clip-path="url(#SVGID_4_)">
										<defs>
											<path id="SVGID_5_" d="M-232.434,370.945H112.07c0,0,2.914-87.215,78.498-87.215
												c45.062,2.91,68.322,43.607,62.508,93.033c50.879-4.363,61.047-11.631,62.508-20.352
												c8.717-10.176,13.076-46.518,7.268-56.693c-5.822-10.172-11.637-39.242-62.51-55.236
												c-50.875-15.994-141.002-33.436-141.002-33.436l-130.826-69.77c0,0-50.875-14.539-119.197-15.99
												c-68.321-1.455-135.186,2.904-135.186,2.904s-75.588,18.896-122.107,63.961c-37.795,0-68.403-9.965-65.406,17.451
												c2.762,25.299-10.18,65.406-10.18,65.406s-20.348,24.709-7.268,36.334c13.086,11.637,14.539,15.994,13.086,23.26
												c-1.455,7.271,11.627,26.168,52.326,29.08c40.707,2.902,30.527,4.352,30.527,4.352s-7.262-82.85,82.854-81.395
												C-226.621,288.086-232.434,370.945-232.434,370.945z"/>
										</defs>
										<clipPath id="SVGID_6_">
											<use xlink:href="#SVGID_5_"  overflow="visible"/>
										</clipPath>
									</g>
									<g clip-path="url(#SVGID_4_)">
										<path fill="#623ED8" d="M340.561,286.543c6.332,12.754,3.229,30.83-4.842,42.223c-2.139,3.021-13.59,17.422-16.316,17.25
											c-4.268-0.27-5.123-4.826-5.912-8.203c-0.969-4.135-1.787-6.709-5.859-8.604c-5.562-2.588-16.637-2.865-17.383,5.352
											c-0.574,6.295-0.539,12.619-0.783,18.932c-0.121,3.127,1.055,16.68-5.354,15.312c-4.309-0.922-2.926-8.432-2.748-11.436
											c0.422-7.156,0.08-14.385,0.203-21.555c0.051-3.062,0.234-7.838-3.344-9.094c-5.537-1.943-6.186,5.559-6.395,9.229
											c-0.152,2.73,0.889,12.324-2.912,13.127c-3.006,0.633-3.014-5.645-3.082-7.299c-0.176-4.141,0.713-8.793-1.055-12.73
											c-1.658-3.691-7.014-4.734-9.721-7.494c-3.342-3.408-4.453-6.762-5.939-11.326c-2.883-8.861-3.221-20.889-13.969-23.832
											c-7.85-2.15-20.094,1.062-24.014-8.486c-3.691-8.99,1.008-18.174-8.779-25.121c-5.035-3.574-11.715-1.498-16.438-5.021
											c-7.078-5.281-5.064-17.17,0.891-22.072c6.859-5.645,19.492-6.293,27.953-6.467c10.055-0.207,19.424,4.488,28.152,8.955
											c17.363,8.885,31.346,11.16,50.17,15.346C313.186,247.994,332.104,269.508,340.561,286.543z"/>
									</g>
								</g>
								<path fill="#C5C6C7" d="M224.971,351.566c0,21.67-17.572,39.242-39.246,39.242c-21.678,0-39.248-17.572-39.248-39.242
									c0-21.674,17.57-39.252,39.248-39.252C207.398,312.314,224.971,329.893,224.971,351.566z"/>
								<path fill="#C5C6C7" d="M-267.801,351.566c0,21.67-17.58,39.242-39.252,39.242c-21.676,0-39.249-17.572-39.249-39.242
									c0-21.674,17.573-39.252,39.249-39.252C-285.381,312.314-267.801,329.893-267.801,351.566z"/>
								<polygon fill="#2A1F48" points="-146.176,138.895 -128.082,222.24 -267.635,216.426 -237.918,142.123 								"/>
								<path fill="#2A1F48" d="M-117.748,141.482l63.963,4.523c0,0,41.35,7.105,73.656,32.303
									c32.299,25.193,49.092,43.283,49.092,43.283l-167.975,1.293L-117.748,141.482z"/>
								<path fill="#2A1F48" d="M-285.081,213.842l31.01-69.775c0,0-49.751,7.752-74.944,32.947
									C-354.211,202.213-340.646,212.547-285.081,213.842z"/>
								<path fill="#FFFFFF" d="M-449.838,221.592c0,0,12.281,0,15.513,8.398c3.226,8.4,12.274,38.125-1.94,38.125
									s-26.49,1.939-24.551-16.797C-458.88,232.578-449.838,221.592-449.838,221.592z"/>
								<path fill="#FFFFFF" d="M307.379,268.115l-24.551,1.287c0,0-8.404,5.176-3.875,10.988
									c4.516,5.814,12.27,15.506,28.426,15.506S326.76,284.268,307.379,268.115z"/>
								<path fill="#2A1F48" d="M-387.977,192.152c0,0,20.27-18.521,70.016-38.551c49.753-20.027,28.908-19.268,28.908-19.268
									s-34.861,11.471-60.706,26.979C-375.6,176.816-397.793,192.438-387.977,192.152z"/>
								<path fill="#2A1F48" d="M-11.486,141.277l-4.181,4.078c0,0,81.405,48.459,89.806,54.275
									c8.398,5.809,27.78,21.316,27.78,21.316l17.421-9.9C119.34,211.047,32.754,157.225-11.486,141.277z"/>
							</g>
						</g>
						<polygon fill="#FFFFFF" points="-237.365,142.016 -222.141,141.375 -131.688,222.131 -148.687,221.281 						"/>
						<polygon fill="#FFFFFF" points="-117.194,141.375 -100.676,142.467 -11.517,222.131 -26.752,222.225 						"/>
						<polygon fill="#FFFFFF" points="-244.287,159.328 -176.414,220.098 -191.6,219.461 -248.148,168.98 						"/>
					</g>
				</g>
				<g clip-path="url(#SVGID_2_)">
					<g>
						<polyline fill="#F4A671" points="406.715,319.633 420.996,323.172 412.564,347.33 404.418,346.699 						"/>
						<polyline fill="#F4A671" points="404.418,346.699 399.67,332.43 402.461,322.164 406.715,319.633 						"/>
						<g>
							<path fill="#F4A671" d="M404.418,346.699l-3.273-0.332c-8.994,2.652-16.785,1.809-27.016-1.027l-2.287-14.816l-0.557-3.637
								l1.111-18.559l13.643,1.137l18.305,12.611l0.037,12.512L404.418,346.699z"/>
							<g>
								
									<rect x="366.665" y="263.153" transform="matrix(0.963 0.2694 -0.2694 0.963 88.1716 -91.705)" fill="#9999D9" width="23.167" height="24.564"/>
								<path fill="#9999D9" d="M398.727,257.83c-0.441,1.598-7.096,1.133-14.846-1.041c-7.76-2.17-13.68-5.217-13.236-6.814
									c0.445-1.596,7.094-1.123,14.852,1.045C393.244,253.191,399.168,256.238,398.727,257.83z"/>
								
									<rect x="368.734" y="253.713" transform="matrix(0.963 0.2694 -0.2694 0.963 83.8813 -93.6844)" fill="#9999D9" width="29.156" height="10.189"/>
								<polygon fill="#9999D9" points="376.102,294.229 370.908,292.775 373.229,284.498 378.414,285.957 								"/>
								<polyline fill="#9999D9" points="358.379,293.83 375.494,291.627 380.57,310.848 374.613,307.705 370.463,298.457 
									360.492,299.604 358.219,294.404 								"/>
								<polyline fill="#9999D9" points="370.463,298.457 386.975,350.822 393.758,348.887 375.494,291.627 								"/>
								<polyline fill="#9999D9" points="375.732,304.355 367.943,319.002 373.16,334.43 387.369,342.232 								"/>
							</g>
							<path fill="#FFB37B" d="M381.232,317.559c-0.031,0.578-0.186,1.127-0.449,1.609c-0.105,0.217-0.238,0.42-0.391,0.605
								l0.496-0.037c0.539-0.035,1.07,0.041,1.549,0.207c1.404,0.498,2.447,1.785,2.547,3.361c0.055,0.756-0.109,1.48-0.453,2.09
								c-0.096,0.176-0.199,0.346-0.314,0.496c0.475,0.033,0.938,0.148,1.359,0.346c1.148,0.535,2.01,1.613,2.199,2.965
								c0.17,1.211-0.256,2.375-1.043,3.186c-0.186,0.189-0.381,0.355-0.594,0.51c0.258,0.104,0.496,0.244,0.719,0.406
								c0.775,0.543,1.344,1.369,1.549,2.375c0.342,1.656-0.455,3.287-1.838,4.088c-0.348,0.199-0.748,0.346-1.16,0.436
								l-2.764,0.562l-5.385,3.934c-1.715,1.26-4.123,0.881-5.379-0.844c-0.885-1.205-0.945-2.748-0.295-4
								c0.059-0.119,0.119-0.234,0.193-0.338c0.209-0.324,0.469-0.617,0.775-0.875l-1.254,0.889
								c-0.084,0.062-0.176,0.125-0.273,0.172c-0.084,0.057-0.17,0.1-0.258,0.145c-0.109,0.055-0.221,0.109-0.334,0.146
								c-0.139,0.057-0.273,0.098-0.412,0.125c-0.168,0.049-0.338,0.082-0.502,0.098c-1.344,0.158-2.734-0.395-3.578-1.568
								c-0.934-1.307-0.938-3-0.139-4.273c0.004-0.012,0.016-0.025,0.02-0.035c0.045-0.072,0.107-0.152,0.162-0.221
								c0.082-0.121,0.176-0.229,0.279-0.334c0.059-0.07,0.121-0.131,0.186-0.191c0.115-0.111,0.246-0.207,0.375-0.305l0.895-0.635
								l-0.943,0.574c-0.139,0.088-0.281,0.164-0.42,0.221c-0.133,0.066-0.27,0.117-0.404,0.156
								c-0.023,0.014-0.043,0.018-0.062,0.021c-0.137,0.051-0.27,0.08-0.406,0.102c-0.152,0.033-0.301,0.051-0.453,0.057
								c-1.379,0.107-2.762-0.541-3.545-1.795c-0.881-1.432-0.719-3.213,0.297-4.451c0.047-0.062,0.098-0.115,0.152-0.178
								c0.061-0.078,0.123-0.146,0.201-0.213c0.053-0.053,0.102-0.094,0.17-0.145c0.041-0.045,0.102-0.088,0.158-0.127
								c0.084-0.062,0.176-0.121,0.268-0.186l2.311-1.422c-0.154,0.045-0.307,0.078-0.453,0.094
								c-0.17,0.033-0.334,0.045-0.498,0.051c-0.111-0.002-0.219-0.002-0.32-0.012c-1.244-0.066-2.416-0.732-3.096-1.881
								c-1.072-1.848-0.443-4.197,1.389-5.262l7.727-4.506c0,0,0,0,0.01-0.006c0.291-0.17,0.613-0.299,0.939-0.385
								c0.377-0.098,0.777-0.145,1.174-0.123l5.678,0.285C379.711,313.635,381.336,315.438,381.232,317.559z"/>
							<path fill="#F4A671" d="M389.281,303.613l17.434,16.02c-1.234,1.947,0.98,3.062,1.264,12.113l-7.775-0.801l-16.201-16.949
								c-0.004-0.018-0.01-0.031-0.006-0.049l-6.963-1.209l-0.016,0.025c-0.078,0.15-0.582,1.004-1.488,1.936
								c-1.918,1.986-5.658,4.318-11.078,1.004l8.408-12.023L389.281,303.613z"/>
							<polygon fill="#795FF9" points="508.377,328.562 510.67,365.256 412.076,350.098 416.043,318.312 							"/>
						</g>
						<polygon fill="#623ED8" points="421.273,318.965 409.752,317.527 407.334,350.422 419.102,351.887 						"/>
					</g>
					<path fill="none" stroke="#271F45" stroke-width="4.7802" stroke-miterlimit="10" d="M391.467,349.396
						c1.059,6.799,2.238,18.27,9.664,21.102c6.875,2.619,15.383-1.932,22.613,0.877c5.27,2.051,10.824,13.311,16.367,17.076
						c6.242,4.234,14.09,9.414,21.98,9.469c7.846,0.053,13.398-4.912,19.91-8.268"/>
				</g>
				<path clip-path="url(#SVGID_2_)" fill="none" d="M36.457,273.205c0,122.391,99.217,221.611,221.613,221.611
					c122.393,0,221.611-99.221,221.611-221.611c0-122.393-99.219-221.611-221.611-221.611
					C135.674,51.594,36.457,150.812,36.457,273.205z"/>
			</g>
		</g>
		<g>
			<polygon fill="#FF6666" points="352.238,91.963 352.238,149.408 364.877,149.408 364.877,168.324 394.562,149.408 
				434.961,149.408 434.961,91.963 			"/>
		</g>
		<g>
			<path fill="#FFFFFF" d="M407.068,130.854c0-0.51-0.432-0.941-0.941-0.941c-3.209,0-3.484-3.406-3.484-4.463v-9.826
				c0-3.992-2.545-7.439-6.303-8.613v-2.113c0-1.527-1.215-2.742-2.74-2.742c-1.527,0-2.74,1.215-2.74,2.742v2.113
				c-3.758,1.174-6.303,4.621-6.303,8.613v9.826c0,1.057-0.234,4.463-3.484,4.463c-0.51,0-0.939,0.432-0.939,0.941
				c0,0.508,0.43,0.938,0.939,0.938h25.055C406.637,131.83,407.068,131.4,407.068,130.854z"/>
			<path fill="#FFFFFF" d="M390.898,133.555c-0.508,0-0.939,0.43-0.939,0.939c0,1.994,1.645,3.641,3.641,3.641
				c1.998,0,3.641-1.646,3.641-3.641c0-0.51-0.43-0.939-0.939-0.939H390.898z"/>
		</g>
	</g>
</g>
</svg>
