<?xml version="1.0" encoding="UTF-8" standalone="no"?>
<svg width="124px" height="42px" viewBox="0 0 124 42" version="1.1" xmlns="http://www.w3.org/2000/svg" xmlns:xlink="http://www.w3.org/1999/xlink">
    <!-- Generator: Sketch 3.8.3 (29802) - http://www.bohemiancoding.com/sketch -->
    <title>iosLink</title>
    <desc>Created with Sketch.</desc>
    <defs></defs>
    <g id="Page-1" stroke="none" stroke-width="1" fill="none" fill-rule="evenodd">
        <g id="GetApp" transform="translate(-1076.000000, -401.000000)">
            <g id="Group-21" transform="translate(599.000000, 154.000000)">
                <g id="Group-23" transform="translate(341.000000, 114.000000)">
                    <g id="Group-9" transform="translate(0.000000, 132.000000)">
                        <g id="iosLink" transform="translate(135.000000, 0.000000)">
                            <rect id="background" fill="#000000" x="1" y="1" width="124" height="41.9769804" rx="2"></rect>
                            <g id="icon" transform="translate(10.997969, 8.387949)" fill="#FFFFFF">
                                <path d="M17.1477691,12.6396239 C17.1207519,9.63697928 19.6063416,8.17618288 19.7200005,8.10817387 C18.3123071,6.0557922 16.1304288,5.77537146 15.363697,5.75301233 C13.5311801,5.56016485 11.7536294,6.84954126 10.8201358,6.84954126 C9.86800957,6.84954126 8.43050393,5.77164494 6.88120265,5.80332037 C4.8875137,5.83406418 3.02238973,6.98835418 1.9994596,8.78081098 C-0.111614777,12.4355969 1.46284052,17.8064458 3.48541002,20.7606457 C4.49716058,22.2083993 5.6793995,23.8229147 7.22683751,23.7660852 C8.74073684,23.7045976 9.30623646,22.8009162 11.1331636,22.8009162 C12.9433214,22.8009162 13.4743507,23.7660852 15.0525325,23.72882 C16.6772958,23.7045976 17.7002259,22.2764083 18.6765746,20.8156119 C19.8457706,19.1591731 20.3153123,17.5241618 20.333945,17.4403151 C20.2966797,17.4282039 17.1794446,16.238512 17.1477691,12.6396239" id="Fill-2"></path>
                                <path d="M14.166552,3.80963142 C14.9807969,2.79135944 15.5379119,1.40602511 15.3832613,0.000194904387 C14.2047489,0.0523662042 12.7309096,0.815371463 11.8821944,1.81128431 C11.1313003,2.6888801 10.4605265,4.12731737 10.6338097,5.48004464 C11.9576564,5.57879746 13.3169051,4.81206568 14.166552,3.80963142" id="Fill-3"></path>
                            </g>
                            <g id="App-Store" transform="translate(38.618822, 18.385917)" fill="#FFFFFF">
                                <path d="M11.4546997,13.5603628 L9.33896715,13.5603628 L8.18001899,9.91861974 L4.15164935,9.91861974 L3.04766738,13.5603628 L0.987832668,13.5603628 L4.97986873,1.16222605 L7.44496265,1.16222605 L11.4546997,13.5603628 L11.4546997,13.5603628 Z M7.83065761,8.39074596 L6.78257346,5.15426211 C6.67170945,4.82260171 6.46302425,4.04375873 6.1574495,2.81773319 L6.12018428,2.81773319 C5.99720908,3.34503597 5.80063507,4.12387894 5.5313939,5.15426211 L4.50101073,8.39074596 L7.83065761,8.39074596 L7.83065761,8.39074596 Z" id="Fill-4"></path>
                                <path d="M21.7007703,8.98046797 C21.7007703,10.5008887 21.2880581,11.7026919 20.4617019,12.5849458 C19.7219874,13.3703102 18.8024683,13.7625266 17.7059394,13.7625266 C16.5218372,13.7625266 15.670327,13.340498 15.1532722,12.493646 L15.1532722,17.1844049 L13.1670363,17.1844049 L13.1670363,7.55880005 C13.1670363,6.60387894 13.1418823,5.62473544 13.0934375,4.62043792 L14.8402444,4.62043792 L14.9511084,6.03837932 L14.9883736,6.03837932 C15.6507628,4.9697993 16.6559919,4.43597511 18.0049927,4.43597511 C19.0595983,4.43597511 19.9399889,4.85241388 20.6443015,5.68622304 C21.3476824,6.52189547 21.7007703,7.61935603 21.7007703,8.98046797 L21.7007703,8.98046797 Z M19.6772692,9.05313514 C19.6772692,8.18299239 19.4816268,7.46563702 19.0884788,6.90106902 C18.6589972,6.31321027 18.082318,6.01788345 17.3593729,6.01788345 C16.8693353,6.01788345 16.424016,6.18185039 16.0262098,6.50605775 C15.627472,6.83119675 15.3666155,7.25695182 15.244572,7.78518623 C15.1830844,8.03020501 15.1523406,8.23050554 15.1523406,8.3888827 L15.1523406,9.88135452 C15.1523406,10.5297692 15.3517095,11.0784995 15.7504472,11.5275454 C16.149185,11.9747279 16.6671715,12.1992508 17.3044067,12.1992508 C18.0525058,12.1992508 18.6347748,11.9095138 19.0512136,11.3346979 C19.468584,10.7580187 19.6772692,9.99780832 19.6772692,9.05313514 L19.6772692,9.05313514 Z" id="Fill-5"></path>
                                <path d="M31.9831745,8.98046797 C31.9831745,10.5008887 31.5704623,11.7026919 30.7441061,12.5849458 C30.00346,13.3703102 29.0848725,13.7625266 27.9874119,13.7625266 C26.8042414,13.7625266 25.9527312,13.340498 25.4347448,12.493646 L25.4347448,17.1844049 L23.4485089,17.1844049 L23.4485089,7.55880005 C23.4485089,6.60387894 23.4233548,5.62473544 23.3749101,4.62043792 L25.121717,4.62043792 L25.232581,6.03837932 L25.2698462,6.03837932 C25.9313037,4.9697993 26.9365329,4.43597511 28.2864653,4.43597511 C29.3401392,4.43597511 30.2214615,4.85241388 30.9267057,5.68622304 C31.629155,6.52189547 31.9831745,7.61935603 31.9831745,8.98046797 L31.9831745,8.98046797 Z M29.9587418,9.05313514 C29.9587418,8.18299239 29.7621678,7.46563702 29.3690197,6.90106902 C28.9404698,6.31321027 28.3647222,6.01788345 27.6417771,6.01788345 C27.1517395,6.01788345 26.7064202,6.18185039 26.3067508,6.50605775 C25.9089446,6.83119675 25.6480881,7.25695182 25.5260445,7.78518623 C25.4654886,8.03020501 25.4328815,8.23050554 25.4328815,8.3888827 L25.4328815,9.88135452 C25.4328815,10.5297692 25.633182,11.0784995 26.0300566,11.5275454 C26.4287944,11.9737963 26.9467808,12.1992508 27.5858792,12.1992508 C28.3349101,12.1992508 28.917179,11.9095138 29.3326862,11.3346979 C29.7500566,10.7580187 29.9587418,9.99780832 29.9587418,9.05313514 L29.9587418,9.05313514 Z" id="Fill-6"></path>
                                <path d="M43.4794931,10.0835183 C43.4794931,11.1381239 43.1114991,11.9961554 42.3773744,12.6585446 C41.5705825,13.3814898 40.4442414,13.743894 39.0002143,13.743894 C37.6661197,13.743894 36.596608,13.486764 35.7898161,12.9715724 L36.2491099,11.3160653 C37.1201843,11.8312569 38.0769687,12.0893185 39.1185314,12.0893185 C39.8675622,12.0893185 40.4498312,11.9197617 40.8653383,11.5834432 C41.2827087,11.2452614 41.4923255,10.7952839 41.4923255,10.2325792 C41.4923255,9.72856715 41.3190423,9.30560697 40.9762023,8.96183536 C40.6324307,8.61992703 40.0641362,8.29944618 39.2666606,8.00691425 C37.0959619,7.19732748 36.0096809,6.01229367 36.0096809,4.45553935 C36.0096809,3.438199 36.3935126,2.60532147 37.1583811,1.95411185 C37.9241813,1.30383386 38.9396584,0.978694869 40.2029491,0.978694869 C41.3311535,0.978694869 42.2711685,1.17526887 43.0174044,1.56748525 L42.5189822,3.18665881 C41.8165329,2.80655362 41.0237155,2.61650103 40.1368034,2.61650103 C39.4362173,2.61650103 38.8856238,2.78885265 38.4934074,3.13169262 C38.1626786,3.438199 37.9940536,3.81178277 37.9940536,4.25523882 C37.9940536,4.74434476 38.1850378,5.15053559 38.5660746,5.46822154 C38.8958717,5.76261673 39.4977049,6.08216594 40.3678477,6.42500591 C41.4354961,6.85541914 42.2189972,7.35663627 42.7220776,7.93238382 C43.2279529,8.50813138 43.4794931,9.22641839 43.4794931,10.0835183" id="Fill-7"></path>
                                <path d="M50.0633248,6.11104648 L47.8739934,6.11104648 L47.8739934,10.4515123 C47.8739934,11.5554943 48.2596884,12.1060878 49.0329416,12.1060878 C49.3878928,12.1060878 49.682288,12.0762756 49.9151956,12.0138564 L49.9701617,13.5221659 C49.578877,13.6684319 49.0636854,13.7420307 48.4264502,13.7420307 C47.6410859,13.7420307 47.0290047,13.5016701 46.5855487,13.0237437 C46.1439559,12.5448857 45.9231595,11.742752 45.9231595,10.613616 L45.9231595,6.10731996 L44.6198086,6.10731996 L44.6198086,4.6167114 L45.9231595,4.6167114 L45.9231595,2.97983687 L47.8739934,2.39104648 L47.8739934,4.6167114 L50.0633248,4.6167114 L50.0633248,6.11104648" id="Fill-8"></path>
                                <path d="M59.9218372,9.01680156 C59.9218372,10.3909563 59.5296208,11.5191607 58.7442564,12.4014146 C57.9234901,13.3088226 56.8316193,13.7625266 55.4705073,13.7625266 C54.1569086,13.7625266 53.1125509,13.3274552 52.3337079,12.4573124 C51.554865,11.5871697 51.1654435,10.4897091 51.1654435,9.16586241 C51.1654435,7.78052808 51.5688394,6.64580231 52.3700415,5.76354836 C53.1731069,4.88129442 54.2556614,4.43877 55.6167733,4.43877 C56.9294405,4.43877 57.9821828,4.87570464 58.78059,5.74491576 C59.5426636,6.58990449 59.9218372,7.67898037 59.9218372,9.01680156 L59.9218372,9.01680156 Z M57.8629341,9.06245144 C57.8629341,8.24354836 57.6859243,7.54109908 57.3309732,6.95324032 C56.9145344,6.24333799 56.3173593,5.88931846 55.5459694,5.88931846 C54.7512887,5.88931846 54.1392076,6.24333799 53.7246321,6.95324032 C53.3678176,7.54109908 53.1917395,8.25565956 53.1917395,9.09971666 C53.1917395,9.91955137 53.3678176,10.6238639 53.7246321,11.2089278 C54.1541137,11.9197617 54.753152,12.2747129 55.5301317,12.2747129 C56.2884788,12.2747129 56.8837906,11.9113771 57.3151354,11.1921584 C57.6794029,10.5903252 57.8629341,9.88321778 57.8629341,9.06245144 L57.8629341,9.06245144 Z" id="Fill-9"></path>
                                <path d="M66.3808304,6.36724483 C66.1842564,6.33091125 65.9737079,6.31321027 65.7547748,6.31321027 C65.0560521,6.31321027 64.5157064,6.5749984 64.1356013,7.10416444 C63.8048725,7.56997962 63.6399739,8.15877 63.6399739,8.86960396 L63.6399739,13.5603628 L61.653738,13.5603628 L61.653738,7.43582485 C61.653738,6.40637331 61.6341738,5.46635828 61.5959769,4.62136955 L63.3260145,4.62136955 L63.3986817,6.33184288 L63.4536478,6.33184288 C63.6641963,5.74398413 63.9939934,5.26978428 64.4467658,4.91576474 C64.8902218,4.5952839 65.3672166,4.43597511 65.8824082,4.43597511 C66.0659394,4.43597511 66.2317696,4.44994956 66.3789672,4.47230869 L66.3808304,6.36724483" id="Fill-10"></path>
                                <path d="M75.2639258,8.66744017 C75.2639258,9.02332297 75.2406351,9.32330794 75.1912587,9.56832672 L69.2334826,9.56832672 C69.2549101,10.4515123 69.5446471,11.1278759 70.0971039,11.5936911 C70.5992527,12.0091982 71.2495306,12.2178834 72.0460746,12.2178834 C72.9283285,12.2178834 73.7332572,12.0781389 74.4571339,11.7949233 L74.7682985,13.1737362 C73.9223781,13.5417302 72.9227388,13.726193 71.7712436,13.726193 C70.3849777,13.726193 69.2968334,13.3181389 68.5049476,12.503894 C67.7158567,11.6887174 67.3189822,10.5921885 67.3189822,9.2208286 C67.3189822,7.87369111 67.6860445,6.75107654 68.4238958,5.85577977 C69.1952857,4.89992703 70.2377801,4.42200065 71.5495156,4.42200065 C72.8379604,4.42200065 73.8133774,4.89992703 74.4748349,5.85577977 C75.0002744,6.61319524 75.2639258,7.55227864 75.2639258,8.66744017 L75.2639258,8.66744017 Z M73.3699213,8.15224859 C73.3838958,7.56252657 73.2534675,7.05571966 72.9842264,6.62530644 C72.6404548,6.07191801 72.1112887,5.79615543 71.402318,5.79615543 C70.75204,5.79615543 70.2238056,6.0653966 69.8213413,6.6057422 C69.4906125,7.03522379 69.2940385,7.55227864 69.2334826,8.15038533 L73.3699213,8.15224859 L73.3699213,8.15224859 Z" id="Fill-11"></path>
                            </g>
                            <g id="Available-on-the" transform="translate(39.374408, 7.723764)" fill="#FFFFFF">
                                <path d="M6.11735596,7.38702369 L5.07672486,7.38702369 L4.50749871,5.59736178 L2.52778421,5.59736178 L1.98464372,7.38702369 L0.971961522,7.38702369 L2.93397505,1.29322955 L4.1450945,1.29322955 L6.11735596,7.38702369 L6.11735596,7.38702369 Z M4.33607873,4.84646772 L3.82088714,3.25524307 C3.76685258,3.09220776 3.66716813,2.71303421 3.51344913,2.10747448 L3.49481652,2.10747448 C3.43146565,2.36926261 3.34109751,2.74936779 3.20507948,3.25524307 L2.6992042,4.84646772 L4.33607873,4.84646772 L4.33607873,4.84646772 Z" id="Fill-12"></path>
                                <path d="M11.0233214,2.99345494 L9.35942959,7.38702369 L8.41009826,7.38702369 L6.80024101,2.99345494 L7.84925679,2.99345494 L8.60015085,5.31694104 C8.72685258,5.7054309 8.8349217,6.07621978 8.91597354,6.42837606 L8.94299082,6.42837606 C9.01565799,6.11255337 9.12372711,5.74176449 9.25881351,5.31694104 L10.0003913,2.99345494 L11.0233214,2.99345494" id="Fill-13"></path>
                                <path d="M14.56538,7.38702369 L14.4927128,6.88114841 L14.4656956,6.88114841 C14.1675738,7.28827087 13.7334341,7.48670814 13.1819089,7.48670814 C12.3956129,7.48670814 11.8347714,6.93518297 11.8347714,6.19360521 C11.8347714,5.10918748 12.7747865,4.548346 14.4023447,4.548346 L14.4023447,4.46729416 C14.4023447,3.88875171 14.0949067,3.59901467 13.4893469,3.59901467 C13.0552072,3.59901467 12.675102,3.70801543 12.3415784,3.9250853 L12.1431411,3.28319198 C12.5502636,3.02978853 13.0561388,2.9030868 13.6533139,2.9030868 C14.8010825,2.9030868 15.3805566,3.50864653 15.3805566,4.72069762 L15.3805566,6.33893954 C15.3805566,6.78239559 15.3991892,7.12616719 15.4439074,7.38795532 L14.56538,7.38702369 L14.56538,7.38702369 Z M14.429362,5.19862399 C13.3440126,5.19862399 12.8018037,5.46134375 12.8018037,6.08460446 C12.8018037,6.54576148 13.0822245,6.77121603 13.4707143,6.77121603 C13.9682049,6.77121603 14.429362,6.39204247 14.429362,5.87685089 L14.429362,5.19862399 L14.429362,5.19862399 Z" id="Fill-14"></path>
                                <path d="M17.5549818,2.26957816 C17.2298428,2.26957816 16.9764394,2.0161747 16.9764394,1.68171941 C16.9764394,1.34726411 17.2382275,1.10317696 17.5736144,1.10317696 C17.9080697,1.10317696 18.1791741,1.34726411 18.1698578,1.68171941 C18.1698578,2.03480731 17.917386,2.26957816 17.5549818,2.26957816 L17.5549818,2.26957816 Z M17.0854401,2.99345494 L18.0617887,2.99345494 L18.0617887,7.38702369 L17.0854401,7.38702369 L17.0854401,2.99345494 Z" id="Fill-15"></path>
                                <polygon id="Fill-16" points="19.7964844 0.97740686 20.772833 0.97740686 20.772833 7.38702369 19.7964844 7.38702369"></polygon>
                                <path d="M24.9223146,7.38702369 L24.8487158,6.88114841 L24.8226302,6.88114841 C24.5245085,7.28827087 24.0903687,7.48670814 23.5388436,7.48670814 C22.7525475,7.48670814 22.1917061,6.93518297 22.1917061,6.19360521 C22.1917061,5.10918748 23.1317211,4.548346 24.7592793,4.548346 L24.7592793,4.46729416 C24.7592793,3.88875171 24.4518413,3.59901467 23.8462816,3.59901467 C23.4121418,3.59901467 23.0320367,3.70801543 22.698513,3.9250853 L22.4991441,3.28226035 C22.9062666,3.0288569 23.4121418,2.90215517 24.0093169,2.90215517 C25.1570855,2.90215517 25.7374912,3.5077149 25.7374912,4.71976599 L25.7374912,6.33800791 C25.7374912,6.78146396 25.7561238,7.12523556 25.7989788,7.38702369 L24.9223146,7.38702369 L24.9223146,7.38702369 Z M24.7862966,5.19862399 C23.7009472,5.19862399 23.1587384,5.46134375 23.1587384,6.08460446 C23.1587384,6.54576148 23.4391591,6.77121603 23.827649,6.77121603 C24.3251396,6.77121603 24.7862966,6.39204247 24.7862966,5.87685089 L24.7862966,5.19862399 L24.7862966,5.19862399 Z" id="Fill-17"></path>
                                <path d="M29.692262,7.48670814 C29.0690013,7.48670814 28.6087759,7.22398838 28.3097226,6.70879679 L28.29109,6.70879679 L28.2351922,7.38702369 L27.4041779,7.38702369 C27.4302636,7.03486742 27.4395799,6.63612962 27.4395799,6.20292151 L27.4395799,0.97740686 L28.4177917,0.97740686 L28.4177917,3.63627989 L28.4354927,3.63627989 C28.7252297,3.14810558 29.1947714,2.90401843 29.8366648,2.90401843 C30.8949968,2.90401843 31.6365746,3.8086315 31.6365746,5.12782008 C31.6365746,6.49172692 30.8130134,7.48670814 29.692262,7.48670814 L29.692262,7.48670814 Z M29.4938248,3.67075021 C28.9320517,3.67075021 28.4177917,4.15892452 28.4177917,4.83715141 L28.4177917,5.60574645 C28.4177917,6.21130618 28.8798804,6.70879679 29.4761238,6.70879679 C30.2074536,6.70879679 30.6434566,6.11255337 30.6434566,5.16322204 C30.642525,4.27724157 30.1897527,3.67075021 29.4938248,3.67075021 L29.4938248,3.67075021 Z" id="Fill-18"></path>
                                <polygon id="Fill-19" points="33.0815333 0.97740686 34.0569503 0.97740686 34.0569503 7.38702369 33.0815333 7.38702369"></polygon>
                                <path d="M39.3709698,5.42501017 L36.4400607,5.42501017 C36.4596249,6.25695607 37.0092868,6.72649777 37.8226001,6.72649777 C38.2576715,6.72649777 38.6554777,6.6538306 39.0076339,6.5187442 L39.1594897,7.1969711 C38.7439826,7.37770739 38.2558083,7.46807553 37.6865821,7.46807553 C36.3114957,7.46807553 35.4981824,6.59979604 35.4981824,5.25359018 C35.4981824,3.90645269 36.3310599,2.8937705 37.5775814,2.8937705 C38.697401,2.8937705 39.4045085,3.7257164 39.4045085,4.98248575 C39.4073034,5.15390573 39.3989187,5.30762474 39.3709698,5.42501017 L39.3709698,5.42501017 Z M38.4766046,4.72908229 C38.4766046,4.0508554 38.1319014,3.57199739 37.5077091,3.57199739 C36.9468676,3.57199739 36.5052748,4.0601717 36.4400607,4.72908229 L38.4766046,4.72908229 L38.4766046,4.72908229 Z" id="Fill-20"></path>
                                <path d="M45.2886858,7.48670814 C44.0048992,7.48670814 43.1729533,6.5280605 43.1729533,5.2265729 C43.1729533,3.87011911 44.0226001,2.9030868 45.3622846,2.9030868 C46.626507,2.9030868 47.4780171,3.81608455 47.4780171,5.15483736 C47.4780171,6.5280605 46.6004213,7.48670814 45.2886858,7.48670814 L45.2886858,7.48670814 Z M45.325951,3.61671565 C44.6207068,3.61671565 44.1688661,4.27630994 44.1688661,5.19862399 C44.1688661,6.10323706 44.6300231,6.76283135 45.3166347,6.76283135 C46.0032463,6.76283135 46.4644033,6.05758718 46.4644033,5.17999138 C46.4644033,4.28562624 46.0125626,3.61671565 45.325951,3.61671565 L45.325951,3.61671565 Z" id="Fill-21"></path>
                                <path d="M52.7268225,7.38702369 L51.7523372,7.38702369 L51.7523372,4.86416869 C51.7523372,4.08718898 51.4532838,3.69776749 50.8654251,3.69776749 C50.2868826,3.69776749 49.8881448,4.1952581 49.8881448,4.77380055 L49.8881448,7.38702369 L48.9136595,7.38702369 L48.9136595,4.24929266 C48.9136595,3.8608028 48.9024799,3.44436404 48.8763943,2.99252331 L49.7353575,2.99252331 L49.7810074,3.67075021 L49.8089563,3.67075021 C50.0688811,3.20120851 50.603637,2.90215517 51.200812,2.90215517 C52.1212628,2.90215517 52.7268225,3.60739935 52.7268225,4.75516794 L52.7268225,7.38702369" id="Fill-22"></path>
                                <path d="M59.1150119,3.7257164 L58.0408421,3.7257164 L58.0408421,5.85914991 C58.0408421,6.40229041 58.229963,6.67339484 58.6091366,6.67339484 C58.7805566,6.67339484 58.9268225,6.65476223 59.0432763,6.62774495 L59.0702936,7.36932271 C58.880241,7.44198988 58.6259059,7.47832346 58.3119465,7.47832346 C57.5414882,7.47832346 57.0831261,7.05350002 57.0831261,5.94113338 L57.0831261,3.7257164 L56.443096,3.7257164 L56.443096,2.99345494 L57.0831261,2.99345494 L57.0831261,2.18852632 L58.0408421,1.89878928 L58.0408421,2.99252331 L59.1150119,2.99252331 L59.1150119,3.7257164" id="Fill-23"></path>
                                <path d="M64.2855603,7.38702369 L63.3082801,7.38702369 L63.3082801,4.8828013 C63.3082801,4.09650528 63.0092267,3.69869912 62.4222996,3.69869912 C61.9164243,3.69869912 61.4468826,4.04247072 61.4468826,4.7383986 L61.4468826,7.38702369 L60.4696024,7.38702369 L60.4696024,0.97740686 L61.4468826,0.97740686 L61.4468826,3.61671565 L61.4655152,3.61671565 C61.7720216,3.13785765 62.2164093,2.90215517 62.7856355,2.90215517 C63.7163342,2.90215517 64.2855603,3.62510032 64.2855603,4.77380055 L64.2855603,7.38702369" id="Fill-24"></path>
                                <path d="M69.2744409,5.42501017 L66.3444634,5.42501017 C66.363096,6.25695607 66.9127579,6.72649777 67.7270028,6.72649777 C68.1630058,6.72649777 68.5598804,6.6538306 68.9101734,6.5187442 L69.0629608,7.1969711 C68.6483853,7.37770739 68.1592793,7.46807553 67.5891216,7.46807553 C66.2149668,7.46807553 65.4016535,6.59979604 65.4016535,5.25359018 C65.4016535,3.90645269 66.2335994,2.8937705 67.4801208,2.8937705 C68.6008721,2.8937705 69.3070479,3.7257164 69.3070479,4.98248575 C69.3107744,5.15390573 69.3014581,5.30762474 69.2744409,5.42501017 L69.2744409,5.42501017 Z M68.3791441,4.72908229 C68.3791441,4.0508554 68.0363041,3.57199739 67.4121118,3.57199739 C66.8512703,3.57199739 66.4087459,4.0601717 66.3444634,4.72908229 L68.3791441,4.72908229 L68.3791441,4.72908229 Z" id="Fill-25"></path>
                            </g>
                        </g>
                    </g>
                </g>
            </g>
        </g>
    </g>
</svg>