<?xml version="1.0" encoding="UTF-8" standalone="no"?>
<svg width="22px" height="22px" viewBox="0 0 22 22" version="1.1" xmlns="http://www.w3.org/2000/svg" xmlns:xlink="http://www.w3.org/1999/xlink">
    <!-- Generator: Sketch 39.1 (31720) - http://www.bohemiancoding.com/sketch -->
    <title>Combined Shape</title>
    <desc>Created with Sketch.</desc>
    <defs></defs>
    <g id="Page-1" stroke="none" stroke-width="1" fill="none" fill-rule="evenodd">
        <g id="Home_new" transform="translate(-598.000000, -4563.000000)" fill="#D8D8D8">
            <g id="Group-35" transform="translate(-36.000000, 1362.000000)">
                <g id="contact" transform="translate(185.000000, 3172.000000)">
                    <g id="Group-34" transform="translate(389.000000, 0.000000)">
                        <path d="M71,51 C77.0751322,51 82,46.0751322 82,40 C82,33.9248678 77.0751322,29 71,29 C64.9248678,29 60,33.9248678 60,40 C60,46.0751322 64.9248678,51 71,51 Z M76.439733,41.1161408 L76.439733,44.9757767 L74.2021602,44.9757767 L74.2021602,41.3746359 C74.2021602,40.47 73.8785194,39.8526214 73.0685922,39.8526214 C72.4503155,39.8526214 72.0823786,40.2686893 71.9205097,40.671165 C71.8614806,40.8150485 71.8462864,41.0153155 71.8462864,41.2167233 L71.8462864,44.9757767 L69.6079612,44.9757767 C69.6079612,44.9757767 69.6381068,38.8766262 69.6079612,38.2447087 L71.846068,38.2447087 L71.846068,39.1988107 C71.8415291,39.2059466 71.8356311,39.2136408 71.8313592,39.2205583 L71.846068,39.2205583 L71.846068,39.1988107 C72.1434223,38.7408252 72.674466,38.0865777 73.8631068,38.0865777 C75.3357524,38.0865534 76.439733,39.0486165 76.439733,41.1161408 Z M67.2665777,35 C66.5008495,35 66,35.5022573 66,36.1627427 C66,36.808835 66.4863592,37.326335 67.2368689,37.326335 L67.2518204,37.326335 C68.0323786,37.326335 68.5178155,36.808932 68.5178155,36.1627427 C68.5031068,35.5022573 68.0323786,35 67.2665777,35 Z M66.1329369,44.9757767 L68.3704126,44.9757767 L68.3704126,38.2447087 L66.1329369,38.2447087 L66.1329369,44.9757767 Z" id="Combined-Shape"></path>
                    </g>
                </g>
            </g>
        </g>
    </g>
</svg>