<svg xmlns="http://www.w3.org/2000/svg" viewBox="0 0 30 30"><defs><style>.cls-1{opacity:0.2;}.cls-2{fill:#fff;}</style></defs><title>Asset 1</title><g id="Layer_2" data-name="Layer 2"><g id="Capa_1" data-name="Capa 1"><g class="cls-1"><path class="cls-2" d="M16.6,13.17v0l0,0Z"/><path class="cls-2" d="M15,0A15,15,0,1,0,30,15,15,15,0,0,0,15,0ZM11,22.39H7.45V11.61H11ZM9.24,10.14h0a1.87,1.87,0,1,1,0-3.73,1.87,1.87,0,1,1,0,3.73ZM24,22.39H20.38V16.62c0-1.45-.52-2.44-1.82-2.44a2,2,0,0,0-1.84,1.31,2.45,2.45,0,0,0-.12.87v6H13s0-9.77,0-10.78H16.6v1.53a3.56,3.56,0,0,1,3.23-1.78c2.36,0,4.13,1.54,4.13,4.85Z"/></g></g></g></svg>