<?xml version="1.0" encoding="UTF-8" standalone="no"?>
<svg width="13px" height="13px" viewBox="0 0 13 13" version="1.1" xmlns="http://www.w3.org/2000/svg" xmlns:xlink="http://www.w3.org/1999/xlink">
    <!-- Generator: Sketch 40.3 (33839) - http://www.bohemiancoding.com/sketch -->
    <title>linkedin_contact</title>
    <desc>Created with Sketch.</desc>
    <defs></defs>
    <g id="Page-1" stroke="none" stroke-width="1" fill="none" fill-rule="evenodd">
        <g id="ContactUs_desktop" transform="translate(-255.000000, -314.000000)" fill="#007BB6">
            <g id="Group-12" transform="translate(187.000000, 208.000000)">
                <g id="Group-26">
                    <g id="Group-11" transform="translate(1.000000, 0.000000)">
                        <g id="Group-17" transform="translate(1.000000, 105.206612)">
                            <g id="linkedin_contact" transform="translate(66.000000, 0.991736)">
                                <path d="M12.5580995,7.29638725 L12.5580995,11.9008264 L9.86649213,11.9008264 L9.86649213,7.60476483 C9.86649213,6.52555912 9.47718016,5.78904343 8.50290753,5.78904343 C7.75917392,5.78904343 7.31657753,6.28540104 7.12186315,6.76554348 C7.0508562,6.93719252 7.03257892,7.17610552 7.03257892,7.41637943 L7.03257892,11.9008264 L4.34006647,11.9008264 C4.34006647,11.9008264 4.37632907,4.62470815 4.34006647,3.87084803 L7.03231614,3.87084803 L7.03231614,5.00906533 C7.02685632,5.01757829 7.01976146,5.02675722 7.0146228,5.03500958 L7.03231614,5.03500958 L7.03231614,5.00906533 C7.39000783,4.46270133 8.02880765,3.68220203 9.4586401,3.68220203 C11.2301059,3.68217307 12.5580995,4.82988782 12.5580995,7.29638725 L12.5580995,7.29638725 Z M1.52358383,0 C0.60247882,0 0,0.599179083 0,1.38711999 C0,2.15789021 0.585048248,2.77525343 1.48784677,2.77525343 L1.50583209,2.77525343 C2.44477642,2.77525343 3.02871519,2.15800603 3.02871519,1.38711999 C3.01102184,0.599179083 2.44477642,0 1.52358383,0 L1.52358383,0 Z M0.159911631,11.9008264 L2.85140218,11.9008264 L2.85140218,3.87084803 L0.159911631,3.87084803 L0.159911631,11.9008264 L0.159911631,11.9008264 Z" id="footer_linked"></path>
                            </g>
                        </g>
                    </g>
                </g>
            </g>
        </g>
    </g>
</svg>