<?xml version="1.0" encoding="UTF-8" standalone="no"?>
<svg width="10px" height="15px" viewBox="0 0 10 15" version="1.1" xmlns="http://www.w3.org/2000/svg" xmlns:xlink="http://www.w3.org/1999/xlink" xmlns:sketch="http://www.bohemiancoding.com/sketch/ns">
    <!-- Generator: Sketch 3.4.4 (17249) - http://www.bohemiancoding.com/sketch -->
    <title>location_icn</title>
    <desc>Created with Sketch.</desc>
    <defs></defs>
    <g id="Page-1" stroke="none" stroke-width="1" fill="none" fill-rule="evenodd" sketch:type="MSPage">
        <g id="BookDentandPaint_final" sketch:type="MSArtboardGroup" transform="translate(-1010.000000, -27.000000)" fill="#535353">
            <g id="header" sketch:type="MSLayerGroup" transform="translate(-1.000000, -20.000000)">
                <g id="Bangalore-+-Page-1" transform="translate(1011.000000, 46.000000)" sketch:type="MSShapeGroup">
                    <path d="M5,7.78571429 C4.01428571,7.78571429 3.21428571,6.98571429 3.21428571,6 C3.21428571,5.01428571 4.01428571,4.21428571 5,4.21428571 C5.98571429,4.21428571 6.78571429,5.01428571 6.78571429,6 C6.78571429,6.98571429 5.98571429,7.78571429 5,7.78571429 M5,1 C2.23571429,1 0,3.23571429 0,6 C0,9.75 5,15.2857143 5,15.2857143 C5,15.2857143 10,9.75 10,6 C10,3.23571429 7.76428571,1 5,1" id="location_icn"></path>
                </g>
            </g>
        </g>
    </g>
</svg>