<?xml version="1.0" encoding="utf-8"?>
<!-- Generator: Adobe Illustrator 19.2.1, SVG Export Plug-In . SVG Version: 6.00 Build 0)  -->
<svg version="1.1" id="Layer_1" xmlns="http://www.w3.org/2000/svg" xmlns:xlink="http://www.w3.org/1999/xlink" x="0px" y="0px"
	 viewBox="0 0 242.9 90" style="enable-background:new 0 0 242.9 90;" xml:space="preserve">
<style type="text/css">
	.st0{fill:none;}
	.st1{fill:#7147E5;}
</style>
<g>
	<path class="st0" d="M104.5,42.8c-3.2,0-4.5,3.2-4.5,5.9v5.1c1.3,0.5,2.5,0.8,3.7,0.8c3.4,0,5.6-1.9,5.6-5.9
		C109.4,45.2,107.6,42.8,104.5,42.8z"/>
	<path class="st0" d="M182.6,42.8c-3.1,0-4.7,2.4-4.7,5.6c0,3.2,1.5,6.1,4.7,6.1c3.4,0,4.9-2.6,4.9-6
		C187.5,45.3,185.7,42.8,182.6,42.8z"/>
	<path class="st0" d="M207.7,45.2c0.1-2.1-2.3-2.8-4.1-2.8c-2.5,0-4.4,1.3-5,3.9c1.3,0.9,3.5,1.4,5.3,1.4
		C205.5,47.8,207.6,47.1,207.7,45.2z"/>
	<path class="st1" d="M105.6,39.4c-2.8,0-4.5,1.1-5.8,3.3v-12h-3.7v25.6c2.3,1,4.8,1.7,7.3,1.7c5.5,0.1,9.9-2.7,10.1-9.2
		C113.5,42.4,109.6,39.4,105.6,39.4z M103.7,54.7c-1.2,0-2.4-0.3-3.7-0.8v-5.1c0-2.7,1.3-5.9,4.5-5.9c3.1,0,4.9,2.4,4.8,5.9
		C109.3,52.8,107.1,54.7,103.7,54.7z"/>
	<path class="st1" d="M133.8,52.4V39.7h-4v10.2c0,2.8-2,4.7-4.5,4.7c-2.4,0-3.9-1.7-3.8-4.6V39.7h-4.1V50c0,4.4,1.7,7.8,6.6,7.8
		c2.5,0,4.9-0.8,6.2-3.2c0,3.8,3.2,3.4,5.5,3l0-2.6C134,55.2,133.8,54.6,133.8,52.4z"/>
	<path class="st1" d="M167.8,52.8v-5.7c0-4.1-1.3-7.8-6.1-7.8c-2.5,0-4.9,1-6.4,3.4c-0.9-2.2-3-3.3-5.3-3.4c-2.4,0-4.8,1-5.9,3.2
		c0-3.2-3.2-3.8-6-3v2.6c2.1-0.2,2.1,0.7,2.1,3.1v12.1h4.1V47.3c0-2.8,1.8-4.6,4.3-4.7c2.5,0,3.7,1.8,3.7,4.6v10.3h4V47.2
		c0-2.8,1.7-4.6,4.1-4.6c2.4,0,3.5,1.8,3.4,4.5v6.2c0,4,2.5,5,6.3,4.1V55C167.9,55.3,167.8,54.3,167.8,52.8z"/>
	<path class="st1" d="M183.4,39.2c-2.5,0-5.1,1.4-6.1,3.8v-0.7c0-3-2.7-3.3-5.2-2.8v2.7c2-0.3,1.9,1.4,1.9,3.3v21h3.7V54.7
		c1.1,2.4,3.2,3.2,5.8,3.2c5.4,0,7.9-4.5,7.9-9.3C191.4,43.6,188.8,39.2,183.4,39.2z M182.6,54.5c-3.2,0-4.7-2.8-4.7-6.1
		c0-3.2,1.6-5.6,4.7-5.6c3.2,0,4.9,2.5,4.9,5.8C187.5,51.9,185.9,54.5,182.6,54.5z"/>
	<path class="st1" d="M204.7,50.5c3.4-0.1,6.7-1.7,6.9-5.3c0.2-4.4-4.1-6.1-8-6c-4.7,0.1-8.9,3.1-9,8.9c-0.3,6.3,3.8,9.9,10.1,9.7
		c2.2-0.1,4.3-0.4,6.2-1.4l-0.1-3.2c-1.6,0.7-3.8,1.3-5.9,1.3c-3.9,0.1-6.7-1.9-6.6-5.6C200,50.1,202.4,50.7,204.7,50.5z
		 M203.6,42.5c1.8,0,4.2,0.7,4.1,2.8c-0.1,1.8-2.1,2.5-3.7,2.5c-1.8,0-4-0.5-5.3-1.4C199.2,43.7,201.2,42.5,203.6,42.5z"/>
	<path class="st1" d="M225.2,39.1c-2.2,0-4.5,1.1-5.2,3.2c-0.2-2.9-3.1-3.3-5.7-2.7l0,2.7c1.9-0.1,1.9,0.7,1.9,2.3v12.9h4V47.2
		c0-2.9,2.1-4.4,4.5-4.4c1.3,0,2.5,0.4,3.5,1.1l1-3.5C228.1,39.6,226.7,39.1,225.2,39.1z"/>
	<path class="st1" d="M41.8,70.1c0.1,0.4,0.2,0.7,0.2,1.1c0.1,0.5,0.1,1,0,1.6c0,0.4-0.1,0.8-0.1,1.2c0,0.3-0.1,0.6-0.1,0.9
		c-0.1,1-0.2,2,0.2,2.9c0.2,0.4,0.5,0.7,0.8,0.9c0.3,0.2,0.7,0.2,1.1,0.2c0.4-0.1,0.7-0.2,0.9-0.5c0.3-0.3,0.4-0.6,0.6-1
		c0.1-0.3,0.2-0.5,0.2-0.8c0.2-1,0.1-2.1-0.3-3C44.3,70.8,41.8,70.1,41.8,70.1z"/>
	<path class="st1" d="M48.3,40.5c-3.8,0-5.3,3.8-5.3,7v6c1.5,0.6,3,0.9,4.4,0.9c3.9,0,6.5-2.3,6.6-6.9C54.1,43.2,52,40.5,48.3,40.5z
		"/>
	<path class="st1" d="M73.5,45.7c-1.7-2.5-0.6-5.6-0.2-8.3c0.3-1.9,0.6-3.7,0.6-5.6c0-5.5-3.5-8.5-7.8-10.1c-2-0.7-3.9-0.9-5.9-1.8
		c-2.4-1-3.2-3.6-4.5-5.6c-0.6-0.9-1.3-1.8-2.1-2.4c-1.8-1.2-4.2-1.2-6.2-0.1c-2.5,1.4-4.2,3-6.6,4.4c-1.4,0.8-3,1.3-4.6,1.5
		c-1.7,0.2-3.3,0-4.9-0.2c-1.3-0.1-2.6-0.2-3.9-0.2c-1.6,0-3.4,0.4-4.5,1.7c-0.3,0.3-0.5,0.7-0.7,1.1c-0.8,2-0.1,4.3,0.3,6.3
		c0.1,0.6,0.2,1.2,0.3,1.9c0.2,1.4,0.1,2.9-0.4,4.2c-0.1,0.4-0.3,0.8-0.5,1.1c-0.5,0.9-1.1,1.8-1.9,2.5c-1.1,1-2.4,1.8-3.6,2.9
		c-0.3,0.3-0.6,0.6-0.9,0.9c-0.6,0.7-1.1,1.5-1.5,2.4c-0.8,1.9-0.4,4,0.7,5.7c1,1.5,2.7,2.3,3.9,3.6c1.3,1.4,1.6,3.3,1.8,5.1
		c0.1,1.3,0.1,2.5,0.1,3.8c0,0.5,0,1.1,0,1.6c0,0.6,0,1.2,0.4,1.7c0.3,0.5,0.8,0.8,1.3,0.9c0.3,0,0.7,0,0.9-0.1
		c0.2-0.1,0.5-0.2,0.7-0.4c0.7-0.6,0.9-1.5,1-2.4c0-0.3,0.1-0.6,0.1-0.8c0.1-0.7,0.3-1.5,0.8-2c0.3-0.2,0.7-0.5,1.1-0.5
		c0.4,0,0.9,0.2,1.2,0.4c0.6,0.5,0.7,1.4,0.8,2.2c0.1,1,0.2,2,0.2,3.1c0,0.6,0,1.2,0.1,1.8c0,0.6,0.1,1.2,0.1,1.8
		c0,0.7,0.1,1.5,0.3,2.1c0.1,0.4,0.4,0.8,0.8,1.1c0.4,0.3,1.2,0.6,1.7,0.6c2,0,2.6-1.8,3.3-3.2c0.6-1.2,1.7-2.4,2.9-2.9
		c2.6-1.1,5.7-0.7,7.5,1.6c1.1,1.3,1.6,3,2.2,4.6c0.6,1.5,1.3,3.3,2.7,4.3c0.9,0.6,2.3,0.9,3.4,0.6c0.7-0.2,1.4-0.6,1.9-1.1
		c1.3-1.3,1.9-3.2,2.5-4.9c0.2-0.4,0.3-0.8,0.5-1.2c0.9-1.8,2.9-2.9,4.9-2.4c1.3,0.3,2.4,1.3,3.8,1.6c1.5,0.3,2.9-0.5,3.5-1.9
		c0.5-1.3,0.3-3,0.3-4.4c0-1.4,0.1-2.4,1.1-3.5c1.1-1.2,2.7-0.9,4-1.6c3.3-1.9,2.7-6,0.3-8.3C75.7,47.9,74.4,47,73.5,45.7z
		 M46.9,58.3c-3,0-5.8-0.8-8.6-2v-30h4.4v14.1c1.5-2.6,3.6-3.9,6.8-3.9c4.6,0,9.3,3.4,9.2,11C58.5,55.1,53.4,58.4,46.9,58.3z"/>
</g>
</svg>
