<?xml version="1.0" encoding="UTF-8" standalone="no"?>
<svg width="193px" height="48px" viewBox="0 0 193 48" version="1.1" xmlns="http://www.w3.org/2000/svg" xmlns:xlink="http://www.w3.org/1999/xlink">
    <!-- Generator: Sketch 40.3 (33839) - http://www.bohemiancoding.com/sketch -->
    <title>logo_tagline</title>
    <desc>Created with Sketch.</desc>
    <defs></defs>
    <g id="Page-1" stroke="none" stroke-width="1" fill="none" fill-rule="evenodd">
        <g id="Home_BUMPER" transform="translate(-149.000000, -24.000000)">
            <g id="header" transform="translate(-242.000000, 0.000000)">
                <g id="Page-1" transform="translate(391.000000, 10.000000)">
                    <g id="logo_tagline" transform="translate(0.000000, 6.000000)">
                        <g id="Group-24"></g>
                        <g id="Group-40" transform="translate(0.000000, 8.000000)">
                            <path d="M19.8760584,41.7941974 C19.9362129,42.04903 19.9885391,42.3081888 20.0194403,42.5683777 C20.0629082,42.935897 20.0567279,43.3071245 20.0336549,43.6756738 C20.0161442,43.9568755 19.9893631,44.2374592 19.9590798,44.5176309 C19.9368309,44.7236395 19.9088137,44.92903 19.8836807,45.1346266 C19.8000412,45.8216652 19.7660498,46.5420773 20.0433373,47.1930644 C20.1640584,47.4759142 20.3647107,47.7167382 20.6405562,47.8580601 C20.8789082,47.9800172 21.1590798,48.0280172 21.4238009,47.9837253 C21.6705991,47.9423176 21.8875262,47.8147983 22.0525391,47.6279485 C22.2360927,47.4211159 22.3615519,47.1724635 22.4561099,46.9147468 C22.5242987,46.729133 22.5737408,46.5311588 22.6046421,46.3358627 C22.7138266,45.6412017 22.6612944,44.8610472 22.3943073,44.2065579 C21.5900498,42.2383519 19.8760584,41.7941974 19.8760584,41.7941974" id="Fill-1" fill="#795FF9"></path>
                            <g id="Group-36">
                                <path d="M23.5514163,32.399794 C21.6027811,32.399794 19.7373734,31.8923948 17.9578712,31.128515 L17.9578712,11.5513133 L20.8112961,11.5513133 L20.8112961,20.7327039 C21.8003433,19.0650644 23.1564979,18.1895279 25.2748841,18.1895279 C28.2982661,18.1895279 31.3482232,20.4218369 31.2635536,25.3374077 C31.1224378,30.3096309 27.7603777,32.4848755 23.5514163,32.399794 M44.5655279,26.8839142 C43.7719828,26.1202403 42.8243433,25.4657511 42.1937511,24.5473648 C40.9607897,22.75097 41.7794678,20.6257854 42.0664378,18.6829185 C42.2621459,17.3609614 42.5147124,16.056927 42.5027639,14.7077768 C42.4689785,10.8618026 40.0419914,8.71457511 36.9710215,7.61778541 C35.5425579,7.10791416 34.2195708,6.9791588 32.808206,6.36813734 C31.1424206,5.64628326 30.5480858,3.85751073 29.6424721,2.43399142 C29.2543519,1.82482403 28.7380944,1.14334764 28.1468498,0.767381974 C26.8494077,-0.0576824034 25.1926867,-0.0721030043 23.7458884,0.705373391 C21.960618,1.66496137 20.7709185,2.80130472 19.0824721,3.79612017 C18.1057854,4.37150215 16.9706781,4.72233476 15.8475193,4.83749356 C14.6835708,4.95697854 13.5264206,4.82678112 12.3665923,4.72666094 C11.4440858,4.64714163 10.5176652,4.57545064 9.59103863,4.60408584 C8.45593133,4.6391073 7.19495279,4.88384549 6.41315021,5.78945923 C6.21558798,6.01833476 6.04274678,6.30118455 5.92841202,6.58176824 C5.35261803,7.99272103 5.8824721,9.60824034 6.14224893,11.0334077 C6.22156223,11.4697339 6.2953133,11.9068841 6.35072961,12.3469185 C6.47721888,13.3530644 6.41624034,14.3688927 6.09816309,15.335485 C6.0095794,15.6043262 5.89854077,15.8665751 5.76999142,16.1189356 C5.43193133,16.7818712 4.99127897,17.3825923 4.44782833,17.8928755 C3.66458369,18.6275021 2.73507296,19.1833133 1.9415279,19.9074335 C1.71945064,20.1101459 1.50684979,20.3233648 1.30990558,20.5505923 C0.877081545,21.0503691 0.528927039,21.6173047 0.285012876,22.2322403 C-0.249373391,23.5787124 -0.00154506438,25.0747468 0.772635193,26.2753648 C1.46729614,27.3523777 2.67265236,27.8927382 3.53232618,28.8319313 C4.42351931,29.8051159 4.67773391,31.1647725 4.77229185,32.4381116 C4.8384206,33.3280687 4.84254077,34.2209099 4.83553648,35.112927 C4.83224034,35.4944549 4.8167897,35.8770129 4.84006867,36.2581288 C4.86623176,36.6862146 4.85902146,37.0969957 5.0928412,37.4768755 C5.29823176,37.8104034 5.63876395,38.0464893 6.03347639,38.0782146 C6.22671245,38.0936652 6.4967897,38.0860429 6.6791073,38.0133219 C6.84412017,37.9480172 7.04456652,37.8520172 7.17826609,37.7331502 C7.65744206,37.3069185 7.7975279,36.6435708 7.89290987,36.0381116 C7.92422318,35.8403433 7.95203433,35.6417511 7.98293562,35.4437768 C8.0591588,34.9555365 8.16298712,34.3811845 8.53936481,34.0256137 C8.72147639,33.8535966 9.02987124,33.7011502 9.28367382,33.6850815 C9.55993133,33.6673648 9.90664378,33.791382 10.1126524,33.9708155 C10.5514506,34.3529614 10.607073,34.968103 10.6723777,35.5047554 C10.7603433,36.2270215 10.7799142,36.9486695 10.799279,37.6752618 C10.8104034,38.0977854 10.8221459,38.5217511 10.8499571,38.9434506 C10.8773562,39.3577339 10.9057854,39.7713991 10.9333906,40.1852704 C10.9665579,40.6829871 10.9972532,41.2109871 11.16103,41.6862489 C11.2654764,41.9901116 11.4521202,42.2774936 11.7106609,42.4719657 C12.0143176,42.7000172 12.5318112,42.8955193 12.9149871,42.8955193 C14.3432446,42.8955193 14.7787468,41.6539056 15.2500944,40.6413734 C15.6563433,39.769133 16.44,38.9411845 17.3206867,38.569133 C19.1786781,37.7842403 21.3242575,38.1087039 22.6299399,39.7060944 C23.4070043,40.656412 23.7568069,41.8244807 24.1991073,42.9455794 C24.6142146,43.9966352 25.1502489,45.2963433 26.111691,45.9629871 C26.7581459,46.4114678 27.7296824,46.6207725 28.4978884,46.41703 C28.9836567,46.2878627 29.4768412,46.0013047 29.8307639,45.648 C30.7372017,44.7434163 31.1422146,43.3790215 31.6246867,42.2224893 C31.7456137,41.9322232 31.824927,41.6252704 31.968927,41.3446867 C32.6147639,40.0863863 34.0483777,39.3089099 35.4572704,39.6591245 C36.4007897,39.8933562 37.1673476,40.5927554 38.1189013,40.7925837 C39.1549185,41.0101288 40.1808412,40.4419571 40.5885322,39.4572361 C40.9752103,38.5242232 40.8293562,37.3736652 40.8071073,36.3866781 C40.7848584,35.3906266 40.8868326,34.6928755 41.5839657,33.9261116 C42.3385751,33.095485 43.4998455,33.287485 44.3865064,32.7650472 C46.6919485,31.4074506 46.2826094,28.536721 44.5655279,26.8839142" id="Fill-3" fill="#795FF9"></path>
                                <path d="M24.4555262,20.7893768 C21.9978438,20.7893768 20.9811914,23.2754884 20.9811914,25.3374283 L20.9811914,29.2639519 C21.9694146,29.6314712 22.9304446,29.8572567 23.8335863,29.8572567 C26.4049854,29.8572567 28.099818,28.3886215 28.1280412,25.3374283 C28.2129167,22.5977202 26.8287451,20.7893768 24.4555262,20.7893768" id="Fill-6" fill="#7147E6"></path>
                                <path d="M25.2748429,18.1894249 C23.1564567,18.1894249 21.8003021,19.0651674 20.8114609,20.7328069 L20.8114609,11.5514163 L17.95783,11.5514163 L17.95783,31.128618 C19.7375382,31.8922918 21.6027399,32.399691 23.5513751,32.399691 C27.7603365,32.4847725 31.1226026,30.3095279 31.2635124,25.3375107 C31.348182,20.4217339 28.2984309,18.1894249 25.2748429,18.1894249" id="Fill-8" fill="#FFFFFF"></path>
                                <path d="M28.1279794,25.3374489 C28.0997562,28.3886421 26.4051296,29.8572773 23.8335245,29.8572773 C22.9303828,29.8572773 21.9693528,29.6314918 20.9811296,29.2639725 L20.9811296,25.3374489 C20.9811296,23.275509 21.997782,20.7893974 24.4554644,20.7893974 C26.8286833,20.7893974 28.2128549,22.5977408 28.1279794,25.3374489" id="Fill-10" fill="#795FF9"></path>
                            </g>
                        </g>
                        <path d="M54.9902344,51 L54.9902344,42.46875 L57.3984375,42.46875 C57.9609403,42.46875 58.4726539,42.5624991 58.9335938,42.75 C59.3945336,42.9375009 59.7900374,43.2050764 60.1201172,43.5527344 C60.450197,43.9003924 60.7060538,44.3222631 60.8876953,44.8183594 C61.0693368,45.3144556 61.1601562,45.8710907 61.1601562,46.4882812 L61.1601562,46.9921875 C61.1601562,47.6093781 61.0693368,48.1660131 60.8876953,48.6621094 C60.7060538,49.1582056 60.4482439,49.5790998 60.1142578,49.9248047 C59.7802718,50.2705095 59.3750024,50.5361319 58.8984375,50.7216797 C58.4218726,50.9072275 57.8886748,51 57.2988281,51 L54.9902344,51 Z M56.1152344,43.3945312 L56.1152344,50.0800781 L57.2988281,50.0800781 C57.7519554,50.0800781 58.1503889,50.0068367 58.4941406,49.8603516 C58.8378923,49.7138665 59.1249988,49.5058607 59.3554688,49.2363281 C59.5859387,48.9667955 59.7587885,48.64258 59.8740234,48.2636719 C59.9892584,47.8847637 60.046875,47.4609398 60.046875,46.9921875 L60.046875,46.4707031 C60.046875,45.9824194 59.9882818,45.5478535 59.8710938,45.1669922 C59.7539057,44.7861309 59.5820324,44.4638685 59.3554688,44.2001953 C59.1289051,43.9365221 58.8515641,43.7363288 58.5234375,43.5996094 C58.1953109,43.4628899 57.8203146,43.3945312 57.3984375,43.3945312 L56.1152344,43.3945312 Z M65.3203125,51.1171875 C64.878904,51.1171875 64.479494,51.0410164 64.1220703,50.8886719 C63.7646467,50.7363274 63.4589856,50.5244154 63.2050781,50.2529297 C62.9511706,49.981444 62.7558601,49.658205 62.6191406,49.2832031 C62.4824212,48.9082012 62.4140625,48.4980491 62.4140625,48.0527344 L62.4140625,47.8066406 C62.4140625,47.291013 62.4912102,46.8300802 62.6455078,46.4238281 C62.7998055,46.0175761 63.0058581,45.6757826 63.2636719,45.3984375 C63.5214857,45.1210924 63.8164046,44.9091804 64.1484375,44.7626953 C64.4804704,44.6162102 64.8261701,44.5429688 65.1855469,44.5429688 C65.6386741,44.5429688 66.0292952,44.6220695 66.3574219,44.7802734 C66.6855485,44.9384774 66.9560536,45.1562486 67.1689453,45.4335938 C67.381837,45.7109389 67.539062,46.0390606 67.640625,46.4179688 C67.742188,46.7968769 67.7929688,47.2089821 67.7929688,47.6542969 L67.7929688,48.140625 L63.4980469,48.140625 C63.5058594,48.4335952 63.5537105,48.70703 63.6416016,48.9609375 C63.7294926,49.214845 63.8544914,49.4355459 64.0166016,49.6230469 C64.1787117,49.8105478 64.3740223,49.9589838 64.6025391,50.0683594 C64.8310558,50.1777349 65.0898423,50.2324219 65.3789062,50.2324219 C65.7617207,50.2324219 66.0859362,50.1542977 66.3515625,49.9980469 C66.6171888,49.8417961 66.8496084,49.6347669 67.0488281,49.3769531 L67.7109375,49.8925781 C67.6093745,50.0488289 67.4863288,50.2001946 67.3417969,50.3466797 C67.1972649,50.4931648 67.0283213,50.6240229 66.8349609,50.7392578 C66.6416006,50.8544928 66.4199231,50.9462887 66.1699219,51.0146484 C65.9199206,51.0830082 65.6367203,51.1171875 65.3203125,51.1171875 L65.3203125,51.1171875 Z M65.1855469,45.4335938 C64.9667958,45.4335938 64.7656259,45.4736324 64.5820312,45.5537109 C64.3984366,45.6337895 64.2343757,45.7499992 64.0898438,45.9023438 C63.9453118,46.0546883 63.8251958,46.2441395 63.7294922,46.4707031 C63.6337886,46.6972668 63.5683596,46.9570298 63.5332031,47.25 L66.7089844,47.25 L66.7089844,47.1679688 C66.6972656,46.9570302 66.6630862,46.7480479 66.6064453,46.5410156 C66.5498044,46.3339833 66.4619147,46.1484383 66.3427734,45.984375 C66.2236322,45.8203117 66.0703134,45.6875005 65.8828125,45.5859375 C65.6953116,45.4843745 65.462892,45.4335938 65.1855469,45.4335938 L65.1855469,45.4335938 Z M70.0722656,44.6601562 L70.1074219,45.4570312 C70.3339855,45.1718736 70.6074203,44.948243 70.9277344,44.7861328 C71.2480485,44.6240226 71.6074199,44.5429688 72.0058594,44.5429688 C72.3144547,44.5429688 72.5937488,44.5849605 72.84375,44.6689453 C73.0937512,44.7529301 73.3066397,44.8876944 73.4824219,45.0732422 C73.658204,45.25879 73.7939448,45.4970689 73.8896484,45.7880859 C73.985352,46.079103 74.0332031,46.4316386 74.0332031,46.8457031 L74.0332031,51 L72.9492188,51 L72.9492188,46.8339844 C72.9492188,46.5878894 72.9218753,46.3779306 72.8671875,46.2041016 C72.8124997,46.0302726 72.7314458,45.8886724 72.6240234,45.7792969 C72.516601,45.6699213 72.3837899,45.589844 72.2255859,45.5390625 C72.067382,45.488281 71.8847667,45.4628906 71.6777344,45.4628906 C71.3261701,45.4628906 71.0175795,45.5566397 70.7519531,45.7441406 C70.4863268,45.9316416 70.2792976,46.1777329 70.1308594,46.4824219 L70.1308594,51 L69.046875,51 L69.046875,44.6601562 L70.0722656,44.6601562 Z M77.1386719,43.125 L77.1386719,44.6601562 L78.3222656,44.6601562 L78.3222656,45.4980469 L77.1386719,45.4980469 L77.1386719,49.4296875 C77.1386719,49.5937508 77.1582029,49.7255854 77.1972656,49.8251953 C77.2363283,49.9248052 77.2880856,50.0019529 77.3525391,50.0566406 C77.4169925,50.1113284 77.4912105,50.1474608 77.5751953,50.1650391 C77.6591801,50.1826173 77.7460933,50.1914062 77.8359375,50.1914062 C77.9257817,50.1914062 78.0205073,50.1826173 78.1201172,50.1650391 C78.2197271,50.1474608 78.2968747,50.1328126 78.3515625,50.1210938 L78.3515625,51 C78.2656246,51.0234376 78.1542976,51.048828 78.0175781,51.0761719 C77.8808587,51.1035158 77.7148447,51.1171875 77.5195312,51.1171875 C77.3203115,51.1171875 77.1318368,51.0888675 76.9541016,51.0322266 C76.7763663,50.9755857 76.6210944,50.88086 76.4882812,50.7480469 C76.3554681,50.6152337 76.2500004,50.4404308 76.171875,50.2236328 C76.0937496,50.0068349 76.0546875,49.740236 76.0546875,49.4238281 L76.0546875,45.4980469 L74.9003906,45.4980469 L74.9003906,44.6601562 L76.0546875,44.6601562 L76.0546875,43.125 L77.1386719,43.125 Z M83.0917969,51 L83.0917969,45.4980469 L82.0898438,45.4980469 L82.0898438,44.6601562 L83.0917969,44.6601562 L83.0917969,43.9921875 C83.0917969,43.6523421 83.139648,43.3505873 83.2353516,43.0869141 C83.3310552,42.8232409 83.4687491,42.6015634 83.6484375,42.421875 C83.8281259,42.2421866 84.0468737,42.1064458 84.3046875,42.0146484 C84.5625013,41.9228511 84.853514,41.8769531 85.1777344,41.8769531 C85.4277356,41.8769531 85.67578,41.9101559 85.921875,41.9765625 L85.8632812,42.8554688 C85.7812496,42.8398437 85.6884771,42.8271485 85.5849609,42.8173828 C85.4814448,42.8076171 85.3789068,42.8027344 85.2773438,42.8027344 C84.9257795,42.8027344 84.6542978,42.9052724 84.4628906,43.1103516 C84.2714834,43.3154307 84.1757812,43.6093731 84.1757812,43.9921875 L84.1757812,44.6601562 L85.5292969,44.6601562 L85.5292969,45.4980469 L84.1757812,45.4980469 L84.1757812,51 L83.0917969,51 Z M89.7890625,45.6328125 C89.695312,45.6171874 89.6083988,45.6064453 89.5283203,45.6005859 C89.4482418,45.5947265 89.3574224,45.5917969 89.2558594,45.5917969 C88.8808575,45.5917969 88.5751965,45.6738273 88.3388672,45.8378906 C88.1025379,46.0019539 87.9257818,46.2226549 87.8085938,46.5 L87.8085938,51 L86.7246094,51 L86.7246094,44.6601562 L87.7792969,44.6601562 L87.796875,45.3925781 C87.9609383,45.1308581 88.1660144,44.9238289 88.4121094,44.7714844 C88.6582044,44.6191399 88.9570295,44.5429688 89.3085938,44.5429688 C89.3867191,44.5429688 89.476562,44.5517577 89.578125,44.5693359 C89.679688,44.5869142 89.7499998,44.6054687 89.7890625,44.625 L89.7890625,45.6328125 Z M93.4160156,51.1171875 C92.9746072,51.1171875 92.5751971,51.0410164 92.2177734,50.8886719 C91.8603498,50.7363274 91.5546888,50.5244154 91.3007812,50.2529297 C91.0468737,49.981444 90.8515632,49.658205 90.7148438,49.2832031 C90.5781243,48.9082012 90.5097656,48.4980491 90.5097656,48.0527344 L90.5097656,47.8066406 C90.5097656,47.291013 90.5869133,46.8300802 90.7412109,46.4238281 C90.8955086,46.0175761 91.1015612,45.6757826 91.359375,45.3984375 C91.6171888,45.1210924 91.9121077,44.9091804 92.2441406,44.7626953 C92.5761735,44.6162102 92.9218732,44.5429688 93.28125,44.5429688 C93.7343773,44.5429688 94.1249984,44.6220695 94.453125,44.7802734 C94.7812516,44.9384774 95.0517567,45.1562486 95.2646484,45.4335938 C95.4775401,45.7109389 95.6347651,46.0390606 95.7363281,46.4179688 C95.8378911,46.7968769 95.8886719,47.2089821 95.8886719,47.6542969 L95.8886719,48.140625 L91.59375,48.140625 C91.6015625,48.4335952 91.6494136,48.70703 91.7373047,48.9609375 C91.8251958,49.214845 91.9501945,49.4355459 92.1123047,49.6230469 C92.2744149,49.8105478 92.4697254,49.9589838 92.6982422,50.0683594 C92.926759,50.1777349 93.1855454,50.2324219 93.4746094,50.2324219 C93.8574238,50.2324219 94.1816393,50.1542977 94.4472656,49.9980469 C94.712892,49.8417961 94.9453115,49.6347669 95.1445312,49.3769531 L95.8066406,49.8925781 C95.7050776,50.0488289 95.582032,50.2001946 95.4375,50.3466797 C95.292968,50.4931648 95.1240244,50.6240229 94.9306641,50.7392578 C94.7373037,50.8544928 94.5156262,50.9462887 94.265625,51.0146484 C94.0156238,51.0830082 93.7324235,51.1171875 93.4160156,51.1171875 L93.4160156,51.1171875 Z M93.28125,45.4335938 C93.0624989,45.4335938 92.861329,45.4736324 92.6777344,45.5537109 C92.4941397,45.6337895 92.3300788,45.7499992 92.1855469,45.9023438 C92.0410149,46.0546883 91.9208989,46.2441395 91.8251953,46.4707031 C91.7294917,46.6972668 91.6640627,46.9570298 91.6289062,47.25 L94.8046875,47.25 L94.8046875,47.1679688 C94.7929687,46.9570302 94.7587893,46.7480479 94.7021484,46.5410156 C94.6455075,46.3339833 94.5576178,46.1484383 94.4384766,45.984375 C94.3193353,45.8203117 94.1660166,45.6875005 93.9785156,45.5859375 C93.7910147,45.4843745 93.5585951,45.4335938 93.28125,45.4335938 L93.28125,45.4335938 Z M99.7734375,51.1171875 C99.332029,51.1171875 98.932619,51.0410164 98.5751953,50.8886719 C98.2177717,50.7363274 97.9121106,50.5244154 97.6582031,50.2529297 C97.4042956,49.981444 97.2089851,49.658205 97.0722656,49.2832031 C96.9355462,48.9082012 96.8671875,48.4980491 96.8671875,48.0527344 L96.8671875,47.8066406 C96.8671875,47.291013 96.9443352,46.8300802 97.0986328,46.4238281 C97.2529305,46.0175761 97.4589831,45.6757826 97.7167969,45.3984375 C97.9746107,45.1210924 98.2695296,44.9091804 98.6015625,44.7626953 C98.9335954,44.6162102 99.2792951,44.5429688 99.6386719,44.5429688 C100.091799,44.5429688 100.48242,44.6220695 100.810547,44.7802734 C101.138674,44.9384774 101.409179,45.1562486 101.62207,45.4335938 C101.834962,45.7109389 101.992187,46.0390606 102.09375,46.4179688 C102.195313,46.7968769 102.246094,47.2089821 102.246094,47.6542969 L102.246094,48.140625 L97.9511719,48.140625 C97.9589844,48.4335952 98.0068355,48.70703 98.0947266,48.9609375 C98.1826176,49.214845 98.3076164,49.4355459 98.4697266,49.6230469 C98.6318367,49.8105478 98.8271473,49.9589838 99.0556641,50.0683594 C99.2841808,50.1777349 99.5429673,50.2324219 99.8320312,50.2324219 C100.214846,50.2324219 100.539061,50.1542977 100.804688,49.9980469 C101.070314,49.8417961 101.302733,49.6347669 101.501953,49.3769531 L102.164062,49.8925781 C102.062499,50.0488289 101.939454,50.2001946 101.794922,50.3466797 C101.65039,50.4931648 101.481446,50.6240229 101.288086,50.7392578 C101.094726,50.8544928 100.873048,50.9462887 100.623047,51.0146484 C100.373046,51.0830082 100.089845,51.1171875 99.7734375,51.1171875 L99.7734375,51.1171875 Z M99.6386719,45.4335938 C99.4199208,45.4335938 99.2187509,45.4736324 99.0351562,45.5537109 C98.8515616,45.6337895 98.6875007,45.7499992 98.5429688,45.9023438 C98.3984368,46.0546883 98.2783208,46.2441395 98.1826172,46.4707031 C98.0869136,46.6972668 98.0214846,46.9570298 97.9863281,47.25 L101.162109,47.25 L101.162109,47.1679688 C101.150391,46.9570302 101.116211,46.7480479 101.05957,46.5410156 C101.002929,46.3339833 100.91504,46.1484383 100.795898,45.984375 C100.676757,45.8203117 100.523438,45.6875005 100.335938,45.5859375 C100.148437,45.4843745 99.916017,45.4335938 99.6386719,45.4335938 L99.6386719,45.4335938 Z M104.484375,50.5839844 C104.484375,50.7597665 104.461914,50.9433584 104.416992,51.1347656 C104.37207,51.3261728 104.305665,51.5156241 104.217773,51.703125 C104.129882,51.8906259 104.023438,52.0703116 103.898438,52.2421875 C103.773437,52.4140634 103.628907,52.5664056 103.464844,52.6992188 L102.849609,52.2773438 C103.033204,52.01953 103.174804,51.7548842 103.274414,51.4833984 C103.374024,51.2119127 103.423828,50.9179703 103.423828,50.6015625 L103.423828,49.7167969 L104.484375,49.7167969 L104.484375,50.5839844 Z M113.542969,48.84375 C113.542969,48.6445303 113.512696,48.4687508 113.452148,48.3164062 C113.391601,48.1640617 113.28418,48.0244147 113.129883,47.8974609 C112.975585,47.7705072 112.767579,47.6513677 112.505859,47.5400391 C112.244139,47.4287104 111.912111,47.3144537 111.509766,47.1972656 C111.087889,47.0761713 110.706056,46.9384773 110.364258,46.7841797 C110.022459,46.629882 109.731447,46.4521494 109.491211,46.2509766 C109.250975,46.0498037 109.066407,45.8203138 108.9375,45.5625 C108.808593,45.3046862 108.744141,45.0097673 108.744141,44.6777344 C108.744141,44.3457015 108.813476,44.0380874 108.952148,43.7548828 C109.090821,43.4716783 109.287108,43.225587 109.541016,43.0166016 C109.794923,42.8076161 110.099608,42.6445318 110.455078,42.5273438 C110.810549,42.4101557 111.207029,42.3515625 111.644531,42.3515625 C112.125002,42.3515625 112.552733,42.4238274 112.927734,42.5683594 C113.302736,42.7128913 113.618163,42.9042957 113.874023,43.1425781 C114.129884,43.3808606 114.324218,43.6562484 114.457031,43.96875 C114.589844,44.2812516 114.65625,44.603514 114.65625,44.9355469 L113.525391,44.9355469 C113.525391,44.6972644 113.487305,44.4765635 113.411133,44.2734375 C113.334961,44.0703115 113.218751,43.894532 113.0625,43.7460938 C112.906249,43.5976555 112.710939,43.4824223 112.476562,43.4003906 C112.242186,43.318359 111.964845,43.2773438 111.644531,43.2773438 C111.343748,43.2773438 111.082032,43.3124996 110.859375,43.3828125 C110.636718,43.4531254 110.453126,43.5498041 110.308594,43.6728516 C110.164062,43.7958991 110.056641,43.9414054 109.986328,44.109375 C109.916015,44.2773446 109.880859,44.4609365 109.880859,44.6601562 C109.880859,44.8398446 109.918945,45.0039055 109.995117,45.1523438 C110.071289,45.300782 110.189452,45.4374994 110.349609,45.5625 C110.509766,45.6875006 110.715819,45.8027338 110.967773,45.9082031 C111.219728,46.0136724 111.521483,46.1152339 111.873047,46.2128906 C112.357424,46.3496101 112.775389,46.5009757 113.126953,46.6669922 C113.478517,46.8330086 113.768554,47.0214833 113.99707,47.2324219 C114.225587,47.4433604 114.395507,47.6796862 114.506836,47.9414062 C114.618165,48.2031263 114.673828,48.4999983 114.673828,48.8320312 C114.673828,49.1796892 114.603516,49.4941392 114.462891,49.7753906 C114.322265,50.056642 114.122072,50.296874 113.862305,50.4960938 C113.602538,50.6953135 113.290041,50.8486323 112.924805,50.9560547 C112.559568,51.0634771 112.152346,51.1171875 111.703125,51.1171875 C111.441405,51.1171875 111.179689,51.0927737 110.917969,51.0439453 C110.656249,50.9951169 110.405275,50.9218755 110.165039,50.8242188 C109.924803,50.726562 109.702149,50.6054695 109.49707,50.4609375 C109.291991,50.3164055 109.113282,50.1484385 108.960938,49.9570312 C108.808593,49.765624 108.689454,49.5507824 108.603516,49.3125 C108.517578,49.0742176 108.474609,48.8125014 108.474609,48.5273438 L109.605469,48.5273438 C109.605469,48.820314 109.663085,49.071288 109.77832,49.2802734 C109.893555,49.4892589 110.047851,49.6621087 110.241211,49.7988281 C110.434571,49.9355476 110.657225,50.0361325 110.90918,50.1005859 C111.161134,50.1650394 111.42578,50.1972656 111.703125,50.1972656 C112.296878,50.1972656 112.751952,50.0761731 113.068359,49.8339844 C113.384767,49.5917957 113.542969,49.2617208 113.542969,48.84375 L113.542969,48.84375 Z M118.488281,50.2324219 C118.679688,50.2324219 118.86328,50.2011722 119.039062,50.1386719 C119.214845,50.0761716 119.370117,49.9902349 119.504883,49.8808594 C119.639649,49.7714838 119.749023,49.6416023 119.833008,49.4912109 C119.916993,49.3408196 119.966797,49.1777353 119.982422,49.0019531 L121.007812,49.0019531 C120.992187,49.2832045 120.91504,49.5517565 120.776367,49.8076172 C120.637695,50.0634778 120.455079,50.288085 120.228516,50.4814453 C120.001952,50.6748057 119.739259,50.829101 119.44043,50.9443359 C119.1416,51.0595709 118.82422,51.1171875 118.488281,51.1171875 C118.011716,51.1171875 117.596681,51.0322274 117.243164,50.8623047 C116.889647,50.692382 116.595704,50.4628921 116.361328,50.1738281 C116.126952,49.8847642 115.952149,49.54883 115.836914,49.1660156 C115.721679,48.7832012 115.664062,48.3789084 115.664062,47.953125 L115.664062,47.7070312 C115.664062,47.2812479 115.721679,46.876955 115.836914,46.4941406 C115.952149,46.1113262 116.126952,45.7753921 116.361328,45.4863281 C116.595704,45.1972642 116.88867,44.9677743 117.240234,44.7978516 C117.591799,44.6279288 118.005857,44.5429688 118.482422,44.5429688 C118.853517,44.5429688 119.190428,44.6015619 119.493164,44.71875 C119.7959,44.8359381 120.057616,44.9970693 120.27832,45.2021484 C120.499025,45.4072276 120.671874,45.6503892 120.796875,45.9316406 C120.921876,46.212892 120.992187,46.5156234 121.007812,46.8398438 L119.982422,46.8398438 C119.966797,46.6445303 119.920899,46.4619149 119.844727,46.2919922 C119.768554,46.1220695 119.666016,45.9736334 119.537109,45.8466797 C119.408202,45.7197259 119.254884,45.619141 119.077148,45.5449219 C118.899413,45.4707028 118.701173,45.4335938 118.482422,45.4335938 C118.146483,45.4335938 117.868165,45.4999993 117.647461,45.6328125 C117.426757,45.7656257 117.249024,45.9404286 117.114258,46.1572266 C116.979492,46.3740245 116.884766,46.6181627 116.830078,46.8896484 C116.77539,47.1611342 116.748047,47.4335924 116.748047,47.7070312 L116.748047,47.953125 C116.748047,48.2343764 116.77539,48.5107408 116.830078,48.7822266 C116.884766,49.0537123 116.978515,49.2968739 117.111328,49.5117188 C117.244141,49.7265636 117.421874,49.90039 117.644531,50.0332031 C117.867189,50.1660163 118.148436,50.2324219 118.488281,50.2324219 L118.488281,50.2324219 Z M125.291016,45.6328125 C125.197265,45.6171874 125.110352,45.6064453 125.030273,45.6005859 C124.950195,45.5947265 124.859376,45.5917969 124.757812,45.5917969 C124.382811,45.5917969 124.07715,45.6738273 123.84082,45.8378906 C123.604491,46.0019539 123.427735,46.2226549 123.310547,46.5 L123.310547,51 L122.226562,51 L122.226562,44.6601562 L123.28125,44.6601562 L123.298828,45.3925781 C123.462891,45.1308581 123.667968,44.9238289 123.914062,44.7714844 C124.160157,44.6191399 124.458983,44.5429688 124.810547,44.5429688 C124.888672,44.5429688 124.978515,44.5517577 125.080078,44.5693359 C125.181641,44.5869142 125.251953,44.6054687 125.291016,44.625 L125.291016,45.6328125 Z M130.201172,51 C130.162109,50.9218746 130.130859,50.8232428 130.107422,50.7041016 C130.083984,50.5849603 130.064453,50.4609381 130.048828,50.3320312 C129.947265,50.4375005 129.833008,50.5380855 129.706055,50.6337891 C129.579101,50.7294927 129.44043,50.8134762 129.290039,50.8857422 C129.139648,50.9580082 128.976563,51.0146482 128.800781,51.0556641 C128.624999,51.0966799 128.439454,51.1171875 128.244141,51.1171875 C127.91992,51.1171875 127.625978,51.0683599 127.362305,50.9707031 C127.098631,50.8730464 126.874024,50.7402352 126.688477,50.5722656 C126.502929,50.404296 126.359376,50.2060558 126.257812,49.9775391 C126.156249,49.7490223 126.105469,49.5039076 126.105469,49.2421875 C126.105469,48.9023421 126.171874,48.6025404 126.304688,48.3427734 C126.437501,48.0830065 126.627928,47.8652353 126.875977,47.6894531 C127.124025,47.513671 127.423826,47.3808598 127.775391,47.2910156 C128.126955,47.2011714 128.519529,47.15625 128.953125,47.15625 L130.03125,47.15625 L130.03125,46.6582031 C130.03125,46.279295 129.91797,45.9775402 129.691406,45.7529297 C129.464843,45.5283192 129.130862,45.4160156 128.689453,45.4160156 C128.486327,45.4160156 128.300782,45.4433591 128.132812,45.4980469 C127.964843,45.5527346 127.82129,45.6259761 127.702148,45.7177734 C127.583007,45.8095708 127.490235,45.916015 127.423828,46.0371094 C127.357422,46.1582037 127.324219,46.2851556 127.324219,46.4179688 L126.234375,46.4179688 C126.234375,46.1914051 126.293945,45.966798 126.413086,45.7441406 C126.532227,45.5214833 126.701171,45.32129 126.919922,45.1435547 C127.138673,44.9658194 127.403319,44.8212896 127.713867,44.7099609 C128.024416,44.5986323 128.371092,44.5429688 128.753906,44.5429688 C129.097658,44.5429688 129.415038,44.5869136 129.706055,44.6748047 C129.997072,44.7626958 130.246093,44.8955069 130.453125,45.0732422 C130.660157,45.2509775 130.822265,45.4726549 130.939453,45.7382812 C131.056641,46.0039076 131.115234,46.3144513 131.115234,46.6699219 L131.115234,49.6171875 C131.115234,49.8320323 131.133789,50.057616 131.170898,50.2939453 C131.208008,50.5302746 131.263672,50.7343741 131.337891,50.90625 L131.337891,51 L130.201172,51 Z M128.402344,50.1738281 C128.597657,50.1738281 128.781249,50.1464846 128.953125,50.0917969 C129.125001,50.0371091 129.281249,49.9658208 129.421875,49.8779297 C129.562501,49.7900386 129.68457,49.6894537 129.788086,49.5761719 C129.891602,49.4628901 129.972656,49.3457037 130.03125,49.2246094 L130.03125,47.9238281 L129.128906,47.9238281 C128.507809,47.9238281 128.029299,48.0205068 127.693359,48.2138672 C127.35742,48.4072275 127.189453,48.6992168 127.189453,49.0898438 C127.189453,49.2421883 127.214843,49.384765 127.265625,49.5175781 C127.316407,49.6503913 127.393554,49.764648 127.49707,49.8603516 C127.600586,49.9560552 127.727538,50.0322263 127.87793,50.0888672 C128.028321,50.1455081 128.203124,50.1738281 128.402344,50.1738281 L128.402344,50.1738281 Z M134.285156,43.125 L134.285156,44.6601562 L135.46875,44.6601562 L135.46875,45.4980469 L134.285156,45.4980469 L134.285156,49.4296875 C134.285156,49.5937508 134.304687,49.7255854 134.34375,49.8251953 C134.382813,49.9248052 134.43457,50.0019529 134.499023,50.0566406 C134.563477,50.1113284 134.637695,50.1474608 134.72168,50.1650391 C134.805664,50.1826173 134.892578,50.1914062 134.982422,50.1914062 C135.072266,50.1914062 135.166992,50.1826173 135.266602,50.1650391 C135.366211,50.1474608 135.443359,50.1328126 135.498047,50.1210938 L135.498047,51 C135.412109,51.0234376 135.300782,51.048828 135.164062,51.0761719 C135.027343,51.1035158 134.861329,51.1171875 134.666016,51.1171875 C134.466796,51.1171875 134.278321,51.0888675 134.100586,51.0322266 C133.922851,50.9755857 133.767579,50.88086 133.634766,50.7480469 C133.501952,50.6152337 133.396485,50.4404308 133.318359,50.2236328 C133.240234,50.0068349 133.201172,49.740236 133.201172,49.4238281 L133.201172,45.4980469 L132.046875,45.4980469 L132.046875,44.6601562 L133.201172,44.6601562 L133.201172,43.125 L134.285156,43.125 Z M139.277344,50.2324219 C139.468751,50.2324219 139.652343,50.2011722 139.828125,50.1386719 C140.003907,50.0761716 140.159179,49.9902349 140.293945,49.8808594 C140.428712,49.7714838 140.538086,49.6416023 140.62207,49.4912109 C140.706055,49.3408196 140.755859,49.1777353 140.771484,49.0019531 L141.796875,49.0019531 C141.78125,49.2832045 141.704102,49.5517565 141.56543,49.8076172 C141.426757,50.0634778 141.244142,50.288085 141.017578,50.4814453 C140.791014,50.6748057 140.528322,50.829101 140.229492,50.9443359 C139.930663,51.0595709 139.613283,51.1171875 139.277344,51.1171875 C138.800779,51.1171875 138.385744,51.0322274 138.032227,50.8623047 C137.678709,50.692382 137.384767,50.4628921 137.150391,50.1738281 C136.916014,49.8847642 136.741212,49.54883 136.625977,49.1660156 C136.510742,48.7832012 136.453125,48.3789084 136.453125,47.953125 L136.453125,47.7070312 C136.453125,47.2812479 136.510742,46.876955 136.625977,46.4941406 C136.741212,46.1113262 136.916014,45.7753921 137.150391,45.4863281 C137.384767,45.1972642 137.677733,44.9677743 138.029297,44.7978516 C138.380861,44.6279288 138.794919,44.5429688 139.271484,44.5429688 C139.64258,44.5429688 139.979491,44.6015619 140.282227,44.71875 C140.584962,44.8359381 140.846679,44.9970693 141.067383,45.2021484 C141.288087,45.4072276 141.460937,45.6503892 141.585938,45.9316406 C141.710938,46.212892 141.78125,46.5156234 141.796875,46.8398438 L140.771484,46.8398438 C140.755859,46.6445303 140.709961,46.4619149 140.633789,46.2919922 C140.557617,46.1220695 140.455079,45.9736334 140.326172,45.8466797 C140.197265,45.7197259 140.043946,45.619141 139.866211,45.5449219 C139.688476,45.4707028 139.490235,45.4335938 139.271484,45.4335938 C138.935545,45.4335938 138.657228,45.4999993 138.436523,45.6328125 C138.215819,45.7656257 138.038087,45.9404286 137.90332,46.1572266 C137.768554,46.3740245 137.673828,46.6181627 137.619141,46.8896484 C137.564453,47.1611342 137.537109,47.4335924 137.537109,47.7070312 L137.537109,47.953125 C137.537109,48.2343764 137.564453,48.5107408 137.619141,48.7822266 C137.673828,49.0537123 137.767577,49.2968739 137.900391,49.5117188 C138.033204,49.7265636 138.210936,49.90039 138.433594,50.0332031 C138.656251,50.1660163 138.937498,50.2324219 139.277344,50.2324219 L139.277344,50.2324219 Z M144.099609,45.4277344 C144.326173,45.1503892 144.597655,44.9335945 144.914062,44.7773438 C145.23047,44.621093 145.583982,44.5429688 145.974609,44.5429688 C146.283205,44.5429688 146.562499,44.5849605 146.8125,44.6689453 C147.062501,44.7529301 147.27539,44.8876944 147.451172,45.0732422 C147.626954,45.25879 147.762695,45.4970689 147.858398,45.7880859 C147.954102,46.079103 148.001953,46.4316386 148.001953,46.8457031 L148.001953,51 L146.917969,51 L146.917969,46.8339844 C146.917969,46.5878894 146.890625,46.3779306 146.835938,46.2041016 C146.78125,46.0302726 146.700196,45.8886724 146.592773,45.7792969 C146.485351,45.6699213 146.35254,45.589844 146.194336,45.5390625 C146.036132,45.488281 145.853517,45.4628906 145.646484,45.4628906 C145.29492,45.4628906 144.986329,45.5566397 144.720703,45.7441406 C144.455077,45.9316416 144.248048,46.1777329 144.099609,46.4824219 L144.099609,51 L143.015625,51 L143.015625,42 L144.099609,42 L144.099609,45.4277344 Z M153.128906,51 L153.128906,45.4980469 L152.126953,45.4980469 L152.126953,44.6601562 L153.128906,44.6601562 L153.128906,43.9921875 C153.128906,43.6523421 153.176757,43.3505873 153.272461,43.0869141 C153.368165,42.8232409 153.505858,42.6015634 153.685547,42.421875 C153.865235,42.2421866 154.083983,42.1064458 154.341797,42.0146484 C154.599611,41.9228511 154.890623,41.8769531 155.214844,41.8769531 C155.464845,41.8769531 155.712889,41.9101559 155.958984,41.9765625 L155.900391,42.8554688 C155.818359,42.8398437 155.725586,42.8271485 155.62207,42.8173828 C155.518554,42.8076171 155.416016,42.8027344 155.314453,42.8027344 C154.962889,42.8027344 154.691407,42.9052724 154.5,43.1103516 C154.308593,43.3154307 154.212891,43.6093731 154.212891,43.9921875 L154.212891,44.6601562 L155.566406,44.6601562 L155.566406,45.4980469 L154.212891,45.4980469 L154.212891,51 L153.128906,51 Z M159.826172,45.6328125 C159.732421,45.6171874 159.645508,45.6064453 159.56543,45.6005859 C159.485351,45.5947265 159.394532,45.5917969 159.292969,45.5917969 C158.917967,45.5917969 158.612306,45.6738273 158.375977,45.8378906 C158.139647,46.0019539 157.962891,46.2226549 157.845703,46.5 L157.845703,51 L156.761719,51 L156.761719,44.6601562 L157.816406,44.6601562 L157.833984,45.3925781 C157.998048,45.1308581 158.203124,44.9238289 158.449219,44.7714844 C158.695314,44.6191399 158.994139,44.5429688 159.345703,44.5429688 C159.423829,44.5429688 159.513671,44.5517577 159.615234,44.5693359 C159.716797,44.5869142 159.787109,44.6054687 159.826172,44.625 L159.826172,45.6328125 Z M163.453125,51.1171875 C163.011717,51.1171875 162.612306,51.0410164 162.254883,50.8886719 C161.897459,50.7363274 161.591798,50.5244154 161.337891,50.2529297 C161.083983,49.981444 160.888673,49.658205 160.751953,49.2832031 C160.615234,48.9082012 160.546875,48.4980491 160.546875,48.0527344 L160.546875,47.8066406 C160.546875,47.291013 160.624023,46.8300802 160.77832,46.4238281 C160.932618,46.0175761 161.138671,45.6757826 161.396484,45.3984375 C161.654298,45.1210924 161.949217,44.9091804 162.28125,44.7626953 C162.613283,44.6162102 162.958983,44.5429688 163.318359,44.5429688 C163.771487,44.5429688 164.162108,44.6220695 164.490234,44.7802734 C164.818361,44.9384774 165.088866,45.1562486 165.301758,45.4335938 C165.51465,45.7109389 165.671874,46.0390606 165.773438,46.4179688 C165.875001,46.7968769 165.925781,47.2089821 165.925781,47.6542969 L165.925781,48.140625 L161.630859,48.140625 C161.638672,48.4335952 161.686523,48.70703 161.774414,48.9609375 C161.862305,49.214845 161.987304,49.4355459 162.149414,49.6230469 C162.311524,49.8105478 162.506835,49.9589838 162.735352,50.0683594 C162.963868,50.1777349 163.222655,50.2324219 163.511719,50.2324219 C163.894533,50.2324219 164.218749,50.1542977 164.484375,49.9980469 C164.750001,49.8417961 164.982421,49.6347669 165.181641,49.3769531 L165.84375,49.8925781 C165.742187,50.0488289 165.619141,50.2001946 165.474609,50.3466797 C165.330077,50.4931648 165.161134,50.6240229 164.967773,50.7392578 C164.774413,50.8544928 164.552736,50.9462887 164.302734,51.0146484 C164.052733,51.0830082 163.769533,51.1171875 163.453125,51.1171875 L163.453125,51.1171875 Z M163.318359,45.4335938 C163.099608,45.4335938 162.898438,45.4736324 162.714844,45.5537109 C162.531249,45.6337895 162.367188,45.7499992 162.222656,45.9023438 C162.078124,46.0546883 161.958008,46.2441395 161.862305,46.4707031 C161.766601,46.6972668 161.701172,46.9570298 161.666016,47.25 L164.841797,47.25 L164.841797,47.1679688 C164.830078,46.9570302 164.795899,46.7480479 164.739258,46.5410156 C164.682617,46.3339833 164.594727,46.1484383 164.475586,45.984375 C164.356445,45.8203117 164.203126,45.6875005 164.015625,45.5859375 C163.828124,45.4843745 163.595705,45.4335938 163.318359,45.4335938 L163.318359,45.4335938 Z M169.810547,51.1171875 C169.369138,51.1171875 168.969728,51.0410164 168.612305,50.8886719 C168.254881,50.7363274 167.94922,50.5244154 167.695312,50.2529297 C167.441405,49.981444 167.246094,49.658205 167.109375,49.2832031 C166.972656,48.9082012 166.904297,48.4980491 166.904297,48.0527344 L166.904297,47.8066406 C166.904297,47.291013 166.981445,46.8300802 167.135742,46.4238281 C167.29004,46.0175761 167.496092,45.6757826 167.753906,45.3984375 C168.01172,45.1210924 168.306639,44.9091804 168.638672,44.7626953 C168.970705,44.6162102 169.316404,44.5429688 169.675781,44.5429688 C170.128909,44.5429688 170.51953,44.6220695 170.847656,44.7802734 C171.175783,44.9384774 171.446288,45.1562486 171.65918,45.4335938 C171.872071,45.7109389 172.029296,46.0390606 172.130859,46.4179688 C172.232422,46.7968769 172.283203,47.2089821 172.283203,47.6542969 L172.283203,48.140625 L167.988281,48.140625 C167.996094,48.4335952 168.043945,48.70703 168.131836,48.9609375 C168.219727,49.214845 168.344726,49.4355459 168.506836,49.6230469 C168.668946,49.8105478 168.864257,49.9589838 169.092773,50.0683594 C169.32129,50.1777349 169.580077,50.2324219 169.869141,50.2324219 C170.251955,50.2324219 170.576171,50.1542977 170.841797,49.9980469 C171.107423,49.8417961 171.339843,49.6347669 171.539062,49.3769531 L172.201172,49.8925781 C172.099609,50.0488289 171.976563,50.2001946 171.832031,50.3466797 C171.687499,50.4931648 171.518556,50.6240229 171.325195,50.7392578 C171.131835,50.8544928 170.910157,50.9462887 170.660156,51.0146484 C170.410155,51.0830082 170.126955,51.1171875 169.810547,51.1171875 L169.810547,51.1171875 Z M169.675781,45.4335938 C169.45703,45.4335938 169.25586,45.4736324 169.072266,45.5537109 C168.888671,45.6337895 168.72461,45.7499992 168.580078,45.9023438 C168.435546,46.0546883 168.31543,46.2441395 168.219727,46.4707031 C168.124023,46.6972668 168.058594,46.9570298 168.023438,47.25 L171.199219,47.25 L171.199219,47.1679688 C171.1875,46.9570302 171.153321,46.7480479 171.09668,46.5410156 C171.040039,46.3339833 170.952149,46.1484383 170.833008,45.984375 C170.713867,45.8203117 170.560548,45.6875005 170.373047,45.5859375 C170.185546,45.4843745 169.953126,45.4335938 169.675781,45.4335938 L169.675781,45.4335938 Z M179.050781,50.2324219 C179.242188,50.2324219 179.42578,50.2011722 179.601562,50.1386719 C179.777345,50.0761716 179.932617,49.9902349 180.067383,49.8808594 C180.202149,49.7714838 180.311523,49.6416023 180.395508,49.4912109 C180.479493,49.3408196 180.529297,49.1777353 180.544922,49.0019531 L181.570312,49.0019531 C181.554687,49.2832045 181.47754,49.5517565 181.338867,49.8076172 C181.200195,50.0634778 181.017579,50.288085 180.791016,50.4814453 C180.564452,50.6748057 180.301759,50.829101 180.00293,50.9443359 C179.7041,51.0595709 179.38672,51.1171875 179.050781,51.1171875 C178.574216,51.1171875 178.159181,51.0322274 177.805664,50.8623047 C177.452147,50.692382 177.158204,50.4628921 176.923828,50.1738281 C176.689452,49.8847642 176.514649,49.54883 176.399414,49.1660156 C176.284179,48.7832012 176.226562,48.3789084 176.226562,47.953125 L176.226562,47.7070312 C176.226562,47.2812479 176.284179,46.876955 176.399414,46.4941406 C176.514649,46.1113262 176.689452,45.7753921 176.923828,45.4863281 C177.158204,45.1972642 177.45117,44.9677743 177.802734,44.7978516 C178.154299,44.6279288 178.568357,44.5429688 179.044922,44.5429688 C179.416017,44.5429688 179.752928,44.6015619 180.055664,44.71875 C180.3584,44.8359381 180.620116,44.9970693 180.84082,45.2021484 C181.061525,45.4072276 181.234374,45.6503892 181.359375,45.9316406 C181.484376,46.212892 181.554687,46.5156234 181.570312,46.8398438 L180.544922,46.8398438 C180.529297,46.6445303 180.483399,46.4619149 180.407227,46.2919922 C180.331054,46.1220695 180.228516,45.9736334 180.099609,45.8466797 C179.970702,45.7197259 179.817384,45.619141 179.639648,45.5449219 C179.461913,45.4707028 179.263673,45.4335938 179.044922,45.4335938 C178.708983,45.4335938 178.430665,45.4999993 178.209961,45.6328125 C177.989257,45.7656257 177.811524,45.9404286 177.676758,46.1572266 C177.541992,46.3740245 177.447266,46.6181627 177.392578,46.8896484 C177.33789,47.1611342 177.310547,47.4335924 177.310547,47.7070312 L177.310547,47.953125 C177.310547,48.2343764 177.33789,48.5107408 177.392578,48.7822266 C177.447266,49.0537123 177.541015,49.2968739 177.673828,49.5117188 C177.806641,49.7265636 177.984374,49.90039 178.207031,50.0332031 C178.429689,50.1660163 178.710936,50.2324219 179.050781,50.2324219 L179.050781,50.2324219 Z M186.703125,51 C186.664062,50.9218746 186.632813,50.8232428 186.609375,50.7041016 C186.585937,50.5849603 186.566406,50.4609381 186.550781,50.3320312 C186.449218,50.4375005 186.334962,50.5380855 186.208008,50.6337891 C186.081054,50.7294927 185.942384,50.8134762 185.791992,50.8857422 C185.641601,50.9580082 185.478517,51.0146482 185.302734,51.0556641 C185.126952,51.0966799 184.941407,51.1171875 184.746094,51.1171875 C184.421873,51.1171875 184.127931,51.0683599 183.864258,50.9707031 C183.600585,50.8730464 183.375977,50.7402352 183.19043,50.5722656 C183.004882,50.404296 182.861329,50.2060558 182.759766,49.9775391 C182.658203,49.7490223 182.607422,49.5039076 182.607422,49.2421875 C182.607422,48.9023421 182.673827,48.6025404 182.806641,48.3427734 C182.939454,48.0830065 183.129882,47.8652353 183.37793,47.6894531 C183.625978,47.513671 183.925779,47.3808598 184.277344,47.2910156 C184.628908,47.2011714 185.021482,47.15625 185.455078,47.15625 L186.533203,47.15625 L186.533203,46.6582031 C186.533203,46.279295 186.419923,45.9775402 186.193359,45.7529297 C185.966796,45.5283192 185.632815,45.4160156 185.191406,45.4160156 C184.98828,45.4160156 184.802735,45.4433591 184.634766,45.4980469 C184.466796,45.5527346 184.323243,45.6259761 184.204102,45.7177734 C184.08496,45.8095708 183.992188,45.916015 183.925781,46.0371094 C183.859375,46.1582037 183.826172,46.2851556 183.826172,46.4179688 L182.736328,46.4179688 C182.736328,46.1914051 182.795898,45.966798 182.915039,45.7441406 C183.03418,45.5214833 183.203124,45.32129 183.421875,45.1435547 C183.640626,44.9658194 183.905272,44.8212896 184.21582,44.7099609 C184.526369,44.5986323 184.873045,44.5429688 185.255859,44.5429688 C185.599611,44.5429688 185.916991,44.5869136 186.208008,44.6748047 C186.499025,44.7626958 186.748046,44.8955069 186.955078,45.0732422 C187.16211,45.2509775 187.324218,45.4726549 187.441406,45.7382812 C187.558594,46.0039076 187.617188,46.3144513 187.617188,46.6699219 L187.617188,49.6171875 C187.617188,49.8320323 187.635742,50.057616 187.672852,50.2939453 C187.709961,50.5302746 187.765625,50.7343741 187.839844,50.90625 L187.839844,51 L186.703125,51 Z M184.904297,50.1738281 C185.09961,50.1738281 185.283202,50.1464846 185.455078,50.0917969 C185.626954,50.0371091 185.783202,49.9658208 185.923828,49.8779297 C186.064454,49.7900386 186.186523,49.6894537 186.290039,49.5761719 C186.393555,49.4628901 186.474609,49.3457037 186.533203,49.2246094 L186.533203,47.9238281 L185.630859,47.9238281 C185.009763,47.9238281 184.531252,48.0205068 184.195312,48.2138672 C183.859373,48.4072275 183.691406,48.6992168 183.691406,49.0898438 C183.691406,49.2421883 183.716797,49.384765 183.767578,49.5175781 C183.81836,49.6503913 183.895507,49.764648 183.999023,49.8603516 C184.10254,49.9560552 184.229491,50.0322263 184.379883,50.0888672 C184.530274,50.1455081 184.705077,50.1738281 184.904297,50.1738281 L184.904297,50.1738281 Z M192.380859,45.6328125 C192.287109,45.6171874 192.200196,45.6064453 192.120117,45.6005859 C192.040039,45.5947265 191.949219,45.5917969 191.847656,45.5917969 C191.472654,45.5917969 191.166993,45.6738273 190.930664,45.8378906 C190.694335,46.0019539 190.517579,46.2226549 190.400391,46.5 L190.400391,51 L189.316406,51 L189.316406,44.6601562 L190.371094,44.6601562 L190.388672,45.3925781 C190.552735,45.1308581 190.757811,44.9238289 191.003906,44.7714844 C191.250001,44.6191399 191.548826,44.5429688 191.900391,44.5429688 C191.978516,44.5429688 192.068359,44.5517577 192.169922,44.5693359 C192.271485,44.5869142 192.341797,44.6054687 192.380859,44.625 L192.380859,45.6328125 Z" id="Dent-free,-Scratch-f-Copy" fill="#000000" opacity="0.800000012"></path>
                        <g id="Group-9" transform="translate(54.000000, 13.000000)" fill="#795FF9">
                            <path d="M2.54585408,14.9179056 C3.37854077,15.2271245 4.18753648,15.4174764 4.94894421,15.4174764 C7.11409442,15.4174764 8.5415279,14.1801888 8.56542489,11.6106438 C8.63670386,9.30293562 7.47090129,7.78012017 5.47241202,7.78012017 C3.40243777,7.78012017 2.54585408,9.87378541 2.54585408,11.6106438 L2.54585408,14.9179056 Z M0,0 L2.40309013,0 L2.40309013,7.73253219 C3.23577682,6.3287897 4.37788841,5.59127897 6.16233476,5.59127897 C8.70818884,5.59127897 11.2777339,7.47090129 11.2064549,11.6106438 C11.087382,15.7981803 8.256,17.6302146 4.71100429,17.5589356 C3.06932189,17.5589356 1.49891845,17.1306438 0,16.488309 L0,0 Z" id="Fill-12"></path>
                            <path d="M24.3455794,5.73079485 L24.3455794,13.9155159 C24.3455794,15.2955674 24.4646524,15.6760652 25.55897,15.5571983 L25.582867,17.2464687 C24.1076395,17.5080996 22.0139742,17.8175245 22.0139742,15.3431554 C21.2286695,16.8896618 19.6584721,17.3892326 18.0404807,17.3892326 C14.8761888,17.3892326 13.7577682,15.1764944 13.7577682,12.3690094 L13.7577682,5.73079485 L16.3751073,5.73079485 L16.3751073,12.3690094 C16.3512103,14.2010438 17.3266609,15.3192584 18.8494764,15.3192584 C20.4911588,15.3192584 21.7521373,14.1295588 21.7521373,12.2977305 L21.7521373,5.73079485 L24.3455794,5.73079485 Z" id="Fill-14"></path>
                            <path d="M27.1298266,5.68320687 C28.914273,5.15973906 30.9842472,5.51654592 30.9842472,7.58652017 C31.7217579,6.1590867 33.2684704,5.46916395 34.7910798,5.49285494 C36.3138953,5.51654592 37.6224618,6.20667468 38.2172086,7.65800515 C39.1452773,6.11149871 40.6917837,5.42157597 42.3334661,5.44526695 C45.450376,5.44526695 46.2830627,7.82466609 46.2830627,10.4654901 L46.2830627,14.1295588 C46.2830627,15.1050094 46.3067536,15.7475502 47.7104961,15.5571983 L47.7104961,17.1512927 C45.283715,17.7223485 43.6657236,17.0798077 43.6657236,14.4865717 L43.6657236,10.4654901 C43.6896206,8.75252876 42.9758009,7.56282918 41.4529854,7.56282918 C39.859097,7.58652017 38.7882644,8.72863176 38.7882644,10.5369751 L38.7882644,17.1988807 L36.2424103,17.1988807 L36.2424103,10.5369751 C36.2663073,8.75252876 35.5048996,7.58652017 33.8869082,7.58652017 C32.2691227,7.61041717 31.1270112,8.75252876 31.1270112,10.5845631 L31.1270112,17.1988807 L28.5098781,17.1988807 L28.5098781,9.37096652 C28.5098781,7.84835708 28.4859811,7.2536103 27.1298266,7.37247725 L27.1298266,5.68320687 Z" id="Fill-16"></path>
                            <path d="M55.7770918,7.70557253 C53.7786026,7.70557253 52.7555639,9.25207897 52.7555639,11.3457442 C52.7555639,13.4396155 53.7310146,15.2716498 55.7770918,15.2716498 C57.9422421,15.2716498 58.9415897,13.5823794 58.9415897,11.4172292 C58.9415897,9.32356395 57.8233751,7.70557253 55.7770918,7.70557253 L55.7770918,7.70557253 Z M50.2334009,23.051976 L50.2334009,9.51370987 C50.2334009,8.27662833 50.2809888,7.18210472 49.0200103,7.37245665 L49.0200103,5.6119073 C50.6380017,5.27879142 52.3746541,5.49283433 52.3746541,7.39635365 L52.3746541,7.82464549 C52.9932979,6.25424206 54.6588773,5.37396738 56.3005597,5.37396738 C59.7979674,5.37396738 61.5111348,8.20514335 61.5111348,11.4172292 C61.5111348,14.55783 59.8457614,17.4368 56.3957356,17.4368 C54.7064652,17.4368 53.3264137,16.9372292 52.636491,15.3907227 L52.636491,23.051976 L50.2334009,23.051976 Z" id="Fill-18"></path>
                            <path d="M69.5774421,10.9176172 C70.6004807,10.9176172 71.9090472,10.4656343 71.9805322,9.27593476 C72.0518112,7.91978026 70.5292017,7.49148841 69.3633991,7.49148841 C67.7690987,7.5151794 66.5320172,8.30027811 66.1513133,10.0134455 C67.007691,10.6083983 68.3877425,10.9176172 69.5774421,10.9176172 L69.5774421,10.9176172 Z M74.0505064,16.5325871 C72.7895279,17.1751279 71.4570644,17.3415828 70.0294249,17.4130678 C65.9609614,17.5319348 63.3199313,15.2003296 63.5102833,11.1555571 C63.5817682,7.44390043 66.2940773,5.51669013 69.3395021,5.44541116 C71.8377682,5.37392618 74.5976652,6.46824378 74.4787983,9.29962575 C74.3597253,11.5838489 72.2421631,12.6307845 70.0533219,12.7020635 C68.5544034,12.7733425 67.031588,12.3928446 65.9609614,11.7503039 C65.8894764,14.129497 67.6739227,15.4143725 70.1960858,15.3430936 C71.5283433,15.3430936 72.9559828,14.9623897 73.9790215,14.4865099 L74.0505064,16.5325871 Z" id="Fill-20"></path>
                            <path d="M83.2586163,5.35004979 C84.210376,5.3263588 85.1621356,5.6118867 85.8996464,6.15904549 L85.2573116,8.39547468 C84.5673888,7.94349185 83.8059811,7.70555193 82.9730884,7.70555193 C81.426582,7.70555193 80.0467365,8.70489957 80.0467365,10.5608309 L80.0467365,17.1988395 L77.4769854,17.1988395 L77.4769854,8.87135451 C77.4769854,7.84831588 77.4769854,7.32505408 76.2399039,7.39633305 L76.2160069,5.63557768 C77.9052773,5.25487382 79.7610026,5.54040172 79.8800755,7.39633305 C80.3320584,6.06386953 81.8548738,5.35004979 83.2586163,5.35004979" id="Fill-22"></path>
                        </g>
                    </g>
                </g>
            </g>
        </g>
    </g>
</svg>