<?xml version="1.0" encoding="UTF-8" standalone="no"?>
<svg width="108px" height="34px" viewBox="0 0 108 34" version="1.1" xmlns="http://www.w3.org/2000/svg" xmlns:xlink="http://www.w3.org/1999/xlink">
    <!-- Generator: Sketch 41.1 (35376) - http://www.bohemiancoding.com/sketch -->
    <title>logo_white</title>
    <desc>Created with Sketch.</desc>
    <defs>
        <polyline id="path-1" points="0 0 96.4381469 0 96.4381469 32.995077 0 32.995077"></polyline>
        <polyline id="path-3" points="0 0 35.15625 0 35.15625 32.995077 0 32.995077"></polyline>
    </defs>
    <g id="Page-1" stroke="none" stroke-width="1" fill="none" fill-rule="evenodd">
        <g id="CustomerReviews" transform="translate(-45.000000, -10.000000)">
            <g id="header" transform="translate(13.828125, 4.500000)">
                <g id="Group-10">
                    <g id="logo_white" transform="translate(32.000000, 0.000000)">
                        <g id="Group-5"></g>
                        <g id="Group-24" transform="translate(7.058824, 0.000000)">
                            <mask id="mask-2" fill="white">
                                <use xlink:href="#path-1"></use>
                            </mask>
                            <g id="Clip-23"></g>
                        </g>
                        <g id="Group-6" transform="translate(0.000000, 5.882353)">
                            <path d="M19.3896917,17.4660723 C19.3702364,19.5693764 18.2020655,20.5817628 16.4293597,20.5817628 C15.8067896,20.5817628 15.1443149,20.4261203 14.4630949,20.1727752 L14.4630949,17.4660723 C14.4630949,16.0446983 15.1639122,14.3309265 16.8580867,14.3309265 C18.4940372,14.3309265 19.4481996,15.5774867 19.3896917,17.4660723" id="Fill-10" fill="#FFFFFF"></path>
                            <g id="Group-18">
                                <path d="M13.701327,28.8103383 C13.7427938,28.9860042 13.7788642,29.1646522 13.8001657,29.3440104 C13.8301297,29.5973555 13.8258694,29.8532568 13.8099643,30.1073119 C13.7978935,30.301155 13.7794323,30.4945721 13.7585569,30.6877051 C13.7432198,30.8297147 13.7239065,30.9712983 13.7065814,31.1130239 C13.6489255,31.5866259 13.6254939,32.0832334 13.8166388,32.5319837 C13.8998564,32.7269629 14.0381738,32.8929721 14.2283246,32.9903907 C14.3926297,33.0744604 14.5857627,33.1075486 14.7682451,33.0770165 C14.9383726,33.0484726 15.0879087,32.9605687 15.2016584,32.831766 C15.3281889,32.6891883 15.4146727,32.5177828 15.4798552,32.3401288 C15.5268603,32.2121781 15.5609426,32.0757069 15.5822441,31.9410818 C15.6575092,31.4622254 15.6212967,30.9244351 15.4372523,30.4732706 C14.8828468,29.116511 13.701327,28.8103383 13.701327,28.8103383" id="Fill-1" fill="#FFFFFF"></path>
                                <mask id="mask-4" fill="white">
                                    <use xlink:href="#path-3"></use>
                                </mask>
                                <g id="Clip-4"></g>
                                <path d="M16.2348624,22.2412988 C14.8915936,22.2412988 13.6056968,21.8915292 12.3790179,21.3649576 L12.3790179,7.86964396 L14.3459928,7.86964396 L14.3459928,14.1987275 C15.0277808,13.0491599 15.96263,12.4456191 17.4229146,12.4456191 C19.5070474,12.4456191 21.6094995,13.984435 21.5511335,17.372926 C21.4538569,20.8004695 19.1362604,22.2999488 16.2348624,22.2412988 M30.720693,18.438992 C30.173672,17.9125624 29.5204279,17.4613979 29.0857365,16.8283192 C28.2358091,15.5899955 28.8001552,14.1250245 28.9979746,12.7857321 C29.1328837,11.8744565 29.3069875,10.9755358 29.2987509,10.045515 C29.2754613,7.39433785 27.6024463,5.91417186 25.4855093,5.15811278 C24.5008148,4.80663904 23.5888292,4.71788304 22.6159214,4.29668259 C21.4676319,3.79908097 21.0579342,2.56601167 20.43366,1.58472538 C20.166114,1.16480301 19.8102379,0.695035276 19.4026704,0.435867768 C18.508294,-0.132880655 17.3662528,-0.142821326 16.3689194,0.39312288 C15.1382643,1.05460357 14.3181589,1.83792848 13.1542483,2.52369281 C12.4809808,2.92032561 11.6985079,3.16216794 10.9242716,3.24155131 C10.1219174,3.32391687 9.32424952,3.23416681 8.52473551,3.16515015 C7.88881655,3.11033444 7.25019941,3.0609151 6.61144026,3.08065444 C5.8289674,3.10479607 4.95972668,3.27350347 4.42080027,3.89777764 C4.28461307,4.0555503 4.16546702,4.25052947 4.08665169,4.44394654 C3.68973488,5.41657024 4.05498356,6.53020947 4.23405765,7.51263184 C4.28873135,7.81340816 4.33957078,8.11475252 4.37777136,8.41808501 C4.46496525,9.11165987 4.42293041,9.81190917 4.2036676,10.4782182 C4.14260347,10.6635407 4.0660603,10.8443189 3.97744632,11.0182807 C3.74440857,11.4752675 3.44065005,11.8893675 3.06602875,12.2411253 C2.52610827,12.7475315 1.88536099,13.1306734 1.33834003,13.6298371 C1.18525369,13.7695745 1.03869979,13.9165545 0.902938617,14.073191 C0.604576461,14.4177063 0.364580248,14.8085167 0.196440889,15.2324154 C-0.171931997,16.1605901 -0.00109445548,17.1918637 0.532577597,18.0194956 C1.01143395,18.7619218 1.84233208,19.134413 2.43493811,19.7818347 C3.04927161,20.452688 3.22451145,21.3899513 3.28969386,22.2677126 C3.33527894,22.8811941 3.33811913,23.4966637 3.3332908,24.1115652 C3.33101865,24.374567 3.32036793,24.6382788 3.33641501,24.9009965 C3.35445023,25.1960925 3.34947989,25.4792596 3.51066078,25.7411253 C3.65224435,25.9710388 3.88698621,26.1337818 4.15907659,26.1556513 C4.29228159,26.166302 4.47845616,26.1610476 4.60413465,26.1109183 C4.71788434,26.0659012 4.85605967,25.9997247 4.9482239,25.9177852 C5.27853821,25.6239674 5.37510474,25.1666965 5.44085518,24.7493303 C5.46244064,24.6130011 5.48161193,24.4761038 5.50291337,24.3396326 C5.55545692,24.0030699 5.62702976,23.6071471 5.88648128,23.3620386 C6.01201776,23.2434605 6.22460613,23.1383734 6.39956194,23.1272967 C6.58999681,23.1150839 6.82899896,23.2005736 6.97100855,23.324264 C7.27348898,23.5876918 7.31183157,24.0117324 7.35684861,24.3816674 C7.41748671,24.8795531 7.43097762,25.3770127 7.44432652,25.8778805 C7.45199504,26.1691422 7.46008959,26.4613979 7.47926088,26.7520916 C7.49814816,27.0376729 7.51774548,27.3228281 7.53677477,27.6081254 C7.55963831,27.9512206 7.58079774,28.3151912 7.69369537,28.6428073 C7.76569423,28.8522715 7.89435493,29.0503748 8.07257697,29.1844319 C8.28189911,29.3416365 8.63862721,29.4764036 8.90276505,29.4764036 C9.88731756,29.4764036 10.1875258,28.6205118 10.5124438,27.9225346 C10.7924867,27.321266 11.3326912,26.7505295 11.9397822,26.4940601 C13.2205667,25.9530036 14.6995967,26.1766687 15.5996535,27.2778111 C16.1353136,27.9329013 16.3764459,28.7380957 16.6813405,29.5109119 C16.9674899,30.2354449 17.3369988,31.1313834 17.9997576,31.5909265 C18.4453837,31.9000813 19.1151009,32.0443631 19.6446547,31.9039156 C19.9795133,31.8148756 20.3194843,31.6173402 20.5634568,31.3737938 C21.188299,30.7502297 21.4674899,29.8097001 21.8000763,29.0124583 C21.883436,28.8123668 21.9381097,28.6007725 22.0373744,28.4073554 C22.4825744,27.5399608 23.4708192,27.0040166 24.4420228,27.2454329 C25.0924268,27.4068978 25.6208444,27.8890204 26.2767868,28.0267697 C26.990953,28.1767318 27.6981608,27.7850694 27.9791978,27.1062635 C28.2457498,26.4631021 28.145207,25.6699785 28.1298699,24.9896105 C28.1145329,24.3029941 28.1848277,23.8220076 28.6653881,23.2934479 C29.1855693,22.7208652 29.9860773,22.8532182 30.5972866,22.4930819 C32.186516,21.5572386 31.9043429,19.5783349 30.720693,18.438992" id="Fill-3" fill="#FFFFFF" mask="url(#mask-4)"></path>
                            </g>
                        </g>
                        <g id="Group-29" transform="translate(40.000000, 14.117647)" fill="#FFFFFF">
                            <g id="Group-34">
                                <path d="M2.00566235,11.7525517 C2.66166552,11.996159 3.29900458,12.1461211 3.8988531,12.1461211 C5.60459119,12.1461211 6.72914488,11.1713673 6.74797129,9.14704079 C6.80412594,7.3289934 5.88568904,6.12929635 4.31124896,6.12929635 C2.68049194,6.12929635 2.00566235,7.7787175 2.00566235,9.14704079 L2.00566235,11.7525517 Z M0,-1.42108547e-14 L1.89319075,-1.42108547e-14 L1.89319075,6.09180582 C2.54919393,4.98591625 3.44896671,4.40489415 4.85478054,4.40489415 C6.86044289,4.40489415 8.88476936,5.88568904 8.82861471,9.14704079 C8.73480723,12.4460454 6.50420168,13.8893497 3.71140044,13.8331951 C2.41805821,13.8331951 1.18087063,13.4957803 0,12.9897392 L0,-1.42108547e-14 Z" id="Fill-12"></path>
                                <path d="M18.6966224,4.00010098 L18.6966224,10.448148 C18.6966224,11.5353735 18.7904299,11.8351354 19.6525499,11.7414902 L19.6713763,13.072323 C18.5091698,13.2784398 16.8597486,13.5222094 16.8597486,11.572864 C16.2410737,12.7912252 15.0040484,13.1847946 13.7293703,13.1847946 C11.2364933,13.1847946 10.3553846,11.441566 10.3553846,9.22978685 L10.3553846,4.00010098 L12.4173639,4.00010098 L12.4173639,9.22978685 C12.3985375,10.6730912 13.1670123,11.5540376 14.3667093,11.5540376 C15.6600516,11.5540376 16.6534695,10.6167743 16.6534695,9.1736322 L16.6534695,4.00010098 L18.6966224,4.00010098 Z" id="Fill-14"></path>
                                <path d="M20.8900945,3.96261045 C22.2959083,3.55021459 23.9266653,3.83131244 23.9266653,5.46206946 C24.5076875,4.33751578 25.7262109,3.7939842 26.9257457,3.81264832 C28.1254427,3.83131244 29.1563512,4.37500631 29.6249017,5.51838641 C30.3560483,4.30002525 31.5744094,3.75649367 32.8677517,3.77515779 C35.3233004,3.77515779 35.9793036,5.64968442 35.9793036,7.73016554 L35.9793036,10.6167743 C35.9793036,11.385249 35.9979677,11.8914524 37.1038573,11.7414902 L37.1038573,12.9973419 C35.1920024,13.4472283 33.9173243,12.941025 33.9173243,10.8980344 L33.9173243,7.73016554 C33.9361507,6.38066866 33.3737927,5.44340534 32.1740956,5.44340534 C30.9184062,5.46206946 30.0747881,6.36184225 30.0747881,7.78648249 L30.0747881,13.0348325 L28.0691258,13.0348325 L28.0691258,7.78648249 C28.0879522,6.38066866 27.4881037,5.46206946 26.2134255,5.46206946 C24.9389097,5.48089588 24.0391369,6.38066866 24.0391369,7.82397302 L24.0391369,13.0348325 L21.9773199,13.0348325 L21.9773199,6.86788329 C21.9773199,5.66834854 21.9584935,5.19979803 20.8900945,5.29344321 L20.8900945,3.96261045 Z" id="Fill-16"></path>
                                <path d="M43.4588434,5.55586071 C41.8844033,5.55586071 41.078438,6.77422188 41.078438,8.42364302 C41.078438,10.0732265 41.8469128,11.5165308 43.4588434,11.5165308 C45.1645815,11.5165308 45.9518826,10.1856981 45.9518826,8.47995997 C45.9518826,6.83053882 45.0709363,5.55586071 43.4588434,5.55586071 L43.4588434,5.55586071 Z M39.0914398,17.6459895 L39.0914398,6.98033866 C39.0914398,6.00574711 39.1289303,5.14346485 38.1355123,5.29342698 L38.1355123,3.90643957 C39.4101904,3.64400584 40.7783514,3.81263209 40.7783514,5.3122534 L40.7783514,5.64966819 C41.2657284,4.41248061 42.577897,3.71898691 43.8712392,3.71898691 C46.6265499,3.71898691 47.9762091,5.94943016 47.9762091,8.47995997 C47.9762091,10.9541728 46.6642028,13.2222689 43.9462203,13.2222689 C42.6153875,13.2222689 41.5281621,12.8286995 40.9846305,11.6103383 L40.9846305,17.6459895 L39.0914398,17.6459895 Z" id="Fill-18"></path>
                                <path d="M54.330968,8.08635806 C55.1369333,8.08635806 56.1678418,7.73027915 56.2241588,6.79301583 C56.2803134,5.7246168 55.0807787,5.38720201 54.1623418,5.38720201 C52.9063278,5.40586612 51.9317362,6.02437876 51.631812,7.37403794 C52.3064792,7.84275075 53.3937047,8.08635806 54.330968,8.08635806 L54.330968,8.08635806 Z M57.8549158,12.5099163 C56.8614978,13.0161197 55.8117629,13.1472554 54.6870469,13.2035723 C51.4818498,13.2972175 49.4012064,11.4603437 49.5511685,8.27381073 C49.6074855,5.34971147 51.7442836,3.83142605 54.1435153,3.7752714 C56.1116872,3.71895445 58.2859758,4.5810744 58.1923306,6.81167995 C58.0985231,8.61122552 56.4302755,9.43601724 54.7058733,9.49217189 C53.5250027,9.54832654 52.3253057,9.24856458 51.4818498,8.74236124 C51.4255329,10.6167256 52.8313467,11.62897 54.8183449,11.5728153 C55.8679176,11.5728153 56.9926335,11.272891 57.7985988,10.8979857 L57.8549158,12.5099163 Z" id="Fill-20"></path>
                                <path d="M67.1898474,4.33748332 L66.6838064,6.09937606 C66.1402748,5.74329715 65.5404263,5.55584448 64.8842608,5.55584448 C63.6658997,5.55584448 62.5788365,6.34314567 62.5788365,7.80527645 L62.5788365,13.0348 L60.5543477,13.0348 L60.5543477,6.47428139 C60.5543477,5.66831608 60.5543477,5.25608252 59.5797562,5.31223717 L59.5609298,3.92508746 C60.8917625,3.6251632 62.353731,3.85010639 62.4475385,5.31223717 C62.8036174,4.26250225 64.0033145,3.70014426 65.109204,3.70014426 C65.8590147,3.68148015 66.6088253,3.90642334 67.1898474,4.33748332 Z" id="Fill-22"></path>
                            </g>
                        </g>
                    </g>
                </g>
            </g>
        </g>
    </g>
</svg>