<?xml version="1.0" encoding="UTF-8" standalone="no"?>
<svg width="28px" height="41px" viewBox="0 0 28 41" version="1.1" xmlns="http://www.w3.org/2000/svg" xmlns:xlink="http://www.w3.org/1999/xlink">
    <!-- Generator: Sketch 39.1 (31720) - http://www.bohemiancoding.com/sketch -->
    <title>LowestPrices</title>
    <desc>Created with Sketch.</desc>
    <defs></defs>
    <g id="Page-1" stroke="none" stroke-width="1" fill="none" fill-rule="evenodd">
        <g id="Home_new" transform="translate(-147.000000, -625.000000)">
            <g id="USP" transform="translate(147.000000, 622.000000)">
                <g id="Group-26">
                    <g id="lowPrices" transform="translate(0.000000, 1.000000)">
                        <g id="Group-24">
                            <g id="Group-31">
                                <g id="LowestPrices" transform="translate(0.000000, 2.000000)">
                                    <path d="M9.18337408,14 C2.05378973,14 1.98533007,14.3129584 1.98533007,14.3129584 C1.86797066,14.8117359 1.45721271,14.8997555 1.16381418,15.2616137 C0.479217604,16.1124694 0,17.0317848 0,18.1760391 C0.0195599022,24.1026895 -0.0195599022,30.0293399 0.0195599022,35.9559902 C0.0293398533,38.3227384 1.94621027,40.3276284 4.37163814,40.3276284 L9.46699267,40.3276284 L9.45721271,40.3276284 L14.5525672,40.3276284 C16.9877751,40.3276284 18.8948655,38.3325183 18.9144254,35.9559902 C18.9437653,30.0293399 18.9144254,24.1026895 18.9339853,18.1760391 C18.9339853,17.0317848 18.4547677,16.1124694 17.7799511,15.2713936 C17.4865526,14.8997555 17.0660147,14.8117359 16.9584352,14.3227384 C16.9584352,14.3227384 16.8899756,14.00978 9.7603912,14.00978 L9.18337408,14.00978 L9.18337408,14 Z" id="Shape" fill="#A5A5E8"></path>
                                    <path d="M27.7066015,18.0342298 C27.7066015,18.0342298 27.5696822,18.0635697 27.3447433,18.0733496 C27.1198044,18.0929095 26.806846,18.0929095 26.4352078,18.0635697 C25.7017115,18.00489 24.792176,17.7799511 23.9315403,17.4180929 C23.0806846,17.0562347 22.2787286,16.5574572 21.7310513,16.0782396 C21.4572127,15.8337408 21.2322738,15.608802 21.0855746,15.4327628 C20.9388753,15.2567237 20.8606357,15.1393643 20.8606357,15.1393643 C20.8606357,15.1393643 20.997555,15.1100244 21.2224939,15.1002445 C21.4474328,15.0806846 21.7603912,15.0806846 22.1320293,15.1100244 C22.8655257,15.1687042 23.7750611,15.393643 24.6259169,15.7555012 C25.4767726,16.1173594 26.2787286,16.6161369 26.8264059,17.0953545 C27.1002445,17.3398533 27.3251834,17.5647922 27.4718826,17.7408313 C27.6283619,17.9168704 27.7066015,18.0342298 27.7066015,18.0342298 L27.7066015,18.0342298 Z" id="Shape" fill="#A5A5E8"></path>
                                    <path d="M27.9608802,8.31295844 C27.9608802,8.31295844 27.8728606,8.4205379 27.7066015,8.57701711 C27.5403423,8.73349633 27.2958435,8.92909535 26.992665,9.13447433 C26.3863081,9.54523227 25.5354523,9.94621027 24.6454768,10.2102689 C23.7555012,10.4645477 22.8166259,10.5819071 22.0929095,10.5623472 C21.7310513,10.5525672 21.4180929,10.5134474 21.193154,10.4645477 C20.9682152,10.4254279 20.8410758,10.3863081 20.8410758,10.3863081 C20.8410758,10.3863081 20.9290954,10.2787286 21.0953545,10.1222494 C21.2616137,9.96577017 21.5061125,9.77017115 21.809291,9.55501222 C22.4156479,9.14425428 23.2665037,8.74327628 24.1564792,8.4792176 C25.0464548,8.22493888 25.9853301,8.10757946 26.7188264,8.13691932 C27.0806846,8.14669927 27.393643,8.18581907 27.6185819,8.23471883 C27.8239609,8.26405868 27.9608802,8.31295844 27.9608802,8.31295844 L27.9608802,8.31295844 Z" id="Shape" fill="#A5A5E8"></path>
                                    <path d="M21.8581907,0 C21.8581907,0 21.8777506,0.136919315 21.8777506,0.361858191 C21.8777506,0.586797066 21.8679707,0.899755501 21.8190709,1.27139364 C21.7212714,1.99511002 21.4572127,2.90464548 21.0562347,3.73594132 C20.6552567,4.57701711 20.1173594,5.34963325 19.608802,5.87775061 C19.3545232,6.14180929 19.1198044,6.34718826 18.9339853,6.48410758 C18.7579462,6.62102689 18.6308068,6.6992665 18.6308068,6.6992665 C18.6308068,6.6992665 18.6112469,6.56234719 18.6112469,6.33740831 C18.6112469,6.11246944 18.6210269,5.78973105 18.6699267,5.42787286 C18.7677262,4.70415648 19.0317848,3.79462103 19.4327628,2.96332518 C19.8337408,2.12224939 20.3716381,1.34963325 20.8801956,0.821515892 C21.1344743,0.557457213 21.3691932,0.35207824 21.5550122,0.205378973 C21.7310513,0.0782396088 21.8581907,0 21.8581907,0 L21.8581907,0 Z" id="Shape" fill="#A5A5E8"></path>
                                    <path d="M6.08312958,21.5452323 L12.8606357,21.5452323 C12.8997555,21.5452323 12.9193154,21.5647922 12.9193154,21.603912 L12.9193154,22.2493888 C12.9193154,22.2885086 12.8997555,22.3080685 12.8606357,22.3080685 L10.3080685,22.3080685 L10.3080685,22.3667482 C10.6699267,22.5623472 10.9535452,22.9633252 11.1589242,23.5696822 L11.1882641,23.7750611 L12.8704156,23.7750611 C12.9095355,23.7750611 12.9290954,23.794621 12.9290954,23.8337408 L12.9290954,24.4792176 C12.9290954,24.5183374 12.9095355,24.5378973 12.8704156,24.5378973 L11.2469438,24.5378973 C11.2469438,25.2616137 10.806846,25.9657702 9.91687042,26.6503667 C9.13447433,27.1002445 8.57701711,27.3251834 8.24449878,27.3251834 C8.24449878,27.3447433 8.22493888,27.3545232 8.18581907,27.3545232 L11.8239609,32.0684597 L11.8239609,32.1271394 L10.4449878,32.1271394 C10.4352078,32.1271394 9.02689487,30.2982885 6.2200489,26.6503667 L6.2200489,26.6210269 L6.6601467,26.6210269 C8.20537897,26.6210269 9.13447433,26.0635697 9.44743276,24.9486553 C9.46699267,24.8117359 9.47677262,24.7041565 9.47677262,24.6259169 L9.47677262,24.5378973 L6.08312958,24.5378973 C6.04400978,24.5378973 6.02444988,24.5183374 6.02444988,24.4792176 L6.02444988,23.8337408 C6.02444988,23.794621 6.04400978,23.7750611 6.08312958,23.7750611 L9.45721271,23.7750611 C9.3398533,23.3447433 9.09535452,22.9828851 8.72371638,22.7188264 C8.20537897,22.4449878 7.73594132,22.3080685 7.31540342,22.3080685 L6.08312958,22.3080685 C6.04400978,22.3080685 6.02444988,22.2885086 6.02444988,22.2493888 L6.02444988,21.603912 C6.02444988,21.5647922 6.04400978,21.5452323 6.08312958,21.5452323 L6.08312958,21.5452323 Z" id="Shape" stroke="#F2F2F2" stroke-width="0.3315" fill="#F2F2F2"></path>
                                    <path d="M17.6625917,11.5794621 C17.7408313,11.5207824 17.799511,11.4327628 17.809291,11.3349633 C17.809291,11.3251834 17.8190709,11.3056235 17.8190709,11.2958435 C17.8190709,11.2958435 17.8190709,11.2958435 17.8190709,11.2860636 L17.8190709,11.2860636 C17.8190709,11.207824 17.7897311,11.1295844 17.7408313,11.0709046 C17.6821516,11.002445 17.6136919,10.9633252 17.5256724,10.9437653 C17.603912,10.9046455 17.6723716,10.8361858 17.7310513,10.6894866 C17.8875306,10.3374083 18.0342298,9.85819071 17.8484108,9.56479218 C17.6723716,9.29095355 17.2127139,9.23227384 16.8704156,9.23227384 L15.7652812,9.23227384 L15.7652812,9.23227384 L9.7603912,9.23227384 L9.17359413,9.23227384 L3.47188264,9.23227384 L3.47188264,9.23227384 L2.07334963,9.23227384 C1.72127139,9.23227384 1.27139364,9.29095355 1.09535452,9.56479218 C0.899755501,9.85819071 1.05623472,10.3374083 1.21271394,10.6894866 C1.28117359,10.8361858 1.3398533,10.9046455 1.41809291,10.9437653 C1.33007335,10.9535452 1.25183374,11.002445 1.20293399,11.0709046 C1.15403423,11.1295844 1.12469438,11.198044 1.12469438,11.2860636 L1.12469438,11.2860636 C1.12469438,11.2860636 1.12469438,11.2860636 1.12469438,11.2958435 C1.12469438,11.3154034 1.13447433,11.3251834 1.13447433,11.3349633 C1.14425428,11.4425428 1.20293399,11.5305623 1.28117359,11.5794621 C1.26161369,11.6283619 1.26161369,11.6674817 1.23227384,11.7163814 C0.948655257,12.2249389 0.948655257,12.6552567 1.23227384,13.0268949 C1.56479218,13.4767726 2.03422983,13.5843521 2.63080685,13.3691932 C2.95354523,13.2518337 3.26650367,13.2518337 3.56968215,13.2616137 L15.403423,13.2616137 C15.7066015,13.2518337 16.0195599,13.2518337 16.3422983,13.3691932 C16.9388753,13.594132 17.408313,13.4767726 17.7408313,13.0268949 C18.0244499,12.6552567 18.0146699,12.2249389 17.7408313,11.7163814 C17.6919315,11.6674817 17.6821516,11.6283619 17.6625917,11.5794621 L17.6625917,11.5794621 Z" id="Shape" fill="#A5A5E8"></path>
                                </g>
                            </g>
                        </g>
                    </g>
                </g>
            </g>
        </g>
    </g>
</svg>