<svg xmlns="http://www.w3.org/2000/svg" viewBox="0 0 1629.4 507.97"><defs><style>.cls-1{fill:#535454;}</style></defs><title>Asset 1</title><g id="Layer_2" data-name="Layer 2"><g id="Layer_1-2" data-name="Layer 1"><g id="expended"><path class="cls-1" d="M883.28,417.09h-.08c-6.74-1-10.23-32.6-10.85-38.91V378c0-1.41,3.85-141.42,4.41-151s7.27-41.28,13.59-64.45c-.44-12.93,24-136.15,25-141.42l.15-.74.75-.06c81.81-6.83,189.5,8.4,228.83,16.85A17.72,17.72,0,0,1,1156.3,45c17.34,26.69,61.09,107.17,62.22,109.26,14.62,22.44,5.17,34.54-15.53,61.05-22.77,29.17-60.87,78-96.06,180.45-3.57,10-9.88,14.53-14.54,16.59a23.12,23.12,0,0,1-9.44,2.08ZM874.33,378c1.77,17.69,5.64,36.28,9.1,37.06L1083,412.41c.7,0,15.75.38,22.07-17.34,35.29-102.77,73.52-151.75,96.37-181,20.7-26.52,29.27-37.5,15.41-58.76l0-.07c-.45-.82-44.73-82.32-62.16-109.16a15.74,15.74,0,0,0-10-6.84c-39.12-8.4-146-23.54-227.5-16.88-2.09,10.55-25.46,129.07-24.84,140.34v.16l0,.16c-6.3,23.08-13,54.87-13.56,64.19S874.43,374.39,874.33,378Zm40.85-215.76,17.94-134H934c.46,0,46.21-.6,94.26,1.86C1093,33.42,1130.84,40.44,1140.81,51l.14.18c11,18.72,22.34,41.43,22.45,41.65l.15.29-10.19,61.13Zm19.69-132-17.39,130,234.17-7.93,9.81-58.87c-1.36-2.7-11.94-23.65-22.18-41.15C1116.78,28.9,948.51,30.09,934.88,30.23Z"/><path class="cls-1" d="M527.05,421.79c-29.59,0-31.52-5.11-33.24-9.65-.13-.34-.26-.68-.4-1-2.22-5.18-4.06-99.06-3.41-150.41.59-47.31,9.11-63.28,14.74-73.85.73-1.37,1.42-2.67,2-3.91l.07-.12c17.07-25.68,49.65-53.34,96.83-82.22A826,826,0,0,1,715,44.15C772.31,20.68,914.9,20.41,916.33,20.41h1.2l-.22,1.18c-.24,1.3-24,130-24,141.15V163l-.09.2c-3,6.53-10.15,40.23-13.93,59.12-1.21,6-2.65,37.39-2.65,152.47,0,27.36,7.14,40.72,7.21,40.85l.8,1.46-1.66,0c-3.14,0-314.42,4-350.66,4.67Q529.56,421.79,527.05,421.79ZM508.54,183.9c-.61,1.26-1.3,2.55-2,3.91-5.54,10.4-13.92,26.11-14.51,72.93-.71,56.86,1.49,145.49,3.25,149.59.15.36.29.72.43,1.09,1.5,4,3.36,8.91,36.63,8.3,34.92-.63,325-4.34,349.1-4.65-1.87-4.18-6.75-17.28-6.75-40.35,0-115.24,1.46-146.74,2.69-152.86,1-5.19,10.18-50.6,14-59.35.26-12.08,21.26-126.32,23.8-140.11-14,.08-145.23,1.41-199.42,23.59a823.86,823.86,0,0,0-111,56.34C558.47,130.64,525.22,158.84,508.54,183.9Zm71.52-5.5-.12-2h0c.33,0,18.44-1.28,22.14-10.06,4-9.43,3.26-25.05,1.59-27.56a14.77,14.77,0,0,1-1.06-2.06c-1.65-3.64-3.91-8.62-15-8.07a1.48,1.48,0,0,1-1.21-2.43c6.83-8,21.9-19.53,40.31-30.91C643.82,84.78,672.48,69,712.14,53.81,740,43.12,789.47,37.69,826.07,35c39.61-2.89,73.09-3.27,73.42-3.28h1.35L862.76,161.19l-.7,0Zm9.22-51.78c10.95,0,13.56,5.77,15.15,9.29a13.65,13.65,0,0,0,.9,1.78c2.35,3.53,2.55,20-1.41,29.44-1.75,4.15-6,6.79-10.51,8.46l267.83-16.3L898.16,33.76c-6.65.1-36.89.69-72,3.25-52.28,3.82-91.48,10.27-113.34,18.66-39.51,15.16-68.06,30.85-85,41.35-20.45,12.64-33.38,23.38-39,29.6Z"/><path class="cls-1" d="M331,476.74a83,83,0,1,1,83-83A83.09,83.09,0,0,1,331,476.74Zm0-164a81,81,0,1,0,81,81A81.09,81.09,0,0,0,331,312.74Z"/><path class="cls-1" d="M331,508A114.23,114.23,0,1,1,445.23,393.74,114.36,114.36,0,0,1,331,508Zm0-226.47A112.23,112.23,0,1,0,443.23,393.74,112.36,112.36,0,0,0,331,281.5Z"/><path class="cls-1" d="M1282.32,476.74a83,83,0,1,1,83-83A83.09,83.09,0,0,1,1282.32,476.74Zm0-164a81,81,0,1,0,81,81A81.09,81.09,0,0,0,1282.32,312.74Z"/><path class="cls-1" d="M1282.32,508a114.23,114.23,0,1,1,114.23-114.23A114.36,114.36,0,0,1,1282.32,508Zm0-226.47a112.23,112.23,0,1,0,112.23,112.23A112.36,112.36,0,0,0,1282.32,281.5Z"/><path class="cls-1" d="M470.63,450.24l0-1.53c0-1.57.13-3.58.25-6,.88-18.73,2.95-62.58-12.87-102.61C438.4,290.4,398.1,262.91,338.26,258.4c-48.65.63-86.68,16.71-112.95,47.77C213.1,320.62,197,346.33,189.75,386.8c-4.87,27.14-3.82,49.51-2.43,58.46l.18,1.18-1.19,0c-5.5-.12-134.9-3.21-162.6-18.27a1.59,1.59,0,0,1,.61-3,12.82,12.82,0,0,0,1.87-.3c-4.07-2.93-12.78-13.26-12.94-48.12H0V324l19.67-14.75h6.8L41.28,249.5c.25-.73,5.92-16,46.95-27.72,51.94-14.89,164.54-41.26,335.09-50.69C429.83,166.32,561.65,70.53,680,29.14c2-.89,56.87-24.82,215.68-28.07,155.53-3.19,235.9-.46,330.94,24.7,88.42,23.4,222.17,93.27,227.4,96l135.59,21.37.24.35c2.45,3.5,23.8,34.47,18.44,43.27-1,1.72-2.91,2.52-5.56,2.4.61,19,1.23,51.1,1.29,54.58l5.15,7.34v16.63c2.29,2.89,14.83,18.8,16.13,22.7,1.39,4.18,4.8,41.58,4,44-.64,1.93-14.49,42.21-15.3,44.57l-1.38,12.42-.47.25c-.29.15-29.84,15.48-64.24,23.42-16.51,3.81-35.52,8.93-50.79,13.05-17.9,4.82-30.83,8.31-34.1,8.31-5.91,0-39.62,1.32-40,1.33l-1,0,0-1c0-.57-1.37-57.38-5.3-71.76-2.41-8.85-13.75-37.32-36.94-62.42-30.79-33.34-69.6-48-115.33-43.52-49.18,4.8-84.6,27.13-105.3,66.39-16.12,30.57-23.19,72-20.47,119.89l.08,1.31-1.28-.27c-8.88-1.89-15.54-3.63-21.41-5.17-21.36-5.58-33.12-8.66-107-8.14-93.58.66-417.4,4.63-420.66,4.67-.93,0-95.38,3.42-116.3,11.93ZM338.32,256.41c60.76,4.57,101.64,32.48,121.59,83,16,40.43,13.89,84.58,13,103.44-.08,1.68-.15,3.17-.2,4.45,23.63-8.24,111.77-11.41,115.58-11.54,3.28,0,327.11-4,420.69-4.67,74.18-.52,86,2.58,107.56,8.21,5.57,1.46,11.84,3.1,20,4.87-3.49-65.51,8.78-175.48,127.64-187.08,25.28-2.46,48.83,1,70,10.18,17.33,7.54,33.13,19,47,34,23.45,25.39,34.95,54.27,37.4,63.25,3.74,13.72,5.14,63.23,5.34,71.22,5.7-.22,33.66-1.29,39-1.29,3,0,17.17-3.82,33.58-8.24,15.29-4.12,34.32-9.25,50.87-13.07,31.78-7.33,59.38-21,63.29-23l1.32-11.68c.15-.43,14.67-42.69,15.33-44.66.46-2.09-2.54-38.33-4-42.7-1-3.14-11.92-17.21-16-22.36l-.22-.27v-16.7L1602,244.4v-.31c0-.36-.67-36.22-1.33-56l0-1.18,1.17.16c2.45.33,4-.11,4.75-1.35,3.91-6.43-11.53-31.25-18.13-40.74L1453.35,123.7l-.15-.08c-1.37-.72-137.61-72.22-227.12-95.92C1131.27,2.61,1051-.11,895.69,3.07,735.22,6.36,681.28,30.73,680.76,31l-.09,0C560.2,73.15,425.61,171.88,424.26,172.88l-.24.18-.3,0c-170.53,9.4-283.05,35.76-334.95,50.63C49,235.11,43.25,249.92,43.19,250.07L28,311.24h-7.7L2,325v49.75H15.25v1c0,43.62,13.4,48.25,13.53,48.29l1.76.54-1.4,1.18A7.34,7.34,0,0,1,25.83,427C54,440.56,172,444,185.17,444.38c-1.32-9.75-2.11-31.66,2.61-57.93,4.06-22.57,13.59-55,36-81.56C250.44,273.36,289,257,338.32,256.41Z"/><path class="cls-1" d="M35.81,310.37a1.65,1.65,0,0,1-1.55-2.19l18.16-52.9-10.57-4.63.8-1.83,12.26,5.37L36.48,307.89c1.64-1.09,4-3,4-5.15v-.22l.09-.2c1-2.1,2-4.57,3.22-7.44,5.51-13,13.83-32.7,25.57-41.93,1.15-.91,2.22-1.93,3.35-3,12.85-12.3,36.76-35.19,348.57-78.74l.17,0,.17,0a375.19,375.19,0,0,0,40.43,5.53l2.18.16-1.54,1.54c-.48.48-5.85,4.9-44.56,10.78-4.78.73-12.87,1.84-23.11,3.25-37.27,5.12-106.66,14.66-166.4,26.2-86.21,16.65-107.83,28.92-110,36.55l25.81-.48c.18,0,5.79-.4,8.25,3.2,1.69,2.47,1.41,6.08-.83,10.74a266.46,266.46,0,0,0-11.45,28.87l-.21.66-73,3.6.27-1.27c.27-1.27,6.62-31.31,14.11-44.29l.28-.49,34.7-.5c4.86-24.16,150.87-47.27,278.15-64.76,10.24-1.41,18.32-2.52,23.08-3.24,25.4-3.86,36.18-7.06,40.59-8.81a373.16,373.16,0,0,1-37-5.23c-311,43.44-334.62,66-347.3,78.18-1.17,1.12-2.27,2.17-3.5,3.14-11.34,8.91-19.54,28.3-25,41.13-1.18,2.8-2.21,5.23-3.16,7.31-.15,3.14-3.24,5.62-5.85,7.17A1.64,1.64,0,0,1,35.81,310.37Zm47.28-52.64c-6.37,11.46-12,36.08-13.33,41.94l69-3.4a266.7,266.7,0,0,1,11.33-28.47c1.91-4,2.24-6.9,1-8.74-1.8-2.65-6.46-2.34-6.51-2.33l-28.13.52h0Z"/><rect class="cls-1" x="75.25" y="248.81" width="2" height="12.85" transform="translate(-189.74 269.82) rotate(-76.5)"/><path class="cls-1" d="M45.71,303.82c-1.38,0-2.8,0-4.24-.08l.07-2a123.93,123.93,0,0,0,26.76-2l.41,2A124.84,124.84,0,0,1,45.71,303.82Z"/><path class="cls-1" d="M26.42,311.34l-.16-.93c-4.43-25.65-3.16-41.34,3.76-46.66a9.34,9.34,0,0,1,9.21-1.09l-.83,1.82a7.32,7.32,0,0,0-7.18.87c-4.26,3.3-8.24,13.59-3.15,43.79l7.29-.81.22,2Z"/><polygon class="cls-1" points="1.04 325.49 0.96 323.49 130.06 318.76 138.57 296.88 140.43 297.6 131.44 320.71 130.79 320.74 1.04 325.49"/><path class="cls-1" d="M15.25,375.74h-2V370l111.07-1.5c.45-6.46,3.1-42.95,5.5-49.12l1.86.72c-2.47,6.36-5.41,49-5.43,49.46l-.06.92L15.25,372Z"/><path class="cls-1" d="M28.55,426l-.09-2,43.6-2.05a3.72,3.72,0,0,0,3.53-3.41L79.5,370l2,.16-3.91,48.51a5.73,5.73,0,0,1-5.43,5.25Z"/><path class="cls-1" d="M187.68,393.77l-46.44-3.12a15.7,15.7,0,0,1-12.58-9.13l-4.35-11.69,1.88-.7,4.32,11.62a13.66,13.66,0,0,0,10.91,7.9l46.4,3.12Z"/><path class="cls-1" d="M1614.86,277.74h-15.19c-3.76,0-8.62-9.35-9.56-11.22l-.11-.21v-48.9l-2.64-28.33-20.95-32.73c-7.25-.82-94.58-10.74-115.53-13.28a184.72,184.72,0,0,1-38.23-8.72C1411.5,133.79,1304.74,82.5,1200,39c-93.58-26.89-217-27.48-282.3-25.45C816.24,16.74,733.36,29,699.28,39c-73.65,21.7-235.07,138.34-236.7,139.52l-1.17-1.62c1.62-1.18,163.33-118,237.3-139.82C732.91,27,816,14.75,917.63,11.57c65.4-2,189.13-1.44,283,25.54l.11,0c104.81,43.51,211.65,94.84,212.72,95.36a183.38,183.38,0,0,0,37.69,8.58c21.75,2.64,115.05,13.23,116,13.33l.47.05,21.72,33.94,2.69,28.91v48.52c2.43,4.8,6,9.9,7.67,9.9h15.19Z"/><path class="cls-1" d="M1417.85,365.72l-.36-2c80.18-14.58,89.79-17.36,102.82-29.74,8.92-7.65,9.68-42.94,9.69-43.29l-.66-57-37-48.21h94.63v2h-90.57l35,45.52.67,57.67c0,1.52-.79,36.57-10.35,44.77C1508.12,348.35,1499.39,350.9,1417.85,365.72Z"/><rect class="cls-1" x="1521" y="333.41" width="107.34" height="2" transform="translate(-1.93 9.23) rotate(-0.34)"/><rect class="cls-1" x="1531" y="289.74" width="93.33" height="2"/><rect class="cls-1" x="1530.33" y="232.41" width="60.67" height="2"/><rect class="cls-1" x="688.67" y="23.92" width="2" height="20.31" transform="matrix(0.39, -0.92, 0.92, 0.39, 386.67, 654.55)"/><rect class="cls-1" x="1199.15" y="31.41" width="28.36" height="2" transform="translate(88.09 487.44) rotate(-23.55)"/><path class="cls-1" d="M842.72,215.74H810.65a11.23,11.23,0,0,1-10.52-7.38l-2.63-7.26a10.11,10.11,0,0,1,9.5-13.56h39.24a10.11,10.11,0,0,1,9.56,13.39l-2.49,7.24A11.19,11.19,0,0,1,842.72,215.74ZM807,189.54a8.11,8.11,0,0,0-7.62,10.87l2.63,7.26a9.22,9.22,0,0,0,8.64,6.06h32.08a9.19,9.19,0,0,0,8.69-6.21l2.49-7.24a8.11,8.11,0,0,0-7.67-10.74Z"/><rect class="cls-1" x="798.43" y="199.69" width="56.42" height="2" transform="translate(-0.49 2.02) rotate(-0.14)"/><path class="cls-1" d="M1162.72,215.74h-32.08a11.23,11.23,0,0,1-10.52-7.38l-2.63-7.26a10.11,10.11,0,0,1,9.5-13.56h39.25a10.11,10.11,0,0,1,9.56,13.39l-2.49,7.24A11.19,11.19,0,0,1,1162.72,215.74ZM1122,207.68a9.22,9.22,0,0,0,8.64,6.06h32.08a9.2,9.2,0,0,0,8.69-6.21l2.49-7.24a8.11,8.11,0,0,0-7.67-10.74H1127a8.11,8.11,0,0,0-7.62,10.87Z"/><rect class="cls-1" x="1118.43" y="199.69" width="56.42" height="2" transform="translate(-0.58 3.36) rotate(-0.17)"/><path class="cls-1" d="M571.54,178.4a37.46,37.46,0,0,1-8.82-.71l-.16,0-.14-.1c-10.42-7.46-11.77-15.36-10.33-33.85,2-16.26,35.47-17.05,36.9-17.08l0,2c-.33,0-33.15.78-34.94,15.28-1.38,17.83-.22,25,9.37,31.92,5,1.35,23.29-.07,23.48-.08l.16,2C586.57,177.78,578.49,178.4,571.54,178.4Z"/><rect class="cls-1" x="483.5" y="158.39" width="2" height="45.51" transform="translate(232.94 633.11) rotate(-81.4)"/><path class="cls-1" d="M1215.83,153.47l-2.82-5.15c-15.14-27.65-50.6-92.41-62.7-106.72l-2.49-2.94,3.61,1.36c28.55,10.78,62.37,31.82,85.71,47.57,29.94,20.2,54.22,39.35,65.91,49.62a9,9,0,0,1-5.12,15.7ZM1154.14,43.25c13.9,18.78,46.32,78,60.62,104.12l2.25,4.1,80.83-.55a7,7,0,0,0,3.9-12.2C1247.89,91.46,1181.55,54.56,1154.14,43.25Z"/></g></g></g></svg>