<?xml version="1.0" encoding="UTF-8" standalone="no"?>
<svg width="22px" height="22px" viewBox="0 0 22 22" version="1.1" xmlns="http://www.w3.org/2000/svg" xmlns:xlink="http://www.w3.org/1999/xlink">
    <!-- Generator: Sketch 40.3 (33839) - http://www.bohemiancoding.com/sketch -->
    <title>mail</title>
    <desc>Created with Sketch.</desc>
    <defs></defs>
    <g id="Page-1" stroke="none" stroke-width="1" fill="none" fill-rule="evenodd">
        <g id="ContactUs_desktop" transform="translate(-186.000000, -272.000000)">
            <g id="Group-12" transform="translate(187.000000, 208.000000)">
                <g id="Group-26">
                    <g id="mail" transform="translate(0.000000, 65.000000)">
                        <circle id="Oval-2" stroke="#ADADAD" cx="10" cy="10" r="10"></circle>
                        <g id="ic_email_black_24px" transform="translate(5.000000, 6.000000)" fill="#000000" opacity="0.600000024">
                            <path d="M9,0 L1,0 C0.45,0 0.005,0.45 0.005,1 L0,7 C0,7.55 0.45,8 1,8 L9,8 C9.55,8 10,7.55 10,7 L10,1 C10,0.45 9.55,0 9,0 L9,0 Z M9,2 L5,4.5 L1,2 L1,1 L5,3.5 L9,1 L9,2 L9,2 Z" id="Shape"></path>
                        </g>
                    </g>
                </g>
            </g>
        </g>
    </g>
</svg>