<svg id="Layer_1" data-name="Layer 1" xmlns="http://www.w3.org/2000/svg" viewBox="0 0 305 210"><defs><style>.cls-1{opacity:0.7;}.cls-2{fill:#2a1f48;}.cls-3{fill:#fff;}.cls-4{fill:#623ed9;}.cls-5{fill:#dbdbdb;}.cls-6{fill:#c4c4c4;}.cls-7{fill:#bcbcbc;}.cls-8{fill:none;}.cls-9{opacity:0.46;}.cls-10{fill:#b831ff;}.cls-11{opacity:0.69;}.cls-12{fill:#662d91;}.cls-13{fill:#dc3b78;}.cls-14{fill:#888889;}.cls-15{fill:#4f3ab5;}.cls-16{fill:#6d6e71;}</style></defs><title>MobileDiagram</title><g class="cls-1"><path class="cls-2" d="M216,29.94a72.13,72.13,0,0,0-102,102A72.13,72.13,0,0,0,216,29.94Z"/></g><g class="cls-1"><path class="cls-2" d="M67.45,105.7l0-1.67v-1.45l0-.51v0l0-.52v-0.09l0-.5v-0.07l0-1.25v0l0-1.23v-1l0.07-1.84V95.11l0-.77,0-.57c0.13-3.6.28-7.53,0.4-11.17v0l0-.48v0c0.16-4.66.3-8.75,0.33-10.91h0V70.88h0V70.47c0-.07,0-0.14,0-0.2s0-.23,0-0.35v-0.1q0-.14,0-0.29V69.44q0-.19,0-0.38V69l0-.32V68.54l0-.35V68.14l-0.06-.41,0-.12,0-.32,0-.12-0.07-.41V66.71l-0.06-.37,0-.12-0.06-.34V65.82L68,65.42l0-.09L67.89,65l0-.09-0.16-.74V64.12l-0.07-.31v0c-0.22-.95-0.38-1.58-0.38-1.58L69,54.85,68.8,36.59h0v0l0,0v0l0-.09h0l-0.05-.13v0l-0.05-.13,0,0-0.07-.17v0l-0.09-.23v0l-0.09-.22,0-.07-0.1-.23,0-.06L68,34.68v0l-0.13-.3,0-.08L67.73,34l0-.08-0.36-.77,0-.1-0.16-.32-0.05-.11-0.19-.38h0l-0.25-.48,0-.06-0.23-.43,0-.09q-0.26-.48-0.55-1l-0.07-.12-0.24-.41-0.06-.09-0.3-.49L65,28.94l-0.25-.4-0.09-.14-0.33-.5c-2.89-4.23-7.74-5.45-12-6.57A62.07,62.07,0,0,0,39.44,19.9h0a60,60,0,0,0-12.64,1.45c-4.29,1.12-9.14,2.34-12,6.57l-0.33.5-0.09.14-0.26.4L14,29.05l-0.3.5-0.05.09-0.25.42-0.07.12q-0.29.5-.55,1l0,0.09-0.23.43,0,0.05L12,32.6,12,32.71,11.81,33l0,0.1-0.36.77,0,0.08-0.13.28,0,0.09-0.13.3v0L10.91,35l0,0-0.1.24,0,0.07-0.09.22v0l-0.09.24v0l-0.07.18,0,0-0.05.14v0l-0.05.14h0l0,0.1h0l0,0.05h0v0l-0.09,7.58L10.06,54.85l1.5,6.21h0l0.28,1.14s-0.13.51-.31,1.29l-0.07.3v0l-0.07.31v0.06l-0.16.74,0,0.09-0.07.32,0,0.08-0.08.4v0.07L11,66.23l0,0.11-0.07.38v0l-0.07.42,0,0.11,0,0.33,0,0.11-0.06.41v0l0,0.36v0.11l0,0.33v0.08q0,0.19,0,.38v0.09q0,0.15,0,.29v0.1c0,0.12,0,.24,0,0.35v0.19c0,0.06,0,.12,0,0.18v0c0,2.51.24,8.84,0.48,15.47,0.07,2,.14,4,0.22,5.91l0,1.21,0,1.08,0,0.77v1.07l0,1.2v1.53l0,0.66v0l0,1.25v0.07l0,0.5v0.09l0,0.52v0l0,0.51V104l0,1.46v0.21L6.86,104a5.13,5.13,0,0,0,.1.89,5.9,5.9,0,0,0,1.14,2.54,8.34,8.34,0,0,0,3.63,2.12l0.05,1.81,0,0.66v0.71h0l0,0.29-0.18.12-0.19.15-0.22.2-0.23.26-0.11.15a2.36,2.36,0,0,0-.41.91l0,0.11h0v0.84h0c0,0.41-.09.88-0.12,1.39l0,0.23c-0.1,1.41-.17,3-0.17,3.87,0,0.59.09,2.94,0.21,5.65l0,0.78,0,0.79c0,0.93.08,1.87,0.13,2.77h0l0.29,0.57a2.73,2.73,0,0,1-.3-0.58c0.14,3,.26,5.59.26,5.59a32.5,32.5,0,0,0,5.78,8.7,16.79,16.79,0,0,0,1.3,1.17,11.75,11.75,0,0,0,2.07,2.06L21,149.65c1.41,1.18,3.07,2.44,4.88,2.14a3,3,0,0,0,1.23-.51l0.08,0.09c0.5,0.12,1,.22,1.56.32a57.22,57.22,0,0,0,10.67.74,59.55,59.55,0,0,0,10.9-.74c0.55-.1,1.07-0.21,1.56-0.32l0.09-.1a3,3,0,0,0,1.24.53,4.55,4.55,0,0,0,3.15-.84A7.14,7.14,0,0,0,58,150.4a3.84,3.84,0,0,0,2-1.84,1,1,0,0,0-.87.27l0.15-.13a12.63,12.63,0,0,0,2-1.9,16.58,16.58,0,0,0,1.5-1.33,32.5,32.5,0,0,0,5.78-8.7s0-2.55.15-5.59a2.86,2.86,0,0,1-.31.6l0.31-.6c0.19-4.1.41-9.1,0.41-10,0-1.24-.14-3.9-0.31-5.49v0l0-.14v-0.7l0-.11A3.09,3.09,0,0,0,67.25,113l0-.29h0c0-.49,0-1.6.09-3.17A8.34,8.34,0,0,0,71,107.38a5.9,5.9,0,0,0,1.14-2.54,5.13,5.13,0,0,0,.1-0.89Zm-28-85.8s0,0,0,0S39.41,19.9,39.43,19.9ZM57.77,150l-0.25.15,0.59-.48,0.51-.43A9.13,9.13,0,0,1,57.77,150Z"/></g><circle class="cls-3" cx="164.37" cy="79.29" r="71.4"/><path class="cls-4" d="M89.54,123.63h0l-9.92-.11,0-1.45,9.57,0.11,42.4-51.34,1.12,0.93L90.11,123.36A0.73,0.73,0,0,1,89.54,123.63Z"/><path class="cls-3" d="M57.36,140.14a2,2,0,0,1,3.1-.05,3.2,3.2,0,0,1,.12,3.44,9.41,9.41,0,0,1-2.45,2.67l-1.13.94c-1.41,1.18-3.07,2.44-4.88,2.14a3,3,0,0,1-2.51-3c0.07-1.54,1.39-2.7,2.69-3.54a48.09,48.09,0,0,1,6.5-3.31"/><path class="cls-3" d="M19.54,140.14a2,2,0,0,0-3.1-.05,3.2,3.2,0,0,0-.12,3.44,9.41,9.41,0,0,0,2.45,2.67l1.13,0.94c1.41,1.18,3.07,2.44,4.88,2.14a3,3,0,0,0,2.51-3c-0.07-1.54-1.39-2.7-2.69-3.54a48.09,48.09,0,0,0-6.5-3.31"/><g id="_Group_" data-name="&lt;Group&gt;"><path class="cls-5" d="M9.38,67.75c0,4.36.92,26.72,1.11,33.76,0.14,5.35.24,8.93,0.24,8.93a3.09,3.09,0,0,0-1.34,1.78A55.15,55.15,0,0,0,9,118.67c0,0.89.22,5.89,0.41,10C13,136,19.69,141,25,147.54a17,17,0,0,0,1.11,1.31c0.5,0.12,1,.22,1.56.32a57.22,57.22,0,0,0,10.67.74,59.55,59.55,0,0,0,10.9-.74c0.55-.1,1.07-0.21,1.56-0.32a17,17,0,0,0,1.11-1.31c5.29-6.58,12-11.5,15.62-18.88,0.19-4.1.41-9.1,0.41-10a55.15,55.15,0,0,0-.45-6.46,3.09,3.09,0,0,0-1.34-1.78s0.1-3.58.24-8.93c0.18-7,1.11-29.4,1.11-33.76a43.62,43.62,0,0,0-1.35-8.08l1.78-7.35L67.7,34.07a41.85,41.85,0,0,0-4.45-8.68c-2.89-4.23-7.74-5.45-12-6.57a62.07,62.07,0,0,0-12.87-1.45h0a60,60,0,0,0-12.64,1.45c-4.29,1.12-9.14,2.34-12,6.57a41.85,41.85,0,0,0-4.45,8.68L9,52.33l1.78,7.35A43.62,43.62,0,0,0,9.38,67.75ZM38.32,17.38s0,0,0,0S38.3,17.38,38.32,17.38Z"/></g><g id="_Group_2" data-name="&lt;Group&gt;"><path class="cls-5" d="M9.38,67.75c0,4.36.92,26.72,1.11,33.76,0.14,5.35.24,8.93,0.24,8.93a3.09,3.09,0,0,0-1.34,1.78A55.15,55.15,0,0,0,9,118.67c0,0.89.22,5.89,0.41,10C13,136,19.69,141,25,147.54a17,17,0,0,0,1.11,1.31c0.5,0.12,1,.22,1.56.32a57.22,57.22,0,0,0,10.67.74,59.55,59.55,0,0,0,10.9-.74c0.55-.1,1.07-0.21,1.56-0.32a17,17,0,0,0,1.11-1.31c5.29-6.58,12-11.5,15.62-18.88,0.19-4.1.41-9.1,0.41-10a55.15,55.15,0,0,0-.45-6.46,3.09,3.09,0,0,0-1.34-1.78s0.1-3.58.24-8.93c0.18-7,1.11-29.4,1.11-33.76a43.62,43.62,0,0,0-1.35-8.08l1.78-7.35L67.7,34.07a41.85,41.85,0,0,0-4.45-8.68c-2.89-4.23-7.74-5.45-12-6.57a62.07,62.07,0,0,0-12.87-1.45h0a60,60,0,0,0-12.64,1.45c-4.29,1.12-9.14,2.34-12,6.57a41.85,41.85,0,0,0-4.45,8.68L9,52.33l1.78,7.35A43.62,43.62,0,0,0,9.38,67.75ZM38.32,17.38s0,0,0,0S38.3,17.38,38.32,17.38Z"/></g><g id="_Group_3" data-name="&lt;Group&gt;"><path d="M62.92,63.54l-0.09-.06h0c0-.39,0-0.77,0-1.14h0.05l0.09,1.17v0.05Z"/></g><g id="_Group_4" data-name="&lt;Group&gt;"><path class="cls-2" d="M63.24,70.09c-0.16-1.94-.36-3.36-0.36-3.36l-4-.26s0,1.29-.07,3.12Z"/></g><g id="_Group_5" data-name="&lt;Group&gt;"><path class="cls-6" d="M66.26,67.24c0.44,10-.39,19.94.26,29.85,0.3-8.89.91-24.21,1-28.77"/></g><g id="_Group_6" data-name="&lt;Group&gt;"><path class="cls-6" d="M63.24,70.09c0,0.29,0,.59.07,0.9,0.17,2.39.34,39.55,0.34,39.55l-0.08,1.74v0c0.2,0.82.54,1.79,1.37,2a2.3,2.3,0,0,0,1.37-.29,11.32,11.32,0,0,0,1.3-.65c0-.48-0.1-0.87-0.15-1.13a3.09,3.09,0,0,0-1.34-1.78s0.1-3.58.24-8.93c0-1.12.08-2.64,0.14-4.41-0.65-9.91.18-19.88-.26-29.85A3.24,3.24,0,0,0,65.57,67a5,5,0,0,0-2.63.2C63,67.77,63.14,68.82,63.24,70.09Z"/></g><g id="_Group_7" data-name="&lt;Group&gt;"><path class="cls-5" d="M60.59,109.52A19.37,19.37,0,0,1,61.1,113c0,1.36.09,2.9,0.09,2.9l0.51,0.17s0.85,0.85,1.19,4.35c0.28,2.86-.24,12.26-0.44,15.6a35.53,35.53,0,0,0,5.06-7.37c0.19-4.1.41-9.1,0.41-10a55.15,55.15,0,0,0-.45-6.46,3.09,3.09,0,0,0-1.34-1.78l0-.29a2.58,2.58,0,0,1-.88.4,9.49,9.49,0,0,1-1.62,0l-0.09,1.88s-0.17,1-.51.43a32.23,32.23,0,0,1-.94-4.43Z"/></g><g id="_Group_8" data-name="&lt;Group&gt;"><path d="M57.89,117.94c2-1.11,3.3-2,3.3-2s-0.09-1.53-.09-2.9a19.37,19.37,0,0,0-.51-3.49h0a1.78,1.78,0,0,1-.38,0C60.33,112.54,59.09,115.3,57.89,117.94Z"/><path d="M57.66,118.19l0.13-.29c1.14-2.5,2.44-5.33,2.31-8.35v-0.11H60.2a1.68,1.68,0,0,0,.36,0l0.1,0,0,0.1A19.28,19.28,0,0,1,61.2,113c0,1.35.08,2.88,0.09,2.89V116l0,0s-1.35.94-3.3,2Zm2.65-8.54c0.1,2.91-1.09,5.63-2.2,8,1.59-.91,2.72-1.67,3-1.83,0-.29-0.08-1.64-0.08-2.85a18.71,18.71,0,0,0-.49-3.39Z"/></g><g id="_Group_9" data-name="&lt;Group&gt;"><path d="M58.62,78.15c-0.09,4.52.17,10.31,0.43,12.79s3.07,17.47,3.07,17.47a32.23,32.23,0,0,0,.94,4.43c0.34,0.6.51-.43,0.51-0.43l0.09-1.88S63.48,73.38,63.31,71c0-.31,0-0.61-0.07-0.9l-4.44-.5C58.75,72.07,58.67,75.55,58.62,78.15Z"/><path d="M63.26,113.13A0.4,0.4,0,0,1,63,112.9a31.22,31.22,0,0,1-1-4.47c0-.15-2.82-15-3.07-17.48-0.27-2.64-.51-8.41-0.43-12.8h0c0-2.59.13-6.08,0.18-8.56V69.48L63.34,70v0.09c0,0.29,0,.59.07,0.9,0.17,2.36.34,39.19,0.34,39.56l-0.09,1.88a0.88,0.88,0,0,1-.37.71h0Zm-4.53-35c-0.08,4.38.15,10.14,0.43,12.77,0.25,2.44,3,17.32,3.07,17.47a28.41,28.41,0,0,0,.93,4.4,0.25,0.25,0,0,0,.11.13,1,1,0,0,0,.2-0.53l0.08-1.86c0-.37-0.17-37.18-0.34-39.54,0-.28,0-0.55-0.06-0.81l-4.24-.48c-0.06,2.47-.13,5.89-0.18,8.44h0Z"/></g><g id="_Group_10" data-name="&lt;Group&gt;"><path class="cls-2" d="M59.29,69.65c0,2.07-.09,6.48-0.16,8.85-0.09,3.15.43,11.34,0.6,13.13s1.79,11.08,1.79,11.08l1.45-.17L62.73,70Z"/></g><g id="_Group_11" data-name="&lt;Group&gt;"><path class="cls-5" d="M66.41,58.53l1.5-6.21-0.2-16.27a13.94,13.94,0,0,0-1.88-3.25C66.17,45.3,66.34,53.36,66.41,58.53Z"/></g><g id="_Group_12" data-name="&lt;Group&gt;"><path class="cls-5" d="M67.72,36.06l0-2a40,40,0,0,0-1.94-4.42c0,1.08.06,2.13,0.09,3.16A13.94,13.94,0,0,1,67.72,36.06Z"/></g><g id="_Group_13" data-name="&lt;Group&gt;"><path class="cls-6" d="M66.38,67.38l-0.12-.14S66.33,67.84,66.38,67.38Z"/></g><g id="_Group_14" data-name="&lt;Group&gt;"><path class="cls-6" d="M67.49,67.75a36.3,36.3,0,0,0-1-6.82c0,4.41,0,6-.06,6.45l1.1,1.23C67.49,68.28,67.49,68,67.49,67.75Z"/></g><g id="_Group_15" data-name="&lt;Group&gt;"><path d="M62.89,66.73a63.6,63.6,0,0,0-.43-8.27c-0.51-3.75-3.15-14-3.15-14l-0.43,22Z"/><path d="M63,66.84l-4.21-.27,0.44-22.85,0.19,0.73c0,0.1,2.65,10.28,3.16,14A64.2,64.2,0,0,1,63,66.73v0.11Zm-4-.46,3.8,0.24a63.32,63.32,0,0,0-.43-8.14c-0.42-3.11-2.35-10.8-3-13.23Z"/></g><g id="_Group_16" data-name="&lt;Group&gt;"><path d="M62.92,63.54l-0.09-.06h0c0-.39,0-0.77,0-1.14h0.05l0.09,1.17v0.05Z"/></g><g id="_Group_17" data-name="&lt;Group&gt;"><path class="cls-2" d="M61.95,64.43l-2.22.09s-0.43.17-.43-0.68,0-8,.09-9.89c0.05-1.13.13-2.79,0.19-3.93a0.17,0.17,0,0,1,.34,0c0.44,2,1.28,5.9,1.51,7.53C62.38,64,61.95,64.43,61.95,64.43Z"/></g><g id="_Group_18" data-name="&lt;Group&gt;"><path class="cls-3" d="M64.73,34.67s-0.74,1-1.11.74-0.82-1.41-1.86-3-6.53-9.2-6.53-9.2,3.93,1.19,5.79,2.75a10.2,10.2,0,0,1,3.27,5.94C64.51,33.63,64.73,34.67,64.73,34.67Z"/></g><g id="_Group_19" data-name="&lt;Group&gt;"><path class="cls-2" d="M16.67,109.54c-0.13,3,1.11,5.76,2.32,8.4a36,36,0,0,0,7,3.12c5.14,1.53,12.29,1.2,12.29,1.2s7.39,0.33,12.53-1.2a36,36,0,0,0,7-3.12c1.21-2.64,2.45-5.4,2.32-8.4a1.78,1.78,0,0,0,.38,0L57.41,92.17s-6.89,1-11.38,1.09-7.71,0-7.71,0-3,.11-7.48,0-11.38-1.09-11.38-1.09L16.29,109.5A1.78,1.78,0,0,0,16.67,109.54Z"/></g><g id="_Group_20" data-name="&lt;Group&gt;"><path d="M71.11,101.43l-6.39,2.34v0.83L71,102.32A5.13,5.13,0,0,0,71.11,101.43Z"/><path d="M64.62,104.75v-1.05l6.6-2.41v0.15a5.2,5.2,0,0,1-.11.91v0.06Zm0.21-.91v0.61l6.09-2.21a5.71,5.71,0,0,0,.09-0.66Z"/></g><g id="_Group_21" data-name="&lt;Group&gt;"><path class="cls-2" d="M61,102.52l1.13,5.89,3.39-1.22s3.12-.78,4.36-2.34A5.9,5.9,0,0,0,71,102.32l-6.28,2.28v0.26H63.63v-2.65Z"/></g><g id="_Group_22" data-name="&lt;Group&gt;"><path d="M14,63.54V63.49s0-.44.09-1.17H14.1c0,0.37,0,.76,0,1.14h0Z"/></g><g id="_Group_23" data-name="&lt;Group&gt;"><path class="cls-2" d="M13.63,70.09c0.16-1.94.36-3.36,0.36-3.36l4-.26s0,1.29.07,3.12Z"/></g><g id="_Group_24" data-name="&lt;Group&gt;"><path class="cls-6" d="M10.61,67.24c-0.44,10,.39,19.94-0.26,29.85-0.3-8.89-.91-24.21-1-28.77"/></g><g id="_Group_25" data-name="&lt;Group&gt;"><path class="cls-6" d="M13.63,70.09c0,0.29,0,.59-0.07.9-0.17,2.39-.34,39.55-0.34,39.55l0.08,1.74v0c-0.2.82-.54,1.79-1.37,2a2.3,2.3,0,0,1-1.37-.29,11.32,11.32,0,0,1-1.3-.65c0-.48.1-0.87,0.15-1.13a3.09,3.09,0,0,1,1.34-1.78s-0.1-3.58-.24-8.93c0-1.12-.08-2.64-0.14-4.41,0.65-9.91-.18-19.88.26-29.85A3.24,3.24,0,0,1,11.3,67a5,5,0,0,1,2.63.2C13.85,67.77,13.73,68.82,13.63,70.09Z"/></g><g id="_Group_26" data-name="&lt;Group&gt;"><path class="cls-5" d="M16.29,109.52a19.37,19.37,0,0,0-.51,3.49c0,1.36-.09,2.9-0.09,2.9l-0.51.17s-0.85.85-1.19,4.35c-0.28,2.86.24,12.26,0.44,15.6a35.53,35.53,0,0,1-5.06-7.37c-0.19-4.1-.41-9.1-0.41-10a55.15,55.15,0,0,1,.45-6.46,3.09,3.09,0,0,1,1.34-1.78l0-.29a2.58,2.58,0,0,0,.88.4,9.49,9.49,0,0,0,1.62,0l0.09,1.88s0.17,1,.51.43a32.23,32.23,0,0,0,.94-4.43Z"/></g><g id="_Group_27" data-name="&lt;Group&gt;"><path d="M19,117.94c-2-1.11-3.3-2-3.3-2s0.09-1.53.09-2.9a19.37,19.37,0,0,1,.51-3.49h0a1.78,1.78,0,0,0,.38,0C16.54,112.54,17.78,115.3,19,117.94Z"/><path d="M19.21,118.19L18.93,118c-2-1.1-3.29-2-3.3-2l0,0v-0.06s0.09-1.55.09-2.89a19.18,19.18,0,0,1,.51-3.52l0-.1h0.1a1.68,1.68,0,0,0,.36,0h0.11v0.11c-0.13,3,1.16,5.85,2.31,8.35Zm-3.42-2.33c0.24,0.16,1.37.92,3,1.83-1.1-2.42-2.29-5.13-2.2-8l-0.19,0a18.74,18.74,0,0,0-.49,3.39C15.88,114.22,15.81,115.57,15.8,115.86Z"/></g><g id="_Group_28" data-name="&lt;Group&gt;"><path d="M18.25,78.15c0.09,4.52-.17,10.31-0.43,12.79s-3.07,17.47-3.07,17.47a32.23,32.23,0,0,1-.94,4.43c-0.34.6-.51-0.43-0.51-0.43l-0.09-1.88s0.17-37.17.34-39.55c0-.31,0-0.61.07-0.9l4.44-.5C18.12,72.07,18.2,75.55,18.25,78.15Z"/><path d="M13.61,113.13h0a0.87,0.87,0,0,1-.37-0.7l-0.09-1.89c0-.38.17-37.2,0.34-39.56,0-.31,0-0.61.07-0.9V70l4.63-.52v0.11c0.06,2.46.13,5.94,0.18,8.56h0c0.08,4.39-.15,10.16-0.43,12.8-0.25,2.45-3,17.33-3.07,17.48a31.18,31.18,0,0,1-.95,4.47A0.4,0.4,0,0,1,13.61,113.13Zm0.11-43c0,0.26,0,.53-0.06.81-0.17,2.36-.34,39.17-0.34,39.55l0.09,1.87a0.91,0.91,0,0,0,.2.51,0.25,0.25,0,0,0,.11-0.13,28.37,28.37,0,0,0,.93-4.4c0-.15,2.82-15,3.07-17.47,0.27-2.63.51-8.39,0.43-12.77h0c0-2.57-.12-6-0.18-8.44Z"/></g><g id="_Group_29" data-name="&lt;Group&gt;"><path class="cls-2" d="M17.58,69.65c0,2.07.09,6.48,0.16,8.85,0.09,3.15-.43,11.34-0.6,13.13s-1.79,11.08-1.79,11.08l-1.45-.17L14.14,70Z"/></g><g id="_Group_30" data-name="&lt;Group&gt;"><path class="cls-5" d="M10.46,58.53L9,52.33l0.2-16.27A13.94,13.94,0,0,1,11,32.81C10.7,45.3,10.53,53.36,10.46,58.53Z"/></g><g id="_Group_31" data-name="&lt;Group&gt;"><path class="cls-5" d="M9.15,36.06l0-2a40,40,0,0,1,1.94-4.42c0,1.08-.06,2.13-0.09,3.16A13.94,13.94,0,0,0,9.15,36.06Z"/></g><g id="_Group_32" data-name="&lt;Group&gt;"><path class="cls-6" d="M10.49,67.38l0.12-.14S10.54,67.84,10.49,67.38Z"/></g><g id="_Group_33" data-name="&lt;Group&gt;"><path class="cls-6" d="M9.38,67.75a36.3,36.3,0,0,1,1-6.82c0,4.41,0,6,.06,6.45l-1.1,1.23C9.38,68.28,9.38,68,9.38,67.75Z"/></g><g id="_Group_34" data-name="&lt;Group&gt;"><path d="M14,66.73a63.6,63.6,0,0,1,.43-8.27c0.51-3.75,3.15-14,3.15-14l0.43,22Z"/><path d="M13.88,66.84V66.73a64.19,64.19,0,0,1,.43-8.28c0.51-3.71,3.13-13.89,3.16-14l0.19-.73L18.1,66.57Zm3.59-21.59c-0.61,2.42-2.54,10.11-3,13.23a63.31,63.31,0,0,0-.43,8.14l3.8-.24Z"/></g><g id="_Group_35" data-name="&lt;Group&gt;"><path d="M14,63.54V63.49s0-.44.09-1.17H14.1c0,0.37,0,.76,0,1.14h0Z"/></g><g id="_Group_36" data-name="&lt;Group&gt;"><path class="cls-2" d="M14.92,64.43l2.22,0.09s0.43,0.17.43-.68,0-8-.09-9.89c-0.05-1.13-.13-2.79-0.19-3.93a0.17,0.17,0,0,0-.34,0c-0.44,2-1.28,5.9-1.51,7.53C14.5,64,14.92,64.43,14.92,64.43Z"/></g><g id="_Group_37" data-name="&lt;Group&gt;"><path class="cls-5" d="M14.41,58.46c0.51-3.75,3.15-14,3.15-14a19.73,19.73,0,0,1,2.81-.94c1.19-.26,5.71-0.6,8.69-0.94,2.3-.26,7.12-0.27,9.25-0.26s7.18,0,9.48.26c3,0.34,7.5.68,8.69,0.94a19.73,19.73,0,0,1,2.81.94s2.64,10.23,3.15,14c0,0.34.09,0.68,0.12,1-0.3-3.87-.77-9.54-1.15-12.36-0.6-4.52-1.53-13.55-3.75-17.39s-6.22-8.52-12.79-9c-3.22-.21-5.39-0.29-6.58-0.33s-3.13.12-6.35,0.33c-6.56.43-10.57,5.11-12.79,9S16,42.6,15.43,47.12c-0.37,2.82-.84,8.5-1.15,12.36C14.32,59.14,14.36,58.8,14.41,58.46Z"/></g><g id="_Group_38" data-name="&lt;Group&gt;"><path class="cls-2" d="M25.41,33.57a55.27,55.27,0,0,1,12.91-1.18,57.17,57.17,0,0,1,13.15,1.18c6.39,1.62,7.42,6.14,7.42,6.14,0-.34-1.36-8.52-3.07-11.17s-4.52-6.82-10.4-7.25c-3.67-.27-6-0.4-7.09-0.46s-3.19.2-6.86,0.46c-5.88.43-8.69,4.6-10.4,7.25S18,39.36,18,39.71C18,39.71,19,35.19,25.41,33.57Z"/></g><g id="_Group_39" data-name="&lt;Group&gt;"><path class="cls-3" d="M12.14,34.67s0.74,1,1.11.74,0.82-1.41,1.86-3,6.53-9.2,6.53-9.2-3.93,1.19-5.79,2.75a10.2,10.2,0,0,0-3.27,5.94C12.36,33.63,12.14,34.67,12.14,34.67Z"/></g><g id="_Group_40" data-name="&lt;Group&gt;"><path class="cls-5" d="M12.51,30.58a10.79,10.79,0,0,1,1.86-3.78,14.94,14.94,0,0,1,5-3.41,11.13,11.13,0,0,1,2.89-1s5.34-2.75,7.72-2.89c1.79-.11,6.27-0.35,8.37-0.46,2.1,0.11,6.81.35,8.6,0.46,2.37,0.15,7.72,2.89,7.72,2.89a11.13,11.13,0,0,1,2.89,1,14.94,14.94,0,0,1,5,3.41,10.79,10.79,0,0,1,1.86,3.78l1.47,2.21-0.06-3.11a38.61,38.61,0,0,0-2.53-4.3c-2.89-4.23-7.74-5.45-12-6.57a62.07,62.07,0,0,0-12.87-1.45h0a60,60,0,0,0-12.64,1.45c-4.29,1.12-9.14,2.34-12,6.57a38.61,38.61,0,0,0-2.53,4.3L11,32.8ZM38.32,17.38s0,0,0,0S38.3,17.38,38.32,17.38Z"/></g><g id="_Group_41" data-name="&lt;Group&gt;"><path class="cls-2" d="M19.13,115.92a60.31,60.31,0,0,0,8.32,1.86c3.55,0.43,10.64.76,10.87,0.77h0c0.23,0,7.55-.33,11.1-0.77a60.31,60.31,0,0,0,8.32-1.86l1.64-3.83L56.75,94.25a83.68,83.68,0,0,1-10.18,1.53c-3.39.11-8.26,0.11-8.26,0.11s-4.63,0-8-.11a83.68,83.68,0,0,1-10.18-1.53l-2.63,17.83Z"/></g><g id="_Group_42" data-name="&lt;Group&gt;"><path d="M5.76,101.43l6.39,2.34v0.83l-6.28-2.28A5.13,5.13,0,0,1,5.76,101.43Z"/><path d="M12.25,104.75L5.77,102.4v-0.06a5.2,5.2,0,0,1-.11-0.91v-0.15l6.6,2.41v1.05ZM6,102.24L12,104.45v-0.61l-6.17-2.26A5.71,5.71,0,0,0,6,102.24Z"/></g><g id="_Group_43" data-name="&lt;Group&gt;"><path class="cls-2" d="M15.88,102.52l-1.13,5.89-3.39-1.22s-3.12-.78-4.36-2.34a5.9,5.9,0,0,1-1.14-2.54l6.28,2.28v0.26h1.09v-2.65Z"/></g><g id="_Group_44" data-name="&lt;Group&gt;"><path class="cls-5" d="M20.22,43.58l0.16,0c1.19-.26,5.71-0.6,8.69-0.94,2.3-.26,7.12-0.27,9.25-0.26s7.18,0,9.48.26c3,0.34,7.5.68,8.69,0.94l0.16,0A4.22,4.22,0,0,0,56,40.33a4.47,4.47,0,0,0-1.67-1.07c-4.95-2.12-10.57-2.64-16-2.71s-10.8.59-15.75,2.71a4.47,4.47,0,0,0-1.67,1.07A4.22,4.22,0,0,0,20.22,43.58Z"/></g><g id="_Group_45" data-name="&lt;Group&gt;"><path class="cls-7" d="M9.36,128.66c0.14,3,.26,5.59.26,5.59A32.5,32.5,0,0,0,15.4,143a16.41,16.41,0,0,0,1.67,1.46,6.4,6.4,0,0,1-.33-1.8,2.16,2.16,0,0,1,.69-1.64,1.32,1.32,0,0,1,1.68,0s-9.33-10.79-9.75-12.27"/></g><g id="_Group_46" data-name="&lt;Group&gt;"><path class="cls-7" d="M67.51,128.66c-0.14,3-.15,5.59-0.15,5.59a32.5,32.5,0,0,1-5.78,8.7,16.41,16.41,0,0,1-1.67,1.46,6.4,6.4,0,0,0,.33-1.8,2.16,2.16,0,0,0-.69-1.64,1.32,1.32,0,0,0-1.68,0s9.21-10.79,9.64-12.27"/></g><path class="cls-5" d="M53.6,148.68a9,9,0,0,0,3.27-.8,3.84,3.84,0,0,0,2-1.84c-0.65-.24-1.64,1.07-2.18,1.42A8.31,8.31,0,0,1,53.6,148.68Z"/><path class="cls-5" d="M23.64,148.09a9,9,0,0,1-3.27-.8,3.84,3.84,0,0,1-2-1.84c0.65-.24,1.64,1.07,2.18,1.42A8.31,8.31,0,0,0,23.64,148.09Z"/><path class="cls-8" d="M172.09,15.5c0,0.71.09,1.42,0.14,2.13C172.18,16.92,172.14,16.21,172.09,15.5Z"/><path class="cls-8" d="M172,14.45l0,0.47Z"/><path class="cls-8" d="M172.23,17.67l0,0.43Z"/><path class="cls-8" d="M172.27,18.25l0,0.4Z"/><path class="cls-8" d="M171.94,13.37l0,0.46Z"/><path class="cls-8" d="M171.52,8.31h0c0.13,1.4.26,2.9,0.37,4.47C171.78,11.21,171.65,9.7,171.52,8.31Z"/><path class="cls-8" d="M172,13.92l0,0.46Z"/><path class="cls-8" d="M171.9,12.82l0,0.47Z"/><path class="cls-8" d="M172.3,18.82l0,0.38Z"/><path class="cls-8" d="M172.09,15.48l0-.47Z"/><path class="cls-8" d="M171.52,8.31c0.13,1.4.26,2.9,0.37,4.47v0.05l0,0.47v0.07l0,0.46v0.09l0,0.46v0.07l0,0.47V15l0,0.47v0c0,0.71.09,1.42,0.14,2.13v0l0,0.43v0.15l0,0.4v0.17l0,0.38v0.28l0,0.29V20l0,0.37v0.2l0,0.35v0.23l0,0.32v0.25l0,0.32v0.24l0,0.32v0.22l0,0.6v4.75q0,0.5,0,1V32c0,0.09,0,.18,0,0.27v0.13c0,0.1,0,.19,0,0.28v0.1c0,0.11,0,.22,0,0.32v0.05c0,0.12,0,.25,0,0.37v0.12c0,0.88,0,2.45-.11,4.55-0.39,12.9-1.65,46.18-1.35,45.13-0.69,15.14-1.3,27.81-1.3,27.87h0c-6.32,12.86-13.85,26.29-23.4,37.49A71.41,71.41,0,1,0,171.52,8.31Z"/><path class="cls-8" d="M172.34,19.47v0h0Z"/><path class="cls-5" d="M172.57,23.91v0Z"/><path class="cls-5" d="M172.55,23.38v0Z"/><path class="cls-5" d="M172.51,22.56v0Z"/><path class="cls-5" d="M172.48,22v0Z"/><path class="cls-5" d="M172.39,20.33v0Z"/><path class="cls-5" d="M172.45,21.44v0Z"/><path class="cls-5" d="M172.6,24.45v0Z"/><path class="cls-5" d="M172.42,20.88v0Z"/><path class="cls-5" d="M172.73,27.62v0Z"/><path class="cls-5" d="M172.62,25v0Z"/><path class="cls-5" d="M172.75,28.13q0,0.5,0,1Q172.76,28.63,172.75,28.13Z"/><path class="cls-5" d="M172.71,27.11v0Z"/><path class="cls-5" d="M172.78,29.15v0Z"/><path class="cls-5" d="M172.67,26.06v0Z"/><path class="cls-5" d="M172.69,26.6v0Z"/><path class="cls-5" d="M172.65,25.53v0Z"/><path class="cls-5" d="M172,13.83v0Z"/><path class="cls-5" d="M170.1,111.15h0c-2.21,4.49-4.57,9.06-7.1,13.57-1.54,2.75-3.16,5.48-4.84,8.16-2,3.21-4.15,6.36-6.4,9.39l-0.5.67-0.62.82-0.46.6-0.29.37q-1.55,2-3.18,3.9h0C156.25,137.45,163.78,124,170.1,111.15Z"/><path class="cls-5" d="M172,14.38v0Z"/><path class="cls-5" d="M171.89,12.77v0Z"/><path class="cls-5" d="M171.93,13.29v0Z"/><path class="cls-5" d="M172.05,14.92v0Z"/><path class="cls-5" d="M172.09,15.48v0Z"/><path class="cls-5" d="M172.29,18.65v0Z"/><path class="cls-5" d="M172.32,19.2v0Z"/><path class="cls-5" d="M172.85,33.52v0c0-.12,0-0.24,0-0.37q0,0.19,0,.37v0Z"/><path class="cls-5" d="M172.26,18.1v0Z"/><path class="cls-5" d="M172.23,17.63v0Z"/><path class="cls-5" d="M172.36,19.76v0Z"/><path class="cls-5" d="M172.34,19.4V19.2l0-.38V18.65l0-.4V18.1l0-.43v0c0-.71-0.09-1.42-0.14-2.13v0l0-.47V14.92l0-.47V14.38l0-.46V13.83l0-.46V13.29l0-.47V12.77c-0.12-1.56-.24-3.07-0.37-4.47a72.17,72.17,0,0,0-7.8-.43A71.39,71.39,0,0,0,92.37,76.71c0,0.85-.05,1.71-0.05,2.57a71.43,71.43,0,0,0,54.38,69.36q1.63-1.91,3.18-3.9c-4.19-1.32-9.44-3.65-9.87-6.64-0.78-5.36-5.49-56.91-5.48-61.46h0c0-3.92.1-8.68,0.27-13.8C135.18,51.43,136,38.25,137,28.7c0.09-.77.18-1.52,0.27-2.25V26.36h0v0c0.71-5.48,4.38-7.05,8.39-11.22a13.47,13.47,0,0,1,7.46-3.77c6.23-1.11,13.55,1.16,17.45,5.71a17.3,17.3,0,0,1,1.72,2.43V19.4Z"/><path class="cls-5" d="M172.84,31.54v0Z"/><path class="cls-5" d="M172.81,30.2v0Z"/><path class="cls-5" d="M172.85,32.74c0,0.11,0,.22,0,0.32C172.85,33,172.85,32.85,172.85,32.74Z"/><path class="cls-5" d="M172.82,30.66v0Z"/><path class="cls-5" d="M172.85,32.36c0,0.1,0,.19,0,0.28C172.85,32.55,172.85,32.45,172.85,32.36Z"/><path class="cls-5" d="M172.84,32c0,0.09,0,.18,0,0.27C172.84,32.14,172.84,32,172.84,32Z"/><path class="cls-5" d="M172.85,33.61c0,0.75,0,2.35-.11,4.55C172.81,36.06,172.85,34.49,172.85,33.61Z"/><path class="cls-5" d="M172.83,31.11v0Z"/><path class="cls-5" d="M172.79,29.7v0Z"/><path class="cls-5" d="M150.17,144.37l0.46-.6,0,0Z"/><g class="cls-9"><path class="cls-10" d="M172.43,21.12l0,0.32Z"/></g><g class="cls-9"><path class="cls-10" d="M172.85,32.64v0Z"/></g><g class="cls-9"><path class="cls-10" d="M172.49,22.24l0,0.32Z"/></g><g class="cls-9"><path class="cls-10" d="M172.46,21.69l0,0.32Z"/></g><g class="cls-9"><path class="cls-10" d="M172.85,32.23v0Z"/></g><g class="cls-9"><path class="cls-10" d="M172.37,20l0,0.37Z"/></g><g class="cls-9"><path class="cls-10" d="M172.4,20.53l0,0.35Z"/></g><g class="cls-9"><path class="cls-10" d="M169.81,85.27l-0.5,1a14.05,14.05,0,0,0,1.51-3L170,84.82Z"/></g><g class="cls-9"><path class="cls-10" d="M172.36,19.76l0-.29h0Z"/></g><g class="cls-9"><path class="cls-10" d="M172.85,33.07v0Z"/></g><g class="cls-9"><path class="cls-10" d="M172.85,33.52v0Z"/></g><g class="cls-9"><path class="cls-10" d="M172.79,29.6v0Z"/></g><g class="cls-9"><path class="cls-10" d="M172.7,26.92v0Z"/></g><g class="cls-9"><path class="cls-10" d="M172.81,30.51v0Z"/></g><g class="cls-9"><path class="cls-10" d="M172.68,26.38v0Z"/></g><g class="cls-9"><path class="cls-10" d="M172.72,27.46v0Z"/></g><g class="cls-9"><path class="cls-10" d="M172.78,29.12v0Z"/></g><g class="cls-9"><path class="cls-10" d="M172.66,25.86v0Z"/></g><g class="cls-9"><path class="cls-10" d="M172.74,28v0Z"/></g><g class="cls-9"><path class="cls-10" d="M172.8,30.06v0Z"/></g><g class="cls-9"><path class="cls-10" d="M172.82,31v0Z"/></g><g class="cls-9"><path class="cls-10" d="M172.56,23.66v0Z"/></g><g class="cls-9"><path class="cls-10" d="M172.84,31.82v0Z"/></g><g class="cls-9"><path class="cls-10" d="M172.59,24.21v0Z"/></g><g class="cls-9"><path class="cls-10" d="M172.83,31.39v0Z"/></g><g class="cls-9"><path class="cls-10" d="M172.64,25.31v0Z"/></g><g class="cls-9"><path class="cls-10" d="M172.61,24.76v0Z"/></g><g class="cls-9"><path class="cls-10" d="M172.52,22.79l0,0.6Z"/></g><path class="cls-5" d="M170.82,83.28c-0.19.65-.26,0.52,0,0V83.1"/><path class="cls-5" d="M170.83,83.1c0.75-16.46,1.61-35.76,1.91-44.94,0.07-2.2.11-3.8,0.11-4.55V33.48q0-.18,0-0.37V33.07c0-.11,0-0.21,0-0.32v-0.1c0-.09,0-0.19,0-0.28V32.23c0-.09,0-0.18,0-0.27V29.12q0-.49,0-1V23.38l0-.6V22.56l0-.32V22l0-.32V21.44l0-.32V20.88l0-.35v-0.2l0-.37V19.76l0-.29A17.3,17.3,0,0,0,170.62,17c-3.9-4.55-11.22-6.82-17.45-5.71A19.25,19.25,0,0,1,156,13.06c10.36,7.53,8.9,19.56,9.09,29.78,0.31,16.91-.33,63.62-0.94,69.72-0.39,3.92-.65,8.06-1.14,12.17,2.54-4.52,4.9-9.08,7.1-13.57h0c0-.06,0-12.62.72-27.66"/><g class="cls-9"><path class="cls-10" d="M170.85,82.81c0.75-16.39,1.6-35.53,1.9-44.66,0.07-2.2.11-3.8,0.11-4.55V33.48q0-.18,0-0.37V33.07c0-.11,0-0.21,0-0.32v-0.1c0-.09,0-0.19,0-0.28V32.23c0-.09,0-0.18,0-0.27V29.12q0-.49,0-1V23.38l0-.6V22.56l0-.32V22l0-.32V21.44l0-.32V20.88l0-.35v-0.2l0-.37V19.76l0-.29A17.3,17.3,0,0,0,170.62,17c-3.9-4.55-11.22-6.82-17.45-5.71A19.25,19.25,0,0,1,156,13.06c10.36,7.53,8.9,19.56,9.09,29.78,0.31,16.91-.33,63.62-0.94,69.72-0.39,3.92-.65,8.06-1.14,12.17,2.54-4.52,4.9-9.08,7.1-13.57h0c0-.06,0-12.54.71-27.51Z"/></g><path class="cls-5" d="M137.31,26.32v0h0v0Z"/><g class="cls-9"><path class="cls-10" d="M137.31,26.32v0h0v0Z"/></g><path class="cls-5" d="M165.08,42.84c-0.19-10.22,1.27-22.25-9.09-29.78a19.25,19.25,0,0,0-2.82-1.73,13.47,13.47,0,0,0-7.46,3.77c-4,4.16-7.68,5.73-8.39,11.22v0c3.82-3.18,9.51-5.12,13.64-1.2,4.76,4.52,4.62,14.5,4.53,19.82-0.47,28.84,3.87,59.4,2.67,87.91,1.69-2.68,3.3-5.41,4.84-8.16,0.5-4.11.75-8.25,1.14-12.17C164.75,106.46,165.39,59.75,165.08,42.84Z"/><g class="cls-9"><path class="cls-10" d="M165.08,42.84c-0.19-10.22,1.27-22.25-9.09-29.78a19.25,19.25,0,0,0-2.82-1.73,13.47,13.47,0,0,0-7.46,3.77c-4,4.16-7.68,5.73-8.39,11.22v0c3.82-3.18,9.51-5.12,13.64-1.2,4.76,4.52,4.62,14.5,4.53,19.82-0.47,28.84,3.87,59.4,2.67,87.91,1.69-2.68,3.3-5.41,4.84-8.16,0.5-4.11.75-8.25,1.14-12.17C164.75,106.46,165.39,59.75,165.08,42.84Z"/></g><g class="cls-11"><path class="cls-10" d="M165.08,42.84c-0.19-10.22,1.27-22.25-9.09-29.78a19.25,19.25,0,0,0-2.82-1.73,13.47,13.47,0,0,0-7.46,3.77c-4,4.16-7.68,5.73-8.39,11.22v0c3.82-3.18,9.51-5.12,13.64-1.2,4.76,4.52,4.62,14.5,4.53,19.82-0.47,28.84,3.87,59.4,2.67,87.91,1.69-2.68,3.3-5.41,4.84-8.16,0.5-4.11.75-8.25,1.14-12.17C164.75,106.46,165.39,59.75,165.08,42.84Z"/></g><path class="cls-10" d="M150.58,143.74l0,0,0.62-.82L151,143C150.9,143.23,150.75,143.48,150.58,143.74Z"/><path class="cls-10" d="M137.3,26.45c-0.09.72-.18,1.47-0.27,2.25h0C137.13,27.94,137.2,27.19,137.3,26.45Z"/><path class="cls-10" d="M137.31,26.36h0v0h0Z"/><path class="cls-10" d="M151.47,142a5.94,5.94,0,0,1-.44,1l0.22,0,0.5-.67Z"/><path class="cls-10" d="M155.48,45c0.09-5.32.23-15.3-4.53-19.82-4.13-3.92-9.82-2-13.64,1.2v0.09c-0.09.74-.16,1.49-0.22,2.24a5.53,5.53,0,0,1,5.67,1.7c4,4.25,4.19,14.22,4.27,19.53,0.44,30.1,5.23,61.8,4.58,91.44a2.31,2.31,0,0,1-.12.64l0.28,0.28c2.25-3,4.38-6.18,6.4-9.39C159.35,104.38,155,73.81,155.48,45Z"/><path class="cls-4" d="M62.95,143.57a17.65,17.65,0,1,1,1.09,0Q63.49,143.57,62.95,143.57Zm0-33.78q-0.5,0-1,0A16.13,16.13,0,1,0,63,109.79Z"/><path class="cls-12" d="M60.06,132.23l-0.19-.09a100.56,100.56,0,0,0,5.26-14.61l0.2,0.06A100.76,100.76,0,0,1,60.06,132.23Z"/><path class="cls-12" d="M61.21,132.51l-0.2-.06C62.47,128,63.78,123.5,64.9,119l0.2,0C64,123.55,62.67,128.09,61.21,132.51Z"/><path class="cls-12" d="M61.5,130.51l-0.19-.08a69.63,69.63,0,0,0,3.51-10.31l0.2,0.05A69.83,69.83,0,0,1,61.5,130.51Z"/><rect class="cls-12" x="60.16" y="126.62" width="7.37" height="0.21" transform="translate(-76.89 144.88) rotate(-70.61)"/><rect class="cls-12" x="58.28" y="123.19" width="7.74" height="0.21" transform="translate(-55.17 50.49) rotate(-31.42)"/><path class="cls-12" d="M59.77,126.52l-0.15-.15a24.29,24.29,0,0,1,4.91-3.75l0.1,0.18A24.08,24.08,0,0,0,59.77,126.52Z"/><path class="cls-12" d="M59.18,126.52l-0.12-.17a18.77,18.77,0,0,1,5.48-2.65l0.06,0.2A18.56,18.56,0,0,0,59.18,126.52Z"/><path class="cls-12" d="M59.73,127.33l-0.17-.12a6.35,6.35,0,0,1,4.15-2.57l0,0.21A6.14,6.14,0,0,0,59.73,127.33Z"/><rect class="cls-12" x="59.48" y="127.5" width="3.6" height="0.21" transform="translate(-53.55 44.84) rotate(-28.57)"/><rect class="cls-12" x="59.67" y="127.63" width="3.51" height="0.21" transform="translate(-62.23 58.45) rotate(-35.06)"/><path class="cls-2" d="M240.89,85.34h-1.45a0.31,0.31,0,0,1,0-.62h1.45A0.31,0.31,0,1,1,240.89,85.34Zm-4.57,0h-1.45a0.31,0.31,0,0,1,0-.62h1.45A0.31,0.31,0,0,1,236.32,85.34Zm-4.57,0h-1.45a0.31,0.31,0,1,1,0-.62h1.45A0.31,0.31,0,1,1,231.74,85.34Zm-4.57,0h-1.45a0.31,0.31,0,0,1,0-.62h1.45A0.31,0.31,0,1,1,227.17,85.34Zm-4.57,0h-1.45a0.31,0.31,0,0,1,0-.62h1.45A0.31,0.31,0,0,1,222.6,85.34Zm-4.57,0h-1.45a0.31,0.31,0,0,1,0-.62H218A0.31,0.31,0,1,1,218,85.34Zm-4.57,0H212a0.31,0.31,0,1,1,0-.62h1.45A0.31,0.31,0,1,1,213.46,85.34Zm-4.57,0h-1.45a0.31,0.31,0,1,1,0-.62h1.45A0.31,0.31,0,0,1,208.89,85.34Zm-4.57,0h-1.45a0.31,0.31,0,1,1,0-.62h1.45A0.31,0.31,0,1,1,204.32,85.34Zm-4.57,0H198.3a0.31,0.31,0,1,1,0-.62h1.45A0.31,0.31,0,1,1,199.75,85.34Zm-4.57,0h-1.45a0.31,0.31,0,1,1,0-.62h1.45A0.31,0.31,0,0,1,195.18,85.34Zm-4.57,0h-1.45a0.31,0.31,0,1,1,0-.62h1.45A0.31,0.31,0,1,1,190.61,85.34Zm-4.57,0h-1.45a0.31,0.31,0,1,1,0-.62H186A0.31,0.31,0,1,1,186,85.34Zm-4.57,0H180a0.31,0.31,0,1,1,0-.62h1.45A0.31,0.31,0,0,1,181.47,85.34Zm-4.57,0h-1.45a0.31,0.31,0,1,1,0-.62h1.45A0.31,0.31,0,1,1,176.9,85.34Zm-4.57,0h-1.45a0.31,0.31,0,1,1,0-.62h1.45A0.31,0.31,0,1,1,172.33,85.34Zm-4.57,0H166.3a0.31,0.31,0,0,1,0-.62h1.45A0.31,0.31,0,1,1,167.76,85.34Zm-4.57,0h-1.45a0.31,0.31,0,0,1,0-.62h1.45A0.31,0.31,0,0,1,163.19,85.34Zm-4.57,0h-1.45a0.31,0.31,0,1,1,0-.62h1.45A0.31,0.31,0,1,1,158.61,85.34Zm-4.57,0h-1.45a0.31,0.31,0,1,1,0-.62H154A0.31,0.31,0,1,1,154,85.34Z"/><path class="cls-13" d="M256.23,78.59l0.26-.41a0.22,0.22,0,0,1,.34-0.08,2.2,2.2,0,0,0,1.6.69,1,1,0,0,0,1.13-.93c0-.6-0.52-1-1.51-1.39s-1.82-1-1.82-2.11a2,2,0,0,1,2.18-1.85,3.38,3.38,0,0,1,1.84.59,0.24,0.24,0,0,1,.06.34l-0.25.38a0.24,0.24,0,0,1-.35.1,2.34,2.34,0,0,0-1.35-.5,1,1,0,0,0-1.13.9c0,0.57.44,0.92,1.27,1.26,1.16,0.47,2.14,1,2.14,2.23a2,2,0,0,1-2.22,1.88,3.23,3.23,0,0,1-2.14-.79A0.2,0.2,0,0,1,256.23,78.59Z"/><path class="cls-13" d="M265.15,72.51a3.46,3.46,0,0,1,2.41.93,0.19,0.19,0,0,1,0,.28l-0.44.45a0.15,0.15,0,0,1-.25,0,2.7,2.7,0,0,0-1.73-.67,2.59,2.59,0,0,0,0,5.18,2.67,2.67,0,0,0,1.72-.66,0.18,0.18,0,0,1,.24,0l0.46,0.45a0.19,0.19,0,0,1,0,.27,3.42,3.42,0,0,1-2.42,1A3.59,3.59,0,1,1,265.15,72.51Z"/><path class="cls-13" d="M268.94,72.8a0.19,0.19,0,0,1,.19-0.19h2.71A2.15,2.15,0,0,1,274,74.75a2.21,2.21,0,0,1-1.48,2l1.37,2.53a0.19,0.19,0,0,1-.17.29H273a0.21,0.21,0,0,1-.21-0.13l-1.31-2.6H270v2.54a0.2,0.2,0,0,1-.19.19h-0.65a0.19,0.19,0,0,1-.19-0.19V72.8Zm2.82,3.2A1.24,1.24,0,0,0,273,74.77a1.22,1.22,0,0,0-1.22-1.19H270V76h1.78Z"/><path class="cls-13" d="M274.62,79.34l3.06-6.71a0.23,0.23,0,0,1,.17-0.11h0.1a0.23,0.23,0,0,1,.17.11l3,6.71a0.18,0.18,0,0,1-.17.26h-0.63a0.23,0.23,0,0,1-.23-0.15l-0.62-1.37h-3.26l-0.61,1.37a0.25,0.25,0,0,1-.23.15h-0.63A0.18,0.18,0,0,1,274.62,79.34Zm4.52-2.11-1.23-2.73h0l-1.22,2.73h2.49Z"/><path class="cls-13" d="M282.87,73.55h-1.63a0.19,0.19,0,0,1-.19-0.19V72.8a0.19,0.19,0,0,1,.19-0.19h4.29a0.19,0.19,0,0,1,.19.19v0.56a0.19,0.19,0,0,1-.19.19h-1.63v5.85a0.2,0.2,0,0,1-.19.19h-0.66a0.2,0.2,0,0,1-.19-0.19V73.55Z"/><path class="cls-13" d="M289.83,72.51a3.46,3.46,0,0,1,2.41.93,0.19,0.19,0,0,1,0,.28l-0.44.45a0.15,0.15,0,0,1-.25,0,2.7,2.7,0,0,0-1.73-.67,2.59,2.59,0,0,0,0,5.18,2.67,2.67,0,0,0,1.72-.66,0.18,0.18,0,0,1,.24,0l0.46,0.45a0.19,0.19,0,0,1,0,.27,3.42,3.42,0,0,1-2.42,1A3.59,3.59,0,1,1,289.83,72.51Z"/><path class="cls-13" d="M293.62,72.8a0.2,0.2,0,0,1,.19-0.19h0.66a0.19,0.19,0,0,1,.19.19v2.78h3.65V72.8a0.19,0.19,0,0,1,.19-0.19h0.66a0.2,0.2,0,0,1,.19.19v6.6a0.2,0.2,0,0,1-.19.19H298.5a0.19,0.19,0,0,1-.19-0.19V76.52h-3.65v2.88a0.19,0.19,0,0,1-.19.19h-0.66a0.2,0.2,0,0,1-.19-0.19V72.8Z"/><path class="cls-13" d="M256.61,116.4a0.19,0.19,0,0,1,.18-0.19h2.29a3.49,3.49,0,1,1,0,7h-2.29a0.19,0.19,0,0,1-.18-0.19v-6.6Zm2.36,5.84a2.54,2.54,0,0,0,0-5.09h-1.35v5.09H259Z"/><path class="cls-13" d="M264,116.4a0.19,0.19,0,0,1,.19-0.19h4a0.19,0.19,0,0,1,.19.19V117a0.19,0.19,0,0,1-.19.19H265v2h2.66a0.2,0.2,0,0,1,.19.19v0.56a0.19,0.19,0,0,1-.19.19H265v2.14h3.15a0.19,0.19,0,0,1,.19.19V123a0.19,0.19,0,0,1-.19.19h-4A0.19,0.19,0,0,1,264,123v-6.6Z"/><path class="cls-13" d="M269.72,116.29a0.19,0.19,0,0,1,.19-0.18H270a0.32,0.32,0,0,1,.3.15l4.19,4.86h0V116.4a0.19,0.19,0,0,1,.19-0.19h0.64a0.2,0.2,0,0,1,.19.19v6.71a0.19,0.19,0,0,1-.19.18h-0.09a0.31,0.31,0,0,1-.29-0.14l-4.2-5h0V123a0.19,0.19,0,0,1-.19.19h-0.63a0.2,0.2,0,0,1-.19-0.19v-6.71Z"/><path class="cls-13" d="M278.49,117.15h-1.63a0.19,0.19,0,0,1-.19-0.19V116.4a0.19,0.19,0,0,1,.19-0.19h4.29a0.19,0.19,0,0,1,.19.19V117a0.19,0.19,0,0,1-.19.19h-1.63V123a0.2,0.2,0,0,1-.19.19h-0.66a0.2,0.2,0,0,1-.19-0.19v-5.85Z"/><path class="cls-3" d="M173.27,57.47l-1.92,1.37a0.58,0.58,0,0,1-.23.11,1,1,0,0,1-.5,0c-0.41-.13-0.72-0.33-1.12-0.46a2.29,2.29,0,0,0-1.38-.06,1.17,1.17,0,0,0-.36.23,6.76,6.76,0,0,1-1.09.73,0.81,0.81,0,0,1-.37.12,1.07,1.07,0,0,1-.37-0.07l-2.31-.76-3,1.19a0.88,0.88,0,0,1-.34.08,0.86,0.86,0,0,1-.32-0.08l-1.65-.66a10.09,10.09,0,0,0,1,2.22A35.26,35.26,0,0,1,164,60a5.67,5.67,0,0,1,2.09,1,1,1,0,0,0,.65.27,1,1,0,0,0,.57-0.22,9.58,9.58,0,0,1,2.47-1.17,1.09,1.09,0,0,1,.45-0.07,0.71,0.71,0,0,1,.31.12l2.67,1.67a1,1,0,0,0,.48.18c0.21,0,.45-0.09.34-0.18"/><path class="cls-3" d="M170.49,108.4q-2.14,2.7-4,5.51a35.38,35.38,0,0,1-6.93-2.6l-4.47,3a2.44,2.44,0,0,1-1,.45,3.1,3.1,0,0,1-1.08-.08l-3.7-.72a2.24,2.24,0,0,0-.84-0.05,2.05,2.05,0,0,0-.83.47,5.18,5.18,0,0,1-5.89-.31,4.56,4.56,0,0,0,1.88,2.21,2,2,0,0,0,.93.47,2.78,2.78,0,0,0,1.49-.38,9.48,9.48,0,0,1,7.77.27,4.09,4.09,0,0,0,1.47.62,2.73,2.73,0,0,0,2.11-.8,6.85,6.85,0,0,1,1.58-1.37c1.43-.71,3.45-0.2,4.83.55s2.6,1.75,4.28,2.09l2.61-2.91"/><path class="cls-14" d="M147,49.92c-0.08-5.32-.24-15.28-4.27-19.53a5.53,5.53,0,0,0-5.67-1.7h0c-1.08,9.55-1.85,22.73-2.23,34.15-0.17,5.12-.26,9.88-0.27,13.8h0c0,4.54,4.7,56.1,5.48,61.46,0.43,3,5.68,5.32,9.87,6.64l0.29-.37,0.41-.63c0.16-.26.32-0.51,0.45-0.76a5.94,5.94,0,0,0,.44-1,2.31,2.31,0,0,0,.12-0.64C152.24,111.73,147.44,80,147,49.92Z"/><path class="cls-3" d="M172.95,76.69l-2.81,1.42a1,1,0,0,1-.33.12,2.11,2.11,0,0,1-.73-0.05c-0.61-.13-1.05-0.34-1.64-0.48a4.7,4.7,0,0,0-2-.06,1.9,1.9,0,0,0-.52.24,10.86,10.86,0,0,1-1.6.76,1.55,1.55,0,0,1-.55.12,2.15,2.15,0,0,1-.54-0.07l-3.39-.79-4.38,1.23a1.75,1.75,0,0,1-.5.08,1.71,1.71,0,0,1-.47-0.08L151,78.44a9.42,9.42,0,0,0,1.5,2.3,68.91,68.91,0,0,1,6.77-1.4,10.09,10.09,0,0,1,3.07,1,1.71,1.71,0,0,0,1,.28,1.85,1.85,0,0,0,.84-0.22,17.18,17.18,0,0,1,3.63-1.21,2.21,2.21,0,0,1,.66-0.07,1.31,1.31,0,0,1,.45.13L172.83,81a1.91,1.91,0,0,0,.71.19c0.31,0,.66-0.09.5-0.18"/><path class="cls-2" d="M249.09,76h-1.45a0.31,0.31,0,0,1,0-.62h1.45A0.31,0.31,0,1,1,249.09,76Zm-4.57,0h-1.45a0.31,0.31,0,0,1,0-.62h1.45A0.31,0.31,0,0,1,244.52,76Z"/><path class="cls-2" d="M241.07,66.11h-1.45a0.31,0.31,0,1,1,0-.62h1.45A0.31,0.31,0,1,1,241.07,66.11Zm-4.57,0H235a0.31,0.31,0,1,1,0-.62h1.45A0.31,0.31,0,1,1,236.5,66.11Zm-4.57,0h-1.45a0.31,0.31,0,1,1,0-.62h1.45A0.31,0.31,0,1,1,231.93,66.11Zm-4.57,0H225.9a0.31,0.31,0,1,1,0-.62h1.45A0.31,0.31,0,1,1,227.35,66.11Zm-4.57,0h-1.45a0.31,0.31,0,1,1,0-.62h1.45A0.31,0.31,0,1,1,222.78,66.11Zm-4.57,0h-1.45a0.31,0.31,0,1,1,0-.62h1.45A0.31,0.31,0,1,1,218.21,66.11Zm-4.57,0h-1.45a0.31,0.31,0,1,1,0-.62h1.45A0.31,0.31,0,1,1,213.64,66.11Zm-4.57,0h-1.45a0.31,0.31,0,1,1,0-.62h1.45A0.31,0.31,0,1,1,209.07,66.11Zm-4.57,0H203a0.31,0.31,0,1,1,0-.62h1.45A0.31,0.31,0,1,1,204.5,66.11Zm-4.57,0h-1.45a0.31,0.31,0,1,1,0-.62h1.45A0.31,0.31,0,1,1,199.93,66.11Zm-4.57,0h-1.45a0.31,0.31,0,1,1,0-.62h1.45A0.31,0.31,0,1,1,195.36,66.11Zm-4.57,0h-1.45a0.31,0.31,0,1,1,0-.62h1.45A0.31,0.31,0,1,1,190.79,66.11Zm-4.57,0h-1.45a0.31,0.31,0,1,1,0-.62h1.45A0.31,0.31,0,1,1,186.22,66.11Zm-4.57,0h-1.45a0.31,0.31,0,1,1,0-.62h1.45A0.31,0.31,0,1,1,181.65,66.11Zm-4.57,0h-1.45a0.31,0.31,0,1,1,0-.62h1.45A0.31,0.31,0,1,1,177.08,66.11Zm-4.57,0h-1.45a0.31,0.31,0,1,1,0-.62h1.45A0.31,0.31,0,1,1,172.51,66.11Zm-4.57,0h-1.45a0.31,0.31,0,1,1,0-.62h1.45A0.31,0.31,0,1,1,167.94,66.11Zm-4.57,0h-1.45a0.31,0.31,0,1,1,0-.62h1.45A0.31,0.31,0,1,1,163.37,66.11Zm-4.57,0h-1.45a0.31,0.31,0,0,1,0-.62h1.45A0.31,0.31,0,1,1,158.79,66.11Z"/><path class="cls-15" d="M167.35,49.19A1.67,1.67,0,0,1,167.8,48a0.09,0.09,0,0,1,.13,0l0.22,0.21a0.07,0.07,0,0,1,0,.12,1.31,1.31,0,0,0-.32.83,1.25,1.25,0,0,0,2.5,0,1.29,1.29,0,0,0-.32-0.83,0.09,0.09,0,0,1,0-.12l0.22-.22a0.09,0.09,0,0,1,.13,0,1.65,1.65,0,0,1,.47,1.17A1.74,1.74,0,1,1,167.35,49.19Z"/><path class="cls-15" d="M167.51,47.45a0.11,0.11,0,0,1-.11-0.11V47.07a0.11,0.11,0,0,1,.11-0.11h3.16a0.11,0.11,0,0,1,.11.11v0.27a0.11,0.11,0,0,1-.11.11h-3.16Z"/><path class="cls-15" d="M168.5,45.3a1,1,0,0,1,1-1h0.15a0.1,0.1,0,0,1,.1.1v1.54a0.65,0.65,0,0,0,.61-0.67,0.86,0.86,0,0,0-.19-0.54s0-.09,0-0.13l0.2-.13a0.09,0.09,0,0,1,.15,0,1.28,1.28,0,0,1,.27.82A1.17,1.17,0,0,1,168.5,45.3Zm0.92-.54a0.53,0.53,0,0,0-.51.55,0.57,0.57,0,0,0,.51.6V44.76Z"/><path class="cls-15" d="M169.37,43.05a1.71,1.71,0,0,1,.07-0.45c-0.35,0-.51.08-0.51,0.36a2.29,2.29,0,0,0,.11.62,0.1,0.1,0,0,1-.09.13l-0.18,0a0.1,0.1,0,0,1-.13-0.07,2.39,2.39,0,0,1-.13-0.77c0-.71.43-0.78,1-0.78h1.19a0.11,0.11,0,0,1,.11.11V42.4a0.09,0.09,0,0,1-.08.09l-0.15.05a1,1,0,0,1,.28.68,0.69,0.69,0,0,1-.74.72A0.76,0.76,0,0,1,169.37,43.05Zm1.07,0.07a0.69,0.69,0,0,0-.27-0.52h-0.37a1,1,0,0,0-.08.41,0.4,0.4,0,0,0,.37.46A0.33,0.33,0,0,0,170.43,43.13Z"/><path class="cls-15" d="M168.66,41.48a0.11,0.11,0,0,1-.11-0.11V41.25a0.1,0.1,0,0,1,.08-0.1l0.2-.06a0.85,0.85,0,0,1-.33-0.68c0-.21.06-0.48,0.21-0.4l0.24,0.12a0.1,0.1,0,0,1,.05.13,0.55,0.55,0,0,0,0,.2,0.63,0.63,0,0,0,.3.53h1.41c0.1,0,.11.06,0.11,0.15v0.22a0.11,0.11,0,0,1-.11.11h-2Z"/><path class="cls-15" d="M167.35,36.93a1.67,1.67,0,0,1,.45-1.17,0.09,0.09,0,0,1,.13,0L168.15,36a0.07,0.07,0,0,1,0,.12,1.31,1.31,0,0,0-.32.83,1.25,1.25,0,0,0,2.5,0,1.29,1.29,0,0,0-.32-0.83,0.09,0.09,0,0,1,0-.12l0.22-.22a0.09,0.09,0,0,1,.13,0,1.65,1.65,0,0,1,.47,1.17A1.74,1.74,0,1,1,167.35,36.93Z"/><path class="cls-15" d="M168.5,34.25a1.16,1.16,0,1,1,1.16,1.14A1.16,1.16,0,0,1,168.5,34.25Zm1.87,0a0.68,0.68,0,0,0-.71-0.66,0.66,0.66,0,1,0,0,1.33A0.68,0.68,0,0,0,170.37,34.25Z"/><path class="cls-15" d="M169.37,31.86a1.71,1.71,0,0,1,.07-0.45c-0.35,0-.51.08-0.51,0.36a2.29,2.29,0,0,0,.11.62,0.1,0.1,0,0,1-.09.13l-0.18,0a0.1,0.1,0,0,1-.13-0.07,2.39,2.39,0,0,1-.13-0.77c0-.71.43-0.78,1-0.78h1.19a0.11,0.11,0,0,1,.11.11V31.2a0.09,0.09,0,0,1-.08.09l-0.15.05a1,1,0,0,1,.28.68,0.69,0.69,0,0,1-.74.72A0.76,0.76,0,0,1,169.37,31.86Zm1.07,0.07a0.69,0.69,0,0,0-.27-0.52h-0.37a1,1,0,0,0-.08.41,0.4,0.4,0,0,0,.37.46A0.33,0.33,0,0,0,170.43,31.93Z"/><path class="cls-15" d="M169,30.13v0.26a0.11,0.11,0,0,1-.11.11h-0.2a0.1,0.1,0,0,1-.11-0.11V30.13h-0.62a0.11,0.11,0,0,1-.11-0.11V29.75a0.1,0.1,0,0,1,.11-0.1h0.62V29.06a0.1,0.1,0,0,1,.11-0.11h0.2a0.11,0.11,0,0,1,.11.11v0.59h1.19c0.19,0,.23-0.07.23-0.18a0.74,0.74,0,0,0-.11-0.36,0.08,0.08,0,0,1,0-.13l0.23-.09a0.1,0.1,0,0,1,.13.05,1.34,1.34,0,0,1,.16.62,0.54,0.54,0,0,1-.67.56H169Z"/><path class="cls-15" d="M160.84,53.34a0.82,0.82,0,0,1,.78-0.57,1,1,0,0,1,.93,1.05V55a0.09,0.09,0,0,1-.09.09h-3.19a0.09,0.09,0,0,1-.09-0.09V53.87a0.93,0.93,0,0,1,.89-1,0.83,0.83,0,0,1,.76.47h0Zm-0.2.58a0.49,0.49,0,0,0-.52-0.52,0.47,0.47,0,0,0-.5.52v0.63h1V53.92Zm1.47-.12a0.48,0.48,0,0,0-.53-0.5,0.49,0.49,0,0,0-.51.5v0.75h1V53.81Z"/><path class="cls-15" d="M161.14,51.47a1.72,1.72,0,0,1,.07-0.45c-0.35,0-.51.08-0.51,0.36a2.29,2.29,0,0,0,.11.62,0.1,0.1,0,0,1-.09.13l-0.18,0a0.1,0.1,0,0,1-.13-0.07,2.39,2.39,0,0,1-.13-0.77c0-.71.43-0.78,1-0.78h1.19a0.11,0.11,0,0,1,.11.11v0.16a0.09,0.09,0,0,1-.08.09l-0.15.05a1,1,0,0,1,.28.68,0.69,0.69,0,0,1-.74.72A0.76,0.76,0,0,1,161.14,51.47Zm1.07,0.07a0.69,0.69,0,0,0-.27-0.52h-0.37a1,1,0,0,0-.08.4,0.4,0.4,0,0,0,.37.46A0.33,0.33,0,0,0,162.21,51.54Z"/><path class="cls-15" d="M162.37,50a0.09,0.09,0,0,1-.12,0l-0.21-.1a0.1,0.1,0,0,1,0-.14,1,1,0,0,0,.16-0.55,0.25,0.25,0,0,0-.22-0.29,0.62,0.62,0,0,0-.39.48,0.79,0.79,0,0,1-.7.6,0.64,0.64,0,0,1-.61-0.74,1.24,1.24,0,0,1,.16-0.65,0.13,0.13,0,0,1,.16,0l0.15,0.08a0.1,0.1,0,0,1,0,.14,1.16,1.16,0,0,0-.11.48,0.24,0.24,0,0,0,.2.28,0.48,0.48,0,0,0,.33-0.38,0.85,0.85,0,0,1,.74-0.72,0.71,0.71,0,0,1,.65.8A1.3,1.3,0,0,1,162.37,50Z"/><path class="cls-15" d="M160.27,47a1,1,0,0,1,1-1h0.15a0.1,0.1,0,0,1,.1.1V47.6a0.65,0.65,0,0,0,.61-0.67,0.87,0.87,0,0,0-.19-0.54s0-.09,0-0.13l0.2-.13a0.09,0.09,0,0,1,.15,0,1.28,1.28,0,0,1,.27.82A1.17,1.17,0,0,1,160.27,47Zm0.92-.54a0.53,0.53,0,0,0-.51.55,0.57,0.57,0,0,0,.51.6V46.43Z"/><path class="cls-15" d="M159.12,42.66a1.67,1.67,0,0,1,.45-1.17,0.09,0.09,0,0,1,.13,0l0.22,0.21a0.07,0.07,0,0,1,0,.12,1.31,1.31,0,0,0-.32.83,1.25,1.25,0,0,0,2.5,0,1.29,1.29,0,0,0-.32-0.83,0.09,0.09,0,0,1,0-.12l0.22-.22a0.09,0.09,0,0,1,.13,0,1.66,1.66,0,0,1,.47,1.17A1.74,1.74,0,1,1,159.12,42.66Z"/><path class="cls-15" d="M160.27,40a1.16,1.16,0,1,1,1.16,1.14A1.16,1.16,0,0,1,160.27,40Zm1.87,0a0.67,0.67,0,0,0-.71-0.66,0.66,0.66,0,1,0,0,1.33A0.68,0.68,0,0,0,162.14,40Z"/><path class="cls-15" d="M159.28,38.29a0.11,0.11,0,0,1-.11-0.11V37.92a0.11,0.11,0,0,1,.11-0.11h3.16a0.11,0.11,0,0,1,.11.11v0.27a0.11,0.11,0,0,1-.11.11h-3.16Z"/><path class="cls-15" d="M160.27,36.12a1.16,1.16,0,1,1,1.16,1.14A1.16,1.16,0,0,1,160.27,36.12Zm1.87,0a0.67,0.67,0,0,0-.71-0.66,0.66,0.66,0,1,0,0,1.33A0.68,0.68,0,0,0,162.14,36.12Z"/><path class="cls-15" d="M160.43,34.48a0.11,0.11,0,0,1-.11-0.11V34.1a0.11,0.11,0,0,1,.11-0.11h1.19a0.43,0.43,0,0,0,.53-0.43,0.55,0.55,0,0,0-.37-0.52h-1.35c-0.09,0-.11,0-0.11-0.13V32.67a0.11,0.11,0,0,1,.11-0.11h2a0.11,0.11,0,0,1,.11.11v0.12a0.11,0.11,0,0,1-.09.1l-0.16.06a0.89,0.89,0,0,1,.3.7,0.82,0.82,0,0,1-1,.83h-1.15Z"/><path class="cls-15" d="M160.43,31.88a0.11,0.11,0,0,1-.11-0.11V31.66a0.1,0.1,0,0,1,.08-0.1l0.2-.06a0.85,0.85,0,0,1-.33-0.68c0-.21.06-0.48,0.21-0.41l0.24,0.12a0.1,0.1,0,0,1,.05.13,0.55,0.55,0,0,0,0,.2,0.63,0.63,0,0,0,.3.53h1.41c0.1,0,.11.06,0.11,0.15v0.22a0.11,0.11,0,0,1-.11.11h-2Z"/><path class="cls-15" d="M150.43,55a0.09,0.09,0,0,1-.09-0.09v-1.1a1.08,1.08,0,1,1,2.15,0v0.7h1.13a0.09,0.09,0,0,1,.09.09V55a0.09,0.09,0,0,1-.09.09h-3.19ZM152,53.86a0.6,0.6,0,0,0-.62-0.59,0.58,0.58,0,0,0-.58.59v0.68H152V53.86Z"/><path class="cls-15" d="M151.6,52.34a0.11,0.11,0,0,1-.11-0.11V52.12a0.1,0.1,0,0,1,.08-0.1l0.2-.06a0.85,0.85,0,0,1-.33-0.68c0-.21.06-0.48,0.21-0.41L151.89,51a0.1,0.1,0,0,1,.05.13,0.55,0.55,0,0,0,0,.2,0.63,0.63,0,0,0,.3.53h1.41c0.1,0,.11.06,0.11,0.15v0.22a0.11,0.11,0,0,1-.11.11h-2Z"/><path class="cls-15" d="M150.69,50.56a0.32,0.32,0,0,1-.33-0.32,0.33,0.33,0,1,1,.65,0A0.32,0.32,0,0,1,150.69,50.56Zm0.91-.08a0.11,0.11,0,0,1-.11-0.11V50.11A0.11,0.11,0,0,1,151.6,50h2a0.11,0.11,0,0,1,.11.11v0.27a0.11,0.11,0,0,1-.11.11h-2Z"/><path class="cls-15" d="M151.6,49.33a0.11,0.11,0,0,1-.11-0.11V49.11a0.09,0.09,0,0,1,.07-0.1l0.19-.06a1,1,0,0,1-.31-0.71,0.76,0.76,0,0,1,.35-0.68,1.06,1.06,0,0,1-.35-0.75,0.85,0.85,0,0,1,1.05-.85h1.12a0.1,0.1,0,0,1,.11.11v0.27a0.1,0.1,0,0,1-.11.11h-1.14a0.46,0.46,0,0,0-.57.44,0.69,0.69,0,0,0,.26.54l0.3,0h1.15a0.11,0.11,0,0,1,.11.1v0.27a0.1,0.1,0,0,1-.11.11h-1.14a0.46,0.46,0,0,0-.57.44,0.57,0.57,0,0,0,.32.53h1.39a0.11,0.11,0,0,1,.11.11v0.27a0.11,0.11,0,0,1-.11.11h-2Z"/><path class="cls-15" d="M151.44,44.33a1,1,0,0,1,1-1h0.15a0.1,0.1,0,0,1,.1.1V45a0.65,0.65,0,0,0,.61-0.67,0.86,0.86,0,0,0-.19-0.54s0-.09,0-0.13l0.2-.13a0.09,0.09,0,0,1,.15,0,1.28,1.28,0,0,1,.27.82A1.17,1.17,0,0,1,151.44,44.33Zm0.92-.54a0.53,0.53,0,0,0-.51.55,0.57,0.57,0,0,0,.51.6V43.79Z"/><path class="cls-15" d="M151.6,42.81a0.11,0.11,0,0,1-.11-0.11V42.59a0.1,0.1,0,0,1,.08-0.1l0.2-.06a0.85,0.85,0,0,1-.33-0.68c0-.21.06-0.48,0.21-0.41l0.24,0.12a0.1,0.1,0,0,1,.05.13,0.55,0.55,0,0,0,0,.2,0.63,0.63,0,0,0,.3.53h1.41c0.1,0,.11.06,0.11,0.15V42.7a0.11,0.11,0,0,1-.11.11h-2Z"/><path class="cls-2" d="M243.07,85.34a0.31,0.31,0,0,1-.31-0.31V84.08a0.31,0.31,0,1,1,.62,0V85A0.31,0.31,0,0,1,243.07,85.34Zm0-4.06a0.31,0.31,0,0,1-.31-0.31V79.51a0.31,0.31,0,1,1,.62,0V81A0.31,0.31,0,0,1,243.07,81.28Zm0-4.57a0.31,0.31,0,0,1-.31-0.31V74.94a0.31,0.31,0,0,1,.62,0V76.4A0.31,0.31,0,0,1,243.07,76.71Zm0-4.57a0.31,0.31,0,0,1-.31-0.31V70.37a0.31,0.31,0,0,1,.62,0v1.45A0.31,0.31,0,0,1,243.07,72.14Zm0-4.57a0.31,0.31,0,0,1-.31-0.31V65.8a0.31,0.31,0,0,1,.62,0v1.45A0.31,0.31,0,0,1,243.07,67.57Z"/><path class="cls-15" d="M140,84.19a0.1,0.1,0,0,1-.07-0.09V84a0.1,0.1,0,0,1,.05-0.08l2.46-1v0l-2.46-1a0.09,0.09,0,0,1-.05-0.08V81.75a0.1,0.1,0,0,1,.07-0.09l3.24-.59a0.08,0.08,0,0,1,.11.09v0.31a0.1,0.1,0,0,1-.07.09l-2.16.36h0l2.22,0.87a0.08,0.08,0,0,1,.05.08V83a0.09,0.09,0,0,1-.05.08l-2.22.87v0l2.16,0.35a0.09,0.09,0,0,1,.07.09V84.7a0.09,0.09,0,0,1-.11.09Z"/><path class="cls-15" d="M141.07,79.59a1,1,0,0,1,1-1h0.15a0.1,0.1,0,0,1,.1.1v1.54a0.65,0.65,0,0,0,.61-0.67,0.86,0.86,0,0,0-.19-0.54s0-.09,0-0.13l0.2-.13a0.09,0.09,0,0,1,.15,0,1.28,1.28,0,0,1,.27.82A1.17,1.17,0,0,1,141.07,79.59ZM142,79a0.53,0.53,0,0,0-.51.55,0.57,0.57,0,0,0,.51.6V79Z"/><path class="cls-15" d="M141.53,77.92v0.26a0.11,0.11,0,0,1-.11.11h-0.2a0.1,0.1,0,0,1-.11-0.11V77.92H140.5a0.11,0.11,0,0,1-.11-0.11V77.53a0.1,0.1,0,0,1,.11-0.1h0.62V76.85a0.1,0.1,0,0,1,.11-0.11h0.2a0.11,0.11,0,0,1,.11.11v0.59h1.19c0.19,0,.23-0.07.23-0.18a0.74,0.74,0,0,0-.11-0.36,0.08,0.08,0,0,1,0-.13l0.23-.09a0.1,0.1,0,0,1,.13.05,1.34,1.34,0,0,1,.16.62,0.54,0.54,0,0,1-.67.56h-1.21Z"/><path class="cls-15" d="M141.94,75.51a1.72,1.72,0,0,1,.07-0.45c-0.35,0-.51.08-0.51,0.36a2.3,2.3,0,0,0,.11.62,0.1,0.1,0,0,1-.09.13l-0.18,0a0.1,0.1,0,0,1-.13-0.07,2.39,2.39,0,0,1-.13-0.77c0-.71.43-0.78,1-0.78h1.19a0.11,0.11,0,0,1,.11.11v0.16a0.09,0.09,0,0,1-.08.09l-0.15.05a1,1,0,0,1,.28.68,0.69,0.69,0,0,1-.74.72A0.76,0.76,0,0,1,141.94,75.51ZM143,75.58a0.69,0.69,0,0,0-.27-0.52h-0.37a1,1,0,0,0-.08.4,0.4,0.4,0,0,0,.37.46A0.32,0.32,0,0,0,143,75.58Z"/><path class="cls-15" d="M140.08,73.92a0.11,0.11,0,0,1-.11-0.11V73.54a0.11,0.11,0,0,1,.11-0.11h3.16a0.11,0.11,0,0,1,.11.11v0.27a0.11,0.11,0,0,1-.11.11h-3.16Z"/><path class="cls-15" d="M141.64,69.78a0.82,0.82,0,0,1,.78-0.57,1,1,0,0,1,.93,1.05V71.4a0.09,0.09,0,0,1-.09.09h-3.19A0.09,0.09,0,0,1,140,71.4V70.32a0.93,0.93,0,0,1,.89-1,0.83,0.83,0,0,1,.76.47h0Zm-0.2.58a0.49,0.49,0,0,0-.52-0.52,0.47,0.47,0,0,0-.5.52V71h1V70.36Zm1.47-.12a0.48,0.48,0,0,0-.53-0.5,0.49,0.49,0,0,0-.51.5V71h1V70.25Z"/><path class="cls-15" d="M141.07,67.64a1.16,1.16,0,1,1,1.16,1.14A1.16,1.16,0,0,1,141.07,67.64Zm1.87,0a0.67,0.67,0,0,0-.71-0.66,0.66,0.66,0,1,0,0,1.33A0.68,0.68,0,0,0,142.94,67.64Z"/><path class="cls-15" d="M141.07,65a1.61,1.61,0,0,1,.12-0.56h-1.11a0.11,0.11,0,0,1-.11-0.11V64.09a0.11,0.11,0,0,1,.11-0.11h3.16a0.11,0.11,0,0,1,.11.11v0.12a0.11,0.11,0,0,1-.1.1l-0.16,0a1,1,0,0,1-.85,1.75A1.1,1.1,0,0,1,141.07,65Zm1.87,0a0.64,0.64,0,0,0-.33-0.55h-1a1.11,1.11,0,0,0-.13.51,0.68,0.68,0,0,0,.7.65A0.66,0.66,0,0,0,142.94,65Z"/><path class="cls-15" d="M141.27,63.54a0.1,0.1,0,0,1-.14-0.1V63.12a0.11,0.11,0,0,1,.06-0.1l1.53-.52h0l-1.53-.63a0.1,0.1,0,0,1-.06-0.12v-0.3a0.1,0.1,0,0,1,.14-0.1l3.16,1.36a0.11,0.11,0,0,1,.07.09v0.31a0.1,0.1,0,0,1-.15.1l-1.08-.45Z"/><path class="cls-4" d="M164.37,151.42a72.13,72.13,0,0,1-51-123.14,72.13,72.13,0,0,1,102,102A71.66,71.66,0,0,1,164.37,151.42Zm0-142.81a70.68,70.68,0,0,0-50,120.65,70.68,70.68,0,1,0,100-100A70.21,70.21,0,0,0,164.37,8.61Z"/><path class="cls-2" d="M251,120.88h-1.45a0.31,0.31,0,1,1,0-.62H251A0.31,0.31,0,0,1,251,120.88Zm-4.57,0H245a0.31,0.31,0,1,1,0-.62h1.45A0.31,0.31,0,1,1,246.42,120.88Zm-4.57,0H240.4a0.31,0.31,0,1,1,0-.62h1.45A0.31,0.31,0,1,1,241.85,120.88Zm-4.57,0h-1.45a0.31,0.31,0,1,1,0-.62h1.45A0.31,0.31,0,1,1,237.28,120.88Zm-4.57,0h-1.45a0.31,0.31,0,1,1,0-.62h1.45A0.31,0.31,0,1,1,232.71,120.88Zm-4.57,0h-1.45a0.31,0.31,0,1,1,0-.62h1.45A0.31,0.31,0,1,1,228.14,120.88Zm-4.57,0h-1.45a0.31,0.31,0,1,1,0-.62h1.45A0.31,0.31,0,0,1,223.57,120.88Zm-4.57,0h-1.45a0.31,0.31,0,1,1,0-.62H219A0.31,0.31,0,1,1,219,120.88Zm-4.57,0H213a0.31,0.31,0,0,1,0-.62h1.45A0.31,0.31,0,1,1,214.43,120.88Zm-4.57,0H208.4a0.31,0.31,0,1,1,0-.62h1.45A0.31,0.31,0,0,1,209.86,120.88Zm-4.57,0h-1.45a0.31,0.31,0,1,1,0-.62h1.45A0.31,0.31,0,1,1,205.28,120.88Zm-4.57,0h-1.45a0.31,0.31,0,1,1,0-.62h1.45A0.31,0.31,0,1,1,200.71,120.88Zm-4.57,0h-1.45a0.31,0.31,0,1,1,0-.62h1.45A0.31,0.31,0,0,1,196.14,120.88Zm-4.57,0h-1.45a0.31,0.31,0,1,1,0-.62h1.45A0.31,0.31,0,0,1,191.57,120.88Zm-4.57,0h-1.45a0.31,0.31,0,1,1,0-.62H187A0.31,0.31,0,1,1,187,120.88Zm-4.57,0H181a0.31,0.31,0,1,1,0-.62h1.45A0.31,0.31,0,0,1,182.43,120.88Zm-4.57,0h-1.45a0.31,0.31,0,1,1,0-.62h1.45A0.31,0.31,0,1,1,177.86,120.88Zm-4.57,0h-1.45a0.31,0.31,0,1,1,0-.62h1.45A0.31,0.31,0,1,1,173.29,120.88Zm-4.57,0h-1.45a0.31,0.31,0,1,1,0-.62h1.45A0.31,0.31,0,0,1,168.72,120.88Zm-4.57,0h-1.45a0.31,0.31,0,0,1,0-.62h1.45A0.31,0.31,0,1,1,164.15,120.88Zm-4.57,0h-1.45a0.31,0.31,0,1,1,0-.62h1.45A0.31,0.31,0,1,1,159.58,120.88Zm-4.57,0h-1.45a0.31,0.31,0,0,1,0-.62H155A0.31,0.31,0,0,1,155,120.88Zm-4.57,0H149a0.31,0.31,0,0,1,0-.62h1.45A0.31,0.31,0,1,1,150.44,120.88Zm-4.57,0h-1.45a0.31,0.31,0,0,1,0-.62h1.45A0.31,0.31,0,1,1,145.87,120.88Z"/><path class="cls-16" d="M146,97c0.14,0.76-4.72,7.36-5.19,8.92-1,3.26-1.57,7.54-.17,10.63C145.69,112.3,147.11,103.32,146,97Z"/><path class="cls-16" d="M141.33,125.32l3,13.51A10.9,10.9,0,0,0,141.14,125"/><path class="cls-16" d="M143.66,117.69a6.72,6.72,0,0,1,5.39-4.55,6.93,6.93,0,0,1-7.21,3.93l1.82-2.2"/><path class="cls-2" d="M62.13,174.88a0.25,0.25,0,0,1,.24-0.25h3a4.62,4.62,0,1,1,0,9.24h-3a0.25,0.25,0,0,1-.24-0.25v-8.74Zm3.13,7.73a3.37,3.37,0,0,0,0-6.73H63.47v6.73h1.78Z"/><path class="cls-2" d="M74.17,177.64a2.72,2.72,0,0,1,2.78,2.8c0,0.11,0,.32,0,0.42a0.28,0.28,0,0,1-.28.26H72.44a1.78,1.78,0,0,0,1.82,1.66,2.36,2.36,0,0,0,1.49-.51c0.13-.09.25-0.13,0.36,0l0.36,0.55a0.25,0.25,0,0,1,0,.41,3.49,3.49,0,0,1-2.26.75A3.19,3.19,0,0,1,74.17,177.64Zm1.48,2.51a1.44,1.44,0,0,0-1.5-1.39,1.55,1.55,0,0,0-1.64,1.39h3.14Z"/><path class="cls-2" d="M78.34,178.06a0.3,0.3,0,0,1,.29-0.29H79a0.23,0.23,0,0,1,.25.18l0.18,0.53a2.75,2.75,0,0,1,2-.84c1.86,0,2.36,1.29,2.36,2.88v3.06a0.3,0.3,0,0,1-.29.29H82.76a0.29,0.29,0,0,1-.29-0.29v-3.11c0-1-.41-1.57-1.2-1.57a1.86,1.86,0,0,0-1.61.88v3.8c0,0.2-.11.29-0.36,0.29H78.63a0.29,0.29,0,0,1-.29-0.29v-5.52Z"/><path class="cls-2" d="M85.9,178.89h-0.7a0.29,0.29,0,0,1-.29-0.29v-0.54a0.28,0.28,0,0,1,.29-0.29h0.7v-1.7a0.29,0.29,0,0,1,.29-0.29h0.75a0.28,0.28,0,0,1,.28.29v1.7h1.61a0.28,0.28,0,0,1,.29.29v0.54a0.3,0.3,0,0,1-.29.29H87.22v3.25c0,0.51.2,0.62,0.49,0.62a2,2,0,0,0,1-.29,0.23,0.23,0,0,1,.36.13l0.24,0.62a0.26,0.26,0,0,1-.15.36,3.66,3.66,0,0,1-1.69.44c-1.21,0-1.54-.74-1.54-1.82v-3.3Z"/><path class="cls-2" d="M93.47,175.58a0.88,0.88,0,0,1,.87-0.9,0.89,0.89,0,1,1,0,1.78A0.87,0.87,0,0,1,93.47,175.58Zm0.21,2.48a0.3,0.3,0,0,1,.29-0.29h0.74a0.31,0.31,0,0,1,.29.29v5.52a0.3,0.3,0,0,1-.29.29H94a0.29,0.29,0,0,1-.29-0.29v-5.52Z"/><path class="cls-2" d="M96.59,183.39a0.25,0.25,0,0,1-.11-0.32l0.28-.57a0.27,0.27,0,0,1,.4-0.08,2.84,2.84,0,0,0,1.52.45,0.67,0.67,0,0,0,.81-0.59c0-.41-0.46-0.67-1.31-1.06s-1.65-.92-1.65-1.93a1.74,1.74,0,0,1,2-1.66,3.41,3.41,0,0,1,1.78.45,0.36,0.36,0,0,1,.13.45l-0.21.42a0.29,0.29,0,0,1-.4.12,3.16,3.16,0,0,0-1.31-.3,0.65,0.65,0,0,0-.78.54,1.32,1.32,0,0,0,1,.9c1.12,0.48,2,.88,2,2A1.94,1.94,0,0,1,98.6,184,3.54,3.54,0,0,1,96.59,183.39Z"/><path class="cls-2" d="M107.32,180a4.69,4.69,0,0,1,1.23.18c0-1-.21-1.4-1-1.4a6.27,6.27,0,0,0-1.7.29,0.28,0.28,0,0,1-.34-0.25l-0.12-.5a0.28,0.28,0,0,1,.2-0.36,6.56,6.56,0,0,1,2.1-.34c2,0,2.14,1.17,2.14,2.69v3.25a0.3,0.3,0,0,1-.29.29h-0.44a0.26,0.26,0,0,1-.25-0.21l-0.15-.41a2.65,2.65,0,0,1-1.87.77,1.88,1.88,0,0,1-2-2C104.88,180.86,105.75,180,107.32,180Zm-0.2,2.92a1.89,1.89,0,0,0,1.41-.74v-1a2.77,2.77,0,0,0-1.11-.21,1.09,1.09,0,0,0-1.25,1A0.89,0.89,0,0,0,107.12,182.93Z"/><path class="cls-2" d="M117.38,177.64a4.41,4.41,0,0,1,1.53.32v-3a0.31,0.31,0,0,1,.29-0.29h0.75a0.3,0.3,0,0,1,.29.29v8.66a0.29,0.29,0,0,1-.29.29h-0.32a0.29,0.29,0,0,1-.28-0.26l-0.13-.45a2.8,2.8,0,0,1-4.79-2.34A3,3,0,0,1,117.38,177.64Zm0,5.12a1.74,1.74,0,0,0,1.52-.9v-2.61a3,3,0,0,0-1.4-.36,1.85,1.85,0,0,0-1.77,1.93A1.79,1.79,0,0,0,117.4,182.76Z"/><path class="cls-2" d="M124.07,180a4.69,4.69,0,0,1,1.23.18c0-1-.21-1.4-1-1.4a6.27,6.27,0,0,0-1.7.29,0.28,0.28,0,0,1-.34-0.25l-0.12-.5a0.28,0.28,0,0,1,.2-0.36,6.56,6.56,0,0,1,2.1-.34c2,0,2.14,1.17,2.14,2.69v3.25a0.3,0.3,0,0,1-.29.29h-0.44a0.26,0.26,0,0,1-.25-0.21l-0.15-.41a2.65,2.65,0,0,1-1.87.77,1.88,1.88,0,0,1-2-2C121.62,180.86,122.5,180,124.07,180Zm-0.2,2.92a1.89,1.89,0,0,0,1.41-.74v-1a2.77,2.77,0,0,0-1.11-.21,1.09,1.09,0,0,0-1.25,1A0.89,0.89,0,0,0,123.87,182.93Z"/><path class="cls-2" d="M128.38,178.06a0.3,0.3,0,0,1,.29-0.29H129a0.25,0.25,0,0,1,.26.18l0.17,0.53a2.6,2.6,0,0,1,1.94-.84,2.09,2.09,0,0,1,1.86,1,2.9,2.9,0,0,1,2.06-1c1.86,0,2.32,1.29,2.32,2.88v3.06a0.28,0.28,0,0,1-.29.29h-0.74a0.28,0.28,0,0,1-.29-0.29v-3.11c0-1-.37-1.57-1.2-1.57a1.9,1.9,0,0,0-1.46.71,5.71,5.71,0,0,1,.05.82v3.15a0.29,0.29,0,0,1-.28.29h-0.75a0.28,0.28,0,0,1-.29-0.29v-3.11c0-1-.36-1.57-1.2-1.57a1.55,1.55,0,0,0-1.44.88v3.8a0.3,0.3,0,0,1-.29.29h-0.74a0.29,0.29,0,0,1-.29-0.29v-5.52Z"/><path class="cls-2" d="M141.35,180a4.69,4.69,0,0,1,1.23.18c0-1-.21-1.4-1-1.4a6.27,6.27,0,0,0-1.7.29,0.28,0.28,0,0,1-.34-0.25l-0.12-.5a0.28,0.28,0,0,1,.2-0.36,6.56,6.56,0,0,1,2.1-.34c2,0,2.14,1.17,2.14,2.69v3.25a0.3,0.3,0,0,1-.29.29h-0.44a0.26,0.26,0,0,1-.25-0.21l-0.15-.41a2.65,2.65,0,0,1-1.87.77,1.88,1.88,0,0,1-2-2C138.91,180.86,139.78,180,141.35,180Zm-0.2,2.92a1.89,1.89,0,0,0,1.41-.74v-1a2.77,2.77,0,0,0-1.11-.21,1.09,1.09,0,0,0-1.25,1A0.89,0.89,0,0,0,141.15,182.93Z"/><path class="cls-2" d="M151.13,183.91a2.63,2.63,0,0,1-2.82,2.85,3.3,3.3,0,0,1-2.11-.77,0.28,0.28,0,0,1-.07-0.34l0.32-.58a0.26,0.26,0,0,1,.41-0.09,2.29,2.29,0,0,0,1.43.57,1.42,1.42,0,0,0,1.52-1.64v-0.33a3.25,3.25,0,0,1-1.56.44,3,3,0,0,1-2.94-3.19,3,3,0,0,1,2.88-3.18,2.82,2.82,0,0,1,1.93.73l0.16-.38a0.23,0.23,0,0,1,.22-0.21h0.36a0.3,0.3,0,0,1,.29.29v5.85Zm-2.73-1.15a2.48,2.48,0,0,0,1.41-.49v-2.52a1.72,1.72,0,0,0-3.19,1.07A1.88,1.88,0,0,0,148.4,182.76Z"/><path class="cls-2" d="M155.64,177.64a2.72,2.72,0,0,1,2.78,2.8c0,0.11,0,.32,0,0.42a0.28,0.28,0,0,1-.28.26h-4.21a1.78,1.78,0,0,0,1.82,1.66,2.36,2.36,0,0,0,1.49-.51c0.13-.09.25-0.13,0.36,0l0.36,0.55a0.25,0.25,0,0,1,0,.41,3.49,3.49,0,0,1-2.26.75A3.19,3.19,0,0,1,155.64,177.64Zm1.48,2.51a1.44,1.44,0,0,0-1.5-1.39,1.55,1.55,0,0,0-1.64,1.39h3.14Z"/><path class="cls-2" d="M165.71,177.64a3.19,3.19,0,1,1-3.11,3.17A3.16,3.16,0,0,1,165.71,177.64Zm0,5.12a1.85,1.85,0,0,0,1.81-2,1.82,1.82,0,1,0-3.63,0A1.85,1.85,0,0,0,165.71,182.76Z"/><path class="cls-2" d="M170.28,178.06a0.3,0.3,0,0,1,.29-0.29h0.32a0.23,0.23,0,0,1,.25.18l0.18,0.53a2.75,2.75,0,0,1,2-.84c1.86,0,2.36,1.29,2.36,2.88v3.06a0.3,0.3,0,0,1-.29.29H174.7a0.29,0.29,0,0,1-.29-0.29v-3.11c0-1-.41-1.57-1.2-1.57a1.86,1.86,0,0,0-1.61.88v3.8c0,0.2-.11.29-0.36,0.29h-0.67a0.29,0.29,0,0,1-.29-0.29v-5.52Z"/><path class="cls-2" d="M180.68,178.06a0.3,0.3,0,0,1,.29-0.29h0.3a0.25,0.25,0,0,1,.26.18l0.17,0.53a2.6,2.6,0,0,1,1.94-.84,2.09,2.09,0,0,1,1.86,1,2.9,2.9,0,0,1,2.06-1c1.86,0,2.32,1.29,2.32,2.88v3.06a0.28,0.28,0,0,1-.29.29h-0.74a0.28,0.28,0,0,1-.29-0.29v-3.11c0-1-.37-1.57-1.2-1.57a1.9,1.9,0,0,0-1.46.71,5.71,5.71,0,0,1,.05.82v3.15a0.29,0.29,0,0,1-.28.29h-0.75a0.28,0.28,0,0,1-.29-0.29v-3.11c0-1-.36-1.57-1.2-1.57a1.55,1.55,0,0,0-1.44.88v3.8a0.3,0.3,0,0,1-.29.29H181a0.29,0.29,0,0,1-.29-0.29v-5.52Z"/><path class="cls-2" d="M194.33,177.64a2.72,2.72,0,0,1,2.78,2.8c0,0.11,0,.32,0,0.42a0.28,0.28,0,0,1-.28.26h-4.21a1.78,1.78,0,0,0,1.82,1.66,2.36,2.36,0,0,0,1.49-.51c0.13-.09.25-0.13,0.36,0l0.36,0.55a0.25,0.25,0,0,1,0,.41,3.49,3.49,0,0,1-2.26.75A3.19,3.19,0,0,1,194.33,177.64Zm1.48,2.51a1.44,1.44,0,0,0-1.5-1.39,1.55,1.55,0,0,0-1.64,1.39h3.14Z"/><path class="cls-2" d="M198.91,178.89h-0.7a0.29,0.29,0,0,1-.29-0.29v-0.54a0.28,0.28,0,0,1,.29-0.29h0.7v-1.7a0.29,0.29,0,0,1,.29-0.29H200a0.28,0.28,0,0,1,.28.29v1.7h1.61a0.28,0.28,0,0,1,.29.29v0.54a0.3,0.3,0,0,1-.29.29h-1.61v3.25c0,0.51.2,0.62,0.49,0.62a2,2,0,0,0,1-.29,0.23,0.23,0,0,1,.36.13l0.24,0.62a0.26,0.26,0,0,1-.15.36,3.66,3.66,0,0,1-1.69.44c-1.21,0-1.54-.74-1.54-1.82v-3.3Z"/><path class="cls-2" d="M205.5,180a4.69,4.69,0,0,1,1.23.18c0-1-.21-1.4-1-1.4a6.27,6.27,0,0,0-1.7.29,0.28,0.28,0,0,1-.34-0.25l-0.12-.5a0.28,0.28,0,0,1,.2-0.36,6.56,6.56,0,0,1,2.1-.34c2,0,2.14,1.17,2.14,2.69v3.25a0.3,0.3,0,0,1-.29.29h-0.44a0.26,0.26,0,0,1-.25-0.21l-0.15-.41A2.65,2.65,0,0,1,205,184a1.88,1.88,0,0,1-2-2C203.06,180.86,203.93,180,205.5,180Zm-0.2,2.92a1.89,1.89,0,0,0,1.41-.74v-1a2.77,2.77,0,0,0-1.11-.21,1.09,1.09,0,0,0-1.25,1A0.89,0.89,0,0,0,205.3,182.93Z"/><path class="cls-2" d="M209.85,174.92a0.3,0.3,0,0,1,.29-0.29h0.74a0.31,0.31,0,0,1,.29.29v8.66a0.3,0.3,0,0,1-.29.29h-0.74a0.29,0.29,0,0,1-.29-0.29v-8.66Z"/><path class="cls-2" d="M216.23,174.92a0.3,0.3,0,0,1,.29-0.29h0.75a0.31,0.31,0,0,1,.29.29v3a4.4,4.4,0,0,1,1.53-.32,3.2,3.2,0,0,1,.16,6.37,3,3,0,0,1-2-.86l-0.13.45a0.29,0.29,0,0,1-.28.26h-0.32a0.29,0.29,0,0,1-.29-0.29v-8.66Zm2.82,7.84a1.84,1.84,0,0,0,1.72-1.94,1.89,1.89,0,0,0-1.82-1.93,3.22,3.22,0,0,0-1.4.33v2.65A1.75,1.75,0,0,0,219,182.76Z"/><path class="cls-2" d="M226.29,177.64a3.19,3.19,0,1,1-3.11,3.17A3.16,3.16,0,0,1,226.29,177.64Zm0,5.12a1.85,1.85,0,0,0,1.81-2,1.82,1.82,0,1,0-3.63,0A1.85,1.85,0,0,0,226.29,182.76Z"/><path class="cls-2" d="M233.43,177.64A4.41,4.41,0,0,1,235,178v-3a0.31,0.31,0,0,1,.29-0.29H236a0.3,0.3,0,0,1,.29.29v8.66a0.29,0.29,0,0,1-.29.29h-0.32a0.29,0.29,0,0,1-.28-0.26l-0.13-.45a2.8,2.8,0,0,1-4.79-2.34A3,3,0,0,1,233.43,177.64Zm0,5.12a1.74,1.74,0,0,0,1.52-.9v-2.61a3,3,0,0,0-1.4-.36,1.85,1.85,0,0,0-1.77,1.93A1.79,1.79,0,0,0,233.46,182.76Z"/><path class="cls-2" d="M237.52,178.17a0.27,0.27,0,0,1,.26-0.4h0.87a0.3,0.3,0,0,1,.26.17l1.41,4.18h0l1.72-4.18a0.28,0.28,0,0,1,.32-0.17h0.82a0.26,0.26,0,0,1,.26.4l-3.72,8.66a0.31,0.31,0,0,1-.25.18h-0.84a0.28,0.28,0,0,1-.26-0.41l1.23-2.94Z"/><path class="cls-2" d="M34.61,198.37l0.34-.54a0.3,0.3,0,0,1,.45-0.11,2.91,2.91,0,0,0,2.11.91A1.33,1.33,0,0,0,39,197.41c0-.79-0.69-1.29-2-1.83s-2.4-1.27-2.4-2.8a2.58,2.58,0,0,1,2.89-2.44,4.47,4.47,0,0,1,2.44.78,0.31,0.31,0,0,1,.08.45l-0.33.5a0.31,0.31,0,0,1-.46.13,3.1,3.1,0,0,0-1.78-.66A1.29,1.29,0,0,0,36,192.72c0,0.75.58,1.21,1.68,1.66,1.53,0.62,2.84,1.35,2.84,3a2.69,2.69,0,0,1-2.94,2.49,4.27,4.27,0,0,1-2.84-1A0.27,0.27,0,0,1,34.61,198.37Z"/><path class="cls-2" d="M44.69,193.48a2.67,2.67,0,0,1,2.22,1.06,0.3,0.3,0,0,1-.05.44l-0.48.44c-0.17.16-.29,0-0.4-0.07a1.84,1.84,0,0,0-1.25-.61,1.94,1.94,0,0,0,0,3.87,1.88,1.88,0,0,0,1.44-.75,0.28,0.28,0,0,1,.41,0l0.41,0.33a0.31,0.31,0,0,1,.11.44,2.78,2.78,0,0,1-2.38,1.27,3.11,3.11,0,0,1-3.11-3.18A3.17,3.17,0,0,1,44.69,193.48Z"/><path class="cls-2" d="M48.43,193.9a0.3,0.3,0,0,1,.29-0.29H49a0.28,0.28,0,0,1,.26.21l0.17,0.55a2.33,2.33,0,0,1,1.85-.9c0.58,0,1.31.16,1.11,0.57l-0.32.66a0.26,0.26,0,0,1-.37.15,1.51,1.51,0,0,0-.55-0.12,1.74,1.74,0,0,0-1.44.82v3.87c0,0.26-.17.29-0.42,0.29H48.73a0.29,0.29,0,0,1-.29-0.29V193.9Z"/><path class="cls-2" d="M55.46,195.85a4.69,4.69,0,0,1,1.23.18c0-1-.21-1.4-1-1.4a6.27,6.27,0,0,0-1.7.29,0.28,0.28,0,0,1-.34-0.25l-0.12-.5a0.28,0.28,0,0,1,.2-0.36,6.56,6.56,0,0,1,2.1-.34c2,0,2.14,1.17,2.14,2.69v3.25a0.3,0.3,0,0,1-.29.29H57.25a0.26,0.26,0,0,1-.25-0.21l-0.15-.41a2.65,2.65,0,0,1-1.87.77,1.88,1.88,0,0,1-2-2C53,196.7,53.88,195.85,55.46,195.85Zm-0.2,2.92a1.89,1.89,0,0,0,1.41-.74v-1a2.77,2.77,0,0,0-1.11-.21,1.09,1.09,0,0,0-1.25,1A0.89,0.89,0,0,0,55.26,198.77Z"/><path class="cls-2" d="M60.18,194.73h-0.7a0.29,0.29,0,0,1-.29-0.29V193.9a0.28,0.28,0,0,1,.29-0.29h0.7v-1.7a0.29,0.29,0,0,1,.29-0.29h0.75a0.28,0.28,0,0,1,.28.29v1.7h1.61a0.28,0.28,0,0,1,.29.29v0.54a0.3,0.3,0,0,1-.29.29H61.5V198c0,0.51.2,0.62,0.49,0.62a2,2,0,0,0,1-.29,0.23,0.23,0,0,1,.36.13l0.24,0.62a0.26,0.26,0,0,1-.15.36,3.66,3.66,0,0,1-1.69.44c-1.21,0-1.54-.74-1.54-1.82v-3.3Z"/><path class="cls-2" d="M67.53,193.48a2.67,2.67,0,0,1,2.22,1.06,0.3,0.3,0,0,1-.05.44l-0.48.44c-0.17.16-.29,0-0.4-0.07a1.84,1.84,0,0,0-1.25-.61,1.94,1.94,0,0,0,0,3.87,1.88,1.88,0,0,0,1.44-.75,0.28,0.28,0,0,1,.41,0l0.41,0.33a0.31,0.31,0,0,1,.11.44,2.78,2.78,0,0,1-2.38,1.27,3.11,3.11,0,0,1-3.11-3.18A3.17,3.17,0,0,1,67.53,193.48Z"/><path class="cls-2" d="M71.28,190.76a0.3,0.3,0,0,1,.29-0.29h0.74a0.31,0.31,0,0,1,.29.29v3.35a3,3,0,0,1,1.77-.63c1.73,0,2.36,1.21,2.36,2.88v3.06a0.3,0.3,0,0,1-.29.29H75.7a0.29,0.29,0,0,1-.29-0.29v-3.09c0-1-.42-1.6-1.21-1.6a1.82,1.82,0,0,0-1.6.88v3.8a0.28,0.28,0,0,1-.3.29H71.57a0.29,0.29,0,0,1-.29-0.29v-8.66Z"/><path class="cls-2" d="M81.46,191.42a0.88,0.88,0,0,1,.87-0.9,0.89,0.89,0,1,1,0,1.78A0.87,0.87,0,0,1,81.46,191.42Zm0.21,2.48a0.3,0.3,0,0,1,.29-0.29H82.7a0.31,0.31,0,0,1,.29.29v5.52a0.3,0.3,0,0,1-.29.29H82a0.29,0.29,0,0,1-.29-0.29V193.9Z"/><path class="cls-2" d="M84.59,199.23a0.25,0.25,0,0,1-.11-0.32l0.28-.57a0.27,0.27,0,0,1,.4-0.08,2.84,2.84,0,0,0,1.52.45,0.67,0.67,0,0,0,.81-0.59c0-.41-0.46-0.67-1.31-1.06s-1.65-.92-1.65-1.93a1.74,1.74,0,0,1,2-1.66,3.41,3.41,0,0,1,1.78.45,0.36,0.36,0,0,1,.13.45l-0.21.42a0.29,0.29,0,0,1-.4.12,3.16,3.16,0,0,0-1.31-.3,0.65,0.65,0,0,0-.78.54,1.32,1.32,0,0,0,1,.9c1.12,0.48,2,.88,2,2a1.94,1.94,0,0,1-2.18,1.78A3.54,3.54,0,0,1,84.59,199.23Z"/><path class="cls-2" d="M95.32,195.85a4.69,4.69,0,0,1,1.23.18c0-1-.21-1.4-1-1.4a6.27,6.27,0,0,0-1.7.29,0.28,0.28,0,0,1-.34-0.25l-0.12-.5a0.28,0.28,0,0,1,.2-0.36,6.56,6.56,0,0,1,2.1-.34c2,0,2.14,1.17,2.14,2.69v3.25a0.3,0.3,0,0,1-.29.29H97.11a0.26,0.26,0,0,1-.25-0.21l-0.15-.41a2.65,2.65,0,0,1-1.87.77,1.88,1.88,0,0,1-2-2C92.88,196.7,93.75,195.85,95.32,195.85Zm-0.2,2.92a1.89,1.89,0,0,0,1.41-.74v-1a2.77,2.77,0,0,0-1.11-.21,1.09,1.09,0,0,0-1.25,1A0.89,0.89,0,0,0,95.12,198.77Z"/><path class="cls-2" d="M105.37,193.48a4.41,4.41,0,0,1,1.53.32v-3a0.31,0.31,0,0,1,.29-0.29h0.75a0.3,0.3,0,0,1,.29.29v8.66a0.29,0.29,0,0,1-.29.29h-0.32a0.29,0.29,0,0,1-.28-0.26l-0.13-.45a2.8,2.8,0,0,1-4.79-2.34A3,3,0,0,1,105.37,193.48Zm0,5.12a1.74,1.74,0,0,0,1.52-.9v-2.61a3,3,0,0,0-1.4-.36,1.85,1.85,0,0,0-1.77,1.93A1.79,1.79,0,0,0,105.4,198.6Z"/><path class="cls-2" d="M112.06,195.85a4.69,4.69,0,0,1,1.23.18c0-1-.21-1.4-1-1.4a6.27,6.27,0,0,0-1.7.29,0.28,0.28,0,0,1-.34-0.25l-0.12-.5a0.28,0.28,0,0,1,.2-0.36,6.56,6.56,0,0,1,2.1-.34c2,0,2.14,1.17,2.14,2.69v3.25a0.3,0.3,0,0,1-.29.29h-0.44a0.26,0.26,0,0,1-.25-0.21l-0.15-.41a2.65,2.65,0,0,1-1.87.77,1.88,1.88,0,0,1-2-2C109.62,196.7,110.49,195.85,112.06,195.85Zm-0.2,2.92a1.89,1.89,0,0,0,1.41-.74v-1a2.77,2.77,0,0,0-1.11-.21,1.09,1.09,0,0,0-1.25,1A0.89,0.89,0,0,0,111.87,198.77Z"/><path class="cls-2" d="M116.38,193.9a0.3,0.3,0,0,1,.29-0.29H117a0.25,0.25,0,0,1,.26.18l0.17,0.53a2.6,2.6,0,0,1,1.94-.84,2.09,2.09,0,0,1,1.86,1,2.9,2.9,0,0,1,2.06-1c1.86,0,2.32,1.29,2.32,2.88v3.06a0.28,0.28,0,0,1-.29.29h-0.74a0.28,0.28,0,0,1-.29-0.29V196.3c0-1-.37-1.57-1.2-1.57a1.9,1.9,0,0,0-1.46.71,5.71,5.71,0,0,1,.05.82v3.15a0.29,0.29,0,0,1-.28.29h-0.75a0.28,0.28,0,0,1-.29-0.29V196.3c0-1-.36-1.57-1.2-1.57a1.55,1.55,0,0,0-1.44.88v3.8a0.3,0.3,0,0,1-.29.29h-0.74a0.29,0.29,0,0,1-.29-0.29V193.9Z"/><path class="cls-2" d="M129.35,195.85a4.69,4.69,0,0,1,1.23.18c0-1-.21-1.4-1-1.4a6.27,6.27,0,0,0-1.7.29,0.28,0.28,0,0,1-.34-0.25l-0.12-.5a0.28,0.28,0,0,1,.2-0.36,6.56,6.56,0,0,1,2.1-.34c2,0,2.14,1.17,2.14,2.69v3.25a0.3,0.3,0,0,1-.29.29h-0.44a0.26,0.26,0,0,1-.25-0.21l-0.15-.41a2.65,2.65,0,0,1-1.87.77,1.88,1.88,0,0,1-2-2C126.91,196.7,127.78,195.85,129.35,195.85Zm-0.2,2.92a1.89,1.89,0,0,0,1.41-.74v-1a2.77,2.77,0,0,0-1.11-.21,1.09,1.09,0,0,0-1.25,1A0.89,0.89,0,0,0,129.15,198.77Z"/><path class="cls-2" d="M139.13,199.74a2.63,2.63,0,0,1-2.82,2.85,3.3,3.3,0,0,1-2.11-.77,0.28,0.28,0,0,1-.07-0.34l0.32-.58a0.26,0.26,0,0,1,.41-0.09,2.29,2.29,0,0,0,1.43.57,1.42,1.42,0,0,0,1.52-1.64v-0.33a3.25,3.25,0,0,1-1.56.44,3,3,0,0,1-2.94-3.19,3,3,0,0,1,2.88-3.18,2.82,2.82,0,0,1,1.93.73l0.16-.38a0.23,0.23,0,0,1,.22-0.21h0.36a0.3,0.3,0,0,1,.29.29v5.85Zm-2.73-1.15a2.48,2.48,0,0,0,1.41-.49v-2.52a1.72,1.72,0,0,0-3.19,1.07A1.88,1.88,0,0,0,136.4,198.6Z"/><path class="cls-2" d="M143.64,193.48a2.72,2.72,0,0,1,2.78,2.8c0,0.11,0,.32,0,0.42a0.28,0.28,0,0,1-.28.26h-4.21a1.78,1.78,0,0,0,1.82,1.66,2.36,2.36,0,0,0,1.49-.51c0.13-.09.25-0.13,0.36,0l0.36,0.55a0.25,0.25,0,0,1,0,.41,3.49,3.49,0,0,1-2.26.75A3.19,3.19,0,0,1,143.64,193.48Zm1.48,2.51a1.44,1.44,0,0,0-1.5-1.39A1.55,1.55,0,0,0,142,196h3.14Z"/><path class="cls-2" d="M153.71,193.48a3.19,3.19,0,1,1-3.11,3.17A3.16,3.16,0,0,1,153.71,193.48Zm0,5.12a1.85,1.85,0,0,0,1.81-2,1.82,1.82,0,1,0-3.63,0A1.85,1.85,0,0,0,153.71,198.6Z"/><path class="cls-2" d="M158.28,193.9a0.3,0.3,0,0,1,.29-0.29h0.32a0.23,0.23,0,0,1,.25.18l0.18,0.53a2.75,2.75,0,0,1,2-.84c1.86,0,2.36,1.29,2.36,2.88v3.06a0.3,0.3,0,0,1-.29.29H162.7a0.29,0.29,0,0,1-.29-0.29V196.3c0-1-.41-1.57-1.2-1.57a1.86,1.86,0,0,0-1.61.88v3.8c0,0.2-.11.29-0.36,0.29h-0.67a0.29,0.29,0,0,1-.29-0.29V193.9Z"/><path class="cls-2" d="M170,202.56a0.28,0.28,0,0,1-.32.29H169a0.29,0.29,0,0,1-.29-0.29V193.9a0.3,0.3,0,0,1,.29-0.29h0.33a0.25,0.25,0,0,1,.26.2l0.16,0.4a2.81,2.81,0,0,1,1.91-.73,3,3,0,0,1,2.88,3.18,3,3,0,0,1-2.93,3.19,3.3,3.3,0,0,1-1.56-.42v3.13Zm1.39-4a1.85,1.85,0,0,0,1.78-1.94,1.77,1.77,0,0,0-1.73-1.93,1.66,1.66,0,0,0-1.46.86v2.56A2.56,2.56,0,0,0,171.41,198.6Z"/><path class="cls-2" d="M178,195.85a4.69,4.69,0,0,1,1.23.18c0-1-.21-1.4-1-1.4a6.27,6.27,0,0,0-1.7.29,0.28,0.28,0,0,1-.34-0.25l-0.12-.5a0.28,0.28,0,0,1,.2-0.36,6.56,6.56,0,0,1,2.1-.34c2,0,2.14,1.17,2.14,2.69v3.25a0.3,0.3,0,0,1-.29.29h-0.44a0.26,0.26,0,0,1-.25-0.21l-0.15-.41a2.65,2.65,0,0,1-1.87.77,1.88,1.88,0,0,1-2-2C175.52,196.7,176.39,195.85,178,195.85Zm-0.2,2.92a1.89,1.89,0,0,0,1.41-.74v-1a2.77,2.77,0,0,0-1.11-.21,1.09,1.09,0,0,0-1.25,1A0.89,0.89,0,0,0,177.77,198.77Z"/><path class="cls-2" d="M182.07,191.42a0.88,0.88,0,0,1,.87-0.9,0.89,0.89,0,1,1,0,1.78A0.87,0.87,0,0,1,182.07,191.42Zm0.21,2.48a0.3,0.3,0,0,1,.29-0.29h0.74a0.31,0.31,0,0,1,.29.29v5.52a0.3,0.3,0,0,1-.29.29h-0.74a0.29,0.29,0,0,1-.29-0.29V193.9Z"/><path class="cls-2" d="M185.45,193.9a0.3,0.3,0,0,1,.29-0.29h0.32a0.23,0.23,0,0,1,.25.18l0.18,0.53a2.75,2.75,0,0,1,2-.84c1.86,0,2.36,1.29,2.36,2.88v3.06a0.3,0.3,0,0,1-.29.29h-0.74a0.29,0.29,0,0,1-.29-0.29V196.3c0-1-.41-1.57-1.2-1.57a1.86,1.86,0,0,0-1.61.88v3.8c0,0.2-.11.29-0.36,0.29h-0.67a0.29,0.29,0,0,1-.29-0.29V193.9Z"/><path class="cls-2" d="M193,194.73h-0.7a0.29,0.29,0,0,1-.29-0.29V193.9a0.28,0.28,0,0,1,.29-0.29H193v-1.7a0.29,0.29,0,0,1,.29-0.29H194a0.28,0.28,0,0,1,.28.29v1.7h1.61a0.28,0.28,0,0,1,.29.29v0.54a0.3,0.3,0,0,1-.29.29h-1.61V198c0,0.51.2,0.62,0.49,0.62a2,2,0,0,0,1-.29,0.23,0.23,0,0,1,.36.13l0.24,0.62a0.26,0.26,0,0,1-.15.36,3.66,3.66,0,0,1-1.69.44c-1.21,0-1.54-.74-1.54-1.82v-3.3Z"/><path class="cls-2" d="M200,190.64a0.26,0.26,0,0,1,.24-0.17h0.62a0.24,0.24,0,0,1,.24.33l-2.57,8.74a0.27,0.27,0,0,1-.24.17h-0.63a0.24,0.24,0,0,1-.24-0.33Z"/><path class="cls-2" d="M203.95,202.56a0.28,0.28,0,0,1-.32.29h-0.74a0.29,0.29,0,0,1-.29-0.29V193.9a0.3,0.3,0,0,1,.29-0.29h0.33a0.25,0.25,0,0,1,.26.2l0.16,0.4a2.81,2.81,0,0,1,1.91-.73,3,3,0,0,1,2.88,3.18,3,3,0,0,1-2.93,3.19,3.3,3.3,0,0,1-1.56-.42v3.13Zm1.39-4a1.85,1.85,0,0,0,1.78-1.94,1.77,1.77,0,0,0-1.73-1.93,1.66,1.66,0,0,0-1.46.86v2.56A2.56,2.56,0,0,0,205.33,198.6Z"/><path class="cls-2" d="M209.91,193.9a0.3,0.3,0,0,1,.29-0.29h0.32a0.28,0.28,0,0,1,.26.21l0.17,0.55a2.33,2.33,0,0,1,1.85-.9c0.58,0,1.31.16,1.11,0.57l-0.32.66a0.26,0.26,0,0,1-.37.15,1.51,1.51,0,0,0-.55-0.12,1.74,1.74,0,0,0-1.44.82v3.87c0,0.26-.17.29-0.42,0.29H210.2a0.29,0.29,0,0,1-.29-0.29V193.9Z"/><path class="cls-2" d="M214.79,191.42a0.88,0.88,0,0,1,.87-0.9,0.89,0.89,0,1,1,0,1.78A0.87,0.87,0,0,1,214.79,191.42ZM215,193.9a0.3,0.3,0,0,1,.29-0.29H216a0.31,0.31,0,0,1,.29.29v5.52a0.3,0.3,0,0,1-.29.29h-0.74a0.29,0.29,0,0,1-.29-0.29V193.9Z"/><path class="cls-2" d="M218.17,193.9a0.3,0.3,0,0,1,.29-0.29h0.3a0.25,0.25,0,0,1,.26.18l0.17,0.53a2.6,2.6,0,0,1,1.94-.84,2.09,2.09,0,0,1,1.86,1,2.9,2.9,0,0,1,2.06-1c1.86,0,2.32,1.29,2.32,2.88v3.06a0.28,0.28,0,0,1-.29.29h-0.74a0.28,0.28,0,0,1-.29-0.29V196.3c0-1-.37-1.57-1.2-1.57a1.9,1.9,0,0,0-1.46.71,5.71,5.71,0,0,1,.05.82v3.15a0.29,0.29,0,0,1-.28.29h-0.75a0.28,0.28,0,0,1-.29-0.29V196.3c0-1-.36-1.57-1.2-1.57a1.55,1.55,0,0,0-1.44.88v3.8a0.3,0.3,0,0,1-.29.29h-0.74a0.29,0.29,0,0,1-.29-0.29V193.9Z"/><path class="cls-2" d="M231.83,193.48a2.72,2.72,0,0,1,2.78,2.8c0,0.11,0,.32,0,0.42a0.28,0.28,0,0,1-.28.26H230.1a1.78,1.78,0,0,0,1.82,1.66,2.36,2.36,0,0,0,1.49-.51c0.13-.09.25-0.13,0.36,0l0.36,0.55a0.25,0.25,0,0,1,0,.41,3.49,3.49,0,0,1-2.26.75A3.19,3.19,0,0,1,231.83,193.48Zm1.48,2.51a1.44,1.44,0,0,0-1.5-1.39,1.55,1.55,0,0,0-1.64,1.39h3.14Z"/><path class="cls-2" d="M236,193.9a0.3,0.3,0,0,1,.29-0.29h0.32a0.28,0.28,0,0,1,.26.21l0.17,0.55a2.33,2.33,0,0,1,1.85-.9c0.58,0,1.31.16,1.11,0.57l-0.32.66a0.26,0.26,0,0,1-.37.15,1.51,1.51,0,0,0-.55-0.12,1.74,1.74,0,0,0-1.44.82v3.87c0,0.26-.17.29-0.42,0.29h-0.61a0.29,0.29,0,0,1-.29-0.29V193.9Z"/><path class="cls-2" d="M244,190.76a0.3,0.3,0,0,1,.29-0.29H245a0.31,0.31,0,0,1,.29.29v8.66a0.3,0.3,0,0,1-.29.29H244.3a0.29,0.29,0,0,1-.29-0.29v-8.66Z"/><path class="cls-2" d="M249.19,195.85a4.69,4.69,0,0,1,1.23.18c0-1-.21-1.4-1-1.4a6.27,6.27,0,0,0-1.7.29,0.28,0.28,0,0,1-.34-0.25l-0.12-.5a0.28,0.28,0,0,1,.2-0.36,6.56,6.56,0,0,1,2.1-.34c2,0,2.14,1.17,2.14,2.69v3.25a0.3,0.3,0,0,1-.29.29H251a0.26,0.26,0,0,1-.25-0.21l-0.15-.41a2.65,2.65,0,0,1-1.87.77,1.88,1.88,0,0,1-2-2C246.75,196.7,247.62,195.85,249.19,195.85Zm-0.2,2.92a1.89,1.89,0,0,0,1.41-.74v-1a2.77,2.77,0,0,0-1.11-.21,1.09,1.09,0,0,0-1.25,1A0.89,0.89,0,0,0,249,198.77Z"/><path class="cls-2" d="M252.76,194a0.27,0.27,0,0,1,.26-0.4h0.87a0.3,0.3,0,0,1,.26.17l1.41,4.18h0l1.72-4.18a0.28,0.28,0,0,1,.32-0.17h0.82a0.26,0.26,0,0,1,.26.4L255,202.66a0.31,0.31,0,0,1-.25.18h-0.84a0.28,0.28,0,0,1-.26-0.41l1.23-2.94Z"/><path class="cls-2" d="M262.44,193.48a2.72,2.72,0,0,1,2.78,2.8c0,0.11,0,.32,0,0.42a0.28,0.28,0,0,1-.28.26h-4.21a1.78,1.78,0,0,0,1.82,1.66,2.36,2.36,0,0,0,1.49-.51c0.13-.09.25-0.13,0.36,0l0.36,0.55a0.25,0.25,0,0,1,0,.41,3.49,3.49,0,0,1-2.26.75A3.19,3.19,0,0,1,262.44,193.48Zm1.48,2.51a1.44,1.44,0,0,0-1.5-1.39,1.55,1.55,0,0,0-1.64,1.39h3.14Z"/><path class="cls-2" d="M266.61,193.9a0.3,0.3,0,0,1,.29-0.29h0.32a0.28,0.28,0,0,1,.26.21l0.17,0.55a2.33,2.33,0,0,1,1.85-.9c0.58,0,1.31.16,1.11,0.57l-0.32.66a0.26,0.26,0,0,1-.37.15,1.51,1.51,0,0,0-.55-0.12,1.74,1.74,0,0,0-1.44.82v3.87c0,0.26-.17.29-0.42,0.29H266.9a0.29,0.29,0,0,1-.29-0.29V193.9Z"/></svg>