<?xml version="1.0" encoding="UTF-8" standalone="no"?>
<svg width="45px" height="45px" viewBox="0 0 40 40" version="1.1" xmlns="http://www.w3.org/2000/svg" xmlns:xlink="http://www.w3.org/1999/xlink">
    <!-- Generator: Sketch 39.1 (31720) - http://www.bohemiancoding.com/sketch -->
    <title>noVisit</title>
    <desc>Created with Sketch.</desc>
    <defs>
        <polygon id="path-1" points="39.99975 0 0 0 0 39.99975 39.99975 39.99975 39.99975 0"></polygon>
    </defs>
    <g id="Page-1" stroke="none" stroke-width="1" fill="none" fill-rule="evenodd">
        <g id="Home_new" transform="translate(-737.000000, -625.000000)">
            <g id="USP" transform="translate(147.000000, 622.000000)">
                <g id="Group-26">
                    <g id="noVisit" transform="translate(590.000000, 0.000000)">
                        <g id="Group-27">
                            <g id="noVisit" transform="translate(0.000000, 3.000000)">
                                <mask id="mask-2" fill="white">
                                    <use xlink:href="#path-1"></use>
                                </mask>
                                <g id="Clip-2"></g>
                                <path d="M23.24225,25.42975 C23.52475,26.04225 24.091,26.48475 24.80475,26.48475 C25.5185,26.48475 26.1235,26.04225 26.406,25.42975 L28.67225,26.211 C28.06975,27.7585 26.571,28.86725 24.80475,28.86725 C23.0385,28.86725 21.5785,27.7585 20.97725,26.211 L23.24225,25.42975 Z M24.80475,24.10225 C25.13975,24.10225 25.42975,24.39225 25.42975,24.72725 C25.42975,25.061 25.13975,25.31225 24.80475,25.31225 C24.46975,25.31225 24.2185,25.061 24.2185,24.72725 C24.2185,24.39225 24.46975,24.10225 24.80475,24.10225 L24.80475,24.10225 Z M25.42975,20.62475 C27.4485,20.90975 28.98475,22.626 28.98475,24.72725 C28.98475,24.85225 28.956,24.956 28.94475,25.0785 L26.5235,24.2585 C26.36725,23.69475 25.97725,23.2385 25.42975,23.04725 L25.42975,20.62475 Z M24.2185,20.62475 L24.2185,23.04725 C23.671,23.2385 23.281,23.69475 23.12475,24.2585 L20.7035,25.0785 C20.6935,24.956 20.6635,24.85225 20.6635,24.72725 C20.6635,22.626 22.19975,20.90975 24.2185,20.62475 L24.2185,20.62475 Z M24.80475,19.37475 C22.98475,19.37475 21.3935,20.32225 20.42975,21.7185 C20.25725,21.741 20.09475,21.75725 19.92225,21.75725 C18.1985,21.75725 16.7185,20.88475 15.74225,19.60975 L15.54725,19.41475 L15.2735,19.41475 L15.196,19.41475 C12.2485,19.41475 9.8435,21.77975 9.8435,24.72725 L9.8435,29.49225 L9.8435,30.0785 L10.42975,30.0785 L13.3985,30.0785 L13.3985,24.72725 L14.571,24.72725 L14.571,30.0785 L15.196,30.0785 L24.68725,30.0785 L24.68725,30.03975 L24.80475,30.03975 C27.746,30.03975 30.156,27.66725 30.156,24.72725 C30.156,21.786 27.746,19.37475 24.80475,19.37475 L24.80475,19.37475 Z M15.781,13.476 L15.781,16.446 C15.781,18.73475 17.63225,20.586 19.92225,20.586 C22.211,20.586 24.06225,18.73475 24.06225,16.446 L24.06225,13.476 L15.781,13.476 Z M15.781,9.92225 L15.781,10.50725 L15.781,12.30475 L24.06225,12.30475 L24.06225,10.50725 L24.06225,9.92225 L23.476,9.92225 L16.36725,9.92225 L15.781,9.92225 Z M19.99975,1.24975 C30.36225,1.24975 38.74975,9.63725 38.74975,19.99975 C38.74975,30.36225 30.36225,38.74975 19.99975,38.74975 C9.63725,38.74975 1.24975,30.36225 1.24975,19.99975 C1.24975,9.63725 9.63725,1.24975 19.99975,1.24975 L19.99975,1.24975 Z M19.99975,-0.00025 C8.96225,-0.00025 -0.00025,8.96225 -0.00025,19.99975 C-0.00025,31.0385 8.96225,39.99975 19.99975,39.99975 C31.0385,39.99975 39.99975,31.0385 39.99975,19.99975 C39.99975,8.96225 31.0385,-0.00025 19.99975,-0.00025 L19.99975,-0.00025 Z" id="Fill-1" fill="#A5A5E5" mask="url(#mask-2)"></path>
                            </g>
                        </g>
                    </g>
                </g>
            </g>
        </g>
    </g>
</svg>