<?xml version="1.0" encoding="UTF-8" standalone="no"?>
<svg width="193px" height="48px" viewBox="0 0 193 48" version="1.1" xmlns="http://www.w3.org/2000/svg" xmlns:xlink="http://www.w3.org/1999/xlink">
    <!-- Generator: sketchtool 41.1 (35376) - http://www.bohemiancoding.com/sketch -->
    <title>21569D47-DD7D-43A0-BD3D-6D19A9B0E50B</title>
    <desc>Created with sketchtool.</desc>
    <defs></defs>
    <g id="Page-1" stroke="none" stroke-width="1" fill="none" fill-rule="evenodd">
        <g id="Payment_details" transform="translate(-542.000000, -110.000000)">
            <g id="Group-4" transform="translate(446.000000, 80.000000)">
                <g id="Group-3">
                    <g id="logo" transform="translate(96.000000, 22.000000)">
                        <g id="Group-24"></g>
                        <g id="Group-40" transform="translate(0.000000, 8.000000)">
                            <path d="M19.8760584,41.7941974 C19.9362129,42.04903 19.9885391,42.3081888 20.0194403,42.5683777 C20.0629082,42.935897 20.0567279,43.3071245 20.0336549,43.6756738 C20.0161442,43.9568755 19.9893631,44.2374592 19.9590798,44.5176309 C19.9368309,44.7236395 19.9088137,44.92903 19.8836807,45.1346266 C19.8000412,45.8216652 19.7660498,46.5420773 20.0433373,47.1930644 C20.1640584,47.4759142 20.3647107,47.7167382 20.6405562,47.8580601 C20.8789082,47.9800172 21.1590798,48.0280172 21.4238009,47.9837253 C21.6705991,47.9423176 21.8875262,47.8147983 22.0525391,47.6279485 C22.2360927,47.4211159 22.3615519,47.1724635 22.4561099,46.9147468 C22.5242987,46.729133 22.5737408,46.5311588 22.6046421,46.3358627 C22.7138266,45.6412017 22.6612944,44.8610472 22.3943073,44.2065579 C21.5900498,42.2383519 19.8760584,41.7941974 19.8760584,41.7941974" id="Fill-1" fill="#795FF9"></path>
                            <g id="Group-36">
                                <path d="M23.5513737,32.2647109 C21.6027385,32.2647109 19.7373308,31.7573117 17.9578286,30.9934319 L17.9578286,11.4162302 L20.8112535,11.4162302 L20.8112535,20.5976207 C21.8003007,18.9299812 23.1564552,18.0544448 25.2748415,18.0544448 C28.2982235,18.0544448 31.3481806,20.2867538 31.263511,25.2023246 C31.1223951,30.1745478 27.7603351,32.3497924 23.5513737,32.2647109 M44.5654853,26.748831 C43.7719402,25.9851572 42.8243007,25.3306679 42.1937084,24.4122817 C40.9607471,22.6158868 41.7794252,20.4907023 42.0663951,18.5478353 C42.2621033,17.2258782 42.5146698,15.9218439 42.5027213,14.5726937 C42.4689359,10.7267194 40.0419488,8.57949197 36.9709788,7.48270227 C35.5425153,6.97283103 34.2195282,6.84407567 32.8081634,6.23305421 C31.142378,5.51120013 30.5480432,3.7224276 29.6424295,2.29890828 C29.2543093,1.6897409 28.7380518,1.00826451 28.1468072,0.632298841 C26.8493651,-0.192765536 25.1926441,-0.207186137 23.7458458,0.570290258 C21.9605754,1.52987824 20.7708758,2.66622159 19.0824295,3.66103704 C18.1057428,4.23641901 16.9706355,4.58725163 15.8474767,4.70241043 C14.6835282,4.82189541 13.526378,4.69169798 12.3665496,4.59157781 C11.4440432,4.5120585 10.5176226,4.44036751 9.590996,4.4690027 C8.4558887,4.50402416 7.19491016,4.74876236 6.41310759,5.65437609 C6.21554536,5.88325163 6.04270416,6.16610142 5.92836939,6.44668511 C5.3525754,7.8576379 5.88242948,9.47315721 6.1422063,10.8983246 C6.22151961,11.3346508 6.29527068,11.771801 6.35068699,12.2118353 C6.47717626,13.2179812 6.41619772,14.2338096 6.09812046,15.2004018 C6.00953677,15.469243 5.89849815,15.731492 5.76994879,15.9838525 C5.4318887,16.6467881 4.99123634,17.2475091 4.4477857,17.7577924 C3.66454107,18.492419 2.73503034,19.0482302 1.94148527,19.7723503 C1.71940802,19.9750628 1.50680716,20.1882817 1.30986295,20.4155091 C0.877038919,20.915286 0.528884413,21.4822216 0.28497025,22.0971572 C-0.249416016,23.4436293 -0.00158769008,24.9396636 0.772592567,26.1402817 C1.46725351,27.2172945 2.67260973,27.7576551 3.53228355,28.6968482 C4.42347669,29.6700327 4.67769128,31.0296894 4.77224922,32.3030285 C4.83837798,33.1929855 4.84249815,34.0858267 4.83549385,34.9778439 C4.83219772,35.3593718 4.81674707,35.7419297 4.84002604,36.1230456 C4.86618913,36.5511315 4.85897883,36.9619126 5.09279858,37.3417924 C5.29818913,37.6753203 5.63872132,37.9114061 6.03343377,37.9431315 C6.22666982,37.9585821 6.49674707,37.9509598 6.67906467,37.8782388 C6.84407755,37.812934 7.0445239,37.716934 7.17822347,37.5980671 C7.65739943,37.1718353 7.79748527,36.5084877 7.89286725,35.9030285 C7.92418055,35.7052602 7.95199171,35.5066679 7.982893,35.3086937 C8.05911617,34.8204533 8.1629445,34.2461014 8.53932218,33.8905306 C8.72143377,33.7185134 9.02982862,33.5660671 9.28363119,33.5499984 C9.5598887,33.5322817 9.90660115,33.6562988 10.1126097,33.8357323 C10.551408,34.2178782 10.6070303,34.8330199 10.6723351,35.3696722 C10.7603007,36.0919383 10.7798715,36.8135864 10.7992363,37.5401787 C10.8103608,37.9627023 10.8221033,38.3866679 10.8499145,38.8083675 C10.8773136,39.2226508 10.9057428,39.636316 10.9333479,40.0501873 C10.9665153,40.547904 10.9972106,41.075904 11.1609874,41.5511658 C11.2654338,41.8550285 11.4520775,42.1424104 11.7106183,42.3368825 C12.014275,42.564934 12.5317685,42.7604362 12.9149445,42.7604362 C14.343202,42.7604362 14.7787042,41.5188224 15.2500518,40.5062903 C15.6563007,39.6340499 16.4399574,38.8061014 17.3206441,38.4340499 C19.1786355,37.6491572 21.3242149,37.9736207 22.6298973,39.5710113 C23.4069617,40.5213289 23.7567642,41.6893976 24.1990647,42.8104963 C24.614172,43.8615521 25.1502063,45.1612602 26.1116484,45.827904 C26.7581033,46.2763847 27.7296398,46.4856894 28.4978458,46.2819469 C28.983614,46.1527795 29.4767986,45.8662216 29.8307213,45.5129169 C30.7371591,44.6083332 31.142172,43.2439383 31.6246441,42.0874061 C31.7455711,41.79714 31.8248844,41.4901873 31.9688844,41.2096036 C32.6147213,39.9513031 34.0483351,39.1738267 35.4572278,39.5240413 C36.4007471,39.7582731 37.167305,40.4576722 38.1188587,40.6575006 C39.1548758,40.8750456 40.1807986,40.3068739 40.5884896,39.3221529 C40.9751677,38.38914 40.8293136,37.2385821 40.8070647,36.251595 C40.7848157,35.2555435 40.88679,34.5577924 41.583923,33.7910285 C42.3385325,32.9604018 43.4998029,33.1524018 44.3864638,32.6299641 C46.6919059,31.2723675 46.2825668,28.4016379 44.5654853,26.748831" id="Fill-3" fill="#795FF9"></path>
                                <path d="M24.4555262,20.7893768 C21.9978438,20.7893768 20.9811914,23.2754884 20.9811914,25.3374283 L20.9811914,29.2639519 C21.9694146,29.6314712 22.9304446,29.8572567 23.8335863,29.8572567 C26.4049854,29.8572567 28.099818,28.3886215 28.1280412,25.3374283 C28.2129167,22.5977202 26.8287451,20.7893768 24.4555262,20.7893768" id="Fill-6" fill="#7147E6"></path>
                                <path d="M25.2748429,18.1894249 C23.1564567,18.1894249 21.8003021,19.0651674 20.8114609,20.7328069 L20.8114609,11.5514163 L17.95783,11.5514163 L17.95783,31.128618 C19.7375382,31.8922918 21.6027399,32.399691 23.5513751,32.399691 C27.7603365,32.4847725 31.1226026,30.3095279 31.2635124,25.3375107 C31.348182,20.4217339 28.2984309,18.1894249 25.2748429,18.1894249" id="Fill-8" fill="#FFFFFF"></path>
                                <path d="M28.1279794,25.3374489 C28.0997562,28.3886421 26.4051296,29.8572773 23.8335245,29.8572773 C22.9303828,29.8572773 21.9693528,29.6314918 20.9811296,29.2639725 L20.9811296,25.3374489 C20.9811296,23.275509 21.997782,20.7893974 24.4554644,20.7893974 C26.8286833,20.7893974 28.2128549,22.5977408 28.1279794,25.3374489" id="Fill-10" fill="#795FF9"></path>
                            </g>
                        </g>
                        <text id="Dent-free,-Scratch-f" opacity="0.800000012" font-family="Roboto-Regular, Roboto" font-size="12" font-weight="normal" fill="#000000">
                            <tspan x="54" y="51">Dent free, Scratch free car</tspan>
                        </text>
                        <g id="Group-9" transform="translate(54.000000, 13.000000)" fill="#795FF9">
                            <path d="M2.54585408,14.9179056 C3.37854077,15.2271245 4.18753648,15.4174764 4.94894421,15.4174764 C7.11409442,15.4174764 8.5415279,14.1801888 8.56542489,11.6106438 C8.63670386,9.30293562 7.47090129,7.78012017 5.47241202,7.78012017 C3.40243777,7.78012017 2.54585408,9.87378541 2.54585408,11.6106438 L2.54585408,14.9179056 Z M0,0 L2.40309013,0 L2.40309013,7.73253219 C3.23577682,6.3287897 4.37788841,5.59127897 6.16233476,5.59127897 C8.70818884,5.59127897 11.2777339,7.47090129 11.2064549,11.6106438 C11.087382,15.7981803 8.256,17.6302146 4.71100429,17.5589356 C3.06932189,17.5589356 1.49891845,17.1306438 0,16.488309 L0,0 Z" id="Fill-12"></path>
                            <path d="M24.3455794,5.73079485 L24.3455794,13.9155159 C24.3455794,15.2955674 24.4646524,15.6760652 25.55897,15.5571983 L25.582867,17.2464687 C24.1076395,17.5080996 22.0139742,17.8175245 22.0139742,15.3431554 C21.2286695,16.8896618 19.6584721,17.3892326 18.0404807,17.3892326 C14.8761888,17.3892326 13.7577682,15.1764944 13.7577682,12.3690094 L13.7577682,5.73079485 L16.3751073,5.73079485 L16.3751073,12.3690094 C16.3512103,14.2010438 17.3266609,15.3192584 18.8494764,15.3192584 C20.4911588,15.3192584 21.7521373,14.1295588 21.7521373,12.2977305 L21.7521373,5.73079485 L24.3455794,5.73079485 Z" id="Fill-14"></path>
                            <path d="M27.1298266,5.68320687 C28.914273,5.15973906 30.9842472,5.51654592 30.9842472,7.58652017 C31.7217579,6.1590867 33.2684704,5.46916395 34.7910798,5.49285494 C36.3138953,5.51654592 37.6224618,6.20667468 38.2172086,7.65800515 C39.1452773,6.11149871 40.6917837,5.42157597 42.3334661,5.44526695 C45.450376,5.44526695 46.2830627,7.82466609 46.2830627,10.4654901 L46.2830627,14.1295588 C46.2830627,15.1050094 46.3067536,15.7475502 47.7104961,15.5571983 L47.7104961,17.1512927 C45.283715,17.7223485 43.6657236,17.0798077 43.6657236,14.4865717 L43.6657236,10.4654901 C43.6896206,8.75252876 42.9758009,7.56282918 41.4529854,7.56282918 C39.859097,7.58652017 38.7882644,8.72863176 38.7882644,10.5369751 L38.7882644,17.1988807 L36.2424103,17.1988807 L36.2424103,10.5369751 C36.2663073,8.75252876 35.5048996,7.58652017 33.8869082,7.58652017 C32.2691227,7.61041717 31.1270112,8.75252876 31.1270112,10.5845631 L31.1270112,17.1988807 L28.5098781,17.1988807 L28.5098781,9.37096652 C28.5098781,7.84835708 28.4859811,7.2536103 27.1298266,7.37247725 L27.1298266,5.68320687 Z" id="Fill-16"></path>
                            <path d="M55.7770918,7.70557253 C53.7786026,7.70557253 52.7555639,9.25207897 52.7555639,11.3457442 C52.7555639,13.4396155 53.7310146,15.2716498 55.7770918,15.2716498 C57.9422421,15.2716498 58.9415897,13.5823794 58.9415897,11.4172292 C58.9415897,9.32356395 57.8233751,7.70557253 55.7770918,7.70557253 L55.7770918,7.70557253 Z M50.2334009,23.051976 L50.2334009,9.51370987 C50.2334009,8.27662833 50.2809888,7.18210472 49.0200103,7.37245665 L49.0200103,5.6119073 C50.6380017,5.27879142 52.3746541,5.49283433 52.3746541,7.39635365 L52.3746541,7.82464549 C52.9932979,6.25424206 54.6588773,5.37396738 56.3005597,5.37396738 C59.7979674,5.37396738 61.5111348,8.20514335 61.5111348,11.4172292 C61.5111348,14.55783 59.8457614,17.4368 56.3957356,17.4368 C54.7064652,17.4368 53.3264137,16.9372292 52.636491,15.3907227 L52.636491,23.051976 L50.2334009,23.051976 Z" id="Fill-18"></path>
                            <path d="M69.5774421,10.9176172 C70.6004807,10.9176172 71.9090472,10.4656343 71.9805322,9.27593476 C72.0518112,7.91978026 70.5292017,7.49148841 69.3633991,7.49148841 C67.7690987,7.5151794 66.5320172,8.30027811 66.1513133,10.0134455 C67.007691,10.6083983 68.3877425,10.9176172 69.5774421,10.9176172 L69.5774421,10.9176172 Z M74.0505064,16.5325871 C72.7895279,17.1751279 71.4570644,17.3415828 70.0294249,17.4130678 C65.9609614,17.5319348 63.3199313,15.2003296 63.5102833,11.1555571 C63.5817682,7.44390043 66.2940773,5.51669013 69.3395021,5.44541116 C71.8377682,5.37392618 74.5976652,6.46824378 74.4787983,9.29962575 C74.3597253,11.5838489 72.2421631,12.6307845 70.0533219,12.7020635 C68.5544034,12.7733425 67.031588,12.3928446 65.9609614,11.7503039 C65.8894764,14.129497 67.6739227,15.4143725 70.1960858,15.3430936 C71.5283433,15.3430936 72.9559828,14.9623897 73.9790215,14.4865099 L74.0505064,16.5325871 Z" id="Fill-20"></path>
                            <path d="M83.2586163,5.35004979 C84.210376,5.3263588 85.1621356,5.6118867 85.8996464,6.15904549 L85.2573116,8.39547468 C84.5673888,7.94349185 83.8059811,7.70555193 82.9730884,7.70555193 C81.426582,7.70555193 80.0467365,8.70489957 80.0467365,10.5608309 L80.0467365,17.1988395 L77.4769854,17.1988395 L77.4769854,8.87135451 C77.4769854,7.84831588 77.4769854,7.32505408 76.2399039,7.39633305 L76.2160069,5.63557768 C77.9052773,5.25487382 79.7610026,5.54040172 79.8800755,7.39633305 C80.3320584,6.06386953 81.8548738,5.35004979 83.2586163,5.35004979" id="Fill-22"></path>
                        </g>
                    </g>
                </g>
            </g>
        </g>
    </g>
</svg>