<?xml version="1.0" encoding="UTF-8" standalone="no"?>
<svg width="22px" height="22px" viewBox="0 0 22 22" version="1.1" xmlns="http://www.w3.org/2000/svg" xmlns:xlink="http://www.w3.org/1999/xlink">
    <!-- Generator: Sketch 40.3 (33839) - http://www.bohemiancoding.com/sketch -->
    <title>phone_contact</title>
    <desc>Created with Sketch.</desc>
    <defs></defs>
    <g id="Page-1" stroke="none" stroke-width="1" fill="none" fill-rule="evenodd">
        <g id="ContactUs_desktop" transform="translate(-186.000000, -241.000000)">
            <g id="Group-12" transform="translate(187.000000, 208.000000)">
                <g id="Group-26">
                    <g id="phone_contact" transform="translate(0.000000, 34.000000)">
                        <circle id="Oval-2" stroke="#ADADAD" cx="10" cy="10" r="10"></circle>
                        <g id="ic_phone_black_24px" transform="translate(5.000000, 5.000000)" fill="#000000" opacity="0.600000024">
                            <path d="M2.11166667,4.54416667 C2.95166667,6.195 4.305,7.5425 5.95583333,8.38833333 L7.23916667,7.105 C7.39666667,6.9475 7.63,6.895 7.83416667,6.965 C8.4875,7.18083333 9.19333333,7.2975 9.91666667,7.2975 C10.2375,7.2975 10.5,7.56 10.5,7.88083333 L10.5,9.91666667 C10.5,10.2375 10.2375,10.5 9.91666667,10.5 C4.43916667,10.5 0,6.06083333 0,0.583333333 C0,0.2625 0.2625,0 0.583333333,0 L2.625,0 C2.94583333,0 3.20833333,0.2625 3.20833333,0.583333333 C3.20833333,1.3125 3.325,2.0125 3.54083333,2.66583333 C3.605,2.87 3.55833333,3.0975 3.395,3.26083333 L2.11166667,4.54416667 L2.11166667,4.54416667 Z" id="Shape"></path>
                        </g>
                    </g>
                </g>
            </g>
        </g>
    </g>
</svg>