<?xml version="1.0" encoding="UTF-8" standalone="no"?>
<svg width="16px" height="16px" viewBox="0 0 16 16" version="1.1" xmlns="http://www.w3.org/2000/svg" xmlns:xlink="http://www.w3.org/1999/xlink">
    <!-- Generator: Sketch 40.3 (33839) - http://www.bohemiancoding.com/sketch -->
    <title>phone_greyIcon</title>
    <desc>Created with Sketch.</desc>
    <defs></defs>
    <g id="Page-1" stroke="none" stroke-width="1" fill="none" fill-rule="evenodd" opacity="0.900000036">
        <g id="MobileWebsite_Home" transform="translate(-333.000000, -18.000000)" fill="#949494">
            <g id="header" transform="translate(-1.171875, 0.500000)">
                <g id="Icons" transform="translate(254.171875, 15.500000)">
                    <g id="Group-39" transform="translate(43.000000, 0.000000)">
                        <g id="phone_greyIcon" transform="translate(37.000000, 2.000000)">
                            <path d="M3.21777778,6.92444444 C4.49777778,9.44 6.56,11.4933333 9.07555556,12.7822222 L11.0311111,10.8266667 C11.2711111,10.5866667 11.6266667,10.5066667 11.9377778,10.6133333 C12.9333333,10.9422222 14.0088889,11.12 15.1111111,11.12 C15.6,11.12 16,11.52 16,12.0088889 L16,15.1111111 C16,15.6 15.6,16 15.1111111,16 C6.76444444,16 0,9.23555556 0,0.888888889 C0,0.4 0.4,0 0.888888889,0 L4,0 C4.48888889,0 4.88888889,0.4 4.88888889,0.888888889 C4.88888889,2 5.06666667,3.06666667 5.39555556,4.06222222 C5.49333333,4.37333333 5.42222222,4.72 5.17333333,4.96888889 L3.21777778,6.92444444 L3.21777778,6.92444444 Z" id="Shape"></path>
                        </g>
                    </g>
                </g>
            </g>
        </g>
    </g>
</svg>