<?xml version="1.0" encoding="UTF-8" standalone="no"?>
<svg width="63px" height="49px" viewBox="0 0 63 49" version="1.1" xmlns="http://www.w3.org/2000/svg" xmlns:xlink="http://www.w3.org/1999/xlink">
    <!-- Generator: Sketch 41.1 (35376) - http://www.bohemiancoding.com/sketch -->
    <title>Piggybank</title>
    <desc>Created with Sketch.</desc>
    <defs></defs>
    <g id="Page-1" stroke="none" stroke-width="1" fill="none" fill-rule="evenodd">
        <g id="EstimatedSavings3" transform="translate(-812.000000, -445.000000)">
            <g id="Piggybank" transform="translate(813.500000, 447.000000)">
                <g id="Group-13">
                    <path d="M33.4524062,15.8735625 C32.3339037,14.316157 28.0390104,14.2475208 27.0487837,14.2524739 C26.058557,14.2475208 21.7636638,14.316157 20.6451613,15.8735625 L21.7957328,17.2554856 C21.7957328,17.2554856 23.3264387,16.2945785 27.0487837,16.2584914 C30.771911,16.2945785 32.3026169,17.2554856 32.3026169,17.2554856 L33.4524062,15.8735625 Z" id="Fill-5" fill="#7600FE"></path>
                    <path d="M33.4672258,6.13313681 C33.4672258,9.3411913 30.8769032,11.942229 27.6820645,11.942229 C24.4865806,11.942229 21.8969032,9.3411913 21.8969032,6.13313681 C21.8969032,2.92508232 24.4865806,0.3240446 27.6820645,0.3240446 C30.8769032,0.3240446 33.4672258,2.92508232 33.4672258,6.13313681 L33.4672258,6.13313681 Z" id="Combined-Shape" fill="#29F036"></path>
                    <path d="M21.6039884,6.61749125 C18.2762179,7.06212701 15.4838028,7.92638676 13.1760351,9.09098119 L9.11632885,4.59442213 C9.11632885,4.59442213 6.27735827,3.06910461 6.71540397,6.44453124 C6.97243905,8.4277648 7.28015711,11.4334904 7.49085347,13.5827285 C6.09707169,15.3109406 5.1717454,17.2316217 4.66781183,19.2164591 L3.55857874,19.2164591 C1.790467,19.2164591 0.343830116,20.8187643 0.343830116,22.7771373 L0.343830116,25.4548634 C0.343830116,27.4132364 1.790467,29.0155416 3.55857874,29.0155416 L6.03770021,29.0155416 C7.28812158,31.0942077 9.12284523,33.0541846 11.3644808,34.7294676 L9.60867774,41.4731033 C9.60867774,43.3440632 10.7005338,44.8749944 12.0436326,44.8749944 L16.6948815,44.8749944 C18.0387044,44.8749944 19.2847815,43.4868111 19.8546029,41.4731033 L20.1833182,39.0367654 C22.395268,39.6526665 24.7245127,40.0023187 27.099372,40.0023187 C28.6314459,40.0023187 30.0867713,39.9036783 31.4733127,39.7256443 L31.7093505,41.4731033 C32.2784479,43.4868111 33.5252491,44.8749944 34.8683479,44.8749944 L39.5195968,44.8749944 C40.8634196,44.8749944 41.9545517,43.3440632 41.9545517,41.4731033 L40.7490209,36.8402119 C46.8070844,33.5417729 50.0001117,28.1422131 50.0001117,22.9888532" id="Stroke-11" stroke="#7600FE" stroke-width="2.7" stroke-linecap="round" stroke-linejoin="round"></path>
                    <path d="M33.4672258,6.13313681 C33.4672258,9.3411913 30.8769032,11.942229 27.6820645,11.942229 C24.4865806,11.942229 21.8969032,9.3411913 21.8969032,6.13313681 C21.8969032,2.92508232 24.4865806,0.3240446 27.6820645,0.3240446 C30.8769032,0.3240446 33.4672258,2.92508232 33.4672258,6.13313681" id="Fill-13" stroke="#7600FE" stroke-width="2.7" stroke-linecap="round" stroke-linejoin="round"></path>
                    <path d="M49.9998945,24.1002955 C49.9998945,24.1002955 55.5401098,21.8051604 55.7728174,25.7210417 C56.005525,29.6369231 46.3100963,25.4148635 59.7192497,20.7305621" id="Path-330" stroke="#7600FE" stroke-width="2.7" stroke-linecap="round" stroke-linejoin="round"></path>
                    <path d="M8.38709677,17.4914118 C8.38709677,17.4914118 10.5996467,21.7678015 13.8902525,17.8868679" id="Path-331" stroke="#29F036" stroke-width="2.7" stroke-linecap="round"></path>
                    <path d="M8.38709677,19.0554107 C8.38709677,19.0554107 10.5996467,23.3318004 13.8902525,19.4508668" id="Path-331" stroke="#7600FE" stroke-width="2.7" stroke-linecap="round" stroke-linejoin="round"></path>
                    <path d="M39.1674755,8.42179087 C39.1674755,8.42179087 42.7158626,8.74570591 46.909411,14.2522615 C49.2440843,17.3179249 50.1102539,21.1421986 50,23.9697125 C49.9122154,26.220989 49.032258,27.8566929 49.032258,27.8566929" id="Path-591" stroke="#7600FE" stroke-width="2.7" stroke-linecap="round" stroke-linejoin="round"></path>
                    <ellipse id="Oval-16" fill="#7600FE" cx="36.4516129" cy="7.45004577" rx="0.967741935" ry="0.971745101"></ellipse>
                </g>
                <path d="M22.9032258,34.6589086 C22.9032258,34.6589086 25.8064516,36.2784838 31.9354839,34.3349936 C38.0645161,32.3915034 39.0322581,28.828438 39.0322581,28.828438" id="Path-589" stroke="#29F036" stroke-width="2.7" stroke-linecap="round"></path>
                <ellipse id="Oval-18" fill="#29F036" cx="41.2903226" cy="25.2653726" rx="1.29032258" ry="1.29566013"></ellipse>
            </g>
        </g>
    </g>
</svg>