<?xml version="1.0" encoding="UTF-8" standalone="no"?>
<svg width="22px" height="22px" viewBox="0 0 22 22" version="1.1" xmlns="http://www.w3.org/2000/svg" xmlns:xlink="http://www.w3.org/1999/xlink">
    <!-- Generator: Sketch 41.1 (35376) - http://www.bohemiancoding.com/sketch -->
    <title>playstore_logo</title>
    <desc>Created with Sketch.</desc>
    <defs></defs>
    <g id="Page-1" stroke="none" stroke-width="1" fill="none" fill-rule="evenodd">
        <g id="UserStories-Copy-3" transform="translate(-147.000000, -1273.000000)">
            <g id="Group-11" transform="translate(148.000000, 980.000000)">
                <g id="Group-10">
                    <g id="title_andr" transform="translate(0.000000, 294.000000)">
                        <g id="playstore_logo">
                            <rect id="Rectangle" stroke-opacity="0.192595109" stroke="#979797" fill="#FFFFFF" x="0" y="0" width="20" height="20" rx="2"></rect>
                            <g id="Group" transform="translate(3.500000, 2.000000)" fill="#AAC148">
                                <path d="M10.7964444,5.27130435 L2.69677295,5.27130435 C2.51659903,5.27130435 2.37055072,5.41735266 2.37055072,5.59752657 L2.37055072,12.3897585 C2.37055072,12.5699324 2.51659903,12.7159807 2.69677295,12.7159807 L4.14075362,12.7159807 L4.14075362,15.0049855 C4.14075362,15.5360773 4.57128502,15.9666473 5.10241546,15.9666473 L5.10241546,15.9666473 C5.63350725,15.9666473 6.06407729,15.5361159 6.06407729,15.0049855 L6.06407729,12.7159807 L7.40912077,12.7159807 L7.40912077,15.0049855 C7.40912077,15.5360773 7.83965217,15.9666473 8.37078261,15.9666473 L8.37078261,15.9666473 C8.9018744,15.9666473 9.33244444,15.5361159 9.33244444,15.0049855 L9.33244444,12.7159807 L10.7964831,12.7159807 C10.976657,12.7159807 11.1227053,12.5699324 11.1227053,12.3897585 L11.1227053,5.59752657 C11.1226667,5.41735266 10.9766184,5.27130435 10.7964444,5.27130435 Z" id="Shape"></path>
                                <path d="M0.9992657,5.26971981 L0.9992657,5.26971981 C0.468173913,5.26971981 0.0376038647,5.70025121 0.0376038647,6.23138164 L0.0376038647,10.1372754 C0.0376038647,10.6683671 0.468135266,11.0989372 0.9992657,11.0989372 L0.9992657,11.0989372 C1.53035749,11.0989372 1.96092754,10.6684058 1.96092754,10.1372754 L1.96092754,6.23138164 C1.96088889,5.70028986 1.53035749,5.26971981 0.9992657,5.26971981 Z" id="Shape"></path>
                                <path d="M12.4939517,5.26971981 L12.4939517,5.26971981 C11.9628599,5.26971981 11.5322899,5.70025121 11.5322899,6.23138164 L11.5322899,10.1372754 C11.5322899,10.6683671 11.9628213,11.0989372 12.4939517,11.0989372 L12.4939517,11.0989372 C13.0250435,11.0989372 13.4556135,10.6684058 13.4556135,10.1372754 L13.4556135,6.23138164 C13.4556135,5.70028986 13.0250821,5.26971981 12.4939517,5.26971981 Z" id="Shape"></path>
                                <path d="M2.76231884,4.7949372 L10.7117681,4.7949372 C10.9191498,4.7949372 11.0738164,4.60390338 11.0312271,4.40092754 C10.7682705,3.1476715 9.97035749,2.09151691 8.88765217,1.4813913 L9.56722705,0.255227053 C9.61321739,0.17221256 9.58322705,0.0675942029 9.50021256,0.0216038647 C9.41700483,-0.0245024155 9.31254106,0.00560386473 9.26655072,0.0886183575 L8.58183575,1.32401932 C8.02102415,1.06376812 7.39601932,0.918415459 6.73704348,0.918415459 C6.07802899,0.918415459 5.45302415,1.06376812 4.89221256,1.32401932 L4.20749758,0.0885797101 C4.1614686,0.00552657005 4.05685024,-0.0244251208 3.9738744,0.0215652174 C3.8908599,0.0675555556 3.86086957,0.172173913 3.9068599,0.255188406 L4.58643478,1.48135266 C3.50372947,2.09151691 2.70581643,3.14763285 2.4428599,4.40092754 C2.40023188,4.60390338 2.55489855,4.7949372 2.76231884,4.7949372 Z M9.1090628,2.96757488 C9.1090628,3.17171014 8.94357488,3.33723671 8.73940097,3.33723671 C8.5352657,3.33723671 8.36973913,3.17174879 8.36973913,2.96757488 C8.36973913,2.76343961 8.53522705,2.59791304 8.73940097,2.59791304 C8.94357488,2.59791304 9.1090628,2.76343961 9.1090628,2.96757488 Z M4.7346087,2.59791304 C4.93874396,2.59791304 5.10427053,2.76340097 5.10427053,2.96757488 C5.10427053,3.17171014 4.93878261,3.33723671 4.7346087,3.33723671 C4.53047343,3.33723671 4.36494686,3.17174879 4.36494686,2.96757488 C4.36494686,2.76343961 4.53043478,2.59791304 4.7346087,2.59791304 Z" id="Shape"></path>
                            </g>
                        </g>
                    </g>
                </g>
            </g>
        </g>
    </g>
</svg>