<svg xmlns="http://www.w3.org/2000/svg" viewBox="0 0 1398.11 424.24"><defs><style>.cls-1,.cls-2{fill:none;stroke:#525252;stroke-miterlimit:10;}.cls-1{stroke-width:2px;}</style></defs><title>Asset 1</title><g id="Layer_2" data-name="Layer 2"><g id="Layer_1-2" data-name="Layer 1"><g id="outline"><path class="cls-1" d="M199.78,238.69c56.33-41.42,200.33-27.67,190.67,117,0,0-3.33,11.33,15.33,11.33a313.55,313.55,0,0,0,34.67-2"/><path class="cls-1" d="M407.54,139.13c-4.48,3.76-6.51,4.55-28.09,8.55-27.33,4-101.67,13-101.67,13s-166.29,26.08-158.67,32"/><g id="_Path_" data-name="&lt;Path&gt;"><path class="cls-1" d="M738.11,139l21-116.5s-72.5,2.5-104,8-73,18.5-116.5,43c-63,34-113,84-113,84s-4.5,7-5.5,10.5a206.42,206.42,0,0,0-6,62c2,31,10.5,98.5,15.5,109.5,18.6,0,300.27-4.31,312.12-4.49a.3.3,0,0,0,.29-.38C740.25,327.95,715.75,231.55,738.11,139Z"/></g><g id="_Path_2" data-name="&lt;Path&gt;"><path class="cls-1" d="M741.11,335h164.5s16.5-2,20.5-4.5,9.5-4.5,17-17.5,56-102.5,61.5-115.5,16.5-31.5,13.5-44c-7-32-47-116.5-47-116.5s-27.5-7.5-40-9-53.5-5.5-69-5.5H758.61m204,99.5c-23.47,0-195.25,9.25-195.25,9.25L770.61,29c103.57-5.1,162.82,5.89,178.2,9.29a11.26,11.26,0,0,1,6.63,5.62c.86,1.95,7.51,13.92,8.87,23.57C965.57,76.37,965,96.08,962.61,122Z"/></g><polyline class="cls-1" points="429.61 339.52 440.44 365.02 967.78 355.02 970.04 318.72"/><path class="cls-1" d="M938.53,319.43h31.19a.35.35,0,0,0,.35-.38c-5-53.5,67.64-151.22,180.7-91.36,48.33-1.67,102.33-3.67,102.33-3.67s19.67,1,26-13,7.67-18.67,7.67-18.67a287.2,287.2,0,0,1,16-40.67c9.67-19.33,18-38.67,28-38.67-1.33-2-1.17-2.5-9.5-3.5s-112-7-112-7-69.17-35.83-171.5-70.17c-19.33,0-66.67,4.67-66.67,4.67s52,15,86.67,35.33,23,13,23,13,10.33,6,4.33,15.33-7,17-13,20.67-63,4-63,4"/><path class="cls-1" d="M971.11,37l66.67-4.67S978.11,8.52,892.11,7s-226-5.33-302.5,25.33-184.34,108.4-184.34,108.4l18.9,19.1"/><path class="cls-1" d="M518.61,95s-66.5,40.25-77,55c15.25,0,86-6.5,86-6.5"/><path class="cls-1" d="M515.33,108.72,518.61,95s57-40,123-56c58.89-10.11,103-9.5,103-9.5l-31.5,105-185.5,9s15.11-4.64,12.55-15.07-3.22-25.43-24.92-20c0,0-20.76,5.32-27.76,14.07s-5.27,25.2,2.63,24.27"/><path class="cls-2" d="M687.57,180c-2.59,4.51-8.3,7.64-14.93,7.64-6.44,0-12-3-14.71-7.26"/><path class="cls-2" d="M656.79,171.12c1.89-5.56,8.27-9.65,15.85-9.65,6.58,0,12.26,3.09,14.88,7.55"/><path class="cls-2" d="M646.66,180.12c-4.64-.29-4.9-7-.29-7.66,10.37-1.4,50.29-4.42,58.57-4.11,16.58.67,10.17,11.34-1,11.33C700.36,179.61,659.2,180.9,646.66,180.12Z"/><path class="cls-2" d="M697.78,168.33s-1,6.33,1,11.43"/><line class="cls-2" x1="646.28" y1="176.85" x2="697.53" y2="174.55"/><circle class="cls-2" cx="706.03" cy="173.77" r="3.08"/><path class="cls-2" d="M978.57,165.3c-2.59,4.51-8.3,7.64-14.93,7.64-6.44,0-12-3-14.71-7.26"/><path class="cls-2" d="M947.79,156.42c1.89-5.56,8.27-9.65,15.85-9.65,6.58,0,12.26,3.09,14.88,7.55"/><path class="cls-2" d="M937.67,165.42c-4.64-.29-4.9-7-.29-7.66,10.37-1.4,50.29-4.42,58.57-4.11,16.58.67,10.17,11.34-1,11.33C991.37,164.91,950.2,166.2,937.67,165.42Z"/><path class="cls-2" d="M988.78,153.63s-1,6.33,1,11.43"/><line class="cls-2" x1="937.28" y1="162.15" x2="988.53" y2="159.85"/><circle class="cls-2" cx="997.03" cy="159.07" r="3.08"/><path class="cls-1" d="M1286.78,192.35s73.83-.83,78.33-6.33c12,12,22.5,24,23,27s9,57,9,58.5-5.5,18.5-7,20.5-6,16.5-17,19.5c-10.21,2.79-151.46,20.66-171.61,23.2a2,2,0,0,1-2.28-2.06c.37-12.85-.45-74.85-48.44-105"/><path class="cls-1" d="M1195.19,294.42s197.67-15.16,201.92-22.91"/><path class="cls-1" d="M1365.11,186s-5.67-48.5-22.67-74.5c-4.54-.24-11.67,1.5-11.67,1.5"/><path class="cls-1" d="M1342.44,111.52s-4-5.83-6-6.33-44.33-3.83-57.17-4.83-62.33-1.67-64.67-2.33"/><path class="cls-1" d="M1209.28,102.52l5.33-4.5c-98.94-54.43-202.5-92-317-95.57C815.12-.38,661.5-2.31,580.86,29.51l8.75,2.84"/><path class="cls-1" d="M580.86,29.51c-13.1,7.76-62.25,22-203.75,106.76-5.5-4-233.5,24.75-294.5,52.75s-64,59.5-64,59.5S4.61,250,2.11,270s0,51.5,0,51.5-4,30,33,34.5,127.5,9,127.5,9-23-79.5,38.5-127c-9.15.44-42.88,2.39-78,4.46C77.54,245.15,29.61,248,29.61,248s9-31,43-42.5,46.5-14.5,55-12,30.5,16,21.5,26"/><path class="cls-1" d="M149.11,219.52s-22.73,21.75-26,23"/><line class="cls-1" x1="25.24" y1="232.89" x2="37.12" y2="232.89"/><path class="cls-1" d="M377.11,136.27l28.16,4.48c-9.15,6.47-50.49,9.27-50.49,9.27s-44.67,5-134,19.67S114,193.42,114,193.42"/><line class="cls-1" x1="1035.78" y1="32.35" x2="1042.24" y2="25.82"/><circle class="cls-1" cx="274.93" cy="327.12" r="96.12"/><circle class="cls-1" cx="274.93" cy="327.12" r="79.09"/><circle class="cls-1" cx="1087.07" cy="327.12" r="96.12"/><circle class="cls-1" cx="1087.07" cy="327.12" r="79.09"/></g></g></g></svg>