<?xml version="1.0" encoding="utf-8"?>
<!-- Generator: Adobe Illustrator 19.2.1, SVG Export Plug-In . SVG Version: 6.00 Build 0)  -->
<svg version="1.1" id="Layer_1" xmlns="http://www.w3.org/2000/svg" xmlns:xlink="http://www.w3.org/1999/xlink" x="0px" y="0px"
	 viewBox="0 0 600 600" style="enable-background:new 0 0 600 600;" xml:space="preserve">
<style type="text/css">
	.st0{fill:#E4E3E5;}
	.st1{fill:#F0AB54;}
	.st2{fill:#F77A83;}
	.st3{fill:#AAAAAA;}
	.st4{fill:#FFFFFF;}
	.st5{fill:#623ED8;}
	.st6{fill:#A671FE;}
	.st7{fill:#512D9B;}
	.st8{fill:#2A1F48;}
	.st9{fill:#242424;}
	.st10{fill:#2B2049;}
	.st11{fill:#F67A82;}
	.st12{fill:#5032AF;}
	.st13{fill:#4A3A89;}
	.st14{fill:#DB3B78;}
	.st15{fill:#4F32AF;}
	.st16{fill:#271F45;}
	.st17{fill:#EFAA54;}
	.st18{fill:#271F46;}
	.st19{fill:#2B1F4A;}
	.st20{fill:#2C204D;}
	.st21{fill:#DB3C79;}
	.st22{fill:#C5C6C7;}
	.st23{fill:#2D224B;}
	.st24{fill:#BCBCC0;}
	.st25{fill:#F67A83;}
	.st26{fill:#E97180;}
	.st27{fill:#4A3A8A;}
	.st28{fill:#282045;}
	.st29{fill:#9830A0;}
	.st30{fill:#D94782;}
	.st31{fill:#2D224F;}
	.st32{fill:#972F9F;}
	.st33{fill:#312550;}
	.st34{fill:#30224E;}
	.st35{fill:#4E3988;}
	.st36{fill:#D93B77;}
	.st37{fill:#DE4981;}
	.st38{fill:#2B1F48;}
	.st39{fill:#2D204C;}
	.st40{fill:#A670FE;}
	.st41{fill:#FEFCFD;}
	.st42{fill:#2C2049;}
	.st43{fill:#302351;}
	.st44{fill:#E16B9B;}
	.st45{fill:#E77CA4;}
	.st46{fill:#34275D;}
	.st47{fill:#37295C;}
</style>
<path class="st0" d="M504,566.8H96c-34.7,0-62.8-28.1-62.8-62.8V96c0-34.7,28.1-62.8,62.8-62.8h408c34.7,0,62.8,28.1,62.8,62.8v408
	C566.8,538.7,538.7,566.8,504,566.8z"/>
<path class="st1" d="M430.6,273.6l-0.6-0.3l0.2,0.4C430.3,273.6,430.4,273.6,430.6,273.6z"/>
<path class="st2" d="M445.8,272.4c0.8,0,1.6,0,2.4,0C447.5,272.3,446.7,272.2,445.8,272.4z"/>
<g>
	<g>
		<path class="st3" d="M405.8,192.5c0,2.8-1.1,5.1-2.5,5.1l0,0c-1.4,0-2.5-2.3-2.5-5.1V29.3c0-2.8,1.1-5.1,2.5-5.1l0,0
			c1.4,0,2.5,2.3,2.5,5.1V192.5z"/>
	</g>
</g>
<g>
	<g>
		<path class="st3" d="M477.8,192.5c0,2.8-1.1,5.1-2.5,5.1l0,0c-1.4,0-2.5-2.3-2.5-5.1V29.3c0-2.8,1.1-5.1,2.5-5.1l0,0
			c1.4,0,2.5,2.3,2.5,5.1V192.5z"/>
	</g>
</g>
<g>
	<g>
		<path class="st3" d="M427.1,155.3l-0.2-0.3c-0.4-0.4-1-0.8-1.5-1v-15c0.5-0.3,1.1-0.6,1.5-1l0.2-0.3c1.8-2,1.7-5.1-0.2-7
			c-0.6-0.6-1.2-1-1.9-1.2v4.9c0,0.3-0.1,0.5-0.2,0.7c-0.3,0.6-0.9,1-1.6,1c-0.5,0-0.9-0.2-1.2-0.5c-0.1-0.1-0.3-0.3-0.3-0.5
			c-0.1-0.2-0.2-0.5-0.2-0.7v-4.9c-0.7,0.2-1.4,0.6-1.9,1.2c-1.9,1.9-2,5-0.2,7l0.2,0.3c0.4,0.4,1,0.8,1.5,1v15
			c-0.5,0.2-1.1,0.6-1.5,1l-0.2,0.3c-1.8,2-1.7,5.1,0.2,7c0.6,0.6,1.2,1,1.9,1.2v-4.9c0-0.3,0.1-0.5,0.2-0.7c0.3-0.6,0.9-1,1.6-1
			c0.5,0,0.9,0.2,1.2,0.5c0.1,0.1,0.3,0.3,0.3,0.5c0.1,0.2,0.2,0.5,0.2,0.7v4.9c0.7-0.2,1.4-0.6,1.9-1.2
			C428.8,160.4,428.9,157.3,427.1,155.3z"/>
	</g>
	<g>
		<path class="st3" d="M423.8,152.3c0,0.3-0.2,0.6-0.6,0.6l0,0c-0.3,0-0.6-0.2-0.6-0.6v-11.6c0-0.3,0.3-0.6,0.6-0.6l0,0
			c0.3,0,0.6,0.2,0.6,0.6V152.3z"/>
	</g>
</g>
<g>
	<g>
		<path class="st3" d="M458.7,155.3l-0.2-0.3c-0.4-0.4-1-0.8-1.5-1v-15c0.5-0.3,1.1-0.6,1.5-1l0.2-0.3c1.8-2,1.7-5.1-0.2-7
			c-0.6-0.6-1.2-1-1.9-1.2v4.9c0,0.3-0.1,0.5-0.2,0.7c-0.3,0.6-0.9,1-1.6,1c-0.5,0-0.9-0.2-1.2-0.5c-0.1-0.1-0.3-0.3-0.3-0.5
			c-0.1-0.2-0.2-0.5-0.2-0.7v-4.9c-0.7,0.2-1.4,0.6-1.9,1.2c-1.9,1.9-2,5-0.2,7l0.2,0.3c0.4,0.4,1,0.8,1.5,1v15
			c-0.5,0.2-1.1,0.6-1.5,1l-0.2,0.3c-1.8,2-1.7,5.1,0.2,7c0.6,0.6,1.2,1,1.9,1.2v-4.9c0-0.3,0.1-0.5,0.2-0.7c0.3-0.6,0.9-1,1.6-1
			c0.5,0,0.9,0.2,1.2,0.5c0.1,0.1,0.3,0.3,0.3,0.5c0.1,0.2,0.2,0.5,0.2,0.7v4.9c0.7-0.2,1.4-0.6,1.9-1.2
			C460.4,160.4,460.5,157.3,458.7,155.3z"/>
	</g>
	<g>
		<path class="st3" d="M455.4,152.3c0,0.3-0.3,0.6-0.6,0.6l0,0c-0.3,0-0.6-0.2-0.6-0.6v-11.6c0-0.3,0.3-0.6,0.6-0.6l0,0
			c0.3,0,0.6,0.2,0.6,0.6V152.3z"/>
	</g>
</g>
<g>
	<g>
		<path class="st3" d="M443.2,153.6l-0.3-0.3c-0.5-0.5-1.2-0.9-1.8-1.2v-18c0.6-0.3,1.3-0.7,1.8-1.2l0.3-0.3
			c2.1-2.4,2.1-6.1-0.3-8.5c-0.7-0.7-1.5-1.1-2.3-1.4v5.8c0,0.3-0.1,0.6-0.2,0.9c-0.3,0.7-1,1.2-1.9,1.2c-0.6,0-1.1-0.2-1.5-0.6
			c-0.2-0.2-0.3-0.4-0.4-0.6c-0.1-0.3-0.2-0.5-0.2-0.9v-5.8c-0.8,0.3-1.6,0.8-2.3,1.4c-2.3,2.3-2.4,6-0.3,8.5l0.3,0.3
			c0.5,0.5,1.2,0.9,1.8,1.2v18c-0.6,0.3-1.3,0.7-1.8,1.2l-0.3,0.3c-2.1,2.4-2.1,6.1,0.3,8.4c0.7,0.7,1.5,1.1,2.3,1.4v-5.8
			c0-0.3,0.1-0.6,0.2-0.8c0.3-0.7,1-1.2,1.9-1.2c0.6,0,1.1,0.2,1.5,0.6c0.2,0.2,0.3,0.4,0.4,0.6c0.1,0.3,0.2,0.5,0.2,0.9v5.8
			c0.8-0.3,1.6-0.8,2.3-1.4C445.2,159.8,445.3,156.1,443.2,153.6z"/>
	</g>
	<g>
		<path class="st3" d="M439.2,150c0,0.4-0.3,0.7-0.7,0.7l0,0c-0.4,0-0.7-0.3-0.7-0.7v-13.9c0-0.4,0.3-0.7,0.7-0.7l0,0
			c0.4,0,0.7,0.3,0.7,0.7V150z"/>
	</g>
</g>
<g>
	<path class="st3" d="M424.8,88.5h-7.6l-3.8-6.5l3.8-6.5h7.6l3.8,6.5L424.8,88.5z M418.3,86.8h5.6l2.8-4.8l-2.8-4.8h-5.6l-2.8,4.8
		L418.3,86.8z"/>
</g>
<g>
	<path class="st3" d="M443.1,88.5h-7.6l-3.8-6.5l3.8-6.5h7.6l3.8,6.5L443.1,88.5z M436.5,86.8h5.6l2.8-4.8l-2.8-4.8h-5.6l-2.8,4.8
		L436.5,86.8z"/>
</g>
<g>
	<path class="st3" d="M461.3,88.5h-7.6L450,82l3.8-6.5h7.6l3.8,6.5L461.3,88.5z M454.8,86.8h5.6l2.8-4.8l-2.8-4.8h-5.6L452,82
		L454.8,86.8z"/>
</g>
<g>
	<path class="st3" d="M424.8,71.7h-7.6l-3.8-6.5l3.8-6.5h7.6l3.8,6.5L424.8,71.7z M418.3,69.9h5.6l2.8-4.8l-2.8-4.8h-5.6l-2.8,4.8
		L418.3,69.9z"/>
</g>
<g>
	<path class="st3" d="M443.1,71.7h-7.6l-3.8-6.5l3.8-6.5h7.6l3.8,6.5L443.1,71.7z M436.5,69.9h5.6l2.8-4.8l-2.8-4.8h-5.6l-2.8,4.8
		L436.5,69.9z"/>
</g>
<g>
	<path class="st3" d="M461.3,71.7h-7.6l-3.8-6.5l3.8-6.5h7.6l3.8,6.5L461.3,71.7z M454.8,69.9h5.6l2.8-4.8l-2.8-4.8h-5.6l-2.8,4.8
		L454.8,69.9z"/>
</g>
<g>
	<rect x="403.3" y="97.3" class="st3" width="72" height="2.4"/>
</g>
<g>
	<rect x="403.3" y="173.4" class="st3" width="72" height="2.4"/>
</g>
<g>
	<g>
		<path class="st3" d="M550.1,192.5c0,2.8-1.1,5.1-2.5,5.1l0,0c-1.4,0-2.5-2.3-2.5-5.1V29.3c0-2.8,1.1-5.1,2.5-5.1l0,0
			c1.4,0,2.5,2.3,2.5,5.1V192.5z"/>
	</g>
</g>
<g>
	<rect x="475.6" y="97.3" class="st3" width="72" height="2.4"/>
</g>
<g>
	<rect x="475.6" y="173.4" class="st3" width="72" height="2.4"/>
</g>
<g>
	<g>
		<g>
			<path class="st3" d="M507,154.2c0,0-0.2-2-2.8-4.1l-1.8-2.1c0,0-0.2-1.6,0.4-2.2c0,0,0.4-0.8-0.3-2c0,0,0.3-2,0.6-2.1
				c0,0,0.1-0.9-0.4-1.2c0,0,0-1.8,0.6-2.1c0,0,0.8-1.3-0.5-2.1l-1.2-0.9h-4.3c0,0-0.9-1-3.4,12.1c0,0-0.5,0.5-0.7,0.5
				c0,0-0.6,0.1-0.5,1.5c0,0-0.9,6.1-0.6,8.3c0,0-0.6,8.5,0.3,15.7c0,0,1.8,0.6,2.2,0.6h9.5c0,0,1.3-0.3,1.5-0.9c0,0,1.5-6,1.5-7.9
				C507.1,165.1,507.2,154.6,507,154.2z"/>
		</g>
		<g>
			<path class="st3" d="M502.2,135.3V132c0,0-0.3-0.3-0.6-0.3h-3.8c0,0-0.4,0-0.7,0.2v3.4L502.2,135.3z"/>
		</g>
		<g>
			<path class="st3" d="M497,131.8l-0.2-0.7l-4.1-0.1c0,0-0.2-0.6,0.2-0.8l5.1-4.3h10.2l0.1,0.3h0.5v1.2h-0.5v0.6h-2.5
				c0,0-0.1,2.2,2.6,6.5c0,0,0,0.6-0.8,0c0,0-1.9-2.6-2.5-4.6h-1.5v0.9h-0.8l-0.4,1c0,0-0.5-0.3-0.6-0.3H498
				C497.7,131.6,497.2,131.7,497,131.8z"/>
		</g>
		<g>
			<path class="st3" d="M506.1,130c0,0,0.9,2.9,2.3,4.8c0,0,0,0.5-0.7,0.1s-0.2-0.1-0.2-0.1s-1.7-2.3-2.5-4.6L506.1,130z"/>
		</g>
	</g>
	<g>
		<rect x="495.6" y="156.4" class="st3" width="8.1" height="10.9"/>
	</g>
	<g>
		<g>
			<rect x="496.9" y="157.7" class="st3" width="5.4" height="0.5"/>
		</g>
	</g>
	<g>
		<g>
			<rect x="496.9" y="159.6" class="st3" width="5.4" height="0.5"/>
		</g>
	</g>
	<g>
		<g>
			<rect x="496.9" y="161.6" class="st3" width="5.4" height="0.5"/>
		</g>
	</g>
	<g>
		<g>
			<rect x="496.9" y="163.5" class="st3" width="5.4" height="0.5"/>
		</g>
	</g>
	<g>
		<g>
			<rect x="496.9" y="165.4" class="st3" width="5.4" height="0.5"/>
		</g>
	</g>
</g>
<g>
	<g>
		<path class="st3" d="M531.5,56.1l1.8-0.6c0.2-0.1,0.3-0.4,0.3-0.6l-0.6-2c-0.1-0.2-0.4-0.3-0.6-0.3l-1.8,0.6
			c-0.2-0.6-0.5-1-0.9-1.4l1.2-1.6c0.2-0.2,0.1-0.5-0.1-0.7l-1.7-1.3c-0.2-0.2-0.5-0.1-0.7,0.1l-1.2,1.6c-0.4-0.2-0.9-0.3-1.3-0.5
			l0.1-2c0-0.2-0.2-0.5-0.4-0.5l-2.1-0.1c-0.2-0.1-0.5,0.1-0.5,0.4l-0.1,2c-0.4,0-0.9,0.1-1.3,0.3l-1.1-1.7
			c-0.1-0.2-0.4-0.2-0.7-0.1l-1.7,1.1c-0.2,0.1-0.3,0.4-0.2,0.6l1.1,1.7c-0.3,0.3-0.7,0.7-0.9,1.1l-1.8-0.8
			c-0.2-0.1-0.5,0.1-0.6,0.3l-0.8,1.9c-0.1,0.3,0,0.5,0.2,0.6L517,55c-0.1,0.1-0.1,0.3-0.1,0.4c0,0.4-0.1,0.7,0,1l-2,0.5
			c-0.3,0.1-0.4,0.3-0.4,0.5l0.5,2.1c0.1,0.3,0.3,0.4,0.6,0.3l1.9-0.4c0.2,0.4,0.5,0.9,0.7,1.3l-1.3,1.5c-0.2,0.2-0.2,0.5,0,0.6
			l1.5,1.4c0.2,0.2,0.5,0.2,0.7,0l1.4-1.5c0.4,0.3,0.8,0.4,1.2,0.6l-0.3,2c0,0.2,0.2,0.5,0.4,0.5l2.1,0.3c0.3,0,0.5-0.1,0.5-0.4
			l0.3-2c0.6,0,1.2-0.2,1.8-0.5l0.9,1.7c0.1,0.2,0.4,0.3,0.6,0.2l1.9-0.9c0.2-0.1,0.3-0.4,0.2-0.6l-1-1.8c0.4-0.4,0.8-0.8,1.1-1.3
			l1.8,0.7c0.2,0.1,0.5,0,0.6-0.2l0.8-2c0.1-0.2,0-0.5-0.2-0.6l-1.8-0.8l0.1-0.2C531.5,57,531.5,56.5,531.5,56.1z M523.7,59.6
			c-1.7-0.2-2.9-1.8-2.7-3.5s1.8-2.9,3.5-2.7s2.9,1.8,2.7,3.5C527,58.7,525.4,59.9,523.7,59.6z"/>
	</g>
	<g>
		<path class="st3" d="M517.1,66.5l-2.2,0.7c-0.3-0.7-0.7-1.3-1.2-1.8l1.6-2c0.2-0.2,0.2-0.7-0.1-0.8l-2.1-1.6
			c-0.2-0.2-0.6-0.2-0.8,0.1l-1.5,2c-0.5-0.2-1-0.4-1.6-0.6l0.1-2.5c0-0.3-0.2-0.6-0.5-0.6l-2.6-0.1c-0.3-0.1-0.6,0.2-0.6,0.5
			l-0.1,2.5c-0.5,0-1.1,0.2-1.7,0.4l-1.4-2.2c-0.2-0.2-0.5-0.3-0.8-0.1l-2.2,1.4c-0.3,0.2-0.4,0.5-0.2,0.8l1.4,2.2
			c-0.4,0.4-0.8,0.9-1.1,1.3l-2.3-1c-0.3-0.1-0.6,0.1-0.8,0.3l-1,2.4c-0.2,0.3,0,0.6,0.3,0.8l2.4,0.9c-0.1,0.1-0.1,0.4-0.1,0.5
			c0,0.5-0.1,0.8,0,1.3l-2.5,0.6c-0.3,0.1-0.5,0.3-0.5,0.7l0.6,2.6c0.1,0.3,0.4,0.5,0.7,0.4l2.4-0.5c0.2,0.5,0.6,1.1,0.9,1.6
			l-1.7,1.8c-0.2,0.3-0.2,0.6,0,0.8l1.9,1.8c0.3,0.2,0.6,0.3,0.9,0l1.7-1.9c0.4,0.4,0.9,0.6,1.5,0.7l-0.4,2.5c0,0.3,0.2,0.6,0.5,0.6
			l2.6,0.4c0.4,0,0.6-0.1,0.7-0.5l0.4-2.5c0.8,0,1.5-0.2,2.3-0.6l1.1,2.2c0.1,0.3,0.5,0.4,0.7,0.2L514,81c0.3-0.2,0.4-0.5,0.2-0.8
			l-1.2-2.3c0.5-0.5,1-1,1.4-1.6l2.2,0.9c0.3,0.2,0.6,0,0.7-0.3l1-2.4c0.1-0.3,0-0.6-0.3-0.7l-2.2-1l0.1-0.3
			c0.1-0.6,0.1-1.2,0.1-1.8l2.3-0.7c0.3-0.1,0.4-0.4,0.3-0.7l-0.7-2.5C517.7,66.5,517.4,66.4,517.1,66.5z M510.7,71.8
			c-0.3,2.1-2.2,3.7-4.4,3.4c-2.1-0.3-3.6-2.2-3.3-4.4c0.3-2.1,2.2-3.6,4.4-3.4C509.5,67.7,511,69.7,510.7,71.8z"/>
	</g>
</g>
<g>
	<path class="st3" d="M520.6,172.4c-0.1-1.2-0.1-26,0.1-28.6c0-1.1,0.5-2.2,1-2.5s0.8-0.4,1.5-0.7c0-0.6,0.3-3.8,0.4-4.4
		c0-0.6,0.3-1,0.8-1.1c0.3,0,0.7,0,1,0c0-0.9,0-2.9,0-2.9c0-0.1-0.5-0.1-0.5-0.2c-0.1-0.1-0.1-2.1-0.2-2.9c0-0.6,0.1-0.6-0.5-0.8
		c-0.4-0.1-2.9-0.2-3.6-0.3c-0.5-0.1-0.4-0.2-0.4-0.3c0-0.1,0-0.7,0-0.9c0-0.2,0.3-0.2,0.8-0.1c0.5,0,3,0.1,3.3,0.2
		c0.2,0,0.1-0.3,0.3-0.3c0.2-0.1,1-0.2,2.3-0.2c1.1,0,2.1,0.2,2.5,0.2c0.4,0.1,0.2,0.7,0.2,1.4c-0.1,1-0.2,4-0.2,4l-0.4,0.2l0.1,2.8
		c0.4,0,0.9,0,1.2,0c0.5,0,0.8,0.5,0.8,1c0,0.6,0.4,3.8,0.4,4.4c0.6,0.3,1,0.4,1.5,0.7s1,1.5,1,2.5c0,1.1,0.5,27.3,0.4,28.6
		s-0.4,2-2.1,2.4c-1.1,0.3-3.5,0.3-4.6,0.3c-1.2,0-3.1,0.1-4.8-0.1C521.3,174.7,520.7,173.9,520.6,172.4z"/>
</g>
<g>
	<g>
		<rect x="12.8" y="177.1" class="st3" width="200.6" height="4"/>
	</g>
	<g>
		<path class="st3" d="M173.5,130.2v44.5c0,1.5,1.1,2.6,2.6,2.6h18.4c1.5,0,2.6-1.1,2.6-2.6v-44.5c0-1.5-1.1-2.6-2.6-2.6h-1.1
			l-3.2-4.6c-0.2-0.4-0.7-0.6-1.1-0.6h-2.6v-1.3c0.7,0,1.3-0.6,1.3-1.3v-3.9c0-0.7-0.6-1.3-1.3-1.3h-2.6c-0.7,0-1.3,0.6-1.3,1.3v3.9
			c0,0.7,0.6,1.3,1.3,1.3v1.3h-2.6c-0.4,0-0.9,0.2-1.1,0.6l-3.2,4.6h-0.9C174.6,127.6,173.5,128.7,173.5,130.2z M190.2,127.6h-10
			l1.7-2.6h3.3l0,0l0,0h3.2L190.2,127.6z"/>
	</g>
	<g>
		<path class="st3" d="M140.4,132.5c0-1.4,0.4-1.9,1.7-2.2c0.7-0.2,2.4-0.4,4.1-0.6c0-1,0-3.3,0-4c0-0.6,0.1-0.6,0.6-0.8
			c0.1-0.1,1-0.4,1.2-0.5c0-0.3,0-0.9,0.1-1.1c0.1-0.3,0.4-0.3,0.8-0.3c-0.7-0.1-1.8-0.9-2-1.5s-0.1-1.4,0.6-1.9
			c0.5-0.3,1.1-0.7,2.6-0.8c1-0.1,2.2,0,3.1,0.3c0.8,0.2,1.2,0.5,1.4,0.6c0.3,0.1,1.8-0.3,3.3-0.3c1.1,0,2.1,0.3,2.3,0.4
			s0.4,0.2,0.3,0.3c0,0.1-0.3,0.7-0.4,0.8c-0.1,0.2-0.1,0.4-0.4,0.3c-0.3-0.1-1.5-0.3-2.3-0.2c-1,0.1-2.6,0.4-2.7,0.6
			c-0.2,0.4-0.3,0.6-0.9,1c-0.4,0.2-0.9,0.4-1.1,0.4c0.2,0.1,0.5,0.2,0.7,0.4c0.1,0.3,0.1,0.8,0.2,1c0.4,0.2,0.9,0.4,1.3,0.6
			c0.5,0.2,0.4,0.5,0.5,0.9c0,0.3,0.1,2.7,0,3.8c2,0.3,3.7,0.6,4.2,0.8c0.9,0.3,1.2,0.9,1.2,2s0.2,41.5,0.1,42.6
			c-0.1,1.1-0.4,1.5-1.4,1.8s-3.8,1-8.8,0.9c-4.9,0-8-0.6-8.9-0.9c-0.9-0.3-1.1-0.3-1.3-2.7C140.3,171.9,140.4,133.9,140.4,132.5z"
			/>
	</g>
	<g>
		<path class="st3" d="M47.9,168H35.6l-6.1-10.6l6.1-10.6h12.3l6.1,10.6L47.9,168z M36.8,165.9h9.8l4.9-8.5l-4.9-8.5h-9.8l-4.9,8.5
			L36.8,165.9z"/>
	</g>
	<g>
		<path class="st3" d="M78.7,168H66.4l-6.1-10.6l6.1-10.6h12.3l6.1,10.6L78.7,168z M67.6,165.9h9.8l4.9-8.5l-4.9-8.5h-9.8l-4.9,8.5
			L67.6,165.9z"/>
	</g>
	<g>
		<path class="st3" d="M109.5,168H97.2L91,157.4l6.1-10.6h12.3l6.1,10.6L109.5,168z M98.4,165.9h9.9l4.9-8.5l-4.9-8.5h-9.9l-4.9,8.5
			L98.4,165.9z"/>
	</g>
	<g>
		<path class="st3" d="M47.9,139.6H35.6L29.5,129l6.1-10.6h12.3L54,129L47.9,139.6z M36.8,137.5h9.8l4.9-8.5l-4.9-8.5h-9.8l-4.9,8.5
			L36.8,137.5z"/>
	</g>
	<g>
		<path class="st3" d="M78.7,139.6H66.4L60.3,129l6.1-10.6h12.3l6.1,10.6L78.7,139.6z M67.6,137.5h9.8l4.9-8.5l-4.9-8.5h-9.8
			l-4.9,8.5L67.6,137.5z"/>
	</g>
	<g>
		<path class="st3" d="M109.5,139.6H97.2L91,128.9l6.1-10.6h12.3l6.1,10.6L109.5,139.6z M98.4,137.5h9.9l4.9-8.5l-4.9-8.5h-9.9
			l-4.9,8.5L98.4,137.5z"/>
	</g>
</g>
<g>
	<path class="st4" d="M30.3,374.9c11.4,0,16.9-6.9,20.1-11s-2.7-7.8-2.7-7.8l-14.4-0.7c-6.1,6-9.2,12.1-11.3,16.7
		C23.5,373.8,26.3,374.9,30.3,374.9z"/>
	<g>
		<path class="st5" d="M68.3,426.1c-0.1,5.7-0.1,5.6-6.2,5c-8.2-0.8-16.3-2.1-24.4-3.9c-7.8-1.7-13-5.9-15.9-13.4
			c-3.8-9.9-5.4-20.1-4.6-30.6c0.3-4,2-7.5,4.2-10.8c10.6,5.4,22.2,0.5,28.5-8.5c2.4-3.4,0.3-8-3.9-8.4c-2.6-0.2-5.1-0.2-7.7-0.3
			c-1.4,0-2.9,0.1-4.4-1.1c4.6-4.8,10.2-8.1,16-10.9c12.3-5.8,25.5-8.8,38.6-12.2c24.1-6.2,48.4-11.4,72.7-16.3
			c0.7-0.1,1.3-0.4,1.9-0.5c3.1,1,5.8,2.9,8.6,4.5c1.9,1.1,3.7,1.4,5.6-0.1c23.6-19.1,50.6-33,76.4-48.7c2-1.2,3-2.4,2.1-4.7
			c8.2-2.8,16.8-4.1,25.3-5.7c30-5.5,60.2-6.2,90.6-5.8c15.2,0.2,30.3,0.7,45.4,1.2c4.9,0.2,9.7,0.3,14.6,0.7c6,0.4,11.5,2.5,17,4.8
			c3,3.9,7.3,5.8,11.7,7.8c10.8,4.9,22,9,32.6,14.4c8.9,4.6,17.7,9.4,25.7,15.4c1.3,1,2.6,2,4.2,2.3c1.3,1.4,3.1,0.8,4.6,0.8
			c8.9,0.1,17.8,0.2,26.6,2.3c4,1,7.6,2.6,10.6,5.6c2.9,3,3.6,6.8,4,10.8c0.1,1.5-0.6,2.3-2.1,2.3c-0.5,0-1.1,0-1.6,0.1
			c-6.2,0.8-11,3-12.4,10c-1.2,5.8-3.2,11.4-2.3,17.5c0.6,3.8,2.2,5.3,5.8,5.5c2.2,0.1,4.3,0.1,6.5,0c5-0.3,6.5-1.2,9.2-5.8
			c0.5,1.6,0.9,2.9,1.2,4.2c0.8,3.5,2.2,6.6,4.3,9.5c2.9,4.1,5.2,8.5,5.8,13.7c0.4,3.5-0.4,6.4-3,8.8c-1.7,1.6-3.3,3.2-4.9,4.8
			c-3.2,3.2-5.1,6.8-4.5,11.6c0.6,4.6-2.4,7.6-5.5,10.2c-6.1,5.1-13.3,7.5-21,9.1c-7.7,1.6-15.6,1.5-23.4,2.5
			c-1.2,0.2-2.9-0.5-3.2,1.5c-2-0.4-1.8-2.2-2.1-3.5c-3.3-13-6.4-26-10-39c-0.6-2.4-1.1-4.7-0.5-7.2c3.2-13.4,4.5-27,2.7-40.7
			c-0.1-1.5-0.2-3-0.7-4.4c-5.1-13.2-11.3-25.7-19.7-37.1c-9.4-12.8-22.3-18.3-37.7-19c-6.5-0.3-12.9,0.4-19.4,0.6
			c-2.1-0.6-4-1.4-5.5-3.1c-2.3-4.6-6.4-7.2-11-9.1c-3.5-1.4-7.1-1-10.4,1.1c-1.2,0.8-2.4,1.8-3.9,2.1c-7.3,0.3-14.6,0.5-21.9-0.3
			c-7.8-0.9-15.7,0.3-23.5-0.8c-2.6-0.4-2.9,2-3.3,3.8c-2.7,12.2-5.4,24.3-8.1,36.5c-1.6,7.3-3.1,14.6-4.8,20.9
			c0.3-1.6,1.4-3.6,4.1-4.2c6-0.9,11.7-3.3,17.6-4.5c1.6-0.3,3.2-0.7,4.8-0.9c1.7-0.2,3.3,0.2,3.4,2.5c-1.2,3.6-1.5,7.4-1.5,11.2
			c0.1,11.2,0,22.4,0.1,33.6c0,3.3-0.9,6-3.5,8.2c-4.1,3.5-5.9,8.3-6.8,13.5c-1.5,8-1.2,16.1-1.1,24.2c0,4.2,3.4,4.7,6.2,5.8
			c2.5-0.2,3.5-1.7,3.6-4c0-1.1,0-2.2,0.2-3.2c0.4-3.3,1.8-4.5,5.1-4.2c9.4,0.9,18.8,0.9,28.2,1.9c3.6,0.4,4.4-1.8,5-4.5
			c2.2-10.2,6.2-19.5,12.7-27.7c3.1-3.9,6.6-7.5,11.7-8.8c4.4,1.3,7.2,4.2,8.7,8.4c-0.2,0.8-0.8,1.4-1.5,1.9
			c-13.4,9.8-17.5,24.1-18.9,39.6c-0.3,2.9-1.1,5.9-0.7,8.9c0,4.4-0.3,4.8-4.8,4.9c-15.4,0.3-30.9,0.1-46.3,0.1
			c-11,0.1-21.9-0.2-32.9,0.1c-10.1-0.2-20.1-0.5-30.2,0c-5.2-0.3-10.4-0.2-15.7-0.2c-4.1,0.1-8.2,0-12.3,0c-33.2,0.1-66.5,0-99.7,0
			c-2.3,0-5,0.5-6.4-2.3c-1-11.7-3.9-22.9-9.5-33.3c-9.2-17-23.6-25.7-42.7-26.4c-17-0.6-33.5,10.7-40.2,26.7
			c-3.4,8.1-5.2,16.4-5.1,25.2C69.4,421.4,70,423.9,68.3,426.1z"/>
		<path class="st6" d="M521.1,436.7c18,0,36-0.1,54,0c12.1,0,21.8,9.8,21.6,21.7c-0.3,13.5-11.3,21.4-21.9,21.4
			c-122.2-0.1-244.3-0.1-366.5,0c-1.4,0-2.8-0.2-4,0.1c-3.3,0.9-5.3,3.1-5.9,6.5c-0.5,2.5-1,5.1-3.1,6.9c-2,1.7-3.6,1.6-5.2-0.4
			c-0.8-0.9-1.3-2-2.1-3c-2.8-3.9-6.7-3.5-8.8,0.8c-1.3,2.6-1.2,5.5-1.8,8.3c-0.7,3.3-1.9,6.2-4,8.7c-4.8,5.9-13.5,4.8-16.6-2.2
			c-1.2-2.7-2-5.6-2.9-8.4c-0.7-2.2-1.9-4-4.4-4.2c-2.8-0.2-4,1.9-5,4c-1.3,2.7-1.5,5.7-2.1,8.6c-0.4,2-0.8,4-1.6,5.8
			c-2,4.6-7,5.9-11,2.7c-2.4-1.9-3.7-4.5-4.6-7.5c-1.3-4.6-1.5-9.3-2.3-13.9c-0.4-2-1-3.9-2.2-5.6c-2.7-3.7-7.5-3.3-9.5,0.8
			c-1.1,2.2-1.8,4.5-2,7c-0.6,7.4-1.1,14.8-1.7,22.2c-0.3,4.2-1,8.3-3.1,12.1c-3,5.4-9.3,8.1-14,5.9c-4.2-2-5.7-6.1-6.4-10.3
			c-1.4-8.2-2.3-16.6-2.6-24.9c-0.1-3.5-0.5-7-1.5-10.4c-0.3-1.2-0.8-2.3-1.4-3.4c-2.1-3.6-5.1-3.9-7.8-0.8c-4.1,4.6-5.6,4.8-10,0.2
			c-3.8-3.9-8.2-5.8-13.7-5.7c-7.3,0.2-14.6,0.1-21.9,0c-11.9,0-21.4-9.4-21.5-21.3c-0.1-11.7,9.4-21.6,21.2-21.7
			c18.1-0.2,36.3-0.1,54.4-0.1c1.7-0.2,2.4,1.2,3.1,2.2c15.3,21.2,48.7,24.3,67.8,0.3c1.2-1.5,2.3-3.1,4.3-3.5
			c1.9-0.4,3.8-0.3,5.7-0.3c31.6,0,63.2,0,94.8,0c1.9,0,3.8-0.1,5.6,0.3c1.7,0.5,2.2,1.3,0.9,2.9c-2.1,2.6-0.6,3.7,1.9,4.5
			c5.2,1.6,10.1,0.2,14.9-1.8c2.2-1,4.2-2.1,6.9-0.8c1.6,0.8,3.2-0.1,3.5-2.2c0.1-1.1,0.2-2.2,1.5-2.5c9.6-0.6,19.1-0.7,28.6,0
			c2.6,1.4,1,2.9,0.1,4.3c-1.5,2.1-3.9,2.7-6.3,3.3c-0.9,0.2-2.1,0.4-2.1,1.5c-0.1,1.2,1.1,1.4,2,1.7c5.7,1.9,11.1,0.3,14-4.7
			c2.4-4.1,5.3-6.6,10.2-6.3c21-0.4,42.1-0.1,63.1-0.1c1.1,0,2.2,0.1,3.2,0.5c1.1,0.6,1.2,1.4,0.5,2.3c-2.3,1.6-5.1,1.6-7.7,1.9
			c-1.9,0.2-3.8,0.3-5.6,0.9c-2.3,0.7-4.3,1.4-2.5,4.4c0.8,1.4-0.1,2.6-0.9,3.7c-1.7,2.3-2.2,4.9-2.2,8.2c5.5-4.9,11.3-6.7,17.4-2.1
			c4.9,3.7,5.7,8.2,3.2,15.7c8,0.8,15.9,1.4,22.5-4.4c2.7-1.7,5.9-1.7,8.6-3.3c3.3-1.9,6.2-4.2,8.8-7c1.3-1.3,2.5-2.9,4.7-2.7
			c8.5,2.7,17.1,3.4,25.9,1.1c1.2-0.3,2.4-0.6,3.6-0.2c1.9,4.1,1.3,6.1-2.4,7.9c-3.5,1.6-7.1,2.6-10.9,3.2c-1.2,0.2-2.4,0.2-3.6,0.6
			c-0.9,0.3-2.1,0.5-2.2,1.6c-0.1,1.2,1.1,1.4,2,1.6c5.7,1.5,11.4,2.4,17.1,0c2.4-1,4.7-1.6,7.3,0c2.1,1.3,4-0.4,3.6-3.5
			c-0.7-5,0.7-10,0.4-15c-0.1-1.2,0.2-2.4,1-3.5c4.1-3.4,6.3-8.6,10.9-11.4c1.1-0.2,2.1-0.2,3.1,0.1c1.6,0.7,2.3,2.3,2.9,3.7
			c2.1,4.8,4.2,9.7,6.5,14.5c1.9,4.1,1.3,5.7-2.7,7.9c-3.1,1.7-6.4,2.9-9.9,3.7c-1.5,0.4-3.3,0.4-4.3,1.9c0.2,1.5,1.5,1.5,2.5,1.6
			c5.9,0.5,11.9,1.1,17.4-2.1c1.8-1,3.6-1.5,5.8-0.7c3.3,1.2,4.6-0.2,3.5-3.6c-2.1-6.6-3.8-13.3-5.4-20c-0.3-1.1-0.6-2.1-0.7-3.2
			C520.3,438.7,520.1,437.6,521.1,436.7z"/>
		<path class="st7" d="M491.8,447.2c-0.6,0.9-1,1.9-0.8,3.1c0.6,5.5-1.2,10.9,0,16.5c0.5,2.6-2,4.9-4.6,4.7c-0.5,0-0.8-0.2-0.9-0.6
			c-1.2-3.2-3.4-1.9-5.2-1c-6.9,3.3-13.7,1.9-20.5-0.1c-1-0.3-2.3-0.6-2.4-1.9c0-1.4,1.2-2,2.4-2.4c1.3-0.4,2.6-0.9,3.9-1
			c3.6-0.1,6.9-1.2,10.2-2.3c5.2-1.9,5.2-1.8,5-7.4c-2.4-2.5-1.9-5.8-2.6-8.8c-0.5-2.2-0.8-4.5-1-6.8c-2.1-17.6-5-35-7.2-52.6
			c-0.8-5.9-0.1-12.1-2.4-17.8c2.5-4.1,1.3-8.5,1.3-12.9c0.3-2.1,2-2.7,3.6-3.5c11.4-5.7,22.8-11.5,34.3-17.2
			c1.3-0.6,2.5-1.7,4.1-0.8c0.9,5.1,0.9,10.2,0.8,15.3c-0.1,8.2-1,16.3-3.2,24.2c-1.3,4.6,0.3,8.7,1.4,12.9c3,11.8,6,23.6,9,35.4
			c0.3,1-0.4,2.2,0.7,3c1.4,3.8,1.6,7.9,3.4,11.6c1.5,8.2,3.7,16.3,6.1,24.2c0.4,1.2,0.8,2.3,1.1,3.5c0.4,1.5,0.4,3-1.5,3.6
			c-1.4,0.5-2.8,2-4.1-0.2c-1.2-2-3-0.6-3.9,0c-5.2,3.4-11,3.2-16.8,3.1c-1.8,0-3.4-0.7-5.2-0.9c-0.8-0.1-1.6-0.6-1.8-1.4
			c-0.3-1.2,0.7-1.6,1.5-2.1c1.7-1.1,3.8-1.5,5.7-1.9c3.8-0.6,7.1-2.5,10.4-4.2c1.6-0.8,2.4-1.9,1.6-3.5c-3.3-6.6-5.8-13.6-9.4-20.1
			c-1.1-0.8-1.8-2-2.3-3.3c-1.5-3.9-3.5-7.7-5.1-11.6c-2.1-3.4-2.6-7.6-5.3-10.7c-0.2,3-0.3,5.9,0.4,8.8c0.1,0.7,0.1,1.3,0,2
			c-0.6,6.6-0.2,13.2-0.3,19.7C492.3,443.5,492.3,445.4,491.8,447.2z"/>
		<path class="st8" d="M68.3,426.1c-0.8-11.1,0.3-21.9,4.9-32.1c6.8-15.3,18.1-25,35-27.4c20.6-2.9,39,7.2,48.6,23.7
			c6.3,10.7,10.1,22.3,10.7,34.9c-3.3,2.1-7.2,0.7-10.6,2c-3.5-1.1-7.1-0.7-10.6-0.8c-1.4,0-2.9,0-4.3-0.6c-1.7-1.6-0.5-3.3-0.1-4.9
			c2.6-10.7,0-20-8.1-27.2c-8.6-7.6-18.8-8.5-29.2-4c-10.6,4.7-18.4,18.1-14.1,32c0.5,1.6,2.2,3.4-0.2,5c-5.2,0.5-10.5,1.5-15.6-0.7
			C72.6,426.1,70.5,426.1,68.3,426.1z"/>
		<path class="st9" d="M74.7,426.1c5.4,0,10.8,0,16.2-0.1c1.6,0.2,2,1.6,2.8,2.7c11.6,16,33.7,15.8,45-0.4c0.8-1.2,1.3-2.8,3-3.1
			c4.1,0,8.3,0,12.4,0c1.3,0,2.8-0.2,3,1.8c1,4.1-1.1,7-4,9.5c-6.1,9-14.1,15.6-24.7,18.7c-17.7,5.2-36.2-1-47.2-15.9
			c-0.7-1-1.5-1.9-2.2-2.8C77.6,433.1,75.3,429.9,74.7,426.1z"/>
		<path class="st8" d="M256,265.2c0.8,0.9,1.5,1.9,2.4,3c-6.6,3.9-13.1,7.7-19.5,11.6c-14.3,8.6-28.7,17.1-42.8,26.1
			c-6.5,4.1-12.4,9.1-18.4,13.9c-1.8,1.5-3.2,1.6-5,0.4c-3.1-2.1-6.9-3.1-9.4-6c26.8-16.3,53.8-32.4,82.6-45.2
			C249.2,267.5,252.4,265.8,256,265.2z"/>
		<path class="st10" d="M523.1,300.2c-1.1,1.3-2,0.8-3.1-0.1c-16.2-12.7-34.9-20.7-53.7-28.5c-5.1-2.1-10.2-4.3-14.9-7.2
			c-1.5-1-3.1-1.8-2.5-4.1c2.1-0.4,4,0.3,5.9,0.9c22,7.6,42.4,18.2,61.1,31.9C518.6,295.1,521.7,296.8,523.1,300.2z"/>
		<path class="st0" d="M200.9,320.5c2.1-3.4,5.2-5.8,8.1-8.4c7.5-6.9,15.2-13.4,23.2-19.6c15.6-12.3,33.5-19.6,52.7-23.6
			c6.4-1.3,13.1-1.4,19.7-2c10.9-1,21.8-1.8,32.7-2.9c2.5-0.3,2.7,0.3,2.3,2.5c-3.4,16-6.6,32-9.9,48c-0.7,3.3-1.4,6.6-2.1,9.9
			c-0.4,0.4-0.8,0.4-1.1,0c-1.4-5.5-1.3-11,0-16.4c0.8-3.4,0.8-6.4-0.8-9.4c-0.2-0.4-0.3-0.8-0.5-1.2c-0.4-1.7-1.2-3.1-3.2-3.1
			c-1.8,0-3,1.1-3.8,2.6c-1.5,2.6-1.8,5.4-1.6,8.2c0.5,5.7-1.4,10.4-5.8,14c-2.8,2.3-3.8,5.8-6.1,8.5c-0.6,0.3-1.3,0.4-2,0.2
			c-6.3-2.2-12.7-3.1-19.3-2.5c-2.2-3.3-3.5-7.1-6.6-9.9c-2.6-2.3-5.3-3.3-8.5-1.9c-3.7,1.7-7.5,3.1-11.6,3.5
			c-2.2,0.3-3.7,1.7-3.9,4c-0.2,2.2,1.7,2.4,3.3,2.9c2,0.7,3.5,2.3,3.6,4c0.2,3.4,3.2,4.9,4.3,7.5c1,2.2,3.4,0.2,4.6,1.5
			c-0.8,8.6,3.2,15.6,7.4,22.5c-1.3,2.8-3.1,0.8-4.3,0.1c-4.4-2.3-8.7-4.9-13.3-6.7c-1.1-0.6-2-1.4-2.7-2.4
			c-3.4-4.3-8.1-5.4-13.3-5.5c-3.1-1.3-4.9-3.9-7-6.4c0-0.4,0.1-0.8,0.3-1.1c2.6-1.7,5.2-3.4,8.1-4.5c2.6-0.9,4.4-0.3,5.7,2.2
			c1.2,2.4,2.3,4.9,3.9,7.1c0.5,0.6,1,1.4,2,1.1c1-0.3,0.9-1.3,0.7-2.1c-3.1-11.2-7.2-21.8-14.9-30.8c-0.2-0.2-0.5-0.2-1,0
			c-0.2,2.8,1.3,5.3,2.2,7.9c0.6,1.7,1.2,3.4,0,5c-1.3,1.8-3,3.4-5.3,3.3c-2.9-0.2-1.9-3.1-2.9-4.7c-2.3-5.1-5.9-6.9-11.3-5.6
			c-6,1.4-12.1,3-18.1,4.4C203.4,320.9,202.1,321.6,200.9,320.5z"/>
		<path class="st11" d="M508.9,334.3c-14,6.7-27.8,13.5-41.6,20.7c-2.4,2.8-3.6,0.9-3.9-1.3c-1-6.5-2.7-12.9-3.9-19.5
			c-1.2,2.7-3.1,4.7-5.6,6.3c-7.1,4.4-14.3,8.7-21.4,13c-1.6,0.8-3,1.8-4.6,2.7c-1.4,0.7-2.7,0.7-3.9-0.5c-1.2-2.3-4.3-3.5-4.2-6.7
			c2.9-4.2,7.1-7.4,10.5-11.1c1.1-1.1,2.4-1.9,3.5-2.9c2.4-2.2,4.5-4.7,6.9-6.8c2.2-2,2.8-4,1.7-6.8c-2.2-5.5-4.1-11.1-6.3-16.7
			c-1.8-4.5-5.7-7.8-7.6-12.4c-0.5-1.4-1.6-2.5-1.5-4.1c0.2-3.4,1-6.7,1.1-10c0.1-1.5,0.4-3,1.8-3.9c5.4-0.6,10.7-1.2,16.2-1.1
			c11.4,0.2,22.3,2,31.8,9c6.4,4.8,11.1,11.1,15.3,17.7c6.2,9.7,11,20.1,15.1,30.9C508.8,332,509.2,333.1,508.9,334.3z"/>
		<path class="st0" d="M342,322.8c-1.7,0.5-2.8,1.5-3,3.4c-0.2,2.1-1.3,3.8-2.9,5.7c-0.7-2.1,0.3-3.7,0.6-5.2
			c4.3-19.9,8.8-39.7,13.2-59.6c0.8-3.6,1-3.6,4.5-3.4c15.1,0.9,30.2,1.3,45.3,1.7c0.6,1.8-0.7,3.1-1.4,4.4
			c-1.8,3.6-2.7,7.4-2.9,11.3c-0.4,6.5,2.4,8.6,8.3,6.6c1,0.1,1.8,0.7,2.4,1.3c4,3.9,7.7,3.6,11-0.9c2.2-2.9,3.8-3.2,7.1-1.2
			c1.2,2.2,2.7,4.3,1.8,7.1c-2.7,2.9-3.5,6.4-3.2,10.2c0.5,6.1-1.6,11.1-6.1,15.2c-2.7,2.5-4.3,5.5-4.6,9.2
			c-0.1,1.1-0.3,2.2-1.2,2.9c-1.6,0.9-3.4,0.7-5.1,0.7c-8.5,0-17,0.1-25.5,0c-5.2,0-5.8-0.6-6.1-5.7c-0.3-4.4-1.3-8.3-6.1-10
			c-1.2-0.4-2.4-0.7-3.5-0.4C357.2,318.2,349.3,319.5,342,322.8z"/>
		<path class="st8" d="M342,322.8c1.2-1.6,2.8-2.5,4.6-3c5.8-1.6,11.7-3.4,17.5-4.9c1.5-0.4,3-1.2,4.6,0c2.7,1.9,6.5,2.6,6.2,7.1
			c-0.1,1.9,0.3,3.8,0.2,5.7c-0.2,2.6,0.8,3.2,3.3,3.1c11-0.1,21.9,0,32.9,0c1.3-0.2,1.6,0.8,2,1.6c0.6,1.3,1,2.8,1.5,4.2
			c3.1,9.4,2.4,11.8-5.5,18.3c-1.3,0.6-2.6,0.3-3.8,0.1c-1.6-0.2-3.1-0.1-4.1,1.5c-4.9,2.9-9,6.5-12.4,11.2c-2.1,3-5.5,4.7-9.6,2.9
			c-1.3-0.6-2.8-1.3-3.9,0.5c-0.5,2.6-1.5,4.8-3.5,6.7c-3.7,3.4-4.3,8-4,12.7c0.1,1.8,1.2,2.6,2.9,2.7c9.6,1,18.8,5.2,28.8,4.3
			c1.9-0.2,4.9-0.2,4.6,3.4c-1.4,7.8,0,6.9-7.8,6c-0.9-0.1-1.9-0.3-2.8-0.3c-8.1-0.1-16.2-0.7-24.2-1.5c-2.8-0.3-3.2,0.2-3.3,3.1
			c0,0.8,0,1.6,0,2.4c-0.1,4.9,1.2,4.7-5,6.5c-1.4-1.7-1.3-3.8-1.3-5.8c0-8.3,0.1-16.5-0.1-24.8c-0.1-4.4,0.9-8.4,3.7-11.7
			c4.3-5.1,5.3-11.2,5.2-17.5c0-12.8,0.6-25.7-1-38.5c-1-1.5-2.2-1.5-3.8-1.1c-5.9,1.1-11.7,2.9-17.5,4.5
			C344.9,322.6,343.5,323,342,322.8z"/>
		<path class="st8" d="M235.9,337.6c0,0.3-0.1,0.5-0.2,0.8c0,1.7,1.3,3,1.2,4.7c0.1,1.8,0.2,3.6,0.1,5.4c0.3,7.1-0.2,14.1,0.4,21.2
			c-0.3,4.6-0.5,9.2-0.4,13.8c0.2,5.9,1.7,7.7,7.6,8.5c3.7,0.6,7.6,1,11.3,1c6.4,0,12.7,1,18.8,2.7c8.6,2.3,17.5,1.4,26.2,2.6
			c4.8,0.6,11.5-4.4,13.2-8.9c1.3-3.6,2.4-7.2,3-10.9c2.7-16.3,5.7-32.6,8.2-48.9c0.3-1.8,0.1-3.8,1.7-5.3c0.2,0,0.4,0.1,0.7,0
			c2.9,3.1,1,6.8,0.6,10c-1,9.8-2.4,19.5-3.8,29.2c-1.6,11-3,22.1-5.6,33c-1.3,5.4-4.9,8.6-10.1,10c-5.6,1.5-11.3,1.1-16.9,0.7
			c-2.3-0.2-4.6-0.3-6.8-0.5c-12.5-0.6-25.1-1.1-37.6-1.9c-2.9-0.2-5.9-0.5-8.9-0.7c-2-0.1-2.6,0.7-2.6,2.6c0.1,2.6,0,5.1,0,7.7
			c0,1.6-0.2,3-1.8,3.8c-2.9-1.8-2.7-4.8-2.8-7.5c-0.3-5.3-0.2-10.6-0.1-15.8c0.4-21.9-1.4-43.8-0.8-65.8c0.1-4.2-1.8-7.5-3.7-11
			c-2.8-1.8-5.5-0.1-8.1,0.5c-6.9,1.4-13.8,2.9-20.8,5c0.5-1.8,2.6-1.6,3-3.1c8-1.9,16-3.9,24-5.8c1.3-0.3,2.6-0.9,3.9,0.2
			c2.3,2.2,6.8,2.4,6.4,7.1c-0.1,3.6,2.4,6.7,2,10.4C236.9,334.1,237.1,336,235.9,337.6z"/>
		<path class="st12" d="M226.8,318.1c4.1,2,4.9,5.7,4.9,9.8c0,9.9-0.4,19.8,0.2,29.6c1,17.9,0.5,35.9,0.8,53.8
			c0,2.3,0.3,4.8,1.5,6.9c-5.3-0.8-5.3-0.8-7.3-4.9c-0.6-1.2-0.9-2.6-2.2-3.3c-4.7-2.3-5.8-6.7-5.9-11.2c-0.1-8.6-1.7-17.2-0.9-25.9
			c0.8-8.6,0.3-17.3,0.9-25.9c0.3-4.9,0.5-9.9,1.5-14.8c0.1-0.5,0.2-1.1,0.5-1.5C224,327.1,225,322.4,226.8,318.1z"/>
		<path class="st13" d="M404.2,400.9c-0.5-2.5-2.9-2.5-4.5-2.4c-9.1,0.8-17.5-2-26.1-3.9c-0.5-0.1-1.1-0.2-1.6-0.2
			c-5.3-0.4-5.3-0.4-5.3-5.9c0-4.9,1-9.3,5.4-12.3c2.1-1.5,1.5-4.1,2.5-6.1c6.1,2.9,12.6,4.6,18.9,7.1c1.7,0.7,3.4,1.1,4.6-0.9
			c1.3-1.6,0.7-3.6,1-5.4c0.2-1.3-0.3-3.1,1.9-3.2c1.9,2.7,0.4,5.5,0.1,8.4c0.9-4.2,0.9-8.7,4.8-11.5c3.3,0.1,5.9-1.4,8.5-3.3
			c1.3-1,3.1-1.3,4.9-1.4c3.2,1.4,7,2,8.4,6c-6.5,2.5-10.6,7.5-14.3,13.1C409,385.6,406.2,393.1,404.2,400.9z"/>
		<path class="st8" d="M414,422.9c0.4-8.7,1-17.5,4.1-25.8c3.5-9.6,8.5-18.3,17.7-23.8c1.2-0.5,1.7,0.5,2.3,1.1
			c3.8,4.4,6.9,9.3,9.2,14.7c0.4,1,0.7,2,0.2,3.1c-2.1,3-5,5.4-6.7,8.6c-2.8,5.3-3.6,11-3,16.9c0.2,1.6,0.9,3.2-0.5,4.6
			c-1.7,1-3.6,0.8-5.4,0.7c-3.1-0.1-6.1,0.4-8.9,1.6C420,423.8,416.7,424.6,414,422.9z"/>
		<path class="st14" d="M403.1,436.7c6.2-8.5,11.8-9.8,21.7-4.9c2.1,0.7,2.6,2.4,2.9,4.4c0,1.9,0,3.8-0.7,5.6
			c-0.5,1.2-1.2,2.2-2.6,1.9c-1.4-0.2-2-1.2-2.1-2.6c0-1.3,0.2-2.7-0.2-4c-1.9-4-4.8-5.1-9.2-3.5c-2,0.7-3.5,2-4.8,3.5
			c-0.9,1-1.4,2.2-1.8,3.4c-3.2,10.6,4.1,21.1,15.3,21.9c2.7,0.2,5.4,0.2,8.1-0.5c6.2-1.4,11-4.9,14.6-10.1c3.3-4.3,5.8-9,6.7-14.4
			c3.8-13.9,2.4-27.5-2.5-40.9c-0.5-1.5-1.4-2.9-1.1-4.7c-2.5-7-6.6-13-11.5-18.5c-2.3-2.9-4.6-5.8-8-7.5c-2.2-2.7-5.6-3.6-8.3-5.5
			c-0.9-1.5,0-2.3,1.3-2.9c2.6-0.2,4.4,1.5,6.4,2.7c1.1,0.8,2.2,1.5,3.3,2.2c3.3,2.8,6.2,6.1,9.3,9.1c4.9,5.6,8.4,12,11.7,18.6
			c7.1,16,9.2,32.4,4.7,49.5c-1.2,3.8-2.6,7.5-4.6,11c-0.8,1.3-1.3,3-3.2,3.3c-2.6,2.7-5,5.6-8.1,7.8c-3.9,2.8-8.2,4.5-12.9,5.3
			c-7.2,2.6-13.4,0.1-18.8-4.2c-6.6-5.2-10-12.2-8.2-21c0.3-1.3,0.7-2.6,1.9-3.4C402.6,437.7,402.8,437.2,403.1,436.7z"/>
		<path class="st15" d="M367.7,318.8c1.6,0.7,1.3,2.1,1.5,3.4c1.2,8.6,0.6,17.3,0.7,25.9c0.1,6.1,0.2,12.1-0.8,18.2
			c-0.3,2-0.8,3.9-2.1,5.6c-1.5,1.8-2.8,3.7-3.9,5.6c-1.1,1.8-2.1,3.7-2.1,6c0.1,11.2,0.1,22.4,0.1,33.7c-6.4-1.4-8-5.4-7.5-11.7
			c0.6-7.5,0.1-15,1.8-22.4c1.2-5,3.3-9.5,7.4-12.6c2-1.5,2.4-3.2,2.3-5.5c-0.1-12.7,0-25.4-0.1-38.1c0-2.5,0.9-4.7,1-7.2
			C366.1,318.9,367,318.8,367.7,318.8z"/>
		<path class="st16" d="M403.8,287.8c-4.2,4.7-8.2,1.7-8.9-3.2c-1.1-7.2,1-13.5,4.9-19.4c3.2-2.7,6.6-4.8,11.2-4.3
			c5.3,0.6,12.9,5.9,14.5,10.7c-1.9,2.9-4.3,1.8-6.6,0.7c-1-0.5-1.6-1.8-3-1.9c0,6.7-1.6,7.6-8.1,4.3c-0.3,2.7-0.6,5.3-1.2,7.9
			C406.1,284.7,406,286.8,403.8,287.8z"/>
		<path class="st17" d="M403.8,287.8c2.2-4.6,2.6-9.6,2.8-14.9c2.8,1.7,5.4,3.9,8.8,2.1c0.4-1.3-0.8-1.9-1.2-2.8
			c-0.6-1.3-0.5-2.4,0.7-3.2c1.4-1,2.2,0,3,0.9c2.6,3,3.6,3.2,7.6,1.7c1.5,0.9,3,1.7,4.6,2.6c-1.2,4.8-0.4,9.8-2.3,14.5
			c-1.8,0.9-2.6-0.8-3.8-1.5c-3.5-1.4-4.2-1.2-5.9,1.5c-0.6,1-1.2,2.1-1.9,3.1c-1,1.5-2.6,2.3-4,0.9c-1.9-1.9-2.8-0.4-4.1,1.1
			C406.7,291.4,405.8,289.2,403.8,287.8z"/>
		<path class="st16" d="M330.7,428.3c0.7,0.5,1.5,1.1,2.2,1.6c3.6,2.8,3.6,2.8,1.9,6.7c-0.4,0.3-1,1-1.3,0.8
			c-3.1-1.2-4.2,0.9-5.3,3.1c-0.2,0.4-0.4,0.7-0.6,1c-4.1,6.7-9.4,8.5-16.9,5.9c-1.5-0.5-3-1-2.8-2.9c0.2-1.6,1.8-1.9,3.1-2.1
			c3.7-0.4,6.9-1.3,8.1-5.4c0-0.1,0-0.3,0-0.4c-0.3-2.5-1.3-3.9-4.2-4.1c-3.7-0.3-7.4-1.5-11-2.5c-1.2-0.3-2.8-0.3-3.3-1.9
			c2.5-0.9,5.1-0.4,7.6-0.4c6-0.1,12.1,0,18.1,0C327.8,427.7,329.3,427.5,330.7,428.3z"/>
		<path class="st18" d="M261.8,436.8c1.5,0,3-0.2,4.4,0c4,0.6,6.1-2.2,8.1-4.7c1.3-1.6-0.8-2.8-1-4.3c4.1,0,8.1,0,12.2,0
			c2.5,2.4,3.5,5.4,3.3,8.9c0.1,1.4,2.1,3-0.4,4c-1.6,0.6-3.1,3.3-5,0.3c-0.8-1.3-1.9-0.4-2.8,0c-2.4,1.1-4.8,2.3-7.5,3
			c-3.3,0.9-6.6,0.8-10,0.1c-1.9-0.4-3.9-0.6-4.5-2.8C258.1,438.8,260.1,437.8,261.8,436.8z"/>
		<path class="st19" d="M195.9,413.4c-3.5-3.5-5.1-7-6.5-10.7c-4-10.3-6.4-20.9-7-31.9c-0.2-4.5,0.3-9.2,0.7-13.7
			c0.4-5.1,1-10.2,2.3-15.2c1.1-3.8,2.5-7.5,6.7-10.3c-2.5,4.2-4.3,7.8-5.1,11.9c-1.6,9-2.9,18-1.9,27.3c0.5,5.2,0.7,10.5,1.9,15.6
			c1.4,6.2,2.4,12.6,8.1,16.6c0.7,0.5,0.8,1.4,0.8,2.2C195.9,407.7,195.9,410.2,195.9,413.4z"/>
		<path class="st20" d="M340.2,413.4c-3-2.7-4.1-5.7-5.1-8.7c-5.2-14.4-7.7-29.3-6.4-44.6c0.6-7,0.7-14,3-20.7
			c0.6-1.7,0.9-3.7,2.7-4.9c1,1,0,1.7-0.3,2.5c-2,6.2-2.8,12.6-3.4,19.1c-0.9,10.9,0,21.5,1.8,32.2c0.9,5.3,2.2,10.6,6.3,14.6
			c0.3,0.3,0.7,0.6,0.7,0.9C339.8,406.7,340.5,409.7,340.2,413.4z"/>
		<path class="st16" d="M402.3,438.3c-5.3,16,7.2,28.3,21,28.5c1.3,0,2.7,0,4,0c-3.3,4.2-8,5.3-12.9,5.4c-4,0.1-8-0.8-12.3,0.1
			c2.7-3.4,3.5-7.1,2.5-11c-0.6-2.7-2.5-4.8-4.8-6.3c-5-3.3-10.6-1.6-16.5,5.2c-0.1-4.7-1-9.1,2.8-12.6c0.9-0.8,1-1.6-0.3-2.6
			c-2.1-1.6-1.8-2.9,0.6-4.1c1.1-0.5,2.3-0.8,3.5-1.1C394,439,398.2,438.6,402.3,438.3z"/>
		<path class="st9" d="M448.3,453.8c2.8-4.3,4.9-9,6.7-13.8c2.9-0.7,5.8,0.3,8.7,0.5c4.3,0.3,8.3-1.9,12.6-1.5
			c0.8,5.2,1.6,10.4,2.5,15.6c-8.9,3-17.8,3.2-26.9,0.7C450.7,455,449.4,454.7,448.3,453.8z"/>
		<path class="st21" d="M394,454.6c5.3,0,10,4.8,9.9,9.9c-0.2,4.9-4.6,9.3-9.5,9.4c-5,0.1-9.7-4.5-9.8-9.5
			C384.5,459.4,389.2,454.6,394,454.6z"/>
		<path class="st9" d="M498.3,421.2c1.7,4,4,7.6,5,11.9c0.1,1.5-0.4,2.7-1.8,3.4c-3,3.7-5.6,7.8-9.6,10.7c-0.9-0.5-0.8-1.3-0.8-2.1
			c0-7.4,0-14.8,0-22.2c0-0.7,0.1-1.3,0.7-1.8C494,419.6,496.1,419.8,498.3,421.2z"/>
		<path class="st22" d="M476.4,439c-7,3-14.1,3.7-21.3,1c0.6-4.5,1.5-9,2.1-13.5c0.7-5.1-0.2-9.9-0.6-14.8c-0.7-7.7-3.6-14.8-6.2-22
			c0.7-2.1,2.6-2.6,4.3-3.1c4.7-1.3,9.5-2.6,14.3-0.2c1.1,7.1,2.2,14.1,3.2,21.2c1.4,9.7,2.7,19.5,4.1,29.2
			C476.4,437.4,476.4,438.2,476.4,439z"/>
		<path class="st5" d="M439,371.7c-3-2.9-6-5.9-9-8.8c-1.3-3.5-0.2-6.7,1.5-9.7c6.1-3.8,12.1-7.6,18.3-11.2c3.9-2.3,7.6-4.7,9.9-9.4
			c2.3,7.2,3.8,13.9,4.5,20.8c0.2,2.4,1.2,2.7,3.1,1.8c1.7,3.9,0.7,8,0.8,12c0.1,1.6-1.5,1.2-2.4,1.4c-1.1,1-2.4,1.1-3.8,1.1
			c-7-0.1-13.9-0.1-20.6,2.3C440.6,372.1,439.8,371.9,439,371.7z"/>
		<path class="st8" d="M439,371.7c6.3-3,13-3.8,19.9-3.4c2.3,0.1,4.6,0.1,6.8,0.2c1.6,0.8,2.8,1.6,2.6,3.8c-0.6,4.7,1.1,9.3,0.7,14
			c-6.5-0.6-12.9,0-18.7,3.3C447,383.4,443.3,377.3,439,371.7z"/>
		<path class="st23" d="M498.3,421.2c-2.2-0.1-4.4-0.1-6.5-0.2c0-0.5,0-1,0-1.6c-0.4-3.8-0.5-7.6,0.1-11.3
			C495,412,496,417,498.3,421.2z"/>
		<path class="st24" d="M491.8,408.2c0.2,3.8,0.3,7.6-0.1,11.3C490.6,415.7,490.5,412,491.8,408.2z"/>
		<path class="st22" d="M141.6,425.3c-3.7,7.1-9,12.4-16.8,15c-12,4-25.5-0.7-32.3-11.4c-0.6-0.9-1.1-1.8-1.7-2.8
			c-3.3-7.7-3.8-15.4-0.4-23.2c5.8-13.6,21.1-20.2,35.1-15.2c13.8,4.9,21.4,20,17.2,34.2C142.4,423,142,424.1,141.6,425.3z"/>
		<path class="st13" d="M326.9,324.2c-0.4,7-1.9,13.8-3,20.7c-1.7,10.3-3.6,20.6-5.1,30.9c-0.9,6.2-2.7,12-5,17.8
			c-0.8,1.9-2.5,2.7-4.4,3.1c-0.8,0.2-1.9-0.1-2.3,0.3c-3.9,4.5-8.6,1.9-13.1,1.5c-0.7-0.1-1.3-0.2-2-0.2
			c-8.6,0.7-16.8-1.4-25.1-3.4c-1.9-0.5-3.7-0.6-5.6-0.6c-6.3,0-12.6-0.6-18.9-1.6c-3.8-0.6-6.1-2.2-6.3-5.7
			c-0.3-5.6-1-11.3,0.6-16.9c2.2-3.5,5.8-4.2,9.2-3.5c5.3,1.1,10.4,1.3,15.7,0.6c2.1-0.3,4.3,0,6.4,0.7c4.1,1.4,7.9,3.5,11.8,5.3
			c4.3,2.8,10.1,3.1,13.6,0.6c0.4,0.2,0.5,0.6,0.6,1c0.1,0.5,0-0.1,0,0c1.9-7.6,4.3-11.7,10.9-18.8c-1.3-0.2-2.4,0.9-3.4,0.1
			c-0.7-1.8,0.4-3.1,1.3-4.5c5.6-3.9,6-8.7,3.3-14.6c-1.4-3-3.1-6.4-1.4-10c0.4-4.4,3.4-7.3,6.3-10c3.4-3.2,5-6.8,4.5-11.4
			c-0.4-3.5,0.1-7,1.9-10.1c1.2-2,3-3.1,5.4-2.6c2.1,0.4,3.3,1.7,3.1,4c-1.6,2.3-5,3.5-4.4,7.4c-0.4-3.7,2.1-5.2,4.5-6.7
			c2.5,3.4,3.5,6.9,1.1,10.8c-0.7,1.1-0.5,2.3-0.5,3.5C326.8,315.9,326.8,320.1,326.9,324.2z"/>
		<path class="st25" d="M279.7,374c-4-1-7.6-3.2-11.3-4.9c-3.9-1.9-7.3-4.6-10.4-7.6c-1.1-1-2.2-2-2.3-3.7c0.7-2,1.2-4.1,2.9-5.6
			c4.2,0.5,7.3,3.3,11,4.9c2,0.8,3.6,2.8,6.1,2.4c0.6-0.1,1.1-0.1,1.5,0.3c2.7,1.8,3.7,0.7,4.3-2.1c0.9-4.6,2.2-9.2,4-13.6
			c1.6-3.9,3.5-7.6,6.9-10.4c4-3.3,8.5-2.4,10.7,2.2c2.6,5.4,4.1,10.9,0.2,16.5c-0.7,1.2-1.7,2.3-1.8,3.8c-0.7,4.1-3.8,6.8-6.2,9.9
			c-0.8,0.9-1.3,2-1.7,3.2c-0.2,0.8-0.5,1.9-1.2,2C288.3,372.5,284.6,376,279.7,374z"/>
		<path class="st26" d="M303.4,352.3c1.8-5.4,1.4-10.7-1-16c-2-4.5-6.8-4.7-9.6-1.9c-3.1,3.1-5.2,6.8-6.7,11
			c-1.8,5.1-3.5,10.1-4,15.5c-0.1,1.5-0.9,1.9-2.2,1.4c-1.6-0.7-3.2-1.4-4.2-2.9c-2.6-3-4.7-6.3-6.2-10c-1.7-4.2-2.8-8.5-1-13
			c0.4-3.2,3.1-3,5.2-3.2c2.7-0.3,5.2-0.9,7.6-2.2c2.7-1.4,3.1-2.8,1.1-5.1c-0.1-0.6,0-1.2,0.6-1.6c7.5-2,14.5,0.4,21.6,2.5
			c0.3,5,2.1,9.6,3.9,14.2c1.3,3.2,0.9,5.6-1.7,7.8C305.6,350,304.5,351.2,303.4,352.3z"/>
		<path class="st27" d="M235.9,337.6c-0.3-5.2-0.5-10.5-0.8-15.7c0.1,0.1,0.2,0.2,0.2,0.3c0.8,1.2-0.7,3.4,1.2,3.7
			c2.1,0.3,3.6-1.7,5.2-2.8c1.6-1.1,0.5-2.4,0-3.6c-0.9-2.7-1.9-5.3-2.9-8c-0.4-1.2-0.9-2.5,0.6-3.1c1.4-0.6,2.2,0.4,3,1.4
			c2.9,3.9,5.5,8,7.7,12.4c3,6.1,5.3,12.4,7.1,18.9c0.4,1.5,1,2.9-1,3.7c-1.9,0.7-2.8-0.4-3.5-1.8c-1.4-2.6-2.9-5.2-4.1-7.9
			c-0.9-2.1-2.2-2.4-4.1-1.7c-1.4,0.5-2.8,0.9-4,1.9C239.2,336.4,237.8,337.5,235.9,337.6z"/>
		<path class="st28" d="M283.1,324.5c0,0.5-0.1,1.1-0.1,1.6c0.3,2.7-1.3,3.3-3.5,2.8c-1.8-0.5-3.5-1.3-4.9-2.7
			c-1.1-1.1-1.7-2.6-3.9-1.1c-1.6,1-2.7-0.8-3.1-2.2c-0.7-3.2-2.4-2.6-4.4-1.4c-2.2,1.3-4.1,3.2-6.9,2.8c-2.3,0.3-4.4,0.2-5-2.7
			c-0.5-2.5,1.6-5.9,4.3-6c4.8-0.2,8.9-1.7,13-3.9c1.7-0.9,4-1.1,5.5,0.1C278.4,315.1,283,318.3,283.1,324.5z"/>
		<path class="st17" d="M256.4,324.3c2.8-1.6,5.5-3.3,8.4-4.6c2.8-1.3,2.9-1.1,3.4,1.9c0.3,1.5,0.7,2.9,2.1,3.7
			c0.5-0.4,0.4-1,0.6-1.4c0.6-2,2-2,2.7-0.4c1.1,2.4,3.2,3,5.1,4.2c2.2,1.4,3.4,0.7,4.2-1.5c1.3,0.6,2,1.7,3.1,2.8
			c-3.9,3-7.5,5.7-12.7,5.4c-1.8-0.1-3.7,0.5-4.8,2.2c-0.7,0-1.3,0.2-1.8,0.7c-1.8,1.4-2.8,0.7-3.7-1.2c-0.6-1.3-0.2-3.9-3.1-3
			c-0.8,0.2-0.6-0.8-0.5-1.2C260.1,328.6,258.2,326.5,256.4,324.3z"/>
		<path class="st29" d="M258.7,352.2c-0.2,2.2-1.2,3.9-2.5,5.6c-3.5,0.9-6.2-1.1-9-2.5c-0.2-3.3-3.5-4.4-5.1-6.8
			c-0.2-0.3-0.4-0.6-0.5-1c-0.2-1.2-1.1-2.5,0.6-3.4c5.6-1.1,10.2,0.8,13.9,5C256.9,350.2,257.8,351.2,258.7,352.2z"/>
		<path class="st30" d="M242.2,344.2c-0.9,1,0.3,2,0,3.1c-1.4,0.3-2.3-0.7-3.4-1.2c-1.5-0.8-1.9-2.5-2.9-3.7c0.2-1.3-1.6-2.6-0.1-4
			C238.8,339.3,239.8,342.5,242.2,344.2z"/>
		<path class="st31" d="M326.2,297.5c-0.2,0.8-0.4,1.4-1.3,1.9c-2.1,1.2-3.3,3.1-3,6.4c-1.4-5.4-0.5-7,4.1-9
			C326.2,297,326.2,297.2,326.2,297.5z"/>
		<path class="st13" d="M408.9,354.5c1.5-1.9,2.8-4,4.6-5.6c2.4-2.2,3.1-4.7,1.8-7.6c-1.5-3.4-1.8-7.3-4-10.4
			c-0.5-6.2,2.7-10.7,6.9-14.7c2.8-2.7,4-5.8,3.7-9.7c-0.2-3.1-0.2-6.2,0.9-9.1c0.6-1.6,1.2-3.3,3.1-4c3,0.8,3.3,3.3,3.7,5.7
			c-1.5,1.6-2.4,3.4-2.3,5.6c0.7-1.4-0.5-3.8,2.3-4c2.5,2.5,3.8,5.5,3.4,9.1c-0.1,1.4,0.2,2.7,0.5,4c0.5,3.5,0.2,7.1,0.3,10.6
			c-0.5,4.8-0.7,9.7-2.8,14.2c-3.4,3.6-6.9,7-10.7,10.3c-1.5,3.2-4.1,5.1-7.3,6.2C411.6,355.6,410.1,355.8,408.9,354.5z"/>
		<path class="st5" d="M429.1,299.3c-0.9-2.1-1.6-4.4-3.3-6c0.1-2.3-1.4-4.1-1.9-6.1c1.5,0,2.5,1.1,3.8,1.5
			c2.7,4.6,5.2,9.4,8.6,13.6c1.7,2.2,2.1,5.5,3.1,8.2c1.5,4.2,3,8.4,4.7,12.5c0.7,1.8,0.5,3-0.9,4.2c-3.1,2.7-5.8,6-9.2,8.5
			c-1-1.2-0.9-2.5-0.4-3.8c3.4-4.2,1.9-9,1.1-13.5c-0.4-2.5-1.4-4.9-1.8-7.5c0,0.8,0.3,1.6-0.6,2c-0.4-0.4-0.7-0.9-0.5-1.4
			c1.1-4-0.9-7.3-2.5-10.7C428.8,300.4,428.8,299.9,429.1,299.3z"/>
		<path class="st32" d="M408.9,354.5c3.5,0.5,6.2-1,8.7-3.3c0.9-0.8,1.6-1.9,2.7-2.3c-0.1,1.6,1.2,2.2,2,3.2c0.8,1,2,1.7,2.2,3.1
			c-0.5,1.7-2,2-3.4,2.5c-1.1,0.5-1.7,1.3-1.7,2.5c-1.5,0.6-2.7,1.6-4.4,1.6c-0.7,0-1.5,0.3-1.7,0.9c-1.4,3.5-4.2,2.6-6.8,2.3
			c-0.6,0-0.1-2.5-1.7-0.7c-0.4,0.5-1.2-0.1-1.7-0.4c-0.6-0.6-1.3-1.1-2-1.6c-0.7-0.6-1.2-1.3-1.4-2.2c0.4-1.6,1.6-2.6,2.7-3.5
			c0.7,0.1,0.2-0.6,0.2,0c0,0.1-0.1,0-0.4,0.1c-0.6,0.1-1-0.1-1.4-0.5c0.1-2.3,1.7-2.3,3.4-2.4C405.8,353.7,407.3,354.8,408.9,354.5
			z"/>
		<path class="st33" d="M434.4,331.7c-0.1,1.4-0.2,2.7-0.3,4.1c-0.8,1.2-2,2-3.1,2.8c-0.1-4.9,1.5-9.6,1.7-14.4
			C436.3,325.9,436.8,327.9,434.4,331.7z"/>
		<path class="st34" d="M431.5,353.1c-0.5,3.2-1,6.5-1.5,9.7c-1.3-0.2-2.1-1.2-3.1-2c-0.7-1.9-0.5-3.8,0.8-5.4
			C428.8,354.4,430.1,353.7,431.5,353.1z"/>
		<path class="st35" d="M427.7,355.5c-0.2,1.8,0.3,3.7-0.8,5.4c-1.9-1-3.9-2.1-5.8-3.1c0.6-1.6,2.2-1.7,3.4-2.5
			C425.5,356.1,426.6,356.1,427.7,355.5z"/>
		<path class="st36" d="M400.8,356.1c0.8,0.3,3-0.7,1.3,1.7c-0.6,0.9-1.4,1.5-2.1,2.2c-1.9,2.7-5.2,4.2-6.9,7.3
			c-1.9,3.6-1.7,4.8,2,6.6c1.3,0.6,2.9,1,3.5,2.6c0,2.5-1.1,3.2-3.5,2.3c-6.1-2.3-12.3-4.5-18.4-6.7c-1-0.4-2-0.8-2.1-2.1
			c0.3-0.9,0.6-1.9,1.9-1.6c1,0.3,2,0.7,3.1,1c3.8,1.3,6.9,0.5,9.2-3C391.7,361.7,395.5,358.1,400.8,356.1z"/>
		<path class="st0" d="M247.1,354.4c3,1.1,6.1,2.2,9.1,3.4c2.5,3.7,6.2,6.1,9.6,8.9c0.9,0.8,1.9,1.4,2.6,2.4
			c-3.9-0.7-7.7-0.8-11.6-0.1c-2,0.3-4.1,0.8-6-0.1c-5-2.2-9.7-1.5-14.2,1.3c-0.7-0.3-0.8-1-0.8-1.7c0-6.9,0-13.8,0-20.6
			c2.7,0,3.6,2.4,5.2,3.9c1.1,1.1,1.5,2.9,3.6,2.7C245.4,354.2,246.2,353.8,247.1,354.4z"/>
		<path class="st37" d="M244.7,355.4c-1.1,1.7-1.8,0.3-2.4-0.4c-2.2-2.4-3.9-5.2-6.6-7.1c0-1.8,0-3.7,0-5.5c1.8,0.3,2.2,2.1,3.2,3.2
			c0.3,1.9,1.5,2.8,3.3,3.1C242.3,351.2,245.3,352.6,244.7,355.4z"/>
		<path class="st38" d="M398.6,376.5c-1.6-0.7-3.3-1.3-4.9-2c-3.4-1.5-3.9-3.5-2.1-6.6c2.1-3.4,4.5-6.5,8.4-7.9
			c0.8,0.4,0.7,1.6,1.6,1.9c2.2,1.9,0.1,3.5-0.4,5.2c-0.1,0.1-0.3,0.2-0.4,0.3c-1.7,2.6-0.5,5.4-0.8,8.1
			C399.9,377,399.4,376.9,398.6,376.5z"/>
		<path class="st39" d="M403.3,363.5c0.5,0.1,1.2,0.5,1.4,0.3c2-1.5,1.7,0.1,1.8,1.3c-3.1,2.5-3.4,6.5-4.8,9.8
			c-0.2,0.6,0.1,1.4-0.9,1.9c0-3.2,0-6.2,0-9.3l0,0C401.7,366.2,401.6,364.3,403.3,363.5z"/>
		<path class="st22" d="M447.3,391.8c3.7,6.1,5.2,12.9,6.3,19.8c1.2,7.7,1,15.5-0.6,23.2c-0.3,1.3-0.6,2.6-1.4,3.7
			c-1.7,0.6-2.9-0.5-4-1.3c-5.1-3.8-9.5-8.3-10.1-15.2c-1-5.4-1.5-10.9,0.2-16.3C439.4,400.1,442.5,395.4,447.3,391.8z"/>
		<path class="st9" d="M437.4,422c2.9,7,7,13.1,14.1,16.5c-0.6,5.4-3,9.9-6.7,13.8c-4.4,0.2-6.9-3.3-9.9-5.5
			c-3.7-2.7-6.5-6.4-8-10.9c-0.3-1.6-1.4-2.8-2.1-4.2c-0.7-2.4-2.1-4.6-2.1-7.2c1-3,3.8-2.3,6-2.5C431.5,421.8,434.5,422,437.4,422z
			"/>
		<path class="st16" d="M430,462.7c-9.4,3.4-24.2-1.7-25.8-15.8c-0.3-2.5-0.1-5.1,1.5-7.3c4.4-0.5,8.1,1.4,11.6,3.6
			c2.4,2.2,5.8,2.8,7.9,5.4c2.6,2.6,4.2,5.8,5.3,9.3C431,459.5,431.5,461.2,430,462.7z"/>
		<path class="st40" d="M417.1,444.2c-3.4-2.5-7.7-2.9-11.5-4.6c0-1.3,0.4-2.4,1.6-3c5.2-1.8,10.5-2.1,15.7,0
			c1.1,1.4,0.7,2.8,0.2,4.2c-0.5,1.3,0.2,1.8,1.2,2.1c1.3,0.4,1.5-0.5,1.8-1.5c0.7-1.8,0.1-3.7,0.8-5.5c4.7,6.8,10.2,12.8,17.9,16.3
			c-3.5,5.5-8.4,9-14.8,10.4c0.5-4.3-1.5-7.8-3.6-11.2c-0.6-0.9-1.5-1.5-1.8-2.6C423.1,445.8,421.3,443.1,417.1,444.2z"/>
		<path class="st41" d="M398.5,464.3c-0.1,2.6-1.8,4.2-4.4,4.1c-2.4-0.1-4.4-2.1-4.3-4.4c0.1-2.3,2.3-4.3,4.6-4.2
			C396.8,460,398.5,461.8,398.5,464.3z"/>
		<path class="st42" d="M295.1,365.1c2.1-3,4.3-6,6.4-9c1.6-0.9,3-2.4,5.4-1.2c-5.6,6.5-11.5,12.8-12.9,21.9
			c-0.9-0.9-0.5-1.9-0.6-2.8C291.8,370.7,293.5,367.9,295.1,365.1z"/>
		<path class="st43" d="M295.1,365.1c-1.1,2.9-2.1,5.8-1.7,8.9c-0.8,2.5-2,3.3-5,2.6c-3-0.7-6.3-0.3-9.1-2.1c-0.1,0,0-0.3,0-0.4
			c0-0.1,0.2-0.2,0.3-0.3c2.3,0.1,4.6-0.2,6.6-1.5c0.9-0.6,2-0.9,3.1-0.9c2.1,0.1,3.3-0.5,3.5-2.9
			C292.9,367.2,293.8,366,295.1,365.1z"/>
		<path class="st44" d="M244.7,355.4c-0.5-1.1-0.9-2.3-1.9-3c-1.4-0.9-1.3-2-0.6-3.3c-0.3-0.5-0.2-0.9,0.2-1.2
			c1.9,1.1,2.7,4.2,6.2,3.2c-1.3,1-2.9,1.6-1.5,3.3C246.1,354.3,245.5,354.9,244.7,355.4z"/>
		<path class="st45" d="M242.4,347.9c-0.1,0.4-0.2,0.8-0.2,1.2c-3.7,0.2-3.8,0.1-3.2-3.6c1.4-0.1,2.1,1.1,3.1,1.7
			C242.2,347.5,242.3,347.7,242.4,347.9z"/>
		<path class="st0" d="M434.4,331.7c0.4-2.7,1.3-5.6-1.8-7.5c-0.1-3.7-0.2-7.5-0.3-11.2c0.3-0.9-0.1-1.9,0.5-2.7
			c3.8,6.3,4,13.3,3.6,20.3C436.4,332.1,435.3,331.7,434.4,331.7z"/>
		<path class="st46" d="M429.1,299.3c0,0.5,0.1,1,0.1,1.6c-1.4,1.4-1.3,3.4-2.3,5.8C427.1,303.5,425.7,300.7,429.1,299.3z"/>
		<path class="st13" d="M403.3,363.5c-0.9,1.3-1.2,3-2.5,4.1c-0.6-2,2.1-3.5,0.8-5.6C402.8,361.7,403.3,362.4,403.3,363.5z"/>
		<path class="st47" d="M417.1,444.2c0.1-0.5,0-1.2,0.6-1.4c2.3-0.9,3.8,0.8,5.3,2c1.4,1,2.9,2.1,1.6,4.2
			C422.6,446.6,419.1,446.6,417.1,444.2z"/>
	</g>
	<path class="st4" d="M554.2,328c-2.3,5.9-8.7,27,1.4,27c8.7,0,15.2,1.1,15.8-7.5c-1.6-6.9-3.1-15.9-2.9-25.1c0-0.2-0.1-0.3-0.1-0.3
		S556.5,322.1,554.2,328z"/>
</g>
</svg>
