<svg xmlns="http://www.w3.org/2000/svg" viewBox="0 0 1749.93 718.79"><defs><style>.cls-1{fill:none;stroke:#535353;stroke-miterlimit:10;stroke-width:2px;}</style></defs><title>Asset 1</title><g id="Layer_2" data-name="Layer 2"><g id="Layer_1-2" data-name="Layer 1"><g id="outline"><g id="fender"><path class="cls-1" d="M76.32,298.42a121.51,121.51,0,0,1,29.33-12c16-4,47.33-10,58.67-10.67s25.33-1.33,25.33,0,2.67.56-3.33,10.95S175,303.75,167,307.75s-33.7,18.67-33.7,18.67l-11,6s54,51.33,79.33,69.33c16-7.33,22-10,39.33-16s96-8,96-8,66-2,95.33,24,48.33,95.33,51.67,122h47s-16-41.33-20-96c-6-77.33,10-149.33,17.33-170-10.67-21.33-28.67-49.33-28.67-49.33s-18.67-2.67-24.67,0-14.67,11.33-14.67,11.33-230,24-304,40.67-80,32-80,32Z"/></g><path class="cls-1" d="M976,58.42C910.79,56.47,790.53,73,790.53,73a151.4,151.4,0,0,0-57.85,17.27C692.74,111.66,621,153.2,597,174.42c-26.33,6.67-28.33,20.33-34.13,31.22-18.4,18.16-32,35.41-34.54,52.11-7.29,27.34-38,146.67,2.67,266,4,6.67,13.33,12,36.67,12.67s174,0,174,0l214,.3M589,255.92a5.85,5.85,0,0,1,6-5.84c4.66.09,11,.13,15-.16,7-.5,15-5,18-21s1.5-41,1.5-46.5-3.5-9.5-7-9.5c38-34.5,105-72.5,151.5-86s174-16.5,174-16.5l-30.5,172.5Z"/><path class="cls-1" d="M1309,227.08c-10-43.33-40.67-173.33-40.67-173.33S1009.66,58.42,976,58.42c-3,74-43.67,262-20.33,478.3H1201s1.33-137.63,123.33-158.3C1324.32,302.42,1326.32,268.42,1309,227.08Zm-19.06.12L991.46,239a2.56,2.56,0,0,1-2.66-2.69l8.4-166.13a2.56,2.56,0,0,1,2.53-2.43l255.18-2.62a2.56,2.56,0,0,1,2.52,2l34.89,157A2.56,2.56,0,0,1,1289.93,227.2Z"/><path class="cls-1" d="M1324.32,378.42c22.67-5,26.67-4,60.67-5,33.61-1,71.14-11.75,131.89,37.28a7.52,7.52,0,0,0,5,1.67c13.67-.49,29.77-6.53,39.12-14.95,10-9,49-84,49-84l27.57-61.24c7.76-16.43,4.71-26.83,2.43-35.65l-8.45-31.84a10.56,10.56,0,0,1,9.46-12.75l43.11-2.39a1.7,1.7,0,0,0,1.48-2.35C1679,151.4,1637.38,55.94,1576,28.92c-9.09-2.68-23.5,0-23.5,0l-50.24,29.21a2.69,2.69,0,0,0,0,4.65,41.89,41.89,0,0,1,6.06,4.3c6.33,5.33,31.33,29.33,36.67,41.67s-17.33,37.33-17.33,37.33-47.33,55.67-60.67,63.67-10.33,10.33-36.33,12.67S1310,227.08,1310,227.08"/><path class="cls-1" d="M1324.32,378.42"/><path class="cls-1" d="M1310,227.08"/><g id="bootom"><path class="cls-1" d="M1201,536.71l-3.25,41.63a.32.32,0,0,1-.6.15c-.92-1.49-3.08-4.35-6.49-5.08-4.67-1-140-1.33-140-1.33l-163,.33-308.33-.33A81.56,81.56,0,0,0,552,574.75c-12,6-10.33,4.67-15,7s-41.67,8-43.33,8c-1-12.67-9.67-66-9.67-66h47"/></g><g id="bootom-2" data-name="bootom"><path class="cls-1" d="M1202,536.71"/></g><g id="bootom-3" data-name="bootom"><path class="cls-1" d="M531,523.75a34,34,0,0,0,22.74,11.36"/></g><g id="top"><path class="cls-1" d="M1552.74,28.73s-28.75,3.19-38.25,2.69-57-2.13-60.25-3.69-.75-6.31-21.75-6.31H1315.74s-9-1-3.5,4.5c-19.85.5-57.5.75-57.5.75s8.75-4.89-3-5.32-224.5,4.82-224.5,4.82-13-2.25-17.75,8.75c-12.5.75-135.75,3.25-135.75,3.25s-84.08.6-136.75,20.09S527,180.42,499.66,208.42C521,244,528.32,257.75,528.32,257.75"/></g><path class="cls-1" d="M1268.32,53.75c167.67,2.92,225.67,0,235.36,9.89"/><path class="cls-1" d="M622.49,172.92s-21,0-26.92,1.87"/><path class="cls-1" d="M565.08,201.09s-9.59,13.58-6.84,25.58,6.75,21,36.31,23.42"/><path class="cls-1" d="M76.32,298.42s-18,10.33-27.5,27.17-18.17,35.5-20.5,58-2.17,25.83-2.17,25.83l5.33-3.67s2.17-26.5,8.67-34,10.67-14.83,33.67-19,49.61-20.94,49.61-20.94"/><ellipse class="cls-1" cx="44.07" cy="473.92" rx="17.92" ry="29.5"/><path class="cls-1" d="M76.32,292.42s-56.33,2.5-57.83,120c-9.5,20.5-12.26,53-7,67-8.5,8-13.5,11.5-8.5,39,26.5,22,23,20.5,45,32.5,32,5.83,80.5,5.83,80.5,5.83s3-64.33,12.5-85.33,28-56,60.67-69.67"/><path class="cls-1" d="M932,285.42s-28-9-49-6-47.74,9.13-48,15.81-5,21.19,29,23.19h46s12-1,18.5-4.5S944,295.42,932,285.42Z"/><path class="cls-1" d="M884.66,289.75s-27,1.67-29.67,2.33-14.33,1-13,8.33,3,7.33,7.33,8a48.26,48.26,0,0,0,10.33,0s4.67-.67,6.67-4c4.68-.67,18.33-.67,18.33-.67l11.67-.33s6.67,1.33,8.67,3,8,2.59,9.67,2.3,10-1,11.33-1.3,4.67-2.33,4.67-3.67v-10s-1.33-4.33-4.67-4S884.66,289.75,884.66,289.75Z"/><path class="cls-1" d="M1288.74,274.42s-28-9-49-6-47.74,9.13-48,15.81-5,21.19,29,23.19h46s12-1,18.5-4.5S1300.74,284.42,1288.74,274.42Z"/><path class="cls-1" d="M1241.4,278.75s-27,1.67-29.67,2.33-14.33,1-13,8.33,3,7.33,7.33,8a48.26,48.26,0,0,0,10.33,0s4.67-.67,6.67-4c4.68-.67,18.33-.67,18.33-.67l11.67-.33s6.67,1.33,8.67,3,8,2.59,9.67,2.3,10-1,11.33-1.3,4.67-2.33,4.67-3.67v-10s-1.33-4.33-4.67-4S1241.4,278.75,1241.4,278.75Z"/><path class="cls-1" d="M1514.71,409s29.79,17.45,46.29,164.45c0,16,151-38.75,162-50.75s24-38.25,24.75-52.25,2.25-63.5,0-67.75S1731,385.92,1731,382.42s7.49-84.6,4.5-111.5c-.75-6.75-11.75-13.17-11.75-13.17s-5.75-27.08-11.25-34.83,0-14.25-11.5-31.25-15.4-24.47-15.4-24.47"/><path class="cls-1" d="M1723.74,257.75a341.69,341.69,0,0,1-4.5,68.17c-6.25,37,6.23,48.79,11.75,56.5"/><line class="cls-1" x1="1609.14" y1="314.9" x2="1721.46" y2="310.44"/><path class="cls-1" d="M1197.15,578.5s3.9,13.67,0,13.17-285.9,0-285.9,0-358.5,1.25-360.75.25-11.53-9.62-11.64-11.06"/><ellipse class="cls-1" cx="1373.97" cy="568.48" rx="144.74" ry="149.31"/><ellipse class="cls-1" cx="1373.97" cy="568.48" rx="92.83" ry="95.76"/><ellipse class="cls-1" cx="311.01" cy="568.48" rx="144.74" ry="149.31"/><ellipse class="cls-1" cx="311.01" cy="568.48" rx="92.83" ry="95.76"/><path class="cls-1" d="M1630.88,74.05l28.36-11.89s20-6,15.25-10.75-33.25-21.75-98.5-22.5"/><path class="cls-1" d="M1555.5,28.46S1542,10.17,1515,4.42s-84.25-2.5-84.25-2.5l-85.5.75-218.75,2.5s-93.75-.25-116.75,2.25-68.52,9.83-102,30"/></g></g></g></svg>