<?xml version="1.0" encoding="UTF-8" standalone="no"?>
<svg width="22px" height="22px" viewBox="0 0 22 22" version="1.1" xmlns="http://www.w3.org/2000/svg" xmlns:xlink="http://www.w3.org/1999/xlink">
    <!-- Generator: Sketch 39.1 (31720) - http://www.bohemiancoding.com/sketch -->
    <title>Combined Shape</title>
    <desc>Created with Sketch.</desc>
    <defs></defs>
    <g id="Page-1" stroke="none" stroke-width="1" fill="none" fill-rule="evenodd">
        <g id="Home_new" transform="translate(-568.000000, -4563.000000)" fill="#D8D8D8">
            <g id="Group-35" transform="translate(-36.000000, 1362.000000)">
                <g id="contact" transform="translate(185.000000, 3172.000000)">
                    <g id="Group-34" transform="translate(389.000000, 0.000000)">
                        <path d="M41,51 C47.0751322,51 52,46.0751322 52,40 C52,33.9248678 47.0751322,29 41,29 C34.9248678,29 30,33.9248678 30,40 C30,46.0751322 34.9248678,51 41,51 Z M47.3109155,36.1831574 C46.8578047,36.3839342 46.3716233,36.5200988 45.8607999,36.5808891 C46.3823853,36.2685494 46.7816458,35.7731348 46.9708762,35.1846238 C46.4816171,35.4738704 45.9415653,35.6839006 45.3661296,35.7977567 C44.9053345,35.3061842 44.2498979,35 43.522909,35 C42.1281926,35 40.9973367,36.130856 40.9973367,37.5248079 C40.9973367,37.7225071 41.0196452,37.9155997 41.0627335,38.1002436 C38.9641213,37.9948362 37.1032187,36.9893828 35.8577423,35.4615595 C35.6400278,35.833905 35.5161742,36.2677649 35.5161742,36.7308934 C35.5161742,37.6071222 35.9623651,38.380257 36.6393459,38.8325833 C36.2254611,38.8187436 35.8361982,38.7048876 35.4954146,38.5156371 L35.4954146,38.5471788 C35.4954146,39.7703467 36.3662523,40.7911888 37.5209457,41.0235276 C37.3093867,41.0804556 37.0863013,41.1119973 36.8555115,41.1119973 C36.6924318,41.1119973 36.5347231,41.0958443 36.3800921,41.0650669 C36.7016449,42.0689915 37.6340373,42.7990381 38.7387426,42.8190534 C37.8748247,43.4960341 36.7855081,43.8983724 35.6023507,43.8983724 C35.3984961,43.8983724 35.1976991,43.8860615 35,43.8637529 C36.1177807,44.5815087 37.444807,45 38.8710651,45 C43.5167938,45 46.056226,41.1520079 46.056226,37.8148391 L46.0477572,37.4878953 C46.5439362,37.1339961 46.9731895,36.6893541 47.3109155,36.1831574 Z" id="Combined-Shape"></path>
                    </g>
                </g>
            </g>
        </g>
    </g>
</svg>