<svg xmlns="http://www.w3.org/2000/svg" viewBox="0 0 30 30"><defs><style>.cls-1{opacity:0.2;}.cls-2{fill:#fff;}</style></defs><title>Asset 1</title><g id="Layer_2" data-name="Layer 2"><g id="Capa_1" data-name="Capa 1"><g class="cls-1"><path class="cls-2" d="M15,0A15,15,0,1,0,30,15,15,15,0,0,0,15,0Zm6.69,11.57c0,.15,0,.3,0,.45A9.82,9.82,0,0,1,6.59,20.29a7,7,0,0,0,5.11-1.43,3.46,3.46,0,0,1-3.23-2.4A3.47,3.47,0,0,0,10,16.4,3.45,3.45,0,0,1,7.26,13v0a3.44,3.44,0,0,0,1.56.43A3.46,3.46,0,0,1,7.76,8.79a9.8,9.8,0,0,0,7.12,3.61,3.45,3.45,0,0,1,5.88-3.15,6.89,6.89,0,0,0,2.19-.84,3.47,3.47,0,0,1-1.52,1.91,6.86,6.86,0,0,0,2-.54A6.94,6.94,0,0,1,21.69,11.57Z"/></g></g></g></svg>