<?xml version="1.0" encoding="UTF-8" standalone="no"?>
<svg width="15px" height="13px" viewBox="0 0 15 13" version="1.1" xmlns="http://www.w3.org/2000/svg" xmlns:xlink="http://www.w3.org/1999/xlink">
    <!-- Generator: Sketch 40.3 (33839) - http://www.bohemiancoding.com/sketch -->
    <title>twit_contact</title>
    <desc>Created with Sketch.</desc>
    <defs></defs>
    <g id="Page-1" stroke="none" stroke-width="1" fill="none" fill-rule="evenodd">
        <g id="ContactUs_desktop" transform="translate(-218.000000, -315.000000)" fill="#00ACED">
            <g id="Group-12" transform="translate(187.000000, 208.000000)">
                <g id="Group-26">
                    <g id="Group-11" transform="translate(1.000000, 0.000000)">
                        <g id="Group-17" transform="translate(1.000000, 105.206612)">
                            <g id="twit_contact" transform="translate(29.000000, 1.991736)">
                                <path d="M14.7730986,1.40805503 C14.2293656,1.64699611 13.645948,1.80904321 13.0329599,1.88138866 C13.6588624,1.5096786 14.137975,0.920094311 14.3650514,0.219717583 C13.7779405,0.563944988 13.1298784,0.813898277 12.4393556,0.949396372 C11.8864014,0.364384542 11.0998775,0 10.2274908,0 C8.55383118,0 7.19680398,1.34581209 7.19680398,3.00473011 C7.19680398,3.24000843 7.22357423,3.46980458 7.27528016,3.68954611 C4.75694552,3.56410264 2.5238625,2.36752997 1.02929077,0.549293957 C0.768033408,0.992415821 0.619409035,1.50874496 0.619409035,2.0599062 C0.619409035,3.10269093 1.15483818,4.02278524 1.96721509,4.56109092 C1.47055333,4.54462048 1.00343781,4.40912239 0.594497495,4.1838987 L0.594497495,4.22143598 C0.594497495,5.67710686 1.63950282,6.89199332 3.02513483,7.16849562 C2.77126402,7.23624466 2.50356152,7.27378194 2.22661375,7.27378194 C2.03091815,7.27378194 1.84166769,7.25455845 1.65611051,7.21793087 C2.04197385,8.41268413 3.16084479,9.28149984 4.48649116,9.30531973 C3.44978969,10.1109828 2.14260972,10.5897986 0.722820894,10.5897986 C0.478195362,10.5897986 0.237238971,10.5751476 0,10.5485985 C1.34133678,11.4027872 2.93376837,11.9008264 4.64527809,11.9008264 C10.2201525,11.9008264 13.2674712,7.32139779 13.2674712,3.34989116 L13.2573086,2.96080096 C13.8527234,2.5396317 14.3678274,2.01047095 14.7730986,1.40805503 L14.7730986,1.40805503 Z" id="footer_twit"></path>
                            </g>
                        </g>
                    </g>
                </g>
            </g>
        </g>
    </g>
</svg>