<svg id="Layer_1" data-name="Layer 1" xmlns="http://www.w3.org/2000/svg" viewBox="0 0 16.75 12"><defs><style>.cls-1{fill:#fff;opacity:0.4;}</style></defs><title>youtube</title><path class="cls-1" d="M16.46,5.14V6.83a.35.35,0,0,0,0,.05c0,.46,0,.92-.06,1.38a10.21,10.21,0,0,1-.18,1.36,2.29,2.29,0,0,1-.69,1.29,2,2,0,0,1-1.12.54c-.4.05-.8.09-1.21.12l-1.07.06-1.51,0H6l-1.16,0L4,11.6l-1-.07c-.24,0-.48,0-.72-.08A2.11,2.11,0,0,1,.67,10.08a4.41,4.41,0,0,1-.23-1A12.24,12.24,0,0,1,.31,7.67q0-.55,0-1.1c0-.49,0-1,0-1.48s0-.88.05-1.33A10.07,10.07,0,0,1,.55,2.34a2.29,2.29,0,0,1,.51-1.07A2.07,2.07,0,0,1,2.39.54c.38,0,.77-.08,1.15-.11L4.9.36l1.15,0H9.8l1.47,0,1.07,0,1.08.07c.32,0,.64,0,1,.09a2.15,2.15,0,0,1,1.79,1.6,8.48,8.48,0,0,1,.23,1.52c0,.42,0,.85.06,1.27C16.45,5,16.46,5.07,16.46,5.14Zm-4.72.71L6.16,2.93V8.74Z"/></svg>